<?xml version="1.0" encoding="UTF-8" standalone="no"?>
<svg
   xmlns:svg="http://www.w3.org/2000/svg"
   xmlns="http://www.w3.org/2000/svg"
   width="800.0"
   height="240.0"

>
  <defs>
    <style>
      .cq-bg { fill: #ffffff; }
      @media (prefers-color-scheme: dark) {
        .cq-bg { fill: #0d1117; }
        /* CadQuery SVG selectors */
        g[stroke="rgb(0,0,0)"] { stroke: #c9d1d9 !important; }
        g[stroke="rgb(160,160,160)"] { stroke: #484f58 !important; }
        /* OpenSCAD SVG selectors */
        path { stroke: #c9d1d9 !important; }
        polygon { stroke: #c9d1d9 !important; fill: #161b22 !important; }
        /* Common selectors */
        line { stroke: #c9d1d9 !important; }
        text { stroke: #c9d1d9 !important; fill: #c9d1d9 !important; }
      }
    </style>
  </defs>
  <rect width="800.0" height="240.0" class="cq-bg"/>
    <g transform="scale(4.239073690258911, -4.239073690258911)   translate(64.99544520366396,-24.030763448016806)" stroke-width="0.23590059363627688"  fill="none">
       <!-- hidden lines -->
       <g  stroke="rgb(160,160,160)" fill="none" stroke-dasharray="0.23590059363627688,0.23590059363627688" >
			<path d="M-17.81532647640858,-18.353263443191526 L16.163574352768048,-15.935353350300176 " />
			<path d="M16.16357435276805,-15.935353350300172 L17.815326476408583,-16.894841482399915 " />
			<path d="M2.4920966328593748,-17.985229670077775 L17.815326476408575,-16.89484148239992 " />
			<path d="M17.81532647640858,-16.894841482399915 L17.81532647640858,6.188828026031157 " />
			<path d="M-6.356936145815824,-12.844905156380802 L-6.180697867953289,-12.945332318428365 L-6.002808875870901,-13.042822649437921 L-5.823311079336792,-13.137353181168889 L-5.642246767145475,-13.228901642694778 L-5.459658597154819,-13.31744646565011 L-5.275589586236067,-13.402966789311831 L-5.0900831001392675,-13.485442465513971 L-4.90318284327653,-13.564854063394487 L-4.714932848425467,-13.641182873973039 L-4.525377466355302,-13.714410914558767 L-4.334561355378035,-13.784520932986899 L-4.142529470827179,-13.851496411683296 L-3.9493270544664902,-13.915321571555898 L-3.754999623831244,-13.975981375712202 L-3.5595929615045225,-14.033461533001882 L-3.3631531043310625,-14.087748501383713 L-3.1657263325712073,-14.138829491116011 L-2.967359158997506,-14.186692467769834 L-2.7680983179365266,-14.23132615506422 L-2.5679907542584837,-14.272720037522843 L-2.367083612317265,-14.3108643629514 L-2.165424224843444,-14.345750144735165 L-1.9630601017929314,-14.37736916395622 L-1.7600389191538528,-14.40571397132977 L-1.5564085077143361,-14.430777888959161 L-1.352216841793802,-14.452555011909164 L-1.1475120279404556,-14.471040209597142 L-0.9423422935976213,-14.486229127001804 L-0.7367559757415978,-14.498118185689208 L-0.5308015094937006,-14.506704584655836 L-0.32452741670918517,-14.51198630098849 L-0.11798229454575182,-14.513962090340883 " />
			<path d="M-0.11798229454575203,-14.513962090340883 L-0.11798229454575204,-10.584140358540541 " />
			<path d="M-0.11798229454575293,9.490323887946836 L-0.3055028532064701,9.456097818195873 L-0.4925976233322862,9.418132446339573 L-0.6791961927854122,9.376442060446987 L-0.8652283361705793,9.331042350476702 L-1.0506240412640135,9.281950402372022 L-1.2353135353621552,9.229184691630751 L-1.4192273115402663,9.17276507635203 L-1.6022961548109746,9.112712789762874 L-1.7844511681729998,9.049050432227117 L-1.9656237985401646,8.981801962739915 L-2.1457458625409864,8.910992689910895 L-2.324749572179131,8.836649262439389 L-2.5025675603450943,8.758799659085334 L-2.679132906169445,8.677473178139609 L-2.8543791602081234,8.592700426397794 L-3.028240369450366,8.504513307641453 L-3.200651102139785,8.412945010631296 L-3.3715464723992508,8.318029996616785 L-3.5408621646503473,8.219803986366816 L-3.708534457818204,8.118303946726403 L-3.8745002493126153,8.013568076704376 L-4.03869707877635,7.905635793097391 L-4.20106315159177,7.794547715655659 L-4.361537362136917,7.6803456517958715 L-4.5200593167823175,7.563072580867214 L-4.676569356619791,7.442772637976314 L-4.831008579914753,7.319491097377229 L-4.983318864273588,7.193274355432719 L-5.133442888517727,7.064169913153197 L-5.281324154256151,6.932226358319993 L-5.4269070071482615,6.7974933471995955 L-5.5701366578491065,6.660021585855778 L-5.710959202629078,6.5198628110666155 L-5.849321643660286,6.377069770853634 L-5.9851719089620055,6.23169620463038 L-6.118458871997698,6.083796822977862 L-6.249132370916236,5.933427287054501 L-6.377143227430035,5.780644187648345 L-6.502443265323041,5.625505023879449 L-6.624985328581598,5.468068181560363 L-6.7447232991413895,5.3083929112229225 L-6.861612114243711,5.1465393058196325 L-6.9756077833945955,4.982568278108022 L-7.086667404920417,4.816541537726421 L-7.194749182113725,4.648521567969857 L-7.2998124389631975,4.4785716022748 L-7.401817635461844,4.306755600421609 L-7.500726382487683,4.133138224463591 L-7.596501456251298,3.9577848143917485 L-7.689106812304818,3.7807613635444475 L-7.778507599107025,3.6021344937711706 L-7.864670171139581,3.4219714303597293 L-7.947562101569339,3.240339976736354 L-8.027152194452004,3.057308488948247 L-8.10341049647256,2.8729458499381626 L-8.176308308218047,2.68732144362065 L-8.245818194978444,2.500505128769765 L-8.311913997071574,2.3125672127281085 L-8.374570839688152,2.123578424947032 L-8.433765142253298,1.933609890367971 L-8.48947462730097,1.7427331026549218 L-8.541678328857964,1.5510198972882008 L-8.590356600334346,1.3585424245295443 L-8.635491121917346,1.1653731222687242 L-8.677064907465926,0.9715846887619088 L-8.715062310903422,0.7772500552720696 L-8.749469032105871,0.5824423586217056 L-8.78027212228377,0.38723491366815327 L-8.80745998885531,0.19170118571192302 L-8.831022399809157,-0.004085237151580601 L-8.85095048755524,-0.20005067172652896 L-8.867236752262002,-0.39612136744696613 L-8.879875064678941,-0.59222353413248 L-8.888860668443304,-0.7882833697587213 L-8.89419018187013,-0.9842270882323976 L-8.895861599224926,-1.1799809471602976 L-8.893874291478518,-1.375471275601877 L-8.888229006543778,-1.570624501794907 L-8.87892786899415,-1.7653671808438125 L-8.865974379264088,-1.959626022360286 L-8.849373412331675,-2.153327918045763 L-8.829131215883947,-2.3463999692053252 L-8.80525540796563,-2.5387695141827296 L-8.777754974112108,-2.730364155706263 L-8.746640263967766,-2.9211117881350845 L-8.711922987390963,-3.1109406245957967 L-8.673616210047086,-3.29977922399904 L-8.631734348491362,-3.487556517925991 L-8.586293164743237,-3.674201837374605 L-8.537309760354454,-3.859644939355508 L-8.484802569972954,-4.043816033327565 L-8.428791354405108,-4.2266458074632 L-8.36929719317882,-4.408065454733552 L-8.306342476610372,-4.5880066988036345 L-8.239950897377945,-4.7664018197277445 L-8.170147441604998,-4.94318367943554 L-8.096958379456881,-5.118285746999116 L-8.020411255254173,-5.291642123671545 L-7.9405348771065505,-5.4631875676875215 L-7.857359306070993,-5.632857518816768 L-7.770915844838452,-5.800588122660954 L-7.6812370259532585,-5.966316254684959 L-7.588356599569668,-6.129979543973436 L-7.492309520750176,-6.291516396703794 L-7.393131936310336,-6.450866019326736 L-7.290861171215118,-6.607968441445565 L-7.185535714531854,-6.762764538385726 L-7.077195204945072,-6.915196053446078 L-6.965880415838674,-7.065205619823507 L-6.851633239951096,-7.212736782202614 L-6.734496673609209,-7.35773401800237 L-6.6145148005468615,-7.50014275827175 L-6.491732775314189,-7.639909408226492 L-6.366196806283941,-7.776981367419201 L-6.237954138261221,-7.9113070495352344 L-6.107053034703135,-8.04283590180696 L-5.973542759555082,-8.171518424039041 L-5.837473558710532,-8.29730618723755 L-5.69889664110127,-8.420151851835968 L-5.557864159425162,-8.540009185511188 L-5.4144291905187485,-8.656833080582825 L-5.26864571538207,-8.770579570989236 L-5.1205685988632075,-8.88120584883391 L-4.970253569010182,-8.988670280496013 L-4.8177571960979675,-9.092932422298984 L-4.663136871338592,-9.193953035731301 L-4.506450785282257,-9.291694102213665 L-4.347757905917692,-9.386118837407073 " />
			<path d="M-4.347757905917617,-9.386118837407116 L-4.22789191040614,-9.454496150692053 L-4.106963732055535,-9.520987182750362 L-3.984998787116907,-9.585577958735238 L-3.862022709745246,-9.648254903188883 L-3.738061346611736,-9.709004842895755 L-3.613140751471387,-9.76781500965126 L-3.487287179687157,-9.824673042945333 L-3.36052708271169,-9.879566992560319 L-3.2328871025278465,-9.932485321082636 L-3.104394066049184,-9.98341690632766 L-2.9750749794815774,-10.03235104367735 L-2.8449570226471463,-10.079277448330101 L-2.7140675432717023,-10.124186257462375 L-2.5824340512368957,-10.167068032301623 L-2.4500842127982962,-10.20791376011011 L-2.3170458447705866,-10.246714856079151 L-2.1833469086811363,-10.283463165133469 L-2.049015504893141,-10.318150963645177 L-1.9140798666995886,-10.350770961057107 L-1.7785683543892898,-10.381316301415115 L-1.6425094492862153,-10.409780564809049 L-1.5059317477633885,-10.43615776872204 L-1.3688639552326052,-10.460442369287913 L-1.2313348801112332,-10.482629262456358 L-1.0933734277673621,-10.502713785065692 L-0.9550085944445761,-10.520691715822934 L-0.8162694611676276,-10.536559276191037 L-0.677185187630291,-10.55031313118303 L-0.5377850060666864,-10.561950390062968 L-0.3980982151073482,-10.57146860695349 L-0.2581541736213482,-10.578865781349881 L-0.11798229454575349,-10.584140358540541 " />
			<path d="M-0.11798229454575208,9.490323887946833 L-0.11798229454575208,13.420145619747174 " />
			<path d="M1.769734418186275,-14.379633751846919 L2.0336056732033803,-14.338968711599943 L2.2970123741654547,-14.292972710724008 L2.5598532014974005,-14.241663441613612 L2.822027053287817,-14.18506064041565 L3.0834330841779227,-14.123186079437913 L3.343970744151791,-14.056063558774335 L3.603539817212985,-13.983718897150293 L3.862040459932711,-13.906179921991395 L4.119373239854678,-13.82347645871965 L4.3754391737418405,-13.7356403192811 L4.630139765650384,-13.642705289909323 L4.883377044816266,-13.54470711812955 L5.135053603339724,-13.441683499008336 L5.385072633653304,-13.333674060654145 L5.6333379657589635,-13.220720348974343 L5.879754104219916,-13.102865811694567 L6.124226264893031,-12.980155781646504 L6.36666041138762,-12.852637459330593 L6.606963291236602,-12.720359894760314 L6.845042471766123,-12.58337396859508 L7.080806375649857,-12.44173237256893 L7.31416431613429,-12.295489589222644 L7.545026531921442,-12.144701870946967 L7.773304221695616,-11.989427218345114 L7.998909578280887,-11.829725357922776 L8.221755822416188,-11.665657719114288 L8.441757236135029,-11.497287410653746 L8.658829195736963,-11.324679196300199 L8.872888204338151,-11.147899469926207 L9.083851923988506,-10.967016229979407 L9.29163920734304,-10.782099053326847 L9.496170128875242,-10.593219068492203 L9.697366015620508,-10.400448928296148 L9.895149477437723,-10.203862781910374 L10.089444436777466,-10.003536246336076 L10.280176157945268,-9.799546377317812 L10.467271275848761,-9.591971639703962 L10.65065782421762,-9.380891877265162 L10.83026526328542,-9.166388281982341 L11.006024506922833,-8.94854336281617 L11.177867949211633,-8.727440913969934 L11.345729490449376,-8.503165982658025 L11.509544562574693,-8.27580483639248 L11.66925015400344,-8.045444929800107 L11.824784833866145,-7.812174870983017 L11.976088775637448,-7.576084387435444 L12.123103780148403,-7.337264291530001 L12.265773297972837,-7.095806445586646 L12.404042451179123,-6.851803726537756 L12.537858054439024,-6.6053499902029635 L12.667168635485453,-6.356540035187448 L12.791924454911332,-6.105469566417587 L12.912077525301882,-5.852235158327973 L13.027581629693012,-5.596934217714006 L13.138392339348725,-5.339664946264292 L13.24446703085064,-5.080526302787291 L13.345764902493137,-4.81961796514675 L13.442246989977756,-4.55704029192053 L13.533876181400839,-4.292894283797618 L13.62061723152866,-4.027281544728136 L13.70243677535452,-3.760304242841307 L13.779303340932623,-3.4920650711464143 L13.851187361483781,-3.222667208031862 L13.918061186768304,-2.952214277577532 L13.979899093721672,-2.680810309695711 L14.036677296348945,-2.4085597001159105 L14.088373954874049,-2.1355671702289714 L14.134969184140468,-1.861937726805915 L14.176445061260091,-1.587776621607 L14.212785632507243,-1.3131893108965649 L14.243976919455317,-1.0382814148792099 L14.270006924353579,-0.7631586770728964 L14.29086563474211,-0.48792692363463747 L14.306545027303102,-0.21269202265438142 L14.317039070947045,0.06244015656721741 L14.322343729132577,0.33736378424150154 L14.322456961419148,0.6119731107993156 L14.31737872425188,0.8861625075676509 L14.307110970978316,1.1598265073997922 L14.291657651097063,1.4328598452433312 L14.271024708738619,1.7051574986304416 L14.245220080378953,1.9766147280748463 L14.214253691786743,2.247127117359937 L14.178137454205405,2.5165906137025473 L14.136885259771448,2.784901567776923 L14.090512976170835,3.051956773583519 L14.039038440535476,3.317653508147256 L13.982481452582151,3.581889571029978 L13.92086376699656,3.844563323641941 L13.854209085065333,4.105573728337157 L13.782543045559343,4.3648203872775895 L13.705893214871718,4.622203581051276 L13.624289076414412,4.877624307029448 L13.537762019277395,5.1309843174479735 L13.446345326154807,5.382186157198434 L13.350074160542759,5.631133201314287 L13.248985553213654,5.87772969213774 L13.143118387972287,6.121880776153002 L13.032513386699156,6.363492540471744 L12.917213093686758,6.602472048956775 L12.79726185927491,6.838727377969975 L12.672705822791338,7.07216765173081 L12.543592894804178,7.302703077271743 L12.409972738693115,7.530244978977178 L12.271896751546352,7.7547058326925935 L12.129418044390665,7.975999299390773 L11.982591421762217,8.194040258382167 L11.831473360625962,8.408744840056634 L11.676121988651719,8.620030458143944 L11.516597061855348,8.827815841480648 L11.352959941613538,9.032021065271081 L11.185273571061108,9.232567581830496 L11.013602450879906,9.429378250798495 L10.838012614488553,9.622377368811112 L10.658571602642652,9.811490698620165 L10.47534843745519,9.996645497648684 L10.288413595847127,10.177770545971372 L10.097838982438404,10.354796173709413 L9.903697901889771,10.52765428782904 L9.706065030706112,10.69627839833357 L9.505016388512058,10.860603643838816 L9.300629308810995,11.02056681652208 L9.092982409238672,11.176106386435084 L8.882155561322874,11.327162525171499 L8.66822985976078,11.473677128879999 L8.451287591225828,11.61559384061393 L8.231412202716102,11.752858072009063 L8.008688269456403,11.88541702428103 " />
			<path d="M1.7697344181862829,9.624652226440798 L1.7697344181862829,12.323587754490326 " />
			<path d="M1.769734418186281,-10.44981202004658 L1.9112688471035346,-10.42433276096144 L2.0525706920712574,-10.396722520588703 L2.193609674151147,-10.36698721540289 L2.33435557073261,-10.335133217249115 L2.474778222009031,-10.301167351977709 L2.6148475374405775,-10.265096897981524 L2.7545335022021717,-10.226929584636292 L2.893806183615233,-10.186673590644322 L3.0326357375618094,-10.14433754228193 L3.17099241487975,-10.099930511550944 L3.308846567737512,-10.05346201423472 L3.446168655987267,-10.004942007859025 L3.5829292534949198,-9.95438088955831 L3.7190990544457136,-9.90178949384773 L3.8546488796240252,-9.847179090301484 L3.9895496826660644,-9.7905613811379 L4.123772556284083,-9.73194849871181 L4.257288738460783,-9.671353002914787 L4.390069618612604,-9.608787878483712 L4.522086743720564,-9.544266532218357 L4.6533118244273135,-9.477802790108488 L4.783716741099148,-9.409410894371163 L4.913273549851633,-9.339105500398832 L5.041954488537575,-9.266901673618884 L5.169731982696046,-9.192814886265369 L5.296578651461191,-9.116861014063502 L5.422467313429558,-9.039056332827734 L5.5473709924846615,-8.959417514974074 L5.671262923577592,-8.877961625947446 L5.794116558462373,-8.794706120564792 L5.915905571384852,-8.709668839274777 L6.036603864723937,-8.622868004334837 " />
			<path d="M10.480917371681352,-0.9720133166626019 L10.499436201067486,-0.7941769754407748 L10.514956284675488,-0.6162431618978987 L10.527472811372277,-0.4382670344518155 L10.536981901109447,-0.2603037646374261 L10.543480606126064,-0.08240852000382815 L10.546966911862441,0.09536355298726712 L10.54743973758466,0.2729573460566192 L10.544898936719573,0.4503178061907092 L10.539345296900251,0.6273899527078257 L10.530780539721812,0.804118894301745 L10.519207320207757,0.9804498460577356 L10.504629225986902,1.156328146435521 L10.487050776181253,1.3316992742140425 L10.466477420005099,1.5065088653927285 L10.442915535075791,1.6807027300439805 L10.416372425436716,1.8542268691117405 L10.386856319293084,2.027027491150887 L10.354376366461246,2.199051029002237 L10.318942635532286,2.3702441563980603 L10.28056611075084,2.5405538044929097 L10.239258688610029,2.7099271783146244 L10.195033174163624,2.8783117731304704 L10.147903277056558,3.0456553907233 L10.097883607275016,3.2119061555726662 L10.04498967061742,3.3770125309359367 L9.989237863887736,3.540923334824386 L9.930645469812555,3.703587755869284 L9.869230651683555,3.8649553690731175 L9.805012447726986,4.02497615144107 L9.738010765201935,4.183600497487814 L9.668246374229199,4.340779234614922 L9.595740901352661,4.4964636383541015 L9.520516822835202,4.650605447471457 L9.44259745769119,4.803156878928199 L9.362006960457727,4.954070642693113 L9.278770313706875,5.103299956402159 L9.19291332030123,5.25079855986074 L9.104462595395166,5.396520729384095 L9.013445558184314,5.540421291971342 L8.91989042340577,5.682455639308859 L8.823826192591682,5.8225797415985925 L8.725282645078973,5.960750161207025 L8.624290328777906,6.096924066130571 L8.520880550702419,6.231059243273277 L8.415085367265146,6.363114111532592 L8.306937574340107,6.493047734689272 L8.196470697096196,6.6208198340973805 L8.083718979604566,6.746390801170398 L7.968717374223188,6.86972170965967 L7.851501530761816,6.990774327721306 L7.732107785430762,7.109511129767814 L7.6105731495769,7.225895308100812 L7.486935298210343,7.339890784321208 L7.361232558325445,7.451462220513262 L7.233503897019649,7.560575030199152 L7.1037889094139075,7.667195389060563 L6.9721278063784595,7.77129024542403 L6.83856140206768,7.872827330506745 L6.703131101267934,7.971775168419709 L6.565878886562364,8.068103085925054 L6.426847305316516,8.161781221944562 L6.286079456488914,8.252780536816427 L6.143618977270661,8.34107282129738 L5.999510029558185,8.426630705307351 " />
			<path d="M5.999510029558149,8.426630705307373 L5.87964403404667,8.49500801859231 L5.7587158556960665,8.56149905065062 L5.636750910757439,8.626089826635493 L5.513774833385777,8.68876677108914 L5.3898134702522675,8.749516710796012 L5.26489287511192,8.808326877551515 L5.139039303327689,8.865184910845588 L5.012279206352224,8.920078860460574 L4.884639226168382,8.972997188982891 L4.7561461896897175,9.023928774227917 L4.626827103122112,9.072862911577605 L4.496709146287684,9.119789316230358 L4.3658196669122376,9.16469812536263 L4.234186174877434,9.20757990020188 L4.101836336438835,9.248425628010363 L3.9687979684111223,9.287226723979407 L3.8350990323216703,9.323975033033726 L3.700767628533676,9.358662831545434 L3.565831990340125,9.39128282895736 L3.430320478029825,9.421828169315372 L3.294261572926748,9.450292432709304 L3.1576838714039224,9.476669636622296 L3.0206160788731418,9.500954237188168 L2.8830870037517666,9.523141130356613 L2.745125551407894,9.54322565296595 L2.6067607180851096,9.561203583723193 L2.468021584808162,9.577071144091294 L2.328937311270824,9.590824999083289 L2.1895371297072215,9.602462257963225 L2.049850338747885,9.611980474853747 L1.909906297261882,9.619377649250138 L1.769734418186328,9.624652226440798 " />
			<path d="M1.7697344181862829,-14.37963375184692 L1.7697344181862829,-10.449812020046577 " />
			<path d="M16.16357435276805,-15.935353350300172 L16.16357435276805,19.31275157529127 " />
			<path d="M9.957375176990748,-20.36664772170236 L14.747786818219026,-23.149355279238563 " />
			<path d="M9.957375176990773,-20.36664772170237 L9.831581784099505,-20.34904133892154 L9.713125752072948,-20.32969987394016 L9.602226834724616,-20.308986717956234 L9.499047305928226,-20.28722530422513 L9.403703781338423,-20.26470104525035 L9.31626355932563,-20.241659189603425 L9.23674278124672,-20.218301429287425 L9.165179056935035,-20.194804888611063 L9.101618818093842,-20.17132121068268 L9.046121252343964,-20.14797873501501 L8.998763314920868,-20.124884931831474 L8.959645631503044,-20.102129386485 L8.92889933259304,-20.07978804318896 L8.90668127386973,-20.057920422069884 L8.893181753180436,-20.036573838800653 L8.88977044863733,-20.02610772207217 L8.888625984658585,-20.015784708152015 " />
			<path d="M8.888625984658585,-20.015784708152015 L8.8921654284721,-19.99810883735735 L8.902917742410185,-19.98088967236221 L8.921103228539003,-19.96413088107132 L8.946961669323779,-19.947835206934677 L8.980740496165833,-19.93200565834578 L9.022694090886253,-19.916641182514766 L9.073080821997957,-19.901737444126482 L9.132160080511936,-19.88728760454638 " />
			<path d="M4.011067531884859,-16.9124904461433 L9.132160080511957,-19.88728760454639 " />
			<path d="M4.011067531884862,-16.9124904461433 L3.885274135398021,-16.894884062816867 L3.766818100214911,-16.875542597198855 L3.6559191801657014,-16.854829440517552 L3.552739649134711,-16.83306802605403 L3.4573961227829026,-16.810543766333186 L3.369955899476998,-16.787501909941927 L3.290435120576163,-16.76414414889626 L3.218871395919555,-16.74064760751575 L3.155311157216843,-16.71716392891673 L3.0998135920979233,-16.693821452617748 L3.052455655810763,-16.67072764884625 L3.0133379747702356,-16.64797210364509 L2.982591681126,-16.625630762850587 L2.9603736267819265,-16.603763143745702 L2.946874107932747,-16.582416561690977 L2.943462803427545,-16.571950445617464 L2.942318339090793,-16.561627432558733 " />
			<path d="M2.942318339090793,-16.561627432558733 L2.94585778184556,-16.543951563718277 L2.956610094779085,-16.526732399775813 L2.974795580227388,-16.509973607922657 L3.0006540207438355,-16.49367793324964 L3.0344328477502973,-16.477848384151436 L3.0763864430895405,-16.46248390783848 L3.126773175296887,-16.447580168995454 L3.185852435406024,-16.433130328987307 " />
			<path d="M-0.11798229454575204,-14.513962090340883 L3.185852435406026,-16.433130328987307 " />
			<path d="M3.1858524354060265,-12.503308597186965 L3.1858524354060265,-16.43313032898731 " />
			<path d="M-0.11798229454575204,-10.584140358540541 L3.1858524354060234,-12.503308597186964 " />
			<path d="M4.011067531884862,-12.98266871434296 L7.381899792003782,-14.940755222961808 " />
			<path d="M4.011067531884859,-12.982668714342957 L3.8854579286941653,-12.962207633598844 L3.7671424712872663,-12.940044228995578 L3.6563401754139266,-12.916609864661924 L3.553213966318345,-12.892287272611764 L3.4578826107509313,-12.867412641153186 L3.3704185118162204,-12.84227427594674 L3.2908484039291004,-12.817110277954782 L3.2192192315862957,-12.792128091443052 L3.155586059619131,-12.767503646976026 L3.1000157426418227,-12.743383718078501 L3.052591620882424,-12.719888550658897 L3.0134191279494624,-12.6971150431306 L2.9826323934684105,-12.67514094696352 L2.9603888307137,-12.654021718835676 L2.946877018322939,-12.633794738335727 L2.9434634039106604,-12.624022849154231 L2.942318336945559,-12.614480336617538 " />
			<path d="M2.942318336945559,-12.614480336617538 L2.9458639619494527,-12.59835274793953 L2.956631597287345,-12.582917398563104 L2.9748357588363494,-12.568155079909495 L3.0007102966747623,-12.554040293064881 L3.0344974343806244,-12.540542230018461 L3.076446942154998,-12.527621076432782 L3.126813262553501,-12.515228520642008 L3.1858524354060216,-12.503308597186965 " />
			<path d="M-0.11798229454575204,9.490323887946833 L3.1858524354060265,7.571155649300408 " />
			<path d="M4.011067531884859,7.091795532144417 L3.88545793716809,7.091779239515735 L3.7671424872052004,7.0937165819928625 L3.656340197706627,7.097677312766645 L3.5532139938911005,7.103713923329593 L3.4578826424933773,7.11186149279099 L3.370418542015837,7.122140013140383 L3.2908484261527717,7.134559568653151 L3.2192192485187547,7.14911555252216 L3.155586073966809,7.165789935794278 L3.1000157536704256,7.1845512601155646 L3.052591627247621,7.205354521793125 L3.0134191335154674,7.2281403990118065 L2.982632396395657,7.2528309683059105 L2.960388831186907,7.279332855948532 L2.9525283944365035,7.293228604603022 L2.9468770180966652,7.307533084507383 L2.9434634039183214,7.322228549812135 L2.94231833738724,7.337295631409187 " />
			<path d="M2.94231833738724,7.337295631409189 L2.9458639634060826,7.364456673867444 L2.956631599705734,7.392561426309791 L2.9748357619051777,7.421469573055482 L3.0007102999991506,7.451014318702333 L3.0344974375465372,7.480996637744688 L3.0764469447281164,7.5111900248088315 L3.1268132640784523,7.541338633236928 L3.185852435406022,7.571155649300408 " />
			<path d="M4.011067531884857,7.091795532144417 L9.132160080511929,4.116998373741341 " />
			<path d="M9.95737517699077,3.637638256585345 L9.831765582274034,3.6376219639566636 L9.713450132311186,3.639559306433788 L9.602647842812647,3.643520037207567 L9.499521638997125,3.6495566477705133 L9.40419028759943,3.6577042172319043 L9.316726187121883,3.6679827375812932 L9.237156071258795,3.6804022930940588 L9.165526893624758,3.6949582769630664 L9.101893719072796,3.7116326602351823 L9.046323398776398,3.7303939845564686 L8.998899272353578,3.75119724623403 L8.959726778621409,3.7739831234527124 L8.928940041501585,3.7986736927468208 L8.906696476292826,3.825175580389447 L8.898836039542418,3.83907132904394 L8.893184663202577,3.8533758089483037 L8.889771049024231,3.868071274253059 L8.88862598249315,3.883138355850114 " />
			<path d="M8.888625982493151,3.8831383558501145 L8.89217160851199,3.9102993983083687 L8.902939244811641,3.9384041507507157 L8.921143407011083,3.9673122974964077 L8.947017945105056,3.996857043143258 L8.980805082652445,4.026839362185615 L9.022754589834022,4.057032749249757 L9.073120909184357,4.087181357677854 L9.132160080511932,4.116998373741335 " />
			<path d="M9.957375176990778,3.6376382565853382 L14.747786818219026,0.8549306990491505 " />
			<path d="M3.185852435406025,11.106592230923704 L3.1858524354060256,7.571155649300408 " />
			<path d="M1.7697344181862829,-14.379633751846917 L5.073569148138061,-16.29880199049334 " />
			<path d="M11.845091889722784,-20.232319383208395 L14.747786818219025,-21.91846907548775 " />
			<path d="M11.845091889722802,-20.232319383208406 L11.904163616165446,-20.205005162536526 L11.954554929015508,-20.17734039353892 L11.996510749834332,-20.14957131326306 L12.030283971504437,-20.121917445076885 L12.056138572775126,-20.09456289379111 L12.074327445674653,-20.06766597504241 L12.085084801442994,-20.041365969146916 L12.08862597989793,-20.015784703093548 " />
			<path d="M12.08862597989793,-20.015784703093548 L12.087481240526534,-20.001502745299245 L12.084069175304242,-19.98750928812271 L12.07842142601422,-19.97382074435293 L12.070567411064319,-19.960452225686335 L12.048346934031416,-19.934729776317248 L12.017597319100716,-19.910440379612513 L11.97847303136609,-19.887668824971968 L11.931109844593982,-19.866493961583767 L11.875607196470025,-19.846978389318114 L11.812039023898336,-19.829176672794635 L11.74046238735178,-19.813137104363637 L11.66092397672233,-19.798901824087775 L11.57346674046721,-19.786506827196554 L11.478136638050776,-19.775981859013733 L11.374989504344274,-19.76735019660467 L11.264101937322984,-19.76062879012208 L11.145644859718333,-19.755830556953565 L11.019876793243972,-19.75295926605241 " />
			<path d="M5.898784244616895,-16.778162107649333 L11.019876793243993,-19.752959266052425 " />
			<path d="M5.89878424461689,-16.778162107649333 L5.95785597105951,-16.750847886977468 L6.008247283909545,-16.72318311797988 L6.050203104728358,-16.695414037704037 L6.083976326398474,-16.667760169517866 L6.109830927669183,-16.64040561823208 L6.128019800568728,-16.61350869948337 L6.138777156337081,-16.58720869358786 L6.14231833479202,-16.561627427534475 " />
			<path d="M6.14231833479202,-16.561627427534475 L6.141173595420623,-16.547345469740172 L6.137761530198331,-16.533352012563636 L6.132113780908307,-16.519663468793855 L6.124259765958405,-16.506294950127263 L6.1020392889255,-16.48057250075817 L6.071289673994798,-16.456283104053437 L6.032165386260167,-16.43351154941289 L5.984802199488058,-16.41233668602469 L5.9292995513641005,-16.392821113759037 L5.865731378792412,-16.375019397235558 L5.794154742245859,-16.358979828804564 L5.714616331616417,-16.344744548528706 L5.627159095361302,-16.332349551637485 L5.5318289929448685,-16.321824583454664 L5.42868185923837,-16.3131929210456 L5.317794292217076,-16.30647151456301 L5.199337214612426,-16.301673281394496 L5.073569148138063,-16.29880199049334 " />
			<path d="M1.7697344181862829,9.624652226440798 L5.073569148138062,7.7054839877943735 " />
			<path d="M5.07356914813806,10.404419515843902 L5.07356914813806,7.7054839877943735 " />
			<path d="M1.7697344181862829,-10.449812020046576 L5.073569148138058,-12.368980258692998 " />
			<path d="M5.073569148138062,7.705483987794374 L5.199160251218997,7.685026150806746 L5.317480903391851,7.6628621569355015 L5.4282762764979795,7.639429664581617 L5.531374557942848,7.615114503358796 L5.626693268811032,7.5902445742510585 L5.714170661768759,7.565103846615314 L5.793753699075498,7.539937012475524 L5.865391680722312,7.514952848491278 L5.929029983488114,7.490327377848284 L5.984603922002868,7.466206829577525 L6.032032731817738,7.4427103953031 L6.071211456411323,7.4199341968724255 L6.102000838090932,7.39795897909748 L6.124245848053409,7.3768393214238355 L6.137758999672896,7.356611538826875 L6.141173094347342,7.346838969584948 L6.14231833316014,7.33729560174959 " />
			<path d="M6.14231833316014,7.337295601749589 L6.138771422685631,7.321165238593092 L6.127999949211699,7.305727316617838 L6.109793508012025,7.290965437950093 L6.083923080475097,7.27685401882947 L6.050141107003567,7.263358148865787 L6.008189099245434,7.250436175179365 L5.957817703759707,7.238042524942375 L5.8987842446168965,7.226123870638382 " />
			<path d="M5.898784244616892,7.226123870638382 L11.019876793243963,4.251326712235306 " />
			<path d="M11.019876793243972,4.2513267122353025 L11.145467896324906,4.230868875247674 L11.263788548497754,4.208704881376431 L11.374583921603877,4.185272389022547 L11.47768220304875,4.160957227799725 L11.573000913916932,4.136087298691989 L11.66047830687465,4.110946571056249 L11.740061344181383,4.085779736916461 L11.811699325828192,4.060795572932217 L11.875337628593993,4.0361701022892245 L11.930911567108751,4.012049554018466 L11.978340376923624,3.9885531197440414 L12.017519101517214,3.965776921313365 L12.048308483196832,3.9438017035384156 L12.070553493159316,3.9226820458647667 L12.084066644778808,3.902454263267802 L12.087480739453254,3.892681694025874 L12.088625978266052,3.8831383261905144 " />
			<path d="M12.088625978266053,3.8831383261905144 L12.085079067791542,3.867007963034017 L12.074307594317611,3.851570041058765 L12.056101153117936,3.8368081623910215 L12.030230725581006,3.822696743270398 L11.996448752109469,3.8092008733067155 L11.95449674435134,3.796278899620292 L11.904125348865616,3.783885249383302 L11.845091889722807,3.77196659507931 " />
			<path d="M11.845091889722813,3.7719665950793035 L14.747786818219025,2.0858169027999653 " />
			<path d="M5.8987842446168965,-12.848340375848995 L6.5634105678174475,-13.234415901507466 " />
			<path d="M5.898784244616893,-12.848340375848991 L5.957817703759684,-12.818526499191151 L6.008189099245392,-12.788375166961707 L6.050141107003497,-12.758179882531834 L6.083923080475046,-12.72820236020414 L6.109793508011996,-12.698664197314093 L6.127999949211687,-12.669756273342745 L6.138771422685629,-12.64164623207134 L6.1423183331601425,-12.614480328686465 " />
			<path d="M6.142318333160143,-12.614480328686465 L6.141173094347344,-12.599411964479343 L6.137758999672898,-12.584715597561189 L6.132106978565654,-12.57041056162463 L6.12424584805341,-12.556514523295606 L6.102000838090934,-12.530012383675185 L6.071211456411333,-12.50532099119557 L6.032032731817763,-12.482533042632967 L5.984603922002902,-12.461729450786878 L5.929029983488159,-12.442968538228717 L5.865391680722382,-12.426294333472024 L5.793753699075606,-12.411738116654979 L5.714170661768909,-12.399318287362874 L5.626693268811218,-12.389040088245462 L5.53137455794306,-12.380895184429223 L5.42827627649824,-12.374861098297893 L5.31748090339202,-12.37090096541027 L5.19916025121909,-12.368963823809164 L5.073569148138066,-12.368980258693 " />
			<path d="M5.073569148138061,-12.368980258693 L5.073569148138061,-16.298801990493345 " />
			<path d="M9.957375176990771,-16.43682598990203 L9.957375176990771,-20.366647721702375 " />
			<path d="M9.132160080511936,-16.23370683685501 L9.132160080511936,-19.88728760454638 " />
			<path d="M4.011067531884859,-12.982668714342957 L4.011067531884859,-16.912490446143302 " />
			<path d="M4.0110675318848585,11.021617263944758 L4.0110675318848585,7.091795532144417 " />
			<path d="M9.132160080511934,7.652434955364633 L9.132160080511934,4.116998373741339 " />
			<path d="M9.95737517699077,7.567459988385685 L9.95737517699077,3.637638256585344 " />
			<path d="M5.898784244616893,9.92505939868791 L5.898784244616893,7.226123870638382 " />
			<path d="M11.01987679324397,6.950262240284829 L11.01987679324397,4.251326712235304 " />
			<path d="M11.845091889722804,6.4709021231288375 L11.845091889722804,3.7719665950793093 " />
			<path d="M11.845091889722806,-17.53338385515888 L11.845091889722806,-20.23231938320841 " />
			<path d="M11.019876793243972,-17.054023738002883 L11.019876793243972,-19.752959266052414 " />
			<path d="M5.898784244616894,-12.848340375848991 L5.898784244616894,-16.778162107649337 " />
			<path d="M-4.347757905917617,-9.386118837407116 L10.518011206847161,-18.021512026304798 " />
			<path d="M5.999510029558148,8.426630705307373 L20.865279142322926,-0.2087624835903093 " />
			<path d="M8.888625985117372,-16.068637622811096 L8.888625985117372,-20.01578471870281 " />
			<path d="M2.94231834001146,-12.614480347252027 L2.94231834001146,-16.56162744309835 " />
			<path d="M2.9423183400114588,11.28444271654977 L2.942318340011459,7.337295620763999 " />
			<path d="M8.88862598511737,7.830285440990697 L8.88862598511737,3.8831383452049284 " />
			<path d="M6.142318340011459,11.28444270358443 L6.142318340011459,7.337295605860218 " />
			<path d="M12.08862598511737,7.830285428025352 L12.08862598511737,3.8831383303011417 " />
			<path d="M12.088625985117371,-16.06863760796787 L12.088625985117371,-20.015784705692084 " />
			<path d="M6.14231834001146,-12.614480332408796 L6.14231834001146,-16.56162743013301 " />

       </g>

       <!-- solid lines -->
       <g  stroke="rgb(0,0,0)" fill="none">
			<path d="M-17.81532647640858,-18.353263443191526 L-16.163574352768048,-19.31275157529127 " />
			<path d="M-16.16357435276805,-19.31275157529127 L-16.16357435276805,15.935353350300172 " />
			<path d="M-17.81532647640858,16.894841482399915 L-16.163574352768048,15.935353350300172 " />
			<path d="M-17.81532647640858,-18.353263443191526 L-17.81532647640858,16.894841482399915 " />
			<path d="M-16.16357435276805,-19.31275157529127 L2.4920966328593748,-17.985229670077775 " />
			<path d="M-16.16357435276805,15.935353350300172 L17.815326476408575,18.353263443191523 " />
			<path d="M17.81532647640858,6.188828026031157 L17.81532647640858,18.353263443191526 " />
			<path d="M-0.11798229454574927,13.420145619747176 L-0.381853549562857,13.379480579500198 L-0.6452602505249307,13.333484578624265 L-0.9081010778568743,13.282175309513867 L-1.170274929647292,13.225572508315905 L-1.4316809605373977,13.163697947338166 L-1.6922186205112633,13.09657542667459 L-1.9517876935724519,13.02423076505055 L-2.210288336292181,12.946691789891652 L-2.467621116214147,12.863988326619905 L-2.7236870501013035,12.776152187181356 L-2.9783876420098503,12.683217157809583 L-3.231624921175732,12.585218986029808 L-3.4833014796991852,12.482195366908599 L-3.7333205100127715,12.3741859285544 L-3.9815858421184345,12.261232216874598 L-4.22800198057938,12.143377679594824 L-4.4724741412524915,12.020667649546764 L-4.714908287747088,11.893149327230848 L-4.955211167596075,11.76087176266057 L-5.193290348125591,11.623885836495337 L-5.429054252009319,11.482244240469193 L-5.662412192493758,11.336001457122899 L-5.893274408280916,11.18521373884722 L-6.1215520980550835,11.02993908624537 L-6.347157454640349,10.870237225823034 L-6.570003698775656,10.706169587014543 L-6.7900051124945024,10.537799278554 L-7.007077072096432,10.365191064200454 L-7.221136080697615,10.188411337826468 L-7.4320998003479755,10.007528097879662 L-7.639887083702513,9.822610921227097 L-7.844418005234711,9.63373093639246 L-8.045613891979972,9.44096079619641 L-8.243397353797192,9.24437464981063 L-8.43769231313694,9.044048114236327 L-8.628424034304736,8.840058245218069 L-8.815519152208225,8.632483507604224 L-8.998905700577088,8.421403745165419 L-9.178513139644894,8.206900149882593 L-9.3542723832823,7.989055230716428 L-9.526115825571095,7.767952781870195 L-9.693977366808843,7.543677850558282 L-9.857792438934165,7.31631670429273 L-10.017498030362908,7.085956797700363 L-10.173032710225609,6.852686738883278 L-10.324336651996918,6.6165962553357 L-10.471351656507876,6.377776159430253 L-10.614021174332306,6.1363183134869 L-10.752290327538592,5.892315594438012 L-10.886105930798497,5.645861858103214 L-11.015416511844927,5.397051903087694 L-11.140172331270803,5.145981434317837 L-11.260325401661348,4.892747026228229 L-11.375829506052483,4.637446085614257 L-11.486640215708197,4.380176814164536 L-11.592714907210109,4.121038170687542 L-11.694012778852604,3.8601298330470057 L-11.790494866337225,3.5975521598207805 L-11.882124057760311,3.3334061516978624 L-11.968865107888131,3.0677934126283875 L-12.05068465171399,2.800816110741564 L-12.127551217292092,2.5325769390466655 L-12.199435237843252,2.2631790759321073 L-12.266309063127773,1.9927261454777825 L-12.32814697008114,1.7213221775959688 L-12.384925172708416,1.449071568016161 L-12.436621831233518,1.1760790381292163 L-12.483217060499939,0.9024495947061626 L-12.524692937619557,0.6282884895072498 L-12.561033508866712,0.353701178796809 L-12.592224795814786,0.0787932827794477 L-12.618254800713048,-0.1963294550268585 L-12.639113511101577,-0.4715612084651122 L-12.654792903662571,-0.7467961094453746 L-12.665286947306512,-1.0219282886669805 L-12.670591605492044,-1.2968519163412568 L-12.670704837778617,-1.5714612428990642 L-12.665626600611347,-1.8456506396674053 L-12.655358847337785,-2.119314639499555 L-12.63990552745653,-2.3923479773430874 L-12.619272585098088,-2.6646456307301922 L-12.59346795673842,-2.9361028601746026 L-12.562501568146207,-3.2066152494597 L-12.526385330564873,-3.476078745802302 L-12.485133136130916,-3.7443896998766735 L-12.4387608525303,-4.011444905683276 L-12.38728631689494,-4.277141640247018 L-12.330729328941617,-4.541377703129734 L-12.269111643356027,-4.804051455741692 L-12.202456961424797,-5.065061860436912 L-12.130790921918807,-5.324308519377353 L-12.054141091231182,-5.581691713151031 L-11.97253695277388,-5.837112439129199 L-11.886009895636864,-6.090472449547719 L-11.79459320251428,-6.341674289298173 L-11.698322036902228,-6.590621333414032 L-11.597233429573121,-6.8372178242374915 L-11.491366264331756,-7.081368908252745 L-11.380761263058625,-7.322980672571482 L-11.265460970046233,-7.561960181056508 L-11.145509735634384,-7.798215510069704 L-11.020953699150812,-8.031655783830542 L-10.891840771163649,-8.262191209371482 L-10.758220615052592,-8.48973311107691 L-10.62014462790583,-8.714193964792322 L-10.477665920750141,-8.935487431490508 L-10.330839298121688,-9.153528390481904 L-10.179721236985436,-9.368232972156369 L-10.024369865011199,-9.579518590243675 L-9.864844938214826,-9.787303973580384 L-9.70120781797301,-9.991509197370819 L-9.533521447420584,-10.19205571393023 L-9.361850327239388,-10.388866382898225 L-9.18626049084803,-10.581865500910846 L-9.006819479002125,-10.770978830719905 L-8.823596313814669,-10.95613362974842 L-8.636661472206608,-11.137258678071102 L-8.44608685879788,-11.31428430580915 L-8.251945778249244,-11.487142419928782 L-8.05431290706559,-11.655766530433306 L-7.853264264871541,-11.820091775938549 L-7.648877185170473,-11.980054948621817 L-7.441230285598145,-12.135594518534823 L-7.230403437682352,-12.286650657271235 L-7.0164777361202635,-12.433165260979731 L-6.799535467585308,-12.575081972713667 L-6.5796600790755715,-12.712346204108808 L-6.3569361458159275,-12.844905156380742 " />
			<path d="M8.008688269456352,11.885417024281061 L7.832449991593819,11.985844186328622 L7.6545609995114265,12.08333451733818 L7.475063202977318,12.177865049069148 L7.2939988907860025,12.269413510595037 L7.111410720795348,12.35795833355037 L6.927341709876595,12.443478657212086 L6.741835223779797,12.525954333414228 L6.554934966917061,12.605365931294743 L6.366684972065999,12.681694741873295 L6.177129589995834,12.754922782459023 L5.98631347901857,12.825032800887156 L5.794281594467713,12.892008279583552 L5.601079178107026,12.955833439456152 L5.406751747471782,13.016493243612457 L5.211345085145055,13.073973400902137 L5.014905227971596,13.128260369283968 L4.817478456211743,13.179341359016268 L4.619111282638036,13.22720433567009 L4.419850441577056,13.271838022964475 L4.219742877899016,13.313231905423098 L4.018835735957799,13.351376230851654 L3.8171763484839794,13.38626201263542 L3.6148122254334667,13.417881031856478 L3.41179104279439,13.446225839230028 L3.208160631354874,13.471289756859417 L3.0039689654343404,13.493066879809419 L2.7992641515809957,13.511552077497399 L2.5940944172381633,13.52674099490206 L2.3885080993821406,13.538630053589463 L2.1825536331342437,13.547216452556093 L1.9762795403497235,13.552498168888746 L1.7697344181863426,13.554473958241138 " />
			<path d="M1.7697344181862829,12.323587754490326 L1.7697344181862829,13.55447395824114 " />
			<path d="M6.036603864723955,-8.622868004334823 L6.262300404153642,-8.453565533084735 L6.4838116484213995,-8.278124321679986 L6.70096706449291,-8.096679435598737 L6.913599472719375,-7.909370562318651 L7.121545175542734,-7.7163419037768355 L7.324644083520151,-7.517742065354304 L7.522739838570759,-7.313723941470356 L7.715679934349763,-7.104444597875027 L7.9033158336572376,-6.8900651507301705 L8.085503082791243,-6.670750642572287 L8.262101422757201,-6.446669915252588 L8.432974897247924,-6.217995479952113 L8.597991957311189,-5.984903384371972 L8.757025562624234,-5.747573077200952 L8.909953279297248,-5.506187269964834 L9.056657374130534,-5.26093179636378 L9.197024905252807,-5.01199546920607 L9.330947809070807,-4.759569935048355 L9.458322983463342,-4.5038495266542915 L9.579052367155652,-4.2450311133851795 L9.693043015213043,-3.983313949637787 L9.800207170595632,-3.7188995214459935 L9.90046233171914,-3.4519913913644054 L9.993731315969706,-3.182795041753332 L10.079942319123827,-2.9115177165857786 L10.159028970627677,-2.63836826189823 L10.230930384693275,-2.363556965008087 L10.295591207172105,-2.0872953926214914 L10.35296165817017,-1.8097962279562243 L10.402997570371625,-1.531273107005026 L10.445660423041502,-1.251940454065408 L10.480917371681349,-0.9720133166626477 " />
			<path d="M-17.81532647640858,16.894841482399915 L16.163574352768048,19.312751575291266 " />
			<path d="M16.16357435276805,19.31275157529127 L17.815326476408583,18.353263443191526 " />
			<path d="M14.747786818219028,4.784752430849496 L14.48391556320192,4.744087390602518 L14.220508862239846,4.698091389726585 L13.957668034907902,4.646782120616187 L13.695494183117486,4.590179319418224 L13.43408815222738,4.528304758440486 L13.173550492253515,4.46118223777691 L12.913981419192325,4.38883757615287 L12.655480776472597,4.311298600993972 L12.39814799655063,4.228595137722225 L12.142082062663473,4.140758998283676 L11.887381470754928,4.047823968911903 L11.634144191589044,3.949825797132128 L11.382467633065591,3.8468021780109183 L11.132448602752007,3.73879273965672 L10.884183270646343,3.6258390279769177 L10.637767132185397,3.507984490697144 L10.393294971512287,3.385274460649084 L10.15086082501769,3.2577561383331677 L9.910557945168701,3.125478573762889 L9.672478764639187,2.9884926475976563 L9.436714860755458,2.8468510515715124 L9.20335692027102,2.700608268225219 L8.97249470448386,2.5498205499495405 L8.744217014709694,2.3945458973476903 L8.518611658124428,2.234844036925354 L8.295765413989121,2.0707763981168625 L8.075764000270276,1.9024060896563189 L7.858692040668346,1.7297978753027738 L7.644633032067162,1.5530181489287873 L7.433669312416802,1.372134908981982 L7.225882029062264,1.187217732329417 L7.021351107530066,0.9983377474947801 L6.820155220784805,0.8055676072987303 L6.622371758967585,0.6089814609129505 L6.428076799627837,0.4086549253386469 L6.2373450784600415,0.20466505632038867 L6.0502499605565525,-0.0029096812934561456 L5.866863412187689,-0.21398944373226136 L5.687255973119884,-0.4284930390150876 L5.511496729482477,-0.6463379581812525 L5.339653287193682,-0.8674404070274857 L5.171791745955934,-1.091715338339398 L5.007976673830612,-1.3190764846049499 L4.848271082401869,-1.5494363911973172 L4.692736402539168,-1.7827064500144019 L4.54143246076786,-2.0187969335619806 L4.394417456256901,-2.2576170294674274 L4.251747938432471,-2.4990748754107805 L4.113478785226185,-2.7430775944596686 L3.9796631819662807,-2.989531330794466 L3.85035260091985,-3.2383412858099865 L3.7255967814939748,-3.4894117545798435 L3.6054437111034296,-3.742646162669451 L3.4899396067122943,-3.9979471032834235 L3.37912889705658,-4.255216374733144 L3.2730542055546685,-4.514355018210138 L3.171756333912173,-4.775263355850675 L3.0752742464275524,-5.0378410290769 L2.983645055004466,-5.301987037199819 L2.896904004876646,-5.567599776269294 L2.8150844610507875,-5.834577078156117 L2.738217895472685,-6.102816249851015 L2.6663338749215253,-6.372214112965573 L2.5994600496370044,-6.642667043419898 L2.537622142683638,-6.914071011301711 L2.4808439400563618,-7.18632162088152 L2.429147281531259,-7.459314150768464 L2.3825520522648382,-7.732943594191518 L2.3410761751452203,-8.007104699390432 L2.304735603898065,-8.28169201010087 L2.273544316949991,-8.556599906118233 L2.247514312051729,-8.83172264392454 L2.2266556016632,-9.106954397362793 L2.2109762091022063,-9.382189298343055 L2.200482165458265,-9.657321477564661 L2.1951775072727333,-9.932245105238938 L2.1950642749861604,-10.206854431796746 L2.2001425121534304,-10.481043828565086 L2.210410265426992,-10.754707828397235 L2.2258635853082467,-11.027741166240768 L2.2464965276666895,-11.300038819627872 L2.272301156026357,-11.571496049072284 L2.3032675446185706,-11.84200843835738 L2.3393837821999046,-12.111471934699983 L2.3806359766338616,-12.379782888774354 L2.4270082602344765,-12.646838094580957 L2.478482795869837,-12.912534829144699 L2.5350397838231604,-13.176770892027413 L2.5966574694087505,-13.439444644639373 L2.66331215133998,-13.700455049334593 L2.73497819084597,-13.959701708275034 L2.811628021533595,-14.217084902048711 L2.893232159990898,-14.47250562802688 L2.9797592171279135,-14.725865638445399 L3.0711759102504974,-14.977067478195853 L3.1674470758625493,-15.226014522311711 L3.268535683191656,-15.472611013135172 L3.3744028484330215,-15.716762097150426 L3.485007849706152,-15.958373861469163 L3.6003081427185446,-16.197353369954186 L3.720259377130393,-16.433608698967383 L3.844815413613965,-16.667048972728224 L3.9739283416011286,-16.897584398269164 L4.107548497712186,-17.12512629997459 L4.245624484858947,-17.349587153690003 L4.388103192014636,-17.570880620388188 L4.534929814643089,-17.788921579379583 L4.686047875779341,-18.00362616105405 L4.8413992477535785,-18.214911779141353 L5.000924174549951,-18.422697162478066 L5.164561294791767,-18.626902386268497 L5.332247665344193,-18.82744890282791 L5.503918785525389,-19.024259571795906 L5.679508621916748,-19.217258689808524 L5.858949633762652,-19.406372019617585 L6.042172798950109,-19.591526818646102 L6.229107640558169,-19.772651866968783 L6.419682253966897,-19.94967749470683 L6.6138233345155335,-20.12253560882646 L6.811456205699187,-20.291159719330985 L7.012504847893236,-20.45548496483623 L7.216891927594304,-20.615448137519497 L7.424538827166632,-20.770987707432504 L7.635365675082426,-20.922043846168915 L7.849291376644514,-21.06855844987741 L8.06623364517947,-21.21047516161135 L8.286109033689206,-21.34773939300649 L8.50883296694885,-21.48029834527842 " />
			<path d="M8.508832966948955,-21.480298345278484 L8.685071244811489,-21.580725507326044 L8.862960236893876,-21.678215838335603 L9.042458033427986,-21.77274637006657 L9.223522345619301,-21.86429483159246 L9.406110515609958,-21.95283965454779 L9.590179526528711,-22.038359978209513 L9.77568601262551,-22.12083565441165 L9.962586269488249,-22.200247252292165 L10.150836264339311,-22.276576062870717 L10.340391646409476,-22.34980410345645 L10.531207757386742,-22.41991412188458 L10.7232396419376,-22.486889600580977 L10.916442058298287,-22.55071476045358 L11.110769488933533,-22.611374564609882 L11.306176151260255,-22.668854721899564 L11.502616008433716,-22.723141690281395 L11.70004278019357,-22.774222680013693 L11.89840995376727,-22.822085656667515 L12.09767079482825,-22.8667193439619 L12.297778358506294,-22.908113226420525 L12.498685500447513,-22.94625755184908 L12.700344887921332,-22.981143333632843 L12.902709010971845,-23.0127623528539 L13.105730193610924,-23.04110716022745 L13.309360605050442,-23.066171077856843 L13.513552270970976,-23.087948200806842 L13.718257084824321,-23.106433398494822 L13.923426819167156,-23.121622315899486 L14.129013137023179,-23.133511374586888 L14.334967603271076,-23.142097773553516 L14.541241696055593,-23.14737948988617 L14.747786818219026,-23.149355279238563 " />
			<path d="M-0.11798229454575204,13.420145619747174 L3.1858524354060243,11.500977381100752 " />
			<path d="M4.011067531884862,11.02161726394476 L3.8852741406728515,11.024489325058976 L3.766818110120577,11.029288016571526 L3.6559191940337006,11.036010762434847 L3.5527396662809396,11.044646428726072 L3.4573961425140523,11.055175043999267 L3.369955916238734,11.067570103325636 L3.2904351281796003,11.081804496362055 L3.218871397667209,11.09784316233654 L3.155311156410044,11.11564452268224 L3.0998135884531566,11.135160230804727 L3.052455648438907,11.156334778633607 L3.013337968949792,11.179104467557492 L2.982591677815249,11.20339315890719 L2.960373625292216,11.229115074652835 L2.9525207969663785,11.24248298180399 L2.946874107555266,11.256170541728387 L2.9434628033324977,11.270162592480368 L2.9423183390907934,11.284442727089392 " />
			<path d="M2.942318339090793,11.284442727089393 L2.945857781845558,11.310017763958047 L2.9566100947790765,11.33631147053834 L2.9747955802273793,11.363208245377415 L3.0006540207438275,11.39056956765535 L3.0344328477502867,11.418228801885862 L3.07638644308953,11.445996611773882 L3.126773175296883,11.473659338983161 L3.1858524354060225,11.500977381100753 " />
			<path d="M4.0110675318848585,11.021617263944758 L9.132160080511929,8.046820105541682 " />
			<path d="M9.957375176990771,7.567459988385688 L9.831581785778818,7.5703320494999025 L9.713125755226557,7.575130741012451 L9.60222683913969,7.58185348687577 L9.49904731138696,7.590489153166989 L9.403703787620104,7.601017768440178 L9.316263561344755,7.613412827766547 L9.2367427732856,7.627647220802966 L9.165179042773193,7.64368588677745 L9.101618801516011,7.6614872471231505 L9.04612123355911,7.68100295524564 L8.998763293544844,7.702177503074522 L8.959645614055718,7.724947191998411 L8.928899322921168,7.749235883348109 L8.906681270398131,7.774957799093757 L8.898828442072292,7.788325706244913 L8.893181752661178,7.802013266169311 L8.889770448438409,7.8160053169212915 L8.888625984196704,7.830285451530318 " />
			<path d="M8.888625984196704,7.830285451530319 L8.89216542695147,7.855860488398978 L8.90291773988499,7.882154194979271 L8.921103225333292,7.909050969818344 L8.94696166584974,7.9364122920962785 L8.980740492856201,7.964071526326791 L9.022694088195445,7.99183933621481 L9.073080820402796,8.01950206342409 L9.132160080511932,8.04682010554168 " />
			<path d="M9.957375176990778,7.56745998838568 L14.747786818219026,4.784752430849493 " />
			<path d="M14.747786818219025,0.8549306990491559 L14.560266259558308,0.8207046292981932 L14.37317148943249,0.782739257441893 L14.186572919979366,0.7410488715493067 L14.000540776594198,0.6956491615790217 L13.815145071500764,0.6465572134743418 L13.630455577402621,0.5937915027330707 L13.44654180122451,0.5373718874543503 L13.263472957953802,0.47731960086519365 L13.081317944591778,0.4136572433294372 L12.900145314224613,0.346408773842235 L12.720023250223791,0.2755995010132146 L12.541019540585646,0.2012560735417086 L12.363201552419683,0.12340647018765338 L12.186636206595333,0.04207998924192857 L12.011389952556653,-0.04269276249988607 L11.837528743314412,-0.1308798812562273 L11.665118010624992,-0.22244817826638474 L11.494222640365527,-0.3173631922808955 L11.32490694811443,-0.41558920253086384 L11.157234654946574,-0.5170892421712772 L10.991268863452163,-0.6218251121933047 L10.827072033988427,-0.7297573958002896 L10.664705961173008,-0.8408454732420214 L10.50423175062786,-0.9550475371018088 L10.34570979598246,-1.0723206080304664 L10.189199756144987,-1.192620550921366 L10.034760532850024,-1.3159020915204511 L9.882450248491189,-1.4421188334649608 L9.73232622424705,-1.571223275744483 L9.584444958508627,-1.703166830577687 L9.438862105616515,-1.8378998416980847 L9.29563245491567,-1.9753716030419026 L9.1548099101357,-2.115530377831065 L9.016447469104492,-2.2583234180440463 L8.880597203802772,-2.4036969842673006 L8.74731024076708,-2.551596365919818 L8.616636741848541,-2.701965901843179 L8.488625885334741,-2.854749001249335 L8.363325847441736,-3.009888165018231 L8.24078378418318,-3.1673250073373174 L8.121045813623388,-3.327000277674758 L8.004156998521065,-3.488853883078048 L7.890161329370182,-3.6528249107896587 L7.779101707844361,-3.8188516511712596 L7.6710199306510525,-3.9868716209278237 L7.56595667380158,-4.15682158662288 L7.463951477302933,-4.328637588476071 L7.365042730277095,-4.50225496443409 L7.269267656513479,-4.677608374505932 L7.1766623004599595,-4.854631825353233 L7.087261513657753,-5.03325869512651 L7.001098941625196,-5.213421758537951 L6.918207011195438,-5.395053212161327 L6.838616918312773,-5.578084699949434 L6.762358616292218,-5.762447338959518 L6.68946080454673,-5.948071745277031 L6.619950917786333,-6.134888060127915 L6.553855115693203,-6.322825976169572 L6.491198273076625,-6.511814763950649 L6.432003970511479,-6.70178329852971 L6.3762944854638075,-6.892660086242759 L6.324090783906813,-7.08437329160948 L6.275412512430432,-7.276850764368136 L6.230277990847432,-7.4700200666289565 L6.188704205298851,-7.663808500135772 L6.1507068018613555,-7.858143133625611 L6.116300080658906,-8.052950830275975 L6.085496990481007,-8.248158275229528 L6.058309123909467,-8.443692003185758 L6.03474671295562,-8.639478426049262 L6.0148186252095375,-8.83544386062421 L5.998532360502775,-9.031514556344646 L5.985894048085836,-9.227616723030161 L5.976908444321474,-9.423676558656402 L5.971578930894648,-9.619620277130078 L5.969907513539852,-9.815374136057978 L5.971894821286259,-10.010864464499559 L5.977540106220999,-10.206017690692587 L5.986841243770627,-10.400760369741493 L5.999794733500689,-10.595019211257966 L6.016395700433103,-10.788721106943443 L6.03663789688083,-10.981793158103006 L6.060513704799147,-11.17416270308041 L6.088014138652669,-11.365757344603944 L6.119128848797011,-11.556504977032766 L6.153846125373814,-11.746333813493477 L6.192152902717691,-11.935172412896721 L6.2340347642734155,-12.122949706823672 L6.27947594802154,-12.309595026272286 L6.328459352410324,-12.495038128253189 L6.380966542791823,-12.679209222225246 L6.436977758359669,-12.86203899636088 L6.496471919585957,-13.043458643631233 L6.559426636154406,-13.223399887701316 L6.625818215386833,-13.401795008625424 L6.695621671159779,-13.57857686833322 L6.768810733307896,-13.753678935896797 L6.845357857510605,-13.927035312569226 L6.925234235658227,-14.098580756585202 L7.008409806693784,-14.268250707714447 L7.094853267926325,-14.435981311558635 L7.184532086811519,-14.601709443582639 L7.2774125131951095,-14.765372732871116 L7.373459592014601,-14.926909585601475 L7.472637176454441,-15.086259208224416 L7.574907941549659,-15.243361630343244 L7.680233398232923,-15.398157727283406 L7.788573907819705,-15.550589242343758 L7.899888696926103,-15.700598808721187 L8.014135872813682,-15.848129971100295 L8.131272439155568,-15.99312720690005 L8.251254312217917,-16.13553594716943 L8.374036337450589,-16.275302597124174 L8.499572306480836,-16.41237455631688 L8.627814974503556,-16.546700238432916 L8.758716078061642,-16.67822909070464 L8.892226353209695,-16.806911612936723 L9.028295554054246,-16.932699376135233 L9.166872471663506,-17.055545040733648 L9.307904953339616,-17.17540237440887 L9.451339922246028,-17.292226269480505 L9.597123397382706,-17.405972759886915 L9.745200513901569,-17.516599037731588 L9.895515543754595,-17.624063469393693 L10.048011916666809,-17.728325611196667 L10.202632241426185,-17.82934622462898 L10.35931832748252,-17.927087291111345 L10.518011206847085,-18.021512026304755 " />
			<path d="M10.51801120684716,-18.021512026304798 L10.637877202358638,-18.08988933958973 L10.758805380709243,-18.15638037164804 L10.88077032564787,-18.220971147632916 L11.00374640301953,-18.283648092086565 L11.12770776615304,-18.344398031793435 L11.25262836129339,-18.40320819854894 L11.37848193307762,-18.460066231843015 L11.505242030053086,-18.514960181458 L11.63288201023693,-18.567878509980318 L11.761375046715592,-18.618810095225342 L11.8906941332832,-18.667744232575032 L12.02081209011763,-18.714670637227783 L12.151701569493074,-18.759579446360057 L12.283335061527882,-18.8024612211993 L12.41568489996648,-18.84330694900779 L12.548723267994191,-18.88210804497683 L12.682422204083641,-18.91885635403115 L12.816753607871636,-18.953544152542857 L12.95168924606519,-18.98616414995479 L13.087200758375488,-19.016709490312795 L13.223259663478562,-19.045173753706727 L13.35983736500139,-19.07155095761972 L13.496905157532172,-19.09583555818559 L13.634434232653543,-19.118022451354037 L13.772395684997415,-19.138106973963374 L13.9107605183202,-19.156084904720615 L14.04949965159715,-19.171952465088715 L14.188583925134486,-19.185706320080712 L14.327984106698091,-19.19734357896065 L14.46767089765743,-19.206861795851168 L14.60761493914343,-19.214258970247563 L14.747786818219025,-19.21953354743822 " />
			<path d="M9.957375176990748,-16.43682598990202 L14.747786818219026,-19.219533547438225 " />
			<path d="M9.95737517699077,-16.43682598990203 L9.831765573800196,-16.416364909157934 L9.713450116393384,-16.394201504554694 L9.602647820520145,-16.370767140221066 L9.499521611424655,-16.346444548170936 L9.404190255857314,-16.321569916712384 L9.316726156922533,-16.296431551505936 L9.237156049035342,-16.271267553513965 L9.165526876692477,-16.246285367002226 L9.101893704725256,-16.22166092253519 L9.046323387747897,-16.19754099363765 L8.998899265988454,-16.174045826218034 L8.959726773055454,-16.15127231868972 L8.928940038574368,-16.12929822252263 L8.906696475819631,-16.10817899439477 L8.893184663428855,-16.087952013894807 L8.889771049016574,-16.078180124713306 L8.88862598205147,-16.06863761217661 " />
			<path d="M8.888625982051472,-16.068637612176605 L8.892171607055364,-16.052510023498602 L8.902939242393256,-16.037074674122177 L8.921143403942256,-16.02231235546857 L8.94701794178067,-16.008197568623956 L8.980805079486533,-15.994699505577536 L9.022754587260906,-15.981778351991855 L9.073120907659408,-15.969385796201081 L9.132160080511932,-15.957465872746038 " />
			<path d="M7.381899792003782,-14.940755222961808 L9.132160080511959,-15.95746587274605 " />
			<path d="M3.185852435406025,11.50097738110075 L3.185852435406025,11.106592230923704 " />
			<path d="M1.7697344181862829,13.55447395824114 L5.073569148138059,11.635305719594717 " />
			<path d="M5.073569148138057,11.635305719594715 L5.199337214612508,11.617703206907494 L5.317794292217228,11.598362114526696 L5.428681859238582,11.577651783957643 L5.531828992945087,11.555898529313607 L5.627159095361466,11.533379381819048 L5.714616331616508,11.510335092087752 L5.794154742245877,11.486973940774872 L5.865731378792372,11.463474699855746 L5.929299551364025,11.439989433266675 L5.984802199487972,11.416646134644429 L6.03216538626009,11.393551202164547 L6.071289673994737,11.370793191832675 L6.102039288925462,11.348450765565568 L6.124259765958387,11.326582401558014 L6.137761530198326,11.30523432927425 L6.141173595420622,11.294767074893775 L6.14231833479202,11.284442700674472 " />
			<path d="M6.14231833479202,11.284442700674472 L6.138777156337081,11.266762643306292 L6.12801980056873,11.249539694120466 L6.109830927669189,11.232781198657907 L6.0839763263984885,11.216489777469226 L6.050203104728385,11.20066333692805 L6.008247283909569,11.185298215497655 L5.957855971059523,11.170393443828655 L5.898784244616894,11.155945602438722 " />
			<path d="M5.898784244616894,11.155945602438724 L11.019876793243963,8.181148444035648 " />
			<path d="M11.01987679324397,8.181148444035642 L11.145644859718336,8.163545931348436 L11.26410193732299,8.14420483896765 L11.374989504344285,8.123494508398613 L11.478136638050781,8.101741253754584 L11.573466740467214,8.079222106260017 L11.660923976722334,8.056177816528704 L11.740462387351778,8.032816665215803 L11.812039023898333,8.009317424296658 L11.875607196470018,7.98583215770757 L11.931109844593973,7.962488859085315 L11.978473031366082,7.939393926605432 L12.017597319100714,7.916635916273562 L12.048346934031416,7.894293490006461 L12.070567411064319,7.872425125998915 L12.084069175304244,7.851077053715162 L12.087481240526536,7.840609799334695 L12.088625979897932,7.830285425115398 " />
			<path d="M12.088625979897932,7.830285425115397 L12.085084801442994,7.812605367747228 L12.07432744567465,7.79538241856141 L12.05613857277512,7.778623923098855 L12.03028397150443,7.762332501910173 L11.996510749834327,7.746506061368993 L11.954554929015506,7.731140939938592 L11.904163616165448,7.716236168269585 L11.845091889722804,7.70178832687965 " />
			<path d="M11.845091889722813,7.701788326879646 L16.63550353095106,4.919080769343458 " />
			<path d="M16.63550353095106,4.919080769343459 L16.842048653114507,4.917104979991066 L17.048322745899014,4.9118232636584125 L17.254277212146906,4.9032368646917845 L17.459863530002934,4.891347806004381 L17.665033264345773,4.87615888859972 L17.869738078199113,4.85767369091174 L18.07392974411964,4.835896567961738 L18.27756015555916,4.810832650332349 L18.480581338198242,4.782487842958799 L18.68294546124875,4.750868823737742 L18.884604848722564,4.715983041953978 L19.085511990663786,4.677838716525422 L19.285619554341835,4.636444834066799 L19.48488039540282,4.591811146772409 L19.683247568976526,4.543948170118586 L19.880674340736373,4.492867180386289 L20.077114197909825,4.438580212004458 L20.272520860236554,4.3811000547147785 L20.466848290871802,4.320440250558473 L20.660050707232497,4.2566150906858695 L20.852082591783358,4.189639611989472 L21.042898702760617,4.1195295935613405 L21.232454084830774,4.046301552975615 L21.42070407968184,3.9699727423970614 L21.607604336544586,3.8905611445165444 L21.793110822641378,3.808085468314406 L21.977179833560125,3.7225651446526893 L22.159768003550784,3.6340203216973546 L22.340832315742105,3.5424718601714638 L22.52033011227621,3.447941328440498 L22.69821910435859,3.3504509974309453 L22.874457382221028,3.2500238353834394 " />
			<path d="M22.87445738222113,3.250023835383379 L23.09718131548088,3.117464883111383 L23.317056703990612,2.9802006517162454 L23.533998972525563,2.838283939982313 L23.747924674087656,2.691769336273813 L23.958751522003453,2.540713197537398 L24.166398421575778,2.385173627624395 L24.370785501276842,2.2252104549411307 L24.571834143470895,2.0608852094358863 L24.769467014654552,1.8922610989313586 L24.963608095203185,1.7194029848117296 L25.15418270861191,1.542377357073688 L25.34111755021997,1.361252308751002 L25.524340715407433,1.1760975097224815 L25.703781727253336,0.986984179913426 L25.87937156364469,0.7939850619008109 L26.05104268382589,0.5971743929328124 L26.218729054378315,0.3966278763733957 L26.38236617462013,0.1924226525829642 L26.541891101416503,-0.015362730753736287 L26.697242473390737,-0.22664834884104934 L26.848360534526996,-0.44135293051551727 L26.995187157155442,-0.6593938895069105 L27.13766586431113,-0.8806873562050885 L27.275741851457894,-1.1051482099205039 L27.409362007568955,-1.332690111625939 L27.538474935556117,-1.563225537166872 L27.663030972039685,-1.796665810927708 L27.782982206451535,-2.0329211399409077 L27.89828249946393,-2.2719006484259365 L28.008887500737067,-2.5135124127446815 L28.114754665978435,-2.7576634967599407 L28.215843273307538,-3.0042599875833913 L28.312114438919586,-3.2532070316992447 L28.403531132042175,-3.504408871449705 L28.49005818917919,-3.757768881868233 L28.571662327636496,-4.013189607846404 L28.64831215832412,-4.270572801620088 L28.71997819783011,-4.529819460560523 L28.786632879761335,-4.790829865255737 L28.84825056534693,-5.053503617867701 L28.90480755330025,-5.3177396807504245 L28.956282088935613,-5.583436415314161 L29.002654372536227,-5.8504916211207565 L29.043906566970186,-6.118802575195131 L29.08002280455152,-6.38826607153774 L29.11098919314373,-6.658778460822829 L29.136793821503396,-6.930235690267234 L29.157426763861842,-7.202533343654345 L29.172880083743095,-7.4755666814978845 L29.183147837016655,-7.749230681330027 L29.188226074183923,-8.023420078098363 L29.18811284189735,-8.298029404656175 L29.18280818371182,-8.572953032330458 L29.17231414006788,-8.848085211552059 L29.156634747506885,-9.123320112532314 L29.135776037118358,-9.398551865970575 L29.109746032220094,-9.673674603776888 L29.07855474527202,-9.94858249979424 L29.04221417402487,-10.223169810504677 L29.000738296905247,-10.497330915703595 L28.954143067638825,-10.770960359126656 L28.902446409113722,-11.043952889013593 L28.84566820648645,-11.316203498593396 L28.78383029953308,-11.587607466475212 L28.716956474248562,-11.858060396929538 L28.645072453697402,-12.127458260044092 L28.568205888119298,-12.395697431738984 L28.48638634429344,-12.662674733625813 L28.39964529416562,-12.928287472695295 L28.308016102742535,-13.192433480818206 L28.211534015257914,-13.455011154044426 L28.110236143615417,-13.715919491684968 L28.004161452113504,-13.97505813516197 L27.89335074245779,-14.232327406611683 L27.77784663806666,-14.487628347225652 L27.657693567676112,-14.740862755315263 L27.532937748250234,-14.991933224085127 L27.403627167203805,-15.24074317910064 L27.269811563943904,-15.487196915435433 L27.131542410737616,-15.731199634484327 L26.98887289291318,-15.972657480427685 L26.841857888402224,-16.211477576333127 L26.69055394663092,-16.4475680598807 L26.535019266768217,-16.68083811869779 L26.37531367533947,-16.91119802529016 L26.211498603214153,-17.13855917155571 L26.04363706197641,-17.362834102867616 L25.871793619687608,-17.58393655171385 L25.6960343760502,-17.80178147088002 L25.5164269369824,-18.01628506616284 L25.33304038861354,-18.22736482860164 L25.145945270710047,-18.43493956621549 L24.95521354954225,-18.638929435233756 L24.760918590202504,-18.83925597080805 L24.563135128385287,-19.035842117193827 L24.361939241640023,-19.228612257389884 L24.15740832010782,-19.417492242224526 L23.949621036753285,-19.602409418877084 L23.738657317102934,-19.783292658823886 L23.524598308501744,-19.960072385197876 L23.307526348899813,-20.132680599551424 L23.08752493518097,-20.301050908011966 L22.86467869104567,-20.465118546820456 L22.6390733344604,-20.624820407242794 L22.410795644686225,-20.780095059844648 L22.17993342889907,-20.93088277812032 L21.946575488414638,-21.07712556146661 L21.7108115845309,-21.218767157492756 L21.472732404001384,-21.355753083657994 L21.2324295241524,-21.488030648228275 L20.98999537765781,-21.615548970544182 L20.745523216984694,-21.738259000592247 L20.499107078523743,-21.856113537872023 L20.250841746418082,-21.969067249551824 L20.0008227161045,-22.077076687906015 L19.749146157581045,-22.18010030702723 L19.49590887841516,-22.278098478807003 L19.241208286506616,-22.37103350817878 L18.985142352619455,-22.45886964761733 L18.72780957269749,-22.541573110889075 L18.46930892997776,-22.619112086047977 L18.209739856916563,-22.691456747672017 L17.9492021969427,-22.758579268335595 L17.687796166052593,-22.82045382931333 L17.425622314262174,-22.877056630511294 L17.16278148693023,-22.92836589962169 L16.899374785968163,-22.974361900497623 L16.635503530951116,-23.01502694074459 " />
			<path d="M14.747786818219025,-21.91846907548775 L16.63550353095106,-23.015026940744598 " />
			<path d="M5.07356914813806,11.635305719594715 L5.07356914813806,10.404419515843902 " />
			<path d="M14.747786818219025,2.0858169027999653 L16.635503530951063,0.9892590375431158 " />
			<path d="M16.635503530951055,0.9892590375431176 L16.775675410026647,0.9839844603524597 L16.91561945151265,0.9765872859560663 L17.055306242471993,0.9670690690655448 L17.194706424035598,0.9554318101856083 L17.333790697572937,0.9416779551936152 L17.47252983084988,0.925810394825513 L17.61089466417266,0.9078324640682691 L17.74885611651653,0.8877479414589367 L17.886385191637906,0.8655610482904912 L18.023452984168692,0.8412764477246171 L18.16003068569152,0.8148992438116238 L18.29608959079459,0.7864349804176953 L18.43160110310488,0.7558896400596851 L18.56653674129844,0.7232696426477556 L18.700868145086435,0.6885818441360492 L18.834567081175887,0.6518335350817299 L18.9676054492036,0.6130324391126862 L19.099955287642203,0.5721867113042016 L19.23158877967701,0.5293049364649516 L19.36247825905245,0.4843961273326798 L19.492596215886874,0.437469722679932 L19.621915302454482,0.38853558533024035 L19.75040833893315,0.33760400008521607 L19.878048319116996,0.28468567156289915 L20.004808416092462,0.2297917219479082 L20.130661987876685,0.17293368865384018 L20.25558258301703,0.11412352189833896 L20.379543946150545,0.053373582191465374 L20.502520023522205,-0.009303362262182091 L20.624484968460838,-0.07389413824705748 L20.745413146811444,-0.14038517030536823 L20.86527914232284,-0.2087624835902595 " />
			<path d="M20.86527914232292,-0.20876248359030392 L21.02397202168756,-0.303187218783755 L21.18065810774389,-0.4009282852661151 L21.335278432503266,-0.50194889869843 L21.48777480541548,-0.606211040501405 L21.63808983526851,-0.7136754721635103 L21.78616695178737,-0.8243017500081837 L21.931950426924047,-0.9380482404145898 L22.075385395830466,-1.054872135486228 L22.216417877506576,-1.1747294691614512 L22.354994795115836,-1.2975751337598647 L22.49106399596038,-1.4233628969583716 L22.624574271108436,-1.5520454191904562 L22.755475374666524,-1.683574271462187 L22.883718042689242,-1.817899953578217 L23.009254011719488,-1.9549719127709206 L23.132036036952165,-2.0947385627256665 L23.252017910014516,-2.2371473029950497 L23.3691544763564,-2.382144538794803 L23.483401652243977,-2.5296757011739075 L23.594716441350375,-2.6796852675513385 L23.70305695093716,-2.8321167826116938 L23.80838240762042,-2.986912879551852 L23.91065317271564,-3.14401530167068 L24.00983075715548,-3.303364924293623 L24.105877835974972,-3.4649017770239867 L24.198758262358563,-3.628565066312458 L24.288437081243757,-3.794293198336459 L24.374880542476298,-3.962023802180651 L24.45805611351186,-4.131693753309899 L24.537932491659475,-4.303239197325872 L24.614479615862187,-4.4765955739982966 L24.687668678010304,-4.651697641561878 L24.757472133783253,-4.828479501269678 L24.823863713015676,-5.006874622193785 L24.886818429584125,-5.1868158662638635 L24.946312590810415,-5.368235513534219 L25.002323806378264,-5.551065287669857 L25.05483099675976,-5.7352363816419105 L25.103814401148544,-5.920679483622809 L25.149255584896668,-6.1073248030714264 L25.191137446452394,-6.295102096998382 L25.22944422379627,-6.483940696401621 L25.26416150037307,-6.673769532862329 L25.295276210517414,-6.864517165291158 L25.32277664437094,-7.056111806814695 L25.346652452289256,-7.248481351792096 L25.36689464873698,-7.441553402951653 L25.383495615669396,-7.635255298637134 L25.39644910539946,-7.829514140153611 L25.405750242949082,-8.024256819202511 L25.411395527883826,-8.21941004539554 L25.413382835630234,-8.414900373837122 L25.411711418275438,-8.610654232765027 L25.40638190484861,-8.806597951238698 L25.39739630108425,-9.002657786864937 L25.38475798866731,-9.198759953550454 L25.36847172396055,-9.394830649270897 L25.348543636214465,-9.59079608384584 L25.32498122526062,-9.786582506709339 L25.29779335868908,-9.982116234665575 L25.26699026851118,-10.17732367961913 L25.23258354730873,-10.37213137626949 L25.194586143871234,-10.566466009759324 L25.153012358322655,-10.760254443266147 L25.107877836739654,-10.953423745526973 L25.05919956526327,-11.145901218285625 L25.00699586370628,-11.337614423652344 L24.951286378658608,-11.528491211365395 L24.89209207609346,-11.718459745944461 L24.82943523347688,-11.907448533725534 L24.763339431383756,-12.095386449767187 L24.693829544623355,-12.282202764618074 L24.620931732877864,-12.467827170935593 L24.54467343085731,-12.652189809945671 L24.465083337974647,-12.835221297733774 L24.382191407544887,-13.016852751357154 L24.29602883551233,-13.1970158147686 L24.206628048710122,-13.375642684541873 L24.114022692656604,-13.55266613538917 L24.01824761889299,-13.728019545461017 L23.919338871867147,-13.901636921419037 L23.817333675368502,-14.073452923272225 L23.712270418519033,-14.243402888967278 L23.604188641325724,-14.411422858723846 L23.493129019799902,-14.57744959910545 L23.37913335064902,-14.741420626817057 L23.2622445355467,-14.903274232220344 L23.142506564986903,-15.06294950255779 L23.019964501728346,-15.220386344876882 L22.89466446383534,-15.375525508645772 L22.766653607321544,-15.528308608051926 L22.635980108403004,-15.67867814397529 L22.502693145367306,-15.826577525627812 L22.36684288006559,-15.97195109185106 L22.228480439034385,-16.11474413206404 L22.08765789425441,-16.254902906853204 L21.94442824355356,-16.392374668197025 L21.798845390661455,-16.52710767931742 L21.650964124923036,-16.659051234150624 L21.500840100678893,-16.788155676430147 L21.348529816320053,-16.91437241837466 L21.194090593025095,-17.037653958973742 L21.037580553187624,-17.157953901864637 L20.87905859854222,-17.2752269727933 L20.71858438799707,-17.389429036653087 L20.556218315181653,-17.50051711409482 L20.39202148571792,-17.608449397701797 L20.226055694223504,-17.71318526772383 L20.058383401055647,-17.814685307364243 L19.889067708804554,-17.912911317614213 L19.71817233854509,-18.00782633162872 L19.54576160585567,-18.09939462863888 L19.371900396613423,-18.18758174739522 L19.196654142574747,-18.272354499137034 L19.0200887967504,-18.353680980082757 L18.842270808584434,-18.431530583436817 L18.66326709894628,-18.50587401090832 L18.483145034945466,-18.576683283737342 L18.301972404578304,-18.643931753224543 L18.11981739121628,-18.707594110760297 L17.93674854794557,-18.767646397349456 L17.752834771767464,-18.824066012628172 L17.568145277669323,-18.876831723369445 L17.38274957257589,-18.925923671474123 L17.19671742919072,-18.97132338144441 L17.0101188597376,-19.013013767337 L16.823024089611778,-19.050979139193295 L16.6355035309511,-19.085205208944252 " />
			<path d="M11.845091889722783,-16.302497651408054 L16.635503530951063,-19.08520520894426 " />
			<path d="M11.845091889722804,-16.302497651408064 L11.904125348865595,-16.272683774750224 L11.954496744351308,-16.242532442520776 L11.996448752109414,-16.212337158090904 L12.03023072558096,-16.182359635763206 L12.05610115311791,-16.152821472873157 L12.074307594317599,-16.12391354890181 L12.08507906779154,-16.095803507630407 L12.088625978266053,-16.068637604245534 " />
			<path d="M12.088625978266053,-16.068637604245534 L12.087480739453255,-16.053569240038414 L12.08406664477881,-16.038872873120262 L12.078414623671566,-16.024567837183707 L12.070553493159325,-16.010671798854688 L12.048308483196857,-15.984169659234269 L12.017519101517266,-15.959478266754655 L11.978340376923708,-15.936690318192055 L11.930911567108854,-15.915886726345965 L11.875337628594112,-15.8971258137878 L11.811699325828334,-15.880451609031105 L11.740061344181559,-15.865895392214059 L11.660478306874868,-15.853475562921952 L11.573000913917184,-15.84319736380454 L11.477682203049026,-15.8350524599883 L11.374583921604206,-15.829018373856968 L11.26378854849797,-15.825058240969344 L11.145467896325023,-15.823121099368237 L11.019876793243977,-15.823137534252071 " />
			<path d="M6.5634105678174475,-13.234415901507466 L11.019876793243993,-15.823137534252085 " />
			<path d="M14.747786818219025,0.8549306990491523 L14.747786818219025,4.784752430849494 " />
			<path d="M14.747786818219025,-23.149355279238563 L14.747786818219025,-19.21953354743822 " />
			<path d="M9.132160080511936,-15.957465872746035 L9.132160080511936,-16.23370683685501 " />
			<path d="M9.132160080511934,8.04682010554168 L9.132160080511934,7.652434955364633 " />
			<path d="M5.898784244616893,11.155945602438724 L5.898784244616893,9.92505939868791 " />
			<path d="M11.01987679324397,8.181148444035646 L11.01987679324397,6.950262240284829 " />
			<path d="M11.845091889722804,7.70178832687965 L11.845091889722804,6.4709021231288375 " />
			<path d="M16.63550353095106,0.9892590375431176 L16.63550353095106,4.919080769343459 " />
			<path d="M16.63550353095106,-23.015026940744598 L16.63550353095106,-19.085205208944256 " />
			<path d="M11.845091889722806,-16.302497651408064 L11.845091889722806,-17.53338385515888 " />
			<path d="M11.019876793243972,-15.82313753425207 L11.019876793243972,-17.054023738002883 " />
			<path d="M-6.356936145815824,-12.8449051563808 L8.508832966948955,-21.48029834527848 " />
			<path d="M8.008688269456353,11.885417024281058 L22.87445738222113,3.250023835383376 " />

       </g>
    </g>
    <g transform="translate(20,210.0)" stroke="rgb(0,0,255)">
        <line x1="30" y1="-30" x2="75" y2="-33" stroke-width="3" stroke="#000000" />
         <text x="80" y="-30" style="stroke:#000000">X </text>

        <line x1="30" y1="-30" x2="30" y2="-75" stroke-width="3" stroke="#000000" />
         <text x="25" y="-85" style="stroke:#000000">Y </text>

        <line x1="30" y1="-30" x2="58" y2="-15" stroke-width="3" stroke="#000000" />
         <text x="65" y="-5" style="stroke:#000000">Z </text>
        <!--
            <line x1="0" y1="0" x2="4.239073690258911" y2="0" stroke-width="3" />
            <text x="0" y="20" style="stroke:#000000">1  mm </text>
        -->
    </g>
</svg>
