<?xml version="1.0" encoding="UTF-8" standalone="no"?>
<svg
   xmlns:svg="http://www.w3.org/2000/svg"
   xmlns="http://www.w3.org/2000/svg"
   width="800.0"
   height="240.0"

>
  <defs>
    <style>
      .cq-bg { fill: #ffffff; }
      @media (prefers-color-scheme: dark) {
        .cq-bg { fill: #0d1117; }
        /* CadQuery SVG selectors */
        g[stroke="rgb(0,0,0)"] { stroke: #c9d1d9 !important; }
        g[stroke="rgb(160,160,160)"] { stroke: #484f58 !important; }
        /* OpenSCAD SVG selectors */
        path { stroke: #c9d1d9 !important; }
        polygon { stroke: #c9d1d9 !important; fill: #161b22 !important; }
        /* Common selectors */
        line { stroke: #c9d1d9 !important; }
        text { stroke: #c9d1d9 !important; fill: #c9d1d9 !important; }
      }
    </style>
  </defs>
  <rect width="800.0" height="240.0" class="cq-bg"/>
    <g transform="scale(4.239073690258911, -4.239073690258911)   translate(64.99544520366396,-24.030763448016806)" stroke-width="0.23590059363627688"  fill="none">
       <!-- hidden lines -->
       <g  stroke="rgb(160,160,160)" fill="none" stroke-dasharray="0.23590059363627688,0.23590059363627688" >
			<path d="M-17.81532647640858,-18.353263443191526 L16.163574352768045,-15.935353350300176 " />
			<path d="M16.16357435276805,-15.935353350300172 L17.815326476408583,-16.894841482399915 " />
			<path d="M2.492096632859379,-17.985229670077775 L17.815326476408572,-16.89484148239992 " />
			<path d="M17.81532647640858,-16.894841482399915 L17.81532647640858,6.18882802603116 " />
			<path d="M-6.356936145815824,-12.844905156380802 L-6.180697867953289,-12.945332318428365 L-6.002808875870901,-13.042822649437921 L-5.823311079336791,-13.137353181168889 L-5.642246767145475,-13.228901642694778 L-5.459658597154819,-13.31744646565011 L-5.275589586236067,-13.402966789311831 L-5.0900831001392675,-13.485442465513973 L-4.90318284327653,-13.564854063394487 L-4.714932848425466,-13.64118287397304 L-4.525377466355302,-13.714410914558767 L-4.334561355378034,-13.784520932986899 L-4.142529470827178,-13.851496411683296 L-3.9493270544664902,-13.915321571555898 L-3.754999623831244,-13.975981375712202 L-3.5595929615045225,-14.033461533001882 L-3.3631531043310616,-14.087748501383714 L-3.165726332571207,-14.138829491116013 L-2.967359158997505,-14.186692467769834 L-2.7680983179365266,-14.231326155064222 L-2.5679907542584823,-14.272720037522845 L-2.3670836123172636,-14.3108643629514 L-2.165424224843443,-14.345750144735165 L-1.9630601017929306,-14.377369163956223 L-1.7600389191538532,-14.40571397132977 L-1.5564085077143357,-14.430777888959161 L-1.3522168417938012,-14.452555011909164 L-1.1475120279404551,-14.471040209597142 L-0.9423422935976218,-14.486229127001804 L-0.7367559757415973,-14.498118185689208 L-0.5308015094937,-14.506704584655836 L-0.3245274167091843,-14.51198630098849 L-0.11798229454575182,-14.513962090340883 " />
			<path d="M-0.11798229454575204,-14.513962090340883 L-0.11798229454575204,-10.584140358540541 " />
			<path d="M-0.11798229454575271,9.490323887946836 L-0.30550285320646964,9.456097818195873 L-0.4925976233322862,9.418132446339573 L-0.6791961927854122,9.376442060446987 L-0.865228336170579,9.331042350476702 L-1.0506240412640127,9.281950402372024 L-1.2353135353621552,9.22918469163075 L-1.4192273115402663,9.17276507635203 L-1.6022961548109746,9.112712789762874 L-1.7844511681729998,9.049050432227117 L-1.9656237985401646,8.981801962739915 L-2.1457458625409864,8.910992689910895 L-2.324749572179131,8.836649262439389 L-2.5025675603450943,8.758799659085334 L-2.679132906169445,8.677473178139609 L-2.8543791602081234,8.592700426397794 L-3.028240369450366,8.504513307641453 L-3.200651102139785,8.412945010631297 L-3.3715464723992508,8.318029996616785 L-3.5408621646503464,8.219803986366816 L-3.708534457818204,8.118303946726403 L-3.874500249312616,8.013568076704374 L-4.03869707877635,7.905635793097392 L-4.20106315159177,7.794547715655657 L-4.361537362136918,7.6803456517958715 L-4.5200593167823175,7.563072580867214 L-4.676569356619792,7.442772637976314 L-4.831008579914753,7.319491097377229 L-4.983318864273588,7.193274355432719 L-5.133442888517727,7.064169913153197 L-5.281324154256151,6.932226358319992 L-5.426907007148262,6.797493347199595 L-5.5701366578491065,6.6600215858557785 L-5.710959202629078,6.519862811066616 L-5.849321643660286,6.377069770853634 L-5.9851719089620055,6.23169620463038 L-6.118458871997698,6.083796822977862 L-6.249132370916236,5.933427287054501 L-6.377143227430035,5.780644187648345 L-6.502443265323041,5.625505023879449 L-6.624985328581598,5.468068181560364 L-6.7447232991413895,5.3083929112229225 L-6.861612114243712,5.1465393058196325 L-6.9756077833945955,4.982568278108022 L-7.086667404920417,4.816541537726421 L-7.194749182113725,4.648521567969857 L-7.2998124389631975,4.4785716022748 L-7.401817635461844,4.306755600421609 L-7.500726382487683,4.133138224463591 L-7.596501456251298,3.9577848143917485 L-7.689106812304818,3.7807613635444475 L-7.778507599107025,3.6021344937711706 L-7.864670171139581,3.4219714303597293 L-7.947562101569339,3.240339976736354 L-8.027152194452004,3.057308488948247 L-8.10341049647256,2.8729458499381626 L-8.176308308218047,2.68732144362065 L-8.245818194978444,2.5005051287697655 L-8.311913997071574,2.3125672127281085 L-8.374570839688152,2.123578424947032 L-8.433765142253298,1.933609890367971 L-8.48947462730097,1.7427331026549218 L-8.541678328857964,1.5510198972882008 L-8.590356600334346,1.3585424245295443 L-8.635491121917346,1.1653731222687242 L-8.677064907465926,0.9715846887619088 L-8.715062310903422,0.7772500552720696 L-8.749469032105871,0.5824423586217056 L-8.78027212228377,0.3872349136681534 L-8.80745998885531,0.1917011857119228 L-8.831022399809159,-0.004085237151580545 L-8.85095048755524,-0.20005067172652874 L-8.867236752262002,-0.39612136744696574 L-8.879875064678941,-0.5922235341324789 L-8.888860668443302,-0.7882833697587208 L-8.894190181870128,-0.9842270882323976 L-8.895861599224926,-1.1799809471602978 L-8.89387429147852,-1.375471275601877 L-8.888229006543778,-1.5706245017949074 L-8.87892786899415,-1.7653671808438127 L-8.865974379264086,-1.959626022360287 L-8.849373412331675,-2.1533279180457625 L-8.82913121588395,-2.3463999692053257 L-8.80525540796563,-2.5387695141827296 L-8.777754974112108,-2.7303641557062632 L-8.746640263967764,-2.9211117881350845 L-8.711922987390961,-3.1109406245957962 L-8.673616210047086,-3.29977922399904 L-8.631734348491362,-3.487556517925991 L-8.586293164743237,-3.6742018373746044 L-8.537309760354454,-3.859644939355508 L-8.484802569972954,-4.043816033327565 L-8.428791354405108,-4.226645807463199 L-8.369297193178822,-4.408065454733553 L-8.306342476610372,-4.5880066988036345 L-8.239950897377943,-4.766401819727744 L-8.170147441604998,-4.94318367943554 L-8.096958379456881,-5.118285746999116 L-8.020411255254173,-5.291642123671545 L-7.9405348771065505,-5.4631875676875215 L-7.857359306070995,-5.632857518816769 L-7.770915844838452,-5.800588122660954 L-7.6812370259532585,-5.96631625468496 L-7.588356599569668,-6.129979543973436 L-7.492309520750176,-6.291516396703795 L-7.393131936310336,-6.450866019326735 L-7.290861171215118,-6.607968441445564 L-7.185535714531854,-6.762764538385726 L-7.077195204945072,-6.915196053446077 L-6.965880415838674,-7.065205619823506 L-6.851633239951096,-7.212736782202614 L-6.734496673609209,-7.357734018002371 L-6.6145148005468615,-7.500142758271751 L-6.491732775314189,-7.639909408226491 L-6.366196806283941,-7.776981367419201 L-6.237954138261221,-7.9113070495352344 L-6.107053034703135,-8.04283590180696 L-5.973542759555081,-8.171518424039043 L-5.837473558710532,-8.297306187237549 L-5.698896641101271,-8.420151851835968 L-5.557864159425162,-8.540009185511188 L-5.414429190518749,-8.656833080582823 L-5.268645715382069,-8.770579570989234 L-5.120568598863208,-8.88120584883391 L-4.970253569010182,-8.988670280496013 L-4.817757196097968,-9.092932422298984 L-4.663136871338593,-9.193953035731301 L-4.506450785282257,-9.291694102213667 L-4.3477579059176925,-9.386118837407071 " />
			<path d="M-4.347757905917617,-9.386118837407116 L-4.22789191040614,-9.454496150692053 L-4.106963732055535,-9.520987182750362 L-3.984998787116906,-9.585577958735238 L-3.862022709745247,-9.648254903188885 L-3.738061346611735,-9.709004842895755 L-3.613140751471387,-9.76781500965126 L-3.487287179687157,-9.824673042945333 L-3.36052708271169,-9.879566992560319 L-3.2328871025278456,-9.932485321082636 L-3.104394066049184,-9.98341690632766 L-2.9750749794815774,-10.03235104367735 L-2.8449570226471463,-10.0792774483301 L-2.7140675432717023,-10.124186257462375 L-2.5824340512368957,-10.167068032301623 L-2.4500842127982962,-10.20791376011011 L-2.317045844770587,-10.246714856079151 L-2.183346908681136,-10.283463165133469 L-2.0490155048931404,-10.318150963645177 L-1.9140798666995886,-10.350770961057108 L-1.7785683543892903,-10.381316301415115 L-1.6425094492862153,-10.409780564809049 L-1.5059317477633885,-10.43615776872204 L-1.3688639552326052,-10.460442369287913 L-1.2313348801112332,-10.482629262456358 L-1.0933734277673626,-10.502713785065692 L-0.9550085944445761,-10.520691715822934 L-0.8162694611676273,-10.536559276191037 L-0.677185187630291,-10.55031313118303 L-0.5377850060666862,-10.561950390062968 L-0.398098215107348,-10.57146860695349 L-0.2581541736213482,-10.578865781349881 L-0.1179822945457536,-10.584140358540541 " />
			<path d="M-0.11798229454575204,9.490323887946833 L-0.11798229454575204,13.420145619747174 " />
			<path d="M1.7697344181862755,-14.37963375184692 L2.0336056732033816,-14.338968711599941 L2.2970123741654547,-14.292972710724008 L2.5598532014974005,-14.241663441613612 L2.822027053287817,-14.18506064041565 L3.0834330841779227,-14.123186079437911 L3.3439707441517914,-14.056063558774335 L3.603539817212985,-13.983718897150293 L3.862040459932711,-13.906179921991395 L4.119373239854678,-13.82347645871965 L4.3754391737418405,-13.7356403192811 L4.630139765650385,-13.642705289909323 L4.883377044816266,-13.54470711812955 L5.135053603339723,-13.441683499008338 L5.385072633653304,-13.333674060654143 L5.6333379657589635,-13.220720348974343 L5.879754104219916,-13.102865811694567 L6.124226264893031,-12.980155781646504 L6.36666041138762,-12.852637459330593 L6.606963291236601,-12.720359894760316 L6.845042471766124,-12.58337396859508 L7.080806375649857,-12.441732372568932 L7.31416431613429,-12.295489589222644 L7.545026531921442,-12.144701870946967 L7.773304221695616,-11.989427218345114 L7.998909578280886,-11.829725357922776 L8.221755822416188,-11.665657719114288 L8.441757236135029,-11.497287410653747 L8.658829195736965,-11.324679196300199 L8.872888204338151,-11.147899469926209 L9.083851923988506,-10.967016229979407 L9.29163920734304,-10.782099053326846 L9.496170128875242,-10.593219068492203 L9.697366015620508,-10.400448928296148 L9.895149477437723,-10.203862781910374 L10.089444436777466,-10.003536246336076 L10.280176157945268,-9.799546377317812 L10.467271275848761,-9.591971639703962 L10.65065782421762,-9.380891877265164 L10.83026526328542,-9.166388281982341 L11.006024506922833,-8.94854336281617 L11.177867949211633,-8.727440913969934 L11.345729490449376,-8.503165982658025 L11.509544562574693,-8.27580483639248 L11.66925015400344,-8.045444929800107 L11.824784833866145,-7.812174870983017 L11.976088775637448,-7.576084387435444 L12.123103780148403,-7.337264291530001 L12.265773297972837,-7.095806445586646 L12.404042451179123,-6.8518037265377565 L12.537858054439024,-6.6053499902029635 L12.667168635485453,-6.356540035187448 L12.791924454911332,-6.105469566417587 L12.912077525301882,-5.852235158327973 L13.027581629693012,-5.596934217714006 L13.138392339348725,-5.339664946264293 L13.24446703085064,-5.080526302787291 L13.345764902493137,-4.81961796514675 L13.442246989977756,-4.557040291920531 L13.533876181400839,-4.292894283797618 L13.62061723152866,-4.027281544728136 L13.70243677535452,-3.760304242841307 L13.779303340932623,-3.4920650711464143 L13.851187361483781,-3.222667208031861 L13.918061186768304,-2.952214277577532 L13.979899093721672,-2.6808103096957105 L14.036677296348945,-2.408559700115911 L14.088373954874049,-2.135567170228971 L14.134969184140468,-1.8619377268059147 L14.176445061260091,-1.587776621607 L14.212785632507243,-1.3131893108965644 L14.243976919455317,-1.03828141487921 L14.270006924353579,-0.7631586770728966 L14.29086563474211,-0.4879269236346376 L14.306545027303102,-0.21269202265438164 L14.317039070947045,0.062440156567216965 L14.322343729132575,0.33736378424150043 L14.322456961419148,0.6119731107993149 L14.31737872425188,0.8861625075676494 L14.307110970978316,1.1598265073997918 L14.291657651097063,1.4328598452433314 L14.27102470873862,1.7051574986304412 L14.245220080378955,1.9766147280748467 L14.214253691786743,2.247127117359937 L14.178137454205407,2.516590613702547 L14.136885259771448,2.784901567776924 L14.090512976170837,3.051956773583519 L14.039038440535476,3.3176535081472553 L13.982481452582151,3.581889571029978 L13.92086376699656,3.8445633236419403 L13.854209085065333,4.105573728337156 L13.782543045559343,4.36482038727759 L13.705893214871717,4.622203581051276 L13.624289076414412,4.877624307029448 L13.537762019277396,5.130984317447974 L13.446345326154807,5.382186157198435 L13.350074160542759,5.631133201314288 L13.248985553213656,5.8777296921377395 L13.143118387972288,6.121880776153002 L13.032513386699156,6.363492540471745 L12.917213093686756,6.6024720489567725 L12.79726185927491,6.838727377969974 L12.672705822791338,7.072167651730809 L12.543592894804178,7.302703077271742 L12.409972738693115,7.530244978977176 L12.271896751546352,7.7547058326925935 L12.129418044390665,7.975999299390773 L11.982591421762217,8.194040258382167 L11.831473360625962,8.408744840056634 L11.67612198865172,8.620030458143946 L11.516597061855348,8.82781584148065 L11.352959941613538,9.032021065271081 L11.185273571061108,9.232567581830496 L11.013602450879906,9.429378250798495 L10.838012614488553,9.622377368811112 L10.658571602642652,9.811490698620165 L10.47534843745519,9.996645497648686 L10.288413595847127,10.177770545971372 L10.097838982438404,10.354796173709415 L9.90369790188977,10.527654287829042 L9.706065030706112,10.69627839833357 L9.505016388512058,10.860603643838814 L9.300629308810995,11.02056681652208 L9.092982409238672,11.176106386435084 L8.882155561322874,11.327162525171499 L8.668229859760778,11.473677128879999 L8.451287591225828,11.615593840613927 L8.231412202716102,11.752858072009063 L8.008688269456403,11.88541702428103 " />
			<path d="M1.7697344181862829,9.624652226440798 L1.7697344181862829,12.323587754490326 " />
			<path d="M1.7697344181862817,-10.449812020046577 L1.9112688471035346,-10.42433276096144 L2.052570692071258,-10.396722520588703 L2.193609674151147,-10.36698721540289 L2.33435557073261,-10.335133217249115 L2.474778222009031,-10.301167351977709 L2.614847537440578,-10.265096897981524 L2.7545335022021717,-10.226929584636292 L2.893806183615233,-10.186673590644322 L3.03263573756181,-10.144337542281928 L3.1709924148797497,-10.099930511550946 L3.308846567737512,-10.05346201423472 L3.4461686559872677,-10.004942007859025 L3.582929253494922,-9.95438088955831 L3.7190990544457128,-9.90178949384773 L3.8546488796240252,-9.847179090301484 L3.9895496826660644,-9.7905613811379 L4.123772556284084,-9.73194849871181 L4.257288738460783,-9.671353002914787 L4.390069618612604,-9.608787878483712 L4.522086743720564,-9.544266532218357 L4.6533118244273135,-9.477802790108488 L4.783716741099148,-9.409410894371163 L4.913273549851633,-9.339105500398832 L5.041954488537575,-9.266901673618886 L5.169731982696046,-9.192814886265369 L5.296578651461191,-9.116861014063502 L5.422467313429559,-9.039056332827734 L5.5473709924846615,-8.959417514974074 L5.671262923577592,-8.877961625947446 L5.794116558462372,-8.794706120564793 L5.915905571384853,-8.709668839274777 L6.036603864723937,-8.622868004334837 " />
			<path d="M10.480917371681352,-0.9720133166626019 L10.499436201067486,-0.7941769754407746 L10.514956284675488,-0.616243161897899 L10.527472811372277,-0.43826703445181586 L10.536981901109447,-0.26030376463742627 L10.543480606126064,-0.08240852000382809 L10.546966911862441,0.0953635529872669 L10.54743973758466,0.2729573460566192 L10.544898936719575,0.4503178061907089 L10.539345296900251,0.6273899527078255 L10.530780539721812,0.804118894301745 L10.519207320207757,0.9804498460577356 L10.504629225986902,1.1563281464355213 L10.487050776181253,1.331699274214042 L10.466477420005099,1.5065088653927283 L10.442915535075791,1.68070273004398 L10.416372425436716,1.8542268691117405 L10.386856319293086,2.027027491150882 L10.354376366461244,2.1990510290022334 L10.318942635532286,2.3702441563980603 L10.28056611075084,2.5405538044929057 L10.239258688610027,2.7099271783146204 L10.195033174163624,2.8783117731304704 L10.14790327705656,3.0456553907232955 L10.097883607275017,3.211906155572662 L10.04498967061742,3.3770125309359367 L9.989237863887737,3.540923334824383 L9.930645469812557,3.7035877558692776 L9.869230651683553,3.8649553690731175 L9.805012447726986,4.024976151441068 L9.738010765201937,4.183600497487808 L9.6682463742292,4.3407792346149225 L9.595740901352661,4.496463638354097 L9.520516822835203,4.650605447471449 L9.442597457691194,4.803156878928194 L9.362006960457729,4.954070642693109 L9.278770313706879,5.103299956402152 L9.192913320301232,5.250798559860737 L9.104462595395168,5.39652072938409 L9.01344555818432,5.5404212919713345 L8.919890423405771,5.682455639308856 L8.823826192591685,5.822579741598591 L8.725282645078977,5.960750161207017 L8.62429032877791,6.096924066130568 L8.520880550702422,6.231059243273274 L8.415085367265151,6.363114111532585 L8.306937574340111,6.49304773468927 L8.1964706970962,6.620819834097376 L8.083718979604571,6.746390801170392 L7.968717374223191,6.869721709659667 L7.851501530761819,6.990774327721304 L7.7321077854307685,7.109511129767808 L7.6105731495769025,7.225895308100809 L7.486935298210346,7.339890784321204 L7.361232558325451,7.451462220513257 L7.233503897019651,7.560575030199146 L7.103788909413911,7.667195389060559 L6.972127806378467,7.771290245424023 L6.838561402067682,7.872827330506741 L6.703131101267938,7.971775168419706 L6.565878886562371,8.06810308592505 L6.426847305316518,8.161781221944556 L6.286079456488919,8.252780536816426 L6.143618977270668,8.341072821297377 L5.999510029558189,8.42663070530735 " />
			<path d="M5.999510029558152,8.42663070530737 L5.879644034046677,8.495008018592307 L5.75871585569607,8.561499050650617 L5.636750910757443,8.626089826635493 L5.513774833385785,8.688766771089137 L5.389813470252271,8.74951671079601 L5.264892875111925,8.808326877551513 L5.139039303327697,8.865184910845587 L5.012279206352227,8.920078860460572 L4.884639226168382,8.972997188982891 L4.756146189689721,9.023928774227915 L4.626827103122117,9.072862911577603 L4.496709146287685,9.119789316230356 L4.3658196669122376,9.16469812536263 L4.234186174877434,9.207579900201882 L4.101836336438835,9.248425628010363 L3.9687979684111223,9.287226723979405 L3.83509903232167,9.323975033033726 L3.7007676285336757,9.358662831545434 L3.565831990340125,9.391282828957362 L3.4303204780298255,9.421828169315372 L3.294261572926748,9.450292432709304 L3.1576838714039224,9.476669636622296 L3.0206160788731418,9.50095423718817 L2.8830870037517666,9.523141130356613 L2.7451255514078943,9.54322565296595 L2.6067607180851096,9.561203583723191 L2.468021584808162,9.577071144091294 L2.328937311270824,9.590824999083287 L2.1895371297072215,9.602462257963225 L2.049850338747885,9.611980474853747 L1.909906297261882,9.619377649250138 L1.769734418186328,9.624652226440798 " />
			<path d="M1.7697344181862829,-14.37963375184692 L1.7697344181862829,-10.449812020046577 " />
			<path d="M16.16357435276805,-15.935353350300172 L16.16357435276805,19.31275157529127 " />
			<path d="M9.957375176990748,-20.36664772170236 L14.747786818219025,-23.149355279238563 " />
			<path d="M9.957375176990771,-20.36664772170237 L9.831581780504031,-20.349041338375955 L9.71312574532101,-20.32969987275796 L9.602226825271867,-20.308986716076674 L9.499047294240942,-20.287225301613173 L9.403703767889187,-20.26470104189235 L9.316263544583256,-20.241659185501092 L9.236742765682372,-20.218301424455422 L9.165179041025718,-20.194804883074912 L9.101618802322964,-20.171321204475884 L9.04612123720401,-20.1479787281769 L8.998763300916817,-20.124884924405393 L8.959645619876246,-20.102129379204225 L8.928899326231967,-20.079788038409706 L8.90668127188786,-20.0579204193048 L8.893181753038663,-20.03657383725006 L8.889770448533458,-20.02610772117654 L8.888625984196704,-20.015784708117803 " />
			<path d="M8.888625984196706,-20.015784708117803 L8.892165426951468,-19.99810883927735 L8.902917739884986,-19.980889675334893 L8.921103225333288,-19.964130883481737 L8.946961665849736,-19.947835208808716 L8.980740492856198,-19.932005659710512 L9.022694088195443,-19.916641183397555 L9.073080820402796,-19.901737444554524 L9.132160080511934,-19.88728760454638 " />
			<path d="M4.01106753188486,-16.9124904461433 L9.132160080511957,-19.88728760454639 " />
			<path d="M4.01106753188486,-16.9124904461433 L3.8852741353980553,-16.89488406281687 L3.7668181002149685,-16.875542597198866 L3.6559191801657653,-16.854829440517566 L3.5527396491347867,-16.833068026054047 L3.457396122782998,-16.810543766333208 L3.3699558994770884,-16.78750190994195 L3.290435120576244,-16.764144148896282 L3.2188713959196265,-16.740647607515772 L3.1553111572169037,-16.71716392891675 L3.0998135920979752,-16.69382145261777 L3.052455655810807,-16.670727648846267 L3.0133379747702684,-16.64797210364511 L2.982591681126019,-16.6256307628506 L2.9603736267819345,-16.60376314374571 L2.9468741079327487,-16.58241656169098 L2.9434628034275456,-16.571950445617464 L2.9423183390907934,-16.561627432558733 " />
			<path d="M2.942318339090793,-16.561627432558733 L2.9458577818455587,-16.543951563718277 L2.9566100947790765,-16.52673239977582 L2.974795580227377,-16.509973607922664 L3.0006540207438257,-16.493677933249643 L3.034432847750287,-16.47784838415144 L3.0763864430895307,-16.462483907838482 L3.126773175296881,-16.447580168995454 L3.1858524354060234,-16.433130328987307 " />
			<path d="M-0.11798229454575204,-14.513962090340883 L3.1858524354060256,-16.433130328987307 " />
			<path d="M3.1858524354060265,-12.503308597186965 L3.185852435406027,-16.43313032898731 " />
			<path d="M-0.11798229454575204,-10.584140358540541 L3.185852435406023,-12.503308597186964 " />
			<path d="M4.011067531884864,-12.98266871434296 L7.381899792003781,-14.940755222961808 " />
			<path d="M4.0110675318848585,-12.982668714342957 L3.885457932129749,-12.962207634201127 L3.767142477740876,-12.940044230283405 L3.656340184452081,-12.9166098666842 L3.553213977497217,-12.892287275388405 L3.457882623620323,-12.867412644680137 L3.3704185259282013,-12.8422742802025 L3.2908484188325895,-12.81711028290335 L3.2192192468240477,-12.792128097036615 L3.1555860747272257,-12.767503653158323 L3.1000157571472777,-12.74338372478752 L3.0525916343001476,-12.719888557829195 L3.0134191390951552,-12.697115050063427 L2.9826323995690474,-12.675140951452756 L2.9603888326145134,-12.6540217213543 L2.9468770184583097,-12.633794739706266 L2.9434634040093677,-12.624022849947472 L2.9423183373872406,-12.6144803366674 " />
			<path d="M2.9423183373872406,-12.6144803366674 L2.9458639634060844,-12.598352746306919 L2.956631599705741,-12.58291739603669 L2.974835761905187,-12.56815507789601 L3.0007102999991595,-12.554040291524808 L3.034497437546544,-12.540542228913482 L3.076446944728122,-12.527621075727048 L3.1268132640784567,-12.515228520303141 L3.185852435406021,-12.503308597186967 " />
			<path d="M-0.11798229454575204,9.490323887946833 L3.1858524354060247,7.571155649300408 " />
			<path d="M4.011067531884858,7.091795532144417 L3.88545792869425,7.091779239581544 L3.767142471287444,7.093716582401097 L3.6563401754141975,7.097677313806675 L3.5532139663186895,7.103713925298695 L3.457882610751332,7.1118614959895625 L3.3704185118165504,7.122140017027372 L3.290848403929353,7.134559572446292 L3.2192192315864765,7.149115556662056 L3.1555860596192464,7.16578994021434 L3.1000157426418835,7.184551263967594 L3.0525916208824464,7.20535452474975 L3.013419127949469,7.228140402474523 L2.982632393468415,7.252830970383942 L2.9603888307137036,7.2793328572030145 L2.9525283945412797,7.293228605752207 L2.946877018322941,7.307533085523116 L2.943463403910662,7.32222855046278 L2.9423183369455606,7.337295631337927 " />
			<path d="M2.9423183369455606,7.337295631337928 L2.9458639619494535,7.364456670777823 L2.9566315972873434,7.3925614215344355 L2.974835758836345,7.421469568974247 L3.00071029667476,7.451014315376918 L3.0344974343806235,7.480996635223088 L3.076446942154996,7.511190023122842 L3.1268132625534992,7.541338632399035 L3.1858524354060207,7.571155649300407 " />
			<path d="M4.0110675318848585,7.091795532144416 L9.132160080511929,4.116998373741341 " />
			<path d="M9.95737517699077,3.637638256585345 L9.831765577235606,3.6376219639957923 L9.713450122846707,3.6395593066765195 L9.60264782955787,3.6435200378259562 L9.499521622602957,3.649556648941315 L9.40419026872605,3.6577042191337337 L9.316726171033944,3.6679827395509363 L9.23715606393837,3.6804022942282733 L9.165526891929861,3.6949582775844356 L9.101893719833063,3.7116326601634477 L9.046323402253133,3.7303939828356443 L8.99889927940602,3.7511972424363975 L8.959726784201045,3.77398311966653 L8.928940044674944,3.7986736896847155 L8.906696477720415,3.8251755782078956 L8.898836040350648,3.8390713273579133 L8.893184663564217,3.853375807792396 L8.889771049115277,3.8680712736598992 L8.888625982493151,3.8831383558501145 " />
			<path d="M8.88862598249315,3.883138355850115 L8.892171608511992,3.910299398308369 L8.902939244811643,3.938404150750716 L8.921143407011085,3.9673122974964077 L8.94701794510506,3.996857043143258 L8.980805082652447,4.026839362185616 L9.022754589834026,4.057032749249758 L9.07312090918436,4.087181357677854 L9.132160080511932,4.116998373741335 " />
			<path d="M9.957375176990778,3.637638256585338 L14.747786818219026,0.8549306990491505 " />
			<path d="M3.1858524354060256,11.106592231206019 L3.185852435406026,7.571155649300408 " />
			<path d="M1.7697344181862829,-14.379633751846917 L5.073569148138061,-16.29880199049334 " />
			<path d="M11.845091889722784,-20.232319383208395 L14.747786818219026,-21.91846907548775 " />
			<path d="M11.845091889722802,-20.232319383208406 L11.90416361616545,-20.205005162536523 L11.954554929015517,-20.177340393538913 L11.996510749834343,-20.149571313263053 L12.030283971504446,-20.12191744507688 L12.056138572775133,-20.0945628937911 L12.074327445674657,-20.067665975042406 L12.085084801442996,-20.041365969146913 L12.08862597989793,-20.015784703093544 " />
			<path d="M12.08862597989793,-20.015784703093544 L12.087481240526534,-20.00150274529925 L12.084069175304244,-19.987509288122713 L12.078421426014224,-19.97382074435294 L12.070567411064326,-19.960452225686346 L12.04834693403143,-19.934729776317262 L12.017597319100739,-19.910440379612528 L11.97847303136612,-19.887668824971986 L11.931109844594017,-19.866493961583785 L11.875607196470058,-19.846978389318128 L11.812039023898357,-19.829176672794638 L11.740462387351776,-19.813137104363637 L11.6609239767223,-19.79890182408777 L11.573466740467152,-19.786506827196547 L11.478136638050705,-19.775981859013726 L11.374989504344212,-19.767350196604667 L11.264101937322938,-19.76062879012208 L11.14564485971831,-19.755830556953565 L11.019876793243974,-19.752959266052414 " />
			<path d="M5.898784244616895,-16.778162107649333 L11.019876793243993,-19.752959266052425 " />
			<path d="M5.89878424461689,-16.778162107649333 L5.957855971059532,-16.750847886977457 L6.008247283909585,-16.723183117979858 L6.050203104728407,-16.695414037704 L6.083976326398515,-16.66776016951783 L6.109830927669207,-16.64040561823205 L6.1280198005687385,-16.61350869948335 L6.138777156337083,-16.587208693587854 L6.14231833479202,-16.56162742753448 " />
			<path d="M6.142318334792019,-16.56162742753448 L6.141173595420623,-16.547345469740172 L6.137761530198331,-16.533352012563633 L6.132113780908306,-16.51966346879385 L6.124259765958402,-16.506294950127256 L6.102039288925492,-16.480572500758164 L6.071289673994782,-16.456283104053426 L6.032165386260146,-16.43351154941288 L5.984802199488036,-16.412336686024684 L5.9292995513640845,-16.392821113759034 L5.8657313787924075,-16.375019397235558 L5.794154742245867,-16.358979828804568 L5.71461633161644,-16.34474454852871 L5.62715909536134,-16.33234955163749 L5.531828992944925,-16.321824583454667 L5.428681859238428,-16.31319292104561 L5.317794292217117,-16.306471514563015 L5.199337214612447,-16.301673281394496 L5.073569148138062,-16.29880199049334 " />
			<path d="M1.7697344181862829,9.624652226440798 L5.07356914813806,7.7054839877943735 " />
			<path d="M5.07356914813806,10.404419515843902 L5.07356914813806,7.7054839877943735 " />
			<path d="M1.7697344181862829,-10.449812020046576 L5.073569148138057,-12.368980258692998 " />
			<path d="M5.073569148138062,7.705483987794374 L5.199160251219017,7.685026150806742 L5.31748090339189,7.6628621569354936 L5.428276276498032,7.6394296645816056 L5.531374557942903,7.6151145033587815 L5.626693268811075,7.590244574251046 L5.714170661768785,7.565103846615306 L5.79375369907551,7.539937012475519 L5.8653916807223165,7.5149528484912755 L5.929029983488117,7.490327377848281 L5.9846039220028695,7.466206829577523 L6.032032731817736,7.4427103953030995 L6.0712114564113175,7.419934196872428 L6.10200083809093,7.397958979097481 L6.12424584805341,7.3768393214238355 L6.137758999672897,7.356611538826874 L6.141173094347343,7.346838969584947 L6.14231833316014,7.337295601749588 " />
			<path d="M6.142318333160139,7.337295601749588 L6.138771422685632,7.321165238593093 L6.127999949211704,7.305727316617842 L6.109793508012036,7.290965437950101 L6.083923080475114,7.276854018829478 L6.050141107003584,7.263358148865794 L6.008189099245448,7.250436175179368 L5.957817703759716,7.238042524942377 L5.8987842446168965,7.226123870638383 " />
			<path d="M5.898784244616893,7.226123870638381 L11.019876793243965,4.251326712235306 " />
			<path d="M11.019876793243972,4.2513267122353025 L11.145467896324888,4.230868875247676 L11.263788548497727,4.208704881376436 L11.374583921603838,4.185272389022555 L11.477682203048712,4.1609572277997335 L11.573000913916895,4.136087298692 L11.66047830687461,4.110946571056261 L11.740061344181338,4.085779736916476 L11.811699325828148,4.060795572932234 L11.875337628593954,4.036170102289241 L11.930911567108714,4.012049554018484 L11.978340376923589,3.9885531197440596 L12.01751910151719,3.9657769213133798 L12.04830848319682,3.9438017035384245 L12.070553493159313,3.9226820458647715 L12.084066644778806,3.902454263267805 L12.087480739453254,3.8926816940258764 L12.08862597826605,3.8831383261905157 " />
			<path d="M12.088625978266052,3.883138326190515 L12.085079067791542,3.8670079630340215 L12.074307594317615,3.8515700410587708 L12.056101153117948,3.8368081623910286 L12.030230725581024,3.822696743270405 L11.99644875210949,3.809200873306719 L11.954496744351356,3.7962788996202943 L11.904125348865627,3.7838852493833053 L11.84509188972281,3.77196659507931 " />
			<path d="M11.845091889722815,3.771966595079303 L14.747786818219025,2.085816902799965 " />
			<path d="M5.898784244616898,-12.848340375848995 L6.563410567817447,-13.234415901507466 " />
			<path d="M5.898784244616893,-12.848340375848991 L5.957817703759693,-12.818526499191146 L6.0081890992454055,-12.788375166961698 L6.0501411070035225,-12.758179882531815 L6.0839230804750635,-12.728202360204124 L6.1097935080120065,-12.698664197314082 L6.127999949211691,-12.669756273342738 L6.138771422685631,-12.641646232071334 L6.142318333160142,-12.614480328686463 " />
			<path d="M6.1423183331601425,-12.614480328686463 L6.141173094347344,-12.599411964479346 L6.1377589996729,-12.584715597561194 L6.132106978565657,-12.57041056162464 L6.124245848053418,-12.55651452329562 L6.102000838090952,-12.530012383675203 L6.071211456411363,-12.50532099119559 L6.032032731817806,-12.48253304263299 L5.98460392200295,-12.461729450786898 L5.9290299834882125,-12.442968538228731 L5.865391680722443,-12.426294333472036 L5.7937536990756735,-12.411738116654991 L5.714170661768986,-12.399318287362883 L5.626693268811303,-12.389040088245471 L5.531374557943155,-12.38089518442923 L5.428276276498324,-12.374861098297897 L5.317480903392084,-12.37090096541027 L5.199160251219122,-12.368963823809162 L5.073569148138066,-12.368980258693 " />
			<path d="M5.073569148138061,-12.368980258693 L5.073569148138061,-16.298801990493345 " />
			<path d="M9.957375176990771,-16.43682598990203 L9.957375176990771,-20.366647721702375 " />
			<path d="M9.132160080511936,-16.233706837038973 L9.132160080511936,-19.88728760454638 " />
			<path d="M4.011067531884859,-12.982668714342957 L4.011067531884859,-16.912490446143302 " />
			<path d="M4.0110675318848585,11.021617263944758 L4.0110675318848585,7.091795532144417 " />
			<path d="M9.132160080511934,7.652434955364631 L9.132160080511934,4.116998373741339 " />
			<path d="M9.95737517699077,7.567459988385685 L9.95737517699077,3.637638256585344 " />
			<path d="M5.898784244616893,9.92505939868791 L5.898784244616893,7.226123870638382 " />
			<path d="M11.01987679324397,6.95026224028483 L11.01987679324397,4.251326712235304 " />
			<path d="M11.845091889722806,6.470902123128837 L11.845091889722806,3.7719665950793093 " />
			<path d="M11.845091889722807,-17.53338385515888 L11.845091889722807,-20.23231938320841 " />
			<path d="M11.019876793243972,-17.054023738002883 L11.019876793243972,-19.752959266052414 " />
			<path d="M5.898784244616894,-12.848340375848991 L5.898784244616894,-16.778162107649337 " />
			<path d="M-4.347757905917617,-9.386118837407116 L10.518011206847163,-18.021512026304798 " />
			<path d="M5.999510029558148,8.426630705307373 L20.865279142322926,-0.20876248359030924 " />
			<path d="M8.888625985117372,-16.068637622811096 L8.888625985117372,-20.01578471865742 " />
			<path d="M2.942318340011459,-12.614480347312583 L2.9423183400114596,-16.56162744309835 " />
			<path d="M2.9423183400114583,11.28444271654977 L2.9423183400114588,7.33729562070344 " />
			<path d="M8.88862598511737,7.830285440990699 L8.88862598511737,3.8831383452049284 " />
			<path d="M6.142318340011459,11.284442703584428 L6.142318340011459,7.337295605860213 " />
			<path d="M12.08862598511737,7.830285428025357 L12.08862598511737,3.8831383303011417 " />
			<path d="M12.088625985117371,-16.068637607967872 L12.088625985117371,-20.015784705692077 " />
			<path d="M6.14231834001146,-12.614480332408796 L6.14231834001146,-16.56162743013302 " />

       </g>

       <!-- solid lines -->
       <g  stroke="rgb(0,0,0)" fill="none">
			<path d="M-17.81532647640858,-18.353263443191526 L-16.163574352768048,-19.31275157529127 " />
			<path d="M-16.16357435276805,-19.31275157529127 L-16.16357435276805,15.935353350300172 " />
			<path d="M-17.81532647640858,16.894841482399915 L-16.163574352768048,15.935353350300172 " />
			<path d="M-17.81532647640858,-18.353263443191526 L-17.81532647640858,16.894841482399915 " />
			<path d="M-16.16357435276805,-19.31275157529127 L2.492096632859379,-17.985229670077775 " />
			<path d="M-16.16357435276805,15.935353350300172 L17.815326476408572,18.353263443191523 " />
			<path d="M17.81532647640858,6.18882802603116 L17.81532647640858,18.353263443191526 " />
			<path d="M-0.11798229454575804,13.420145619747174 L-0.3818535495628632,13.379480579500198 L-0.645260250524931,13.333484578624265 L-0.9081010778568759,13.282175309513867 L-1.1702749296472925,13.225572508315906 L-1.4316809605373981,13.163697947338168 L-1.692218620511266,13.09657542667459 L-1.9517876935724594,13.024230765050547 L-2.210288336292189,12.94669178989165 L-2.467621116214154,12.863988326619904 L-2.723687050101317,12.776152187181353 L-2.9783876420098627,12.683217157809578 L-3.2316249211757437,12.585218986029805 L-3.4833014796992074,12.482195366908591 L-3.733320510012783,12.374185928554397 L-3.9815858421184336,12.2612322168746 L-4.228001980579393,12.14337767959482 L-4.472474141252515,12.020667649546754 L-4.714908287747102,11.893149327230844 L-4.955211167596078,11.760871762660571 L-5.193290348125604,11.623885836495331 L-5.429054252009342,11.48224424046918 L-5.66241219249377,11.336001457122894 L-5.893274408280917,11.18521373884722 L-6.121552098055096,11.029939086245363 L-6.347157454640371,10.870237225823022 L-6.570003698775669,10.706169587014536 L-6.790005112494505,10.537799278554 L-7.0070770720964415,10.365191064200447 L-7.221136080697635,10.188411337826452 L-7.432099800347986,10.007528097879655 L-7.639887083702515,9.8226109212271 L-7.844418005234724,9.633730936392453 L-8.045613891979992,9.440960796196393 L-8.243397353797205,9.244374649810622 L-8.437692313136942,9.044048114236327 L-8.628424034304738,8.840058245218069 L-8.815519152208227,8.632483507604224 L-8.998905700577088,8.421403745165419 L-9.178513139644895,8.206900149882593 L-9.354272383282302,7.989055230716428 L-9.526115825571097,7.767952781870196 L-9.693977366808845,7.543677850558282 L-9.857792438934167,7.316316704292731 L-10.017498030362908,7.085956797700363 L-10.17303271022561,6.852686738883279 L-10.32433665199692,6.6165962553357005 L-10.471351656507878,6.377776159430254 L-10.614021174332308,6.136318313486901 L-10.752290327538594,5.892315594438013 L-10.886105930798498,5.645861858103215 L-11.01541651184493,5.397051903087695 L-11.140172331270804,5.145981434317838 L-11.26032540166135,4.89274702622823 L-11.375829506052485,4.637446085614258 L-11.4866402157082,4.380176814164537 L-11.59271490721011,4.121038170687543 L-11.694012778852606,3.8601298330470066 L-11.790494866337227,3.5975521598207814 L-11.882124057760313,3.3334061516978633 L-11.968865107888133,3.0677934126283883 L-12.050684651713992,2.800816110741565 L-12.127551217292094,2.5325769390466664 L-12.199435237843254,2.263179075932108 L-12.266309063127775,1.9927261454777834 L-12.328146970081141,1.7213221775959693 L-12.384925172708416,1.4490715680161617 L-12.436621831233522,1.1760790381292172 L-12.48321706049994,0.9024495947061637 L-12.52469293761956,0.6282884895072507 L-12.561033508866712,0.3537011787968089 L-12.592224795814788,0.07879328277944836 L-12.61825480071305,-0.196329455026858 L-12.639113511101579,-0.4715612084651109 L-12.654792903662573,-0.7467961094453739 L-12.665286947306512,-1.0219282886669778 L-12.670591605492046,-1.296851916341256 L-12.670704837778617,-1.5714612428990642 L-12.665626600611349,-1.8456506396674048 L-12.655358847337785,-2.1193146394995543 L-12.639905527456532,-2.392347977343086 L-12.619272585098088,-2.6646456307301913 L-12.593467956738424,-2.9361028601746013 L-12.562501568146208,-3.206615249459699 L-12.526385330564874,-3.4760787458023006 L-12.485133136130917,-3.7443896998766717 L-12.438760852530303,-4.011444905683276 L-12.38728631689494,-4.277141640247017 L-12.330729328941619,-4.541377703129732 L-12.269111643356027,-4.804051455741693 L-12.202456961424799,-5.06506186043691 L-12.130790921918807,-5.324308519377349 L-12.054141091231182,-5.581691713151029 L-11.97253695277388,-5.837112439129197 L-11.886009895636866,-6.090472449547717 L-11.79459320251428,-6.3416742892981715 L-11.69832203690223,-6.590621333414031 L-11.597233429573121,-6.8372178242374915 L-11.491366264331756,-7.081368908252745 L-11.380761263058625,-7.322980672571482 L-11.265460970046233,-7.561960181056508 L-11.145509735634386,-7.798215510069703 L-11.020953699150814,-8.031655783830542 L-10.891840771163649,-8.262191209371482 L-10.758220615052592,-8.48973311107691 L-10.620144627905832,-8.714193964792322 L-10.47766592075014,-8.935487431490508 L-10.33083929812169,-9.153528390481904 L-10.179721236985438,-9.368232972156369 L-10.0243698650112,-9.579518590243675 L-9.864844938214825,-9.787303973580382 L-9.701207817973009,-9.991509197370819 L-9.533521447420584,-10.19205571393023 L-9.361850327239388,-10.388866382898225 L-9.18626049084803,-10.581865500910844 L-9.006819479002127,-10.770978830719905 L-8.823596313814669,-10.95613362974842 L-8.63666147220661,-11.137258678071102 L-8.44608685879788,-11.31428430580915 L-8.251945778249244,-11.487142419928782 L-8.05431290706559,-11.655766530433306 L-7.853264264871541,-11.820091775938549 L-7.648877185170473,-11.980054948621817 L-7.441230285598145,-12.135594518534823 L-7.230403437682352,-12.286650657271235 L-7.0164777361202635,-12.433165260979733 L-6.799535467585309,-12.575081972713667 L-6.579660079075571,-12.712346204108808 L-6.3569361458159275,-12.844905156380742 " />
			<path d="M8.008688269456353,11.88541702428106 L7.832449991593819,11.985844186328622 L7.6545609995114265,12.08333451733818 L7.475063202977318,12.17786504906915 L7.2939988907860025,12.269413510595037 L7.111410720795348,12.35795833355037 L6.927341709876595,12.443478657212086 L6.741835223779797,12.525954333414228 L6.5549349669170605,12.605365931294742 L6.366684972065999,12.681694741873295 L6.177129589995834,12.754922782459023 L5.98631347901857,12.825032800887156 L5.794281594467714,12.89200827958355 L5.601079178107026,12.955833439456152 L5.406751747471782,13.016493243612455 L5.211345085145055,13.073973400902137 L5.014905227971596,13.128260369283968 L4.817478456211743,13.179341359016268 L4.619111282638036,13.227204335670088 L4.419850441577056,13.271838022964477 L4.219742877899016,13.3132319054231 L4.018835735957799,13.351376230851654 L3.81717634848398,13.386262012635422 L3.614812225433467,13.417881031856478 L3.4117910427943894,13.446225839230026 L3.2081606313548736,13.471289756859417 L3.003968965434341,13.493066879809419 L2.7992641515809957,13.511552077497399 L2.5940944172381633,13.52674099490206 L2.3885080993821406,13.538630053589465 L2.182553633134243,13.547216452556093 L1.976279540349724,13.552498168888746 L1.769734418186343,13.55447395824114 " />
			<path d="M1.7697344181862829,12.323587754490326 L1.7697344181862829,13.55447395824114 " />
			<path d="M6.036603864723954,-8.622868004334823 L6.262300404153642,-8.453565533084737 L6.4838116484213995,-8.278124321679986 L6.70096706449291,-8.096679435598737 L6.913599472719375,-7.909370562318651 L7.1215451755427335,-7.716341903776836 L7.324644083520151,-7.517742065354304 L7.522739838570759,-7.313723941470357 L7.715679934349763,-7.104444597875027 L7.9033158336572376,-6.8900651507301705 L8.085503082791243,-6.670750642572287 L8.262101422757201,-6.446669915252588 L8.432974897247924,-6.217995479952113 L8.597991957311189,-5.984903384371972 L8.757025562624234,-5.747573077200952 L8.909953279297248,-5.506187269964834 L9.056657374130534,-5.26093179636378 L9.197024905252807,-5.01199546920607 L9.330947809070807,-4.759569935048355 L9.458322983463342,-4.5038495266542915 L9.579052367155652,-4.2450311133851795 L9.693043015213043,-3.983313949637787 L9.800207170595632,-3.7188995214459935 L9.90046233171914,-3.451991391364405 L9.993731315969706,-3.1827950417533324 L10.079942319123827,-2.9115177165857786 L10.159028970627677,-2.63836826189823 L10.230930384693275,-2.363556965008087 L10.295591207172105,-2.0872953926214914 L10.352961658170171,-1.809796227956225 L10.402997570371625,-1.5312731070050258 L10.445660423041502,-1.2519404540654078 L10.480917371681349,-0.9720133166626477 " />
			<path d="M-17.81532647640858,16.894841482399915 L16.163574352768045,19.312751575291266 " />
			<path d="M16.16357435276805,19.31275157529127 L17.815326476408583,18.353263443191526 " />
			<path d="M14.74778681821902,4.784752430849494 L14.483915563201915,4.744087390602518 L14.220508862239846,4.698091389726585 L13.9576680349079,4.646782120616187 L13.695494183117486,4.590179319418226 L13.434088152227378,4.528304758440488 L13.173550492253511,4.46118223777691 L12.913981419192318,4.388837576152866 L12.655480776472588,4.31129860099397 L12.398147996550623,4.228595137722223 L12.14208206266346,4.1407589982836726 L11.887381470754914,4.0478239689118976 L11.634144191589034,3.9498257971321244 L11.38246763306557,3.846802178010911 L11.132448602751994,3.7387927396567164 L10.884183270646343,3.6258390279769195 L10.637767132185385,3.5079844906971402 L10.393294971512262,3.3852744606490734 L10.150860825017675,3.257756138333164 L9.9105579451687,3.1254785737628907 L9.672478764639173,2.988492647597651 L9.436714860755435,2.8468510515715 L9.203356920271007,2.7006082682252135 L8.97249470448386,2.5498205499495405 L8.744217014709681,2.394545897347683 L8.518611658124406,2.2348440369253417 L8.295765413989109,2.0707763981168554 L8.075764000270272,1.9024060896563189 L7.858692040668336,1.7297978753027667 L7.6446330320671425,1.5530181489287713 L7.433669312416791,1.372134908981975 L7.225882029062262,1.1872177323294189 L7.021351107530053,0.998337747494773 L6.820155220784786,0.8055676072987126 L6.622371758967573,0.6089814609129416 L6.428076799627835,0.4086549253386469 L6.23734507846004,0.20466505632038867 L6.050249960556551,-0.0029096812934561456 L5.866863412187689,-0.21398944373226136 L5.687255973119882,-0.4284930390150876 L5.5114967294824755,-0.6463379581812525 L5.339653287193681,-0.8674404070274839 L5.171791745955932,-1.091715338339398 L5.00797667383061,-1.319076484604949 L4.848271082401869,-1.5494363911973172 L4.6927364025391665,-1.782706450014401 L4.541432460767858,-2.0187969335619798 L4.3944174562569,-2.2576170294674265 L4.2517479384324695,-2.4990748754107797 L4.113478785226183,-2.7430775944596677 L3.979663181966279,-2.989531330794465 L3.850352600919848,-3.2383412858099856 L3.725596781493973,-3.4894117545798427 L3.605443711103428,-3.74264616266945 L3.4899396067122925,-3.9979471032834226 L3.379128897056578,-4.255216374733143 L3.2730542055546668,-4.5143550182101375 L3.171756333912171,-4.775263355850674 L3.0752742464275507,-5.037841029076899 L2.983645055004464,-5.301987037199817 L2.896904004876644,-5.567599776269292 L2.8150844610507857,-5.834577078156116 L2.7382178954726832,-6.102816249851014 L2.6663338749215235,-6.3722141129655725 L2.5994600496370026,-6.642667043419897 L2.5376221426836363,-6.914071011301711 L2.4808439400563618,-7.186321620881519 L2.4291472815312556,-7.4593141507684635 L2.3825520522648365,-7.732943594191517 L2.3410761751452167,-8.00710469939043 L2.304735603898065,-8.281692010100873 L2.273544316949989,-8.556599906118233 L2.2475143120517274,-8.83172264392454 L2.2266556016631984,-9.106954397362792 L2.2109762091022045,-9.382189298343054 L2.200482165458265,-9.657321477564658 L2.1951775072727315,-9.932245105238938 L2.1950642749861604,-10.206854431796746 L2.2001425121534286,-10.481043828565085 L2.210410265426992,-10.754707828397235 L2.225863585308245,-11.027741166240766 L2.2464965276666895,-11.300038819627872 L2.2723011560263533,-11.571496049072282 L2.303267544618569,-11.842008438357379 L2.339383782199903,-12.111471934699981 L2.38063597663386,-12.379782888774352 L2.4270082602344747,-12.646838094580957 L2.478482795869837,-12.912534829144697 L2.5350397838231586,-13.176770892027413 L2.5966574694087505,-13.439444644639373 L2.6633121513399782,-13.70045504933459 L2.73497819084597,-13.95970170827503 L2.811628021533595,-14.21708490204871 L2.893232159990898,-14.472505628026877 L2.9797592171279117,-14.725865638445399 L3.0711759102504974,-14.977067478195853 L3.1674470758625475,-15.226014522311711 L3.268535683191656,-15.472611013135172 L3.3744028484330215,-15.716762097150426 L3.485007849706152,-15.958373861469163 L3.6003081427185446,-16.197353369954186 L3.7202593771303913,-16.433608698967383 L3.844815413613963,-16.667048972728224 L3.9739283416011286,-16.89758439826916 L4.107548497712186,-17.12512629997459 L4.245624484858945,-17.349587153690003 L4.388103192014638,-17.570880620388188 L4.534929814643087,-17.788921579379583 L4.686047875779339,-18.00362616105405 L4.841399247753577,-18.214911779141353 L5.000924174549953,-18.422697162478062 L5.164561294791769,-18.626902386268497 L5.332247665344193,-18.82744890282791 L5.503918785525389,-19.024259571795906 L5.679508621916748,-19.217258689808524 L5.85894963376265,-19.406372019617585 L6.042172798950109,-19.591526818646102 L6.229107640558167,-19.772651866968783 L6.419682253966897,-19.94967749470683 L6.6138233345155335,-20.12253560882646 L6.811456205699187,-20.291159719330985 L7.012504847893236,-20.45548496483623 L7.216891927594304,-20.615448137519497 L7.424538827166632,-20.770987707432504 L7.635365675082426,-20.922043846168915 L7.849291376644514,-21.068558449877415 L8.06623364517947,-21.21047516161135 L8.286109033689208,-21.34773939300649 L8.50883296694885,-21.48029834527842 " />
			<path d="M8.508832966948955,-21.480298345278484 L8.685071244811489,-21.580725507326044 L8.862960236893876,-21.678215838335603 L9.042458033427987,-21.77274637006657 L9.223522345619301,-21.86429483159246 L9.406110515609958,-21.95283965454779 L9.590179526528711,-22.038359978209513 L9.77568601262551,-22.120835654411653 L9.962586269488249,-22.200247252292165 L10.150836264339311,-22.27657606287072 L10.340391646409476,-22.34980410345645 L10.531207757386742,-22.41991412188458 L10.7232396419376,-22.486889600580977 L10.916442058298287,-22.55071476045358 L11.110769488933533,-22.611374564609882 L11.306176151260255,-22.668854721899564 L11.502616008433716,-22.723141690281395 L11.70004278019357,-22.774222680013693 L11.898409953767272,-22.822085656667515 L12.09767079482825,-22.866719343961904 L12.297778358506296,-22.908113226420525 L12.498685500447515,-22.94625755184908 L12.700344887921334,-22.981143333632843 L12.902709010971847,-23.012762352853905 L13.105730193610924,-23.04110716022745 L13.309360605050442,-23.066171077856843 L13.513552270970976,-23.087948200806842 L13.718257084824323,-23.106433398494822 L13.923426819167155,-23.121622315899486 L14.129013137023179,-23.133511374586888 L14.334967603271078,-23.142097773553516 L14.541241696055593,-23.14737948988617 L14.747786818219026,-23.149355279238563 " />
			<path d="M-0.11798229454575204,13.420145619747174 L3.1858524354060247,11.50097738110075 " />
			<path d="M4.011067531884858,11.021617263944758 L3.8852741353980083,11.024489325224565 L3.7668181002149117,11.02928801706909 L3.655919180165703,11.036010763429887 L3.552739649134698,11.044646430381706 L3.457396122782891,11.055175046474664 L3.3699558994770156,11.06757010578263 L3.2904351205761793,11.081804497717448 L3.2188713959195647,11.09784316300464 L3.155311157216852,11.115644522580064 L3.099813592097942,11.135160228979089 L3.052455655810788,11.156334774644193 L3.01333797477025,11.179104463637419 L2.9825916811260074,11.203393155782553 L2.960373626781931,11.22911507245435 L2.9525207978098917,11.242482980114309 L2.946874107932749,11.256170540575933 L2.943462803427547,11.270162591891797 L2.9423183390907943,11.284442727089392 " />
			<path d="M2.9423183390907943,11.284442727089393 L2.9458577818455605,11.310017763958056 L2.956610094779082,11.33631147053835 L2.974795580227387,11.363208245377422 L3.0006540207438355,11.390569567655357 L3.034432847750293,11.418228801885865 L3.0763864430895356,11.445996611773884 L3.1267731752968886,11.473659338983163 L3.1858524354060207,11.50097738110075 " />
			<path d="M4.0110675318848585,11.021617263944758 L9.132160080511927,8.046820105541682 " />
			<path d="M9.95737517699077,7.567459988385687 L9.831581785778885,7.570332049499899 L9.713125755226697,7.575130741012444 L9.60222683913989,7.581853486875756 L9.499047311387207,7.590489153166966 L9.403703787620383,7.601017768440142 L9.31626356134504,7.613412827766501 L9.236742773285856,7.627647220802915 L9.165179042773419,7.643685886777395 L9.101618801516215,7.661487247123087 L9.046121233559296,7.681002955245566 L8.998763293545007,7.702177503074441 L8.959645614055832,7.724947191998333 L8.928899322921232,7.749235883348049 L8.906681270398158,7.774957799093716 L8.898828442072306,7.7883257062448825 L8.893181752661183,7.802013266169292 L8.889770448438409,7.816005316921283 L8.888625984196704,7.830285451530319 " />
			<path d="M8.888625984196704,7.83028545153032 L8.892165426951467,7.855860488398971 L8.902917739884982,7.882154194979261 L8.921103225333287,7.909050969818336 L8.946961665849734,7.936412292096273 L8.98074049285619,7.964071526326786 L9.022694088195435,7.991839336214806 L9.073080820402792,8.019502063424087 L9.13216008051193,8.046820105541677 " />
			<path d="M9.957375176990778,7.56745998838568 L14.747786818219025,4.784752430849492 " />
			<path d="M14.747786818219025,0.8549306990491559 L14.560266259558308,0.8207046292981932 L14.37317148943249,0.782739257441893 L14.186572919979366,0.7410488715493067 L14.000540776594198,0.6956491615790217 L13.815145071500766,0.6465572134743436 L13.630455577402621,0.5937915027330689 L13.44654180122451,0.5373718874543503 L13.263472957953802,0.47731960086519365 L13.081317944591778,0.4136572433294372 L12.900145314224613,0.346408773842235 L12.720023250223791,0.2755995010132146 L12.541019540585646,0.2012560735417086 L12.363201552419683,0.12340647018765338 L12.186636206595333,0.04207998924192857 L12.011389952556653,-0.04269276249988607 L11.837528743314412,-0.1308798812562273 L11.665118010624992,-0.22244817826638297 L11.494222640365527,-0.3173631922808955 L11.324906948114432,-0.41558920253086384 L11.157234654946574,-0.5170892421712772 L10.991268863452161,-0.6218251121933065 L10.827072033988427,-0.7297573958002879 L10.664705961173008,-0.8408454732420232 L10.50423175062786,-0.9550475371018088 L10.34570979598246,-1.0723206080304664 L10.189199756144985,-1.192620550921366 L10.034760532850024,-1.3159020915204511 L9.882450248491189,-1.4421188334649608 L9.73232622424705,-1.571223275744483 L9.584444958508627,-1.703166830577688 L9.438862105616515,-1.8378998416980856 L9.29563245491567,-1.9753716030419017 L9.1548099101357,-2.115530377831064 L9.016447469104492,-2.2583234180440463 L8.880597203802772,-2.4036969842673006 L8.74731024076708,-2.551596365919818 L8.616636741848541,-2.701965901843179 L8.488625885334741,-2.854749001249335 L8.363325847441736,-3.009888165018231 L8.24078378418318,-3.1673250073373165 L8.121045813623388,-3.327000277674758 L8.004156998521065,-3.488853883078048 L7.890161329370182,-3.6528249107896587 L7.779101707844361,-3.8188516511712596 L7.6710199306510525,-3.9868716209278237 L7.56595667380158,-4.15682158662288 L7.463951477302933,-4.328637588476071 L7.365042730277095,-4.50225496443409 L7.269267656513479,-4.677608374505932 L7.1766623004599595,-4.854631825353233 L7.087261513657753,-5.03325869512651 L7.001098941625196,-5.213421758537951 L6.918207011195438,-5.395053212161327 L6.838616918312773,-5.578084699949434 L6.762358616292218,-5.762447338959518 L6.68946080454673,-5.948071745277031 L6.619950917786333,-6.134888060127915 L6.553855115693203,-6.322825976169572 L6.491198273076625,-6.511814763950649 L6.432003970511479,-6.70178329852971 L6.3762944854638075,-6.892660086242759 L6.324090783906813,-7.08437329160948 L6.275412512430432,-7.276850764368136 L6.230277990847432,-7.4700200666289565 L6.188704205298851,-7.663808500135772 L6.1507068018613555,-7.858143133625611 L6.116300080658906,-8.052950830275975 L6.085496990481007,-8.248158275229528 L6.058309123909467,-8.443692003185758 L6.034746712955618,-8.639478426049262 L6.0148186252095375,-8.83544386062421 L5.998532360502775,-9.031514556344646 L5.985894048085836,-9.22761672303016 L5.9769084443214755,-9.423676558656402 L5.971578930894649,-9.619620277130078 L5.969907513539852,-9.81537413605798 L5.9718948212862575,-10.010864464499559 L5.977540106220999,-10.206017690692589 L5.986841243770627,-10.400760369741494 L5.999794733500691,-10.595019211257968 L6.016395700433103,-10.788721106943443 L6.036637896880828,-10.981793158103006 L6.060513704799147,-11.17416270308041 L6.088014138652669,-11.365757344603944 L6.119128848797013,-11.556504977032766 L6.153846125373816,-11.746333813493477 L6.192152902717691,-11.935172412896721 L6.2340347642734155,-12.122949706823672 L6.27947594802154,-12.309595026272286 L6.328459352410324,-12.495038128253189 L6.380966542791823,-12.679209222225246 L6.436977758359669,-12.86203899636088 L6.4964719195859555,-13.043458643631233 L6.559426636154406,-13.223399887701316 L6.625818215386834,-13.401795008625424 L6.695621671159779,-13.57857686833322 L6.768810733307896,-13.753678935896797 L6.845357857510605,-13.927035312569226 L6.925234235658227,-14.098580756585202 L7.008409806693782,-14.268250707714449 L7.094853267926325,-14.435981311558635 L7.184532086811519,-14.60170944358264 L7.2774125131951095,-14.765372732871116 L7.373459592014601,-14.926909585601475 L7.472637176454441,-15.086259208224416 L7.574907941549659,-15.243361630343244 L7.680233398232923,-15.398157727283406 L7.788573907819705,-15.550589242343758 L7.899888696926103,-15.700598808721185 L8.014135872813682,-15.848129971100295 L8.131272439155568,-15.993127206900052 L8.251254312217917,-16.13553594716943 L8.374036337450589,-16.27530259712417 L8.499572306480836,-16.41237455631688 L8.627814974503556,-16.546700238432916 L8.758716078061642,-16.67822909070464 L8.892226353209697,-16.806911612936723 L9.028295554054246,-16.93269937613523 L9.166872471663506,-17.055545040733648 L9.307904953339616,-17.17540237440887 L9.451339922246028,-17.2922262694805 L9.597123397382708,-17.405972759886915 L9.745200513901569,-17.516599037731588 L9.895515543754595,-17.624063469393693 L10.048011916666809,-17.728325611196667 L10.202632241426183,-17.82934622462898 L10.35931832748252,-17.92708729111135 L10.518011206847085,-18.02151202630475 " />
			<path d="M10.51801120684716,-18.021512026304798 L10.637877202358638,-18.08988933958973 L10.758805380709243,-18.15638037164804 L10.880770325647871,-18.220971147632916 L11.00374640301953,-18.283648092086565 L11.127707766153042,-18.344398031793435 L11.25262836129339,-18.40320819854894 L11.37848193307762,-18.460066231843015 L11.505242030053086,-18.514960181458 L11.632882010236932,-18.567878509980318 L11.761375046715592,-18.618810095225342 L11.8906941332832,-18.667744232575032 L12.02081209011763,-18.71467063722778 L12.151701569493074,-18.759579446360057 L12.283335061527882,-18.8024612211993 L12.41568489996648,-18.84330694900779 L12.548723267994191,-18.88210804497683 L12.682422204083641,-18.91885635403115 L12.816753607871636,-18.953544152542857 L12.95168924606519,-18.98616414995479 L13.087200758375488,-19.016709490312795 L13.223259663478562,-19.045173753706727 L13.35983736500139,-19.07155095761972 L13.496905157532172,-19.09583555818559 L13.634434232653543,-19.118022451354037 L13.772395684997415,-19.138106973963374 L13.9107605183202,-19.156084904720615 L14.04949965159715,-19.171952465088715 L14.188583925134486,-19.185706320080712 L14.327984106698091,-19.19734357896065 L14.46767089765743,-19.206861795851168 L14.60761493914343,-19.214258970247563 L14.747786818219023,-19.21953354743822 " />
			<path d="M9.957375176990748,-16.43682598990202 L14.747786818219026,-19.219533547438225 " />
			<path d="M9.95737517699077,-16.43682598990203 L9.831765578838436,-16.416364910041178 L9.713450125857532,-16.394201506443277 L9.602647833774446,-16.3707671431867 L9.499521627818226,-16.346444552242822 L9.404190274730006,-16.32156992188459 L9.316726173009846,-16.29643155620948 L9.237156056355243,-16.271267555834466 L9.165526878386933,-16.246285367777983 L9.101893703964613,-16.22166092231967 L9.046323384270844,-16.19754099178224 L8.998899258935758,-16.174045822294477 L8.959726767475649,-16.151272315121442 L8.928940035400913,-16.129298219945696 L8.906696474392,-16.108178992746673 L8.893184663067206,-16.087952013106836 L8.889771048925526,-16.078180124328448 L8.88862598205147,-16.06863761217661 " />
			<path d="M8.888625982051472,-16.068637612176605 L8.892171607055365,-16.0525100234986 L8.902939242393257,-16.037074674122174 L8.921143403942262,-16.022312355468568 L8.947017941780674,-16.008197568623956 L8.980805079486537,-15.994699505577536 L9.022754587260911,-15.981778351991855 L9.073120907659414,-15.969385796201081 L9.132160080511932,-15.957465872746038 " />
			<path d="M7.381899792003781,-14.940755222961808 L9.132160080511957,-15.95746587274605 " />
			<path d="M3.1858524354060256,11.50097738110075 L3.1858524354060256,11.106592231206019 " />
			<path d="M1.7697344181862829,13.55447395824114 L5.07356914813806,11.635305719594715 " />
			<path d="M5.073569148138057,11.635305719594715 L5.199337214612523,11.617703206907493 L5.317794292217257,11.59836211452669 L5.428681859238622,11.577651783957634 L5.531828992945132,11.555898529313595 L5.627159095361518,11.533379381819033 L5.714616331616569,11.510335092087733 L5.794154742245949,11.486973940774847 L5.865731378792447,11.46347469985572 L5.929299551364097,11.439989433266645 L5.984802199488038,11.416646134644397 L6.032165386260152,11.393551202164513 L6.071289673994787,11.370793191832643 L6.102039288925493,11.348450765565543 L6.124259765958401,11.326582401557994 L6.137761530198331,11.305234329274239 L6.141173595420625,11.29476707489377 L6.142318334792022,11.28444270067447 " />
			<path d="M6.142318334792023,11.284442700674472 L6.138777156337082,11.266762643306294 L6.12801980056873,11.24953969412047 L6.109830927669188,11.232781198657907 L6.083976326398488,11.216489777469222 L6.050203104728382,11.200663336928047 L6.008247283909566,11.185298215497653 L5.957855971059522,11.170393443828653 L5.898784244616896,11.155945602438722 " />
			<path d="M5.898784244616893,11.155945602438724 L11.019876793243963,8.181148444035648 " />
			<path d="M11.01987679324397,8.181148444035642 L11.145644859718375,8.163545931348429 L11.26410193732306,8.144204838967637 L11.374989504344379,8.123494508398593 L11.47813663805088,8.101741253754561 L11.57346674046731,8.079222106259992 L11.660923976722426,8.056177816528677 L11.740462387351865,8.032816665215774 L11.812039023898413,8.00931742429663 L11.875607196470094,7.98583215770754 L11.931109844594046,7.962488859085282 L11.978473031366148,7.939393926605397 L12.01759731910076,7.916635916273532 L12.048346934031443,7.894293490006438 L12.070567411064332,7.872425125998899 L12.084069175304247,7.851077053715155 L12.087481240526538,7.840609799334692 L12.088625979897932,7.830285425115399 " />
			<path d="M12.088625979897934,7.830285425115398 L12.085084801442994,7.812605367747226 L12.074327445674646,7.795382418561405 L12.05613857277511,7.778623923098844 L12.03028397150441,7.7623325019101586 L11.9965107498343,7.7465060613689785 L11.954554929015483,7.731140939938584 L11.904163616165436,7.716236168269582 L11.845091889722806,7.70178832687965 " />
			<path d="M11.845091889722815,7.701788326879646 L16.63550353095106,4.9190807693434575 " />
			<path d="M16.63550353095106,4.919080769343459 L16.842048653114507,4.917104979991066 L17.048322745899014,4.9118232636584125 L17.254277212146906,4.9032368646917845 L17.459863530002934,4.891347806004379 L17.665033264345773,4.87615888859972 L17.869738078199113,4.85767369091174 L18.07392974411964,4.835896567961736 L18.27756015555916,4.8108326503323475 L18.480581338198242,4.782487842958799 L18.68294546124875,4.750868823737743 L18.884604848722564,4.715983041953976 L19.085511990663786,4.677838716525422 L19.285619554341835,4.636444834066799 L19.48488039540282,4.591811146772407 L19.683247568976526,4.543948170118588 L19.880674340736373,4.492867180386291 L20.077114197909825,4.438580212004458 L20.272520860236554,4.3811000547147785 L20.466848290871802,4.320440250558473 L20.660050707232497,4.2566150906858695 L20.852082591783358,4.189639611989472 L21.042898702760617,4.119529593561342 L21.232454084830774,4.046301552975617 L21.420704079681844,3.9699727423970597 L21.607604336544586,3.890561144516546 L21.793110822641378,3.808085468314406 L21.977179833560125,3.722565144652691 L22.159768003550784,3.634020321697353 L22.340832315742105,3.5424718601714638 L22.52033011227621,3.447941328440498 L22.69821910435859,3.3504509974309453 L22.874457382221028,3.2500238353834394 " />
			<path d="M22.87445738222113,3.250023835383379 L23.09718131548088,3.117464883111383 L23.317056703990612,2.9802006517162454 L23.533998972525563,2.838283939982313 L23.747924674087656,2.691769336273815 L23.958751522003453,2.5407131975374 L24.166398421575778,2.385173627624395 L24.370785501276842,2.2252104549411325 L24.571834143470895,2.0608852094358863 L24.769467014654552,1.8922610989313586 L24.963608095203185,1.7194029848117314 L25.15418270861191,1.542377357073688 L25.34111755021997,1.361252308751002 L25.524340715407433,1.1760975097224815 L25.703781727253336,0.986984179913426 L25.87937156364469,0.7939850619008109 L26.05104268382589,0.5971743929328124 L26.218729054378315,0.3966278763733957 L26.38236617462013,0.19242265258296598 L26.541891101416503,-0.015362730753736287 L26.697242473390737,-0.22664834884104934 L26.848360534526996,-0.44135293051551727 L26.995187157155442,-0.6593938895069105 L27.13766586431113,-0.8806873562050885 L27.275741851457894,-1.1051482099205039 L27.40936200756896,-1.332690111625939 L27.538474935556117,-1.563225537166872 L27.663030972039685,-1.7966658109277063 L27.782982206451535,-2.0329211399409086 L27.89828249946393,-2.2719006484259365 L28.008887500737067,-2.5135124127446815 L28.11475466597843,-2.7576634967599407 L28.215843273307534,-3.004259987583394 L28.312114438919586,-3.2532070316992447 L28.403531132042175,-3.504408871449706 L28.490058189179187,-3.757768881868232 L28.571662327636496,-4.013189607846404 L28.64831215832412,-4.270572801620089 L28.71997819783011,-4.529819460560523 L28.786632879761335,-4.790829865255737 L28.84825056534693,-5.053503617867701 L28.90480755330025,-5.317739680750424 L28.956282088935616,-5.583436415314161 L29.002654372536227,-5.850491621120757 L29.043906566970186,-6.118802575195131 L29.08002280455152,-6.38826607153774 L29.11098919314373,-6.65877846082283 L29.136793821503396,-6.930235690267234 L29.157426763861842,-7.202533343654344 L29.172880083743095,-7.475566681497884 L29.183147837016655,-7.749230681330027 L29.188226074183923,-8.023420078098361 L29.18811284189735,-8.298029404656177 L29.18280818371182,-8.57295303233046 L29.17231414006788,-8.848085211552059 L29.156634747506885,-9.123320112532314 L29.135776037118358,-9.398551865970575 L29.109746032220094,-9.673674603776888 L29.07855474527202,-9.948582499794242 L29.04221417402487,-10.223169810504677 L29.000738296905247,-10.497330915703596 L28.954143067638825,-10.770960359126656 L28.902446409113722,-11.043952889013593 L28.84566820648645,-11.316203498593396 L28.78383029953308,-11.587607466475212 L28.716956474248562,-11.858060396929538 L28.645072453697402,-12.127458260044092 L28.568205888119298,-12.395697431738984 L28.48638634429344,-12.662674733625813 L28.39964529416562,-12.928287472695295 L28.308016102742535,-13.192433480818206 L28.211534015257914,-13.455011154044426 L28.110236143615417,-13.715919491684968 L28.004161452113504,-13.97505813516197 L27.89335074245779,-14.232327406611683 L27.77784663806666,-14.487628347225652 L27.657693567676112,-14.740862755315263 L27.532937748250234,-14.991933224085127 L27.403627167203805,-15.24074317910064 L27.269811563943904,-15.487196915435433 L27.131542410737616,-15.731199634484327 L26.98887289291318,-15.972657480427685 L26.841857888402224,-16.211477576333127 L26.69055394663092,-16.4475680598807 L26.535019266768217,-16.68083811869779 L26.37531367533947,-16.91119802529016 L26.211498603214153,-17.13855917155571 L26.04363706197641,-17.362834102867616 L25.871793619687608,-17.58393655171385 L25.6960343760502,-17.80178147088002 L25.5164269369824,-18.01628506616284 L25.33304038861354,-18.22736482860164 L25.145945270710047,-18.43493956621549 L24.95521354954225,-18.638929435233756 L24.760918590202504,-18.83925597080805 L24.56313512838529,-19.035842117193827 L24.361939241640023,-19.228612257389884 L24.15740832010782,-19.417492242224526 L23.949621036753285,-19.602409418877084 L23.738657317102934,-19.783292658823886 L23.524598308501744,-19.960072385197876 L23.307526348899813,-20.132680599551424 L23.08752493518097,-20.301050908011966 L22.86467869104567,-20.465118546820456 L22.6390733344604,-20.624820407242794 L22.410795644686225,-20.780095059844648 L22.17993342889907,-20.93088277812032 L21.946575488414638,-21.07712556146661 L21.710811584530905,-21.21876715749276 L21.472732404001384,-21.355753083657994 L21.2324295241524,-21.488030648228275 L20.98999537765781,-21.615548970544182 L20.745523216984694,-21.738259000592247 L20.499107078523743,-21.856113537872023 L20.250841746418082,-21.969067249551824 L20.0008227161045,-22.07707668790602 L19.749146157581045,-22.18010030702723 L19.49590887841516,-22.278098478807003 L19.241208286506616,-22.37103350817878 L18.985142352619455,-22.45886964761733 L18.72780957269749,-22.541573110889075 L18.469308929977757,-22.619112086047977 L18.209739856916563,-22.691456747672017 L17.9492021969427,-22.758579268335595 L17.687796166052593,-22.82045382931333 L17.425622314262174,-22.877056630511294 L17.16278148693023,-22.92836589962169 L16.899374785968163,-22.974361900497623 L16.635503530951116,-23.01502694074459 " />
			<path d="M14.747786818219026,-21.91846907548775 L16.63550353095106,-23.015026940744598 " />
			<path d="M5.07356914813806,11.635305719594715 L5.07356914813806,10.404419515843902 " />
			<path d="M14.747786818219025,2.085816902799965 L16.635503530951063,0.9892590375431158 " />
			<path d="M16.635503530951055,0.9892590375431176 L16.775675410026647,0.9839844603524579 L16.91561945151265,0.976587285956068 L17.055306242471993,0.9670690690655448 L17.194706424035598,0.9554318101856065 L17.333790697572937,0.9416779551936152 L17.47252983084988,0.925810394825513 L17.61089466417266,0.9078324640682691 L17.74885611651653,0.8877479414589367 L17.886385191637906,0.8655610482904912 L18.023452984168692,0.8412764477246171 L18.16003068569152,0.8148992438116238 L18.29608959079459,0.7864349804176953 L18.43160110310488,0.7558896400596851 L18.566536741298435,0.7232696426477556 L18.700868145086435,0.6885818441360492 L18.83456708117589,0.6518335350817317 L18.9676054492036,0.6130324391126862 L19.099955287642203,0.5721867113042016 L19.23158877967701,0.5293049364649516 L19.362478259052452,0.4843961273326798 L19.492596215886874,0.437469722679932 L19.621915302454482,0.38853558533024035 L19.75040833893315,0.3376040000852143 L19.878048319116992,0.28468567156289737 L20.004808416092462,0.2297917219479082 L20.130661987876685,0.17293368865384018 L20.25558258301703,0.11412352189833896 L20.379543946150545,0.053373582191465374 L20.502520023522205,-0.009303362262182091 L20.624484968460838,-0.07389413824705748 L20.745413146811444,-0.14038517030536823 L20.86527914232284,-0.2087624835902595 " />
			<path d="M20.86527914232292,-0.20876248359030392 L21.02397202168756,-0.303187218783755 L21.180658107743895,-0.4009282852661169 L21.335278432503266,-0.50194889869843 L21.48777480541548,-0.606211040501405 L21.63808983526851,-0.7136754721635121 L21.78616695178737,-0.8243017500081837 L21.931950426924047,-0.9380482404145898 L22.075385395830466,-1.0548721354862263 L22.216417877506576,-1.1747294691614512 L22.354994795115836,-1.2975751337598656 L22.49106399596038,-1.4233628969583707 L22.624574271108436,-1.5520454191904562 L22.755475374666524,-1.6835742714621862 L22.883718042689242,-1.817899953578216 L23.009254011719488,-1.9549719127709206 L23.132036036952165,-2.0947385627256674 L23.252017910014516,-2.2371473029950497 L23.3691544763564,-2.3821445387948037 L23.483401652243977,-2.5296757011739075 L23.594716441350375,-2.6796852675513394 L23.70305695093716,-2.8321167826116946 L23.80838240762042,-2.986912879551852 L23.91065317271564,-3.144015301670679 L24.00983075715548,-3.303364924293623 L24.105877835974972,-3.4649017770239867 L24.198758262358563,-3.628565066312458 L24.288437081243757,-3.794293198336459 L24.374880542476298,-3.962023802180651 L24.45805611351186,-4.131693753309899 L24.537932491659475,-4.303239197325872 L24.614479615862187,-4.4765955739982966 L24.687668678010304,-4.651697641561878 L24.757472133783253,-4.828479501269678 L24.823863713015676,-5.006874622193786 L24.886818429584125,-5.1868158662638635 L24.946312590810415,-5.368235513534219 L25.002323806378264,-5.551065287669858 L25.05483099675976,-5.735236381641911 L25.103814401148544,-5.92067948362281 L25.149255584896668,-6.107324803071427 L25.191137446452394,-6.295102096998381 L25.22944422379627,-6.483940696401621 L25.26416150037307,-6.673769532862329 L25.295276210517414,-6.864517165291158 L25.32277664437094,-7.056111806814695 L25.346652452289256,-7.248481351792097 L25.36689464873698,-7.441553402951653 L25.383495615669396,-7.635255298637134 L25.39644910539946,-7.829514140153611 L25.405750242949082,-8.024256819202513 L25.411395527883826,-8.21941004539554 L25.41338283563023,-8.414900373837122 L25.411711418275438,-8.610654232765027 L25.406381904848608,-8.8065979512387 L25.39739630108425,-9.002657786864937 L25.38475798866731,-9.198759953550454 L25.36847172396055,-9.394830649270897 L25.348543636214465,-9.59079608384584 L25.32498122526062,-9.786582506709339 L25.297793358689077,-9.982116234665575 L25.26699026851118,-10.17732367961913 L25.23258354730873,-10.37213137626949 L25.194586143871234,-10.566466009759324 L25.153012358322655,-10.760254443266147 L25.107877836739654,-10.953423745526973 L25.05919956526327,-11.145901218285625 L25.00699586370628,-11.337614423652344 L24.951286378658608,-11.528491211365395 L24.89209207609346,-11.718459745944461 L24.82943523347688,-11.907448533725534 L24.763339431383756,-12.095386449767187 L24.693829544623355,-12.282202764618074 L24.620931732877864,-12.467827170935593 L24.54467343085731,-12.652189809945671 L24.465083337974647,-12.835221297733774 L24.382191407544887,-13.016852751357154 L24.29602883551233,-13.1970158147686 L24.206628048710122,-13.375642684541873 L24.114022692656604,-13.55266613538917 L24.01824761889299,-13.728019545461017 L23.919338871867147,-13.901636921419037 L23.817333675368502,-14.073452923272225 L23.712270418519033,-14.243402888967278 L23.604188641325724,-14.411422858723846 L23.493129019799902,-14.57744959910545 L23.37913335064902,-14.741420626817057 L23.2622445355467,-14.903274232220344 L23.142506564986903,-15.06294950255779 L23.019964501728346,-15.220386344876882 L22.89466446383534,-15.375525508645772 L22.766653607321544,-15.528308608051926 L22.635980108403004,-15.67867814397529 L22.502693145367306,-15.826577525627812 L22.36684288006559,-15.97195109185106 L22.228480439034385,-16.11474413206404 L22.08765789425441,-16.254902906853204 L21.94442824355356,-16.392374668197025 L21.798845390661455,-16.527107679317417 L21.650964124923036,-16.659051234150624 L21.500840100678893,-16.788155676430147 L21.348529816320053,-16.91437241837466 L21.194090593025095,-17.037653958973742 L21.037580553187624,-17.157953901864637 L20.87905859854222,-17.2752269727933 L20.71858438799707,-17.389429036653087 L20.556218315181653,-17.50051711409482 L20.39202148571792,-17.608449397701797 L20.226055694223508,-17.71318526772383 L20.058383401055647,-17.814685307364243 L19.889067708804554,-17.91291131761421 L19.71817233854509,-18.00782633162872 L19.54576160585567,-18.09939462863888 L19.371900396613423,-18.18758174739522 L19.196654142574747,-18.272354499137034 L19.0200887967504,-18.353680980082757 L18.842270808584434,-18.431530583436814 L18.66326709894628,-18.50587401090832 L18.483145034945466,-18.576683283737342 L18.301972404578304,-18.643931753224543 L18.11981739121628,-18.707594110760297 L17.936748547945573,-18.767646397349456 L17.752834771767464,-18.824066012628172 L17.568145277669323,-18.876831723369445 L17.38274957257589,-18.925923671474127 L17.196717429190723,-18.971323381444407 L17.0101188597376,-19.013013767337 L16.823024089611778,-19.050979139193295 L16.6355035309511,-19.085205208944252 " />
			<path d="M11.845091889722784,-16.302497651408054 L16.635503530951063,-19.08520520894426 " />
			<path d="M11.845091889722804,-16.302497651408064 L11.90412534886561,-16.272683774750213 L11.954496744351328,-16.242532442520766 L11.996448752109451,-16.212337158090875 L12.030230725580992,-16.182359635763177 L12.056101153117929,-16.15282147287314 L12.074307594317608,-16.1239135489018 L12.085079067791542,-16.0958035076304 L12.088625978266053,-16.06863760424553 " />
			<path d="M12.088625978266052,-16.068637604245534 L12.087480739453255,-16.05356924003841 L12.084066644778808,-16.03887287312025 L12.078414623671563,-16.024567837183692 L12.070553493159316,-16.010671798854666 L12.04830848319683,-15.984169659234242 L12.017519101517214,-15.959478266754621 L11.978340376923633,-15.936690318192019 L11.930911567108767,-15.915886726345933 L11.875337628594021,-15.897125813787774 L11.81169932582824,-15.880451609031082 L11.74006134418146,-15.865895392214039 L11.660478306874756,-15.853475562921936 L11.573000913917056,-15.843197363804528 L11.477682203048891,-15.83505245998829 L11.374583921604076,-15.829018373856963 L11.26378854849788,-15.825058240969339 L11.145467896324973,-15.823121099368235 L11.019876793243977,-15.823137534252071 " />
			<path d="M6.563410567817447,-13.234415901507466 L11.019876793243993,-15.823137534252085 " />
			<path d="M14.747786818219025,0.8549306990491523 L14.747786818219025,4.784752430849494 " />
			<path d="M14.747786818219025,-23.149355279238563 L14.747786818219025,-19.21953354743822 " />
			<path d="M9.132160080511936,-15.957465872746035 L9.132160080511936,-16.233706837038973 " />
			<path d="M9.132160080511934,8.04682010554168 L9.132160080511934,7.652434955364631 " />
			<path d="M5.898784244616893,11.155945602438724 L5.898784244616893,9.92505939868791 " />
			<path d="M11.01987679324397,8.181148444035646 L11.01987679324397,6.95026224028483 " />
			<path d="M11.845091889722806,7.70178832687965 L11.845091889722806,6.470902123128837 " />
			<path d="M16.63550353095106,0.9892590375431176 L16.63550353095106,4.919080769343459 " />
			<path d="M16.63550353095106,-23.015026940744598 L16.63550353095106,-19.085205208944256 " />
			<path d="M11.845091889722807,-16.302497651408064 L11.845091889722807,-17.53338385515888 " />
			<path d="M11.019876793243972,-15.82313753425207 L11.019876793243972,-17.054023738002883 " />
			<path d="M-6.356936145815824,-12.8449051563808 L8.508832966948955,-21.480298345278484 " />
			<path d="M8.008688269456353,11.885417024281058 L22.87445738222113,3.2500238353833755 " />

       </g>
    </g>
    <g transform="translate(20,210.0)" stroke="rgb(0,0,255)">
        <line x1="30" y1="-30" x2="75" y2="-33" stroke-width="3" stroke="#000000" />
         <text x="80" y="-30" style="stroke:#000000">X </text>

        <line x1="30" y1="-30" x2="30" y2="-75" stroke-width="3" stroke="#000000" />
         <text x="25" y="-85" style="stroke:#000000">Y </text>

        <line x1="30" y1="-30" x2="58" y2="-15" stroke-width="3" stroke="#000000" />
         <text x="65" y="-5" style="stroke:#000000">Z </text>
        <!--
            <line x1="0" y1="0" x2="4.239073690258911" y2="0" stroke-width="3" />
            <text x="0" y="20" style="stroke:#000000">1  mm </text>
        -->
    </g>
</svg>
