<?xml version='1.0' encoding='utf-8'?>
<svg width="51.001688mm" height="61.417903mm" viewBox="-25.500844 -22.273071 51.001688 61.417903" version="1.1" xmlns="http://www.w3.org/2000/svg">
  <g transform="scale(1,-1)" stroke-linecap="round">
    <g fill="none" stroke="rgb(0,0,0)" stroke-width="0.09">
      <path d="M -25.455844,1.443362 L -25.455844,-1.443362 L 0.0,19.341348 L 0.0,22.228071 L -25.455844,1.443362" />
      <path d="M -25.455844,1.443362 L -0.0,-19.341348 L -0.0,-22.228071 L -25.455844,-1.443362 L -25.455844,1.443362" />
      <path d="M 0.0,19.341348 L -25.455844,-1.443362 L -0.0,-22.228071 L 25.455844,-1.443362 L 0.0,19.341348 M -10.793979,-9.101945 A 14.3,14.3 -45.00000000000001 0,0 9.379766,7.369928 L 6.541686,5.052634 A 10.3,10.3 -45.00000000000001 0,1 -7.9559,-6.784652 L -10.793979,-9.101945 M 10.793979,6.215222 A 14.3,14.3 -130.990029322569 0,0 -9.379766,-10.256651 L -6.541686,-7.939358 A 10.3,10.3 -129.42852672357012 0,1 7.9559,3.897928 L 10.793979,6.215222" />
      <path d="M 25.455844,1.443362 L 0.0,22.228071 L 0.0,19.341348 L 25.455844,-1.443362 L 25.455844,1.443362" />
      <path d="M -25.455844,1.443362 L 0.0,22.228071 L 25.455844,1.443362 L -0.0,-19.341348 L -25.455844,1.443362" />
      <path d="M -0.0,-22.228071 L -0.0,-19.341348 L 25.455844,1.443362 L 25.455844,-1.443362 L -0.0,-22.228071" />
      <path d="M -10.793979,-35.082458 A 14.3,14.3 -45.00000000000001 0,0 9.379766,-18.610584 L 9.379766,-10.238508 C 9.068571,-9.827035 8.916677,-9.464389 8.916763,-9.202623 C 8.916677,-8.942842 9.068571,-8.768505 9.379766,-8.796302 L 9.379766,0.153697 C 9.068571,0.56517 8.916677,0.927815 8.916763,1.189582 C 8.916677,1.449363 9.068571,1.6237 9.379766,1.595903 L 9.379766,7.369928 A 14.3,14.3 -45.00000000000001 0,1 -10.793979,-9.101945 L -10.793979,-14.87597 C -11.062975,-14.813718 -11.17829,-14.958187 -11.179505,-15.219032 C -11.17829,-15.479735 -11.062975,-15.872248 -10.793979,-16.318177 L -10.793979,-25.268175 C -11.062975,-25.205923 -11.17829,-25.350392 -11.179505,-25.611236 C -11.17829,-25.87194 -11.062975,-26.264453 -10.793979,-26.710382 L -10.793979,-35.082458" />
      <path d="M -10.793979,-14.87597 L -10.793979,-9.101945 L -7.9559,-6.784652 L -7.9559,-12.558677 L -10.793979,-14.87597" />
      <path d="M 6.541686,-20.927878 A 10.3,10.3 -45.00000000000001 0,1 -7.9559,-32.765164 L -7.9559,-24.393088 C -8.21627,-23.941134 -8.324707,-23.542309 -8.326161,-23.281479 C -8.324707,-23.020062 -8.21627,-22.881935 -7.9559,-22.950882 L -7.9559,-14.000883 C -8.21627,-13.548929 -8.324707,-13.150105 -8.326161,-12.889274 C -8.324707,-12.627857 -8.21627,-12.48973 -7.9559,-12.558677 L -7.9559,-6.784652 A 10.3,10.3 -45.00000000000001 0,0 6.541686,5.052634 L 6.541686,-0.72139 C 6.222702,-0.700302 6.063059,-0.880239 6.063419,-1.140175 C 6.063059,-1.402486 6.222702,-1.759501 6.541686,-2.163597 L 6.541686,-11.113595 C 6.222702,-11.092507 6.063059,-11.272443 6.063419,-11.53238 C 6.063059,-11.794691 6.222702,-12.151705 6.541686,-12.555802 L 6.541686,-20.927878" />
      <path d="M 6.541686,-0.72139 L 6.541686,5.052634 L 9.379766,7.369928 L 9.379766,1.595903 L 6.541686,-0.72139" />
      <path d="M -9.379766,-16.030676 L -9.379766,-10.256651 A 14.3,14.3 -130.990029322569 0,1 10.793979,6.215222 L 10.793979,0.441197 C 11.062929,-0.004637 11.17829,-0.397209 11.179505,-0.657948 C 11.17829,-0.918828 11.062929,-1.063266 10.793979,-1.00101 L 10.793979,-9.951008 C 11.062929,-10.396842 11.17829,-10.789414 11.179505,-11.050153 C 11.17829,-11.311033 11.062929,-11.455471 10.793979,-11.393214 L 10.793979,-19.76529 A 14.3,14.3 40.99002932256897 0,0 -9.379766,-36.237164 L -9.379766,-27.865088 C -9.068626,-27.892896 -8.916677,-27.718584 -8.916763,-27.458766 C -8.916677,-27.196965 -9.068627,-26.834267 -9.379766,-26.422881 L -9.379766,-17.472883 C -9.068626,-17.500691 -8.916677,-17.326379 -8.916763,-17.066561 C -8.916677,-16.80476 -9.068627,-16.442062 -9.379766,-16.030676" />
      <path d="M 7.9559,3.897928 L 7.9559,-1.876096 L 10.793979,0.441197 L 10.793979,6.215222 L 7.9559,3.897928" />
      <path d="M -6.541686,-7.939358 L -6.541686,-13.713383 C -6.222739,-14.117426 -6.063063,-14.47446 -6.063419,-14.736804 C -6.063063,-14.996771 -6.222739,-15.176685 -6.541686,-15.155589 L -6.541686,-24.105588 C -6.222739,-24.509631 -6.063063,-24.866664 -6.063419,-25.129009 C -6.063063,-25.388976 -6.222739,-25.568889 -6.541686,-25.547794 L -6.541686,-33.91987 A 10.3,10.3 39.42852672357009 0,1 7.9559,-22.082584 L 7.9559,-13.710508 C 8.216242,-13.779455 8.324705,-13.641356 8.326161,-13.37991 C 8.324705,-13.119045 8.216242,-12.720196 7.9559,-12.268301 L 7.9559,-3.318303 C 8.216242,-3.38725 8.324705,-3.249151 8.326161,-2.987705 C 8.324705,-2.72684 8.216242,-2.327991 7.9559,-1.876096 L 7.9559,3.897928 A 10.3,10.3 -129.42852672357012 0,0 -6.541686,-7.939358" />
      <path d="M -9.379766,-10.256651 L -9.379766,-16.030676 L -6.541686,-13.713383 L -6.541686,-7.939358 L -9.379766,-10.256651" />
      <path d="M 6.541686,-20.927878 L 9.379766,-18.610584 A 14.3,14.3 -45.00000000000001 0,1 -10.793979,-35.082458 L -7.9559,-32.765164 A 10.3,10.3 -45.00000000000001 0,0 6.541686,-20.927878" />
      <path d="M -10.793979,-35.082458 L -10.793979,-26.710382 L -7.9559,-24.393088 L -7.9559,-32.765164 L -10.793979,-35.082458" />
      <path d="M -10.793979,-26.710382 C -11.062975,-26.264453 -11.17829,-25.87194 -11.179505,-25.611236 C -11.17829,-25.350392 -11.062975,-25.205923 -10.793979,-25.268175 L -7.9559,-22.950882 C -8.21627,-22.881935 -8.324707,-23.020062 -8.326161,-23.281479 C -8.324707,-23.542309 -8.21627,-23.941134 -7.9559,-24.393088 L -10.793979,-26.710382" />
      <path d="M -10.793979,-25.268175 L -10.793979,-16.318177 L -7.9559,-14.000883 L -7.9559,-22.950882 L -10.793979,-25.268175" />
      <path d="M -10.793979,-16.318177 C -11.062975,-15.872248 -11.17829,-15.479735 -11.179505,-15.219032 C -11.17829,-14.958187 -11.062975,-14.813718 -10.793979,-14.87597 L -7.9559,-12.558677 C -8.21627,-12.48973 -8.324707,-12.627857 -8.326161,-12.889274 C -8.324707,-13.150105 -8.21627,-13.548929 -7.9559,-14.000883 L -10.793979,-16.318177" />
      <path d="M 9.379766,0.153697 L 6.541686,-2.163597 C 6.222702,-1.759501 6.063059,-1.402486 6.063419,-1.140175 C 6.063059,-0.880239 6.222702,-0.700302 6.541686,-0.72139 L 9.379766,1.595903 C 9.068571,1.6237 8.916677,1.449363 8.916763,1.189582 C 8.916677,0.927815 9.068571,0.56517 9.379766,0.153697" />
      <path d="M 6.541686,-11.113595 L 6.541686,-2.163597 L 9.379766,0.153697 L 9.379766,-8.796302 L 6.541686,-11.113595" />
      <path d="M 9.379766,-10.238508 L 6.541686,-12.555802 C 6.222702,-12.151705 6.063059,-11.794691 6.063419,-11.53238 C 6.063059,-11.272443 6.222702,-11.092507 6.541686,-11.113595 L 9.379766,-8.796302 C 9.068571,-8.768505 8.916677,-8.942842 8.916763,-9.202623 C 8.916677,-9.464389 9.068571,-9.827035 9.379766,-10.238508" />
      <path d="M 6.541686,-20.927878 L 6.541686,-12.555802 L 9.379766,-10.238508 L 9.379766,-18.610584 L 6.541686,-20.927878" />
      <path d="M 7.9559,-1.876096 C 8.216242,-2.327991 8.324705,-2.72684 8.326161,-2.987705 C 8.324705,-3.249151 8.216242,-3.38725 7.9559,-3.318303 L 10.793979,-1.00101 C 11.062929,-1.063266 11.17829,-0.918828 11.179505,-0.657948 C 11.17829,-0.397209 11.062929,-0.004637 10.793979,0.441197 L 7.9559,-1.876096" />
      <path d="M 7.9559,-3.318303 L 7.9559,-12.268301 L 10.793979,-9.951008 L 10.793979,-1.00101 L 7.9559,-3.318303" />
      <path d="M 7.9559,-12.268301 C 8.216242,-12.720196 8.324705,-13.119045 8.326161,-13.37991 C 8.324705,-13.641356 8.216242,-13.779455 7.9559,-13.710508 L 10.793979,-11.393214 C 11.062929,-11.455471 11.17829,-11.311033 11.179505,-11.050153 C 11.17829,-10.789414 11.062929,-10.396842 10.793979,-9.951008 L 7.9559,-12.268301" />
      <path d="M 7.9559,-13.710508 L 7.9559,-22.082584 L 10.793979,-19.76529 L 10.793979,-11.393214 L 7.9559,-13.710508" />
      <path d="M -6.541686,-33.91987 L -9.379766,-36.237164 A 14.3,14.3 40.99002932256897 0,1 10.793979,-19.76529 L 7.9559,-22.082584 A 10.3,10.3 39.42852672357009 0,0 -6.541686,-33.91987" />
      <path d="M -9.379766,-27.865088 L -9.379766,-36.237164 L -6.541686,-33.91987 L -6.541686,-25.547794 L -9.379766,-27.865088" />
      <path d="M -6.541686,-25.547794 C -6.222739,-25.568889 -6.063063,-25.388976 -6.063419,-25.129009 C -6.063063,-24.866664 -6.222739,-24.509631 -6.541686,-24.105588 L -9.379766,-26.422881 C -9.068627,-26.834267 -8.916677,-27.196965 -8.916763,-27.458766 C -8.916677,-27.718584 -9.068626,-27.892896 -9.379766,-27.865088 L -6.541686,-25.547794" />
      <path d="M -9.379766,-17.472883 L -9.379766,-26.422881 L -6.541686,-24.105588 L -6.541686,-15.155589 L -9.379766,-17.472883" />
      <path d="M -6.541686,-15.155589 C -6.222739,-15.176685 -6.063063,-14.996771 -6.063419,-14.736804 C -6.063063,-14.47446 -6.222739,-14.117426 -6.541686,-13.713383 L -9.379766,-16.030676 C -9.068627,-16.442062 -8.916677,-16.80476 -8.916763,-17.066561 C -8.916677,-17.326379 -9.068626,-17.500691 -9.379766,-17.472883 L -6.541686,-15.155589" />
    </g>
  </g>
</svg>