<?xml version='1.0' encoding='utf-8'?>
<svg width="138.682929mm" height="127.684815mm" viewBox="-69.341465 -63.842407 138.682929 127.684815" version="1.1" xmlns="http://www.w3.org/2000/svg">
  <defs>
    <style>
      .cq-bg { fill: #ffffff; }
      @media (prefers-color-scheme: dark) {
        .cq-bg { fill: #0d1117; }
        /* CadQuery SVG selectors */
        g[stroke="rgb(0,0,0)"] { stroke: #c9d1d9 !important; }
        g[stroke="rgb(160,160,160)"] { stroke: #484f58 !important; }
        /* OpenSCAD SVG selectors */
        path { stroke: #c9d1d9 !important; }
        polygon { stroke: #c9d1d9 !important; fill: #161b22 !important; }
        /* Common selectors */
        line { stroke: #c9d1d9 !important; }
        text { stroke: #c9d1d9 !important; fill: #c9d1d9 !important; }
      }
    </style>
  </defs>
  <rect width="138.682929mm" height="127.684815mm" class="cq-bg"/>
  <g transform="scale(1,-1)" stroke-linecap="round">
    <g fill="none" stroke="rgb(0,0,0)" stroke-width="0.09">
      <path d="M -69.296465,36.084461 L -69.296465,21.650843 L -35.355339,49.36379 L -35.355339,63.797407 L -69.296465,36.084461" />
      <path d="M -69.296465,36.084461 L 35.355339,-49.36379 L 35.355339,-63.797407 L -69.296465,21.650843 L -69.296465,36.084461" />
      <path d="M -35.355339,49.36379 L -69.296465,21.650843 L 35.355339,-63.797407 L 69.296465,-36.084461 L -35.355339,49.36379 M -21.92031,10.681135 A 19.0,19.0 -45.00000000000001 0,0 -48.790368,32.620551 A 19.0,19.0 -45.00000000000001 0,0 -21.92031,10.681135 M 13.435029,-18.186517 A 19.0,19.0 -45.00000000000001 0,0 -13.435029,3.752899 A 19.0,19.0 -45.00000000000001 0,0 13.435029,-18.186517 M 48.790368,-47.054169 A 19.0,19.0 -45.00000000000001 0,0 21.92031,-25.114753 A 19.0,19.0 -45.00000000000001 0,0 48.790368,-47.054169" />
      <path d="M 69.296465,-21.650843 L -35.355339,63.797407 L -35.355339,49.36379 L 69.296465,-36.084461 L 69.296465,-21.650843" />
      <path d="M -69.296465,36.084461 L -35.355339,63.797407 L 69.296465,-21.650843 L 35.355339,-49.36379 L -69.296465,36.084461 M -33.587572,34.641079 A 2.5,2.5 -45.00000000000001 0,1 -37.123106,37.527844 A 2.5,2.5 -45.00000000000001 0,1 -33.587572,34.641079 M 1.767767,5.773426 A 2.5,2.5 -45.00000000000001 0,1 -1.767767,8.660192 A 2.5,2.5 -45.00000000000001 0,1 1.767767,5.773426 M 37.123106,-23.094226 A 2.5,2.5 -45.00000000000001 0,1 33.587572,-20.207461 A 2.5,2.5 -45.00000000000001 0,1 37.123106,-23.094226" />
      <path d="M 35.355339,-63.797407 L 35.355339,-49.36379 L 69.296465,-21.650843 L 69.296465,-36.084461 L 35.355339,-63.797407" />
      <path d="M -21.92031,10.681135 A 19.0,19.0 -45.00000000000001 0,1 -48.790368,32.620551 A 19.0,19.0 -45.00000000000001 0,1 -21.92031,10.681135 L -21.92031,22.22803 A 19.0,19.0 -45.00000000000001 0,0 -48.790368,44.167446 A 19.0,19.0 -45.00000000000001 0,0 -21.92031,22.22803 L -21.92031,10.681135" />
      <path d="M 13.435029,-18.186517 A 19.0,19.0 -45.00000000000001 0,1 -13.435029,3.752899 A 19.0,19.0 -45.00000000000001 0,1 13.435029,-18.186517 L 13.435029,-6.639622 A 19.0,19.0 -45.00000000000001 0,0 -13.435029,15.299793 A 19.0,19.0 -45.00000000000001 0,0 13.435029,-6.639622 L 13.435029,-18.186517" />
      <path d="M 48.790368,-47.054169 A 19.0,19.0 -45.00000000000001 0,1 21.92031,-25.114753 A 19.0,19.0 -45.00000000000001 0,1 48.790368,-47.054169 L 48.790368,-35.507275 A 19.0,19.0 -45.00000000000001 0,0 21.92031,-13.567859 A 19.0,19.0 -45.00000000000001 0,0 48.790368,-35.507275 L 48.790368,-47.054169" />
      <path d="M -33.587572,32.909044 A 2.5,2.5 -45.00000000000001 0,1 -37.123106,35.79581 A 2.5,2.5 -45.00000000000001 0,1 -33.587572,32.909044 L -33.587572,34.641079 A 2.5,2.5 -45.00000000000001 0,0 -37.123106,37.527844 A 2.5,2.5 -45.00000000000001 0,0 -33.587572,34.641079 L -33.587572,32.909044" />
      <path d="M 1.767767,4.041392 A 2.5,2.5 -45.00000000000001 0,1 -1.767767,6.928157 A 2.5,2.5 -45.00000000000001 0,1 1.767767,4.041392 L 1.767767,5.773426 A 2.5,2.5 -45.00000000000001 0,0 -1.767767,8.660192 A 2.5,2.5 -45.00000000000001 0,0 1.767767,5.773426 L 1.767767,4.041392" />
      <path d="M 37.123106,-24.82626 A 2.5,2.5 -45.00000000000001 0,1 33.587572,-21.939495 A 2.5,2.5 -45.00000000000001 0,1 37.123106,-24.82626 L 37.123106,-23.094226 A 2.5,2.5 -45.00000000000001 0,0 33.587572,-20.207461 A 2.5,2.5 -45.00000000000001 0,0 37.123106,-23.094226 L 37.123106,-24.82626" />
      <circle cx="-35.355339" cy="33.197738" r="19.0" />
      <circle cx="0.0" cy="4.330085" r="19.0" />
      <circle cx="35.355339" cy="-24.537567" r="19.0" />
      <circle cx="-35.355339" cy="34.352427" r="2.5" />
      <circle cx="0.0" cy="5.484775" r="2.5" />
      <circle cx="35.355339" cy="-23.382877" r="2.5" />
    </g>
  </g>
</svg>