<?xml version='1.0' encoding='utf-8'?>
<svg width="36.09mm" height="32.370742mm" viewBox="-18.045 -16.185371 36.09 32.370742" version="1.1" xmlns="http://www.w3.org/2000/svg">
  <g transform="scale(1,-1)" stroke-linecap="round">
    <g fill="none" stroke="rgb(0,0,0)" stroke-width="0.09">
      <path d="M 12.727922,-11.835717 A 18.0,18.0 -45.00000000000001 0,0 -12.727922,8.948993 A 18.0,18.0 -45.00000000000001 0,0 12.727922,-11.835717 L 12.727922,-8.948993 A 18.0,18.0 -45.00000000000001 0,1 -12.727922,11.835717 A 18.0,18.0 -45.00000000000001 0,1 12.727922,-8.948993 L 12.727922,-11.835717" />
      <path d="M 12.727922,-11.835717 A 18.0,18.0 -45.00000000000001 0,1 -12.727922,8.948993 A 18.0,18.0 -45.00000000000001 0,1 12.727922,-11.835717 M 10.232556,-9.798249 A 14.471019057874605,14.471019057874605 -45.00000000000001 0,0 -10.232556,6.911525 A 14.471019057874605,14.471019057874605 -45.00000000000001 0,0 10.232556,-9.798249" />
      <path d="M 12.727922,-8.948993 A 18.0,18.0 -45.00000000000001 0,0 -12.727922,11.835717 A 18.0,18.0 -45.00000000000001 0,0 12.727922,-8.948993 M 9.609146,-6.402511 A 13.589384154332281,13.589384154332281 -45.00000000000001 0,1 10.947361,8.017416 A 2.5,2.5 -45.00000000000001 0,1 8.0515,10.381887 A 13.589384154332281,13.589384154332281 -45.00000000000001 0,1 -10.947361,-5.130692 A 2.5,2.5 -45.00000000000001 0,1 -8.0515,-7.495164 A 13.589384154332281,13.589384154332281 -45.00000000000001 0,1 9.609146,-6.402511" />
      <path d="M 9.609146,-6.402511 A 13.589384154332281,13.589384154332281 -45.00000000000001 0,0 -8.0515,-7.495164 C -8.294242,-8.108401 -8.564386,-8.703051 -8.914337,-9.227874 A 14.118365096457676,14.118365096457676 -45.00000000000001 0,0 -10.948188,-7.567233 C -11.007025,-6.708635 -10.988235,-5.908754 -10.947361,-5.130692 A 13.589384154332281,13.589384154332281 -45.00000000000001 0,0 8.0515,10.381887 C 8.294242,9.835397 8.564386,9.271432 8.914337,8.650529 A 14.118365096457676,14.118365096457676 -45.00000000000001 0,0 10.948188,6.989888 C 11.007025,7.277016 10.988235,7.635751 10.947361,8.017416 A 13.589384154332281,13.589384154332281 -45.00000000000001 0,0 9.609146,-6.402511 L 10.232556,-9.798249 A 14.471019057874605,14.471019057874605 -45.00000000000001 0,1 -10.232556,6.911525 A 14.471019057874605,14.471019057874605 -45.00000000000001 0,1 10.232556,-9.798249 L 9.609146,-6.402511" />
      <path d="M 10.948188,6.989888 A 2.5,2.5 -45.00000000000001 0,1 8.914337,8.650529 C 8.564386,9.271432 8.294242,9.835397 8.0515,10.381887 A 2.5,2.5 -45.00000000000001 0,0 10.947361,8.017416 C 10.988235,7.635751 11.007025,7.277016 10.948188,6.989888" />
      <path d="M -10.948188,-7.567233 A 2.5,2.5 -45.00000000000001 0,1 -8.914337,-9.227874 C -8.564386,-8.703051 -8.294242,-8.108401 -8.0515,-7.495164 A 2.5,2.5 -45.00000000000001 0,0 -10.947361,-5.130692 C -10.988235,-5.908754 -11.007025,-6.708635 -10.948188,-7.567233" />
      <path d="M -10.948188,-7.567233 A 14.118365096457676,14.118365096457676 -45.00000000000001 0,1 -8.914337,-9.227874 A 2.5,2.5 -45.00000000000001 0,0 -10.948188,-7.567233" />
      <path d="M 10.948188,6.989888 A 14.118365096457676,14.118365096457676 -45.00000000000001 0,1 8.914337,8.650529 A 2.5,2.5 -45.00000000000001 0,0 10.948188,6.989888" />
    </g>
  </g>
</svg>