<?xml version="1.0" encoding="UTF-8" standalone="no"?>
<svg
   xmlns:svg="http://www.w3.org/2000/svg"
   xmlns="http://www.w3.org/2000/svg"
   width="800.0"
   height="240.0"

>
    <g transform="scale(3.7284141382469373, -3.7284141382469373)   translate(54.96351134235401,-32.31312459783345)" stroke-width="0.26821054821720797"  fill="none">
       <!-- hidden lines -->
       <g  stroke="rgb(160,160,160)" fill="none" stroke-dasharray="0.26821054821720797,0.26821054821720797" >
			<path d="M-0.3303504247281095,7.045695806396062 L-0.21449350582331245,7.0528862615661145 L-0.0986722147658935,7.057966853482181 L0.017077831552910427,7.060936019781348 L0.13272103815074943,7.061792847397701 L0.24822184290018745,7.060537072843103 L0.36354472746462685,7.057169082288228 L0.4786542282207571,7.051689911443798 L0.5935149471641883,7.0441012452420955 L0.7080915627948989,7.034405417318813 L0.8223488409791595,7.022605409295424 L0.9362516457845904,7.008704849862289 L1.0497649502850204,6.992708013662776 L1.162853847331824,6.974619819978735 L1.2754835602884256,6.954445831217748 L1.3876194537246707,6.93219225120259 L1.4992270440677662,6.907865923263465 L1.610272010206538,6.8814743281335655 L1.7207202040457088,6.853025581648632 L1.8305376610069883,6.822528432251203 L1.9396906104737188,6.7899922583003285 L2.0481454861758794,6.755427065187578 L2.155868936512246,6.7188434822602225 L2.2628278348065405,6.680252759552537 L2.3689892894944147,6.639666764326241 L2.4743206542381238,6.597097977421124 L2.578789537965801,6.55255948941699 L2.6823638148322235,6.506064996608094 L2.7850116340980247,6.4576287967913135 L2.886701429924302,6.407265784869351 L2.9874019310796154,6.354991448270311 L3.0870821705563873,6.30082186218507 L3.185711495093705,6.24477368462393 " />
			<path d="M3.185711495093756,6.244773684623901 L3.2887156922619103,6.1835507276452715 L3.390478204793837,6.120272062547227 L3.490964118448052,6.054959399943422 L3.5901389569781688,5.987635148302527 L3.687968693961534,5.9183224062599935 L3.7844197644735367,5.8470449546930165 L3.8794590766035766,5.773827248561428 L3.97305402280874,5.698694408517317 " />
			<path d="M42.50920701782862,-16.674854668388562 L42.26595967759316,-16.647763496785988 L42.023256511871516,-16.617537041230094 L41.78113415103666,-16.584179863698207 L41.53962913780265,-16.54769699867701 L41.298777921709295,-16.508093952402678 L41.05861685362105,-16.46537670202986 L40.81918218024062,-16.419551694729577 L40.580510038638394,-16.370625846716127 L40.342636450798445,-16.31860654220329 L40.10559731818177,-16.263501632289845 L39.869428416307855,-16.2053194337746 L39.63416538935518,-16.14406872790121 L39.399843744781606,-16.079758759032817 L39.16649884796525,-16.01239923325684 L38.93416591686703,-15.94200031692009 L38.70288001671526,-15.86857263509436 L38.47267605471338,-15.792127269972848 L38.24358877477155,-15.712675759197538 L38.01565275226289,-15.630230094117874 L37.788902388805056,-15.544802717980964 L37.56337190706819,-15.456406524053513 L37.339095345609806,-15.365054853675936 L37.11610655373742,-15.270761494248777 L36.894439186399815,-15.173540677151795 L36.67412669910762,-15.07340707559612 L36.45520234288399,-14.970375802409638 L36.23769915924608,-14.864462407756076 L36.02164997521827,-14.755682876788061 L35.80708739837769,-14.644053627234552 L35.594043811932785,-14.52959150692294 L35.38255136983594,-14.412313791236286 L35.17264199193059,-14.292238180506047 " />
			<path d="M35.17264199193051,-14.292238180506 L34.853770227009065,-14.10263368782692 L34.538811886260206,-13.906554586849499 L34.22787884062342,-13.704070523461471 L33.921081531282304,-13.495253418547204 L33.618528930436625,-13.280177442441893 L33.32032850259621,-13.058918988586814 L33.0265861664103,-12.831556646394926 L32.737406257046004,-12.598171173336446 L32.45289148912922,-12.358845466254415 L32.17314292026112,-12.11366453192029 L31.898259915123226,-11.862715456840203 L31.62834011018377,-11.606087376322417 L31.363479379017967,-11.343871442817116 L31.103771798254353,-11.076160793539726 L30.849309614159477,-10.803050517389224 L30.600183209872682,-10.524637621173259 L30.356481073302668,-10.241020995152017 L30.118289765697206,-9.952301377913125 L29.885693890897237,-9.658581320590027 L29.658776065286165,-9.359965150436548 L29.437616888445117,-9.056558933770605 L29.222294914524554,-8.748470438300217 L29.01288662434241,-8.435809094845201 L28.809466398218657,-8.118685958468111 L28.612106489555924,-7.797213669028295 L28.420876999175633,-7.471506411173008 L28.23584585041868,-7.141679873779859 L28.057078765019558,-6.807851208864951 L27.884639239762468,-6.470138989971327 L27.718588523927703,-6.1286631700524925 L27.558985597536367,-5.783545038865999 L27.405887150401092,-5.4349071798921855 L27.25934756199019,-5.082873426793418 L27.119418882112505,-4.727568819429223 L26.98615081242967,-4.369119559443103 L26.859590688802434,-4.007652965436545 L26.739783464477306,-3.6432974277464165 L26.626771694119487,-3.2761823628416167 L26.52059551869776,-2.9064381673552795 L26.421292651226704,-2.53419617176883 L26.328898363371295,-2.159588593764348 L26.243445472918676,-1.7827484912617813 L26.16496433212152,-1.4038097151577462 L26.093482816917106,-1.0229068617826407 L26.029026317026,-0.6401752250929871 L25.971617726933804,-0.2557507486159958 L25.921277437759212,0.1302300228365727 L25.87802333001122,0.5176299916681755 L25.841870767238095,0.9063115561935438 L25.81283259057036,1.2961366595138788 L25.7909191141597,1.6869668385535634 L25.77613812151549,2.0786632732413284 L25.768494862740102,2.4710868358181166 L25.767992052664138,2.864098140254274 L25.774629869882116,3.2575575917584647 L25.78840595668906,3.6513254363607293 L25.809315419917926,4.045261810552098 L25.837350832677622,4.4392267909631 L25.87250223699098,4.833080444063539 L25.91475714733177,5.226682875865887 L25.964100555059467,5.61989428161461 L26.020514933750206,6.0125749954438215 L26.08398024542204,6.404585539985585 L26.154473947652292,6.795786675911291 L26.231971001584473,7.186039451388444 L26.31644388082188,7.575205251435368 L26.407862581204785,7.9631458471562535 L26.506194631467714,8.349723444839057 L26.611405104772977,8.734800734898853 L26.72345663111645,9.118240940649194 L26.84230941060112,9.499907866884222 L26.96792122757375,9.87966594825422 L27.100247465619525,10.257380297417445 L27.23924112340953,10.63291675295116 L27.384852831395264,11.006141927004784 L27.537030869344342,11.37692325267832 L27.69572118471117,11.745129031109148 L27.860867411836008,12.110628478250526 L28.03241089196564,12.473291771325133 L28.210290694088545,12.832990094937188 L28.394443636577183,13.189595686826783 L28.58480430962963,13.542981883250095 L28.781305098502642,13.893023163969408 L28.98387620752798,14.239595196837046 L29.192445684903305,14.582574881957239 L29.406939448248934,14.921840395410321 L29.627281310921376,15.257271232523717 L29.853393009074285,15.588748250674337 L30.085194229457205,15.916153711607175 L30.322602637942282,16.23937132325509 L30.56553390876872,16.558286281044907 L30.813901754494722,16.872785308675205 L31.067617956646124,17.182756698351213 L31.326592397051023,17.48809035046262 L31.59073308984906,17.78867781269018 L31.85994621416413,18.0844123185272 L32.134136147428926,18.375188825202216 L32.41320549934935,18.660904050989434 L32.69705514649687,18.941456511893676 L32.98558426751642,19.21674655769675 L33.278690378937455,19.48667640735249 L33.57626937157532,19.75115018371789 L33.8782155475101,20.010073947607964 L34.18442165762973,20.26335573116228 L34.49477893972415,20.510905570511294 L34.80917715711688,20.752635537730857 L35.127504637820195,20.988459772073565 L35.4496483142003,21.218294510465892 L35.77549376313813,21.442058117260252 L36.104925246671584,21.65967111323138 L36.43782575310485,21.87105620380676 L36.77407703857013,22.076138306521138 L37.113559669026955,22.27484457768526 L37.45615306268435,22.467104438259415 L37.80173553283061,22.652849598922618 L38.15018433105554,22.83201408432848 L38.50137569084979,23.004534256539173 L38.85518487156586,23.170348837629184 L39.21148620272508,23.32939893145077 L39.570153128654816,23.481628044553467 L39.931058253440206,23.626982106250153 L40.294073386174226,23.765409487822556 L40.65906958649017,23.896861020859415 L41.02591721036039,24.021290014720748 L41.394485956144884,24.13865227312202 L41.764644910873514,24.248906109832358 L42.13626259674534,24.3520123634812 L42.50920701782842,24.447934411468076 " />
			<path d="M-1.3214016989124246,-19.793804034248545 L42.509207017828615,-16.67485466838856 " />
			<path d="M45.15201041565346,-18.21003567974815 L42.50920701782861,-16.674854668388562 " />
			<path d="M33.117637443683066,23.779638195072593 L32.82902951651876,23.59650022737486 L32.54302065107627,23.408678195683464 L32.2596871751142,23.216222224440074 L31.97910470240459,23.019183674755098 L31.701348112553767,22.817615130700823 L31.426491531019032,22.61157038527822 L31.154608309326647,22.40110442606106 L30.885771005496366,22.186273420521296 L30.62005136467777,21.967134701039548 L30.357520300003465,21.743746749604654 L30.09824787366435,21.516169182206514 L29.84230327821198,21.28446273292623 L29.589754818093034,21.048689237727864 L29.340669891420745,20.808911617956184 L29.095114971988252,20.56519386354468 L28.853155591528555,20.317601015938465 L28.614856322226025,20.06619915073655 L28.380280759483824,19.811055360058113 L28.149491504952053,19.552237734637426 L27.9225501498212,19.289815345652425 L27.6995172583851,19.023858226291516 L27.480452351878085,18.754437353063675 L27.265413892590388,18.481624626856807 L27.05445926826623,18.205492853749412 L26.847644776788577,17.926115725580683 L26.645025611154907,17.64356780028422 L26.446655844747642,17.3579244819906 L26.252588416903542,17.069262000904104 L26.062875118785673,16.777657392959078 L25.87756657956177,16.483188479261145 L25.69671225289275,16.185933845318907 L25.520360403734884,15.885972820071725 L25.34855809545928,15.583385454719025 L25.18135117729194,15.278252501356878 L25.018784272077934,14.970655391427517 L24.86090076437275,14.660676213987584 L24.70774278886424,14.348397693800836 L24.559351219127986,14.03390316926124 L24.41576565671934,13.71727657015228 L24.277024420604832,13.398602395248426 L24.143164536935963,13.077965689764845 L24.014221729167918,12.75545202266117 L23.890230408525994,12.431147463805488 L23.77122366482219,12.105138561004791 L23.657233257624497,11.777512316907742 L23.548289607781125,11.44835616578612 L23.44442178930205,11.117757950201042 L23.345657521599964,10.785805897560277 L23.25202316209275,10.452588596572781 L23.16354369916941,10.11819497360688 L23.080242745521385,9.782714268958298 L23.002142531840963,9.446236013034408 L22.929263900888557,9.10885000246112 L22.86162630193034,8.770646276118653 L22.79924778554777,8.431715091112634 L22.742144998820415,8.09214689868705 L22.690333180883318,7.752032320085339 L22.643826158860062,7.411462122366114 L22.602636344172748,7.070527194179968 L22.56677472922969,6.729318521513851 L22.536250884491874,6.387927163409446 L22.51107295591887,6.046444227662067 L22.491247662794883,5.704960846506533 L22.47678029593559,5.363568152296517 L22.467674716276154,5.02235725318392 L22.463933353840847,4.681419208804618 L22.465557207094555,4.340845005977165 L22.472545842676315,4.00072553442101 L22.484897395514945,3.6611515625005553 L22.502608569326814,3.322213713001626 L22.5256746374955,2.984002438946772 L22.55408944433321,2.646607999455921 L22.58784540672354,2.310120435658705 L22.62693351614523,1.9746295466650308 L22.671343341076234,1.6402248656002092 L22.721063029777664,1.3069956357110373 L22.776079313456638,0.9750307865493522 L22.836377509807363,0.6444189102391666 L22.90194152692945,0.31524823783388367 L22.972753867622366,-0.01239338423004277 L23.04879563405496,-0.3384185175768941 L23.13004653280877,-0.6627401552265217 L23.21648488029375,-0.9852717448140913 L23.30808760853503,-1.3059272116884788 L23.404830271329107,-1.6246209818831794 L23.50668705076785,-1.9412680049536197 L23.61363076412858,-2.2557837766747184 L23.725632871128386,-2.5680843615927316 L23.842663481540697,-2.878086415425223 L23.96469136317218,-3.1857072073033432 L24.091683950197726,-3.490864641850422 L24.223607351851356,-3.7934772810908797 L24.360426361470722,-4.093464366183756 L24.502104465892764,-4.390745838974983 L24.64860385519807,-4.68524236336266 L24.79988543280128,-4.976875346469647 L24.95590882588487,-5.2655669596177965 L25.116632396173507,-5.55124015909826 L25.282013251046177,-5.833818706732275 L25.452007254983,-6.113227190217044 L25.626569041343753,-6.389391043251095 L25.805652024474977,-6.662236565433982 L25.989208412142382,-6.931690941934896 L26.177189218285257,-7.19768226292484 L26.369544276089467,-7.460139542767388 L26.566222251375585,-7.718992738962736 L26.767170656298525,-7.974172770840113 L26.972335863355106,-8.225611537993457 L27.181663119695717,-8.473241938455518 L27.39509656173631,-8.716997886605487 L27.61257923006685,-8.956814330805408 L27.834053084652183,-9.192627270760635 L28.059459020321256,-9.424373774599696 L28.288736882540675,-9.65199199566907 L28.521825483468273,-9.875421189038349 L28.7586626182824,-10.094601727711316 L28.999185081782663,-10.309475118538751 L29.243328685257623,-10.519984017828593 L29.491028273614972,-10.726072246649386 L29.742217742769586,-10.927684805822844 L29.99683005728487,-11.124767890601616 L30.254797268262635,-11.317268905028238 L30.51605053147675,-11.505136475971542 L30.780520125745767,-11.688320466836705 L31.0481354715395,-11.866771990945283 L31.318825149814735,-12.040443424581719 L31.592516921075052,-12.209288419702768 L31.86913774464928,-12.373261916306417 " />
			<path d="M31.869137744649436,-12.373261916306506 L32.150322496669155,-12.533272611423348 L32.434321365422704,-12.688264842902571 L32.721057634669066,-12.838196742896463 L33.01045384871683,-12.98302781049802 L33.302431833347185,-13.12271892268136 L33.59691271693105,-13.257232344870024 L33.893816951734514,-13.386531741130137 L34.193064335407,-13.51058218398578 L34.49457403264621,-13.62935016385393 L34.798264597034056,-13.742803598096346 L35.10405399303767,-13.850911839685997 L35.41185961816955,-13.95364568548573 L35.721598325300896,-14.050977384136845 L36.033186445121984,-14.142880643555563 L36.346539808743685,-14.229330638035252 L36.66157377043388,-14.310304014952562 L36.97820323048271,-14.385778901075659 L37.29634265819043,-14.45573490847278 L37.61590611497173,-14.520153140019628 L37.93680727757018,-14.579016194504012 L38.25895946137665,-14.63230817132642 L38.5822756438453,-14.680014674795215 L38.906668488000854,-14.722122818015345 L39.232050366030826,-14.758621226369447 L39.55833338295631,-14.789500040590452 L39.88542940037496,-14.814750919424887 L40.213250060269644,-14.834367041886034 L40.54170680887651,-14.848343109096541 L40.87071092060594,-14.856675345719738 L41.200173522009784,-14.859361500979508 L41.5300056157887,-14.856400849268256 L41.86011810483286,-14.847794190342944 " />
			<path d="M47.80642574993878,-18.301951465902015 L41.86011810483287,-14.847794190342942 " />
			<path d="M41.86011810483287,21.937057551021148 L41.86011810483287,26.83659840092922 " />
			<path d="M47.80642574993878,18.48290027546207 L41.86011810483287,21.937057551021145 " />
			<path d="M37.569906117170234,-9.404771140921222 L37.36100726142022,-9.343450581934544 L37.15318706236121,-9.278942276061043 L36.94648857097263,-9.211259586514503 L36.740954605866605,-9.140416534097938 L36.53662774441788,-9.066427794299116 L36.33355031394375,-8.989308694250475 L36.131764382935714,-8.909075209554015 L35.93131175234477,-8.825743960971874 L35.73223394692217,-8.73933221098327 L35.53457220661737,-8.649857860208478 L35.3383674780349,-8.557339443700632 L35.14366040595216,-8.461796127106101 L34.95049132489964,-8.36324770269423 L34.75890025080534,-8.26171458525727 L34.56892687270539,-8.157217807881354 L34.380610544522256,-8.049779017589433 " />
			<path d="M34.38061054452219,-8.0497790175894 L34.124329023377,-7.897212394318107 L33.871357657392295,-7.739180129677271 L33.62179561827875,-7.575744176647083 L33.375740741197454,-7.406968606601728 L33.13328948640582,-7.232919584191658 L32.894536901442535,-7.053665341405214 L32.6595765838663,-6.86927615081982 L32.42850064456307,-6.679824298053234 L32.20139967163599,-6.485384053425559 L31.97836269489243,-6.286031642843268 L31.759477150941837,-6.081845217916575 L31.544828848918197,-5.872904825321816 L31.334501936840482,-5.6592923754209945 L31.128578868624352,-5.44109161015067 L30.927140371757936,-5.218388070192802 L30.73026541565444,-4.991269061440477 L30.53803118069399,-4.759823620771597 L30.350513027966805,-4.524142481143997 L30.167784469729558,-4.28431803602561 L29.98991714058659,-4.040444303173706 L29.816980769407163,-3.7926168877773847 L29.649043151989837,-3.5409329449776674 L29.486170124484648,-3.285491141780046 L29.32842553758355,-3.0263916183743333 L29.175871231489182,-2.7637359488769153 L29.028567011671804,-2.4976271015109397 L28.886570625423943,-2.228169398239972 L28.749937739221842,-1.9554684738708694 L28.61872191690268,-1.679631234642092 L28.492974598666095,-1.4007658163135064 L28.372745080908203,-1.1189815417741986 L28.258080496896053,-0.8343888781848996 L28.14902579829012,-0.5470993936718616 L28.045623737521993,-0.25722571358907054 L27.947914851034255,0.03511852363399903 L27.855937443389113,0.32981871104173344 L27.769727572251917,0.6267593180814437 L27.689319034255604,0.9258239358945426 L27.614743351751464,1.2268953229519894 L27.546029760451546,1.529855451016167 L27.48320519796741,1.8345855514112204 L27.426294293249896,2.140966161583614 L27.37531935693386,2.448877171934721 L27.330300372591825,2.7581978729070977 L27.291254988899844,3.068807002305937 L27.258198512718756,3.3805827928371484 L27.231143903093468,3.693403019843492 L27.210101766172656,4.007145049220034 L27.195080351050866,4.3216858854899955 L27.186085546534635,4.636902220022405 L27.18312087883393,4.952670479372486 L27.186187510179757,5.268866873725765 L27.195284238368565,5.585367445427112 L27.21040749723352,5.902048117575575 L27.23155135804253,6.218784742665849 L27.25870753182251,6.535453151257542 L27.291865372608846,6.851929200653042 L27.331011881618927,7.168088823564774 L27.37613171234802,7.483808076753017 L27.42720717658552,7.798963189615098 L27.484218251349205,8.113430612706777 L27.547142586734807,8.427087066177055 L27.615955514677786,8.739809588097298 L27.690630058623885,9.051475582665608 L27.77113694410467,9.361962868267781 L27.857444610213925,9.671149725375843 L27.949519221980417,9.978914944265428 L28.047324683632105,10.285137872533369 L28.150822652746683,10.589698462396662 L28.25997255528285,10.89247731775453 L28.374731601486477,11.19335574099501 L28.495054802665322,11.49221577952759 L28.620894988825864,11.788940272023893 L28.752202827165213,12.083412894348182 L28.888926841410935,12.375518205159516 L29.031013432001146,12.665141691167968 L29.17840689709704,12.952169812027016 L29.331049454419496,13.236490044844384 L29.488881263901334,13.517990928294154 L29.6518404511463,13.796562106312678 L29.81986313168544,14.07209437136113 L29.992883436021643,14.344479707237872 L30.17083353545226,14.613611331423817 L30.353643668659807,14.879383736944016 L30.541242169060304,15.141692733729343 L30.733555492898603,15.400435489461866 L30.93050824807947,15.655510569887895 L31.132023223723404,15.906817978582996 L31.33802142043543,16.15425919615339 L31.54842208127499,16.39773721885816 L31.76314272341487,16.637156596637453 L31.982099170476815,16.8724234705315 L32.20520558553086,17.103445609475884 L32.43237450474583,17.330132446458652 L32.663516871677565,17.552395114025096 L32.898542072181456,17.770146479116185 L33.13735796993568,17.983301177227148 L33.379870942561155,18.19177564587268 L33.62598591832413,18.39548815734573 L33.875606413406864,18.59435885075704 L34.12863456973192,18.78830976334273 L34.38497119332524,18.977264861027898 L34.64451579320292,19.16115006823405 L34.907166620766375,19.339893296918746 L35.172820709690626,19.513424474836082 L35.4413739162899,19.681675573006956 L35.7127209603448,19.844580632388272 L35.98675546637509,20.002075789730718 L36.263370005341734,20.154099302614878 L36.54245613676206,20.300591573655964 L36.82390445122142,20.44149517386765 L37.10760461326461,20.576754865175772 L37.39344540465048,20.706317622073186 L37.68131476795246,20.830132652407233 L37.97109985048817,20.948151417291616 L38.26268704856084,21.060327650135022 L38.555962051994925,21.166617374778863 L38.85080988894892,21.26697892273713 L39.14711497098752,21.361372949531628 L39.444761138395336,21.44976245011603 L39.74363170571475,21.532112773382902 L40.043609507489855,21.608391635747893 L40.344576944198444,21.678569133805773 L40.64641602835429,21.74261775605337 L40.949008430761495,21.800512393674886 L41.25223552690272,21.85223035038518 L41.55597844344331,21.897751351327376 L41.86011810483272,21.937057551021127 " />
			<path d="M41.86011810483287,-14.84779419034294 L41.86011810483287,-9.948253340434867 " />
			<path d="M7.783126383898425,-5.680145122516867 L7.761691921402828,-5.616612197008688 L7.737526351537987,-5.554311870244796 L7.710676219309835,-5.493364138115835 L7.681193240426747,-5.433886391296611 L7.649134201690556,-5.375993189141368 L7.614560851620186,-5.319796039032418 L7.5775397815186025,-5.265403181607163 L7.538142297212117,-5.212919382277124 L7.49644428170912,-5.162445729440582 L7.452526049042752,-5.114079439777461 L7.406472189579034,-5.067913671001481 L7.358371407088414,-5.024037342430233 L7.308316347894521,-4.982534963718781 L7.25640342242923,-4.9434864720866525 L7.202732619537716,-4.906967078351755 L7.14740731389118,-4.873047122067745 " />
			<path d="M7.147407313891174,-4.873047122067742 L7.08370289981969,-4.838270633681871 L7.018215840716292,-4.806910932581106 L6.951103900642352,-4.7790435670321845 L6.882528758139819,-4.754735671959605 L6.812655616733455,-4.73404580721172 L6.741652806941072,-4.7170238164849225 L6.669691380750573,-4.7037107072458255 L6.596944699540724,-4.694138551940676 L6.523588016438418,-4.6883304107300265 L6.449798054118537,-4.686300275934786 L6.375752579063544,-4.688053038327495 L6.301629973308466,-4.6935844753500255 L6.227608804702939,-4.702881261286095 L6.153867396725623,-4.715920999364079 L6.08058339888732,-4.732672275712803 L6.007933358757743,-4.753094735040303 L5.936092296646955,-4.7771391778532655 L5.865233283966115,-4.804747678982907 L5.79552702628329,-4.835853727131788 L5.727141452078782,-4.87038238510535 L5.66024130819072,-4.908250470342181 L5.5949877629254905,-4.949366755308093 L5.531538017789173,-4.993632187271243 L5.470044928775342,-5.040940126928836 L5.41065663812159,-5.091176605310553 L5.353516217421902,-5.144220598339774 L5.298761322954654,-5.1999443183911875 L5.246523864056578,-5.258213522142371 L5.1969296853416225,-5.318887833977706 L5.150098263530248,-5.381821084165537 L5.106142419619548,-5.4468616609938625 L5.065168047087578,-5.513852876016221 L5.0272738567867,-5.582633341527886 L4.992551139140487,-5.653037359362982 L4.961083544217101,-5.724895320075882 L4.932946880208947,-5.798034111545216 L4.908208930804101,-5.87227753601613 L4.886929291889469,-5.947446734576117 L4.869159227979072,-6.023360618041803 L4.854941548713344,-6.099836303218649 L4.844310505726958,-6.176689553482585 L4.837291710133638,-6.253735222622174 L4.83390207082674,-6.330787700872056 L4.834149753744254,-6.407661362063128 L4.838034162196336,-6.484171010812243 L4.8455459383027915,-6.560132328674109 L4.856666985537026,-6.635362318180572 L4.871370512322164,-6.709679743697544 L4.889621096574302,-6.782905568037515 L4.911374771037416,-6.854863383775825 L4.9365791292043255,-6.925379838231601 L4.9651734515685675,-6.994285051089546 L4.997088851902998,-7.061413023656502 L5.032248443212753,-7.126602038766839 L5.070567522962751,-7.189695050373274 L5.111953777133519,-7.250540061884551 L5.1563075026137515,-7.308990492338546 L5.203521847393841,-7.364905529528642 L5.253483067981722,-7.418150469232669 L5.306070803420914,-7.468597039727176 L5.361158365250601,-7.5161237108052426 L5.418613042709234,-7.560615986553397 L5.478296422446381,-7.601966681182297 L5.540064721972597,-7.6400761772466845 " />
			<path d="M5.540064721972609,-7.640076177246692 L5.596937968985642,-7.671331363270568 L5.655249614505867,-7.6998615788061695 L5.714887345192364,-7.725611872157394 L5.775736293547938,-7.748532646001956 L5.837679259163991,-7.768579752920176 L5.9005969344587745,-7.7857145804267835 L5.964368134474257,-7.79990412534195 L6.0288700302889735,-7.8111210573583 L6.093978385597297,-7.819343771681486 L6.159567795999452,-7.824556430642911 L6.225511930541384,-7.826748994204469 L6.2916837750392505,-7.82591723929654 L6.357955876719869,-7.822062767951988 L6.424200589705936,-7.815193004220509 L6.490290320873179,-7.805321179869258 L6.5560977756058865,-7.79246630889731 " />
			<path d="M7.783126383898427,8.1666182201835 L7.7616919214028295,8.230151145691678 L7.737526351537988,8.292451472455571 L7.710676219309836,8.353399204584532 L7.681193240426749,8.412876951403756 L7.649134201690557,8.470770153559 L7.614560851620188,8.526967303667949 L7.577539781518604,8.581360161093203 L7.538142297212119,8.633843960423242 L7.496444281709121,8.684317613259786 L7.452526049042753,8.732683902922906 L7.406472189579036,8.778849671698884 L7.358371407088415,8.822726000270132 L7.308316347894523,8.864228378981586 L7.256403422429232,8.903276870613713 L7.202732619537718,8.93979626434861 L7.147407313891182,8.973716220632621 " />
			<path d="M7.147407313891176,8.973716220632625 L7.083702899819691,9.008492709018494 L7.018215840716294,9.03985241011926 L6.951103900642353,9.067719775668182 L6.882528758139821,9.09202767074076 L6.812655616733457,9.112717535488647 L6.741652806941074,9.129739526215443 L6.669691380750574,9.143052635454541 L6.5969446995407255,9.15262479075969 L6.52358801643842,9.158432931970339 L6.4497980541185385,9.16046306676558 L6.375752579063546,9.158710304372871 L6.301629973308468,9.15317886735034 L6.227608804702941,9.143882081414272 L6.153867396725625,9.130842343336287 L6.080583398887322,9.114091066987562 L6.007933358757745,9.093668607660062 L5.936092296646957,9.0696241648471 L5.865233283966117,9.042015663717459 L5.795527026283292,9.010909615568577 L5.727141452078784,8.976380957595016 L5.660241308190722,8.938512872358185 L5.594987762925492,8.897396587392272 L5.531538017789175,8.853131155429123 L5.470044928775343,8.805823215771529 L5.4106566381215915,8.755586737389814 L5.3535162174219035,8.702542744360592 L5.298761322954656,8.646819024309178 L5.24652386405658,8.588549820557995 L5.196929685341624,8.52787550872266 L5.15009826353025,8.46494225853483 L5.10614241961955,8.399901681706503 L5.06516804708758,8.332910466684146 L5.027273856786702,8.26413000117248 L4.992551139140489,8.193725983337384 L4.961083544217103,8.121868022624483 L4.932946880208949,8.04872923115515 L4.908208930804102,7.974485806684236 L4.886929291889471,7.899316608124249 L4.869159227979074,7.823402724658563 L4.854941548713346,7.746927039481717 L4.84431050572696,7.670073789217781 L4.8372917101336395,7.593028120078192 L4.833902070826742,7.51597564182831 L4.8341497537442555,7.439101980637238 L4.838034162196338,7.3625923318881235 L4.845545938302793,7.286631014026257 L4.856666985537028,7.211401024519794 L4.871370512322166,7.137083599002822 L4.889621096574304,7.06385777466285 L4.911374771037417,6.991899958924541 L4.936579129204327,6.921383504468766 L4.965173451568569,6.8524782916108204 L4.9970888519029995,6.785350319043864 L5.0322484432127546,6.720161303933527 L5.070567522962753,6.657068292327092 L5.111953777133521,6.596223280815815 L5.156307502613753,6.53777285036182 L5.2035218473938425,6.4818578131717235 L5.2534830679817235,6.428612873467697 L5.306070803420916,6.37816630297319 L5.361158365250603,6.330639631895123 L5.418613042709236,6.286147356146969 L5.478296422446383,6.244796661518069 L5.540064721972599,6.2066871654536815 " />
			<path d="M5.540064721972611,6.206687165453674 L5.596937968985644,6.175431979429798 L5.655249614505869,6.146901763894196 L5.714887345192365,6.121151470542971 L5.77573629354794,6.09823069669841 L5.837679259163993,6.07818358978019 L5.900596934458776,6.0610487622735825 L5.964368134474259,6.046859217358416 L6.028870030288975,6.035642285342066 L6.093978385597299,6.02741957101888 L6.159567795999454,6.022206912057455 L6.225511930541386,6.020014348495897 L6.291683775039252,6.020846103403826 L6.3579558767198705,6.024700574748378 L6.424200589705938,6.031570338479857 L6.49029032087318,6.041442162831108 L6.556097775605888,6.054297033803056 " />
			<path d="M43.2759056393819,-14.747047936472466 L43.2759056393819,-10.7706717393775 " />
			<path d="M47.80642574993878,-17.378786813088904 L43.2759056393819,-14.74704793647247 " />
			<path d="M47.80642574993878,19.40606492827518 L43.2759056393819,22.037803804891617 " />
			<path d="M43.27590563938189,22.037803804891617 L43.52320636943219,22.041515039273563 L43.77025957143865,22.04108089622396 L44.017001224308224,22.03650148824614 L44.26336738768234,22.02777800204283 L44.50929421850635,22.01491269820857 L44.754717987573784,21.997908910643943 L44.999575096041006,21.976771045691628 L45.24380209190818,21.951504580994524 L45.487335686462174,21.922116064076306 L45.73011277067712,21.888613110644684 L45.97207043156835,21.8510044026179 L46.21314596849566,21.809299685874883 L46.453276909411514,21.763509767729737 L46.69240102704992,21.713646514131106 L46.93045635505192,21.659722846587293 L47.167381204023556,21.601752738817773 L47.40311417752194,21.539751213132043 L47.637594187965504,21.47373433653678 L47.870760472464085,21.403719216572245 L48.10255260856503,21.32972399687907 L48.332910529910976,21.251767852496506 L48.56177454180543,21.169870984893443 L48.78908533668185,21.084054616733418 L49.0147840094727,20.994340986375015 L49.23881207287394,20.900753342109006 L49.46111147250144,20.803315936133842 L49.68162460193504,20.702054018270967 L49.900294317646654,20.5969938294216 L50.117063953808426,20.488162594766678 L50.331877336976994,20.37558851671178 L50.54467880065022,20.259300767578786 L50.75541319969244,20.13932948204623 " />
			<path d="M50.75541319969256,20.139329482046158 L50.94203346730268,20.02897093531356 L51.12691901503068,19.91571549345766 L51.31003154292333,19.79958661790194 L51.491333118317186,19.68060836531582 L51.67078618369655,19.55880538263123 L51.848353564473705,19.4342029019369 L52.023998476689776,19.306826735251345 L52.19768453463476,19.17670326917585 L52.36937575838496,19.043859459428294 L52.53903658125645,18.908322825259184 L52.706631857172816,18.770121443750888 L52.87212686794593,18.62928394400132 L53.03548733046793,18.485839501193304 L53.19667940381315,18.339817830550764 L53.35566969624844,18.1912491811831 L53.51242527215044,18.040164329818907 " />
			<path d="M43.2759056393819,22.03780380489162 L43.2759056393819,26.01418000198659 " />
			<path d="M43.2759056393819,-14.747047936472468 L43.47562381084821,-14.72450525161115 L43.67525226749861,-14.699909583425141 L43.87477127663733,-14.673263363125132 L44.07416111638721,-14.64456922461295 L44.27340207763908,-14.61383000422123 L44.47247446600001,-14.58104874043302 L44.67135860373999,-14.546228673581473 L44.870034831737044,-14.509373245529511 L45.06848351142048,-14.470486099329646 L45.266685026712096,-14.429571078863836 L45.464619785965176,-14.386632228463556 L45.66226822390106,-14.341673792510024 L45.85961080354313,-14.29470021501463 L46.05662801814796,-14.245716139179711 L46.25330039313356,-14.194726406939514 L46.44960848800429,-14.141736058481657 L46.64553289827257,-14.086750331748862 L46.841054257376925,-14.029774661921236 L47.03615323859634,-13.97081468087901 L47.230810556960606,-13.909876216645833 L47.425006971156634,-13.8469652928127 L47.61872328543036,-13.782088127942535 L47.81194035148424,-13.715251134955507 L48.00463907036992,-13.646460920495118 L48.19680039437622,-13.57572428427517 L48.38840532891185,-13.50304821840764 L48.579434934383045,-13.428439906711498 L48.76987032806562,-13.351906724002637 L48.95969268597154,-13.273456235364888 L49.14888324470955,-13.193096195402225 L49.337423303339946,-13.11083454747225 L49.525294225223064,-13.02667942290101 L49.89895444473562,-12.852722204140152 L50.26971616596889,-12.671293318092369 L50.63743279764891,-12.48246449786822 L51.001958952465166,-12.28631040235434 L51.36315050455362,-12.082908586694936 L51.72086464648101,-11.872339471628104 L52.074959945707846,-11.654686311689217 L52.42529640050784,-11.430035162293832 L52.771735495321586,-11.198474845713244 L53.114140255522656,-10.960096915956024 L53.45237530157448,-10.714995622569534 L53.78630690255645,-10.463267873375669 L54.11580302903836,-10.205013196155564 L54.44073340528196,-9.940333699298433 L54.76096956074925,-9.66933403143011 L55.07638488089696,-9.392121340037173 L55.38685465723723,-9.108805229103162 L55.69225613664473,-8.819497715773467 L55.99246856989058,-8.524313186066157 L56.287373259384054,-8.223368349646188 L56.57685360610304,-7.916782193680877 L56.86079515569485,-7.604675935794933 L57.139085643728976,-7.287172976143587 L57.41161504008409,-6.9643988486228015 L57.6782755924516,-6.636481171235847 L57.938961868938605,-6.30354959563587 L58.19357079975341,-5.965735755864387 L58.442001717957154,-5.623173216306014 L58.68415639926532,-5.275997418879927 L58.91993910088356,-4.924345629489039 L59.14925659936235,-4.568356883747995 L59.37201822745554,-4.208171932011435 L59.58813590996826,-3.8439331837243262 L59.797524198579936,-3.475784651116294 L60.000100305628806,-3.1038718922622692 L60.19578413684433,-2.7283419535319258 L60.384498323014775,-2.3493433114506796 L60.56616825057736,-1.9670258139952495 L60.74072209111887,-1.5815406213469512 L60.908090829775034,-1.193040146126199 L61.06820829251761,-0.8016779931317979 L61.221011172318114,-0.40760889860889193 L61.36643905417809,-0.010988669069544876 L61.50443443901591,0.38802588030982577 L61.63494276640071,0.7892769876898162 L61.757912436124386,1.1926060069437163 L61.87329482860321,1.5978534703827911 L61.98104432410102,2.004859151806409 L62.08111832076625,2.413462129852063 L62.173477251475816,2.8235008516202367 L62.25808459947909,3.2348131965489797 L62.33490691283586,3.647236540512921 L62.40391381764254,4.060607820121373 L62.46507803004128,4.474763597190125 L62.51837536700752,4.889540123361406 L62.563784755911385,5.304773404846481 L62.60128824284936,5.72029926726533 L62.63087099974288,6.1359534205576685 L62.652521330201054,6.551571523939736 L62.66623067414517,6.966989250881121 L62.67199361119311,7.382042354076008 L62.66980786280254,7.796566730383026 L62.65967429317175,8.210398485708122 L62.641596908897924,8.623373999804796 L62.615582857393136,9.035329990966083 L62.5816424240583,9.446103580582633 L62.56170388546089,9.650996201320016 L62.5397890282166,9.85553235754142 L62.51590001854572,10.0596918314392 L62.49003921780778,10.26345444243965 L62.46220918226814,10.466800049197829 L62.432412662845366,10.669708551588442 L62.40065260483925,10.87215989269271 L62.366932147639695,11.074134060780935 L62.33125462441639,11.275611091290562 L62.29362356178937,11.476571068799661 L62.25404267948035,11.676994128995503 L62.21251588994511,11.876860460638085 L62.16904729798674,12.076150307518404 L62.12364120034985,12.274843970411315 L62.07630208529592,12.472921809022724 L62.02703463215961,12.670364243931015 L61.97584371088619,12.867151758522354 L61.92273438155023,13.0632649009199 L61.867711893855386,13.258684285906567 L61.81078168661546,13.453390596841171 L61.75194938721684,13.64736458756784 L61.69122081106222,13.840587084318436 L61.628601960995766,14.033038987607831 L61.56409902670975,14.224701274121832 L61.497718384132725,14.415554998597576 L61.42946659479928,14.605581295696211 L61.35935040520147,14.794761381867708 L61.28737674612188,14.983076557207536 L61.213552731948624,15.170508207305092 L61.13788565997205,15.357037805083701 L61.06038300966344,15.542646912631943 L60.981052441935695,15.727317183026194 L60.899901798386054,15.911030362144174 L60.81693910052101,16.093768290469292 L60.732172548963376,16.2755129048857 L60.64561052264166,16.456246240463756 L60.55726157796191,16.635950432235788 L60.46713444796185,16.814607716962033 L60.37523804144768,16.992200434886456 L60.28158144211349,17.16871103148238 L60.18617390764334,17.344122059187672 L60.089024868796145,17.518416179129417 L59.990143928473515,17.691576162837798 L59.88954086077048,17.863584893949106 L59.78722561000943,18.034425369897598 L59.68320828975706,18.20408070359619 L59.577499181824734,18.372534125105666 L59.47010873525211,18.53976898329239 L59.36104756527435,18.70576874747415 L59.250326452272766,18.870517009054204 L59.13795634070925,19.03399748314326 L59.02394833804443,19.19619401016912 L58.90831371363972,19.35709055747406 L58.79106389764342,19.51667122089959 L58.672210479860816,19.674920226358523 L58.551765208608614,19.831821931394238 L58.42973998955364,19.987360826726835 L58.30614688453596,20.141521537786225 L58.180998110376684,20.294288826231856 L58.054306037670266,20.445647591458965 L57.92608318956179,20.595582872091242 L57.79634224050905,20.744079847459723 L57.66509601502974,20.891123839067728 L57.53235748643377,21.03670031204186 L57.39813977554088,21.180794876568665 L57.262456149383766,21.323393289317067 L57.12532001989653,21.464481454846272 L56.98674494258908,21.604045426999043 L56.84674461520712,21.742071410280268 L56.70533287637825,21.878545761220582 L56.56252370424396,22.013454989724988 L56.41833121507801,22.146785760406317 L56.27276966189105,22.278524893903388 L56.125853433021746,22.408659368183763 L55.977597050714536,22.537176319830913 L55.82801516968414,22.664063045315764 L55.67712257566702,22.78930700225237 L55.5249341839598,22.91289581063772 L55.37146503794498,23.034817254075435 L55.216730307603896,23.15505928098335 L55.06074528801726,23.273610005784775 L54.903525397853265,23.39045771008331 L54.74508617784346,23.50559084382126 L54.585443289246655,23.618998026421224 L54.42461251230079,23.73066804791111 L54.26260974466316,23.84058987003217 L54.099450999838936,23.94875262733011 L53.93515240559828,24.055145628229106 L53.76973020238221,24.159758356088645 L53.60320074169722,24.26258047024303 L53.435580484499006,24.363601807023585 L53.26688599956541,24.462812380763218 " />
			<path d="M4.837463618734286,5.285285552524158 L3.1857114950937553,6.2447736846239 " />
			<path d="M35.1726419919305,-14.292238180505993 L31.869137744649436,-12.37326191630651 " />
			<path d="M40.3269181896281,-11.50393629314847 L34.38061054452219,-8.049779017589398 " />
			<path d="M8.799159437531705,-5.832535254167483 L7.147407313891175,-4.8730471220677405 " />
			<path d="M7.191816845613139,-8.599564309346434 L5.540064721972608,-7.640076177246691 " />
			<path d="M8.799159437531706,8.01422808853288 L7.1474073138911765,8.973716220632623 " />
			<path d="M7.191816845613141,5.247199033353932 L5.54006472197261,6.206687165453674 " />
			<path d="M56.70172084479849,16.685172206487078 L50.755413199692576,20.13932948204615 " />

       </g>

       <!-- solid lines -->
       <g  stroke="rgb(0,0,0)" fill="none">
			<path d="M1.3214016989124246,-21.328985045608135 L1.3214016989124246,-7.6213886856559085 " />
			<path d="M1.3214016989124246,-7.621388685655907 L-0.33035042472810616,-6.661900553556165 " />
			<path d="M-0.3303504247281062,7.045695806396063 L-0.33035042472810616,-6.6619005535561655 " />
			<path d="M1.3214016989124246,6.08620767429632 L-0.33035042472810616,7.045695806396062 " />
			<path d="M1.3214016989124246,6.086207674296318 L1.3214016989124246,19.793804034248545 " />
			<path d="M-1.3214016989124246,21.328985045608135 L1.3214016989124246,19.79380403424855 " />
			<path d="M-1.3214016989124246,-19.793804034248545 L-1.3214016989124246,21.328985045608135 " />
			<path d="M-1.3214016989124246,-19.793804034248545 L1.3214016989124246,-21.328985045608132 " />
			<path d="M1.3214016989124207,6.08620767429632 L1.4372586178172178,6.093398129466371 L1.5530799088746368,6.098478721382438 L1.6688299551934405,6.101447887681605 L1.7844731617912797,6.102304715297958 L1.8999739665407176,6.101048940743359 L2.0152968511051568,6.097680950188485 L2.1304063518612875,6.092201779344055 L2.2452670708047187,6.084613113142353 L2.359843686435429,6.074917285219069 L2.47410096461969,6.06311727719568 L2.5880037694251206,6.049216717762546 L2.7015170739255505,6.033219881563033 L2.8146059709723543,6.015131687878993 L2.9272356839289557,5.994957699118006 L3.039371577365201,5.972704119102847 L3.1509791677082966,5.948377791163722 L3.262024133847068,5.9219861960338225 L3.3724723276862387,5.893537449548889 L3.4822897846475183,5.863040300151461 L3.5914427341142487,5.8305041262005854 L3.6998976098164094,5.795938933087836 L3.807621060152776,5.7593553501604795 L3.914579958447071,5.720764627452795 L4.020741413134944,5.680178632226498 L4.126072777878654,5.637609845321382 L4.230541661606331,5.593071357317248 L4.334115938472754,5.546576864508351 L4.436763757738555,5.4981406646915705 L4.538453553564832,5.447777652769608 L4.639154054720145,5.3955033161705686 L4.738834294196918,5.341333730085328 L4.837463618734235,5.285285552524188 " />
			<path d="M4.8374636187342865,5.285285552524158 L4.9495090009301075,5.2185544323087125 L5.060079935384868,5.149390567649196 L5.1691314865299764,5.077822066452988 L5.276619336267906,5.003878013861774 L5.382499801982887,4.927588460431457 L5.486729854293347,4.848984409919742 L5.589267134538862,4.768097806686338 L5.69006997199455,4.684961522710902 L5.789097400805872,4.599609344233997 L5.886309176636992,4.512075958026516 L5.981665793025904,4.422396937293112 L6.075128497439698,4.330608727215399 L6.166659307023422,4.236748630140784 L6.256221024036162,4.140854790422946 L6.343777250968049,4.042966178920123 L6.4292924053320535,3.943122577157529 L6.5127317341245625,3.8413645611602987 L6.594061327948851,3.7377334849635617 L6.67324813479573,3.6322714638063345 L6.7502599734757345,3.5250213570160605 L6.825065546697436,3.4160267505907638 L6.89763445378652,3.305331939485869 L6.9679372030405045,3.192981909612928 L7.03594522371404,3.079022319557524 L7.101630877629941,2.9634994820238125 L7.1649674704112325,2.846460345013236 L7.225929262329624,2.7279524727450464 L7.284491478766037,2.608024026326403 L7.340630320278903,2.4867237441799017 L7.394322972276162,2.3641009222364855 L7.445547614287011,2.2402053939017694 L7.494283428829657,2.115087509803971 L7.540510609871458,1.9887981173316076 L7.5842103708780035,1.8613885399693362 L7.625364952447896,1.732910556440304 L7.663957629530086,1.6034163796634826 L7.699972718220872,1.4729586355345625 L7.7333955821377725,1.3415903415390065 L7.764212638367685,1.2093648852059569 L7.7924113629869325,1.0763360024117767 L7.817980296150932,0.9425577555420017 L7.840909046751424,0.8080845115206159 L7.861188296639382,0.6729709197155622 L7.8788098044118655,0.5372718897294635 L7.8937664087612935,0.40104256908458624 L7.906052031385767,0.2643383208111183 L7.915661679459271,0.1272147009478688 L7.922591447660734,-0.010272564035488485 L7.926838519761137,-0.14806759988540708 L7.928401169768017,-0.28611440727154164 L7.927278762626896,-0.42435688454463893 L7.923471754479379,-0.5627388505360142 L7.9169816924777665,-0.701204067389351 L7.907811214156305,-0.839696263415525 L7.8959640463593,-0.9781591559611891 L7.881445003726547,-1.116536474281811 L7.8642599867366805,-1.2547719824098655 L7.84441597930924,-1.3928095020088986 L7.8219210459664374,-1.5305929352041767 L7.796784328555767,-1.6680662873806251 L7.769016042534802,-1.8051736899388058 L7.738627472819664,-1.9418594229996873 L7.705630969198893,-2.078067938048969 L7.670039941314533,-2.213743880511769 L7.631868853212521,-2.348832112248493 L7.591133217464543,-2.4832777339627476 L7.547849588863808,-2.617026107512181 L7.502035557697233,-2.7500228781131995 L7.453709742596833,-2.882213996430529 L7.40289178297318,-3.013545740542637 L7.349602331034033,-3.1439647377740987 L7.293863043391365,-3.2734179863860335 L7.235696572260204,-3.401852877115785 L7.175126556252871,-3.5292172145571143 L7.112177610772341,-3.655459238372192 L7.046875318008647,-3.780527644326787 L6.979246216542387,-3.9043716051400916 L6.909317790559555,-4.026940791140722 L6.837118458682076,-4.14818539072048 L6.7626775624186015,-4.268056130577587 L6.686025354240244,-4.386504295741157 L6.607192985286091,-4.503481749368749 L6.526212492703517,-4.61894095230898 L6.443116786628419,-4.732834982421247 L6.357939636810674,-4.845117553644679 L6.270715658890254,-4.955743034808608 L6.181480300329566,-5.064666468176883 L6.090269826007764,-5.171843587718513 L5.997121303482839,-5.277230837097191 L5.902072587927527,-5.3807853873724145 L5.80516230674512,-5.482465154404981 L5.706429843871451,-5.582228815959816 L5.605915323769423,-5.68003582849915 L5.5036595951226,-5.775846443659258 L5.399704214234465,-5.869621724404007 L5.29409142814011,-5.961323560848728 L5.1868641574372285,-6.050914685747898 L5.078065978843351,-6.138358689640404 L4.96774110748645,-6.223620035646196 L4.855934378936096,-6.306664073908321 L4.742691230982471,-6.3874570556744885 L4.62805768517064,-6.465966147012418 L4.5120803280975785,-6.542159442153414 L4.394806292479583,-6.616005976458743 L4.276283237997721,-6.687475739003522 L4.1565593319291425,-6.756539684773051 L4.035683229572096,-6.823169746466569 L3.913704054472615,-6.887338845903699 L3.790671378460916,-6.949020905028908 L3.6666352015056107,-7.008190856509511 L3.5416459313939277,-7.064824653922946 L3.4157543632461937,-7.118899281529128 L3.2890116588729157,-7.170392763623951 L3.161469325982827,-7.219284173470131 L3.033179197250365,-7.265553641801738 L2.904193409251095,-7.3091823648989855 L2.7745643812736205,-7.350152612229985 L2.6443447940165976,-7.388447733656358 L2.513587568179524,-7.424052166199786 L2.382345842955983,-7.456951440366739 L2.2506729544380977,-7.4871321860288145 L2.1186224139409617,-7.5145821378563085 L1.9862478862558643,-7.539290140302791 L1.8536031678411418,-7.561246152138672 L1.7207421649595256,-7.580441250531919 L1.5877188717708555,-7.596867634674256 L1.4545873483890743,-7.610518628951379 L1.321401698912457,-7.621388685655905 " />
			<path d="M1.3214016989124246,19.793804034248545 L45.1520104156537,22.912753400108546 " />
			<path d="M47.80642574993878,23.38244112537015 L47.472977607094684,23.34365018190023 L47.13981647613945,23.299139342860276 L46.80703418205829,23.2489208762094 L46.47472244542238,23.19300862302788 L46.14297285710913,23.131417993702296 L45.81187685305814,23.06416596367817 L45.4815256890698,22.99127106878122 L45.15201041565377,22.91275340010861 " />
			<path d="M47.80642574993878,18.482900275462075 L47.80642574993878,23.382441125370146 " />
			<path d="M47.80642574993879,-13.402410615993936 L47.5591250198885,-13.406121850375886 L47.31207181788202,-13.405687707326276 L47.06533016501244,-13.401108299348461 L46.81896400163833,-13.392384813145146 L46.57303717081431,-13.379519509310885 L46.32761340174688,-13.362515721746263 L46.082756293279665,-13.341377856793944 L45.838529297412485,-13.316111392096843 L45.59499570285848,-13.286722875178622 L45.35221861864355,-13.253219921747004 L45.110260957752324,-13.21561121372022 L44.869185420825005,-13.173906496977203 L44.62905447990914,-13.12811657883205 L44.389930362270746,-13.078253325233423 L44.151875034268755,-13.024329657689613 L43.914950185297116,-12.966359549920089 L43.67921721179872,-12.904358024234355 L43.444737201355174,-12.838341147639095 L43.2115709168566,-12.768326027674565 L42.97977878075565,-12.694330807981391 L42.74942085940969,-12.616374663598826 L42.52055684751525,-12.534477795995759 L42.29324605263883,-12.448661427835738 L42.06754737984798,-12.358947797477331 L41.84351931644673,-12.265360153211319 L41.621219916819236,-12.167922747236162 L41.400706787385644,-12.066660829373287 L41.18203707167402,-11.961600640523915 L40.965267435512246,-11.85276940586899 L40.75045405234367,-11.740195327814092 L40.53765258867045,-11.623907578681095 L40.32691818962816,-11.503936293148506 " />
			<path d="M40.3269181896281,-11.50393629314847 L40.07063666848291,-11.35136966987718 L39.817665302498206,-11.193337405236342 L39.568103263384664,-11.029901452206154 L39.322048386303365,-10.861125882160799 L39.07959713151173,-10.687076859750729 L38.84084454654844,-10.507822616964287 L38.605884228972215,-10.323433426378891 L38.37480828966898,-10.133981573612306 L38.1477073167419,-9.939541328984632 L37.92467033999834,-9.740188918402339 L37.70578479604775,-9.536002493475646 L37.491136494024104,-9.327062100880887 L37.28080958194639,-9.113449650980066 L37.07488651373026,-8.89524888570974 L36.87344801686385,-8.672545345751875 L36.67657306076035,-8.44542633699955 L36.4843388257999,-8.213980896330668 L36.296820673072716,-7.978299756703069 L36.11409211483547,-7.738475311584682 L35.9362247856925,-7.4946015787327775 L35.76328841451307,-7.246774163336457 L35.59535079709575,-6.995090220536739 L35.43247776959056,-6.739648417339118 L35.27473318268946,-6.480548893933405 L35.12217887659509,-6.217893224435987 L34.974874656777715,-5.951784377070012 L34.832878270529854,-5.682326673799044 L34.69624538432775,-5.409625749429941 L34.56502956200859,-5.133788510201164 L34.439282243772006,-4.854923091872578 L34.319052726014114,-4.5731388173332705 L34.20438814200196,-4.2885461537439715 L34.09533344339603,-4.0012566692309335 L33.991931382627904,-3.7113829891481425 L33.894222496140166,-3.419038751925073 L33.80224508849503,-3.1243385645173385 L33.71603521735783,-2.8273979574776282 L33.635626679361515,-2.5283333396645293 L33.561050996857375,-2.2272619526070825 L33.49233740555746,-1.9243018245429049 L33.429512843073326,-1.6195717241478516 L33.37260193835581,-1.3131911139754577 L33.321627002039776,-1.0052801036243508 L33.27660801769774,-0.6959594026519742 L33.237562634005755,-0.3853502732531351 L33.20450615782467,-0.07357448272192357 L33.17745154819938,0.23924574428442025 L33.15640941127857,0.5529877736609623 L33.14138799615678,0.8675286099309236 L33.132393191640546,1.1827449444633331 L33.129428523939836,1.4985132038134146 L33.13249515528567,1.8147095981666925 L33.141591883474476,2.1312101698680403 L33.15671514233943,2.4478908420165024 L33.17785900314844,2.764627467106777 L33.20501517692842,3.08129587569847 L33.23817301771476,3.39777192509397 L33.27731952672484,3.713931548005702 L33.32243935745393,4.029650801193945 L33.37351482169143,4.3448059140560265 L33.430525896455116,4.659273337147705 L33.49345023184072,4.972929790617982 L33.5622631597837,5.285652312538227 L33.6369377037298,5.597318307106535 L33.71744458921058,5.9078055927087085 L33.803752255319836,6.21699244981677 L33.89582686708633,6.524757668706355 L33.993632328738016,6.830980596974297 L34.097130297852594,7.13554118683759 L34.20628020038876,7.438320042195458 L34.32103924659239,7.739198465435939 L34.44136244777123,8.038058503968518 L34.56720263393177,8.33478299646482 L34.698510472271124,8.62925561878911 L34.835234486516846,8.921360929600443 L34.97732107710706,9.210984415608895 L35.12471454220295,9.498012536467943 L35.2773570995254,9.782332769285311 L35.435188909007245,10.063833652735081 L35.59814809625221,10.342404830753607 L35.766170776791355,10.61793709580206 L35.939191081127554,10.8903224316788 L36.11714118055817,11.159454055864746 L36.29995131376572,11.425226461384945 L36.487549814166215,11.68753545817027 L36.679863138004514,11.946278213902794 L36.87681589318538,12.201353294328822 L37.07833086882931,12.452660703023923 L37.28432906554134,12.700101920594317 L37.494729726380896,12.943579943299088 L37.70945036852078,13.18299932107838 L37.928406815582726,13.418266194972428 L38.151513230636766,13.649288333916815 L38.37868214985174,13.87597517089958 L38.609824516783476,14.098237838466023 L38.84484971728737,14.315989203557116 L39.08366561504158,14.529143901668078 L39.326178587667066,14.737618370313609 L39.57229356343004,14.941330881786659 L39.821914058512775,15.140201575197967 L40.07494221483783,15.334152487783658 L40.33127883843115,15.523107585468825 L40.59082343830883,15.706992792674978 L40.85347426587229,15.885736021359673 L41.11912835479654,16.05926719927701 L41.38768156139581,16.227518297447887 L41.65902860545071,16.3904233568292 L41.933063111481,16.54791851417165 L42.209677650447645,16.699942027055805 L42.48876378186797,16.84643429809689 L42.770212096327334,16.987337898308578 L43.05391225837053,17.1225975896167 L43.33975304975639,17.252160346514117 L43.62762241305837,17.37597537684816 L43.917407495594084,17.493994141732543 L44.20899469366675,17.606170374575953 L44.502269697100836,17.71246009921979 L44.797117534054834,17.812821647178062 L45.093422616093434,17.90721567397256 L45.39106878350125,17.995605174556957 L45.68993935082066,18.07795549782383 L45.989917152595766,18.154234360188823 L46.290884589304355,18.2244118582467 L46.5927236734602,18.2884604804943 L46.895316075867406,18.346355118115813 L47.198543172008634,18.398073074826108 L47.50228608854922,18.443594075768303 L47.80642574993863,18.482900275462057 " />
			<path d="M47.80642574993878,-18.301951465902015 L47.80642574993878,-13.40241061599394 " />
			<path d="M45.15201041565369,-18.210035679748174 L45.4815256890698,-18.24165728728215 L45.81187685305814,-18.267537158495937 L46.142972857109136,-18.287668160448224 L46.47472244542238,-18.30204474468578 L46.80703418205828,-18.310662948772677 L47.139816476139444,-18.313520397382412 L47.47297760709468,-18.310616302952592 L47.806425749938754,-18.30195146590201 " />
			<path d="M1.3214016989124246,-21.328985045608135 L45.15201041565369,-18.210035679748135 " />
			<path d="M9.505661511758051,-7.108587110961788 L9.502311130698383,-7.213119909784552 L9.492274853432743,-7.317665708687648 L9.475597211739968,-7.421760629454934 L9.452352205673229,-7.524942794453245 L9.422642975215783,-7.626754376021026 L9.386601342640473,-7.726743627886924 L9.344387227603576,-7.8244668896047465 L9.29618793756828,-7.919490555110962 L9.242217336706222,-8.011392996670084 L9.182714896964766,-8.099766435671237 L9.117944635510483,-8.184218751975035 L9.048193943263504,-8.264375223782542 L8.97377230972062,-8.33988019030639 L8.895009949725202,-8.41039862986662 L8.812256338277079,-8.475617646409146 L8.725878659883529,-8.535247857851 L8.636260179331734,-8.589024680092175 L8.543798541111743,-8.636709500996819 L8.448904005035514,-8.678090739134685 L8.351997625880749,-8.712984782585156 L8.253509385136578,-8.741236803638273 L8.153876283140718,-8.762721445777888 L8.05354040007341,-8.77734337989872 L7.952946934411688,-8.78503772728936 L7.85254222754752,-8.785770347504378 L7.752771783334729,-8.779537989848272 L7.654078291352145,-8.76636830779906 L7.55689966265393,-8.746319736307552 L7.461667086722593,-8.719481232516712 L7.3688031182461735,-8.685971881051586 L7.278719802208715,-8.645940365631127 L7.191816845613145,-8.599564309346437 " />
			<path d="M7.19181684561314,-8.599564309346434 L7.130048546086912,-8.56145481328204 L7.070365166349765,-8.520104118653139 L7.012910488891131,-8.475611842904986 L6.957822927061445,-8.42808517182692 L6.905235191622253,-8.377638601332414 L6.855273971034372,-8.324393661628386 L6.808059626254284,-8.26847862443829 L6.76370590077405,-8.210028193984295 L6.722319646603282,-8.149183182473017 L6.684000566853284,-8.086090170866584 L6.6488409755435285,-8.020901155756246 L6.616925575209098,-7.9537731831892895 L6.588331252844857,-7.884867970331344 L6.563126894677946,-7.814351515875568 L6.541373220214833,-7.742393700137258 L6.523122635962695,-7.669167875797288 L6.508419109177557,-7.594850450280316 L6.497298061943322,-7.519620460773853 L6.489786285836867,-7.443659142911986 L6.4859018773847845,-7.367149494162872 L6.485654194467271,-7.2902758329718 L6.489043833774168,-7.213223354721918 L6.496062629367489,-7.136177685582328 L6.506693672353875,-7.059324435318393 L6.520911351619603,-6.982848750141547 L6.538681415529999,-6.9069348666758605 L6.559961054444631,-6.831765668115874 L6.584699003849477,-6.757522243644959 L6.612835667857632,-6.684383452175626 L6.644303262781018,-6.612525491462726 L6.67902598042723,-6.542121473627629 L6.716920170728109,-6.473341008115964 L6.757894543260078,-6.406349793093606 L6.801850387170779,-6.34130921626528 L6.848681808982152,-6.278375966077449 L6.898275987697108,-6.217701654242115 L6.950513446595184,-6.1594324504909315 L7.005268341062433,-6.103708730439517 L7.06240876176212,-6.050664737410296 L7.121797052415872,-6.000428259028579 L7.183290141429703,-5.953120319370987 L7.24673988656602,-5.908854887407837 L7.311993431831251,-5.867738602441924 L7.378893575719313,-5.8298705172050935 L7.447279149923821,-5.795341859231531 L7.516985407606646,-5.76423581108265 L7.587844420287484,-5.736627309953009 L7.659685482398273,-5.712582867140047 L7.732335522527851,-5.692160407812546 L7.805619520366154,-5.675409131463822 L7.879360928343469,-5.662369393385838 L7.953382096948996,-5.6530726074497695 L8.027504702704073,-5.647541170427238 L8.101550177759066,-5.645788408034529 L8.175340140078948,-5.64781854282977 L8.248696823181254,-5.653626684040419 L8.321443504391102,-5.663198839345569 L8.393404930581601,-5.676511948584665 L8.464407740373984,-5.693533939311462 L8.534280881780349,-5.714223804059348 L8.602856024282882,-5.7385316991319275 L8.669967964356822,-5.766399064680849 L8.735455023460219,-5.797758765781614 L8.799159437531694,-5.832535254167478 " />
			<path d="M8.799159437531705,-5.832535254167484 L8.878186648020137,-5.882124182512954 L8.953700234276043,-5.937022866426893 L9.025399610805492,-5.997012779034354 L9.092999374761426,-6.061855127577557 L9.156230442003553,-6.131291803942043 L9.214841118200807,-6.205046412068546 L9.268598100712858,-6.282825368160922 L9.317287407262583,-6.364319069310692 L9.360715227702906,-6.4492031258864415 L9.398708695487494,-6.537139652782483 L9.431116575774425,-6.627778614386918 L9.45780986742382,-6.720759217915374 L9.478682316493138,-6.815711349564182 L9.49365083918615,-6.912257047766338 L9.502655852572019,-7.010012007685849 L9.50566151175805,-7.108587110961785 " />
			<path d="M9.505661511758053,6.738176231738579 L9.502311130698384,6.6336434329158145 L9.492274853432745,6.529097634012719 L9.47559721173997,6.425002713245433 L9.45235220567323,6.321820548247122 L9.422642975215785,6.220008966679341 L9.386601342640475,6.120019714813443 L9.34438722760358,6.0222964530956204 L9.29618793756828,5.927272787589405 L9.242217336706224,5.835370346030284 L9.182714896964768,5.746996907029131 L9.117944635510485,5.662544590725333 L9.048193943263506,5.582388118917825 L8.973772309720621,5.506883152393977 L8.895009949725203,5.436364712833746 L8.81225633827708,5.3711456962912205 L8.72587865988353,5.311515484849369 L8.636260179331735,5.257738662608192 L8.543798541111745,5.210053841703547 L8.448904005035516,5.168672603565681 L8.35199762588075,5.1337785601152115 L8.25350938513658,5.105526539062095 L8.15387628314072,5.084041896922479 L8.053540400073413,5.069419962801646 L7.95294693441169,5.061725615411007 L7.852542227547522,5.060992995195988 L7.7527717833347305,5.067225352852095 L7.654078291352147,5.080395034901306 L7.556899662653932,5.100443606392816 L7.461667086722595,5.127282110183655 L7.368803118246175,5.160791461648781 L7.278719802208717,5.20082297706924 L7.191816845613147,5.24719903335393 " />
			<path d="M7.1918168456131415,5.247199033353932 L7.130048546086914,5.285308529418327 L7.070365166349767,5.326659224047227 L7.012910488891133,5.371151499795381 L6.9578229270614464,5.418678170873447 L6.905235191622255,5.469124741367953 L6.855273971034374,5.5223696810719805 L6.808059626254286,5.5782847182620765 L6.763705900774052,5.636735148716072 L6.7223196466032835,5.69758016022735 L6.684000566853285,5.760673171833784 L6.64884097554353,5.825862186944121 L6.6169255752091,5.892990159511077 L6.588331252844859,5.961895372369023 L6.563126894677948,6.032411826824799 L6.541373220214835,6.104369642563109 L6.523122635962697,6.177595466903079 L6.5084191091775585,6.251912892420051 L6.497298061943324,6.327142881926514 L6.4897862858368685,6.403104199788381 L6.485901877384786,6.479613848537495 L6.485654194467273,6.556487509728567 L6.489043833774169,6.633539987978449 L6.496062629367491,6.710585657118039 L6.506693672353877,6.787438907381974 L6.5209113516196044,6.86391459255882 L6.538681415530001,6.939828476024506 L6.559961054444633,7.014997674584493 L6.584699003849479,7.089241099055408 L6.612835667857634,7.162379890524741 L6.64430326278102,7.234237851237641 L6.679025980427232,7.3046418690727375 L6.716920170728111,7.3734223345844025 L6.75789454326008,7.4404135496067605 L6.801850387170781,7.505454126435087 L6.848681808982154,7.568387376622918 L6.89827598769711,7.629061688458252 L6.950513446595186,7.687330892209435 L7.005268341062434,7.74305461226085 L7.062408761762121,7.796098605290071 L7.121797052415873,7.846335083671788 L7.183290141429705,7.89364302332938 L7.246739886566022,7.93790845529253 L7.311993431831253,7.979024740258443 L7.378893575719315,8.016892825495274 L7.447279149923823,8.051421483468836 L7.516985407606648,8.082527531617716 L7.587844420287486,8.110136032747358 L7.659685482398275,8.13418047556032 L7.732335522527853,8.154602934887821 L7.805619520366156,8.171354211236546 L7.879360928343471,8.18439394931453 L7.953382096948998,8.193690735250598 L8.027504702704075,8.199222172273128 L8.101550177759067,8.200974934665837 L8.17534014007895,8.198944799870597 L8.248696823181255,8.193136658659947 L8.321443504391103,8.183564503354798 L8.393404930581603,8.170251394115702 L8.464407740373986,8.153229403388906 L8.53428088178035,8.13253953864102 L8.602856024282884,8.10823164356844 L8.669967964356825,8.080364278019518 L8.735455023460222,8.049004576918753 L8.799159437531696,8.014228088532889 " />
			<path d="M8.799159437531706,8.014228088532882 L8.878186648020138,7.964639160187413 L8.953700234276045,7.909740476273474 L9.025399610805493,7.849750563666013 L9.092999374761428,7.78490821512281 L9.156230442003555,7.715471538758324 L9.214841118200809,7.641716930631821 L9.268598100712861,7.563937974539445 L9.317287407262585,7.4824442733896745 L9.360715227702908,7.397560216813925 L9.398708695487496,7.309623689917884 L9.431116575774427,7.2189847283134485 L9.457809867423821,7.126004124784993 L9.47868231649314,7.031051993136185 L9.493650839186152,6.934506294934029 L9.502655852572023,6.836751335014518 L9.505661511758053,6.738176231738582 " />
			<path d="M3.973054022808741,5.698694408517315 L4.067533846757207,5.619656411707803 L4.160425763069635,5.538658659004393 L4.251696232031441,5.45573039559456 L4.3413122993706015,5.370901563699285 L4.429241608156182,5.284202791762071 L4.515452410481179,5.195665383390169 L4.599913578925482,5.1053213060520655 L4.682594617794789,5.013203179535231 L4.763465674131432,4.919344264168379 L4.842497548493144,4.823778448812433 L4.919661705495853,4.7265402386245485 L4.99493028411672,4.627664742599628 L5.068276107753685,4.527187660893809 L5.139672694037901,4.425145271934496 L5.209094264395502,4.3215744193216175 L5.276515753355261,4.21651249852481 L5.3419128175987645,4.109997443381343 L5.405261844749863,4.002067712399667 L5.46653996190019,3.8927622748735144 L5.525725043867694,3.7821205968115845 L5.582795721185196,3.670182626687871 L5.637731387816087,3.556988781017808 L5.690512208594376,3.4425799297654014 L5.741119126386408,3.326997381586661 L5.789533868971673,3.2102828689146197 L5.835738955640196,3.09247853289135 L5.8797177035041575,2.9736269081524154 L5.921454233521444,2.853770907469235 L5.960933476228962,2.7329538062549323 L5.998141177183647,2.6112192269392334 L6.033063902109191,2.488611123218083 L6.065689041746652,2.3651737641836434 L6.096004816407171,2.2409517183404257 L6.124000280225167,2.1159898375133004 L6.14966532511047,1.9903332406532304 L6.172990684397966,1.8640272975465404 L6.193967936193435,1.7371176124336203 L6.212589506414377,1.609650007542991 L6.228848671524714,1.4816705065466356 L6.2427395609624154,1.3532253179426315 L6.2542571592591205,1.224360818371018 L6.263397307851039,1.0951235358689717 L6.270156706580449,0.9655601330713142 L6.274532914887255,0.8357173903624198 L6.27652435269018,0.7056421889856109 L6.276130300957279,0.5753814941161315 L6.273350901965544,0.44498233790382863 L6.268187159249543,0.31449180249163877 L6.260640937239073,0.18395700301602697 L6.250714960585993,0.053425070595515045 L6.238412813180456,-0.07705686468655437 L6.223738936856893,-0.20744169079889185 L6.206698629790256,-0.3376823307726141 L6.18729804458303,-0.467731759698932 L6.165544186043777,-0.5975430217080435 L6.141444908657961,-0.7270692469231007 L6.115008913752001,-0.8562636683831314 L6.086245746351541,-0.985079638928798 L6.055165791735127,-1.1134706480448955 L6.021780271684464,-1.241390338653522 L5.9861012404326654,-1.368792523851846 L5.948141580311936,-1.4956312035884247 L5.907914997102247,-1.6218605812720632 L5.865436015082706,-1.747435080307214 L5.820719971787399,-1.8723093605499344 L5.773783012467596,-1.9964383346784782 L5.724642084262306,-2.119777184472608 L5.67331493007933,-2.2422813769957277 L5.619820082188969,-2.363906680674029 L5.564176855532726,-2.4846091812668205 L5.5064053407494296,-2.6043452977222676 L5.446526396921267,-2.7230717979128545 L5.384561644042369,-2.8407458142448445 L5.3205334552126615,-2.9573248591361287 L5.25446494855979,-3.072766840356861 L5.186379978892055,-3.1870300762273547 L5.116303129085349,-3.3000733106677425 L5.044259701207219,-3.4118557280939648 L4.97027570738127,-3.522336968154714 L4.89437786039517,-3.6314771403040114 L4.816593564055694,-3.739236838204161 L4.736950903294251,-3.8455771539538683 L4.6554786340265,-3.9504596921363846 L4.5722061727696826,-4.053846583682636 L4.487163586021443,-4.155700499544284 L4.400381579403975,-4.255984664171821 L4.311891486577393,-4.35466286879281 L4.221725257926343,-4.451699484485492 L4.129915449023948,-4.547059475043014 L4.036495208877238,-4.6407084096236755 L3.9414982679583037,-4.732612475182578 L3.844958926025524,-4.8227384886802245 L3.7469120397392315,-4.911053909063643 L3.647393010076308,-4.997526849015719 L3.546437769548245,-5.082126086468479 L3.4440827692272973,-5.164821075876186 L3.3403649655853846,-5.245581959244171 L3.2353218071505347,-5.324379576909404 L3.1289912209856463,-5.40118547806894 L3.0214115989944856,-5.475971931052406 L2.912621784059828,-5.5487119333348565 L2.8026610560188012,-5.619379221286337 L2.6915691174804155,-5.68794827965469 L2.579386079490484,-5.754394350778128 L2.466152447049068,-5.818693443524274 L2.351909104485655,-5.8808223419524515 L2.236697300697396,-5.940758613696063 L2.1205586342557265,-5.998480618062057 L2.00353503838669,-6.053967513844567 L1.8856687658304647,-6.107199266849857 L1.7670023735855303,-6.158156657129911 L1.6475787075429424,-6.20682128592202 L1.527440887016337,-6.253175582291866 L1.4066322891731902,-6.297202809477723 L1.2851965333729847,-6.3388870709334455 L1.163177465417941,-6.37821331606812 L1.0406191417219541,-6.415167345680244 L0.9175658134035254,-6.449735817084524 L0.7940619103083786,-6.481906248929398 L0.6701520249675343,-6.511667025703585 L0.5458808964966589,-6.53900740192999 L0.4212933944424827,-6.563917506045496 L0.2964345025821231,-6.5863883439651945 L0.17134930268117599,-6.606411802329817 L0.0460829582163938,-6.623980651435153 L-0.07931930193110054,-6.6390885478424195 L-0.20481219980622856,-6.651730036668634 L-0.3303504247280744,-6.661900553556163 " />
			<path d="M-1.3214016989124246,21.328985045608135 L42.509207017828615,24.447934411468122 " />
			<path d="M45.15201041565346,22.91275340010853 L42.50920701782861,24.44793441146812 " />
			<path d="M41.86011810483287,26.83659840092922 L41.57505255900801,26.803792883198327 L41.290187011299764,26.766806162493154 L41.00557883825145,26.72564568853938 L40.721285364566974,26.68031975172429 L40.43736385156463,26.63083748142698 L40.153871485643826,26.57720884417956 L39.87086536676679,26.51944464165969 L39.58840249695769,26.457556508515005 L39.30653976882152,26.39155691001966 L39.02533395408503,26.321459139563665 L38.74484169216189,26.247277315975317 L38.46511947874473,26.16902638067753 L38.18622365442588,26.086722094678287 L37.908210393349485,26.000381035396202 L37.63113569189716,25.910020593321512 L37.35505535740938,25.815658968513382 L37.08002499694496,25.717315166934064 L36.806100006080904,25.61500899662086 L36.53333555775489,25.508761063696404 L36.26178659115247,25.398592768218286 L35.99150780064144,25.28452629986871 L35.72255362475554,25.16658463348515 L35.45497823522963,25.04479152443286 L35.18883552608866,24.919171503820124 L34.92417910279243,24.78974987355729 L34.66106227143872,24.656552701260594 L34.399538028026484,24.51960681500168 L34.13965904778161,24.37893979790401 L33.88147767454733,24.2345799825872 L33.625045910241276,24.08655644546031 L33.37041540438141,23.934899000865435 L33.11763744368322,23.779638195072685 " />
			<path d="M47.80642574993878,23.38244112537015 L41.86011810483287,26.836598400929223 " />
			<path d="M41.86011810483288,-9.948253340434865 L41.58663870650268,-9.952114872970842 L41.31347034055612,-9.950906416806815 L41.04069958385403,-9.944628354945923 L40.768412887240615,-9.933282677131327 L40.49669654814405,-9.916872979215592 L40.22563668322575,-9.895404462021032 L39.95531920108691,-9.868883929691382 L39.685829775040936,-9.83731978753532 L39.41725381596057,-9.800722039362523 L39.14967644520806,-9.759102284313105 L38.88318246765717,-9.712473713181422 L38.6178563448155,-9.660851104235455 L38.35378216805553,-9.604250818533027 L38.091043631963096,-9.5426907947364 L37.829724007811585,-9.476190543426886 L37.569906117170305,-9.40477114092124 " />
			<path d="M47.80642574993878,-13.402410615993936 L41.86011810483287,-9.948253340434864 " />
			<path d="M7.853909388117519,-6.149098978862045 L7.852794791442934,-6.089000871626932 L7.8494526466948376,-6.029150103789626 L7.843887887271605,-5.969635022116295 L7.836108727412038,-5.91054347786088 L7.8261266500701865,-5.851962697086328 L7.813956389965165,-5.793979151908667 L7.799615911830971,-5.736678432854008 L7.783126383898428,-5.6801451225168735 " />
			<path d="M6.556097775605887,-7.79246630889731 L6.622665289466644,-7.776342536740199 L6.688676109324065,-7.757185547948753 L6.753998489135982,-7.735033576519438 L6.818502056866054,-7.7099308339098345 L6.882058074683536,-7.68192742080031 L6.94453969590145,-7.651079227101828 L7.005822218140376,-7.617447820409467 L7.06578333221257,-7.581100323124279 L7.124303366229692,-7.542109278488728 L7.181265524446954,-7.500552505803072 L7.23655612036698,-7.456512945111663 L7.290064803638155,-7.410078491669134 L7.341684780294613,-7.361341820516859 L7.391313025898298,-7.310400201519789 L7.438850491157712,-7.257355305232825 L7.484202299612964,-7.202312999984196 L7.527277936992572,-7.145383140580794 L7.567991431864113,-7.086679349057217 L7.6062615272181455,-7.026318787906073 L7.6420118426429875,-6.964421926242151 L7.675171026766641,-6.901112299367157 L7.705672899661644,-6.836516262214874 L7.733456584928621,-6.7707627371688295 L7.758466631194925,-6.703982956755784 L7.780653122785863,-6.63631020172858 L7.799971779347656,-6.567879535061088 L7.816384044223263,-6.498827532386151 L7.82985716140473,-6.429292009414524 L7.840364240908443,-6.359411746878842 L7.847884312442828,-6.289326213551571 L7.852402367261385,-6.219175287889741 L7.853909388117519,-6.1490989788620505 " />
			<path d="M7.853909388117521,7.697664363838321 L7.8527947914429355,7.757762471073434 L7.849452646694839,7.81761323891074 L7.843887887271607,7.877128320584071 L7.836108727412039,7.936219864839486 L7.826126650070188,7.994800645614038 L7.813956389965167,8.0527841907917 L7.799615911830973,8.110084909846359 L7.783126383898429,8.166618220183492 " />
			<path d="M6.556097775605889,6.054297033803056 L6.622665289466646,6.070420805960167 L6.688676109324067,6.089577794751613 L6.753998489135983,6.111729766180928 L6.8185020568660555,6.1368325087905315 L6.882058074683537,6.164835921900055 L6.944539695901452,6.195684115598538 L7.005822218140378,6.2293155222909 L7.065783332212572,6.265663019576087 L7.124303366229694,6.304654064211638 L7.181265524446956,6.346210836897294 L7.2365561203669815,6.390250397588703 L7.290064803638157,6.436684851031232 L7.341684780294615,6.485421522183507 L7.3913130258983,6.536363141180578 L7.438850491157714,6.589408037467541 L7.484202299612965,6.64445034271617 L7.527277936992574,6.701380202119573 L7.567991431864114,6.760083993643149 L7.606261527218147,6.820444554794293 L7.642011842642989,6.882341416458215 L7.675171026766643,6.945651043333209 L7.7056728996616455,7.010247080485492 L7.733456584928623,7.0760006055315365 L7.758466631194927,7.142780385944582 L7.780653122785865,7.210453140971786 L7.799971779347658,7.278883807639278 L7.816384044223264,7.347935810314215 L7.829857161404732,7.417471333285842 L7.840364240908444,7.487351595821524 L7.8478843124428295,7.557437129148795 L7.852402367261387,7.627588054810625 L7.853909388117521,7.6976643638383155 " />
			<path d="M49.22221328448781,-18.201205212031542 L49.22221328448781,-13.301664362123468 " />
			<path d="M49.22221328448781,-18.20120521203154 L49.42193145595412,-18.17866252717022 L49.621559912604525,-18.154066858984212 L49.82107892174324,-18.127420638684203 L50.02046876149312,-18.09872650017202 L50.219709722744994,-18.0679872797803 L50.41878211110592,-18.03520601599209 L50.6176662488459,-18.000385949140544 L50.816342476842955,-17.963530521088583 L51.01479115652639,-17.924643374888717 L51.212992671818014,-17.883728354422907 L51.41092743107109,-17.840789504022627 L51.60857586900697,-17.795831068069095 L51.80591844864904,-17.7488574905737 L52.00293566325387,-17.699873414738782 L52.19960803823947,-17.648883682498585 L52.3959161331102,-17.595893334040728 L52.59184054337848,-17.540907607307933 L52.78736190248284,-17.483931937480307 L52.98246088370225,-17.424971956438082 L53.17711820206652,-17.364033492204904 L53.371314616262545,-17.30112256837177 L53.565030930536274,-17.236245403501606 L53.75824799659014,-17.169408410514578 L53.95094671547583,-17.10061819605419 L54.14310803948213,-17.02988155983424 L54.33471297401776,-16.95720549396671 L54.525742579488956,-16.88259718227057 L54.71617797317153,-16.806063999561708 L54.90600033107745,-16.72761351092396 L55.09519088981546,-16.647253470961296 L55.283730948445864,-16.56499182303132 L55.47160187032898,-16.48083669846008 L55.84526208984154,-16.30687947969922 L56.216023811074805,-16.12545059365144 L56.583740442754824,-15.936621773427287 L56.94826659757108,-15.740467677913411 L57.309458149659534,-15.537065862254007 L57.66717229158692,-15.326496747187175 L58.021267590813764,-15.108843587248284 L58.37160404561375,-14.884192437852903 L58.7180431404275,-14.652632121272312 L59.060447900628574,-14.414254191515091 L59.39868294668039,-14.169152898128601 L59.732614547662365,-13.917425148934736 L60.06211067414427,-13.659170471714628 L60.38704105038788,-13.394490974857504 L60.70727720585516,-13.123491306989177 L61.02269252600287,-12.84627861559624 L61.33316230234315,-12.562962504662227 L61.63856378175065,-12.273654991332535 L61.938776214996494,-11.978470461625225 L62.23368090448997,-11.677525625205256 L62.52316125120896,-11.370939469239943 L62.80710280080076,-11.058833211354003 L63.085393288834894,-10.741330251702657 L63.357922685190005,-10.418556124181869 L63.624583237557516,-10.090638446794916 L63.885269514044516,-9.757706871194937 L64.13987844485932,-9.419893031423456 L64.38830936306306,-9.07733049186508 L64.63046404437122,-8.730154694438994 L64.86624674598947,-8.378502905048109 L65.09556424446826,-8.022514159307061 L65.31832587256146,-7.662329207570504 L65.53444355507416,-7.298090459283393 L65.74383184368585,-6.929941926675361 L65.94640795073472,-6.558029167821338 L66.14209178195024,-6.182499229090992 L66.33080596812069,-5.803500587009746 L66.51247589568328,-5.421183089554318 L66.68702973622479,-5.0356978969060195 L66.85439847488095,-4.647197421685267 L67.01451593762353,-4.255835268690866 L67.16731881742403,-3.8617661741679603 L67.312746699284,-3.4651459446286106 L67.45074208412183,-3.0661313952492417 L67.58125041150663,-2.6648802878692504 L67.70422008123029,-2.261551268615352 L67.81960247370912,-1.856303805176271 L67.92735196920694,-1.4492981237526523 L68.02742596587217,-1.0406951457069997 L68.11978489658173,-0.630656423938825 L68.20439224458501,-0.2193440790100829 L68.28121455794178,0.19307926495385752 L68.35022146274845,0.6064505445623096 L68.41138567514719,1.0206063216310641 L68.46468301211344,1.4353828478023338 L68.5100924010173,1.8506161292874186 L68.54759588795527,2.2661419917062746 L68.57717864484879,2.6817961449986076 L68.59882897530697,3.097414248380664 L68.61253831925109,3.5128319753220603 L68.61830125629902,3.927885078516957 L68.61611550790846,4.342409454823964 L68.60598193827765,4.75624121014905 L68.58790455400384,5.169216724245734 L68.56189050249905,5.581172715407028 L68.52795006916422,5.9919463050235695 L68.5080115305668,6.196838925760945 L68.48609667332252,6.401375081982349 L68.46220766365164,6.605534555880126 L68.43634686291368,6.809297166880588 L68.40851682737404,7.012642773638773 L68.37872030795127,7.215551276029388 L68.34696024994516,7.418002617133657 L68.3132397927456,7.619976785221872 L68.2775622695223,7.82145381573149 L68.23993120689528,8.022413793240588 L68.20035032458625,8.22283685343643 L68.15882353505103,8.422703185079019 L68.11535494309264,8.62199303195935 L68.06994884545576,8.82068669485226 L68.02260973040183,9.01876453346367 L67.97334227726552,9.216206968371951 L67.9221513559921,9.412994482963283 L67.86904202665615,9.609107625360828 L67.81401953896129,9.804527010347496 L67.75708933172137,9.999233321282107 L67.69825703232274,10.193207312008786 L67.63752845616813,10.386429808759381 L67.57490960610167,10.578881712048776 L67.51040667181566,10.770543998562768 L67.44402602923864,10.961397723038505 L67.3757742399052,11.151424020137139 L67.30565805030739,11.340604106308636 L67.23368439122778,11.52891928164847 L67.15986037705453,11.716350931746039 L67.08419330507795,11.902880529524648 L67.00669065476934,12.088489637072882 L66.9273600870416,12.273159907467132 L66.84620944349197,12.456873086585102 L66.76324674562692,12.63961101491023 L66.67848019406927,12.82135562932665 L66.59191816774756,13.002088964904697 L66.50356922306781,13.181793156676733 L66.41344209306774,13.360450441402978 L66.32154568655358,13.538043159327401 L66.2278890872194,13.714553755923326 L66.13248155274924,13.889964783628617 L66.03533251390205,14.064258903570362 L65.93645157357942,14.237418887278746 L65.83584850587638,14.409427618390051 L65.73353325511533,14.580268094338543 L65.62951593486297,14.749923428037132 L65.52380682693064,14.918376849546611 L65.41641638035802,15.085611707733335 L65.30735521038025,15.25161147191509 L65.19663409737866,15.416359733495145 L65.08426398581516,15.579840207584201 L64.97025598315034,15.742036734610064 L64.85462135874562,15.902933281915004 L64.73737154274932,16.06251394534053 L64.61851812496673,16.220762950799465 L64.49807285371452,16.37766465583518 L64.37604763465953,16.533203551167777 L64.25245452964187,16.687364262227167 L64.12730575548258,16.840131550672794 L64.00061368277616,16.991490315899906 L63.872390834667684,17.141425596532187 L63.74264988561495,17.28992257190066 L63.611403660135636,17.436966563508665 L63.478665131539664,17.5825430364828 L63.34444742064679,17.726637601009607 L63.20876379448966,17.86923601375801 L63.071627665002424,18.01032417928721 L62.933052587694974,18.149888151439985 L62.79305226031302,18.28791413472121 L62.65164052148415,18.424388485661524 L62.50883134934986,18.559297714165925 L62.36463886018391,18.69262848484726 L62.219077306996944,18.82436761834433 L62.07216107812764,18.9545020926247 L61.92390469582043,19.08301904427185 L61.77432281479004,19.209905769756705 L61.62343022077292,19.335149726693313 L61.4712418290657,19.45873853507866 L61.317772683050876,19.58065997851637 L61.16303795270979,19.700902005424293 L61.007052933123155,19.819452730225713 L60.84983304295916,19.936300434524256 L60.69139382294936,20.051433568262198 L60.53175093435255,20.164840750862165 L60.37092015740669,20.276510772352047 L60.208917389769056,20.38643259447311 L60.045758644944826,20.494595351771046 L59.88146005070418,20.600988352670047 L59.71603784748811,20.705601080529583 L59.54950838680312,20.808423194683968 L59.3818881296049,20.909444531464523 L59.21319364467131,21.008655105204152 " />
			<path d="M59.213193644671236,21.0086551052042 L58.93200889265151,21.168665800321037 L58.64801002389797,21.323658031800257 L58.3612737546516,21.47358993179415 L58.071877540603836,21.618420999395703 L57.77989955597348,21.758112111579045 L57.48541867238961,21.892625533767713 L57.18851443758615,22.02192493002782 L56.88926705391367,22.145975372883463 L56.58775735667446,22.264743352751612 L56.28406679228662,22.378196786994028 L55.978277396283005,22.486305028583683 L55.67047177115113,22.589038874383412 L55.36073306401978,22.686370573034527 L55.049144944198694,22.778273832453248 L54.73579158057699,22.864723826932938 L54.420757618886796,22.945697203850244 L54.10412815883797,23.02117208997334 L53.78598873113025,23.09112809737046 L53.46642527434895,23.155546328917307 L53.145524111750504,23.214409383401694 L52.82337192794404,23.267701360224102 L52.50005574547538,23.315407863692897 L52.17566290131983,23.357516006913027 L51.85028102328987,23.394014415267126 L51.52399800636438,23.424893229488134 L51.19690198894574,23.450144108322565 L50.86908132905105,23.469760230783717 L50.540624580444174,23.483736297994223 L50.211620468714756,23.492068534617424 L49.88215786731091,23.49475468987719 L49.55232577353199,23.491794038165942 L49.22221328448791,23.48318737924063 " />
			<path d="M49.22221328448781,18.583646529332547 L49.22221328448781,23.48318737924062 " />
			<path d="M49.2222132844878,18.583646529332547 L49.4695140145381,18.587357763714493 L49.71656721654456,18.586923620664887 L49.963308869414135,18.58234421268707 L50.20967503278825,18.573620726483757 L50.45560186361226,18.560755422649496 L50.701025632679695,18.54375163508487 L50.94588274114692,18.522613770132555 L51.19010973701409,18.497347305435454 L51.433643331568085,18.467958788517233 L51.67642041578303,18.434455835085615 L51.91837807667426,18.396847127058827 L52.15945361360157,18.355142410315814 L52.399584554517425,18.309352492170664 L52.63870867215583,18.259489238572034 L52.876764000157834,18.20556557102822 L53.11368884912947,18.1475954632587 L53.34942182262785,18.08559393757297 L53.583901833071415,18.019577060977706 L53.817068117569995,17.949561941013172 L54.04886025367094,17.87556672132 L54.279218175016894,17.797610576937434 L54.50808218691134,17.71571370933437 L54.73539298178777,17.629897341174345 L54.96109165457861,17.540183710815942 L55.18511971797985,17.446596066549933 L55.407419117607354,17.34915866057477 L55.62793224704095,17.247896742711895 L55.846601962752565,17.142836553862526 L56.063371598914344,17.034005319207605 L56.278184982082905,16.92143124115271 L56.49098644575612,16.805143492019713 L56.70172084479836,16.685172206487156 " />
			<path d="M56.70172084479847,16.685172206487085 L56.95800236594366,16.532605583215794 L57.21097373192837,16.374573318574956 L57.46053577104192,16.21113736554477 L57.70659064812321,16.042361795499417 L57.94904190291485,15.868312773089347 L58.18779448787814,15.689058530302901 L58.42275480545437,15.504669339717509 L58.653830744757606,15.315217486950925 L58.88093171768469,15.120777242323246 L59.10396869442825,14.921424831740957 L59.32285423837884,14.71723840681426 L59.53750254040248,14.508298014219498 L59.74782945248019,14.294685564318684 L59.95375252069632,14.076484799048355 L60.15519101756274,13.853781259090486 L60.352065973666235,13.626662250338164 L60.54430020862668,13.395216809669286 L60.731818361353874,13.159535670041684 L60.91454691959112,12.919711224923294 L61.09241424873409,12.675837492071395 L61.26535061991351,12.428010076675072 L61.43328823733084,12.17632613387535 L61.59616126483603,11.920884330677733 L61.75390585173712,11.661784807272017 L61.906460157831496,11.399129137774597 L62.053764377648875,11.133020290408627 L62.19576076389673,10.863562587137658 L62.33239365009884,10.590861662768557 L62.463609472418,10.315024423539779 L62.589356790654584,10.03615900521119 L62.709586308412476,9.754374730671877 L62.82425089242462,9.469782067082583 L62.93330559103056,9.182492582569552 L63.036707651798686,8.892618902486756 L63.13441653828642,8.600274665263683 L63.22639394593156,8.305574477855952 L63.31260381706876,8.008633870816238 L63.393012355065075,7.709569253003138 L63.467588037569215,7.408497865945697 L63.53630162886913,7.105537737881515 L63.599126191353264,6.800807637486459 L63.65603709607078,6.494427027314068 L63.707012032386814,6.186516016962958 L63.75203101672885,5.877195315990581 L63.791076400420835,5.5665861865917465 L63.82413287660192,5.254810396060536 L63.851187486227204,4.941990169054183 L63.872229623148016,4.628248139677645 L63.88725103826981,4.313707303407688 L63.896245842786044,3.9984909688752692 L63.89921051048675,3.6827227095251924 L63.89614387914092,3.3665263151719174 L63.887047150952114,3.050025743470561 L63.87192389208716,2.7333450713221046 L63.85078003127815,2.4166084462318347 L63.82362385749816,2.0999400376401303 L63.79046601671183,1.7834639882446344 L63.75131950770175,1.467304365332906 L63.70619967697266,1.1515851121446525 L63.65512421273516,0.8364299992825741 L63.598113137971474,0.5219625761908984 L63.53518880258587,0.20830612272061133 L63.46637587464289,-0.10441639919962764 L63.39170133069679,-0.4160823937679319 L63.31119444521601,-0.7265696793701011 L63.224886779106754,-1.0357565364781558 L63.13281216734026,-1.3435217553677519 L63.03500670568857,-1.6497446836356895 L62.931508736574,-1.9543052734989796 L62.82235883403783,-2.2570841288568575 L62.7075997878342,-2.5579625520973357 L62.587276586655356,-2.8568225906299105 L62.46143640049481,-3.153547083126224 L62.330128562155465,-3.448019705450508 L62.19340454790974,-3.7401250162618362 L62.051317957319526,-4.029748502270298 L61.90392449222364,-4.316776623129342 L61.751281934901186,-4.601096855946705 L61.59345012541934,-4.882597739396482 L61.43049093817438,-5.161168917415005 L61.262468257635234,-5.436701182463454 L61.08944795329903,-5.709086518340205 L60.91149785386841,-5.9782181425261465 L60.72868772066087,-6.243990548046344 L60.54108922026036,-6.506299544831678 L60.34877589642207,-6.7650423005641995 L60.1518231412412,-7.020117380990221 L59.950308165597264,-7.271424789685331 L59.74430996888523,-7.51886600725572 L59.533909308045686,-7.762344029960487 L59.3191886659058,-8.001763407739787 L59.10023221884386,-8.237030281633832 L58.87712580378981,-8.468052420578214 L58.649956884574834,-8.694739257560986 L58.4188145176431,-8.91700192512743 L58.183789317139215,-9.13475329021852 L57.94497341938499,-9.347907988329478 L57.70246044675952,-9.556382456975005 L57.45634547099654,-9.760094968448062 L57.20672497591381,-9.958965661859366 L56.95369681958875,-10.152916574445054 L56.69736019599542,-10.341871672130225 L56.437815596117744,-10.525756879336377 L56.17516476855429,-10.704500108021069 L55.909510679630046,-10.878031285938402 L55.64095747303078,-11.046282384109276 L55.369610428975875,-11.209187443490595 L55.09557592294559,-11.366682600833041 L54.81896138397894,-11.518706113717197 L54.5398752525586,-11.665198384758284 L54.258426938099255,-11.806101984969967 L53.97472677605606,-11.941361676278092 L53.6888859846702,-12.07092443317551 L53.40101662136822,-12.19473946350955 L53.111231538832506,-12.312758228393935 L52.81964434075984,-12.424934461237342 L52.526369337325754,-12.531224185881182 L52.23152150037175,-12.631585733839454 L51.935216418333155,-12.725979760633948 L51.63757025092534,-12.81436926121835 L51.33869968360591,-12.896719584485226 L51.03872188183082,-12.972998446850216 L50.73775444512223,-13.04317594490809 L50.435915360966376,-13.107224567155694 L50.13332295855918,-13.165119204777206 L49.83009586241795,-13.2168371614875 L49.526352945877356,-13.262358162429699 L49.22221328448788,-13.301664362123457 " />
			<path d="M49.22221328448781,-13.301664362123464 L43.2759056393819,-9.847507086564391 " />
			<path d="M43.2759056393819,-10.7706717393775 L43.2759056393819,-9.847507086564393 " />
			<path d="M49.22221328448781,-18.201205212031542 L47.80642574993878,-17.378786813088904 " />
			<path d="M49.22221328448781,18.583646529332544 L47.80642574993878,19.40606492827518 " />
			<path d="M53.51242527215044,18.040164329818907 L53.70527993551498,17.8477136262813 L53.89452586848996,17.65143849989365 L54.08010175105097,17.451402548300308 L54.26194745235415,17.24767058773927 L54.44000405021996,17.040308632040258 L54.614213850225305,16.829383871234697 L54.784520404397846,16.614964649784604 L54.95086852950647,16.39712044443744 L55.113204324941904,16.175921841714022 L55.27147519018173,15.95144051503688 L55.4256298418342,15.723749201506433 L55.57561833025521,15.492921678332484 L55.72139205573312,15.259032738928722 L55.862903784236195,15.022158168677937 L56.000107662717525,14.782374720375813 L56.132959233972414,14.539760089361272 L56.2614154510436,14.294392888341386 L56.385434691169394,14.04635262191907 L56.504976769270485,13.795719660831757 L56.620002950970736,13.542575215909448 L56.73047596514809,13.287001311760516 L56.83636001601122,13.02908076019388 L56.937620794698205,12.76889713338606 L57.0342254903934,12.506534736801871 L57.12614280095887,12.24207858187754 L57.21334294307701,11.97561435847502 L57.29579766190102,11.707228407116542 L57.373480240210135,11.437007691008274 L57.446365507066616,11.165039767862265 L57.5144298459717,10.891412761525736 L57.577651202517885,10.616215333426918 L57.63600909153507,10.339536653846741 L57.68948460372826,10.061466373025587 L57.738060411804526,9.782094592114575 L57.781720776087504,9.50151183398072 L57.820451549617424,9.219809013875434 L57.85424018273501,8.937077409975906 L57.88307572714787,8.65340863380889 L57.906948839478005,8.368894600566449 L57.925851784289264,8.08362749932333 L57.93977843659382,7.7976997631656 L57.94872428383678,7.511204039240189 L57.95268642735839,7.224233158735095 L57.95166358333323,6.9368801067999595 L57.945656083186236,6.649237992416721 L57.93466587348531,6.361400018230196 L57.91869651531053,6.07345945034827 L57.89775318310037,5.7855095881215295 L57.87184266297499,5.497643733912153 L57.84097335053741,5.209955162861796 L57.80515524815314,4.922537092668285 L57.76439996170917,4.635482653380981 L57.71872069685341,4.348884857224482 L57.66813225471575,4.062836568460529 L57.612651027112165,3.777430473297869 L57.552294991233374,3.492759049859785 L57.487083703819835,3.208914538219054 L57.41703829482489,2.9259889105100707 L57.34218146056821,2.6440738411277533 L57.26253745638162,2.363260677022923 L57.17813208874986,2.0836404081038187 L57.08899270694867,1.80530363775327 L56.99514819418299,1.5283405534711125 L56.896628958228156,1.252840897651386 L56.79346692157707,0.9788939385037292 L56.6856955110966,0.7065884411284253 L56.57334964719647,0.4360126387544945 L56.456465732514296,0.16725420415008418 L56.33508164012025,-0.09959977878552273 L56.20923670124534,-0.3644628432390684 L56.078971692537195,-0.6272491675005627 L55.94432882284747,-0.8878736027714993 L55.80535171955523,-1.1462517007549975 L55.6620854144307,-1.4022997410189992 L55.51457632904386,-1.6559347581236175 L55.36287225972289,-1.9070745685038224 L55.207022362066986,-2.1556377970988176 L55.04707713501887,-2.401543903719432 L54.88308840450191,-2.6447132091449674 L54.71510930662744,-2.885066920941112 L54.543194270477315,-3.1225271589904935 L54.367399000467735,-3.3570169807276216 L54.18778045829967,-3.5884604060700394 L54.00439684450201,-3.8167824420376313 L53.81730757957325,-4.041909107052048 L53.62657328472786,-4.263767454908443 L53.432255762253625,-4.482285598411728 L53.234417975486316,-4.697392732669655 L53.03312402840811,-4.909019158035239 L52.82843914487639,-5.1170963026910385 L52.6204296474898,-5.321556744867996 L52.40916293609811,-5.5223342346916375 L52.19470746596319,-5.719363715648564 L51.9771327255779,-5.912581345666236 L51.75650921415023,-6.101924517799276 L51.532908418759924,-6.28733188051557 L51.30640279119507,-6.4687433575755495 L51.077065724476014,-6.646100167498284 L50.844971529074364,-6.819344842608027 L50.61019540883465,-6.988421247655067 L50.37281343660663,-7.153274598004819 L50.13290252959586,-7.313851477389324 L49.8905404244408,-7.47009985521534 L49.64580565202438,-7.621969103423432 L49.398777512028104,-7.769410012892644 L49.149536047237234,-7.912374809385385 L48.898162017605046,-8.050817169027354 L48.644736874084735,-8.184692233317563 L48.38934273223747,-8.313956623663513 L48.13206234562507,-8.438568455436844 L47.872979078995904,-8.558487351544931 L47.612176881272845,-8.673674455513979 L47.3497402583519,-8.784092444079409 L47.08575424572031,-8.889705539279461 L46.820304380903146,-8.990479520048073 L46.55347667574719,-9.086381733303282 L46.285357588551086,-9.177381104527583 L46.016033996050886,-9.263448147836787 L45.745593165270016,-9.344554975534102 L45.47412272524273,-9.42067530714642 L45.201710638620284,-9.491784477939769 L44.92844517316908,-9.557859446911253 L44.6544148731698,-9.618878804254893 L44.37970853072707,-9.674822778298854 L44.10441515699881,-9.725673241911949 L43.82862395335452,-9.771413718377241 L43.552424282472025,-9.81202938673087 L43.27590563938197,-9.847507086564384 " />
			<path d="M49.22221328448781,23.483187379240622 L43.2759056393819,26.937344654799695 " />
			<path d="M43.2759056393819,26.01418000198659 L43.2759056393819,26.937344654799695 " />
			<path d="M53.26688599956533,24.46281238076326 L52.98570124754562,24.6228230758801 L52.70170237879207,24.77781530735932 L52.4149661095457,24.927747207353214 L52.12556989549795,25.072578274954772 L51.83359191086759,25.212269387138107 L51.539111027283724,25.346782809326776 L51.24220679248026,25.476082205586884 L50.94295940880777,25.600132648442525 L50.641449711568555,25.718900628310685 L50.33775914718072,25.832354062553094 L50.031969751177115,25.94046230414275 L49.724164126045224,26.04319614994248 L49.414425418913886,26.140527848593592 L49.1028372990928,26.232431108012314 L48.78948393547109,26.318881102492 L48.47444997378089,26.399854479409314 L48.15782051373207,26.47532936553241 L47.83968108602434,26.545285372929534 L47.520117629243046,26.60970360447638 L47.1992164666446,26.668566658960764 L46.87706428283813,26.72185863578317 L46.55374810036948,26.769565139251966 L46.22935525621393,26.8116732824721 L45.903973378183956,26.8481716908262 L45.57769036125847,26.879050505047204 L45.25059434383982,26.904301383881638 L44.92277368394514,26.92391750634279 L44.59431693533827,26.937893573553296 L44.265312823608845,26.946225810176493 L43.935850222205,26.94891196543626 L43.60601812842608,26.94595131372501 L43.275905639381996,26.937344654799702 " />
			<path d="M59.21319364467124,21.008655105204188 L53.26688599956533,24.46281238076326 " />

       </g>
    </g>
    <g transform="translate(20,210.0)" stroke="rgb(0,0,255)">
        <line x1="30" y1="-30" x2="75" y2="-33" stroke-width="3" stroke="#000000" />
         <text x="80" y="-30" style="stroke:#000000">X </text>

        <line x1="30" y1="-30" x2="30" y2="-75" stroke-width="3" stroke="#000000" />
         <text x="25" y="-85" style="stroke:#000000">Y </text>

        <line x1="30" y1="-30" x2="58" y2="-15" stroke-width="3" stroke="#000000" />
         <text x="65" y="-5" style="stroke:#000000">Z </text>
        <!--
            <line x1="0" y1="0" x2="3.7284141382469373" y2="0" stroke-width="3" />
            <text x="0" y="20" style="stroke:#000000">1  mm </text>
        -->
    </g>
</svg>
