<?xml version="1.0" encoding="UTF-8" standalone="no"?>
<svg
   xmlns:svg="http://www.w3.org/2000/svg"
   xmlns="http://www.w3.org/2000/svg"
   width="800.0"
   height="240.0"

>
  <defs>
    <style>
      .cq-bg { fill: #ffffff; }
      @media (prefers-color-scheme: dark) {
        .cq-bg { fill: #0d1117; }
        /* CadQuery SVG selectors */
        g[stroke="rgb(0,0,0)"] { stroke: #c9d1d9 !important; }
        g[stroke="rgb(160,160,160)"] { stroke: #484f58 !important; }
        /* OpenSCAD SVG selectors */
        path { stroke: #c9d1d9 !important; }
        polygon { stroke: #c9d1d9 !important; fill: #161b22 !important; }
        /* Common selectors */
        line { stroke: #c9d1d9 !important; }
        text { stroke: #c9d1d9 !important; fill: #c9d1d9 !important; }
      }
    </style>
  </defs>
  <rect width="800.0" height="240.0" class="cq-bg"/>
    <g transform="scale(2.6288236829370444, -2.6288236829370444)   translate(124.0984493161794,-35.923768714776635)" stroke-width="0.3803982771802913"  fill="none">
       <!-- hidden lines -->
       <g  stroke="rgb(160,160,160)" fill="none" stroke-dasharray="0.3803982771802913,0.3803982771802913" >
			<path d="M-48.01879388012114,-27.35631503907106 L46.36704175648061,-20.639898114372862 " />
			<path d="M-13.803928461853008,-25.998639332149924 L-10.50042421457194,-25.763564739785487 " />
			<path d="M-10.500424214571943,-25.76356473978549 L0.5899114727287635,-32.20584219816948 " />
			<path d="M12.152176338212476,-24.15162467785792 L36.928458192820436,-38.543946659354056 " />
			<path d="M12.15217633821248,-24.15162467785792 L32.20916641099035,-22.724386081359555 " />
			<path d="M39.05213949464397,-22.237445854318935 L48.018793880121144,-21.599386246472605 " />
			<path d="M46.3670417564806,-20.639898114372865 L48.01879388012113,-21.59938624647261 " />
			<path d="M48.01879388012114,-21.59938624647261 L48.01879388012114,-16.591917372122712 " />
			<path d="M12.152176338212476,-24.15162467785792 L12.152176338212476,-18.276940523592682 " />
			<path d="M-10.500424214571943,-19.88888058552025 L-6.167256305800678,-19.580535990340923 " />
			<path d="M-10.500424214571943,-25.76356473978549 L-10.500424214571943,-19.88888058552025 " />
			<path d="M39.052139494643974,-14.443314206463054 L39.16430852868725,-14.403158448157455 L39.274463951274306,-14.356372434926543 L39.38222601424594,-14.303117456173812 L39.487223220275155,-14.243577102317914 L39.5890936035615,-14.177956631885795 L39.68748597766657,-14.106482263907504 L39.782061146188866,-14.029400398052095 L39.87249307210444,-13.946976765193083 L39.95847000174204,-13.859495511331797 L40.03969553951808,-13.7672582180367 L40.11588966972632,-13.67058286277559 L40.186789721859874,-13.569802722724829 L40.25215127613755,-13.465265225834576 L40.31174900611298,-13.357330753110862 L40.365377455461655,-13.246371396243486 L40.41285174626795,-13.132769674862692 " />
			<path d="M37.16442278191194,-4.287538137933069 L37.16442278191194,4.191589324723093 " />
			<path d="M46.3670417564806,-20.639898114372865 L46.3670417564806,28.315803171170803 " />
			<path d="M-40.5623128648296,-17.03457784491117 L-40.558367937147935,-17.16395766796084 L-40.54654885707898,-17.2922610528552 L-40.526902671044404,-17.418977281745526 L-40.514167642232195,-17.481582285763945 L-40.49950758164092,-17.543601954534587 L-40.48293708167247,-17.60497455462015 L-40.46447263635109,-17.665638996665685 L-40.44413262490551,-17.725534896206014 L-40.42193729347449,-17.784602633771506 L-40.39790873495421,-17.8427834142324 L-40.372070867007224,-17.900019325322564 L-40.34444940825527,-17.956253395284516 L-40.3150718526793,-18.011429649578233 L-40.283967442252404,-18.06549316659735 L-40.25116713783279,-18.118390132337307 L-40.21670358834581,-18.170067893960987 L-40.180611098285716,-18.22047501220855 L-40.14292559356952,-18.2695613125993 L-40.103684585776826,-18.317277935374584 L-40.062927134811396,-18.36357738413208 L-40.020693810021534,-18.408413573102973 L-39.977026649817944,-18.451741873025036 L-39.93196911982937,-18.493519155565927 L-39.885566069637505,-18.533703836252474 L-39.83786368813446,-18.57225591586322 L-39.788909457547035,-18.609137020243057 L-39.73875210617359,-18.644310438500266 L-39.68744155988066,-18.677741159547978 L-39.63502889240754,-18.709395906953684 " />
			<path d="M-39.63502889240752,-18.70939590695369 L-39.580525436312215,-18.739800728094092 L-39.52498751657893,-18.768296254153164 L-39.468472567067614,-18.794853016831407 L-39.4110390320216,-18.81944355277773 L-39.352746305628195,-18.84204243199036 L-39.293654670596936,-18.862626284114956 L-39.233825235818955,-18.881173822612773 L-39.17331987317195,-18.897665866773885 L-39.11220115353615,-18.912085361552677 L-39.05053228208742,-18.924417395205104 L-38.98837703293437,-18.934649214709502 L-38.925799683167185,-18.942770238954967 L-38.86286494638622,-18.948772069683667 L-38.799637905779214,-18.952648500175812 L-38.736183946816375,-18.954395521668253 L-38.672568689632726,-18.9540113275001 " />
			<path d="M-36.836099819648666,-15.792542983584653 L-36.86728110438429,-15.737092320523356 L-36.90023379389942,-15.682837576529195 L-36.93492381057351,-15.629834858481624 L-36.971315280150414,-15.578138978492795 L-37.00937056883728,-15.527803397224275 L-37.04905032222307,-15.478880168601355 L-37.09031350597648,-15.431419885982127 L-37.13311744828107,-15.38547162983698 L-37.1774178839638,-15.341082916992628 L-37.22316900027131,-15.298299651493167 L-37.270323484246646,-15.257166077128979 L-37.31883257165733,-15.217724731682539 L-37.36864609742435,-15.180016402938506 L-37.41971254749972,-15.144080086503523 L-37.47197911213911,-15.109952945479398 L-37.525391740514394,-15.077670272031327 " />
			<path d="M-37.52539174051441,-15.077670272031321 L-37.581867936343514,-15.046211111059243 L-37.6394518710461,-15.016801698157662 L-37.698079650747445,-14.989474665368018 L-37.75768622334526,-14.96426033416831 L-37.818205450690044,-14.941186681829059 L-37.879570181970564,-14.920279310370333 L-37.941712328222884,-14.901561418154303 L-38.00456293788044,-14.885053774144856 L-38.06805227328116,-14.870774694862797 L-38.13210988804685,-14.85874002406225 L-38.196664705248956,-14.84896311515076 L-38.26164509627399,-14.841454816372659 L-38.32697896030104,-14.83622345877208 L-38.39259380430328,-14.83327484694902 L-38.45841682348466,-14.832612252618677 L-38.5243749820625,-14.834236410981232 L-38.590395094306395,-14.838145519906082 L-38.65640390574351,-14.844335241931446 L-38.722328174440136,-14.85279870907712 L-38.78809475226935,-14.86352653046504 L-38.85363066607456,-14.876506802739183 L-38.91886319863892,-14.891725123273284 L-38.98371996937079,-14.90916460615167 L-39.04812901461564,-14.9288059009055 L-39.11201886750535,-14.950627213983628 L-39.175318637256275,-14.974604332934243 L-39.23795808782812,-15.000710653270485 L-39.29986771585632,-15.028917207990192 L-39.36097882777144,-15.059192699717064 L-39.42122361602006,-15.091503535427538 L-39.48053523430256,-15.125813863724874 L-39.538847871744295,-15.162085614619082 L-39.59609682591793,-15.200278541768553 L-39.652218574635825,-15.240350267136513 L-39.70715084643286,-15.282256328012773 L-39.760832689661484,-15.325950226348578 L-39.81320454012236,-15.371383480349818 L-39.86420828715547,-15.41850567827138 L-39.913787338118446,-15.467264534352905 L-39.96188668118051,-15.517605946833932 L-40.00845294636243,-15.569474057984023 L-40.05343446475467,-15.622811316081288 L-40.096781325848056,-15.677558539270503 L-40.138445432913414,-15.733654981230021 L-40.17838055636865,-15.791038398574544 L-40.21654238507408,-15.849645119919034 L-40.252888575499064,-15.909410116527082 L-40.287378798705525,-15.97026707446538 L-40.31997478509602,-16.032148468184204 L-40.35064036687685,-16.09498563544229 L-40.379341518189065,-16.158708853492953 L-40.406046392862784,-16.22324741644693 L-40.43072535975305,-16.28852971372608 L-40.45335103561788,-16.35448330952092 L-40.4738983155021,-16.42103502316381 L-40.492344400593275,-16.48811101032863 L-40.50866882351876,-16.555636844966823 L-40.52285347105587,-16.623537601888913 L-40.534882604229864,-16.691737939899856 L-40.54474287577764,-16.760162185395977 L-40.55242334495749,-16.828734416330764 L-40.55791548968879,-16.89737854645629 L-40.56121321600782,-16.966018409746862 L-40.5623128648296,-17.03457784491115 " />
			<path d="M34.94635564445179,-11.661444305152612 L34.95030057213346,-11.790824128202283 L34.96211965220241,-11.919127513096642 L34.98176583823699,-12.04584374198697 L34.9945008670492,-12.10844874600539 L35.00916092764047,-12.17046841477603 L35.025731427608925,-12.231841014861592 L35.0441958729303,-12.292505456907127 L35.064535884375886,-12.352401356447457 L35.0867312158069,-12.41146909401295 L35.110759774327185,-12.469649874473841 L35.13659764227417,-12.526885785564007 L35.16421910102612,-12.58311985552596 L35.19359665660209,-12.638296109819676 L35.22470106702899,-12.692359626838792 L35.257501371448605,-12.74525659257875 L35.291964920935584,-12.79693435420243 L35.328057410995676,-12.847341472449994 L35.36574291571187,-12.896427772840742 L35.40498392350457,-12.944144395616028 L35.445741374469996,-12.990443844373523 L35.48797469925986,-13.035280033344415 L35.53164185946345,-13.078608333266478 L35.576699389452024,-13.12038561580737 L35.62310243964389,-13.160570296493916 L35.67080482114693,-13.199122376104663 L35.71975905173436,-13.2360034804845 L35.7699164031078,-13.271176898741707 L35.82122694940073,-13.30460761978942 L35.87363961687385,-13.336262367195127 " />
			<path d="M35.873639616873874,-13.336262367195136 L35.92814307296918,-13.366667188335533 L35.98368099270246,-13.395162714394608 L36.04019594221378,-13.421719477072848 L36.097629477259794,-13.446310013019174 L36.1559222036532,-13.468908892231804 L36.215013838684456,-13.489492744356399 L36.27484327346244,-13.508040282854216 L36.335348636109444,-13.524532327015327 L36.396467355745244,-13.538951821794118 L36.458136227193975,-13.551283855446545 L36.52029147634702,-13.561515674950947 L36.58286882611421,-13.56963669919641 L36.645803562895175,-13.57563852992511 L36.70903060350218,-13.579514960417255 L36.77248456246502,-13.581261981909698 L36.836099819648666,-13.580877787741544 " />
			<path d="M38.672568689632726,-10.4194094438261 L38.64138740489711,-10.363958780764802 L38.60843471538198,-10.30970403677064 L38.573744698707884,-10.256701318723069 L38.53735322913098,-10.20500543873424 L38.499297940444116,-10.154669857465718 L38.459618187058325,-10.105746628842798 L38.41835500330491,-10.058286346223571 L38.37555106100032,-10.012338090078423 L38.331250625317594,-9.96794937723407 L38.28549950901008,-9.925166111734612 L38.23834502503475,-9.884032537370421 L38.18983593762406,-9.844591191923982 L38.14002241185704,-9.806882863179949 L38.08895596178167,-9.770946546744968 L38.03668939714228,-9.73681940572084 L37.983276768767,-9.70453673227277 " />
			<path d="M37.983276768766984,-9.704536732272764 L37.92680057293788,-9.673077571300686 L37.869216638235294,-9.643668158399105 L37.81058885853395,-9.61634112560946 L37.75098228593613,-9.591126794409753 L37.69046305859135,-9.568053142070504 L37.62909832731083,-9.547145770611776 L37.56695618105851,-9.528427878395746 L37.50410557140095,-9.511920234386299 L37.44061623600023,-9.49764115510424 L37.376558621234544,-9.485606484303693 L37.312003804032436,-9.475829575392204 L37.247023413007405,-9.468321276614102 L37.18168954898035,-9.463089919013523 L37.11607470497811,-9.460141307190463 L37.05025168579673,-9.45947871286012 L36.984293527218895,-9.461102871222675 L36.918273414975,-9.465011980147525 L36.85226460353788,-9.471201702172888 L36.786340334841256,-9.479665169318563 L36.72057375701204,-9.490392990706482 L36.655037843206834,-9.503373262980626 L36.589805310642475,-9.518591583514727 L36.5249485399106,-9.536031066393113 L36.46053949466575,-9.555672361146943 L36.396649641776044,-9.577493674225071 L36.33334987202512,-9.601470793175686 L36.27071042145327,-9.627577113511926 L36.20880079342507,-9.655783668231635 L36.14768968150995,-9.686059159958507 L36.087444893261335,-9.718369995668981 L36.028133274978835,-9.752680323966317 L35.9698206375371,-9.788952074860525 L35.91257168336346,-9.827145002009996 L35.85644993464557,-9.867216727377954 L35.80151766284853,-9.909122788254216 L35.74783581961991,-9.95281668659002 L35.69546396915903,-9.998249940591261 L35.64446022212592,-10.045372138512823 L35.594881171162946,-10.094130994594348 L35.54678182810088,-10.144472407075375 L35.50021556291896,-10.196340518225465 L35.45523404452672,-10.24967777632273 L35.411887183433336,-10.304424999511946 L35.37022307636798,-10.360521441471464 L35.33028795291274,-10.417904858815987 L35.292126124207314,-10.476511580160476 L35.25577993378233,-10.536276576768525 L35.22128971057587,-10.597133534706822 L35.18869372418537,-10.659014928425647 L35.15802814240454,-10.721852095683731 L35.12932699109233,-10.785575313734395 L35.10262211641861,-10.850113876688372 L35.077943149528345,-10.915396173967522 L35.055317473663514,-10.981349769762364 L35.034770193779295,-11.047901483405255 L35.01632410868812,-11.114977470570075 L34.99999968576263,-11.182503305208268 L34.985815038225525,-11.250404062130357 L34.97378590505153,-11.318604400141297 L34.963925633503756,-11.38702864563742 L34.9562451643239,-11.455600876572207 L34.950753019592604,-11.524245006697733 L34.94745529327357,-11.592884869988305 L34.94635564445179,-11.661444305152594 " />
			<path d="M-40.5623128648296,12.338842926415031 L-40.558367937147935,12.20946310336536 L-40.54654885707898,12.081159718471001 L-40.526902671044404,11.954443489580674 L-40.514167642232195,11.891838485562253 L-40.49950758164092,11.829818816791613 L-40.48293708167247,11.768446216706051 L-40.46447263635109,11.707781774660516 L-40.44413262490551,11.647885875120187 L-40.42193729347449,11.588818137554693 L-40.39790873495421,11.530637357093802 L-40.372070867007224,11.473401446003637 L-40.34444940825527,11.417167376041684 L-40.3150718526793,11.361991121747968 L-40.283967442252404,11.307927604728851 L-40.25116713783279,11.255030638988893 L-40.21670358834581,11.203352877365214 L-40.180611098285716,11.15294575911765 L-40.14292559356952,11.103859458726902 L-40.103684585776826,11.056142835951615 L-40.062927134811396,11.00984338719412 L-40.020693810021534,10.965007198223228 L-39.977026649817944,10.921678898301165 L-39.93196911982937,10.879901615760273 L-39.885566069637505,10.839716935073728 L-39.83786368813446,10.80116485546298 L-39.788909457547035,10.764283751083143 L-39.73875210617359,10.729110332825936 L-39.68744155988066,10.695679611778223 L-39.63502889240754,10.664024864372516 " />
			<path d="M-39.63502889240752,10.664024864372507 L-39.580525436312215,10.63362004323211 L-39.52498751657893,10.605124517173035 L-39.468472567067614,10.578567754494795 L-39.4110390320216,10.55397721854847 L-39.352746305628195,10.53137833933584 L-39.293654670596936,10.510794487211244 L-39.233825235818955,10.492246948713428 L-39.17331987317195,10.475754904552316 L-39.11220115353615,10.461335409773525 L-39.05053228208742,10.449003376121098 L-38.98837703293437,10.438771556616697 L-38.925799683167185,10.430650532371233 L-38.86286494638622,10.424648701642534 L-38.799637905779214,10.420772271150389 L-38.736183946816375,10.419025249657945 L-38.672568689632726,10.4194094438261 " />
			<path d="M-36.836099819648666,13.580877787741544 L-36.86728110438428,13.636328450802841 L-36.90023379389941,13.690583194797004 L-36.93492381057351,13.743585912844575 L-36.971315280150414,13.795281792833404 L-37.00937056883728,13.845617374101925 L-37.04905032222307,13.894540602724845 L-37.09031350597648,13.942000885344072 L-37.13311744828107,13.98794914148922 L-37.1774178839638,14.032337854333573 L-37.22316900027131,14.075121119833032 L-37.270323484246646,14.116254694197222 L-37.31883257165733,14.155696039643662 L-37.36864609742435,14.193404368387695 L-37.41971254749972,14.229340684822676 L-37.47197911213911,14.263467825846803 L-37.525391740514394,14.295750499294874 " />
			<path d="M-37.52539174051441,14.29575049929488 L-37.581867936343514,14.327209660266957 L-37.6394518710461,14.356619073168538 L-37.698079650747445,14.383946105958183 L-37.75768622334526,14.40916043715789 L-37.818205450690044,14.43223408949714 L-37.879570181970564,14.453141460955868 L-37.941712328222884,14.471859353171897 L-38.00456293788044,14.488366997181345 L-38.06805227328116,14.502646076463403 L-38.13210988804685,14.51468074726395 L-38.196664705248956,14.52445765617544 L-38.26164509627399,14.531965954953542 L-38.32697896030104,14.53719731255412 L-38.39259380430328,14.54014592437718 L-38.45841682348466,14.540808518707523 L-38.5243749820625,14.539184360344969 L-38.590395094306395,14.535275251420119 L-38.65640390574351,14.529085529394756 L-38.722328174440136,14.52062206224908 L-38.78809475226935,14.509894240861161 L-38.85363066607456,14.496913968587018 L-38.91886319863892,14.481695648052916 L-38.98371996937079,14.46425616517453 L-39.04812901461564,14.4446148704207 L-39.11201886750535,14.422793557342573 L-39.175318637256275,14.398816438391957 L-39.23795808782812,14.372710118055718 L-39.29986771585632,14.344503563336009 L-39.36097882777144,14.314228071609136 L-39.42122361602006,14.281917235898662 L-39.48053523430256,14.247606907601327 L-39.538847871744295,14.211335156707118 L-39.59609682591793,14.173142229557648 L-39.652218574635825,14.13307050418969 L-39.70715084643286,14.091164443313428 L-39.760832689661484,14.047470544977623 L-39.81320454012236,14.002037290976382 L-39.86420828715547,13.95491509305482 L-39.913787338118446,13.906156236973295 L-39.96188668118051,13.855814824492269 L-40.00845294636243,13.803946713342178 L-40.05343446475467,13.750609455244913 L-40.096781325848056,13.695862232055697 L-40.138445432913414,13.63976579009618 L-40.17838055636865,13.582382372751656 L-40.21654238507408,13.523775651407167 L-40.252888575499064,13.464010654799118 L-40.287378798705525,13.403153696860821 L-40.31997478509602,13.341272303141997 L-40.35064036687685,13.278435135883912 L-40.379341518189065,13.214711917833249 L-40.406046392862784,13.150173354879271 L-40.43072535975305,13.084891057600121 L-40.45335103561788,13.01893746180528 L-40.4738983155021,12.952385748162389 L-40.492344400593275,12.885309760997568 L-40.50866882351876,12.817783926359375 L-40.52285347105587,12.749883169437286 L-40.534882604229864,12.681682831426347 L-40.54474287577764,12.613258585930224 L-40.55242334495749,12.544686354995436 L-40.55791548968879,12.47604222486991 L-40.56121321600782,12.407402361579338 L-40.5623128648296,12.33884292641505 " />
			<path d="M-35.512670658271404,-10.800565385174577 L-37.16442278191194,-10.918102681356796 " />
			<path d="M35.512670658271404,-4.405075434115288 L35.512670658271404,4.074052028540876 " />
			<path d="M35.512670658271404,10.800565385174576 L35.512670658271404,11.877590813456539 " />
			<path d="M-37.16442278191194,-10.918102681356793 L-37.16442278191194,6.705949781438928 " />
			<path d="M35.51267065827142,11.877590813456537 L-37.16442278191194,6.705949781438926 " />
			<path d="M34.94635564445179,17.71197646617359 L34.95030057213346,17.582596643123917 L34.96211965220241,17.45429325822956 L34.98176583823699,17.32757702933923 L34.9945008670492,17.264972025320812 L35.00916092764047,17.20295235655017 L35.025731427608925,17.14157975646461 L35.0441958729303,17.080915314419073 L35.064535884375886,17.021019414878744 L35.0867312158069,16.96195167731325 L35.110759774327185,16.903770896852357 L35.13659764227417,16.846534985762194 L35.16421910102612,16.79030091580024 L35.19359665660209,16.735124661506525 L35.22470106702899,16.68106114448741 L35.257501371448605,16.62816417874745 L35.291964920935584,16.57648641712377 L35.328057410995676,16.52607929887621 L35.36574291571187,16.476992998485457 L35.40498392350457,16.429276375710174 L35.445741374469996,16.38297692695268 L35.48797469925986,16.338140737981785 L35.53164185946345,16.294812438059722 L35.576699389452024,16.25303515551883 L35.62310243964389,16.212850474832283 L35.67080482114693,16.174298395221538 L35.71975905173436,16.1374172908417 L35.7699164031078,16.10224387258449 L35.82122694940073,16.06881315153678 L35.87363961687385,16.037158404131073 " />
			<path d="M35.873639616873874,16.037158404131066 L35.92814307296918,16.006753582990665 L35.98368099270246,15.978258056931594 L36.04019594221378,15.95170129425335 L36.097629477259794,15.927110758307027 L36.1559222036532,15.904511879094397 L36.215013838684456,15.883928026969802 L36.27484327346244,15.865380488471985 L36.335348636109444,15.848888444310873 L36.396467355745244,15.834468949532083 L36.458136227193975,15.822136915879653 L36.52029147634702,15.811905096375254 L36.58286882611421,15.80378407212979 L36.645803562895175,15.79778224140109 L36.70903060350218,15.793905810908946 L36.77248456246502,15.792158789416503 L36.836099819648666,15.792542983584656 " />
			<path d="M38.672568689632726,18.954011327500105 L38.6413874048971,19.0094619905614 L38.608434715381975,19.063716734555562 L38.573744698707884,19.11671945260313 L38.53735322913098,19.168415332591962 L38.499297940444116,19.218750913860482 L38.459618187058325,19.267674142483404 L38.41835500330491,19.31513442510263 L38.37555106100032,19.361082681247776 L38.331250625317594,19.40547139409213 L38.28549950901008,19.44825465959159 L38.23834502503475,19.48938823395578 L38.18983593762406,19.52882957940222 L38.14002241185704,19.566537908146252 L38.08895596178167,19.602474224581233 L38.03668939714228,19.636601365605358 L37.983276768767,19.66888403905343 " />
			<path d="M37.983276768766984,19.668884039053435 L37.92680057293788,19.700343200025515 L37.869216638235294,19.729752612927093 L37.81058885853395,19.75707964571674 L37.75098228593613,19.782293976916446 L37.69046305859135,19.8053676292557 L37.62909832731083,19.826275000714425 L37.56695618105851,19.844992892930453 L37.50410557140095,19.8615005369399 L37.44061623600023,19.87577961622196 L37.376558621234544,19.887814287022508 L37.312003804032436,19.897591195933998 L37.247023413007405,19.905099494712097 L37.18168954898035,19.910330852312676 L37.11607470497811,19.913279464135737 L37.05025168579673,19.91394205846608 L36.984293527218895,19.912317900103524 L36.918273414975,19.908408791178676 L36.85226460353788,19.90221906915331 L36.786340334841256,19.893755602007637 L36.72057375701204,19.883027780619717 L36.655037843206834,19.870047508345575 L36.589805310642475,19.85482918781147 L36.5249485399106,19.837389704933088 L36.46053949466575,19.817748410179256 L36.396649641776044,19.79592709710113 L36.33334987202512,19.771949978150516 L36.27071042145327,19.745843657814273 L36.20880079342507,19.717637103094564 L36.14768968150995,19.68736161136769 L36.087444893261335,19.65505077565722 L36.028133274978835,19.620740447359886 L35.9698206375371,19.584468696465677 L35.91257168336346,19.546275769316207 L35.85644993464557,19.506204043948244 L35.80151766284853,19.464297983071983 L35.74783581961991,19.42060408473618 L35.69546396915903,19.375170830734938 L35.64446022212592,19.328048632813378 L35.594881171162946,19.27928977673185 L35.54678182810088,19.228948364250826 L35.50021556291896,19.177080253100733 L35.45523404452672,19.12374299500347 L35.411887183433336,19.068995771814254 L35.37022307636798,19.012899329854736 L35.33028795291274,18.955515912510215 L35.292126124207314,18.896909191165722 L35.25577993378233,18.837144194557673 L35.22128971057587,18.77628723661938 L35.18869372418537,18.714405842900554 L35.15802814240454,18.65156867564247 L35.12932699109233,18.587845457591804 L35.10262211641861,18.523306894637827 L35.077943149528345,18.458024597358676 L35.055317473663514,18.39207100156384 L35.034770193779295,18.325519287920947 L35.01632410868812,18.258443300756127 L34.99999968576263,18.190917466117934 L34.985815038225525,18.123016709195845 L34.97378590505153,18.054816371184902 L34.963925633503756,17.98639212568878 L34.9562451643239,17.917819894753993 L34.950753019592604,17.849175764628466 L34.94745529327357,17.780535901337895 L34.94635564445179,17.711976466173606 " />
			<path d="M-10.500424214571943,-19.88888058552025 L0.5899114727287635,-26.331158043904235 " />
			<path d="M17.343397298225575,-21.292474653049016 L32.20916641099035,-29.927867841946696 " />
			<path d="M30.55741428734982,-32.04559521922398 L32.20916641099035,-33.00508335132373 " />
			<path d="M17.343397298225575,-32.98589358868173 L30.55741428734982,-32.04559521922398 " />
			<path d="M-37.16442278191194,-10.918102681356794 L-35.512670658271404,-11.877590813456537 " />
			<path d="M35.512670658271404,11.877590813456537 L37.16442278191194,10.918102681356794 " />
			<path d="M-37.16442278191194,6.705949781438925 L-35.512670658271404,5.7464616493391825 " />
			<path d="M30.55741428734982,-32.04559521922398 L30.55741428734982,-17.358884833560882 " />
			<path d="M41.883714563742025,-24.777472618568435 L53.445979429225744,-31.493889543266633 " />
			<path d="M41.883714563742025,-24.777472618568435 L41.883714563742025,-13.028104310037955 " />
			<path d="M39.052139494643974,-24.978965126309383 L41.883714563742025,-24.77747261856844 " />
			<path d="M-10.972353392754952,-28.538666096399425 L0.5899114727287638,-35.25508302109762 " />
			<path d="M-10.972353392754952,-28.538666096399425 L-10.972353392754952,-16.789297787868946 " />
			<path d="M-13.803928461853003,-28.740158604140372 L-10.97235339275495,-28.538666096399428 " />
			<path d="M39.972401392100835,-3.4415094774541206 L40.96345266628516,-4.017202356713966 " />
			<path d="M39.972401392100835,-3.4415094774541206 L39.972401392100835,4.391402728232866 " />
			<path d="M-32.70469204808251,-8.613150509471732 L39.972401392100835,-3.44150947745412 " />
			<path d="M-39.635028892407526,-18.70939590695369 L-37.983276768767,-19.668884039053435 " />
			<path d="M-37.52539174051441,-15.077670272031323 L-35.87363961687388,-16.037158404131066 " />
			<path d="M35.873639616873874,-13.336262367195134 L37.5253917405144,-14.295750499294877 " />
			<path d="M37.98327676876699,-9.704536732272764 L39.63502889240752,-10.664024864372507 " />
			<path d="M-39.635028892407526,10.664024864372507 L-37.983276768767,9.704536732272764 " />
			<path d="M-37.52539174051441,14.295750499294877 L-35.87363961687388,13.336262367195134 " />
			<path d="M35.873639616873874,16.037158404131066 L37.5253917405144,15.077670272031323 " />
			<path d="M37.98327676876699,19.668884039053435 L39.63502889240752,18.70939590695369 " />

       </g>

       <!-- solid lines -->
       <g  stroke="rgb(0,0,0)" fill="none">
			<path d="M-48.01879388012114,-27.35631503907106 L-46.36704175648061,-28.315803171170803 " />
			<path d="M-46.3670417564806,-28.315803171170803 L-46.3670417564806,20.639898114372865 " />
			<path d="M-48.01879388012114,21.59938624647261 L-46.36704175648061,20.639898114372865 " />
			<path d="M-48.01879388012114,-27.35631503907106 L-48.01879388012114,21.59938624647261 " />
			<path d="M-46.3670417564806,-28.315803171170803 L-13.803928461853008,-25.998639332149924 " />
			<path d="M0.5899114727287635,-32.20584219816948 L14.275857640036019,-40.155886721281625 " />
			<path d="M14.275857640036019,-40.155886721281625 L36.928458192820436,-38.543946659354056 " />
			<path d="M32.20916641099035,-22.724386081359555 L39.05213949464397,-22.237445854318935 " />
			<path d="M-46.3670417564806,20.639898114372865 L48.018793880121144,27.356315039071063 " />
			<path d="M48.01879388012114,-16.591917372122712 L48.01879388012114,27.35631503907106 " />
			<path d="M-6.167256305800678,-19.580535990340923 L12.152176338212476,-18.276940523592685 " />
			<path d="M-38.910560741189066,-17.994065977010912 L-38.9066158135074,-18.123445800060583 L-38.89479673343845,-18.251749184954942 L-38.87515054740387,-18.37846541384527 L-38.86241551859166,-18.44107041786369 L-38.847755458000385,-18.50309008663433 L-38.83118495803193,-18.564462686719892 L-38.812720512710555,-18.625127128765428 L-38.79238050126497,-18.685023028305757 L-38.77018516983396,-18.74409076587125 L-38.74615661131367,-18.802271546332143 L-38.72031874336669,-18.859507457422307 L-38.69269728461474,-18.91574152738426 L-38.66331972903877,-18.970917781677976 L-38.63221531861187,-19.024981298697092 L-38.59941501419225,-19.07787826443705 L-38.564951464705274,-19.12955602606073 L-38.52885897464518,-19.179963144308292 L-38.49117346992899,-19.229049444699044 L-38.45193246213629,-19.276766067474327 L-38.41117501117086,-19.32306551623182 L-38.368941686381,-19.367901705202716 L-38.32527452617741,-19.41123000512478 L-38.280216996188834,-19.45300728766567 L-38.23381394599697,-19.493191968352217 L-38.18611156449393,-19.531744047962963 L-38.1371573339065,-19.5686251523428 L-38.08699998253306,-19.60379857060001 L-38.035689436240126,-19.63722929164772 L-37.983276768767006,-19.668884039053427 " />
			<path d="M-37.983276768766984,-19.668884039053435 L-37.899664725298166,-19.71452818005989 L-37.813712960224954,-19.755687787754646 L-37.725628538877906,-19.792263705037605 L-37.635623664343335,-19.824167817320365 L-37.54391516624748,-19.851323264801966 L-37.450723978394976,-19.873664627630887 L-37.356274606519946,-19.8911380835072 L-37.260794587432024,-19.90370153734521 L-37.164513940860246,-19.91132472268419 L-37.0676646153154,-19.91398927460294 L-36.970479929305725,-19.91168877396251 L-36.87319400925218,-19.904428762870438 L-36.776041225457426,-19.892226731329348 L-36.6792556274872,-19.875112075101992 L-36.58307038032443,-19.853126024894294 L-36.48771720265436,-19.82632154702695 L-36.39342580863395,-19.794763215834937 L-36.30042335449035,-19.75852705810228 L-36.20893389128164,-19.717700369906876 L-36.11917782513822,-19.672381506316576 L-36.031371386285144,-19.622679644443235 L-35.945726108124525,-19.568714520425473 L-35.86244831763311,-19.51061614097384 L-35.78173863830246,-19.448524470173247 L-35.70379150681941,-19.382589092297245 L-35.628794704651064,-19.312968851446392 L-35.5569289056628,-19.23983146887891 L-35.48836724085908,-19.163353138955486 L-35.423274881295704,-19.083718104671608 L-35.36180864016827,-19.00111821380008 L-35.30411659503548,-18.9157524567129 L-35.25033773108727,-18.827826486996056 L-35.20060160631736,-18.737552126011995 L-35.15502803940671,-18.645146852603432 L-35.11372682106977,-18.55083327916775 L-35.076797449559066,-18.454838615364253 L-35.044328890965204,-18.35739412074618 L-35.01639936488975,-18.258734547636195 L-34.993076156007355,-18.15909757558748 L-34.97441545197108,-18.058723238792872 L-34.96046220805145,-17.957853347821455 L-34.95125003883522,-17.856730907075743 L-34.94680113724492,-17.755599529372773 L-34.94712622107416,-17.65470284905949 L-34.952224507167514,-17.554283935076278 L-34.96208371330724,-17.45458470538258 L-34.976680087802166,-17.355845344155345 L-34.99597846670766,-17.25830372316432 L-35.0199323585386,-17.16219482871811 L-35.04848405627143,-17.067750195561576 L-35.0815647763655,-16.975197349088372 L-35.11909482446857,-16.88475925721232 L-35.16098378740751,-16.796653793218187 L-35.20713075100156,-16.71109321088587 L-35.257424543173435,-16.628283633152424 L-35.31174400177257,-16.548424555543875 L-35.369958266465375,-16.471708365573004 L-35.43192709398924,-16.398319879261003 L-35.49750119601083,-16.328435895899467 L-35.56652259877477,-16.26222477212543 L-35.63882502367623,-16.199846016335467 L-35.71423428784069,-16.141449904416014 L-35.792568723745696,-16.087177117715584 L-35.87363961687386,-16.03715840413107 " />
			<path d="M-35.873639616873874,-16.037158404131066 L-35.93011581270298,-16.005699243158986 L-35.987699747405564,-15.976289830257405 L-36.04632752710691,-15.948962797467761 L-36.105934099704726,-15.923748466268053 L-36.16645332704951,-15.900674813928802 L-36.22781805833003,-15.879767442470076 L-36.28996020458235,-15.861049550254046 L-36.35281081423991,-15.844541906244599 L-36.41630014964063,-15.83026282696254 L-36.480357764406314,-15.818228156161993 L-36.54491258160842,-15.808451247250503 L-36.60989297263345,-15.800942948472402 L-36.67522683666051,-15.795711590871823 L-36.74084168066275,-15.792762979048764 L-36.80666469984413,-15.79210038471842 L-36.87262285842196,-15.793724543080975 L-36.93864297066586,-15.797633652005825 L-37.004651782102975,-15.80382337403119 L-37.0705760507996,-15.812286841176864 L-37.13634262862882,-15.823014662564782 L-37.201878542434024,-15.835994934838926 L-37.26711107499838,-15.851213255373027 L-37.331967845730254,-15.868652738251413 L-37.396376890975105,-15.888294033005243 L-37.460266743864814,-15.910115346083371 L-37.52356651361574,-15.934092465033986 L-37.586205964187585,-15.960198785370228 L-37.64811559221579,-15.988405340089935 L-37.709226704130906,-16.01868083181681 L-37.76947149237952,-16.05099166752728 L-37.82878311066202,-16.085301995824615 L-37.88709574810376,-16.121573746718823 L-37.9443447022774,-16.159766673868294 L-38.00046645099529,-16.199838399236256 L-38.055398722792326,-16.241744460112518 L-38.10908056602095,-16.28543835844832 L-38.16145241648183,-16.330871612449563 L-38.212456163514936,-16.377993810371123 L-38.26203521447791,-16.42675266645265 L-38.310134557539975,-16.477094078933675 L-38.3567008227219,-16.528962190083767 L-38.40168234111414,-16.58229944818103 L-38.44502920220752,-16.637046671370246 L-38.48669330927288,-16.693143113329764 L-38.52662843272812,-16.750526530674286 L-38.564790261433544,-16.80913325201878 L-38.60113645185853,-16.868898248626827 L-38.63562667506499,-16.929755206565122 L-38.66822266145549,-16.991636600283947 L-38.69888824323632,-17.05447376754203 L-38.72758939454853,-17.118196985592697 L-38.75429426922225,-17.182735548546674 L-38.77897323611251,-17.248017845825824 L-38.801598911977344,-17.313971441620662 L-38.82214619186156,-17.380523155263553 L-38.84059227695274,-17.447599142428373 L-38.85691669987823,-17.515124977066566 L-38.87110134741533,-17.583025733988656 L-38.88313048058933,-17.6512260719996 L-38.8929907521371,-17.71965031749572 L-38.900671221316955,-17.788222548430507 L-38.906163366048254,-17.856866678556035 L-38.90946109236729,-17.925506541846605 L-38.910560741189066,-17.994065977010894 " />
			<path d="M36.598107768092326,-12.620932437252355 L36.60205269577399,-12.750312260302026 L36.613871775842945,-12.878615645196385 L36.63351796187752,-13.005331874086712 L36.64625299068973,-13.067936878105133 L36.66091305128101,-13.129956546875773 L36.67748355124946,-13.191329146961335 L36.69594799657084,-13.25199358900687 L36.71628800801642,-13.3118894885472 L36.738483339447434,-13.370957226112694 L36.76251189796772,-13.429138006573584 L36.7883497659147,-13.48637391766375 L36.815971224666654,-13.542607987625702 L36.845348780242624,-13.597784241919419 L36.87645319066952,-13.651847758938535 L36.90925349508914,-13.704744724678493 L36.94371704457612,-13.756422486302172 L36.97980953463621,-13.806829604549737 L37.017495039352404,-13.855915904940485 L37.0567360471451,-13.903632527715772 L37.09749349811053,-13.949931976473266 L37.13972682290039,-13.994768165444158 L37.18339398310398,-14.038096465366221 L37.22845151309256,-14.079873747907113 L37.27485456328442,-14.120058428593659 L37.322556944787465,-14.158610508204406 L37.37151117537489,-14.195491612584243 L37.421668526748334,-14.23066503084145 L37.472979073041266,-14.264095751889164 L37.52539174051439,-14.29575049929487 " />
			<path d="M37.52539174051441,-14.29575049929488 L37.610750436989164,-14.342287589080295 L37.69854178207433,-14.38415139156179 L37.78854548249306,-14.421236858636714 L37.880535693544196,-14.453450932395345 L37.97428158581043,-14.480712778629451 L38.06954792437449,-14.502953989668162 L38.16609565908995,-14.520118756032126 L38.2636825244256,-14.532164006475252 L38.36206364737805,-14.539059516062633 L38.46099216192725,-14.54078798201344 L38.56021982849306,-14.537345067118487 L38.65949765683844,-14.528739410623519 L38.75857653085628,-14.514992606550893 L38.85720783367208,-14.496139149514086 L38.95514407149385,-14.472226348160973 L39.052139494643974,-14.443314206463054 " />
			<path d="M40.41285174626795,-13.132769674862688 L40.44413230732752,-13.046620124680418 L40.47184343499161,-12.959385274942846 L40.49593206211202,-12.871232181453504 L40.51635205867338,-12.782329658463933 L40.53306432013266,-12.692847955392324 L40.54603684230491,-12.602958430793807 L40.55524478265159,-12.512833224206721 L40.560670507854404,-12.422644926503292 L40.562303627583255,-12.332566249376008 L40.560141014393906,-12.24276969459261 L40.554186809717045,-12.153427223653106 L40.54445241592741,-12.064709928481388 L40.53095647450809,-11.976787703782115 L40.51372483035187,-11.889828921690274 L40.492790482267935,-11.804000109336474 L40.46819351978874,-11.719465629945478 L40.439981046398096,-11.63638736807859 L40.408207089327384,-11.554924419622767 L40.37293249609277,-11.475232787120031 L40.334224817971474,-11.397465081020709 L40.29215818064022,-11.321770227432545 L40.24681314222369,-11.24829318292539 L40.1982765390247,-11.177174656937595 L40.14664131923165,-11.10855084231572 L40.092006364921595,-11.042553154503564 L40.034476302699844,-10.979307979879984 L39.97416130333875,-10.918936433727438 L39.91117687079932,-10.861554128294742 L39.845643621039756,-10.807270951398188 L39.77768705103435,-10.756190855985045 L39.70743729844531,-10.708411661062389 L39.63502889240753,-10.664024864372513 " />
			<path d="M39.63502889240752,-10.664024864372507 L39.57855269657841,-10.632565703400429 L39.52096876187583,-10.603156290498848 L39.46234098217448,-10.575829257709204 L39.40273440957667,-10.550614926509496 L39.34221518223188,-10.527541274170247 L39.28085045095136,-10.506633902711519 L39.21870830469904,-10.48791601049549 L39.15585769504148,-10.471408366486042 L39.092368359640766,-10.457129287203983 L39.02831074487508,-10.445094616403436 L38.96375592767297,-10.435317707491947 L38.89877553664794,-10.427809408713845 L38.833441672620886,-10.422578051113266 L38.767826828618645,-10.419629439290206 L38.702003809437265,-10.418966844959863 L38.63604565085943,-10.420591003322418 L38.57002553861553,-10.424500112247268 L38.50401672717842,-10.43068983427263 L38.43809245848179,-10.439153301418306 L38.372325880652575,-10.449881122806225 L38.30678996684737,-10.462861395080369 L38.24155743428301,-10.47807971561447 L38.17670066355114,-10.495519198492856 L38.11229161830629,-10.515160493246686 L38.04840176541658,-10.536981806324814 L37.98510199566565,-10.560958925275429 L37.92246254509381,-10.587065245611669 L37.860552917065604,-10.615271800331378 L37.79944180515049,-10.64554729205825 L37.73919701690187,-10.677858127768724 L37.67988539861937,-10.71216845606606 L37.62157276117763,-10.748440206960268 L37.564323807003994,-10.786633134109739 L37.5082020582861,-10.826704859477697 L37.45326978648907,-10.868610920353959 L37.39958794326044,-10.912304818689764 L37.34721609279956,-10.957738072691004 L37.296212345766456,-11.004860270612566 L37.24663329480348,-11.053619126694091 L37.19853395174142,-11.103960539175118 L37.151967686559495,-11.155828650325208 L37.10698616816725,-11.209165908422474 L37.06363930707387,-11.26391313161169 L37.02197520000851,-11.320009573571207 L36.982040076553275,-11.37739299091573 L36.94387824784785,-11.43599971226022 L36.90753205742286,-11.495764708868268 L36.8730418342164,-11.556621666806565 L36.840445847825904,-11.61850306052539 L36.809780266045074,-11.681340227783474 L36.78107911473286,-11.745063445834138 L36.75437424005914,-11.809602008788115 L36.72969527316888,-11.874884306067266 L36.70706959730405,-11.940837901862107 L36.68652231741983,-12.007389615504998 L36.66807623232865,-12.074465602669818 L36.651751809403166,-12.141991437308011 L36.63756716186606,-12.2098921942301 L36.62553802869206,-12.27809253224104 L36.61567775714429,-12.346516777737163 L36.60799728796444,-12.41508900867195 L36.60250514323314,-12.483733138797476 L36.599207416914105,-12.552373002088048 L36.598107768092326,-12.620932437252337 " />
			<path d="M-38.910560741189066,11.379354794315288 L-38.9066158135074,11.249974971265617 L-38.89479673343845,11.121671586371258 L-38.87515054740387,10.994955357480931 L-38.86241551859166,10.93235035346251 L-38.847755458000385,10.87033068469187 L-38.83118495803193,10.808958084606308 L-38.812720512710555,10.748293642560773 L-38.79238050126497,10.688397743020444 L-38.77018516983396,10.62933000545495 L-38.74615661131367,10.571149224994059 L-38.72031874336669,10.513913313903894 L-38.69269728461474,10.457679243941941 L-38.66331972903877,10.402502989648225 L-38.63221531861187,10.348439472629108 L-38.59941501419225,10.29554250688915 L-38.564951464705274,10.243864745265471 L-38.52885897464518,10.193457627017906 L-38.49117346992899,10.144371326627159 L-38.45193246213629,10.096654703851872 L-38.41117501117086,10.050355255094377 L-38.368941686381,10.005519066123485 L-38.32527452617741,9.962190766201422 L-38.280216996188834,9.92041348366053 L-38.23381394599697,9.880228802973985 L-38.18611156449393,9.841676723363237 L-38.1371573339065,9.8047956189834 L-38.08699998253306,9.769622200726193 L-38.035689436240126,9.73619147967848 L-37.983276768767006,9.704536732272773 " />
			<path d="M-37.983276768766984,9.704536732272764 L-37.899664725298166,9.658892591266309 L-37.813712960224954,9.617732983571555 L-37.725628538877906,9.581157066288595 L-37.635623664343335,9.549252954005835 L-37.54391516624748,9.522097506524235 L-37.450723978394976,9.499756143695315 L-37.356274606519946,9.482282687819 L-37.260794587432024,9.46971923398099 L-37.164513940860246,9.462096048642014 L-37.0676646153154,9.45943149672326 L-36.970479929305725,9.46173199736369 L-36.87319400925218,9.468992008455762 L-36.776041225457426,9.481194039996854 L-36.6792556274872,9.498308696224207 L-36.58307038032443,9.520294746431908 L-36.48771720265436,9.547099224299252 L-36.39342580863395,9.578657555491265 L-36.30042335449035,9.61489371322392 L-36.20893389128164,9.655720401419325 L-36.11917782513822,9.701039265009625 L-36.031371386285144,9.750741126882966 L-35.945726108124525,9.804706250900725 L-35.86244831763311,9.862804630352361 L-35.78173863830246,9.924896301152952 L-35.70379150681941,9.990831679028954 L-35.628794704651064,10.060451919879808 L-35.5569289056628,10.13358930244729 L-35.48836724085908,10.210067632370716 L-35.423274881295704,10.289702666654591 L-35.36180864016827,10.37230255752612 L-35.30411659503548,10.457668314613297 L-35.25033773108727,10.545594284330145 L-35.20060160631736,10.635868645314204 L-35.15502803940671,10.728273918722769 L-35.11372682106977,10.822587492158451 L-35.076797449559066,10.91858215596195 L-35.044328890965204,11.016026650580022 L-35.01639936488975,11.114686223690006 L-34.993076156007355,11.21432319573872 L-34.97441545197108,11.31469753253333 L-34.96046220805145,11.415567423504745 L-34.95125003883522,11.516689864250457 L-34.94680113724492,11.617821241953427 L-34.94712622107416,11.718717922266709 L-34.952224507167514,11.819136836249923 L-34.96208371330724,11.918836065943623 L-34.976680087802166,12.017575427170856 L-34.99597846670766,12.115117048161881 L-35.0199323585386,12.211225942608092 L-35.04848405627143,12.305670575764623 L-35.0815647763655,12.39822342223783 L-35.11909482446857,12.488661514113883 L-35.16098378740751,12.576766978108012 L-35.20713075100156,12.66232756044033 L-35.257424543173435,12.745137138173776 L-35.31174400177257,12.824996215782328 L-35.369958266465375,12.901712405753196 L-35.43192709398924,12.975100892065198 L-35.49750119601083,13.044984875426733 L-35.56652259877477,13.111195999200772 L-35.63882502367623,13.173574754990733 L-35.71423428784069,13.231970866910185 L-35.792568723745696,13.286243653610619 L-35.87363961687386,13.33626236719513 " />
			<path d="M-35.873639616873874,13.336262367195136 L-35.93011581270298,13.367721528167214 L-35.987699747405564,13.397130941068795 L-36.04632752710691,13.42445797385844 L-36.105934099704726,13.449672305058147 L-36.16645332704951,13.472745957397397 L-36.22781805833003,13.493653328856125 L-36.28996020458235,13.512371221072154 L-36.35281081423991,13.528878865081602 L-36.41630014964063,13.54315794436366 L-36.480357764406314,13.555192615164207 L-36.54491258160842,13.564969524075696 L-36.60989297263345,13.572477822853799 L-36.67522683666051,13.577709180454377 L-36.74084168066275,13.580657792277437 L-36.80666469984413,13.58132038660778 L-36.87262285842196,13.579696228245226 L-36.93864297066586,13.575787119320376 L-37.004651782102975,13.569597397295013 L-37.0705760507996,13.561133930149337 L-37.13634262862882,13.550406108761418 L-37.201878542434024,13.537425836487275 L-37.26711107499838,13.522207515953173 L-37.331967845730254,13.504768033074788 L-37.396376890975105,13.485126738320957 L-37.460266743864814,13.46330542524283 L-37.52356651361574,13.439328306292214 L-37.586205964187585,13.413221985955975 L-37.64811559221579,13.385015431236265 L-37.709226704130906,13.354739939509393 L-37.76947149237952,13.32242910379892 L-37.82878311066202,13.288118775501584 L-37.88709574810376,13.251847024607375 L-37.9443447022774,13.213654097457905 L-38.00046645099529,13.173582372089946 L-38.055398722792326,13.131676311213685 L-38.10908056602095,13.08798241287788 L-38.16145241648183,13.04254915887664 L-38.212456163514936,12.995426960955077 L-38.26203521447791,12.946668104873552 L-38.310134557539975,12.896326692392526 L-38.3567008227219,12.844458581242435 L-38.40168234111414,12.79112132314517 L-38.44502920220752,12.736374099955954 L-38.48669330927288,12.680277657996436 L-38.52662843272812,12.622894240651913 L-38.564790261433544,12.564287519307424 L-38.60113645185853,12.504522522699375 L-38.63562667506499,12.443665564761078 L-38.66822266145549,12.381784171042254 L-38.69888824323632,12.318947003784169 L-38.72758939454853,12.255223785733506 L-38.75429426922225,12.190685222779528 L-38.77897323611251,12.125402925500378 L-38.801598911977344,12.059449329705537 L-38.82214619186156,11.992897616062645 L-38.84059227695274,11.925821628897825 L-38.85691669987823,11.858295794259632 L-38.87110134741533,11.790395037337543 L-38.88313048058933,11.722194699326604 L-38.8929907521371,11.65377045383048 L-38.900671221316955,11.585198222895693 L-38.906163366048254,11.516554092770168 L-38.90946109236729,11.447914229479595 L-38.910560741189066,11.379354794315306 " />
			<path d="M37.16442278191195,-6.705949781438926 L-35.512670658271404,-11.877590813456539 " />
			<path d="M37.16442278191194,-6.7059497814389255 L37.16442278191194,-4.287538137933069 " />
			<path d="M37.16442278191194,4.191589324723093 L37.16442278191194,10.918102681356796 " />
			<path d="M-35.512670658271404,-11.877590813456536 L-35.512670658271404,5.746461649339185 " />
			<path d="M37.16442278191195,10.918102681356794 L-35.512670658271404,5.746461649339183 " />
			<path d="M36.598107768092326,16.752488334073846 L36.60205269577399,16.623108511024174 L36.613871775842945,16.494805126129815 L36.63351796187752,16.36808889723949 L36.64625299068973,16.30548389322107 L36.66091305128101,16.243464224450427 L36.67748355124946,16.182091624364865 L36.69594799657084,16.12142718231933 L36.71628800801642,16.061531282779 L36.738483339447434,16.00246354521351 L36.76251189796772,15.944282764752616 L36.7883497659147,15.88704685366245 L36.815971224666654,15.830812783700498 L36.845348780242624,15.775636529406782 L36.87645319066952,15.721573012387665 L36.90925349508914,15.668676046647708 L36.94371704457612,15.616998285024028 L36.97980953463621,15.566591166776464 L37.017495039352404,15.517504866385716 L37.0567360471451,15.469788243610429 L37.09749349811053,15.423488794852934 L37.13972682290039,15.378652605882042 L37.18339398310398,15.335324305959979 L37.22845151309256,15.293547023419087 L37.27485456328442,15.253362342732542 L37.322556944787465,15.214810263121795 L37.37151117537489,15.177929158741957 L37.421668526748334,15.14275574048475 L37.472979073041266,15.109325019437037 L37.52539174051439,15.07767027203133 " />
			<path d="M37.52539174051441,15.077670272031321 L37.609003783983226,15.032026131024866 L37.69495554905644,14.990866523330112 L37.783039970403486,14.954290606047152 L37.87304484493806,14.922386493764392 L37.96475334303391,14.895231046282792 L38.05794453088642,14.87288968345387 L38.152393902761446,14.855416227577557 L38.24787392184937,14.842852773739548 L38.344154568421146,14.835229588400571 L38.44100389396599,14.832565036481817 L38.53818857997567,14.834865537122248 L38.63547450002921,14.84212554821432 L38.732627283823966,14.85432757975541 L38.82941288179419,14.871442235982764 L38.92559812895696,14.893428286190463 L39.02095130662703,14.92023276405781 L39.11524270064744,14.951791095249822 L39.208245154791044,14.988027252982477 L39.29973461799975,15.028853941177882 L39.38949068414317,15.074172804768182 L39.47729712299625,15.123874666641523 L39.56294240115687,15.177839790659284 L39.64622019164828,15.235938170110916 L39.726929870978935,15.298029840911509 L39.804877002461986,15.363965218787511 L39.87987380463033,15.433585459638365 L39.95173960361859,15.506722842205846 L40.020301268422315,15.583201172129273 L40.08539362798569,15.662836206413148 L40.14685986911312,15.745436097284678 L40.20455191424591,15.830801854371856 L40.25833077819412,15.918727824088702 L40.30806690296403,16.009002185072763 L40.353640469874684,16.101407458481326 L40.394941688211624,16.195721031917007 L40.431871059722326,16.291715695720505 L40.46433961831619,16.38916019033858 L40.49226914439164,16.487819763448563 L40.51559235327404,16.587456735497277 L40.53425305731031,16.687831072291885 L40.54820630122994,16.788700963263302 L40.55741847044617,16.889823404009014 L40.561867372036474,16.990954781711984 L40.561542288207235,17.091851462025268 L40.55644400211388,17.19227037600848 L40.546584795974155,17.291969605702178 L40.53198842147923,17.390708966929413 L40.51269004257373,17.488250587920437 L40.488736150742795,17.584359482366647 L40.460184453009965,17.67880411552318 L40.427103732915896,17.771356961996386 L40.389573684812824,17.861795053872438 L40.34768472187388,17.94990051786657 L40.301537758279835,18.035461100198887 L40.25124396610796,18.118270677932333 L40.196924507508825,18.198129755540883 L40.13871024281602,18.274845945511753 L40.076741415292155,18.348234431823755 L40.01116731327056,18.41811841518529 L39.942145910506625,18.48432953895933 L39.86984348560516,18.54670829474929 L39.7944342214407,18.605104406668744 L39.7160997855357,18.659377193369174 L39.63502889240753,18.709395906953688 " />
			<path d="M39.63502889240752,18.70939590695369 L39.57855269657841,18.74085506792577 L39.52096876187583,18.77026448082735 L39.46234098217448,18.797591513616997 L39.40273440957667,18.822805844816703 L39.34221518223188,18.845879497155956 L39.28085045095136,18.866786868614682 L39.21870830469904,18.88550476083071 L39.15585769504148,18.902012404840157 L39.092368359640766,18.916291484122215 L39.02831074487508,18.928326154922765 L38.96375592767297,18.938103063834255 L38.89877553664794,18.945611362612354 L38.833441672620886,18.950842720212933 L38.767826828618645,18.953791332035994 L38.702003809437265,18.954453926366337 L38.63604565085943,18.95282976800378 L38.57002553861553,18.948920659078933 L38.50401672717842,18.942730937053568 L38.43809245848179,18.934267469907894 L38.372325880652575,18.923539648519974 L38.30678996684737,18.910559376245832 L38.24155743428301,18.89534105571173 L38.17670066355114,18.877901572833345 L38.11229161830629,18.858260278079513 L38.04840176541658,18.83643896500139 L37.98510199566565,18.812461846050773 L37.92246254509381,18.78635552571453 L37.860552917065604,18.75814897099482 L37.79944180515049,18.72787347926795 L37.73919701690187,18.695562643557476 L37.67988539861937,18.661252315260143 L37.62157276117763,18.624980564365934 L37.564323807003994,18.586787637216464 L37.5082020582861,18.5467159118485 L37.45326978648907,18.50480985097224 L37.39958794326044,18.461115952636437 L37.34721609279956,18.415682698635194 L37.296212345766456,18.368560500713635 L37.24663329480348,18.319801644632108 L37.19853395174142,18.269460232151083 L37.151967686559495,18.21759212100099 L37.10698616816725,18.16425486290373 L37.06363930707387,18.10950763971451 L37.02197520000851,18.053411197754993 L36.982040076553275,17.996027780410472 L36.94387824784785,17.93742105906598 L36.90753205742286,17.87765606245793 L36.8730418342164,17.816799104519635 L36.840445847825904,17.75491771080081 L36.809780266045074,17.692080543542726 L36.78107911473286,17.62835732549206 L36.75437424005914,17.563818762538084 L36.72969527316888,17.498536465258933 L36.70706959730405,17.432582869464095 L36.68652231741983,17.366031155821204 L36.66807623232865,17.298955168656384 L36.651751809403166,17.23142933401819 L36.63756716186606,17.163528577096102 L36.62553802869206,17.09532823908516 L36.61567775714429,17.026903993589038 L36.60799728796444,16.95833176265425 L36.60250514323314,16.889687632528723 L36.599207416914105,16.821047769238152 L36.598107768092326,16.752488334073863 " />
			<path d="M-48.01879388012114,21.59938624647261 L46.36704175648061,28.315803171170806 " />
			<path d="M46.3670417564806,28.315803171170803 L48.01879388012113,27.35631503907106 " />
			<path d="M-38.672568689632726,-18.9540113275001 L-38.60717669307384,-18.951401149623017 L-38.54175531911702,-18.946549112939543 L-38.47637583835837,-18.939460503299333 L-38.41110947575518,-18.930143043093462 L-38.34602733303288,-18.918606882841598 L-38.28120031122618,-18.904864590133933 L-38.21669903343894,-18.888931135939952 L-38.152593767906744,-18.870823878298925 L-38.08895435144608,-18.850562543409914 L-38.025850113373515,-18.828169204141894 L-37.9633497999778,-18.80366825598737 L-37.90152149962703,-18.777086390485724 L-37.84043256859264,-18.748452566145254 L-37.78014955767089,-18.71779797689548 L-37.7207381396819,-18.685156018104266 L-37.662263037925065,-18.650562250196593 L-37.60478795566903,-18.61405435991474 L-37.548375506752734,-18.57567211926203 L-37.49308714737342,-18.53545734217488 L-37.43898310913572,-18.493453838970343 L-37.38612233343481,-18.449707368618768 L-37.334562407245215,-18.404265588893608 L-37.284359500385,-18.357178004452642 L-37.23556830432398,-18.30849591290716 L-37.18824197260229,-18.258272348937936 L-37.14243206292454,-18.2065620265188 L-37.09818848099237,-18.153421279310752 L-37.05555942613678,-18.098907999291622 L-37.01459133880936,-18.043081573688045 L-36.975328849989694,-17.98600282027852 L-36.93781473256395,-17.927733921138028 L-36.9020898547278,-17.868338354896313 L-36.8681931354642,-17.807880827583766 L-36.83616150214478,-17.746427202140126 L-36.806029850300796,-17.684044426662815 L-36.77783100560769,-17.62080046147314 L-36.7515956881245,-17.556764205079737 L-36.727352478827186,-17.49200541911996 L-36.70512778847225,-17.426594652360947 L-36.68494582882464,-17.36060316384323 L-36.66682858628129,-17.29410284525051 L-36.65079579791889,-17.22716614259026 L-36.63686492999219,-17.15986597727043 L-36.62505115890611,-17.09227566665827 L-36.61536735468243,-17.02446884420774 L-36.60782406693906,-16.95651937924262 L-36.60242951339725,-16.888501296482662 L-36.599189570929084,-16.820488695400414 L-36.59810776915519,-16.752555669496637 L-36.599185286599536,-16.68477622558222 L-36.60242094940554,-16.617224203154542 L-36.60781123261487,-16.549973193956102 L-36.615350264007574,-16.483096461803044 L-36.62502983049933,-16.416666862770942 L-36.63683938708882,-16.350756765824794 L-36.65076606834559,-16.28543797397963 L-36.666794702425705,-16.220781646077732 L-36.68490782760013,-16.156858219267576 L-36.705085711277654,-16.09373733226901 L-36.727306371501776,-16.03148774950826 L-36.75154560089798,-15.970177286205352 L-36.7777769930455,-15.909872734495679 L-36.80597197124468,-15.850639790666056 L-36.836099819648666,-15.792542983584662 " />
			<path d="M36.836099819648666,-13.580877787741544 L36.90149181620755,-13.57826760986446 L36.96691319016437,-13.573415573180986 L37.03229267092302,-13.566326963540776 L37.09755903352621,-13.557009503334903 L37.16264117624851,-13.54547334308304 L37.22746819805521,-13.531731050375377 L37.29196947584245,-13.515797596181397 L37.35607474137465,-13.497690338540368 L37.419714157835315,-13.477429003651359 L37.48281839590788,-13.455035664383336 L37.545318709303594,-13.43053471622881 L37.60714700965436,-13.403952850727169 L37.66823594068875,-13.375319026386695 L37.728518951610496,-13.344664437136924 L37.78793036959949,-13.31202247834571 L37.84640547135633,-13.277428710438036 L37.90388055361236,-13.240920820156182 L37.96029300252866,-13.202538579503473 L38.01558136190796,-13.162323802416324 L38.06968540014567,-13.120320299211786 L38.12254617584658,-13.07657382886021 L38.17410610203618,-13.031132049135053 L38.22430900889639,-12.984044464694085 L38.273100204957416,-12.935362373148603 L38.3204265366791,-12.88513880917938 L38.36623644635685,-12.833428486760244 L38.410480028289015,-12.780287739552197 L38.45310908314461,-12.725774459533065 L38.494077170472025,-12.669948033929488 L38.5333396592917,-12.612869280519968 L38.57085377671744,-12.554600381379473 L38.60657865455359,-12.495204815137756 L38.64047537381718,-12.434747287825212 L38.67250700713661,-12.37329366238157 L38.7026386589806,-12.31091088690426 L38.730837503673705,-12.247666921714586 L38.75707282115689,-12.183630665321184 L38.78131603045421,-12.118871879361404 L38.803540720809146,-12.053461112602392 L38.823722680456754,-11.987469624084675 L38.8418399230001,-11.920969305491953 L38.8578727113625,-11.854032602831703 L38.8718035792892,-11.786732437511878 L38.88361735037528,-11.719142126899715 L38.893301154598966,-11.651335304449184 L38.90084444234233,-11.583385839484066 L38.906238995884145,-11.51536775672411 L38.90947893835231,-11.44735515564186 L38.9105607401262,-11.379422129738082 L38.90948322268186,-11.311642685823665 L38.90624755987585,-11.244090663395989 L38.90085727666652,-11.176839654197549 L38.89331824527382,-11.10996292204449 L38.88363867878206,-11.04353332301239 L38.87182912219257,-10.977623226066239 L38.8579024409358,-10.912304434221076 L38.841873806855695,-10.847648106319179 L38.823760681681264,-10.783724679509023 L38.80358279800374,-10.72060379251046 L38.78136213777962,-10.658354209749705 L38.757122908383415,-10.597043746446799 L38.73089151623589,-10.536739194737123 L38.70269653803671,-10.477506250907503 L38.672568689632726,-10.419409443826106 " />
			<path d="M-38.672568689632726,10.4194094438261 L-38.60717669307384,10.422019621703184 L-38.54175531911702,10.426871658386657 L-38.47637583835837,10.433960268026867 L-38.41110947575518,10.44327772823274 L-38.34602733303288,10.454813888484603 L-38.28120031122618,10.468556181192266 L-38.21669903343894,10.484489635386247 L-38.152593767906744,10.502596893027276 L-38.08895435144608,10.522858227916284 L-38.025850113373515,10.545251567184307 L-37.9633497999778,10.569752515338834 L-37.90152149962703,10.596334380840474 L-37.84043256859264,10.624968205180949 L-37.780149557670896,10.65562279443072 L-37.7207381396819,10.688264753221933 L-37.662263037925065,10.722858521129607 L-37.60478795566903,10.759366411411461 L-37.548375506752734,10.79774865206417 L-37.49308714737343,10.83796342915132 L-37.43898310913572,10.879966932355858 L-37.38612233343481,10.923713402707433 L-37.334562407245215,10.96915518243259 L-37.284359500385,11.016242766873559 L-37.23556830432398,11.06492485841904 L-37.18824197260229,11.115148422388263 L-37.14243206292454,11.1668587448074 L-37.09818848099238,11.219999492015447 L-37.05555942613678,11.274512772034578 L-37.01459133880937,11.330339197638155 L-36.975328849989694,11.387417951047675 L-36.93781473256395,11.44568685018817 L-36.902089854727805,11.505082416429888 L-36.86819313546421,11.565539943742431 L-36.83616150214478,11.626993569186073 L-36.806029850300796,11.689376344663383 L-36.77783100560769,11.752620309853057 L-36.7515956881245,11.81665656624646 L-36.727352478827186,11.88141535220624 L-36.70512778847225,11.946826118965252 L-36.68494582882464,12.012817607482969 L-36.66682858628129,12.07931792607569 L-36.65079579791889,12.14625462873594 L-36.63686492999219,12.213554794055765 L-36.62505115890611,12.281145104667928 L-36.61536735468243,12.34895192711846 L-36.60782406693906,12.416901392083577 L-36.60242951339725,12.484919474843533 L-36.599189570929084,12.552932075925783 L-36.59810776915519,12.620865101829562 L-36.599185286599536,12.688644545743978 L-36.60242094940554,12.756196568171655 L-36.60781123261487,12.823447577370095 L-36.615350264007574,12.890324309523153 L-36.62502983049933,12.956753908555253 L-36.63683938708882,13.022664005501404 L-36.65076606834559,13.087982797346568 L-36.6667947024257,13.152639125248465 L-36.68490782760013,13.21656255205862 L-36.705085711277654,13.279683439057184 L-36.727306371501776,13.341933021817939 L-36.75154560089798,13.403243485120845 L-36.7777769930455,13.46354803683052 L-36.80597197124468,13.52278098066014 L-36.836099819648666,13.580877787741537 " />
			<path d="M35.51267065827142,-5.746461649339183 L-35.512670658271404,-10.800565385174577 " />
			<path d="M35.512670658271404,-5.7464616493391825 L35.512670658271404,-4.405075434115288 " />
			<path d="M35.512670658271404,4.074052028540876 L35.512670658271404,10.800565385174576 " />
			<path d="M36.836099819648666,15.792542983584656 L36.90149181620755,15.79515316146174 L36.96691319016437,15.800005198145215 L37.03229267092302,15.807093807785424 L37.09755903352621,15.816411267991295 L37.16264117624851,15.82794742824316 L37.22746819805521,15.841689720950823 L37.29196947584245,15.857623175144804 L37.35607474137465,15.875730432785833 L37.419714157835315,15.895991767674843 L37.48281839590788,15.918385106942864 L37.545318709303594,15.942886055097391 L37.60714700965436,15.969467920599033 L37.66823594068875,15.998101744939506 L37.7285189516105,16.02875633418928 L37.78793036959949,16.061398292980492 L37.84640547135633,16.095992060888165 L37.90388055361236,16.13249995117002 L37.96029300252866,16.170882191822727 L38.01558136190797,16.211096968909878 L38.06968540014567,16.253100472114415 L38.12254617584658,16.29684694246599 L38.17410610203618,16.34228872219115 L38.22430900889639,16.389376306632116 L38.273100204957416,16.4380583981776 L38.3204265366791,16.48828196214682 L38.36623644635685,16.539992284565958 L38.41048002828902,16.593133031774006 L38.45310908314461,16.647646311793135 L38.49407717047203,16.703472737396712 L38.5333396592917,16.760551490806236 L38.57085377671744,16.81882038994673 L38.606578654553594,16.878215956188445 L38.64047537381719,16.938673483500992 L38.67250700713661,17.000127108944632 L38.7026386589806,17.062509884421942 L38.730837503673705,17.125753849611616 L38.75707282115689,17.18979010600502 L38.78131603045421,17.2545488919648 L38.803540720809146,17.31995965872381 L38.823722680456754,17.385951147241528 L38.8418399230001,17.452451465834248 L38.8578727113625,17.519388168494498 L38.8718035792892,17.586688333814326 L38.88361735037528,17.654278644426487 L38.893301154598966,17.72208546687702 L38.90084444234233,17.790034931842136 L38.906238995884145,17.858053014602095 L38.90947893835231,17.926065615684344 L38.9105607401262,17.99399864158812 L38.90948322268186,18.06177808550254 L38.90624755987585,18.129330107930215 L38.90085727666652,18.196581117128655 L38.89331824527382,18.263457849281714 L38.88363867878206,18.329887448313816 L38.87182912219257,18.395797545259963 L38.8579024409358,18.46111633710513 L38.84187380685569,18.525772665007025 L38.823760681681264,18.58969609181718 L38.80358279800374,18.652816978815746 L38.78136213777962,18.7150665615765 L38.757122908383415,18.776377024879405 L38.73089151623589,18.83668157658908 L38.70269653803671,18.8959145204187 L38.672568689632726,18.954011327500098 " />
			<path d="M14.275857640036019,-40.155886721281625 L14.275857640036019,-34.281202567016386 " />
			<path d="M0.5899114727287635,-26.331158043904235 L14.275857640036019,-34.281202567016386 " />
			<path d="M36.928458192820436,-38.543946659354056 L36.928458192820436,-32.66926250508882 " />
			<path d="M32.20916641099035,-33.00508335132373 L36.928458192820436,-32.66926250508882 " />
			<path d="M32.20916641099035,-33.00508335132373 L32.20916641099035,-18.318372965660625 " />
			<path d="M18.995149421866106,-19.258671335118372 L32.20916641099035,-18.318372965660625 " />
			<path d="M18.995149421866106,-33.94538172078148 L18.995149421866106,-19.258671335118375 " />
			<path d="M14.275857640036019,-34.281202567016386 L18.995149421866106,-33.94538172078148 " />
			<path d="M12.152176338212476,-18.276940523592682 L17.343397298225575,-21.292474653049016 " />
			<path d="M32.20916641099035,-29.927867841946696 L36.928458192820436,-32.66926250508882 " />
			<path d="M17.343397298225575,-32.98589358868173 L18.995149421866106,-33.94538172078148 " />
			<path d="M35.512670658271404,-5.746461649339183 L37.16442278191194,-6.7059497814389255 " />
			<path d="M30.55741428734982,-17.358884833560882 L32.20916641099035,-18.318372965660625 " />
			<path d="M17.343397298225575,-32.98589358868173 L17.343397298225575,-18.299183203018632 " />
			<path d="M17.343397298225575,-18.29918320301863 L30.55741428734982,-17.358884833560882 " />
			<path d="M17.343397298225575,-18.29918320301863 L18.995149421866106,-19.258671335118372 " />
			<path d="M39.052139494643974,-24.978965126309383 L50.61440436012769,-31.69538205100758 " />
			<path d="M50.61440436012769,-31.69538205100758 L50.61440436012769,-19.9460137424771 " />
			<path d="M39.052139494643974,-13.2295968177789 L50.61440436012769,-19.946013742477096 " />
			<path d="M39.052139494643974,-24.978965126309383 L39.052139494643974,-13.229596817778903 " />
			<path d="M53.445979429225744,-31.493889543266633 L53.445979429225744,-19.744521234736155 " />
			<path d="M41.883714563742025,-13.028104310037955 L53.445979429225744,-19.74452123473615 " />
			<path d="M50.61440436012769,-31.69538205100758 L53.445979429225744,-31.493889543266636 " />
			<path d="M39.052139494643974,-13.2295968177789 L41.883714563742025,-13.028104310037953 " />
			<path d="M50.61440436012769,-19.946013742477096 L53.445979429225744,-19.74452123473615 " />
			<path d="M-13.803928461853003,-28.740158604140372 L-2.2416635963692872,-35.45657552883857 " />
			<path d="M-2.2416635963692872,-35.45657552883857 L-2.2416635963692872,-23.707207220308092 " />
			<path d="M-13.803928461853003,-16.99079029560989 L-2.2416635963692872,-23.70720722030809 " />
			<path d="M-13.803928461853003,-28.740158604140372 L-13.803928461853003,-16.99079029560989 " />
			<path d="M0.5899114727287635,-35.25508302109762 L0.5899114727287635,-23.50571471256714 " />
			<path d="M-10.972353392754952,-16.789297787868946 L0.5899114727287638,-23.505714712567144 " />
			<path d="M-2.2416635963692872,-35.45657552883857 L0.589911472728765,-35.255083021097626 " />
			<path d="M-13.803928461853003,-16.99079029560989 L-10.97235339275495,-16.789297787868946 " />
			<path d="M-2.2416635963692872,-23.70720722030809 L0.589911472728765,-23.505714712567144 " />
			<path d="M-32.70469204808251,-8.613150509471732 L-31.713640773898188,-9.188843388731577 " />
			<path d="M-31.713640773898184,-9.188843388731577 L-31.713640773898184,-1.3559311830445901 " />
			<path d="M-32.70469204808251,-0.7802383037847455 L-31.713640773898188,-1.3559311830445908 " />
			<path d="M-32.70469204808251,-8.613150509471732 L-32.70469204808251,-0.7802383037847447 " />
			<path d="M40.96345266628516,-4.017202356713966 L40.96345266628516,3.815709848973021 " />
			<path d="M39.972401392100835,4.391402728232866 L40.96345266628516,3.815709848973021 " />
			<path d="M-31.713640773898184,-9.188843388731577 L40.96345266628516,-4.017202356713966 " />
			<path d="M-32.70469204808251,-0.7802383037847455 L39.972401392100835,4.391402728232866 " />
			<path d="M-31.713640773898184,-1.3559311830445908 L40.96345266628516,3.8157098489730203 " />

       </g>
    </g>
    <g transform="translate(20,210.0)" stroke="rgb(0,0,255)">
        <line x1="30" y1="-30" x2="75" y2="-33" stroke-width="3" stroke="#000000" />
         <text x="80" y="-30" style="stroke:#000000">X </text>

        <line x1="30" y1="-30" x2="30" y2="-75" stroke-width="3" stroke="#000000" />
         <text x="25" y="-85" style="stroke:#000000">Y </text>

        <line x1="30" y1="-30" x2="58" y2="-15" stroke-width="3" stroke="#000000" />
         <text x="65" y="-5" style="stroke:#000000">Z </text>
        <!--
            <line x1="0" y1="0" x2="2.6288236829370444" y2="0" stroke-width="3" />
            <text x="0" y="20" style="stroke:#000000">1  mm </text>
        -->
    </g>
</svg>
