<?xml version='1.0' encoding='utf-8'?>
<svg width="102.620483mm" height="106.899647mm" viewBox="-51.310242 -43.346458 102.620483 106.899647" version="1.1" xmlns="http://www.w3.org/2000/svg">
  <g transform="scale(1,-1)" stroke-linecap="round">
    <g fill="none" stroke="rgb(0,0,0)" stroke-width="0.09">
      <path d="M -51.265242,17.320571 L -51.265242,14.433847 L -19.445436,40.414734 L -19.445436,43.301458 L -51.265242,17.320571" />
      <path d="M -51.265242,17.320571 L 19.445436,-40.414734 L 19.445436,-43.301458 L -8.838835,-20.207336 L -8.838835,-63.508189 L -22.98097,-51.961129 L -22.98097,-8.660275 L -51.265242,14.433847 L -51.265242,17.320571" />
      <path d="M 51.265242,-17.320571 L -19.445436,40.414734 L -51.265242,14.433847 L -22.98097,-8.660275 L -18.73833,-5.196157 L -4.596194,-16.743218 L -8.838835,-20.207336 L 19.445436,-43.301458 L 51.265242,-17.320571 M -36.698842,12.355376 A 2.1,2.1 -45.00000000000001 0,0 -39.66869,14.780259 A 2.1,2.1 -45.00000000000001 0,0 -36.698842,12.355376 M 19.869701,-33.832868 A 2.1,2.1 -45.00000000000001 0,0 16.899852,-31.407985 A 2.1,2.1 -45.00000000000001 0,0 19.869701,-33.832868 M -16.899852,28.521261 A 2.1,2.1 -45.00000000000001 0,0 -19.869701,30.946144 A 2.1,2.1 -45.00000000000001 0,0 -16.899852,28.521261 M 21.92031,-29.733661 L -34.648232,16.454583 L -21.92031,26.846937 L 34.648232,-19.341306 L 21.92031,-29.733661 M 39.66869,-17.666982 A 2.1,2.1 -45.00000000000001 0,0 36.698842,-15.2421 A 2.1,2.1 -45.00000000000001 0,0 39.66869,-17.666982" />
      <path d="M 51.265242,-14.433847 L -19.445436,43.301458 L -19.445436,40.414734 L 51.265242,-17.320571 L 51.265242,-14.433847" />
      <path d="M -51.265242,17.320571 L -19.445436,43.301458 L 51.265242,-14.433847 L 19.445436,-40.414734 L -51.265242,17.320571 M -36.698842,15.2421 A 2.1,2.1 -45.00000000000001 0,1 -39.66869,17.666982 A 2.1,2.1 -45.00000000000001 0,1 -36.698842,15.2421 M 19.869701,-30.946144 A 2.1,2.1 -45.00000000000001 0,1 16.899852,-28.521261 A 2.1,2.1 -45.00000000000001 0,1 19.869701,-30.946144 M -16.899852,31.407985 A 2.1,2.1 -45.00000000000001 0,1 -19.869701,33.832868 A 2.1,2.1 -45.00000000000001 0,1 -16.899852,31.407985 M -34.648232,19.341306 L 21.92031,-26.846937 L 34.648232,-16.454583 L -21.92031,29.733661 L -34.648232,19.341306 M 39.66869,-14.780259 A 2.1,2.1 -45.00000000000001 0,1 36.698842,-12.355376 A 2.1,2.1 -45.00000000000001 0,1 39.66869,-14.780259" />
      <path d="M -22.98097,-8.660275 L -22.98097,-51.961129 L -18.73833,-48.49701 L -18.73833,-5.196157 L -22.98097,-8.660275" />
      <path d="M -18.73833,-48.49701 L -22.98097,-51.961129 L -8.838835,-63.508189 L -4.596194,-60.044071 L -7.424621,-57.734659 L 3.181981,-49.074363 L -5.303301,-42.146127 L -15.909903,-50.806422 L -18.73833,-48.49701" />
      <path d="M -8.838835,-63.508189 L -8.838835,-20.207336 L -4.596194,-16.743218 L -4.596194,-60.044071 L -8.838835,-63.508189" />
      <path d="M 19.445436,-43.301458 L 19.445436,-40.414734 L 51.265242,-14.433847 L 51.265242,-17.320571 L 19.445436,-43.301458" />
      <path d="M -4.596194,-60.044071 L -4.596194,-16.743218 L -18.73833,-5.196157 L -18.73833,-48.49701 L -15.909903,-50.806422 L -15.909903,-47.919699 L -7.424621,-54.847935 L -7.424621,-57.734659 L -4.596194,-60.044071" />
      <path d="M -36.698842,12.355376 A 2.1,2.1 -45.00000000000001 0,1 -39.66869,14.780259 A 2.1,2.1 -45.00000000000001 0,1 -36.698842,12.355376 L -36.698842,15.2421 A 2.1,2.1 -45.00000000000001 0,0 -39.66869,17.666982 A 2.1,2.1 -45.00000000000001 0,0 -36.698842,15.2421 L -36.698842,12.355376" />
      <path d="M 19.869701,-33.832868 A 2.1,2.1 -45.00000000000001 0,1 16.899852,-31.407985 A 2.1,2.1 -45.00000000000001 0,1 19.869701,-33.832868 L 19.869701,-30.946144 A 2.1,2.1 -45.00000000000001 0,0 16.899852,-28.521261 A 2.1,2.1 -45.00000000000001 0,0 19.869701,-30.946144 L 19.869701,-33.832868" />
      <path d="M -16.899852,28.521261 A 2.1,2.1 -45.00000000000001 0,1 -19.869701,30.946144 A 2.1,2.1 -45.00000000000001 0,1 -16.899852,28.521261 L -16.899852,31.407985 A 2.1,2.1 -45.00000000000001 0,0 -19.869701,33.832868 A 2.1,2.1 -45.00000000000001 0,0 -16.899852,31.407985 L -16.899852,28.521261" />
      <path d="M 21.92031,-29.733661 L 21.92031,-26.846937 L -34.648232,19.341306 L -34.648232,16.454583 L 21.92031,-29.733661" />
      <path d="M 21.92031,-26.846937 L 21.92031,-29.733661 L 34.648232,-19.341306 L 34.648232,-16.454583 L 21.92031,-26.846937" />
      <path d="M -34.648232,16.454583 L -34.648232,19.341306 L -21.92031,29.733661 L -21.92031,26.846937 L -34.648232,16.454583" />
      <path d="M 34.648232,-16.454583 L 34.648232,-19.341306 L -21.92031,26.846937 L -21.92031,29.733661 L 34.648232,-16.454583" />
      <path d="M 39.66869,-17.666982 A 2.1,2.1 -45.00000000000001 0,1 36.698842,-15.2421 A 2.1,2.1 -45.00000000000001 0,1 39.66869,-17.666982 L 39.66869,-14.780259 A 2.1,2.1 -45.00000000000001 0,0 36.698842,-12.355376 A 2.1,2.1 -45.00000000000001 0,0 39.66869,-14.780259 L 39.66869,-17.666982" />
      <path d="M -7.424621,-57.734659 L -7.424621,-54.847935 L 3.181981,-46.18764 L 3.181981,-49.074363 L -7.424621,-57.734659" />
      <path d="M -15.909903,-47.919699 L -5.303301,-39.259403 L 3.181981,-46.18764 L -7.424621,-54.847935 L -15.909903,-47.919699" />
      <path d="M -15.909903,-47.919699 L -15.909903,-50.806422 L -5.303301,-42.146127 L -5.303301,-39.259403 L -15.909903,-47.919699" />
      <path d="M 3.181981,-46.18764 L -5.303301,-39.259403 L -5.303301,-42.146127 L 3.181981,-49.074363 L 3.181981,-46.18764" />
    </g>
  </g>
</svg>