<?xml version='1.0' encoding='utf-8'?>
<svg width="89.892561mm" height="75.723216mm" viewBox="-44.946281 -37.861608 89.892561 75.723216" version="1.1" xmlns="http://www.w3.org/2000/svg">
  <g transform="scale(1,-1)" stroke-linecap="round">
    <g fill="none" stroke="rgb(0,0,0)" stroke-width="0.09">
      <path d="M -44.901281,8.371603 L -44.901281,6.062224 L -8.838835,35.507229 L -8.838835,37.816608 L -44.901281,8.371603" />
      <path d="M -44.901281,8.371603 L 8.838835,-35.507229 L 8.838835,-37.816608 L -44.901281,6.062224 L -44.901281,8.371603" />
      <path d="M -8.838835,35.507229 L -44.901281,6.062224 L 8.838835,-37.816608 L 44.901281,-8.371603 L -8.838835,35.507229 M 8.838835,-26.269547 L -30.759145,6.062224 L -8.838835,23.960168 L 30.759145,-8.371603 L 8.838835,-26.269547" />
      <path d="M 44.901281,-6.062224 L -8.838835,37.816608 L -8.838835,35.507229 L 44.901281,-8.371603 L 44.901281,-6.062224" />
      <path d="M -44.901281,8.371603 L -8.838835,37.816608 L 44.901281,-6.062224 L 8.838835,-35.507229 L -44.901281,8.371603 M -30.759145,8.371603 L 8.838835,-23.960168 L 30.759145,-6.062224 L -8.838835,26.269547 L -30.759145,8.371603" />
      <path d="M 8.838835,-37.816608 L 8.838835,-35.507229 L 44.901281,-6.062224 L 44.901281,-8.371603 L 8.838835,-37.816608" />
      <path d="M 8.838835,-26.269547 L 8.838835,-36.084407 L -30.759145,-3.752637 L -30.759145,6.062224 L 8.838835,-26.269547" />
      <path d="M 8.838835,-36.084407 L 8.838835,-26.269547 L 30.759145,-8.371603 L 30.759145,-18.186463 L 8.838835,-36.084407" />
      <path d="M 30.759145,-18.186463 L 30.759145,-8.371603 L -8.838835,23.960168 L -8.838835,14.145308 L 30.759145,-18.186463" />
      <path d="M -30.759145,6.062224 L -30.759145,-3.752637 L -8.838835,14.145308 L -8.838835,23.960168 L -30.759145,6.062224" />
      <path d="M 8.838835,-16.454687 L 8.838835,-23.960168 L -30.759145,8.371603 L -30.759145,15.877084 L 8.838835,-16.454687" />
      <path d="M 8.838835,-23.960168 L 8.838835,-16.454687 L 30.759145,1.443258 L 30.759145,-6.062224 L 8.838835,-23.960168" />
      <path d="M 30.759145,-6.062224 L 30.759145,1.443258 L -8.838835,33.775028 L -8.838835,26.269547 L 30.759145,-6.062224" />
      <path d="M -30.759145,15.877084 L -30.759145,8.371603 L -8.838835,26.269547 L -8.838835,33.775028 L -30.759145,15.877084" />
      <path d="M -8.838835,14.145308 L -30.759145,-3.752637 L 8.838835,-36.084407 L 30.759145,-18.186463 L -8.838835,14.145308 M 8.838835,-33.197642 L -27.223611,-3.752637 L -8.838835,11.258543 L 27.223611,-18.186463 L 8.838835,-33.197642" />
      <path d="M -30.759145,15.877084 L -8.838835,33.775028 L 30.759145,1.443258 L 8.838835,-16.454687 L -30.759145,15.877084" />
      <path d="M 8.838835,-33.197642 L 8.838835,-23.382782 L -27.223611,6.062224 L -27.223611,-3.752637 L 8.838835,-33.197642" />
      <path d="M 8.838835,-23.382782 L 8.838835,-33.197642 L 27.223611,-18.186463 L 27.223611,-8.371603 L 8.838835,-23.382782" />
      <path d="M 27.223611,-8.371603 L 27.223611,-18.186463 L -8.838835,11.258543 L -8.838835,21.073403 L 27.223611,-8.371603" />
      <path d="M -27.223611,-3.752637 L -27.223611,6.062224 L -8.838835,21.073403 L -8.838835,11.258543 L -27.223611,-3.752637" />
      <path d="M -27.223611,6.062224 L 8.838835,-23.382782 L 27.223611,-8.371603 L -8.838835,21.073403 L -27.223611,6.062224" />
      <path d="M 8.838835,-21.073403 L -27.223611,8.371603 L -8.838835,23.382782 L 27.223611,-6.062224 L 8.838835,-21.073403" />
      <path d="M 8.838835,-21.073403 L 8.838835,-16.743317 L -27.223611,12.701688 L -27.223611,8.371603 L 8.838835,-21.073403" />
      <path d="M -27.223611,8.371603 L -27.223611,12.701688 L -8.838835,27.712867 L -8.838835,23.382782 L -27.223611,8.371603" />
      <path d="M 27.223611,-1.732138 L 27.223611,-6.062224 L -8.838835,23.382782 L -8.838835,27.712867 L 27.223611,-1.732138" />
      <path d="M 8.838835,-16.743317 L 8.838835,-21.073403 L 27.223611,-6.062224 L 27.223611,-1.732138 L 8.838835,-16.743317" />
      <path d="M -8.838835,27.712867 L -27.223611,12.701688 L 8.838835,-16.743317 L 27.223611,-1.732138 L -8.838835,27.712867" />
    </g>
  </g>
</svg>