<?xml version="1.0" encoding="UTF-8" standalone="no"?>
<svg
   xmlns:svg="http://www.w3.org/2000/svg"
   xmlns="http://www.w3.org/2000/svg"
   width="800.0"
   height="240.0"

>
    <g transform="scale(3.6355093159142564, -3.6355093159142564)   translate(66.33922490967817,-42.660252373034055)" stroke-width="0.2750646231664298"  fill="none">
       <!-- hidden lines -->
       <g  stroke="rgb(160,160,160)" fill="none" stroke-dasharray="0.2750646231664298,0.2750646231664298" >
			<path d="M-6.02753471969462,-10.376358956921061 L-5.790387123269819,-10.50993618465098 L-5.549751614158479,-10.63718261981509 L-5.305773142193352,-10.758021613918903 L-5.058598670883002,-10.872380378070828 L-4.8083770888865,-10.98019002682749 L-4.555259120328454,-11.081385619687744 L-4.299397234008431,-11.175906200210393 L-4.040945551559459,-11.263694832732085 L-3.780059754610914,-11.344698636663217 L-3.516896991011729,-11.41886881834123 L-3.251615780170408,-11.486160700422078 L-2.984375917568858,-11.546533748792205 L-2.715338378507567,-11.599951596984768 L-2.444665221140105,-11.646382068085433 L-2.172519488855349,-11.68579719411456 L-1.8990651120662412,-11.71817323287405 L-1.6244668094642452,-11.743490682248781 L-1.3488899887989525,-11.761734291953923 L-1.0725006472426541,-11.772893072721166 L-0.7954652713998378,-11.776960302918228 L-0.5179507370218935,-11.773933532597722 L-0.24012420848739244,-11.763814584972907 L0.037846961891478945,-11.74660955531947 L0.3157953346756967,-11.722328807303926 L0.5935534841586534,-11.690986966740972 L0.8709540992171477,-11.652602912783413 L1.1478300840933446,-11.607199766550076 L1.424014659047014,-11.55480487719853 L1.6993414608174133,-11.495449805450939 L1.9736446428342833,-11.429170304583101 L2.246758975117638,-11.356006298887985 L2.518519943806112,-11.276001859626845 L2.7887638502539636,-11.189205178482332 L3.0573279096370185,-11.095668538529631 L3.32405034900816,-10.995448282743093 L3.5887705047433114,-10.888604780057321 L3.851328919319175,-10.7752023890032 L4.111567437364505,-10.655309418940714 L4.369329300926977,-10.528998088911937 L4.624459243898315,-10.396344484139 L4.876803585540799,-10.257428510193172 L5.1262103230587845,-10.112333844862764 L5.372529223159508,-9.961147887748728 L5.615611912548006,-9.803961707618422 L5.855311967301639,-9.640869987549188 L6.091485001070391,-9.4719709678948 L6.323988752049793,-9.29736638710916 L6.552683168674127,-9.117161420462848 L6.777430493978258,-8.931464616689471 L6.9980953485772694,-8.740387832599975 L7.214544812213935,-8.54404616570427 L7.426648503824926,-8.342557884880812 L7.634278660077491,-8.136044359135832 L7.837310212329289,-7.924629984495205 L8.035620861965084,-7.708442109072918 L8.229091154064852,-7.487610956361338 L8.417604549358947,-7.262269546789454 L8.601047494427014,-7.032553617596335 L8.779309490098319,-6.798601541068093 L8.952283158012316,-6.560554241187598 L9.119864305299355,-6.318555108747136 L9.281951987342573,-6.072749914975154 L9.438448568583157,-5.8232867237291375 L9.58925978133235,-5.570315802307464 L9.734294782554784,-5.313989530934004 L9.873466208588935,-5.054462310969974 L10.006690227771715,-4.791890471908336 L10.133886590935532,-4.526432177206747 L10.254978679747392,-4.258247329015809 L10.369893552860928,-3.9874974718599967 L10.478561989853517,-3.7143456953292704 L10.580918532922086,-3.438956535840005 L10.67690152631245,-3.161495877524419 L10.766453153458425,-2.882130852308158 L10.849519471808371,-2.6010297392362802 L10.926050445318165,-2.3183618631082554 L10.99599997459104,-2.0342974924830255 L11.059325924646142,-1.7490077371156048 L11.11599015029907,-1.4626644448869568 L11.165958519139101,-1.1754400982892588 L11.209200932089285,-0.887507710528885 L11.245691341536997,-0.5990407213097395 L11.275407767024053,-0.31021289235965416 L11.298332308486904,-0.021198202762818683 L11.31445115703898,0.26782925583870937 L11.323754603288634,0.5566953841113019 L11.326237043187726,0.8452261799006852 L11.321896981407281,1.133247843044339 L11.310737032238233,1.4205868800622101 L11.292763918016664,1.7070702086626963 L11.267988465074522,1.9925252620009506 L11.236425597218249,2.2767800926266983 L11.198094326739222,2.55966347605894 L11.153017742961488,2.8410050139251797 L11.101222998333588,3.1206352366030514 L11.042741292072956,3.3983857053024606 L10.977607851372673,3.674089113526822 L10.905861910181917,3.947579387852236 L10.827546685572914,4.218691787963908 L10.742709351708566,4.487263005889562 L10.651401011426525,4.753131264370039 L10.55367666545674,5.016136414307881 L10.449595179291071,5.276120031235165 L10.339219247724929,5.532925510742468 L10.222615357092266,5.786398162811511 L10.0998537452167,6.036385304994639 L9.971008359102871,6.282736354385024 L9.836156810393538,6.525302918322171 L9.695380328619216,6.763938883778113 L9.548763712268553,6.998500505370432 L9.396395277708894,7.2288464919491044 L9.23836680598779,7.454838091705012 L9.074773487547542,7.676339175748828 L8.905713864886037,7.893216320109978 L8.731289773198416,8.105338886106264 L8.551606279035372,8.312579099035698 L8.366771617014992,8.514812125143228 L8.176897124626265,8.711916146815906 L7.982097175163539,8.903772435961267 L7.782489108832333,9.090265425524702 L7.578193162067978,9.271282779102718 L7.369332395109686,9.446715458610193 L7.156032617873668,9.616457789960846 L6.938422314169934,9.780407526721346 L6.716632564308464,9.938465911700744 L6.4907969661413265,10.090537736438105 L6.261051554588318,10.236531398552545 L6.027534719694663,10.376358956921035 " />
			<path d="M6.0275347196946205,10.37635895692106 L5.869239725296123,10.466439529823061 L5.709361648972475,10.553697040111189 L5.547943613871595,10.638107952235037 L5.385029158507111,10.719649498443497 L5.220662225014921,10.798299684925789 L5.054887147300896,10.874037297743744 L4.8877486390829015,10.946841908553738 L4.719291781830431,11.016693880116721 " />
			<path d="M5.710343056014409,10.441001000857014 L5.9627920487637995,10.335003400376918 L6.212217720926654,10.222370994469248 L6.458468396499805,10.103172275013794 L6.701394330198636,9.977479726872295 " />
			<path d="M5.7103430560144055,10.441001000857012 L4.719291781830087,11.016693880116858 " />
			<path d="M4.719291781830088,26.77189954042849 L-4.719291781830087,26.10025784795867 " />
			<path d="M4.719291781830087,11.016693880116616 L4.719291781830087,26.77189954042849 " />
			<path d="M-7.511704225073076,-1.6107855327300828 L-7.589410644905249,-1.6163390962109896 L-7.666901156466405,-1.6158483511703179 L-7.74374168618347,-1.6093160465827352 L-7.8195018014445115,-1.5967787740352062 L-7.893757121725188,-1.5783067627542737 L-7.966091695813607,-1.5540034862075534 L-8.036100331817257,-1.5240050824831222 L-8.103390866900142,-1.488479591693621 " />
			<path d="M-8.103390866900146,-1.4884795916936189 L-8.145856572824428,-1.462279313149348 L-8.186888896393716,-1.4338507105919787 L-8.226388987146528,-1.4032622710151226 L-8.264261685904437,-1.3705876846489526 L-8.30041575401888,-1.3359056674339795 L-8.334764093173048,-1.2992997713874606 L-8.36722395520936,-1.2608581833192698 L-8.39771714147702,-1.220673512382148 L-8.426170191219423,-1.1788425669681446 L-8.452514558547547,-1.1354661214887205 L-8.476686777573004,-1.0906486736003638 L-8.498628615302925,-1.0444981924605814 L-8.51828721192834,-0.9971258586207441 L-8.53561520816809,-0.9486457961823982 L-8.550570859361482,-0.8991747978623099 L-8.563118136034827,-0.8488320436285806 L-8.573226810699609,-0.7977388135856627 L-8.580872530673146,-0.7460181957999685 L-8.586036876746334,-0.6937947897699355 L-8.588707407557141,-0.6411944062549194 L-8.588877689562931,-0.5883437641860575 L-8.58654731253944,-0.5353701853892634 L-8.581721890569032,-0.48240128785579556 L-8.574413048515892,-0.4295646782993401 L-8.564638394020703,-0.3769876447402586 L-8.552421475082305,-0.32479684985759927 L-8.537791723328496,-0.2731180258476081 L-8.520784383112664,-0.22207567152385477 L-8.501440426607058,-0.17179275238868813 L-8.47980645509723,-0.12239040439856935 L-8.45593458671546,-0.07398764213694031 L-8.429882330883606,-0.026701072097670808 L-8.401712449767876,0.019355388230200776 L-8.37149280707927,0.06407078479967454 L-8.33929620458395,0.10733739430380884 L-8.305200206717418,0.14905098369060132 L-8.269286953724992,0.18911106126953958 L-8.231642963778757,0.2274211188048869 L-8.192358924547722,0.2638888640124767 L-8.151529474723269,0.2984264428999064 L-8.109252976026259,0.330950651414502 L-8.06563127624504,0.36138313588916715 L-8.020769463875196,0.389650581803232 L-7.9747756149521525,0.4156848904035533 L-7.927760532686554,0.4394233427603771 L-7.879837480529611,0.46080875086273276 L-7.831121909311534,0.4797895953893614 L-7.781731179110367,0.49632014982327277 L-7.731784276521282,0.5103605906109296 L-7.681401528007449,0.5218770931006773 L-7.630704310023044,0.5308419130292914 L-7.579814756606745,0.5372334533603387 L-7.528855465150129,0.5410363163133285 L-7.477949201049822,0.5422413404583162 L-7.427218601954903,0.5408456227865883 L-7.376785882322068,0.5368525257042669 L-7.326772538990298,0.5302716689319769 L-7.277299058484329,0.5211189063300978 L-7.228484626752065,0.5094162877054249 L-7.18044684203519,0.4951920056912531 L-7.133301431564698,0.47848032782885497 L-7.087161972763864,0.45932151401397114 L-7.042139619630279,0.4377617195071952 L-6.998342834956141,0.41385288374191387 " />
			<path d="M-6.998342834956133,0.4138528837419092 L-6.934147337820344,0.3729993067251336 L-6.873406478384654,0.32704649031395916 L-6.816460504782098,0.2762518454198709 L-6.763628407579857,0.22089990511095658 L-6.715206132910475,0.16130073076147233 L-6.67146492468961,0.0977881752011509 L-6.632649805206577,0.030718012593456856 L-6.598978202598886,-0.039534054481470515 " />
			<path d="M0.03916262585506331,-8.906384384441214 L-0.0385437939771108,-8.911937947922121 L-0.11603430553826705,-8.91144720288145 L-0.19287483525533153,-8.904914898293868 L-0.26863495051637304,-8.892377625746338 L-0.34289027079704953,-8.873905614465405 L-0.4152248448854694,-8.849602337918686 L-0.48523348088911894,-8.819603934194255 L-0.5525240159720042,-8.784078443404754 " />
			<path d="M-0.5525240159720081,-8.78407844340475 L-0.5949897218962894,-8.75787816486048 L-0.6360220454655785,-8.729449562303111 L-0.6755221362183891,-8.698861122726255 L-0.7133948349762984,-8.666186536360085 L-0.7495489030907422,-8.631504519145112 L-0.7838972422449103,-8.594898623098592 L-0.8163571042812214,-8.556457035030402 L-0.8468502905488821,-8.51627236409328 L-0.8753033402912852,-8.474441418679277 L-0.9016477076194088,-8.431064973199852 L-0.9258199266448656,-8.386247525311497 L-0.9477617643747865,-8.340097044171713 L-0.9674203610002026,-8.292724710331877 L-0.9847483572399531,-8.244244647893531 L-0.9997040084333438,-8.194773649573442 L-1.0122512851066892,-8.144430895339713 L-1.0223599597714714,-8.093337665296795 L-1.0300056797450075,-8.041617047511101 L-1.0351700258181957,-7.989393641481067 L-1.037840556629002,-7.936793257966052 L-1.0380108386347928,-7.8839426158971895 L-1.0356804616113011,-7.830969037100395 L-1.030855039640893,-7.778000139566927 L-1.0235461975877527,-7.725163530010472 L-1.0137715430925647,-7.672586496451391 L-1.0015546241541669,-7.620395701568731 L-0.9869248724003575,-7.568716877558741 L-0.9699175321845261,-7.517674523234987 L-0.9505735756789199,-7.46739160409982 L-0.9289396041690917,-7.417989256109702 L-0.9050677357873207,-7.369586493848073 L-0.8790154799554669,-7.322299923808803 L-0.8508455988397379,-7.276243463480931 L-0.820625956151131,-7.231528066911458 L-0.7884293536558117,-7.188261457407323 L-0.7543333557892795,-7.146547868020531 L-0.7184201027968525,-7.106487790441593 L-0.6807761128506193,-7.068177732906245 L-0.641492073619584,-7.0317099876986555 L-0.6006626237951297,-6.997172408811226 L-0.5583861250981209,-6.96464820029663 L-0.5147644253169023,-6.934215715821965 L-0.4699026129470568,-6.9059482699079 L-0.4239087640240142,-6.879913961307579 L-0.37689368175841514,-6.856175508950755 L-0.3289706296014724,-6.8347901008484 L-0.28025505838339587,-6.815809256321771 L-0.23086432818222857,-6.799278701887859 L-0.1809174255931436,-6.7852382611002025 L-0.1305346770793107,-6.773721758610455 L-0.07983745909490647,-6.764756938681841 L-0.02894790567860696,-6.758365398350794 L0.022011385778009335,-6.754562535397803 L0.0729176498783166,-6.7533575112528155 L0.12364824897323537,-6.754753228924544 L0.17408096860607006,-6.758746326006865 L0.22409431193784077,-6.7653271827791555 L0.2735677924438095,-6.774479945381034 L0.32238222417607265,-6.786182564005707 L0.3704200088929485,-6.800406846019879 L0.41756541936344044,-6.817118523882277 L0.46370487816427397,-6.836277337697161 L0.5087272312978592,-6.857837132203937 L0.5525240159719975,-6.881745967969218 " />
			<path d="M0.5525240159720055,-6.8817459679692226 L0.6167195131077937,-6.9225995449859985 L0.6774603725434845,-6.9685523613971725 L0.7344063461460397,-7.0193470062912615 L0.7872384433482815,-7.074698946600176 L0.8356607180176635,-7.134298120949659 L0.8794019262385288,-7.197810676509981 L0.9182170457215612,-7.264880839117676 L0.9518886483292524,-7.3351329061926025 " />
			<path d="M-2.831575069098052,-0.2014925077409473 L-2.8300041422098023,-0.10355045750622285 L-2.8252931046111738,-0.00549350994826247 L-2.817447183566468,0.09256953308820372 L-2.8064750847381017,0.19052986299504218 L-2.7923889825270014,0.2882787851323604 L-2.7752045065641484,0.3857078394337039 L-2.7549407243682853,0.4827089207509734 L-2.7316201201890133,0.5791743988055349 L-2.705268570058761,0.6749972376124218 L-2.6759153130813034,0.7700711142451236 L-2.643592918988693,0.8642905368091802 L-2.6083372520025976,0.9575509614936812 L-2.570187431040142,1.0497489085707925 L-2.529185786308416,1.1407820772145982 L-2.485377812335801,1.230549459011862 L-2.438812117492234,1.3189514500387518 L-2.3895403700544273,1.4058899613791773 L-2.3376172408758755,1.4912685279621039 L-2.283100342725273,1.5749924155970887 L-2.2260501663606465,1.6569687260892647 L-2.1665300134101306,1.737106500317147 L-2.1046059261338677,1.8153168191588849 L-2.040346614144958,1.8915129021549775 L-1.9738233781707808,1.9656102037979648 L-1.9051100309392577,2.037526507342287 L-1.8342828152778687,2.1071820160301806 L-1.7614203195162845,2.1744994416324115 L-1.6866033902864617,2.2394040902056136 L-1.6099150428169948,2.3018239449710483 L-1.531440368821235,2.361689746222849 L-1.4512664420813837,2.418935068177078 L-1.3694822218333285,2.4734963926763216 L-1.2861784540594192,2.5253131796680477 L-1.2014475707987127,2.5743279343785264 L-1.1153835875864004,2.6204862711077745 L-1.0280819991362298,2.6637369735747356 L-0.939639673381656,2.7040320517457475 L-0.8501547439933022,2.7413267950832347 L-0.7597265014919806,2.7755798221555423 L-0.6684552830781139,2.8067531265528665 L-0.5764423612997552,2.834812119058338 L-0.48378983168279277,2.8597256660274617 L-0.39060049944799163,2.8814661239333206 L-0.296977765440556,2.9000093700392395 L-0.20302551139882308,2.9153348291648378 L-0.10884798468935283,2.9274254965158026 L-0.014549682636331432,2.936267956552037 L0.07976476342637447,2.9418523978732503 L0.1739907042518585,2.9441726241054713 L0.2680235887966892,2.9432260607764107 L0.36175908022846376,2.9390137581720386 L0.4550931716956731,2.9315403901712123 L0.5479223017314319,2.9208142490596387 L0.640143469163016,2.9068472363289395 L0.7316543473997162,2.8896548494710133 L0.822353397972172,2.869256164782359 L0.9121399831972551,2.845673816197434 L1.0009144778434322,2.8189339701745335 L1.088578379672738,2.7890662966620674 L1.1750344187367168,2.7561039361774244 L1.260186665305022,2.7200834630349857 L1.3439406363069495,2.681044844764064 L1.4262034001677868,2.6390313977618063 L1.506883679923633,2.5940897392302777 " />
			<path d="M1.506883679923655,2.5940897392302653 L1.568756829918122,2.5569733072294216 L1.6295675078146927,2.5181251136564935 L1.6892745283593573,2.477571469231497 L1.7478374537722334,2.4353398397253194 L1.8052166211348653,2.391458827357976 L1.861373169252732,2.34595815142718 L1.9162690649747731,2.2988686281803505 L1.9698671289521037,2.2502221499436916 " />
			<path d="M-0.9788158547677883,-2.8259150292035353 L-1.0476258365475393,-2.8034557613076703 L-1.1157262926703244,-2.779097796642955 L-1.1830711007332917,-2.752857632130598 L-1.2496146501114311,-2.72475303944949 L-1.3153118728482802,-2.694803052999977 L-1.3801182741791067,-2.663027957012431 L-1.4439899626658863,-2.629449271809345 L-1.506883679923644,-2.5940897392302715 " />
			<path d="M-1.5068836799236547,-2.5940897392302653 L-1.5817589191709946,-2.5488686715078144 L-1.655059699589464,-2.501110498582511 L-1.726713058694392,-2.450862758215073 L-1.7966476738192882,-2.3981754662438757 L-1.8647939331093415,-2.34310106679995 L-1.931084004812004,-2.285694380104885 L-1.9954519047956911,-2.2260125479036112 L-2.0578335622293826,-2.1641149765863794 L-2.1181668833577563,-2.1000632780565356 L-2.17639181330837,-2.03392120840297 L-2.2324503958693693,-1.9657546044382745 L-2.2862868311782223,-1.8956313181657765 L-2.3378475312640585,-1.8236211492406849 L-2.3870811733883173,-1.749795775492571 L-2.4339387511306274,-1.6742286815783471 L-2.478373623169052,-1.5969950858367508 L-2.5203415597061523,-1.5181718654171552 L-2.5598007864946584,-1.4378374797572213 L-2.5967120264189223,-1.3560718924855573 L-2.631038538590759,-1.2729564918271445 L-2.662746154920773,-1.1885740095907271 L-2.6918033141287534,-1.1030084388188273 L-2.7181810931592953,-1.0163449501823472 L-2.7418532359713694,-0.9286698072029728 L-2.762796179673186,-0.8400702803877718 L-2.7809890779763413,-0.7506345603614578 L-2.796413821945898,-0.6604516700827794 L-2.80905505802574,-0.5696113762324178 L-2.8189002033212724,-0.47820409986059625 L-2.825939458124245,-0.386320826383335 L-2.83016581566723,-0.29405301501695336 L-2.831575069098052,-0.20149250774097352 " />
			<path d="M7.5900294767832035,-0.5361588247783723 L7.51232305695103,-0.541712388259279 L7.434832545389874,-0.5412216432186073 L7.357992015672809,-0.5346893386310246 L7.282231900411768,-0.5221520660834956 L7.207976580131091,-0.5036800548025632 L7.135642006042672,-0.4793767782558428 L7.065633370039022,-0.4493783745314116 L6.998342834956137,-0.41385288374191054 " />
			<path d="M6.998342834956133,-0.4138528837419083 L6.955877129031851,-0.38765260519763733 L6.914844805462563,-0.359224002640268 L6.875344714709752,-0.32863556306341213 L6.8374720159518425,-0.2959609766972421 L6.801317947837399,-0.2612789594822691 L6.7669696086832305,-0.2246730634357501 L6.7345097466469195,-0.18623147536755913 L6.704016560379259,-0.14604680443043738 L6.675563510636856,-0.10421585901643404 L6.649219143308732,-0.060839413537010056 L6.625046924283275,-0.016021965648653214 L6.603105086553354,0.03012851549112916 L6.583446489927939,0.0775008493309664 L6.566118493688188,0.1259809117693123 L6.551162842494797,0.17545191008940064 L6.538615565821452,0.22579466432312995 L6.5285068911566695,0.2768878943660478 L6.5208611711831335,0.328608512151742 L6.515696825109945,0.3808319181817751 L6.513026294299139,0.43343230169679114 L6.512856012293348,0.486282943765653 L6.51518638931684,0.5392565225624472 L6.520011811287247,0.592225420095915 L6.5273206533403885,0.6450620296523705 L6.5370953078355765,0.697639063211452 L6.549312226773974,0.7498298580941113 L6.563941978527783,0.8015086821041024 L6.580949318743615,0.8525510364278558 L6.600293275249221,0.9028339555630225 L6.621927246759049,0.9522363035531412 L6.64579911514082,1.0006390658147701 L6.671851370972674,1.0479256358540399 L6.700021252088403,1.0939820961819113 L6.73024089477701,1.138697492751385 L6.762437497272329,1.1819641022555194 L6.796533495138862,1.2236776916423118 L6.8324467481312885,1.2637377692212501 L6.870090738077522,1.3020478267565974 L6.909374777308557,1.3385155719641872 L6.950204227133011,1.373053150851617 L6.99248072583002,1.4055773593662124 L7.036102425611238,1.4360098438408777 L7.080964237981084,1.4642772897549425 L7.126958086904127,1.4903115983552637 L7.1739731691697255,1.5140500507120875 L7.221896221326668,1.5354354588144434 L7.270611792544745,1.554416303341072 L7.320002522745912,1.5709468577749832 L7.3699494253349975,1.5849872985626403 L7.420332173848831,1.5965038010523878 L7.471029391833235,1.6054686209810018 L7.521918945249534,1.6118601613120491 L7.57287823670615,1.615663024265039 L7.623784500806457,1.6168680484100268 L7.6745150999013765,1.615472330738299 L7.724947819534211,1.6114792336559773 L7.774961162865981,1.6048983768836873 L7.8244346433719505,1.5957456142818085 L7.873249075104214,1.5840429956571356 L7.921286859821089,1.5698187136429635 L7.968432270291581,1.5531070357805654 L8.014571729092415,1.5339482219656817 L8.059594082226,1.5123884274589057 L8.103390866900138,1.4884795916936244 " />
			<path d="M8.103390866900146,1.4884795916936198 L8.167586364035934,1.4476260146768443 L8.228327223471625,1.4016731982656698 L8.285273197074181,1.3508785533715815 L8.338105294276422,1.295526613062667 L8.386527568945805,1.235927438713183 L8.43026877716667,1.1724148831528614 L8.469083896649702,1.1053447205451674 L8.502755499257393,1.03509265347024 " />
			<path d="M0.03916262585506513,6.759440026932759 L-0.038543793977108984,6.7538864634518525 L-0.11603430553826523,6.7543772084925235 L-0.19287483525532972,6.760909513080106 L-0.2686349505163712,6.773446785627636 L-0.3428902707970477,6.791918796908568 L-0.41522484488546757,6.816222073455288 L-0.4852334808891171,6.8462204771797195 L-0.5525240159720024,6.881745967969221 " />
			<path d="M-0.5525240159720063,6.8817459679692226 L-0.5949897218962876,6.907946246513494 L-0.6360220454655767,6.936374849070863 L-0.6755221362183873,6.966963288647719 L-0.7133948349762966,6.999637875013889 L-0.7495489030907404,7.034319892228862 L-0.7838972422449085,7.070925788275381 L-0.8163571042812197,7.109367376343572 L-0.8468502905488803,7.149552047280694 L-0.8753033402912834,7.191382992694697 L-0.901647707619407,7.234759438174121 L-0.9258199266448638,7.279576886062478 L-0.9477617643747848,7.32572736720226 L-0.9674203610002008,7.373099701042097 L-0.9847483572399514,7.421579763480444 L-0.9997040084333421,7.471050761800532 L-1.0122512851066874,7.521393516034261 L-1.0223599597714697,7.572486746077179 L-1.0300056797450057,7.624207363862873 L-1.035170025818194,7.676430769892907 L-1.0378405566290003,7.729031153407922 L-1.038010838634791,7.781881795476784 L-1.0356804616112993,7.8348553742735785 L-1.0308550396408913,7.887824271807046 L-1.023546197587751,7.940660881363502 L-1.013771543092563,7.993237914922583 L-1.001554624154165,8.045428709805243 L-0.9869248724003558,8.097107533815233 L-0.9699175321845244,8.148149888138986 L-0.9505735756789181,8.198432807274154 L-0.9289396041690899,8.247835155264273 L-0.9050677357873189,8.296237917525902 L-0.8790154799554651,8.34352448756517 L-0.8508455988397361,8.389580947893043 L-0.8206259561511292,8.434296344462517 L-0.7884293536558099,8.47756295396665 L-0.7543333557892777,8.519276543353444 L-0.7184201027968508,8.559336620932381 L-0.6807761128506176,8.59764667846773 L-0.6414920736195823,8.63411442367532 L-0.6006626237951279,8.668652002562748 L-0.5583861250981191,8.701176211077344 L-0.5147644253169005,8.731608695552008 L-0.469902612947055,8.759876141466073 L-0.42390876402401234,8.785910450066394 L-0.3768936817584133,8.809648902423218 L-0.32897062960147055,8.831034310525574 L-0.28025505838339404,8.850015155052203 L-0.23086432818222677,8.866545709486115 L-0.1809174255931418,8.880586150273771 L-0.1305346770793089,8.89210265276352 L-0.07983745909490465,8.901067472692134 L-0.02894790567860514,8.90745901302318 L0.022011385778011153,8.91126187597617 L0.07291764987831842,8.912466900121158 L0.12364824897323719,8.91107118244943 L0.17408096860607186,8.90707808536711 L0.22409431193784257,8.90049722859482 L0.27356779244381135,8.89134446599294 L0.3223822241760745,8.879641847368266 L0.37042000889295035,8.865417565354095 L0.41756541936344227,8.848705887491697 L0.4637048781642758,8.829547073676812 L0.508727231297861,8.807987279170037 L0.5525240159719993,8.784078443404756 " />
			<path d="M0.5525240159720073,8.78407844340475 L0.6167195131077955,8.743224866387976 L0.6774603725434862,8.697272049976801 L0.7344063461460415,8.646477405082713 L0.7872384433482833,8.591125464773798 L0.8356607180176653,8.531526290424313 L0.8794019262385305,8.468013734863993 L0.9182170457215629,8.400943572256299 L0.9518886483292541,8.33069150518137 " />
			<path d="M5.7103430560144055,9.551268224083797 L5.7103430560144055,10.441001000857012 " />
			<path d="M5.710343056014406,9.551268224083797 L-3.728240507645769,8.879626531613978 " />
			<path d="M5.7103430560144055,9.551268224083797 L6.701394330198724,8.975575344823952 " />
			<path d="M0.7550866850928131,29.07467105746787 L4.719291781830087,26.77189954042849 " />
			<path d="M0.7550866850928131,29.07467105746787 L0.7550866850928131,32.012013134600494 " />
			<path d="M0.7550866850928131,32.012013134600494 L0.7550866850928131,34.94935521173311 " />
			<path d="M-8.683496878567361,28.40302936499805 L-7.739638522201244,28.47019353424504 " />
			<path d="M-7.739638522201244,28.47019353424504 L-0.1887716712732326,29.007506888220888 " />
			<path d="M-0.1887716712732326,29.007506888220888 L0.7550866850928144,29.07467105746787 " />
			<path d="M-8.683496878567361,31.340371442130674 L-8.679680539741984,31.14380203604757 L-8.668237695565722,30.94809368356492 L-8.649186852955511,30.753562910728824 L-8.622558823513462,30.56052433904412 L-8.588396673694163,30.369290176625917 L-8.546755655151774,30.18016971325434 L-8.497703115379585,29.99346882014923 L-8.44131838878651,29.80948945527377 L-8.377692668386759,29.628529174967234 L-8.306928858310139,29.45088065269653 L-8.22914140737156,29.276831205705076 L-8.144456123968922,29.10666233032443 L-8.053009972608734,28.940649246700335 L-7.954950852388577,28.77906045366942 L-7.850437357794643,28.62215729450652 L-7.7396385222013,28.47019353424498 " />
			<path d="M-7.739638522201276,34.34487768851037 L-7.850437357794643,34.17714522376901 L-7.954950852388578,34.00536787931727 L-8.053009972608734,33.829823476734866 L-8.144456123968924,33.65079593019795 L-8.229141407371563,33.468574787294706 L-8.306928858310139,33.283454760729754 L-8.377692668386757,33.095735251674874 L-8.44131838878651,32.9057198655369 L-8.497703115379585,32.713715920925935 L-8.546755655151774,32.5200339526181 L-8.588396673694163,32.32498720931663 L-8.622558823513462,32.128891147023666 L-8.649186852955511,31.932062918842103 L-8.66823769556572,31.73482086203264 L-8.679680539741984,31.53748398315567 L-8.683496878567361,31.340371442130717 " />
			<path d="M-0.1887716712732237,29.007506888220863 L-0.07797283567986213,29.175239352962226 L0.026540658914066206,29.34701669741396 L0.12459977913422104,29.522561099996363 L0.21604593049440446,29.701588646533274 L0.30073121389703683,29.883809789436516 L0.37851866483561114,30.068929816001464 L0.44928247491222795,30.25664932505634 L0.512908195311975,30.44666471119431 L0.5692929219050464,30.638668655805265 L0.6183454616772348,30.832350624113097 L0.6599864802196196,31.027397367414565 L0.6941486300389181,31.223493429707524 L0.7207766594809657,31.420321657889083 L0.739827502091174,31.61756371469854 L0.7512703462674359,31.814900593575505 L0.7550866850928131,32.01201313460048 " />
			<path d="M0.7550866850928131,32.012013134600494 L0.7512703462674342,32.20858254068361 L0.7398275020911713,32.40429089316626 L0.7207766594809604,32.598821666002365 L0.6941486300389101,32.791860237687075 L0.659986480219608,32.98309440010528 L0.6183454616772179,33.17221486347687 L0.5692929219050233,33.358915756581986 L0.5129081953119448,33.54289512145745 L0.44928247491219153,33.723855401763984 L0.3785186648355676,33.90150392403469 L0.30073121389698443,34.07555337102615 L0.2160459304943423,34.2457222464068 L0.1245997791341491,34.4117353300309 L0.026540658913983606,34.57332412306182 L-0.07797283567995672,34.730227282224725 L-0.1887716712733165,34.882191042486276 " />
			<path d="M-7.739638522201275,28.47019353424495 L-7.673860125487012,28.386029919743798 L-7.606139280226402,28.303589099157623 L-7.536511446389825,28.22291424012623 L-7.465013082484491,28.144047585597125 L-7.391681626464057,28.067030431706275 L-7.316555476125362,27.99190310615463 L-7.239673969002597,27.91870494709174 L-7.161077361769381,27.847474282517528 L-7.08080680915959,27.778248410213 L-6.998904342417918,27.71106357821038 L-6.915412847291477,27.645954965812933 L-6.830376041573997,27.58295666517438 L-6.743838452214311,27.522101663447586 L-6.655845392001169,27.463421825511826 L-6.5664429358365695,27.406947877287706 L-6.475677896610069,27.352709389648496 " />
			<path d="M-6.475677896610032,27.352709389648474 L-6.3820824951156965,27.2999044132068 L-6.2871793329007435,27.249466445691667 L-6.191019740370882,27.201422767556906 L-6.093655727499032,27.155799364253717 L-5.995139955694629,27.112620912175878 L-5.895525709320565,27.071910765312985 L-5.794866866873207,27.033690942618943 L-5.693217871841055,26.997982116102563 L-5.590633703257821,26.964803599646636 L-5.487169845965838,26.934173338561642 L-5.3828822606058955,26.906107899879608 L-5.277827353349737,26.880622463393497 L-5.172061945391568,26.85773081344688 L-5.065643242215098,26.8374453314784 L-4.958628802652734,26.819776989324975 L-4.851076507753652,26.80473534328747 L-4.743044529477595,26.792328528961946 L-4.6345912992313245,26.78256325683938 L-4.525775476264739,26.775444808676127 L-4.41665591594377,26.770977034637166 L-4.307291637917194,26.769162351213676 L-4.197741794194596,26.77000173991601 L-4.088065637152736,26.77349474674283 L-3.978322487487637,26.77963948242666 L-3.868571702129712,26.788432623455744 L-3.758872642139307,26.79986941387163 L-3.6492846405999924,26.81394366784153 L-3.5398669705270014,26.83064777300408 L-3.4306788128081473,26.849972694586615 L-3.3217792241945774,26.87190798029185 L-3.2132271053586665,26.896441765951213 L-3.1050811690363234,26.923560781941838 L-2.997399908270956,26.95325036036372 L-2.8902415647762534,26.985494442973177 L-2.7836640974349143,27.020275589868277 L-2.6777251509503395,27.057574988921584 L-2.5724820246682665,27.097372465955118 L-2.4679916415851846,27.139646495651967 L-2.364310517560325,27.184374213198737 L-2.261494730747838,27.23153142665245 L-2.1595998912657337,27.2810926300253 L-2.058681111117952,27.333031017080096 L-1.9587929743858616,27.387318495828996 L-1.8599895077052873,27.443925703727654 L-1.7623241510450516,27.502822023556583 L-1.6658497288028227,27.56397559998114 L-1.5706184212339096,27.627353356781157 L-1.4766817362284534,27.692921014740918 L-1.3840904814522847,27.760643110189815 L-1.2928947368665091,27.830483014183635 L-1.2031438276406896,27.9024029523161 L-1.1148862974742721,27.976364025149962 L-1.028169882340689,28.052326229256618 L-0.943041484668333,28.13024847885278 L-0.8595471479723824,28.21008862802264 L-0.7777320319511718,28.291803493513356 L-0.6976403880606092,28.37534887809167 L-0.6193155355798283,28.46067959444891 L-0.5427998381810273,28.547749489641504 L-0.46813468101617284,28.636511470053808 L-0.3953604483329549,28.726917526869684 L-0.32451650163210255,28.81891876203909 L-0.2556411583778697,28.912465414725652 L-0.1887716712732299,29.007506888220856 " />
			<path d="M-0.23596458909150542,32.58770601386034 L-0.23831334480954247,32.741973525987014 L-0.24535727404784957,32.89575321159765 L-0.257089365386137,33.04889200072642 L-0.27349794087869217,33.201237461346125 L-0.29456666767842865,33.35263795109673 L-0.32027457429435646,33.50294276822786 L-0.350596071466283,33.65200230160505 L-0.385500977635977,33.79966817963039 L-0.4249545489894331,33.945793417929345 L-0.46891751404033677,34.09023256565681 L-0.5173461127203041,34.23284185027664 L-0.570192139936994,34.37347932067067 L-0.6274029935567222,34.51200498843469 L-0.6889217267638275,34.6482809672208 L-0.7546871047446713,34.78217160998736 L-0.8246336656398388,34.91354364402002 L-0.8986917857038801,35.042266303589344 L-0.9767877486077294,35.16821146011305 L-1.058843818814828,35.29125374969324 L-1.1447783189578873,35.41127069790173 L-1.2345057111393092,35.528142841689224 L-1.3279366820743088,35.64175384829704 L-1.4249782319919984,35.75199063105299 L-1.5255337672059546,35.858743461936065 L-1.6295031962621067,35.961906080798116 L-1.7367830295682518,36.06137580113357 L-1.847266482406022,36.15705361229202 L-1.9608435812227776,36.24884427803189 L-2.077401273097605,36.336656431317216 L-2.196823538272485,36.42040266526295 L-2.3189915056366,36.49999962013845 L-2.443783571048816,36.57536806634253 " />
			<path d="M-8.683496878567365,28.985079156623424 L-8.619382050464237,28.905848989998532 L-8.553517499722412,28.828216649365956 L-8.48593467850964,28.752219206342716 L-8.416665859515941,28.677892951836427 L-8.345744120542506,28.605273378715392 L-8.273203328706103,28.534395164859735 L-8.199078124266595,28.465292156601766 L-8.123403904085242,28.397997352563408 L-8.046216804721698,28.332542887898413 L-7.967553685177807,28.268960018946935 L-7.887452109296387,28.207279108309766 L-7.805950327823448,28.147529610349324 L-7.723087260142387,28.08974005712438 L-7.638902475688895,28.0339380447652 L-7.553436175055437,27.980150220295613 L-7.4667291707943875,27.928402268908343 " />
			<path d="M-7.46672917079435,27.92840226890832 L-7.332262037867904,27.85349950468909 L-7.195157431433175,27.783477093018657 L-7.055567479763296,27.71841272923379 L-6.913647068816119,27.658378607329723 L-6.769553670376155,27.60344133985532 L-6.623447167327311,27.553661884001208 L-6.475489676250352,27.509095473963043 L-6.325845367541881,27.469791559654833 L-6.174680283254453,27.43579375184041 L-6.022162152859957,27.407139773743864 L-5.868460207140648,27.3838614191927 L-5.713744990414384,27.365984517340078 L-5.558188171302368,27.353528904005366 L-5.40196235224941,27.34650839966475 L-5.245240878008025,27.344930794116312 L-5.0881976432988845,27.34879783783668 L-4.931006899861042,27.358105240038704 L-4.773843063106005,27.372842673432427 L-4.616880518590221,27.392993785684034 L-4.460293428520664,27.418536217560032 L-4.304255538508272,27.449441627736565 L-4.1489399847836035,27.48567572424633 L-3.994519102088669,27.5271983025282 L-3.841164232458071,27.57396329003732 L-3.689045535101626,27.625918797366193 L-3.538331797599427,27.683007175820038 L-3.389190248618836,27.745165081382517 L-3.241786372361213,27.812323545000872 L-3.0962837249442616,27.884408049112473 L-2.9528437529237404,27.961338610327886 L-2.811625614155895,28.043029868178685 L-2.6727860011993787,28.12939117983156 L-2.5364789674526205,28.220326720663635 L-2.402855756219534,28.315735590587348 L-2.272064632893267,28.41551192600702 L-2.1442507204441554,28.519545017282745 L-2.019555838394451,28.627719431571414 L-1.8981183454584758,28.739915140908465 L-1.780072986022831,28.856007655388286 L-1.665550740636959,28.975868161295487 L-1.5546786806799964,29.099363664033802 L-1.4475798273651486,29.226357135693952 L-1.3443730152380438,29.35670766709685 L-1.245172760320516,29.49027062414332 L-1.150089133046139,29.626897808296945 L-1.059227636128468,29.76643762102192 L-0.9726890874975478,29.908735231993468 L-0.8905695084345355,30.053632750894177 L-0.8129600170285913,30.20096940260566 L-0.7399467270742317,30.3505817056011 L-0.6716106525213554,30.50230365334078 L-0.6080276175839296,30.6559668984693 L-0.5492681726071043,30.81140093961013 L-0.4953975157860864,30.96843331055023 L-0.4464754208236572,31.12688977160473 L-0.40255617060656945,31.286594502949544 L-0.3636884969744498,31.447370299707146 L-0.32991552664801116,31.609038768569263 L-0.30127473337658905,31.77142052573817 L-0.2777978963580887,31.934335395967032 L-0.2595110649774792,32.09760261247843 L-0.24643452990296844,32.261041017539206 L-0.2385828005719226,32.42446926346914 L-0.23596458909150542,32.58770601386033 " />
			<path d="M6.701394330198724,9.984919896709654 L6.02753471969462,10.37635895692106 " />
			<path d="M-6.007291560771814,-0.16183999551793635 L-6.998342834956133,0.4138528837419091 " />
			<path d="M-7.112339592715829,-2.064172470953464 L-8.103390866900147,-1.4884795916936187 " />
			<path d="M1.543575290156324,-7.457438847229068 L0.5525240159720055,-6.8817459679692226 " />
			<path d="M0.4385272582123103,-9.359771322664596 L-0.5525240159720082,-8.78407844340475 " />
			<path d="M2.4979349541079734,2.0183968599704194 L1.506883679923655,2.594089739230265 " />
			<path d="M-0.5158324057393364,-3.1697826184901103 L-1.506883679923655,-2.594089739230265 " />
			<path d="M9.094442141084466,0.9127867124337742 L8.103390866900147,1.4884795916936195 " />
			<path d="M7.989394109140451,-0.9895457630017536 L6.998342834956133,-0.4138528837419081 " />
			<path d="M1.5435752901563258,8.208385564144905 L0.5525240159720073,8.78407844340475 " />
			<path d="M0.4385272582123121,6.306053088709377 L-0.5525240159720064,6.8817459679692226 " />
			<path d="M-6.475677896610033,27.352709389648474 L-7.466729170794351,27.928402268908318 " />

       </g>

       <!-- solid lines -->
       <g  stroke="rgb(0,0,0)" fill="none">
			<path d="M-4.719291781829901,10.345052187647138 L-4.8916154192459915,10.249030761540608 L-5.062558153689406,10.15011603417616 L-5.232071728028299,10.048335929180123 L-5.400108288582729,9.943719179074883 L-5.566620398633719,9.836295317167707 L-5.731561051814647,9.726094669213488 L-5.894883685381151,9.61314834485379 L-6.056542193355784,9.49748822883459 L-6.216490939543734,9.379146972005216 L-6.374684770415921,9.258157982101018 L-6.53107902785583,9.134555414312354 L-6.685629561766515,9.008374161642594 L-6.838292742534152,8.879649845057815 L-6.989025473344689,8.748418803431 L-7.137785202350072,8.614718083283591 L-7.28452993468063,8.47858542832724 L-7.429218244300235,8.340059268808766 L-7.57180928570086,8.199178710661297 L-7.712262805433272,8.055983524464663 L-7.850539153470575,7.91051413421817 L-7.986599294401426,7.762811605928895 L-8.120404818449709,7.612917636018753 L-8.251917952317628,7.4608745395536085 L-8.381101569849115,7.306725238297723 L-8.507919202510529,7.150513248596948 L-8.632335049685729,6.992282669094049 L-8.754313988782586,6.832078168279676 L-8.873821585148095,6.669944971882437 L-8.990824101789276,6.505928850101682 L-9.105288508897114,6.340076104686573 L-9.217182493170894,6.1724335558651 L-9.32647446694023,6.003048529126731 L-9.433133577082273,5.831968841862432 L-9.537129713731542,5.659242789865814 L-9.638433518779937,5.48491913369923 L-9.737016394164545,5.309047084928673 L-9.832850509940853,5.131676292231346 L-9.925908812139156,4.952856827379845 L-10.016165030401888,4.772639171106901 L-10.103593685399746,4.591074198854659 L-10.1881700960245,4.408213166412556 L-10.26987038635647,4.2241076954478 L-10.348671492404696,4.038809758932577 L-10.424551168617919,3.8523716664720897 L-10.497487994164468,3.664846049537544 L-10.567461378979393,3.4762858466082953 L-10.634451569577024,3.2867442882272995 L-10.698439654627375,3.096274881974178 L-10.759407570294822,2.9049313973599613 L-10.81733810533753,2.7127678506479924 L-10.87221490596616,2.519838489605166 L-10.924022480460573,2.326197778187721 L-10.972746203543128,2.131900381166107 L-11.018372320507394,1.937001148693113 L-11.060887951101119,1.74155510081967 L-11.100281093162303,1.545617411962689 L-11.136540626007434,1.3492433953293237 L-11.169656313570831,1.1524884873020533 L-11.199618807294303,0.9554082317889926 L-11.22641964876624,0.7580582645438515 L-11.250051272109426,0.5604942974599552 L-11.270507006116881,0.3627721028427814 L-11.287781076135145,0.16494749766543573 L-11.301868605694466,-0.03292367218847229 L-11.312765617885422,-0.23078554769012713 L-11.320469036481606,-0.428582272434507 L-11.324976686808041,-0.6262580084086491 L-11.3262872963551,-0.8237569517547225 L-11.324400495137718,-1.0210233485234472 L-11.31931681579986,-1.2180015104134434 L-11.31103769346414,-1.4146358304920348 L-11.299565465326689,-1.6108707988930766 L-11.28490336999737,-1.8066510184874085 L-11.267055546585516,-2.001921220521442 L-11.246027033531455,-2.19662628021955 L-11.221823767184162,-2.390711232345771 L-11.194452580125434,-2.584121286720508 L-11.163921199241036,-2.7768018436877933 L-11.130238243539416,-2.96869850952877 L-11.09341322171856,-3.159757111817017 L-11.05345652948167,-3.349923714711462 L-11.010379446602471,-3.5391446341824615 L-10.964194133740936,-3.727366453166758 L-10.914913629010316,-3.914536036647176 L-10.86255184429649,-4.100600546652597 L-10.807123561330636,-4.285507457174142 L-10.748644427516355,-4.4692045689932405 L-10.687130951512405,-4.651640024417488 L-10.622600498572302,-4.832762321920061 L-10.55507128564212,-5.012520330678603 L-10.484562376217838,-5.190863305009455 L-10.41109367496372,-5.367740898693152 L-10.334685922093223,-5.543103179187177 L-10.255360687514045,-5.716900641721902 L-10.17314036473893,-5.889084223275793 L-10.088048164563991,-6.059605316425891 L-10.000108108516285,-6.228415783069703 L-9.909345022072555,-6.395467968014568 L-9.815784527650989,-6.560714712430734 L-9.719453037378008,-6.724109367164281 L-9.620377745632132,-6.88560580590619 L-9.518586621367005,-7.045158438213791 L-9.414108400215751,-7.202722222380947 L-9.30697257637892,-7.358252678153325 L-9.197209394298259,-7.511705899285171 L-9.084849840118721,-7.663038565934048 L-8.96992563294107,-7.812207956890026 L-8.852469215867577,-7.959171961635871 L-8.732513746843338,-8.10388909223485 L-8.610093089295782,-8.246318495042775 L-8.485241802575022,-8.386419962240996 L-8.357995132197779,-8.524153943187027 L-8.228388999897525,-8.659481555579752 L-8.09645999348381,-8.792364596435862 L-7.962245356513536,-8.922765552874544 L-7.8257829777770604,-9.05064761270741 L-7.687111380602221,-9.175974674830535 L-7.546269711979196,-9.298711359415831 L-7.403297731509305,-9.418823017898744 L-7.258235800180875,-9.536275742759566 L-7.111124868975339,-9.65103637709551 L-6.962006467306762,-9.763072523980917 L-6.810922691298104,-9.872352555612897 L-6.657916191897471,-9.978845622239865 L-6.503030162837765,-10.082521660870425 L-6.346308328443083,-10.183351403760145 L-6.187794931285345,-10.281306386673846 L-6.0275347196947076,-10.37635895692101 " />
			<path d="M-3.7282405076457685,9.769359308387193 L-4.719291781830087,10.345052187647038 " />
			<path d="M6.701394330198722,9.977479726872248 L6.860776940141998,9.890475787648402 L7.018585993878852,9.800666077661266 " />
			<path d="M7.01858599387894,9.800666077661216 L7.252102828772637,9.660838519292701 L7.481848240325647,9.51484485717826 L7.707683838492785,9.362773032440897 L7.929473588354251,9.204714647461502 L8.147083892057983,9.040764910701004 L8.360383669294002,8.87102257935035 L8.569244436252294,8.695589899842874 L8.77354038301665,8.514572546264857 L8.973148449347857,8.328079556701423 L9.167948398810584,8.13622326755606 L9.357822891199312,7.939119245883383 L9.542657553219692,7.736886219775853 L9.722341047382736,7.529646006846416 L9.896765139070359,7.317523440850131 L10.065824761731864,7.100646296488979 L10.229418080172108,6.879145212445167 L10.38744655189321,6.653153612689264 L10.539814986452871,6.422807626110589 L10.686431602803532,6.18824600451827 L10.827208084577856,5.949610039062326 L10.962059633287192,5.707043475125179 L11.09090501940102,5.460692425734793 L11.213666631276585,5.210705283551664 L11.330270521909249,4.95723263148262 L11.440646453475393,4.700427151975315 L11.544727939641062,4.440443535048032 L11.642452285610846,4.177438385110188 L11.733760625892886,3.911570126629715 L11.818597959757232,3.6429989087040644 L11.896913184366237,3.3718865085923895 L11.96865912555699,3.0983962342669766 L12.033792566257276,2.8226928260426143 L12.092274272517908,2.5449423573432024 L12.144069017145807,2.2653121346653315 L12.189145600923544,1.9839705967990908 L12.227476871402567,1.7010872133668538 L12.259039739258842,1.4168323827411085 L12.283815192200983,1.1313773294028535 L12.301788306422553,0.8448940008023654 L12.3129482555916,0.5575549637844935 L12.317288317372043,0.2695333006408406 L12.314805877472953,-0.01899749514854676 L12.3055024312233,-0.3078636234211408 L12.289383582671222,-0.5968910820226689 L12.266459041208371,-0.8859057716195043 L12.236742615721315,-1.174733600569589 L12.200252206273603,-1.4632005897887312 L12.15700979332342,-1.7511329775491071 L12.107041424483388,-2.038357324146808 L12.05037719883046,-2.3247006163754516 L11.987051248775357,-2.609990371742871 L11.917101719502483,-2.8940547423680987 L11.840570745992691,-3.1767226184961257 L11.757504427642743,-3.457823731568005 L11.667952800496769,-3.7371887567842683 L11.571969807106404,-4.014649415099853 L11.469613264037834,-4.290038574589115 L11.360944827045246,-4.563190351119844 L11.24602995393171,-4.83394020827566 L11.124937865119849,-5.102125056466597 L10.997741501956032,-5.367583351168186 L10.864517482773254,-5.630155190229822 L10.725346056739104,-5.889682410193849 L10.580311055516667,-6.146008681567312 L10.429499842767473,-6.398979602988987 L10.273003261526892,-6.648442794235002 L10.110915579483676,-6.894247988006981 L9.943334432196636,-7.136247120447444 L9.770360764282639,-7.374294420327939 L9.592098768611333,-7.608246496856183 L9.408655823543263,-7.8379624260493035 L9.220142428249169,-8.063303835621186 L9.026672136149404,-8.284134988332763 L8.828361486513606,-8.500322863755052 L8.625329934261805,-8.711737238395681 L8.417699778009244,-8.91825076414066 L8.205596086398248,-9.119739044964119 L7.989146622761585,-9.316080711859824 L7.768481768162575,-9.507157495949322 L7.543734442858444,-9.692854299722697 L7.31504002623411,-9.873059266369008 L7.082536275254709,-10.047663847154645 L6.84636324148596,-10.216562866809033 L6.6066631867323204,-10.37965458687827 L6.363580497343817,-10.536840767008577 L6.117261597243093,-10.688026724122613 L5.867854859725109,-10.833121389453025 L5.615510518082627,-10.972037363398849 L5.360380575111289,-11.104690968171786 L5.1026187115488195,-11.231002298200561 L4.842380193503489,-11.350895268263049 L4.579821778927625,-11.464297659317168 L4.3151016231924775,-11.57114116200294 L4.048379183821336,-11.671361417789479 L3.779815124438281,-11.764898057742178 L3.509571217990427,-11.851694738886692 L3.2378102493019485,-11.931699178147833 L2.9646959170185956,-12.004863183842948 L2.6903927350017236,-12.071142684710788 L2.415065933231328,-12.130497756458375 L2.1388813582776587,-12.182892645809925 L1.8620053734014617,-12.228295792043259 L1.584604758342969,-12.266679846000818 L1.3068466088600132,-12.298021686563773 L1.0288982360757963,-12.322302434579315 L0.7509270656969267,-12.339507464232755 L0.4731005371624256,-12.349626411857567 L0.1955860027844768,-12.352653182178075 L-0.0814493730583421,-12.348585951981011 L-0.35783871461464045,-12.33742717121377 L-0.633415535279932,-12.319183561508625 L-0.9080138378819274,-12.293866112133896 L-1.181468214671034,-12.261490073374404 L-1.4536139469557896,-12.222074947345279 L-1.7242871043232504,-12.175644476244614 L-1.993324643384545,-12.12222662805205 L-2.2605645059860997,-12.061853579681923 L-2.52584571682742,-11.994561697601073 L-2.7890084804266033,-11.920391515923063 L-3.049894277375148,-11.839387711991929 L-3.308345959824119,-11.751599079470237 L-3.56420784614414,-11.657078498947588 L-3.817325814702187,-11.555882906087335 L-4.067547396698687,-11.448073257330671 L-4.314721868009036,-11.333714493178748 L-4.5587003399741635,-11.212875499074935 L-4.799335849085502,-11.085629063910826 L-5.036483445510263,-10.95205183618093 " />
			<path d="M-5.036483445510306,-10.952051836180905 L-5.196743657101025,-10.856999265933693 L-5.355257054258762,-10.759044283019993 L-5.511978888653445,-10.658214540130274 L-5.666864917713151,-10.554538501499714 L-5.8198714171137835,-10.448045434872746 L-5.9709551931224425,-10.338765403240766 L-6.120073594791018,-10.226729256355357 L-6.267184525996556,-10.111968622019413 L-6.4122464573249855,-9.994515897158593 L-6.555218437794877,-9.87440423867568 L-6.696060106417901,-9.751667554090384 L-6.834731703592736,-9.626340491967259 L-6.971194082329209,-9.4984584321344 L-7.105408719299485,-9.368057475695716 L-7.237337725713193,-9.235174434839616 L-7.366943858013444,-9.099846822446889 L-7.494190528390689,-8.96211284150086 L-7.6190418151114425,-8.822011374302646 L-7.7414624726589985,-8.67958197149472 L-7.861417941683234,-8.534864840895745 L-7.978874358756725,-8.387900836149907 L-8.093798565934378,-8.23873144519393 L-8.206158120113916,-8.08739877854505 L-8.315921302194576,-7.933945557413203 L-8.42305712603141,-7.778415101640829 L-8.527535347182663,-7.620851317473675 L-8.629326471447792,-7.461298685166073 L-8.728401763193665,-7.299802246424169 L-8.824733253466643,-7.1364075916906256 L-8.918293747888212,-6.9711608472744615 L-9.009056834331941,-6.804108662329597 L-9.096996890379648,-6.6352981956857855 L-9.182089090554589,-6.464777102535686 L-9.264309413329704,-6.292593520981797 L-9.343634647908884,-6.118796058447072 L-9.420042400779378,-5.943433777953052 L-9.493511102033496,-5.766556184269359 L-9.56402001145778,-5.588213209938509 L-9.631549224387962,-5.408455201179969 L-9.696079677328065,-5.227332903677395 L-9.757593153332017,-5.044897448253147 L-9.816072287146298,-4.861200336434049 L-9.871500570112154,-4.676293425912506 L-9.923862354825982,-4.490228915907082 L-9.973142859556605,-4.303059332426667 L-10.019328172418138,-4.114837513442372 L-10.062405255297337,-3.925616593971381 L-10.102361947534225,-3.7354499910769396 L-10.139186969355084,-3.5443913887887 L-10.172869925056704,-3.3524947229477333 L-10.203401305941101,-3.1598141659804497 L-10.230772492999833,-2.966404111605711 L-10.254975759347126,-2.77231915947949 L-10.276004272401188,-2.5776140997813837 L-10.293852095813044,-2.382343897747348 L-10.308514191142363,-2.186563678153019 L-10.319986419279815,-1.9903287097519775 L-10.32826554161554,-1.7936943896733961 L-10.333349220953398,-1.5967162277834008 L-10.33523602217078,-1.3994498310146744 L-10.333925412623726,-1.2019508876686016 L-10.329417762297291,-1.0042751516944586 L-10.32171434370111,-0.8064784269500802 L-10.310817331510155,-0.6086165514484252 L-10.296729801950836,-0.410745381594518 L-10.279455731932574,-0.21292077641717222 L-10.258999997925121,-0.015198581799996669 L-10.235368374581936,0.18236538528389978 L-10.208567533110001,0.3797153525290401 L-10.178605039386529,0.5767956080420994 L-10.145489351823139,0.7735505160693613 L-10.109229818978008,0.9699245327027267 L-10.069836676916827,1.1658622215597094 L-10.027321046323106,1.3613082694331413 L-9.981694929358842,1.5562075019061345 L-9.932971206276289,1.7505048989277485 L-9.881163631781877,1.944145610345196 L-9.826286831153249,2.137074971388022 L-9.768356296110548,2.3292385180999817 L-9.707388380443101,2.520582002714198 L-9.643400295392754,2.7110514089673217 L-9.576410104795128,2.900592967348307 L-9.506436719980202,3.0891531702775565 L-9.433499894433657,3.2766787872121026 L-9.357620218220438,3.463116879672591 L-9.278819112172211,3.648414816187814 L-9.19711882184025,3.8325202871525628 L-9.112542411215498,4.015381319594667 L-9.025113756217644,4.196946291846909 L-8.934857537954915,4.377163948119845 L-8.841799235756614,4.555983412971346 L-8.74596511998031,4.733354205668675 L-8.647382244595704,4.909226254439234 L-8.546078439547312,5.083549910605819 L-8.442082302898045,5.256275962602439 L-8.335423192756004,5.4273556498667395 L-8.226131218986671,5.596740676605108 L-8.114237234712894,5.764383225426585 L-7.999772827605057,5.930235970841696 L-7.882770310963879,6.094252092622451 L-7.763262714598371,6.256385289019691 L-7.641283775501515,6.416589789834065 L-7.516867928326324,6.574820369336957 L-7.3900502956649134,6.731032359037737 L-7.260866678133429,6.8851816602936236 L-7.129353544265518,7.037224756758762 L-6.995548020217239,7.187118726668905 L-6.859487879286392,7.334821254958184 L-6.721211531249089,7.480290645204679 L-6.580758011516679,7.623485831401313 L-6.438166970116057,7.764366389548783 L-6.293478660496454,7.902892549067262 L-6.146733928165894,8.039025204023616 L-5.997974199160516,8.172725924171026 L-5.847241468349981,8.303956965797843 L-5.694578287582346,8.432681282382626 L-5.540027753671662,8.55886253505239 L-5.383633496231752,8.682465102841054 L-5.225439665359571,8.803454092745255 L-5.065490919171622,8.921795349574632 L-4.90383241119699,9.037455465593833 L-4.740509777630488,9.150401789953534 L-4.57556912444956,9.260602437907755 L-4.409057014398573,9.368026299814936 L-4.241020453844145,9.472643049920178 L-4.071506879505253,9.574423154916218 L-3.900564145061858,9.673337882280657 L-3.7282405076458627,9.769359308387143 " />
			<path d="M-4.719291781830087,10.345052187647186 L-4.719291781830087,26.10025784795867 " />
			<path d="M-6.51262265892552,-0.46343276780417453 L-6.513813925466479,-0.5150963166884293 L-6.517384991404965,-0.5668108485945275 L-6.5233276619609795,-0.6184576904934923 L-6.53162830006407,-0.6699183246894402 L-6.542267857647284,-0.7210746607905995 L-6.555221919358131,-0.771809306699764 L-6.570460758586236,-0.8220058380023224 L-6.58794940567911,-0.871549065133674 L-6.607647728189515,-0.9203252977129479 L-6.629510522970252,-0.9682226054364391 L-6.653487619905051,-1.0151310749320666 L-6.679523997037523,-1.060943061985438 L-6.707559906833966,-1.1055534385587145 L-6.737531013290301,-1.148859834035425 L-6.769368539568494,-1.1907628701376298 L-6.802999425823675,-1.2311663889763516 L-6.838346496859783,-1.2699776737119484 L-6.875328639228997,-1.3071076613180654 L-6.91386098736856,-1.3424711469609236 L-6.953855118347842,-1.3759869795249318 L-6.995219254778752,-1.4075782478359495 L-7.037858475423869,-1.4371724571548485 L-7.081674933018979,-1.464701695536367 L-7.126568078810178,-1.4901027896715004 L-7.17243489329028,-1.5133174498558026 L-7.219170122605035,-1.5342924037509356 L-7.266666520086663,-1.5529795186325057 L-7.314815092360443,-1.5693359118436638 L-7.363505349459589,-1.5833240492010006 L-7.4126255583744705,-1.5949118311269168 L-7.46206299945432,-1.6040726663108156 L-7.511704225073071,-1.6107855327300824 " />
			<path d="M-6.598978202598885,-0.039534054481471625 L-6.578957382836434,-0.08935172366234845 L-6.561498010741007,-0.14034998662335973 L-6.54664610013322,-0.19239443847807042 L-6.534440792921892,-0.24534791713046095 L-6.524914255946327,-0.2990708647628456 L-6.518091596201276,-0.3534216956376672 L-6.513990794667951,-0.40825716924383326 L-6.512622658925521,-0.46343276780417186 " />
			<path d="M1.0382441920026182,-7.759031619515307 L1.0370529254616587,-7.810695168399562 L1.0334818595231736,-7.862409700305659 L1.0275391889671588,-7.914056542204625 L1.0192385508640682,-7.9655171764005726 L1.0085989932808541,-8.01667351250173 L0.9956449315700067,-8.067408158410895 L0.9804060923419025,-8.117604689713454 L0.9629174452490284,-8.167147916844806 L0.9432191227386236,-8.21592414942408 L0.9213563279578868,-8.263821457147571 L0.8973792310230873,-8.310729926643198 L0.8713428538906154,-8.356541913696569 L0.8433069440941725,-8.401152290269845 L0.813335837637837,-8.444458685746557 L0.7814983113596443,-8.48636172184876 L0.7478674251044636,-8.526765240687483 L0.7125203540683558,-8.56557652542308 L0.6755382116991415,-8.602706513029197 L0.6370058635595786,-8.638069998672055 L0.5970117325802973,-8.671585831236063 L0.5556475961493869,-8.703177099547082 L0.5130083755042695,-8.73277130886598 L0.4691919179091599,-8.760300547247498 L0.42429877211796113,-8.785701641382632 L0.3784319576378594,-8.808916301566935 L0.33169672832310465,-8.829891255462067 L0.28420033084147617,-8.848578370343638 L0.23605175856769586,-8.864934763554796 L0.18736150146854952,-8.878922900912132 L0.13824129255366896,-8.890510682838048 L0.08880385147381865,-8.899671518021947 L0.03916262585506787,-8.906384384441214 " />
			<path d="M0.9518886483292529,-7.335132906192603 L0.9719094680917043,-7.38495057537348 L0.9893688401871321,-7.435948838334491 L1.0042207507949183,-7.487993290189203 L1.016426058006247,-7.540946768841593 L1.0259525949818113,-7.594669716473978 L1.0327752547268625,-7.649020547348799 L1.0368760562601873,-7.703856020954965 L1.038244192002618,-7.759031619515304 " />
			<path d="M1.9698671289521044,2.250222149943691 L2.0546683307036986,2.167357978872799 L2.1357446735884715,2.080564656578548 L2.2129491762517337,1.9899995285902858 L2.286141876504938,1.8958267782533111 L2.3551900850597702,1.798217129084827 L2.41996862607737,1.697347535273381 L2.4803600640966055,1.593400860882864 L2.53625491693,1.4865655483426425 L2.587551854141358,1.3770352768248046 L2.6341578807452812,1.2650086111278385 L2.675988505795543,1.1506886417032816 L2.712967895556696,1.0342826164779182 L2.745029010981229,0.9160015651389888 L2.772113729243046,0.7960599165635397 L2.7941729491069434,0.6746751100854635 L2.811166679943058,0.5520672013049519 L2.8230641142249184,0.42845846315498254 L2.8298436833796745,0.3040729829480605 L2.83149309688924,0.1791362561337075 L2.828009364571478,0.05387477750318197 L2.819398802001035,-0.07148436941749117 L2.8056770190599827,-0.19671392404179017 L2.7868688916390387,-0.3215868607179535 L2.763008516540664,-0.4458768002983334 L2.734139149665783,-0.5693584205367144 L2.7003131275962096,-0.6918078645696003 L2.6615917727149037,-0.8130031467409481 L2.6180452820361024,-0.9327245550346305 L2.5697525999468422,-1.0507550493850715 L2.516801275090565,-1.1668806551439708 L2.4592873016522963,-1.2808908509898036 L2.397314945333087,-1.3925789505768662 L2.3309965543292295,-1.5017424772319907 L2.26045235565891,-1.6081835310196413 L2.1858102372055375,-1.7117091475099526 L2.1072055158728697,-1.8121316475993128 L2.024780692272248,-1.9092689777493013 L1.938685192386664,-2.0029450400271744 L1.8490750966799794,-2.092990011349581 L1.7561128571424083,-2.1792406513507516 L1.6599670027852007,-2.2615405983170302 L1.5608118341184487,-2.339740652651279 L1.4588271071658756,-2.4136990473532385 L1.3541977075894622,-2.4832817050255165 L1.2471133155146643,-2.548362480939287 L1.1377680616638757,-2.6088233917190338 L1.0263601754215026,-2.6645548292317796 L0.9130916254686691,-2.71545575929304 L0.7981677536390523,-2.7614339048292678 L0.681796902659602,-2.802405913164742 L0.5641900384510119,-2.8382975071296355 L0.4455603676726735,-2.86904361971531 L0.32612295120544427,-2.894588512032731 L0.20609431427293537,-2.914885874360165 L0.0856920539081433,-2.9298989100969592 L-0.03486555552298898,-2.9396004024712163 L-0.1553599580259311,-2.943972763880425 L-0.2755727121924704,-2.9430080677756054 L-0.395285887207899,-2.9367080630311535 L-0.514282457932557,-2.9250841707743556 L-0.632346698341487,-2.908157463680295 L-0.749264572608969,-2.8859586277697113 L-0.8648241231289291,-2.8585279067790443 L-0.9788158547677765,-2.8259150292035393 " />
			<path d="M8.589111042930758,0.611193940147536 L8.5879197763898,0.5595303912632813 L8.584348710451314,0.5078158593571831 L8.578406039895299,0.4561690174582182 L8.570105401792208,0.40470838326227027 L8.559465844208995,0.3535520471611111 L8.546511782498147,0.3028174012519466 L8.531272943270043,0.25262086994938815 L8.51378429617717,0.20307764281803653 L8.494085973666765,0.1543014102387626 L8.472223178886027,0.10640410251527149 L8.448246081951229,0.059495633019644056 L8.422209704818757,0.013683645966272584 L8.394173795022313,-0.030926730607003905 L8.364202688565978,-0.07423312608371435 L8.332365162287784,-0.11613616218591927 L8.298734276032604,-0.156539681024641 L8.263387204996496,-0.1953509657602377 L8.226405062627283,-0.232480953366355 L8.18787271448772,-0.26784443900921295 L8.147878583508438,-0.3013602715732212 L8.106514447077528,-0.332951539884239 L8.06387522643241,-0.362545749203138 L8.0200587688373,-0.39007498758465653 L7.975165623046101,-0.4154760817197898 L7.929298808565999,-0.4386907419040921 L7.8825635792512445,-0.4596656957992251 L7.835067181769616,-0.47835281068079516 L7.786918609495836,-0.4947092038919533 L7.73822835239669,-0.50869734124929 L7.689108143481809,-0.5202851231752063 L7.6396707024019594,-0.529445958359105 L7.590029476783208,-0.5361588247783718 " />
			<path d="M8.502755499257393,1.035092653470239 L8.522776319019846,0.9852749842893621 L8.540235691115273,0.9342767213283508 L8.55508760172306,0.8822322694736402 L8.567292908934387,0.8292787908212496 L8.576819445909953,0.775555843188865 L8.583642105655004,0.7212050123140434 L8.587742907188328,0.6663695387078773 L8.589111042930758,0.6111939401475387 " />
			<path d="M1.03824419200262,7.906792791858667 L1.0370529254616605,7.855129242974412 L1.0334818595231754,7.8034147110683145 L1.0275391889671606,7.751767869169349 L1.01923855086407,7.700307234973401 L1.008598993280856,7.649150898872242 L0.9956449315700084,7.598416252963077 L0.9804060923419042,7.548219721660519 L0.9629174452490302,7.4986764945291675 L0.9432191227386254,7.449900261949893 L0.9213563279578886,7.402002954226402 L0.897379231023089,7.355094484730775 L0.8713428538906172,7.309282497677404 L0.8433069440941743,7.264672121104128 L0.8133358376378388,7.221365725627417 L0.7814983113596461,7.179462689525212 L0.7478674251044654,7.13905917068649 L0.7125203540683576,7.1002478859508935 L0.6755382116991433,7.063117898344776 L0.6370058635595803,7.027754412701919 L0.597011732580299,6.99423858013791 L0.5556475961493886,6.962647311826893 L0.5130083755042713,6.933053102507993 L0.4691919179091617,6.905523864126475 L0.42429877211796296,6.880122769991342 L0.37843195763786125,6.85690810980704 L0.3316967283231065,6.835933155911906 L0.284200330841478,6.817246041030336 L0.23605175856769767,6.800889647819178 L0.18736150146855132,6.786901510461841 L0.13824129255367076,6.7753137285359255 L0.08880385147382047,6.766152893352026 L0.03916262585506969,6.75944002693276 " />
			<path d="M0.9518886483292547,8.33069150518137 L0.9719094680917061,8.280873836000493 L0.9893688401871339,8.229875573039482 L1.0042207507949201,8.177831121184772 L1.0164260580062487,8.12487764253238 L1.0259525949818131,8.071154694899995 L1.0327752547268643,8.016803864025174 L1.036876056260189,7.961968390419009 L1.0382441920026197,7.90679279185867 " />
			<path d="M-3.7282405076457685,8.879626531613978 L-2.73718923346145,8.303933652354132 " />
			<path d="M-3.7282405076457685,8.879626531613978 L-3.7282405076457685,9.769359308387193 " />
			<path d="M-8.683496878567361,28.40302936499805 L-4.719291781830087,26.10025784795867 " />
			<path d="M-8.683496878567361,28.40302936499805 L-8.683496878567361,31.340371442130674 " />
			<path d="M-8.683496878567361,31.340371442130674 L-8.683496878567361,34.277713519263294 " />
			<path d="M-8.683496878567361,34.277713519263294 L-3.728240507645769,31.39924912296407 " />
			<path d="M-3.7282405076457685,28.461907045831445 L-3.7282405076457685,31.399249122964065 " />
			<path d="M-3.7282405076457685,28.46190704583145 L-2.73718923346145,27.8862141665716 " />
			<path d="M-2.73718923346145,8.303933652354132 L-2.73718923346145,27.886214166571598 " />
			<path d="M2.0292954661869365,-8.33472449877515 L2.0269920792084144,-8.406590797965801 L2.0200921385882884,-8.47846603471168 L2.008626259924505,-8.55003129273919 L1.9926453182536221,-8.620969031175528 L1.9722202223141285,-8.690964493503378 L1.9474415999186028,-8.759707104161182 L1.9184193958307363,-8.826891846592185 L1.8852823839314694,-8.892220616627709 L1.8481775958388043,-8.955403545199605 L1.8072696685165535,-9.016160284512896 L1.7627401137667345,-9.074221251971757 L1.7147865128469362,-9.12932882633942 L1.6636216397862023,-9.181238490824565 L1.6094725172893527,-9.229719918022223 L1.5525794094187693,-9.274557991895211 L1.4931947555232035,-9.315553762261484 L1.4315820501438443,-9.352525327552291 L1.3680146738676002,-9.385308641924235 L1.3027746803151927,-9.413758243144018 L1.2361515446462912,-9.437747898016216 L1.1684408791346743,-9.457171162490233 L1.099943121512521,-9.47194185396122 L1.0309622019037465,-9.481994433669293 L0.9618041942613126,-9.487284297500358 L0.8927759582921967,-9.487787973898183 L0.8241837778959027,-9.48350322800961 L0.7563320021578768,-9.474449071600777 L0.689521694927854,-9.460665678700362 L0.6240492989750593,-9.442214207344161 L0.5602053206475213,-9.419176528211887 L0.49827304087176877,-9.391654861360323 L0.4385272582123143,-9.359771322664598 " />
			<path d="M0.4385272582123104,-9.359771322664596 L0.3960615522880291,-9.333571044120324 L0.35502922871874,-9.305142441562955 L0.3155291379659294,-9.274554001986099 L0.2776564392080201,-9.241879415619929 L0.2415023710935763,-9.207197398404956 L0.20715403193940818,-9.170591502358437 L0.17469416990309705,-9.132149914290247 L0.14420098363543643,-9.091965243353124 L0.11574793389303328,-9.05013429793912 L0.08940356656490966,-9.006757852459698 L0.06523134753945292,-8.96194040457134 L0.043289509809531945,-8.915789923431557 L0.02363091318411592,-8.86841758959172 L0.0063029169443653554,-8.819937527153375 L-0.008652734249025351,-8.770466528833287 L-0.02120001092237067,-8.720123774599557 L-0.03130868558715294,-8.66903054455664 L-0.038954405560688965,-8.617309926770945 L-0.04411875163387724,-8.565086520740913 L-0.04678928244468361,-8.512486137225896 L-0.046959564450474334,-8.459635495157034 L-0.04462918742698263,-8.40666191636024 L-0.0398037654565746,-8.353693018826773 L-0.032494923403434184,-8.300856409270317 L-0.02272026890824619,-8.248279375711235 L-0.010503349969848363,-8.196088580828576 L0.0041264017839609535,-8.144409756818584 L0.021133741999792344,-8.093367402494831 L0.04047769850539862,-8.043084483359666 L0.06211167001522677,-7.993682135369546 L0.0859835383969978,-7.945279373107917 L0.11203579422885157,-7.8979928030686475 L0.14020567534458062,-7.851936342740776 L0.1704253180331875,-7.807220946171302 L0.2026219205285068,-7.763954336667168 L0.23671791839503897,-7.722240747280376 L0.27263117138746595,-7.682180669701437 L0.31027516133369915,-7.64387061216609 L0.34955920056473444,-7.6074028669585 L0.3903886503891888,-7.57286528807107 L0.4326651490861976,-7.540341079556475 L0.47628684886741623,-7.50990859508181 L0.5211486612372618,-7.481641149167745 L0.5671425101603044,-7.455606840567423 L0.6141575924259034,-7.431868388210599 L0.6620806445828462,-7.4104829801082435 L0.7107962158009227,-7.391502135581615 L0.7601869460020899,-7.374971581147704 L0.8101338485911749,-7.360931140360047 L0.8605165971050078,-7.349414637870299 L0.911213815089412,-7.3404498179416855 L0.9621033685057115,-7.334058277610638 L1.0130626599623278,-7.330255414657648 L1.063968924062635,-7.329050390512661 L1.1146995231575538,-7.330446108184388 L1.1651322427903885,-7.33443920526671 L1.2151455861221594,-7.341020062039 L1.264619066628128,-7.350172824640879 L1.3134334983603912,-7.361875443265552 L1.361471283077267,-7.376099725279723 L1.408616693547759,-7.3928114031421215 L1.4547561523485926,-7.411970216957005 L1.4997785054821777,-7.433530011463781 L1.543575290156316,-7.457438847229063 " />
			<path d="M1.543575290156324,-7.457438847229067 L1.5979064973671209,-7.491531235466578 L1.6498220879180563,-7.5292740806574106 L1.6991154092820522,-7.570517145575041 L1.7455902470017577,-7.615096260198492 L1.7890616057307196,-7.662833975199076 L1.829356445616332,-7.713540268286047 L1.8663143710933672,-7.767013300599555 L1.899788269346303,-7.823040220140023 L1.9296448958990253,-7.88139800903585 L1.955765405000929,-7.941854371276879 L1.9780458226981934,-8.004168657379928 L1.9963974607071526,-8.068092822305742 L2.0107472694423096,-8.133372412814298 L2.021038128793755,-8.199747580328278 L2.0272290754965407,-8.266954115272943 L2.0292954661869365,-8.334724498775149 " />
			<path d="M-5.521571384741201,-1.0391256470640198 L-5.523874771719724,-1.1109919462546702 L-5.53077471233985,-1.1828671830005486 L-5.542240591003633,-1.254432441028058 L-5.558221532674516,-1.3253701794643964 L-5.57864662861401,-1.3953656417922458 L-5.6034252510095355,-1.4641082524500504 L-5.632447455097402,-1.5312929948810536 L-5.665584466996669,-1.5966217649165768 L-5.702689255089334,-1.6598046934884727 L-5.743597182411585,-1.720561432801765 L-5.788126737161404,-1.7786224002606261 L-5.836080338081202,-1.833729974628288 L-5.887245211141936,-1.8856396391134334 L-5.941394333638786,-1.934121066311092 L-5.998287441509369,-1.9789591401840787 L-6.057672095404935,-2.019954910550352 L-6.119284800784294,-2.0569264758411605 L-6.182852177060538,-2.089709790213104 L-6.248092170612946,-2.118159391432887 L-6.314715306281847,-2.142149046305085 L-6.382425971793464,-2.1615723107791025 L-6.450923729415617,-2.1763430022500883 L-6.519904649024392,-2.186395581958161 L-6.589062656666826,-2.1916854457892256 L-6.658090892635942,-2.1921891221870506 L-6.726683073032236,-2.187904376298478 L-6.794534848770262,-2.178850219889645 L-6.861345156000285,-2.1650668269892317 L-6.926817551953079,-2.1466153556330294 L-6.990661530280617,-2.123577676500756 L-7.052593810056369,-2.0960560096491903 L-7.1123395927158235,-2.0641724709534666 " />
			<path d="M-7.112339592715828,-2.064172470953464 L-7.15480529864011,-2.0379721924091934 L-7.195837622209398,-2.0095435898518237 L-7.235337712962209,-1.978955150274968 L-7.273210411720118,-1.946280563908798 L-7.309364479834562,-1.911598546693825 L-7.34371281898873,-1.874992650647306 L-7.376172681025041,-1.8365510625791148 L-7.406665867292702,-1.7963663916419932 L-7.435118917035105,-1.7545354462279898 L-7.461463284363228,-1.711159000748566 L-7.485635503388686,-1.666341552860209 L-7.507577341118607,-1.6201910717204266 L-7.527235937744022,-1.5728187378805893 L-7.544563933983773,-1.5243386754422434 L-7.5595195851771635,-1.4748676771221552 L-7.572066861850509,-1.4245249228884258 L-7.582175536515291,-1.373431692845508 L-7.589821256488827,-1.3217110750598138 L-7.594985602562016,-1.2694876690297807 L-7.597656133372822,-1.2168872855147648 L-7.597826415378613,-1.1640366434459029 L-7.595496038355121,-1.1110630646491086 L-7.590670616384713,-1.0580941671156407 L-7.583361774331572,-1.0052575575591853 L-7.573587119836384,-0.9526805240001038 L-7.561370200897986,-0.9004897291174445 L-7.546740449144178,-0.8488109051074533 L-7.529733108928346,-0.7977685507837 L-7.510389152422739,-0.7474856316485334 L-7.488755180912912,-0.6980832836584145 L-7.464883312531141,-0.6496805213967856 L-7.438831056699287,-0.602393951357516 L-7.410661175583558,-0.5563374910296445 L-7.380441532894951,-0.5116220944601707 L-7.348244930399631,-0.4683554849560364 L-7.314148932533099,-0.4266418955692439 L-7.278235679540672,-0.38658181799030567 L-7.240591689594439,-0.34827176045495833 L-7.201307650363404,-0.31180401524736856 L-7.160478200538949,-0.27726643635993886 L-7.118201701841941,-0.24474222784534327 L-7.074580002060722,-0.2143097433706781 L-7.029718189690876,-0.18604229745661327 L-6.983724340767834,-0.16000798885629197 L-6.936709258502235,-0.13626953649946816 L-6.8887862063452925,-0.11488412839711248 L-6.840070635127216,-0.09590328387048386 L-6.790679904926049,-0.07937272943657248 L-6.740733002336963,-0.0653322886489156 L-6.69035025382313,-0.05381578615916793 L-6.639653035838726,-0.044850966230553846 L-6.588763482422427,-0.03845942589950657 L-6.537804190965811,-0.034656562946516756 L-6.486897926865503,-0.03345153880152907 L-6.436167327770584,-0.03484725647325693 L-6.385734608137749,-0.038840353555578355 L-6.335721264805979,-0.04542121032786839 L-6.28624778430001,-0.054573972929747416 L-6.237433352567747,-0.06627659155442034 L-6.189395567850871,-0.08050087356859215 L-6.14225015738038,-0.09721255143099028 L-6.096110698579546,-0.1163713652458741 L-6.051088345445961,-0.13793115975265002 L-6.007291560771822,-0.16183999551793138 " />
			<path d="M-6.007291560771814,-0.16183999551793604 L-5.952960353561017,-0.1959323837554462 L-5.9010447630100815,-0.23367522894627912 L-5.851751441646086,-0.274918293863909 L-5.80527660392638,-0.3194974084873612 L-5.761805245197419,-0.3672351234879446 L-5.721510405311806,-0.41794141657491524 L-5.684552479834771,-0.4714144488884241 L-5.651078581581835,-0.5274413684288916 L-5.621221955029113,-0.5857991573247189 L-5.5951014459272095,-0.6462555195657473 L-5.572821028229945,-0.7085698056687968 L-5.554469390220985,-0.7724939705946099 L-5.540119581485829,-0.8377735611031657 L-5.529828722134383,-0.9041487286171473 L-5.523637775431598,-0.9713552635618115 L-5.521571384741202,-1.039125647064017 " />
			<path d="M-1.8405237949137336,-0.7771853870007926 L-1.8389528680254839,-0.6792433367660682 L-1.8342418304268553,-0.5811863892081078 L-1.8263959093821494,-0.48312334617164165 L-1.8154238105537832,-0.3851630162648032 L-1.801337708342683,-0.287414094127485 L-1.78415323237983,-0.18998503982614146 L-1.7638894501839668,-0.09298395850887198 L-1.7405688460046949,0.0034815195456895376 L-1.7142172958744424,0.09930435835257645 L-1.6848640388969849,0.1943782349852783 L-1.6525416448043746,0.28859765754933486 L-1.617285977818279,0.3818580822338359 L-1.5791361568558235,0.47405602931094715 L-1.5381345121240977,0.5650891979547529 L-1.4943265381514825,0.6548565797520166 L-1.4477608433079157,0.7432585707789064 L-1.3984890958701088,0.830197082119332 L-1.346565966691557,0.9155756487022585 L-1.2920490685409547,0.9992995363372433 L-1.234998892176328,1.0812758468294192 L-1.1754787392258121,1.1614136210573016 L-1.1135546519495492,1.2396239398990394 L-1.0492953399606395,1.315820022895132 L-0.9827721039864623,1.3899173245381196 L-0.9140587567549392,1.4618336280824415 L-0.8432315410935503,1.5314891367703352 L-0.770369045331966,1.598806562372566 L-0.6955521161021432,1.6637112109457681 L-0.6188637686326763,1.7261310657112028 L-0.5403890946369165,1.7859968669630035 L-0.4602151678970652,1.8432421889172326 L-0.37843094764901,1.8978035134164761 L-0.29512717987510073,1.9496203004082022 L-0.21039629661439418,1.998635055118681 L-0.12433231340208195,2.044793391847929 L-0.03703072495191129,2.08804409431489 L0.051411600802662494,2.128339172485902 L0.14089653019101633,2.1656339158233893 L0.23132477269233787,2.199886942895697 L0.3225959911062046,2.231060247293021 L0.41460891288456325,2.2591192397984927 L0.5072614425015257,2.2840327867676162 L0.6004507747363268,2.305773244673475 L0.6940735087437625,2.324316490779394 L0.7880257627854954,2.3396419499049923 L0.8822032894949656,2.351732617255957 L0.9765015915479871,2.3605750772921916 L1.070816037610693,2.366159518613405 L1.165041978436177,2.368479744845626 L1.2590748629810076,2.367533181516565 L1.3528103544127823,2.363320878912193 L1.4461444458799915,2.355847510911367 L1.5389735759157503,2.3451213697997932 L1.6311947433473346,2.331154357069094 L1.7227056215840348,2.313961970211168 L1.8134046721564905,2.2935632855225134 L1.9031912573815735,2.2699809369375887 L1.9919657520277507,2.243241090914688 L2.0796296538570562,2.213373417402222 L2.166085692921035,2.180411056917579 L2.2512379394893403,2.1443905837751402 L2.3349919104912678,2.1053519655042185 L2.4172546743521055,2.063338518501961 L2.4979349541079516,2.0183968599704323 " />
			<path d="M2.4979349541079734,2.01839685997042 L2.61375051571965,1.9469415548496807 L2.725656852726801,1.8694090024204915 L2.833384372961739,1.7859859853927036 L2.936673551392401,1.6968734771213305 L3.0352755553408843,1.602286157444131 L3.1289528439431615,1.5024518954990795 L3.217479740405828,1.397611200767649 L3.3006429756812654,1.288016643666408 L3.3782422022514558,1.1739322470827633 L3.4500904767827025,1.055632850320698 L3.516014710488493,0.9334034469888147 L3.5758560861155506,0.8075384984257713 L3.629470440548504,0.6783412243171242 L3.67672861211146,0.5461228722125452 L3.717516751729798,0.4112019677032146 L3.7517365972025574,0.27390354706577036 L3.77930570992469,0.13455837422144912 L3.8001576734888802,-0.00649785610317033 L3.8142422536884846,-0.14892532709416967 L3.821525519536139,-0.2923809184987594 L3.821989925006477,-0.4365190332320199 L3.8156343513060444,-0.5809924299505498 L3.8024741095685677,-0.7254530595872802 L3.782540903969094,-0.8695529038321599 L3.755882755345854,-1.0129448135387462 L3.722563885513859,-1.1552833450369084 L3.6826645625489247,-1.2962255923368846 L3.63628090741484,-1.4354320132198461 L3.583524662399551,-1.5725672472248444 L3.524522921918201,-1.7073009235615317 L3.4594178263315527,-1.8393084570023386 L3.388366219517406,-1.968271829836711 L3.3115392710199623,-2.093880358003634 L3.229122063687398,-2.215831439556745 L3.1413131477910725,-2.333831283658929 L3.0483240627005315,-2.4475956183501797 L2.9503788272666407,-2.5568503753836462 L2.8477134001405506,-2.6613323504800483 L2.740575111328636,-2.7607898374098387 L2.6292220663528507,-2.854983234375557 L2.5139225244519166,-2.9436856212335454 L2.39495425232132,-3.026683306164451 L2.272603854949015,-3.1037763404755365 L2.147166085158898,-3.1747790002945946 L2.018943133525446,-3.239520233995023 L1.888243900370147,-3.2978440742741757 L1.7553832515935728,-3.3496100138922538 L1.620681260135847,-3.3946933441665563 L1.4844624348928903,-3.4329854554056203 L1.347054938946072,-3.464394098559478 L1.2087897989886045,-3.4888436074556988 L1.0700001078532424,-3.5062750810858274 L0.9310202220624708,-3.5166465255030728 L0.7921849563343599,-3.5199329549894025 L0.6538287769845814,-3.516126452248326 L0.5162849961677587,-3.505236187478358 L0.3798849688992918,-3.487288396281204 L0.24495729479210426,-3.4623263164578972 L0.11182702643138676,-3.430410083845153 L-0.01918511370554543,-3.391616587442867 L-0.14776350589779375,-3.3460392841817814 L-0.27359839353643145,-3.2937879737775524 L-0.39638662935530156,-3.2349885342136178 L-0.5158324057393255,-3.169782618490117 " />
			<path d="M-0.5158324057393362,-3.169782618490111 L-0.5907076449866762,-3.12456155076766 L-0.6640084254051455,-3.0768033778423565 L-0.7356617845100735,-3.0265556374749183 L-0.8055963996349698,-2.973868345503721 L-0.873742658925023,-2.9187939460597954 L-0.9400327306276854,-2.8613872593647303 L-1.0044006306113726,-2.8017054271634567 L-1.0667822880450641,-2.739807855846225 L-1.1271156091734378,-2.675756157316381 L-1.1853405391240517,-2.6096140876628153 L-1.2413991216850508,-2.54144748369812 L-1.2952355569939038,-2.4713241974256217 L-1.34679625707974,-2.3993140285005303 L-1.3960298992039988,-2.3254886547524163 L-1.442887476946309,-2.2499215608381924 L-1.4873223489847334,-2.1726879650965962 L-1.5292902855218338,-2.0938647446770005 L-1.5687495123103399,-2.0135303590170666 L-1.6056607522346038,-1.9317647717454025 L-1.6399872644064404,-1.84864937108699 L-1.6716948807364544,-1.7642668888505724 L-1.700752039944435,-1.6787013180786725 L-1.7271298189749769,-1.5920378294421926 L-1.750801961787051,-1.5043626864628181 L-1.7717449054888674,-1.415763159647617 L-1.7899378037920228,-1.3263274396213032 L-1.8053625477615793,-1.2361445493426246 L-1.8180037838414216,-1.1453042554922632 L-1.827848929136954,-1.0538969791204416 L-1.8348881839399267,-0.9620137056431803 L-1.8391145414829113,-0.8697458942767987 L-1.8405237949137336,-0.7771853870008189 " />
			<path d="M9.580162317115077,0.03550106088769067 L9.577858930136555,-0.03636523830295977 L9.570958989516429,-0.10824047504883806 L9.559493110852646,-0.1798057330763476 L9.543512169181763,-0.25074347151268594 L9.52308707324227,-0.32073893384053537 L9.498308450846743,-0.38948154449834 L9.469286246758877,-0.4566662869293431 L9.43614923485961,-0.5219950569648664 L9.399044446766945,-0.5851779855367624 L9.358136519444695,-0.6459347248500548 L9.313606964694875,-0.7039956923089157 L9.265653363775076,-0.7591032666765776 L9.214488490714343,-0.8110129311617229 L9.160339368217494,-0.8594943583593816 L9.10344626034691,-0.9043324322323684 L9.044061606451343,-0.9453282025986415 L8.982448901071985,-0.98229976788945 L8.918881524795742,-1.0150830822613934 L8.853641531243333,-1.0435326834811764 L8.787018395574432,-1.0675223383533745 L8.719307730062816,-1.0869456028273923 L8.650809972440662,-1.1017162942983776 L8.581829052831887,-1.1117688740064506 L8.512671045189453,-1.117058737837515 L8.443642809220337,-1.1175624142353402 L8.375050628824043,-1.1132776683467673 L8.307198853086017,-1.1042235119379342 L8.240388545855994,-1.0904401190375212 L8.1749161499032,-1.071988647681319 L8.111072171575662,-1.0489509685490452 L8.049139891799909,-1.0214293016974798 L7.989394109140456,-0.9895457630017559 " />
			<path d="M7.989394109140451,-0.9895457630017537 L7.94692840321617,-0.9633454844574827 L7.905896079646881,-0.9349168819001134 L7.86639598889407,-0.9043284423232575 L7.828523290136161,-0.8716538559570874 L7.792369222021717,-0.8369718387421144 L7.758020882867549,-0.8003659426955955 L7.725561020831238,-0.7619243546274045 L7.695067834563577,-0.7217396836902827 L7.666614784821174,-0.6799087382762794 L7.640270417493051,-0.6365322927968554 L7.6160981984675935,-0.5917148449084986 L7.5941563607376725,-0.5455643637687162 L7.574497764112257,-0.49819202992887895 L7.557169767872506,-0.44971196749053305 L7.542214116679116,-0.4002409691704447 L7.5296668400057705,-0.3498982149367154 L7.519558165340988,-0.29880498489379753 L7.511912445367452,-0.24708436710810333 L7.5067480992942635,-0.19486096107807024 L7.504077568483457,-0.1422605775630542 L7.503907286477666,-0.08940993549419235 L7.5062376635011585,-0.03643635669739814 L7.511063085471566,0.01653254083606963 L7.518371927524707,0.06936915039252514 L7.528146582019895,0.12194618395160658 L7.540363500958293,0.17413697883426596 L7.5549932527121015,0.22581580284425712 L7.5720005929279335,0.27685815716801043 L7.59134454943354,0.32714107630317707 L7.612978520943368,0.37654342429329585 L7.636850389325138,0.4249461865549249 L7.662902645156993,0.4722327565941944 L7.6910725262727215,0.518289216922066 L7.7212921689613285,0.5630046134915397 L7.753488771456648,0.606271222995674 L7.78758476932318,0.6479848123824665 L7.823498022315607,0.6880448899614048 L7.8611420122618405,0.7263549474967521 L7.900426051492875,0.7628226927043419 L7.94125550131733,0.7973602715917716 L7.983532000014338,0.8298844801063672 L8.027153699795557,0.8603169645810324 L8.072015512165402,0.8885844104950972 L8.118009361088445,0.9146187190954185 L8.165024443354044,0.9383571714522423 L8.212947495510987,0.959742579554598 L8.261663066729064,0.9787234240812266 L8.311053796930231,0.995253978515138 L8.361000699519316,1.0092944193027948 L8.411383448033149,1.0208109217925425 L8.462080666017552,1.0297757417211566 L8.512970219433852,1.0361672820522039 L8.56392951089047,1.0399701450051937 L8.614835774990777,1.0411751691501814 L8.665566374085694,1.0397794514784535 L8.71599909371853,1.035786354396132 L8.7660124370503,1.029205497623842 L8.81548591755627,1.020052735021963 L8.864300349288532,1.00835011639729 L8.912338134005408,0.9941258343831183 L8.9594835444759,0.9774141565207202 L9.005623003276733,0.9582553427058363 L9.05064535641032,0.9366955481990604 L9.094442141084457,0.9127867124337791 " />
			<path d="M9.094442141084464,0.9127867124337744 L9.148773348295261,0.8786943241962643 L9.200688938846197,0.8409514790054313 L9.249982260210192,0.7997084140878015 L9.296457097929899,0.7551292994643493 L9.33992845665886,0.7073915844637658 L9.380223296544473,0.6566852913767952 L9.417181222021508,0.6032122590632863 L9.450655120274444,0.5471853395228189 L9.480511746827167,0.48882755062699157 L9.50663225592907,0.4283711883859631 L9.528912673626335,0.36605690228291365 L9.547264311635294,0.30213273735710056 L9.56161412037045,0.23685314684854475 L9.571904979721896,0.17047797933456307 L9.578095926424682,0.10327144438989899 L9.580162317115077,0.035501060887693364 " />
			<path d="M2.0292954661869382,7.331099912598821 L2.026992079208416,7.259233613408171 L2.02009213858829,7.187358376662293 L2.008626259924507,7.115793118634784 L1.992645318253624,7.044855380198445 L1.9722202223141303,6.974859917870596 L1.9474415999186045,6.906117307212791 L1.918419395830738,6.838932564781788 L1.8852823839314712,6.773603794746265 L1.848177595838806,6.710420866174369 L1.8072696685165552,6.649664126861076 L1.7627401137667362,6.591603159402215 L1.714786512846938,6.536495585034554 L1.663621639786204,6.484585920549408 L1.6094725172893545,6.436104493351749 L1.552579409418771,6.391266419478763 L1.4931947555232052,6.350270649112489 L1.431582050143846,6.313299083821681 L1.368014673867602,6.280515769449738 L1.3027746803151945,6.2520661682299545 L1.236151544646293,6.228076513357756 L1.168440879134676,6.2086532488837385 L1.0999431215125228,6.193882557412754 L1.0309622019037483,6.18382997770468 L0.9618041942613144,6.178540113873616 L0.8927759582921985,6.178036437475791 L0.8241837778959045,6.182321183364364 L0.7563320021578785,6.191375339773197 L0.6895216949278558,6.20515873267361 L0.6240492989750611,6.2236102040298125 L0.560205320647523,6.246647883162086 L0.49827304087177055,6.274169550013651 L0.4385272582123161,6.306053088709375 " />
			<path d="M0.4385272582123122,6.306053088709377 L0.39606155228803086,6.3322533672536485 L0.35502922871874176,6.360681969811018 L0.3155291379659312,6.391270409387873 L0.27765643920802185,6.423944995754043 L0.24150237109357808,6.458627012969017 L0.20715403193940995,6.495232909015535 L0.17469416990309883,6.533674497083727 L0.1442009836354382,6.5738591680208485 L0.11574793389303506,6.615690113434852 L0.08940356656491144,6.659066558914276 L0.0652313475394547,6.703884006802633 L0.04328950980953372,6.750034487942415 L0.023630913184117697,6.797406821782252 L0.006302916944367132,6.845886884220598 L-0.008652734249023575,6.8953578825406865 L-0.021200010922368895,6.945700636774416 L-0.031308685587151164,6.996793866817334 L-0.03895440556068719,7.048514484603028 L-0.044118751633875464,7.100737890633061 L-0.046789282444681835,7.153338274148076 L-0.04695956445047256,7.206188916216939 L-0.044629187426980854,7.259162495013733 L-0.039803765456572826,7.312131392547201 L-0.03249492340343241,7.364968002103656 L-0.022720268908244412,7.417545035662737 L-0.010503349969846587,7.469735830545397 L0.00412640178396273,7.521414654555388 L0.02113374199979412,7.572457008879141 L0.040477698505400395,7.622739928014308 L0.06211167001522855,7.672142276004426 L0.08598353839699957,7.720545038266056 L0.11203579422885335,7.767831608305325 L0.1402056753445824,7.813888068633197 L0.17042531803318928,7.858603465202671 L0.20262192052850858,7.901870074706805 L0.23671791839504075,7.943583664093597 L0.27263117138746773,7.983643741672536 L0.3102751613337009,8.021953799207884 L0.3495592005647362,8.058421544415474 L0.3903886503891906,8.092959123302903 L0.43266514908619935,8.125483331817499 L0.476286848867418,8.155915816292163 L0.5211486612372636,8.184183262206227 L0.5671425101603061,8.210217570806549 L0.6141575924259052,8.233956023163373 L0.662080644582848,8.255341431265729 L0.7107962158009244,8.274322275792358 L0.7601869460020917,8.29085283022627 L0.8101338485911767,8.304893271013926 L0.8605165971050096,8.316409773503674 L0.9112138150894138,8.325374593432288 L0.9621033685057133,8.331766133763335 L1.0130626599623296,8.335568996716324 L1.0639689240626369,8.336774020861313 L1.1146995231575556,8.335378303189584 L1.1651322427903903,8.331385206107264 L1.2151455861221612,8.324804349334974 L1.2646190666281298,8.315651586733093 L1.313433498360393,8.303948968108422 L1.3614712830772688,8.28972468609425 L1.4086166935477609,8.273013008231851 L1.4547561523485943,8.253854194416967 L1.4997785054821795,8.232294399910192 L1.5435752901563178,8.20838556414491 " />
			<path d="M1.5435752901563258,8.208385564144905 L1.5979064973671226,8.174293175907396 L1.649822087918058,8.136550330716563 L1.699115409282054,8.095307265798933 L1.7455902470017595,8.05072815117548 L1.7890616057307214,8.002990436174898 L1.8293564456163338,7.952284143087926 L1.866314371093369,7.898811110774417 L1.8997882693463048,7.8427841912339495 L1.929644895899027,7.784426402338123 L1.9557654050009308,7.723970040097094 L1.9780458226981952,7.661655753994045 L1.9963974607071544,7.597731589068232 L2.0107472694423114,7.532451998559676 L2.021038128793757,7.466076831045694 L2.0272290754965425,7.39887029610103 L2.0292954661869382,7.331099912598824 " />
			<path d="M0.7550866850928131,34.94935521173311 L5.7103430560144055,32.070890815433884 " />
			<path d="M5.7103430560144055,29.133548738301265 L5.7103430560144055,32.070890815433884 " />
			<path d="M5.7103430560144055,29.13354873830127 L6.701394330198724,28.55785585904142 " />
			<path d="M6.701394330198724,8.975575344823952 L6.701394330198724,28.557855859041418 " />
			<path d="M-2.73718923346145,8.303933652354132 L6.701394330198725,8.975575344823952 " />
			<path d="M-8.683496878567361,34.277713519263294 L-7.739638522201245,34.34487768851028 " />
			<path d="M-7.739638522201245,34.34487768851028 L-0.18877167127338676,34.88219104248612 " />
			<path d="M-0.18877167127338676,34.88219104248612 L0.7550866850928144,34.94935521173311 " />
			<path d="M-3.7282405076457685,31.39924912296407 L5.710343056014406,32.07089081543389 " />
			<path d="M-3.7282405076457685,28.46190704583145 L5.710343056014406,29.13354873830127 " />
			<path d="M-2.73718923346145,27.8862141665716 L6.701394330198725,28.55785585904142 " />
			<path d="M-2.443783571048834,36.57536806634254 L-2.5315248098524052,36.624960694909305 L-2.6204191347136354,36.67247284043059 L-2.7104242543127075,36.71788189908614 L-2.8014973488711434,36.761166267595584 L-2.893595090523247,36.802305353496195 L-2.9866736639292597,36.8412795849397 L-3.08068878712042,36.87807042000355 L-3.175595732566049,36.9126603555122 L-3.2713493484525853,36.94503293536425 L-3.3679040801644837,36.97517275836136 L-3.4652139919567455,37.00306548553537 L-3.563232788808764,37.02869784697005 L-3.661913838449105,37.05205764811418 L-3.7612101935407303,37.07313377558318 L-3.861074614016101,37.09191620244621 L-3.961459589551569,37.108395992996485 L-4.062317362170323,37.12256530700243 L-4.163599948963167,37.13441740343765 L-4.265259164916304,37.14394664368796 L-4.367246645835266,37.15114849423396 L-4.469513871354106,37.156019528807825 L-4.572012188018874,37.15855743002336 L-4.6746928324344035,37.15876099047849 L-4.7775069544634245,37.1566301133297 L-4.880405640466925,37.152165812338055 L-4.98333993657473,37.14537021138696 L-5.086260871975216,37.136246543471714 L-5.189119482213096,37.124799149161376 L-5.291866832484171,37.11103347453381 L-5.394454040915975,37.09495606858468 L-5.496832301823244,37.07657458011178 L-5.598952908927129,37.05589775407617 L-5.700767278527134,37.03293542744172 L-5.802226972614721,37.007698524495225 L-5.9032837219175995,36.980199051649194 L-6.003889448863767,36.950450091729806 L-6.103996290454311,36.9184657977528 L-6.2035566210341635,36.88426138619019 L-6.302523074949909,36.84785312973102 L-6.400848569083922,36.809258349539746 L-6.498486325254074,36.768495407015635 L-6.595389892468363,36.725583695057416 L-6.691513169023914,36.680543628837114 L-6.786810424439766,36.633396636087575 L-6.881236321213068,36.58416514690827 L-6.974745936388324,36.53287258309421 L-7.067294782929409,36.479543346993054 L-7.158838830884193,36.42420280989575 L-7.249334528331728,36.366877299966184 L-7.338738822101986,36.30759408971559 L-7.427009178258331,36.24638138302773 L-7.514103602332963,36.18326830174091 L-7.5999806593057215,36.11828487179334 L-7.684599493316715,36.051462008938344 L-7.767919847103433,35.98283150403623 L-7.849902081153065,35.912426007929845 L-7.930507192560926,35.84027901591103 L-8.009696833586016,35.76642485178524 L-8.08743332989491,35.6908986515421 L-8.163679698485241,35.61373634663946 L-8.2383996652803,35.534974646909156 L-8.311557682386361,35.45465102309228 L-8.383118945004544,35.372803689012606 L-8.453049407989122,35.289471583396384 L-8.521315802044448,35.20469435134735 L-8.58788564955277,35.11851232548559 L-8.65272728002538,35.03096650675942 L-8.715809845169812,34.94209854493922 L-8.77710333356586,34.85195071880264 L-8.836578584943453,34.76056591602053 L-8.894207304055609,34.667987612753244 L-8.949962074139851,34.57425985296688 L-9.003816369961672,34.47942722747949 L-9.05574457043388,34.38353485274705 L-9.105721970805778,34.286628349399365 L-9.153724794416421,34.18875382053619 L-9.199730204006297,34.08995782979372 L-9.243716312582134,33.99028737919201 L-9.285662193829587,33.88978988677389 L-9.325547892068906,33.78851316404588 L-9.363354431748803,33.68650539323196 L-9.399063826474046,33.58381510435096 L-9.432659087562454,33.480491152128494 L-9.464124232127231,33.37658269275439 L-9.493444290680795,33.27213916049674 L-9.520605314256496,33.167210244183636 L-9.545594381044793,33.061845863563775 L-9.5683996025408,32.95609614555725 L-9.589010129200215,32.850011400407716 L-9.607416155600976,32.74364209774744 L-9.623608925108162,32.6370388425864 L-9.637580734039954,32.53025235123708 L-9.649324935332654,32.42333342718627 L-9.658835941703007,32.31633293692538 L-9.666109228306338,32.20930178575078 L-9.67114133488925,32.10229089354574 L-9.67392986743582,31.995351170555367 L-9.674473499306565,31.88853349316612 L-9.672771971869565,31.78188867970148 L-9.66882609462353,31.675467466245223 L-9.662637744812669,31.569320482503805 L-9.654209866533597,31.463498227719388 L-9.643546469334687,31.35805104664488 L-9.630652626308539,31.25302910559255 L-9.615534471678453,31.148482368567443 L-9.598199197880094,31.044460573497133 L-9.578655052139698,30.941013208568975 L-9.556911332550477,30.838189488686183 L-9.532978383649048,30.736038332053937 L-9.50686759149406,30.63460833690662 L-9.478591378249288,30.533947758387296 L-9.448163196273798,30.43410448559041 L-9.415597521722031,30.33512601877864 L-9.38090984765679,30.237059446784738 L-9.344116676678432,30.139951424609066 L-9.305235513073802,30.0438481512236 L-9.264284854488583,29.94879534759283 L-9.22128418312709,29.854838234922095 L-9.176253956483631,29.762021513143672 L-9.129215597609896,29.67038933965087 L-9.080191484922977,29.579985308290205 L-9.029204941558872,29.490852428621718 L-8.97628022427655,29.403033105457272 L-8.921442511917842,29.316569118686502 L-8.864717893428635,29.231501603400122 L-8.806133355447122,29.147871030319983 L-8.745716769464941,29.06571718654518 L-8.683496878567391,28.985079156623456 " />
			<path d="M-0.18877167127332894,34.8821910424863 L-0.2545500679875907,34.966354656987434 L-0.3222709132481971,35.048795477573606 L-0.3918987470847721,35.129470336604996 L-0.4633971109901016,35.20833699113409 L-0.5367285670105333,35.28535414502493 L-0.611854717349225,35.36048147057658 L-0.688736224471989,35.433679629639464 L-0.7673328317052008,35.50491029421367 L-0.8476033843149882,35.574136166518194 L-0.9295058510566592,35.64132099852081 L-1.0129973461830954,35.706429610918256 L-1.098034151900571,35.769427911556804 L-1.1845717412602528,35.8302829132836 L-1.27256480147339,35.88896275121935 L-1.3619672576379842,35.94543669944346 L-1.4527322968644976,35.99967518708268 " />
			<path d="M-1.4527322968645153,35.999675187082694 L-1.5463276983588492,36.052480163524365 L-1.6412308605738013,36.1029181310395 L-1.737390453103664,36.15096180917426 L-1.8347544659755108,36.196585212477444 L-1.933270237779912,36.239763664555284 L-2.0328844841539757,36.28047381141818 L-2.133543326601333,36.31869363411222 L-2.2351923216334826,36.354402460628606 L-2.3377764902167146,36.387580977084525 L-2.4412403475086983,36.41821123816952 L-2.5455279328686395,36.44627667685156 L-2.6505828401247955,36.47176211333767 L-2.7563482480829626,36.49465376328428 L-2.8627669512594327,36.51493924525276 L-2.9697813908217965,36.53260758740619 L-3.0773336857208755,36.5476492334437 L-3.1853656639969294,36.56005604776922 L-3.2938188942432,36.56982131989179 L-3.4026347172097853,36.57693976805504 L-3.511754277530752,36.581407542094 L-3.621118555557325,36.58322222551749 L-3.730668399279924,36.58238283681516 L-3.8403445563217833,36.57888982998834 L-3.9500877059868813,36.57274509430451 L-4.059838491344803,36.56395195327543 L-4.169537551335209,36.55251516285954 L-4.279125552874523,36.53844090888964 L-4.388543222947512,36.521736803727094 L-4.497731380666364,36.502411882144564 L-4.606630969279933,36.480476596439324 L-4.715183088115844,36.455942810779966 L-4.823329024438184,36.428823794789345 L-4.93101028520355,36.39913421636746 L-5.038168628698253,36.366890133758005 L-5.144746096039592,36.332108986862906 L-5.2506850425241645,36.2948095878096 L-5.355928168806236,36.25501211077607 L-5.460418551889319,36.212738081079216 L-5.5640996759141785,36.16801036353245 L-5.666915462726664,36.120853150078744 L-5.768810302208766,36.07129194670589 L-5.869729082356545,36.0193535596511 L-5.969617219088638,35.9650660809022 L-6.068420685769212,35.908458873003546 L-6.166086042429447,35.849562553174614 L-6.262560464671677,35.788408976750056 L-6.357791772240589,35.72503121995005 L-6.451728457246044,35.659463561990286 L-6.54431971202221,35.59174146654139 L-6.635515456607985,35.521901562547576 L-6.725266365833807,35.449981624415116 L-6.813523896000223,35.37602055158125 L-6.900240311133806,35.3000583474746 L-6.985368708806163,35.22213609787843 L-7.068863045502114,35.14229594870858 L-7.150678161523324,35.06058108321786 L-7.230769805413887,34.977035698639554 L-7.309094657894667,34.89170498228232 L-7.385610355293471,34.80463508708972 L-7.460275512458324,34.71587310667742 L-7.5330497451415415,34.62546704986155 L-7.603893691842396,34.53346581469214 L-7.67276903509663,34.43991916200558 L-7.7396385222012505,34.34487768851041 " />
			<path d="M7.018585993878938,9.800666077661214 L6.701394330198724,9.984919896709654 " />
			<path d="M-5.036483445510301,-10.952051836180905 L-6.02753471969462,-10.37635895692106 " />
			<path d="M-1.4527322968645158,35.99967518708269 L-2.4437835710488343,36.575368066342534 " />

       </g>
    </g>
    <g transform="translate(20,210.0)" stroke="rgb(0,0,255)">
        <line x1="30" y1="-30" x2="75" y2="-33" stroke-width="3" stroke="#000000" />
         <text x="80" y="-30" style="stroke:#000000">X </text>

        <line x1="30" y1="-30" x2="30" y2="-75" stroke-width="3" stroke="#000000" />
         <text x="25" y="-85" style="stroke:#000000">Y </text>

        <line x1="30" y1="-30" x2="58" y2="-15" stroke-width="3" stroke="#000000" />
         <text x="65" y="-5" style="stroke:#000000">Z </text>
        <!--
            <line x1="0" y1="0" x2="3.6355093159142564" y2="0" stroke-width="3" />
            <text x="0" y="20" style="stroke:#000000">1  mm </text>
        -->
    </g>
</svg>
