<?xml version="1.0" encoding="UTF-8" standalone="no"?>
<svg
   xmlns:svg="http://www.w3.org/2000/svg"
   xmlns="http://www.w3.org/2000/svg"
   width="800.0"
   height="240.0"

>
    <g transform="scale(2.6677012512038663, -2.6677012512038663)   translate(119.09629175463208,-35.95681775043784)" stroke-width="0.37485456797260386"  fill="none">
       <!-- hidden lines -->
       <g  stroke="rgb(160,160,160)" fill="none" stroke-dasharray="0.37485456797260386,0.37485456797260386" >
			<path d="M-24.304352676424944,-38.05460771198319 L55.923607614686546,-32.34565332598972 " />
			<path d="M37.754334254640696,-21.791283872892556 L55.92360761468653,-32.34565332598972 " />
			<path d="M14.86576911276478,-23.420014977131867 L37.7543342546407,-21.791283872892553 " />
			<path d="M14.865769112764776,-23.420014977131867 L13.214016989124245,-22.460526845032124 " />
			<path d="M13.214016989124254,-22.460526845032124 L40.82187391283026,-20.4959748945579 " />
			<path d="M40.821873912830256,-20.495974894557904 L62.29465152015716,-32.969320611854556 " />
			<path d="M55.92360761468653,-32.34565332598972 L55.92360761468653,16.610047959553945 " />
			<path d="M26.282750168672372,-16.42641220203398 L26.261315706176774,-16.362879276525803 L26.237150136311932,-16.30057894976191 L26.21030000408378,-16.239631217632947 L26.180817025200692,-16.180153470813725 L26.148757986464503,-16.12226026865848 L26.114184636394132,-16.066063118549533 L26.077163566292548,-16.011670261124276 L26.037766081986064,-15.959186461794237 L25.996068066483065,-15.908712808957695 L25.952149833816698,-15.860346519294573 L25.90609597435298,-15.814180750518593 L25.85799519186236,-15.770304421947346 L25.807940132668467,-15.728802043235893 L25.756027207203175,-15.689753551603765 L25.70235640431166,-15.653234157868868 L25.647031098665124,-15.619314201584858 " />
			<path d="M25.64703109866512,-15.619314201584855 L25.583326684593636,-15.584537713198984 L25.517839625490236,-15.553178012098218 L25.450727685416297,-15.525310646549297 L25.382152542913765,-15.501002751476717 L25.3122794015074,-15.480312886728832 L25.241276591715017,-15.463290896002034 L25.16931516552452,-15.449977786762938 L25.09656848431467,-15.44040563145779 L25.023211801212366,-15.434597490247139 L24.949421838892484,-15.432567355451898 L24.87537636383749,-15.434320117844607 L24.80125375808241,-15.439851554867138 L24.727232589476884,-15.449148340803207 L24.653491181499568,-15.46218807888119 L24.580207183661265,-15.478939355229915 L24.507557143531688,-15.499361814557416 L24.4357160814209,-15.523406257370377 L24.36485706874006,-15.55101475850002 L24.295150811057237,-15.5821208066489 L24.226765236852728,-15.616649464622462 L24.159865092964665,-15.654517549859294 L24.094611547699436,-15.695633834825205 L24.03116180256312,-15.739899266788356 L23.96966871354929,-15.787207206445949 L23.910280422895536,-15.837443684827665 L23.853140002195847,-15.890487677856886 L23.7983851077286,-15.9462113979083 L23.746147648830522,-16.004480601659484 L23.696553470115568,-16.06515491349482 L23.649722048304195,-16.128088163682648 L23.605766204393493,-16.193128740510975 L23.564791831861523,-16.260119955533334 L23.526897641560645,-16.328900421045 L23.492174923914433,-16.399304438880094 L23.460707328991045,-16.471162399592995 L23.432570664982894,-16.544301191062328 L23.407832715578046,-16.618544615533242 L23.386553076663414,-16.69371381409323 L23.368783012753017,-16.769627697558917 L23.35456533348729,-16.846103382735762 L23.343934290500904,-16.922956632999696 L23.336915494907583,-17.000002302139286 L23.333525855600687,-17.07705478038917 L23.3337735385182,-17.15392844158024 L23.337657946970282,-17.230438090329354 L23.345169723076737,-17.306399408191222 L23.35629077031097,-17.381629397697683 L23.37099429709611,-17.455946823214656 L23.389244881348247,-17.529172647554628 L23.41099855581136,-17.60113046329294 L23.43620291397827,-17.671646917748713 L23.464797236342513,-17.74055213060666 L23.496712636676943,-17.807680103173613 L23.5318722279867,-17.87286911828395 L23.570191307736696,-17.935962129890385 L23.611577561907463,-17.996807141401664 L23.6559312873877,-18.05525757185566 L23.703145632167786,-18.111172609045756 L23.753106852755668,-18.164417548749782 L23.80569458819486,-18.21486411924429 L23.860782150024548,-18.262390790322357 L23.91823682748318,-18.306883066070508 L23.977920207220325,-18.348233760699408 L24.039688506746543,-18.386343256763798 " />
			<path d="M24.039688506746554,-18.386343256763805 L24.096561753759588,-18.417598442787682 L24.15487339927981,-18.446128658323282 L24.214511129966308,-18.47187895167451 L24.275360078321885,-18.49479972551907 L24.337303043937936,-18.51484683243729 L24.40022071923272,-18.531981659943895 L24.4639919192482,-18.546171204859064 L24.52849381506292,-18.557388136875414 L24.59360217037124,-18.5656108511986 L24.6591915807734,-18.57082351016002 L24.725135715315332,-18.573016073721583 L24.791307559813195,-18.57218431881365 L24.857579661493816,-18.5683298474691 L24.92382437447988,-18.56146008373762 L24.989914105647124,-18.55158825938637 L25.055721560379833,-18.53873338841442 " />
			<path d="M-9.29700481020527,-35.12638077210552 L-10.948756933845797,-35.24391806828773 " />
			<path d="M-10.9487569338458,-35.24391806828773 L-10.9487569338458,-14.554393599147296 " />
			<path d="M-10.948756933845807,-10.698374549585829 L-10.98189047574348,-10.940207053393799 L-11.010630457525945,-11.182336917931815 L-11.034966496541239,-11.424676670976297 L-11.054889801112843,-11.667138764478993 L-11.070393173715756,-11.909635606194762 L-11.08147101357671,-12.152079591325249 L-11.088119318697485,-12.394383134167164 L-11.090335687300703,-12.636458699753618 L-11.088119318697483,-12.878218835477158 L-11.081471013576708,-13.119576202683023 L-11.070393173715756,-13.360443608221257 L-11.054889801112841,-13.600734035946243 L-11.034966496541237,-13.84036067815229 L-11.010630457525941,-14.079236966933937 L-10.981890475743478,-14.317276605459602 L-10.948756933845821,-14.554393599147193 " />
			<path d="M-10.9487569338458,-10.698374549585829 L-10.9487569338458,9.991149919554623 " />
			<path d="M13.308402824760854,11.717269069202052 L-10.948756933845797,9.991149919554616 " />
			<path d="M13.30840282476085,10.64024364092009 L13.30840282476085,11.717269069202054 " />
			<path d="M26.282750168672372,-2.579648859333614 L26.261315706176774,-2.5161159338254357 L26.237150136311932,-2.4538156070615433 L26.21030000408378,-2.392867874932581 L26.180817025200692,-2.3333901281133578 L26.1487579864645,-2.2754969259581137 L26.114184636394132,-2.219299775849166 L26.077163566292548,-2.1649069184239114 L26.037766081986064,-2.112423119093871 L25.996068066483065,-2.0619494662573286 L25.952149833816698,-2.0135831765942083 L25.90609597435298,-1.9674174078182292 L25.857995191862358,-1.9235410792469816 L25.807940132668467,-1.8820387005355284 L25.756027207203175,-1.8429902089034005 L25.70235640431166,-1.8064708151685034 L25.647031098665124,-1.772550858884493 " />
			<path d="M25.64703109866512,-1.7725508588844896 L25.583326684593636,-1.737774370498619 L25.517839625490236,-1.706414669397854 L25.450727685416297,-1.6785473038489318 L25.382152542913765,-1.6542394087763528 L25.3122794015074,-1.633549544028467 L25.241276591715017,-1.61652755330167 L25.16931516552452,-1.6032144440625733 L25.09656848431467,-1.5936422887574238 L25.023211801212366,-1.5878341475467743 L24.949421838892484,-1.5858040127515338 L24.87537636383749,-1.5875567751442428 L24.80125375808241,-1.5930882121667738 L24.727232589476884,-1.6023849981028424 L24.653491181499568,-1.615424736180827 L24.580207183661265,-1.6321760125295508 L24.507557143531688,-1.6525984718570514 L24.4357160814209,-1.676642914670013 L24.36485706874006,-1.7042514157996551 L24.295150811057237,-1.735357463948536 L24.226765236852728,-1.7698861219220978 L24.159865092964665,-1.807754207158929 L24.094611547699436,-1.8488704921248411 L24.03116180256312,-1.8931359240879906 L23.96966871354929,-1.940443863745584 L23.910280422895536,-1.9906803421273 L23.853140002195847,-2.0437243351565213 L23.7983851077286,-2.0994480552079358 L23.746147648830522,-2.1577172589591185 L23.696553470115568,-2.218391570794453 L23.649722048304195,-2.2813248209822845 L23.605766204393493,-2.3463653978106103 L23.564791831861523,-2.4133566128329687 L23.526897641560645,-2.4821370783446337 L23.492174923914433,-2.5525410961797306 L23.460707328991045,-2.6243990568926305 L23.432570664982894,-2.697537848361964 L23.407832715578046,-2.7717812728328775 L23.386553076663414,-2.846950471392865 L23.368783012753017,-2.922864354858551 L23.35456533348729,-2.999340040035397 L23.343934290500904,-3.076193290299332 L23.336915494907583,-3.1532389594389216 L23.333525855600687,-3.230291437688804 L23.3337735385182,-3.3071650988798758 L23.337657946970282,-3.3836747476289903 L23.345169723076737,-3.4596360654908564 L23.35629077031097,-3.53486605499732 L23.37099429709611,-3.609183480514292 L23.389244881348247,-3.6824093048542634 L23.41099855581136,-3.754367120592573 L23.43620291397827,-3.8248835750483483 L23.464797236342513,-3.8937887879062933 L23.496712636676943,-3.9609167604732494 L23.5318722279867,-4.026105775583587 L23.570191307736696,-4.089198787190021 L23.611577561907463,-4.150043798701299 L23.6559312873877,-4.208494229155294 L23.703145632167786,-4.26440926634539 L23.753106852755668,-4.317654206049418 L23.80569458819486,-4.368100776543924 L23.860782150024548,-4.415627447621991 L23.91823682748318,-4.460119723370144 L23.977920207220325,-4.501470417999045 L24.039688506746543,-4.539579914063433 " />
			<path d="M24.039688506746554,-4.539579914063439 L24.096561753759588,-4.570835100087316 L24.15487339927981,-4.599365315622918 L24.214511129966308,-4.625115608974142 L24.275360078321885,-4.648036382818704 L24.337303043937936,-4.668083489736924 L24.40022071923272,-4.685218317243532 L24.4639919192482,-4.699407862158698 L24.52849381506292,-4.7106247941750485 L24.59360217037124,-4.718847508498234 L24.6591915807734,-4.724060167459658 L24.725135715315332,-4.7262527310212175 L24.791307559813195,-4.725420976113288 L24.857579661493816,-4.721566504768736 L24.92382437447988,-4.7146967410372564 L24.989914105647124,-4.704824916686006 L25.055721560379833,-4.691970045714058 " />
			<path d="M37.7543342546407,15.317137701549544 L38.084684679368806,15.125240075129597 " />
			<path d="M38.084684679368806,15.1252400751296 L38.084684679368806,-10.135901788210937 " />
			<path d="M37.7543342546407,-9.944004161790987 L38.084684679368806,-10.135901788210935 " />
			<path d="M37.754334254640696,-21.791283872892556 L37.754334254640696,-9.94400416179099 " />
			<path d="M49.613914502379714,-4.2025580185968705 L49.616179477789586,-4.323937258491514 L49.62294616891314,-4.44643479710897 L49.63413022240999,-4.568523584317727 L49.64959221825133,-4.688681665467372 L49.66913940772523,-4.805411154023265 L49.6925281162355,-4.917256904168907 L49.71946678094089,-5.022824650603981 L49.749619585367476,-5.120798389407948 L49.7826106456854,-5.209956783299964 L49.81802869646381,-5.289188386787695 L49.8554322174917,-5.3575055014088635 L49.89435493775375,-5.414056488346524 L49.914234945362075,-5.43769340025116 L49.93431164794889,-5.4581363849294675 L49.95452242781712,-5.475321682278579 L49.974804249092884,-5.489195692672798 L49.99509385432963,-5.499715144136733 L50.01532796180321,-5.506847227307269 L50.03544346288275,-5.510569697763455 L50.05537761886165,-5.5108709454051565 " />
			<path d="M50.05537761886165,-5.5108709454051565 L50.07269761030992,-5.508310120749761 L50.08978778048584,-5.503112152919225 L50.10660695767252,-5.49528956427334 L50.12311462299892,-5.484861200113331 L50.13927100805339,-5.471852183281878 L50.15503719068919,-5.456293853639982 L50.18524805177913,-5.417685232662216 L50.21345625916152,-5.369407159305668 L50.23939015237908,-5.311924577808242 L50.262799973863224,-5.245791076852932 L50.28346027423595,-5.171643558206187 L50.3011720835106,-5.090196103005732 L50.3157648272816,-5.002233094768856 L50.32709796944922,-4.908601665350353 L50.33506236565907,-4.810203536599666 L50.33958131442187,-4.707986336286554 L50.340611295790715,-4.602934471927638 L50.33814239048199,-4.496059650403884 L50.33219837540345,-4.3883911346702895 L50.32283649466963,-4.280965831390963 L50.310146908309726,-4.17481830496113 L50.29425182397721,-4.070970814086451 L50.27530432002336,-3.970423466872861 L50.25348687126899,-3.8741445892387993 L50.22900959167224,-3.783061399407269 L50.20210821081628,-3.6980510782874845 L50.17304180370452,-3.619932321743197 L50.14209029572679,-3.549457456103985 L50.109551766824715,-3.4873051928514354 L50.07573958081899,-3.4340740922565525 L50.04097936754447,-3.3902767989171445 L50.00560588685687,-3.356335104710106 L49.98779548809629,-3.3431660564475942 L49.9699598047123,-3.332575886705068 L49.95214180442841,-3.3245901081290254 L49.93438441236796,-3.3192279591595284 L49.9167304076438,-3.316502357683114 L49.89922232029961,-3.3164198699124716 " />
			<path d="M49.89922232029961,-3.3164198699124716 L49.8694989459838,-3.3224827621920303 L49.84054739653585,-3.336358070685663 L49.812574956869014,-3.3579464521052715 L49.78578190174721,-3.387093339740073 L49.76036006187424,-3.423590050110576 L49.73649145044021,-3.467175277083324 L49.71434695995848,-3.5175369627489754 L49.69408513872359,-3.574314531668756 L49.67585105565023,-3.637101472492716 L49.659775261620844,-3.7054482484661255 L49.64597285477818,-3.7788655159856157 L49.63454265645512,-3.8568276281611054 L49.625566503641835,-3.938776398299003 L49.61910866305612,-4.0241250963612085 L49.615215371011764,-4.112262649786393 L49.613914502379714,-4.202558018596868 " />
			<path d="M54.89952129802941,-7.272920041316046 L54.901786273439285,-7.39429928121069 L54.90855296456284,-7.516796819828145 L54.91973701805969,-7.638885607036903 L54.93519901390103,-7.759043688186547 L54.95474620337493,-7.87577317674244 L54.9781349118852,-7.987618926888082 L55.00507357659059,-8.093186673323157 L55.035226381017175,-8.191160412127124 L55.0682174413351,-8.280318806019139 L55.10363549211351,-8.359550409506872 L55.1410390131414,-8.42786752412804 L55.179961733403445,-8.484418511065698 L55.199841741011774,-8.508055422970335 L55.21991844359859,-8.528498407648643 L55.240129223466816,-8.545683704997753 L55.26041104474258,-8.559557715391973 L55.28070064997933,-8.570077166855908 L55.30093475745291,-8.577209250026444 L55.32105025853245,-8.580931720482631 L55.34098441451135,-8.581232968124333 " />
			<path d="M55.34098441451135,-8.581232968124333 L55.35830440595962,-8.578672143468935 L55.37539457613554,-8.5734741756384 L55.39221375332222,-8.565651586992514 L55.40872141864862,-8.555223222832506 L55.42487780370309,-8.542214206001054 L55.44064398633889,-8.526655876359158 L55.47085484742883,-8.488047255381392 L55.49906305481122,-8.439769182024843 L55.52499694802878,-8.382286600527417 L55.54840676951292,-8.316153099572107 L55.56906706988565,-8.242005580925362 L55.5867788791603,-8.160558125724908 L55.601371622931296,-8.072595117488031 L55.61270476509892,-7.978963688069528 L55.62066916130877,-7.880565559318841 L55.62518811007157,-7.778348359005729 L55.626218091440414,-7.673296494646813 L55.62374918613169,-7.56642167312306 L55.61780517105315,-7.458753157389465 L55.60844329031933,-7.351327854110139 L55.595753703959424,-7.2451803276803055 L55.57985861962691,-7.141332836805626 L55.56091111567306,-7.040785489592037 L55.53909366691869,-6.944506611957975 L55.51461638732194,-6.853423422126444 L55.487715006465976,-6.76841310100666 L55.45864859935422,-6.690294344462372 L55.42769709137649,-6.61981947882316 L55.395158562474414,-6.557667215570611 L55.36134637646869,-6.504436114975728 L55.32658616319417,-6.460638821636319 L55.29121268250657,-6.426697127429281 L55.27340228374599,-6.4135280791667695 L55.255566600362,-6.402937909424243 L55.237748600078106,-6.394952130848201 L55.21999120801766,-6.389589981878704 L55.202337203293496,-6.386864380402289 L55.184829115949306,-6.386781892631647 " />
			<path d="M55.184829115949306,-6.386781892631647 L55.1551057416335,-6.392844784911206 L55.126154192185545,-6.406720093404838 L55.09818175251871,-6.428308474824447 L55.071388697396905,-6.457455362459248 L55.045966857523936,-6.493952072829751 L55.02209824608991,-6.5375372998025 L54.99995375560818,-6.587898985468151 L54.979691934373285,-6.644676554387932 L54.961457851299926,-6.707463495211892 L54.94538205727054,-6.775810271185301 L54.93157965042788,-6.849227538704791 L54.920149452104816,-6.927189650880281 L54.911173299291534,-7.009138421018179 L54.904715458705816,-7.094487119080384 L54.90082216666146,-7.182624672505568 L54.89952129802941,-7.272920041316043 " />
			<path d="M14.865769112764776,-23.420014977131867 L14.865769112764776,-11.572735266030298 " />
			<path d="M37.7543342546407,-9.944004161790987 L14.86576911276478,-11.5727352660303 " />
			<path d="M14.865769112764776,-11.572735266030302 L13.44923553121311,-10.749883495012778 " />
			<path d="M13.214016989124245,-22.460526845032124 L13.214016989124245,-11.536411786743667 " />
			<path d="M40.821873912830256,-20.495974894557904 L40.821873912830256,28.459726390985765 " />
			<path d="M36.48012547354658,-8.957650361992451 L13.446713941114574,-10.596688613935132 " />
			<path d="M36.48012547354658,-8.95765036199245 L36.48012547354658,16.303491501348084 " />
			<path d="M36.48012547354658,16.30349150134808 L13.21401698912425,14.647894729409975 " />
			<path d="M13.214016989124245,14.647894729409973 L13.214016989124245,25.572009787698438 " />
			<path d="M54.333206284209794,-3.866737172361961 L54.335471259619666,-3.9881164122566046 L54.34223795074322,-4.11061395087406 L54.35342200424007,-4.232702738082818 L54.36888400008141,-4.352860819232462 L54.38843118955531,-4.469590307788355 L54.41181989806558,-4.581436057933997 L54.43875856277097,-4.687003804369072 L54.468911367197556,-4.784977543173039 L54.50190242751548,-4.874135937065054 L54.53732047829389,-4.953367540552786 L54.57472399932178,-5.021684655173954 L54.613646719583826,-5.078235642111614 L54.633526727192155,-5.10187255401625 L54.65360342977897,-5.122315538694558 L54.6738142096472,-5.139500836043669 L54.694096030922964,-5.153374846437888 L54.71438563615971,-5.163894297901823 L54.73461974363329,-5.171026381072359 L54.75473524471283,-5.174748851528546 L54.77466940069173,-5.175050099170247 " />
			<path d="M54.77466940069173,-5.175050099170247 L54.79198939214,-5.172489274514851 L54.80907956231592,-5.167291306684315 L54.8258987395026,-5.15946871803843 L54.842406404829,-5.149040353878421 L54.85856278988347,-5.136031337046968 L54.87432897251927,-5.120473007405073 L54.90453983360921,-5.0818643864273065 L54.9327480409916,-5.033586313070758 L54.95868193420916,-4.976103731573332 L54.982091755693304,-4.909970230618022 L55.00275205606603,-4.835822711971277 L55.02046386534068,-4.754375256770822 L55.03505660911168,-4.6664122485339465 L55.0463897512793,-4.572780819115443 L55.05435414748915,-4.474382690364756 L55.05887309625195,-4.3721654900516445 L55.059903077620795,-4.267113625692728 L55.05743417231207,-4.160238804168975 L55.05149015723353,-4.05257028843538 L55.04212827649971,-3.9451449851560536 L55.029438690139806,-3.8389974587262206 L55.01354360580729,-3.735149967851541 L54.99459610185344,-3.6346026206379514 L54.97277865309907,-3.5383237430038896 L54.94830137350232,-3.4472405531723593 L54.92139999264636,-3.3622302320525748 L54.8923335855346,-3.284111475508287 L54.86138207755687,-3.2136366098690754 L54.828843548654795,-3.1514843466165257 L54.79503136264907,-3.0982532460216428 L54.76027114937455,-3.054455952682235 L54.72489766868695,-3.0205142584751963 L54.70708726992637,-3.0073452102126845 L54.68925158654238,-2.996755040470158 L54.67143358625849,-2.9887692618941157 L54.65367619419804,-2.9834071129246187 L54.63602218947388,-2.9806815114482044 L54.61851410212969,-2.980599023677562 " />
			<path d="M54.61851410212969,-2.980599023677562 L54.58879072781388,-2.9866619159571206 L54.55983917836593,-3.000537224450753 L54.531866738699094,-3.022125605870362 L54.50507368357729,-3.0512724935051634 L54.47965184370432,-3.0877692038756663 L54.45578323227029,-3.1313544308484142 L54.43363874178856,-3.1817161165140657 L54.41337692055367,-3.238493685433846 L54.39514283748031,-3.3012806262578063 L54.379067043450924,-3.369627402231216 L54.36526463660826,-3.443044669750706 L54.3538344382852,-3.5210067819261957 L54.344858285471915,-3.6029555520640932 L54.3384004448862,-3.688304250126299 L54.334507152841844,-3.7764418035514833 L54.333206284209794,-3.866737172361958 " />
			<path d="M59.61881307985949,-6.937099195081136 L59.621078055269365,-7.05847843497578 L59.62784474639292,-7.1809759735932355 L59.63902879988977,-7.303064760801993 L59.65449079573111,-7.423222841951637 L59.67403798520501,-7.53995233050753 L59.69742669371528,-7.6517980806531725 L59.72436535842067,-7.757365827088247 L59.754518162847255,-7.855339565892214 L59.78750922316518,-7.944497959784229 L59.82292727394359,-8.023729563271962 L59.86033079497148,-8.09204667789313 L59.899253515233525,-8.148597664830788 L59.919133522841854,-8.172234576735425 L59.93921022542867,-8.192677561413733 L59.959421005296896,-8.209862858762843 L59.97970282657266,-8.223736869157063 L59.99999243180941,-8.234256320620998 L60.02022653928299,-8.241388403791534 L60.04034204036253,-8.245110874247722 L60.06027619634143,-8.245412121889423 " />
			<path d="M60.06027619634143,-8.245412121889423 L60.0775961877897,-8.242851297234026 L60.09468635796562,-8.237653329403491 L60.1115055351523,-8.229830740757604 L60.1280132004787,-8.219402376597596 L60.14416958553317,-8.206393359766144 L60.15993576816897,-8.190835030124248 L60.19014662925891,-8.152226409146483 L60.218354836641296,-8.103948335789934 L60.24428872985886,-8.046465754292507 L60.267698551343,-7.980332253337197 L60.28835885171573,-7.906184734690452 L60.30607066099038,-7.824737279489997 L60.320663404761376,-7.736774271253122 L60.331996546929,-7.643142841834618 L60.33996094313885,-7.544744713083931 L60.34447989190165,-7.44252751277082 L60.345509873270494,-7.337475648411903 L60.34304096796177,-7.23060082688815 L60.33709695288323,-7.122932311154555 L60.32773507214941,-7.015507007875229 L60.315045485789504,-6.909359481445396 L60.29915040145699,-6.805511990570716 L60.28020289750314,-6.704964643357127 L60.25838544874877,-6.608685765723065 L60.233908169152016,-6.517602575891535 L60.207006788296056,-6.43259225477175 L60.1779403811843,-6.354473498227462 L60.14698887320657,-6.283998632588251 L60.114450344304494,-6.221846369335701 L60.08063815829877,-6.168615268740818 L60.04587794502425,-6.12481797540141 L60.01050446433665,-6.0908762811943715 L59.99269406557607,-6.07770723293186 L59.97485838219208,-6.067117063189333 L59.957040381908186,-6.059131284613291 L59.93928298984774,-6.053769135643794 L59.921628985123576,-6.05104353416738 L59.904120897779386,-6.050961046396737 " />
			<path d="M59.904120897779386,-6.050961046396737 L59.87439752346358,-6.057023938676296 L59.845445974015625,-6.070899247169928 L59.81747353434879,-6.092487628589537 L59.790680479226985,-6.121634516224338 L59.765258639354016,-6.158131226594842 L59.74139002791999,-6.20171645356759 L59.71924553743826,-6.252078139233241 L59.698983716203365,-6.308855708153022 L59.680749633130006,-6.371642648976982 L59.66467383910062,-6.439989424950391 L59.65087143225796,-6.513406692469881 L59.639441233934896,-6.591368804645371 L59.63046508112161,-6.673317574783269 L59.624007240535896,-6.758666272845474 L59.62011394849154,-6.8468038262706585 L59.61881307985949,-6.937099195081133 " />
			<path d="M-10.9487569338458,-35.24391806828773 L-9.29700481020527,-36.20340620038748 " />
			<path d="M-9.29700481020527,-15.513881731247073 L-10.9487569338458,-14.55439359914733 " />
			<path d="M-9.29700481020527,-11.65786268168553 L-10.9487569338458,-10.698374549585788 " />
			<path d="M-10.9487569338458,9.991149919554617 L-9.29700481020527,9.031661787454874 " />
			<path d="M13.308402824760849,11.717269069202052 L14.96015494840138,10.757780937102309 " />
			<path d="M37.7543342546407,15.317137701549544 L14.86576911276478,13.688406597310232 " />
			<path d="M13.449981578215748,14.510824996252866 L13.214016989124245,14.647894729409973 " />
			<path d="M36.48012547354657,16.30349150134808 L38.462228021915216,15.15210574282839 " />
			<path d="M38.084684679368806,15.125240075129598 L38.46222802191521,15.15210574282839 " />
			<path d="M38.46222802191521,-10.109036120512144 L38.46222802191521,15.15210574282839 " />
			<path d="M38.084684679368806,-10.135901788210935 L38.46222802191521,-10.109036120512144 " />
			<path d="M36.48012547354657,-8.957650361992453 L38.462228021915216,-10.109036120512144 " />
			<path d="M-24.304352676424944,-26.207328000881617 L-9.297004810205273,-25.139417709854605 " />
			<path d="M13.308402824760854,-23.530835856389388 L13.44998157821575,-23.52076123100234 " />
			<path d="M-44.12537816011131,-26.54075012678628 L11.798229454575223,-22.561273098902596 " />
			<path d="M13.44998157821575,-23.52076123100234 L11.79822945457522,-22.561273098902596 " />
			<path d="M13.44998157821575,13.587660343439758 L-9.81612690620658,11.932063571501653 " />
			<path d="M-9.81612690620658,-13.32907829183888 L-9.81612690620658,11.932063571501658 " />
			<path d="M13.44998157821575,-11.673481519900774 L13.426726103850134,-11.675136359957733 " />
			<path d="M-9.435315926558985,-13.301980101823764 L-9.81612690620658,-13.32907829183888 " />
			<path d="M13.449981578215748,-23.52076123100234 L13.449981578215748,-11.67348151990077 " />
			<path d="M11.798229454575218,14.547148475539501 L11.798229454575218,26.394428186641072 " />
			<path d="M11.79822945457522,14.547148475539501 L-11.467879029847111,12.891551703601396 " />
			<path d="M-11.467879029847111,-12.369590159739136 L-11.467879029847111,12.891551703601401 " />
			<path d="M-9.367223659594968,-12.220109284917614 L-11.467879029847111,-12.369590159739136 " />
			<path d="M11.798229454575218,-22.561273098902596 L11.798229454575218,-10.713993387801027 " />
			<path d="M13.449981578215748,-11.673481519900774 L13.42758592159371,-11.660472081964006 " />
			<path d="M13.449981578215748,13.587660343439758 L11.798229454575218,14.547148475539501 " />
			<path d="M-11.467879029847111,12.891551703601397 L-9.81612690620658,11.932063571501654 " />
			<path d="M-11.467879029847111,-12.369590159739136 L-9.81612690620658,-13.32907829183888 " />
			<path d="M27.29878322230565,-16.578802333684596 L25.64703109866512,-15.619314201584855 " />
			<path d="M25.691440630387085,-19.345831388863548 L24.039688506746554,-18.386343256763805 " />
			<path d="M27.29878322230565,-2.732038990984232 L25.64703109866512,-1.77255085888449 " />
			<path d="M25.691440630387085,-5.499068046163181 L24.039688506746554,-4.539579914063439 " />
			<path d="M54.618514102129694,-2.9805990236775624 L49.89922232029961,-3.316419869912472 " />
			<path d="M54.77466940069173,-5.175050099170247 L50.05537761886164,-5.5108709454051565 " />
			<path d="M59.90412089777939,-6.050961046396737 L55.184829115949306,-6.386781892631647 " />
			<path d="M60.06027619634143,-8.245412121889421 L55.34098441451134,-8.581232968124331 " />

       </g>

       <!-- solid lines -->
       <g  stroke="rgb(0,0,0)" fill="none">
			<path d="M-24.304352676424944,-38.05460771198319 L-22.652600552784413,-39.01409584408293 " />
			<path d="M-22.652600552784413,-39.01409584408293 L-22.652600552784413,9.941605441460737 " />
			<path d="M-24.304352676424944,10.901093573560482 L-22.652600552784413,9.941605441460739 " />
			<path d="M-24.304352676424944,-38.05460771198319 L-24.304352676424944,10.90109357356048 " />
			<path d="M-22.652600552784413,-39.01409584408293 L62.29465152015716,-32.969320611854556 " />
			<path d="M62.29465152015715,-32.969320611854556 L62.29465152015715,15.986380673689112 " />
			<path d="M-22.652600552784413,9.941605441460739 L62.29465152015716,15.986380673689116 " />
			<path d="M28.005285296531998,-17.8548541904789 L28.00193491547233,-17.959386989301667 L27.99189863820669,-18.06393278820476 L27.975220996513915,-18.168027708972048 L27.951975990447174,-18.271209873970356 L27.92226675998973,-18.37302145553814 L27.88622512741442,-18.473010707404036 L27.84401101237752,-18.57073396912186 L27.795811722342226,-18.665757634628076 L27.741841121480167,-18.757660076187197 L27.682338681738713,-18.84603351518835 L27.617568420284428,-18.930485831492145 L27.54781772803745,-19.010642303299655 L27.473396094494564,-19.086147269823503 L27.39463373449915,-19.156665709383734 L27.311880123051026,-19.22188472592626 L27.225502444657476,-19.28151493736811 L27.13588396410568,-19.335291759609287 L27.04342232588569,-19.382976580513933 L26.94852778980946,-19.4243578186518 L26.851621410654694,-19.459251862102267 L26.753133169910523,-19.487503883155384 L26.653500067914663,-19.508988525295 L26.553164184847358,-19.523610459415835 L26.452570719185633,-19.53130480680647 L26.352166012321465,-19.532037427021493 L26.252395568108675,-19.525805069365386 L26.15370207612609,-19.512635387316173 L26.056523447427875,-19.492586815824662 L25.961290871496537,-19.465748312033824 L25.86842690302012,-19.4322389605687 L25.77834358698266,-19.39220744514824 L25.691440630387092,-19.34583138886355 " />
			<path d="M25.691440630387085,-19.345831388863548 L25.62967233086086,-19.307721892799155 L25.56998895112371,-19.26637119817025 L25.512534273665075,-19.2218789224221 L25.45744671183539,-19.174352251344033 L25.4048589763962,-19.123905680849525 L25.35489775580832,-19.0706607411455 L25.30768341102823,-19.014745703955402 L25.263329685547998,-18.956295273501407 L25.221943431377227,-18.89545026199013 L25.18362435162723,-18.832357250383694 L25.148464760317474,-18.767168235273356 L25.116549359983043,-18.700040262706402 L25.0879550376188,-18.631135049848456 L25.06275067945189,-18.56061859539268 L25.04099700498878,-18.48866077965437 L25.02274642073664,-18.4154349553144 L25.008042893951504,-18.34111752979743 L24.996921846717267,-18.265887540290965 L24.989410070610813,-18.189926222429097 L24.98552566215873,-18.113416573679984 L24.985277979241218,-18.036542912488912 L24.988667618548114,-17.95949043423903 L24.995686414141435,-17.88244476509944 L25.00631745712782,-17.805591514835506 L25.020535136393548,-17.72911582965866 L25.038305200303945,-17.653201946192972 L25.059584839218576,-17.578032747632985 L25.084322788623425,-17.50378932316207 L25.112459452631576,-17.430650531692738 L25.143927047554964,-17.358792570979837 L25.178649765201175,-17.288388553144742 L25.216543955502054,-17.219608087633077 L25.257518328034024,-17.152616872610718 L25.301474171944726,-17.087576295782394 L25.3483055937561,-17.024643045594562 L25.397899772471053,-16.963968733759227 L25.45013723136913,-16.905699530008043 L25.504892125836378,-16.84997580995663 L25.562032546536066,-16.796931816927408 L25.621420837189817,-16.746695338545692 L25.68291392620365,-16.6993873988881 L25.746363671339967,-16.65512196692495 L25.811617216605196,-16.614005681959036 L25.87851736049326,-16.576137596722205 L25.946902934697768,-16.541608938748645 L26.016609192380592,-16.510502890599764 L26.08746820506143,-16.482894389470122 L26.15930926717222,-16.45884994665716 L26.231959307301796,-16.43842748732966 L26.3052433051401,-16.421676210980934 L26.378984713117415,-16.40863647290295 L26.45300588172294,-16.399339686966883 L26.52712848747802,-16.39380824994435 L26.60117396253301,-16.39205548755164 L26.674963924852893,-16.394085622346882 L26.7483206079552,-16.399893763557532 L26.821067289165047,-16.40946591886268 L26.89302871535555,-16.42277902810178 L26.96403152514793,-16.439801018828575 L27.033904666554296,-16.460490883576462 L27.102479809056828,-16.48479877864904 L27.169591749130767,-16.51266614419796 L27.235078808234164,-16.544025845298727 L27.29878322230564,-16.57880233368459 " />
			<path d="M27.29878322230565,-16.578802333684596 L27.37781043279408,-16.628391262030068 L27.45332401904999,-16.683289945944004 L27.52502339557944,-16.743279858551467 L27.59262315953537,-16.80812220709467 L27.6558542267775,-16.877558883459155 L27.714464902974754,-16.95131349158566 L27.768221885486803,-17.029092447678035 L27.816911192036528,-17.110586148827807 L27.860339012476853,-17.195470205403556 L27.89833248026144,-17.283406732299596 L27.93074036054837,-17.37404569390403 L27.957433652197764,-17.467026297432486 L27.978306101267084,-17.561978429081297 L27.993274623960097,-17.65852412728345 L28.002279637345964,-17.756279087202962 L28.005285296531994,-17.854854190478896 " />
			<path d="M14.960154948401382,-34.477287050740046 L14.960154948401382,-13.787762581599633 " />
			<path d="M14.960154948401385,-34.47728705074004 L-9.297004810205266,-36.20340620038748 " />
			<path d="M-9.29700481020527,-36.20340620038748 L-9.29700481020527,-15.513881731247064 " />
			<path d="M-9.297004810205271,-15.513881731247071 L-9.330138352102946,-15.276764737559347 L-9.358878333885409,-15.038725099033686 L-9.383214372900706,-14.799848810252037 L-9.403137677472309,-14.56022216804599 L-9.418641050075225,-14.319931740321003 L-9.429718889936177,-14.07906433478277 L-9.436367195056953,-13.837706967576905 L-9.438583563660172,-13.595946831853354 L-9.436367195056954,-13.353871266266887 L-9.429718889936177,-13.111567723424974 L-9.418641050075227,-12.869123738294487 L-9.403137677472309,-12.62662689657872 L-9.383214372900706,-12.38416480307602 L-9.35887833388541,-12.141825050031542 L-9.330138352102948,-11.899695185493524 L-9.297004810205289,-11.657862681685657 " />
			<path d="M-9.29700481020527,-11.657862681685536 L-9.29700481020527,9.03166178745488 " />
			<path d="M14.960154948401385,10.757780937102309 L-9.297004810205266,9.031661787454873 " />
			<path d="M14.960154948401382,-9.931743532038105 L14.960154948401382,10.75778093710231 " />
			<path d="M14.96015494840138,-9.931743532038098 L14.993288490299056,-10.168860525725814 L15.02202847208152,-10.40690016425148 L15.046364511096815,-10.64577645303313 L15.066287815668419,-10.885403095239182 L15.081791188271335,-11.12569352296417 L15.092869028132286,-11.366560928502407 L15.099517333253065,-11.607918295708275 L15.101733701856283,-11.849678431431816 L15.099517333253065,-12.091753997018275 L15.092869028132286,-12.334057539860192 L15.081791188271335,-12.57650152499068 L15.066287815668417,-12.81899836670645 L15.046364511096815,-13.061460460209153 L15.02202847208152,-13.303800213253636 L14.993288490299054,-13.545930077791654 L14.960154948401387,-13.787762581599601 " />
			<path d="M28.005285296531998,-4.0080908477785355 L28.00193491547233,-4.1126236466013 L27.99189863820669,-4.217169445504395 L27.975220996513915,-4.321264366271682 L27.951975990447174,-4.424446531269992 L27.92226675998973,-4.526258112837773 L27.88622512741442,-4.626247364703671 L27.84401101237752,-4.723970626421494 L27.795811722342226,-4.81899429192771 L27.741841121480167,-4.9108967334868305 L27.682338681738713,-4.999270172487983 L27.617568420284428,-5.083722488791781 L27.54781772803745,-5.163878960599289 L27.473396094494564,-5.2393839271231375 L27.39463373449915,-5.309902366683368 L27.311880123051026,-5.375121383225894 L27.225502444657476,-5.434751594667746 L27.13588396410568,-5.488528416908922 L27.04342232588569,-5.536213237813567 L26.94852778980946,-5.577594475951433 L26.851621410654694,-5.612488519401903 L26.753133169910523,-5.6407405404550195 L26.653500067914663,-5.662225182594635 L26.553164184847358,-5.676847116715468 L26.452570719185633,-5.684541464106108 L26.352166012321465,-5.685274084321126 L26.252395568108675,-5.6790417266650195 L26.15370207612609,-5.665872044615808 L26.056523447427875,-5.645823473124298 L25.961290871496537,-5.618984969333459 L25.86842690302012,-5.585475617868333 L25.77834358698266,-5.545444102447874 L25.691440630387092,-5.499068046163185 " />
			<path d="M25.691440630387085,-5.499068046163182 L25.62967233086086,-5.460958550098788 L25.56998895112371,-5.419607855469887 L25.512534273665075,-5.375115579721733 L25.45744671183539,-5.327588908643667 L25.4048589763962,-5.277142338149162 L25.35489775580832,-5.223897398445134 L25.30768341102823,-5.167982361255038 L25.263329685547998,-5.109531930801042 L25.221943431377227,-5.048686919289764 L25.18362435162723,-4.98559390768333 L25.148464760317474,-4.920404892572993 L25.116549359983043,-4.853276920006037 L25.0879550376188,-4.784371707148091 L25.06275067945189,-4.713855252692316 L25.04099700498878,-4.641897436954006 L25.02274642073664,-4.568671612614035 L25.008042893951504,-4.494354187097064 L24.996921846717267,-4.4191241975906 L24.989410070610813,-4.343162879728733 L24.98552566215873,-4.266653230979619 L24.985277979241218,-4.189779569788548 L24.988667618548114,-4.112727091538665 L24.995686414141435,-4.035681422399075 L25.00631745712782,-3.95882817213514 L25.020535136393548,-3.882352486958294 L25.038305200303945,-3.806438603492608 L25.059584839218576,-3.731269404932621 L25.084322788623425,-3.657025980461707 L25.112459452631576,-3.5838871889923736 L25.143927047554964,-3.5120292282794736 L25.178649765201175,-3.4416252104443767 L25.216543955502054,-3.3728447449327117 L25.257518328034024,-3.3058535299103533 L25.301474171944726,-3.2408129530820275 L25.3483055937561,-3.177879702894196 L25.397899772471053,-3.117205391058862 L25.45013723136913,-3.058936187307679 L25.504892125836378,-3.0032124672562643 L25.562032546536066,-2.950168474227043 L25.621420837189817,-2.8999319958453267 L25.68291392620365,-2.8526240561877336 L25.746363671339967,-2.808358624224584 L25.811617216605196,-2.7672423392586714 L25.87851736049326,-2.729374254021841 L25.946902934697768,-2.6948455960482787 L26.016609192380592,-2.6637395478993975 L26.08746820506143,-2.6361310467697563 L26.15930926717222,-2.6120866039567945 L26.231959307301796,-2.591664144629293 L26.3052433051401,-2.5749128682805695 L26.378984713117415,-2.561873130202585 L26.45300588172294,-2.552576344266517 L26.52712848747802,-2.5470449072439854 L26.60117396253301,-2.5452921448512766 L26.674963924852893,-2.547322279646517 L26.7483206079552,-2.5531304208571663 L26.821067289165047,-2.562702576162316 L26.89302871535555,-2.576015685401412 L26.96403152514793,-2.5930376761282092 L27.033904666554296,-2.6137275408760954 L27.102479809056828,-2.638035435948675 L27.169591749130767,-2.6659028014975963 L27.235078808234164,-2.6972625025983614 L27.29878322230564,-2.7320389909842255 " />
			<path d="M27.29878322230565,-2.7320389909842318 L27.37781043279408,-2.7816279193297015 L27.45332401904999,-2.83652660324364 L27.52502339557944,-2.8965165158511015 L27.59262315953537,-2.9613588643943047 L27.6558542267775,-3.03079554075879 L27.714464902974754,-3.1045501488852927 L27.768221885486803,-3.1823291049776694 L27.816911192036528,-3.26382280612744 L27.860339012476853,-3.348706862703189 L27.89833248026144,-3.4366433895992303 L27.93074036054837,-3.5272823512036657 L27.957433652197764,-3.6202629547321212 L27.978306101267084,-3.7152150863809297 L27.993274623960097,-3.8117607845830848 L28.002279637345964,-3.9095157445025963 L28.005285296531994,-4.008090847778532 " />
			<path d="M-24.304352676424944,10.901093573560482 L55.923607614686546,16.61004795955395 " />
			<path d="M37.754334254640696,27.16441741265111 L55.92360761468653,16.610047959553945 " />
			<path d="M14.86576911276478,25.5356863084118 L37.7543342546407,27.164417412651115 " />
			<path d="M14.865769112764776,25.5356863084118 L13.214016989124245,26.495174440511544 " />
			<path d="M13.214016989124254,26.495174440511544 L40.82187391283026,28.459726390985768 " />
			<path d="M62.29465152015715,15.986380673689114 L40.82187391283025,28.459726390985765 " />
			<path d="M26.353533172891467,-16.895366058379157 L26.35241857621688,-16.835267951144044 L26.349076431468784,-16.77541718330674 L26.34351167204555,-16.715902101633407 L26.335732512185984,-16.656810557377995 L26.32575043484413,-16.59822977660344 L26.313580174739112,-16.54024623142578 L26.299239696604918,-16.48294551237112 L26.282750168672372,-16.426412202033987 " />
			<path d="M25.055721560379833,-18.53873338841442 L25.12228907424059,-18.522609616257313 L25.188299894098012,-18.503452627465865 L25.25362227390993,-18.48130065603655 L25.31812584164,-18.456197913426948 L25.381681859457483,-18.428194500317424 L25.444163480675396,-18.39734630661894 L25.505446002914322,-18.363714899926578 L25.565407116986517,-18.327367402641393 L25.623927151003638,-18.28837635800584 L25.680889309220902,-18.246819585320186 L25.736179905140926,-18.202780024628776 L25.7896885884121,-18.156345571186247 L25.84130856506856,-18.10760890003397 L25.890936810672244,-18.0566672810369 L25.938474275931657,-18.00362238474994 L25.98382608438691,-17.94858007950131 L26.026901721766517,-17.891650220097905 L26.067615216638057,-17.832946428574328 L26.10588531199209,-17.772585867423185 L26.14163562741693,-17.710689005759264 L26.174794811540586,-17.64737937888427 L26.205296684435588,-17.582783341731986 L26.233080369702567,-17.51702981668594 L26.25809041596887,-17.450250036272898 L26.28027690755981,-17.38257728124569 L26.299595564121603,-17.314146614578203 L26.316007828997208,-17.245094611903262 L26.329480946178677,-17.175559088931635 L26.339988025682388,-17.105678826395955 L26.347508097216775,-17.035593293068683 L26.352026152035332,-16.965442367406855 L26.353533172891467,-16.895366058379164 " />
			<path d="M13.30840282476085,-33.5177989186403 L13.30840282476085,-12.82827444950053 " />
			<path d="M13.308402824760854,-33.517798918640295 L-9.29700481020527,-35.12638077210552 " />
			<path d="M13.30840282476085,-8.972255399937719 L13.30840282476085,10.64024364092009 " />
			<path d="M13.308402824760758,-12.82827444950053 L13.341536366658454,-12.586441945692474 L13.370276348440937,-12.344312081154373 L13.394612387456249,-12.101972328109813 L13.414535692027865,-11.85951023460703 L13.43003906463079,-11.61701339289118 L13.441116904491752,-11.374569407760612 L13.447765209612534,-11.132265864918613 L13.449981578215752,-10.890190299332072 L13.447765209612534,-10.648430163608454 L13.44111690449175,-10.407072796402506 L13.430039064630794,-10.166205390864187 L13.414535692027867,-9.925914963139125 L13.394612387456249,-9.686288320932992 L13.370276348440937,-9.447412032151263 L13.341536366658454,-9.209372393625523 L13.308402824760766,-8.972255399937785 " />
			<path d="M26.353533172891467,-3.048602715678793 L26.35241857621688,-2.9885046084436797 L26.349076431468784,-2.9286538406063745 L26.34351167204555,-2.869138758933043 L26.335732512185984,-2.810047214677628 L26.32575043484413,-2.7514664339030754 L26.313580174739112,-2.6934828887254145 L26.299239696604918,-2.6361821696707555 L26.282750168672372,-2.579648859333621 " />
			<path d="M25.055721560379833,-4.691970045714057 L25.12228907424059,-4.675846273556947 L25.188299894098012,-4.656689284765501 L25.25362227390993,-4.634537313336185 L25.31812584164,-4.609434570726583 L25.381681859457483,-4.581431157617058 L25.444163480675396,-4.5505829639185755 L25.505446002914322,-4.516951557226214 L25.565407116986517,-4.480604059941027 L25.623927151003638,-4.441613015305476 L25.680889309220902,-4.40005624261982 L25.736179905140926,-4.356016681928411 L25.7896885884121,-4.309582228485882 L25.84130856506856,-4.260845557333607 L25.890936810672244,-4.209903938336536 L25.938474275931657,-4.1568590420495735 L25.98382608438691,-4.101816736800943 L26.026901721766517,-4.044886877397541 L26.067615216638057,-3.9861830858739644 L26.10588531199209,-3.925822524722821 L26.14163562741693,-3.863925663058899 L26.174794811540586,-3.8006160361839054 L26.205296684435588,-3.7360199990316225 L26.233080369702567,-3.6702664739855773 L26.25809041596887,-3.6034866935725316 L26.28027690755981,-3.5358139385453278 L26.299595564121603,-3.4673832718778366 L26.316007828997208,-3.398331269202899 L26.329480946178677,-3.3287957462312714 L26.339988025682388,-3.25891548369559 L26.347508097216775,-3.1888299503683184 L26.352026152035332,-3.1186790247064895 L26.353533172891467,-3.0486027156787983 " />
			<path d="M37.754334254640696,15.317137701549541 L37.754334254640696,27.16441741265111 " />
			<path d="M13.44923553121311,-10.749883495012778 L13.214016989124245,-10.613247133930559 " />
			<path d="M13.214016989124245,-11.536411786743667 L13.214016989124245,-10.613247133930555 " />
			<path d="M13.446713941114574,-10.596688613935132 L13.21401698912425,-10.613247133930557 " />
			<path d="M13.214016989124245,25.572009787698438 L13.214016989124245,26.495174440511544 " />
			<path d="M13.308402824760849,-33.517798918640295 L14.96015494840138,-34.47728705074004 " />
			<path d="M14.96015494840138,-13.787762581599642 L13.308402824760849,-12.828274449499899 " />
			<path d="M14.96015494840138,-9.931743532038087 L13.308402824760849,-8.972255399938344 " />
			<path d="M14.865769112764776,13.68840659731023 L14.865769112764776,25.5356863084118 " />
			<path d="M14.865769112764776,13.68840659731023 L13.449981578215748,14.510824996252866 " />
			<path d="M-42.47362603647078,-27.50023825888602 L-24.304352676424944,-26.207328000881617 " />
			<path d="M-9.297004810205273,-25.139417709854605 L13.308402824760854,-23.530835856389388 " />
			<path d="M-44.12537816011131,-26.54075012678628 L-42.47362603647078,-27.50023825888602 " />
			<path d="M-42.47362603647078,21.455463026657647 L13.44998157821575,25.43494005454133 " />
			<path d="M13.449981578215748,13.587660343439758 L13.449981578215748,25.43494005454133 " />
			<path d="M13.426726103850134,-11.675136359957733 L-9.435315926558985,-13.301980101823764 " />
			<path d="M-42.47362603647078,-27.50023825888602 L-42.47362603647078,21.455463026657647 " />
			<path d="M-44.12537816011131,22.41495115875739 L-42.47362603647078,21.455463026657647 " />
			<path d="M-44.12537816011131,-26.54075012678628 L-44.12537816011131,22.41495115875739 " />
			<path d="M-44.12537816011131,22.41495115875739 L11.798229454575223,26.394428186641072 " />
			<path d="M11.79822945457522,-10.71399338780103 L-9.367223659594968,-12.220109284917614 " />
			<path d="M13.42758592159371,-11.660472081964006 L11.798229454575218,-10.71399338780103 " />
			<path d="M13.44998157821575,25.43494005454133 L11.79822945457522,26.394428186641072 " />

       </g>
    </g>
    <g transform="translate(20,210.0)" stroke="rgb(0,0,255)">
        <line x1="30" y1="-30" x2="75" y2="-33" stroke-width="3" stroke="#000000" />
         <text x="80" y="-30" style="stroke:#000000">X </text>

        <line x1="30" y1="-30" x2="30" y2="-75" stroke-width="3" stroke="#000000" />
         <text x="25" y="-85" style="stroke:#000000">Y </text>

        <line x1="30" y1="-30" x2="58" y2="-15" stroke-width="3" stroke="#000000" />
         <text x="65" y="-5" style="stroke:#000000">Z </text>
        <!--
            <line x1="0" y1="0" x2="2.6677012512038663" y2="0" stroke-width="3" />
            <text x="0" y="20" style="stroke:#000000">1  mm </text>
        -->
    </g>
</svg>
