<?xml version='1.0' encoding='utf-8'?>
<svg width="38.960058mm" height="41.683305mm" viewBox="-12.045 -30.108265 38.960058 41.683305" version="1.1" xmlns="http://www.w3.org/2000/svg">
  <g transform="scale(1,-1)" stroke-linecap="round">
    <g fill="none" stroke="rgb(0,0,0)" stroke-width="0.09">
      <path d="M 4.17809,9.184943 A 12.0,12.0 69.6243183521636 1,1 11.249158,3.411413 L 11.249158,1.679379 A 12.0,12.0 20.37568164783592 1,0 4.17809,7.452909 L 4.17809,9.184943" />
      <path d="M 4.17809,9.184943 L 15.556349,18.475297 L 22.627417,12.701767 L 11.249158,3.411413 A 12.0,12.0 69.6243183521636 1,0 4.17809,9.184943 M -4.879037,-5.253913 A 1.1,1.1 -45.00000000000001 0,1 -6.434672,-3.983736 A 1.1,1.1 -45.00000000000001 0,1 -4.879037,-5.253913 M 2.12132,-1.732059 A 3.0,3.0 -45.00000000000001 0,1 -2.12132,1.732059 A 3.0,3.0 -45.00000000000001 0,1 2.12132,-1.732059 M 6.434672,-5.253913 A 1.1,1.1 -45.00000000000001 0,1 4.879037,-3.983736 A 1.1,1.1 -45.00000000000001 0,1 6.434672,-5.253913 M -4.879037,3.983736 A 1.1,1.1 -45.00000000000001 0,1 -6.434672,5.253913 A 1.1,1.1 -45.00000000000001 0,1 -4.879037,3.983736 M 6.434672,3.983736 A 1.1,1.1 -45.00000000000001 0,1 4.879037,5.253913 A 1.1,1.1 -45.00000000000001 0,1 6.434672,3.983736" />
      <path d="M 10.606602,-0.577303 L 10.606602,1.154731 L 11.249158,1.679379 L 11.249158,3.411413 L 22.627417,12.701767 L 22.627417,19.629904 L 24.748737,21.361963 L 26.870058,23.094022 L 26.870058,14.433851 L 24.748737,12.701792 L 24.748737,10.969758 L 10.606602,-0.577303" />
      <path d="M 3.535534,6.928262 L 4.17809,7.452909 A 12.0,12.0 20.37568164783592 1,1 11.249158,1.679379 L 10.606602,1.154731 L 3.535534,6.928262 M -4.879037,-6.985947 A 1.1,1.1 -45.00000000000001 0,0 -6.434672,-5.71577 A 1.1,1.1 -45.00000000000001 0,0 -4.879037,-6.985947 M 2.12132,-3.464093 A 3.0,3.0 -45.00000000000001 0,0 -2.12132,2.5e-05 A 3.0,3.0 -45.00000000000001 0,0 2.12132,-3.464093 M 6.434672,-6.985947 A 1.1,1.1 -45.00000000000001 0,0 4.879037,-5.71577 A 1.1,1.1 -45.00000000000001 0,0 6.434672,-6.985947 M -4.879037,2.251702 A 1.1,1.1 -45.00000000000001 0,0 -6.434672,3.521879 A 1.1,1.1 -45.00000000000001 0,0 -4.879037,2.251702 M 6.434672,2.251702 A 1.1,1.1 -45.00000000000001 0,0 4.879037,3.521879 A 1.1,1.1 -45.00000000000001 0,0 6.434672,2.251702" />
      <path d="M 3.535534,6.928262 L 3.535534,5.196227 L 17.67767,16.743288 L 17.67767,18.475322 L 19.79899,20.207382 L 19.79899,28.867552 L 17.67767,27.135493 L 15.556349,25.403434 L 15.556349,18.475297 L 4.17809,9.184943 L 4.17809,7.452909 L 3.535534,6.928262" />
      <path d="M 22.627417,19.629904 L 22.627417,12.701767 L 15.556349,18.475297 L 15.556349,25.403434 L 16.263456,24.826081 L 21.92031,20.207257 L 22.627417,19.629904" />
      <path d="M -4.879037,-6.985947 A 1.1,1.1 -45.00000000000001 0,1 -6.434672,-5.71577 A 1.1,1.1 -45.00000000000001 0,1 -4.879037,-6.985947 L -4.879037,-5.253913 A 1.1,1.1 -45.00000000000001 0,0 -6.434672,-3.983736 A 1.1,1.1 -45.00000000000001 0,0 -4.879037,-5.253913 L -4.879037,-6.985947" />
      <path d="M 2.12132,-3.464093 A 3.0,3.0 -45.00000000000001 0,1 -2.12132,2.5e-05 A 3.0,3.0 -45.00000000000001 0,1 2.12132,-3.464093 L 2.12132,-1.732059 A 3.0,3.0 -45.00000000000001 0,0 -2.12132,1.732059 A 3.0,3.0 -45.00000000000001 0,0 2.12132,-1.732059 L 2.12132,-3.464093" />
      <path d="M 6.434672,-6.985947 A 1.1,1.1 -45.00000000000001 0,1 4.879037,-5.71577 A 1.1,1.1 -45.00000000000001 0,1 6.434672,-6.985947 L 6.434672,-5.253913 A 1.1,1.1 -45.00000000000001 0,0 4.879037,-3.983736 A 1.1,1.1 -45.00000000000001 0,0 6.434672,-5.253913 L 6.434672,-6.985947" />
      <path d="M -4.879037,2.251702 A 1.1,1.1 -45.00000000000001 0,1 -6.434672,3.521879 A 1.1,1.1 -45.00000000000001 0,1 -4.879037,2.251702 L -4.879037,3.983736 A 1.1,1.1 -45.00000000000001 0,0 -6.434672,5.253913 A 1.1,1.1 -45.00000000000001 0,0 -4.879037,3.983736 L -4.879037,2.251702" />
      <path d="M 6.434672,2.251702 A 1.1,1.1 -45.00000000000001 0,1 4.879037,3.521879 A 1.1,1.1 -45.00000000000001 0,1 6.434672,2.251702 L 6.434672,3.983736 A 1.1,1.1 -45.00000000000001 0,0 4.879037,5.253913 A 1.1,1.1 -45.00000000000001 0,0 6.434672,3.983736 L 6.434672,2.251702" />
      <path d="M 10.606602,1.154731 L 10.606602,-0.577303 L 3.535534,5.196227 L 3.535534,6.928262 L 10.606602,1.154731" />
      <path d="M 21.92031,20.207257 A 5.0,5.0 -45.00000000000001 0,1 24.748737,21.361963 L 22.627417,19.629904 L 21.92031,20.207257" />
      <path d="M 26.162951,23.671375 L 26.870058,23.094022 L 24.748737,21.361963 A 5.0,5.0 -45.00000000000001 0,1 26.162951,23.671375" />
      <path d="M 20.506097,28.290199 L 19.79899,28.867552 L 19.79899,20.207382 L 26.870058,14.433851 L 26.870058,23.094022 L 26.162951,23.671375 L 20.506097,28.290199" />
      <path d="M 19.79899,20.207382 L 17.67767,18.475322 L 24.748737,12.701792 L 26.870058,14.433851 L 19.79899,20.207382" />
      <path d="M 24.748737,10.969758 L 24.748737,12.701792 L 17.67767,18.475322 L 17.67767,16.743288 L 24.748737,10.969758" />
      <path d="M 17.67767,16.743288 L 3.535534,5.196227 L 10.606602,-0.577303 L 24.748737,10.969758 L 17.67767,16.743288" />
      <path d="M 15.556349,25.403434 L 17.67767,27.135493 A 5.0,5.0 -45.00000000000001 0,1 16.263456,24.826081 L 15.556349,25.403434" />
      <path d="M 17.67767,27.135493 L 19.79899,28.867552 L 20.506097,28.290199 A 5.0,5.0 -45.00000000000001 0,1 17.67767,27.135493" />
      <path d="M 16.263456,24.826081 A 5.0,5.0 -45.00000000000001 0,1 21.92031,20.207257 L 16.263456,24.826081" />
      <path d="M 24.748737,23.093997 L 24.748737,21.361963 A 5.0,5.0 -45.00000000000001 0,0 21.92031,20.207257 A 5.0,5.0 -45.00000000000001 0,0 16.263456,24.826081 A 5.0,5.0 -45.00000000000001 0,0 17.67767,27.135493 A 5.0,5.0 -45.00000000000001 0,0 20.506097,28.290199 A 5.0,5.0 -45.00000000000001 0,0 26.162951,23.671375 A 5.0,5.0 -45.00000000000001 0,0 24.748737,21.361963 L 24.748737,23.093997 A 5.0,5.0 -45.00000000000001 0,1 17.67767,28.867527 A 5.0,5.0 -45.00000000000001 0,1 24.748737,23.093997" />
      <path d="M 20.506097,28.290199 L 26.162951,23.671375 A 5.0,5.0 -45.00000000000001 0,1 20.506097,28.290199" />
      <circle cx="21.213203" cy="25.980762" r="5.0" />
    </g>
  </g>
</svg>