<?xml version="1.0" encoding="UTF-8" standalone="no"?>
<svg
   xmlns:svg="http://www.w3.org/2000/svg"
   xmlns="http://www.w3.org/2000/svg"
   width="800.0"
   height="240.0"

>
  <defs>
    <style>
      .cq-bg { fill: #ffffff; }
      @media (prefers-color-scheme: dark) {
        .cq-bg { fill: #0d1117; }
        /* CadQuery SVG selectors */
        g[stroke="rgb(0,0,0)"] { stroke: #c9d1d9 !important; }
        g[stroke="rgb(160,160,160)"] { stroke: #484f58 !important; }
        /* OpenSCAD SVG selectors */
        path { stroke: #c9d1d9 !important; }
        polygon { stroke: #c9d1d9 !important; fill: #161b22 !important; }
        /* Common selectors */
        line { stroke: #c9d1d9 !important; }
        text { stroke: #c9d1d9 !important; fill: #c9d1d9 !important; }
      }
    </style>
  </defs>
  <rect width="800.0" height="240.0" class="cq-bg"/>
    <g transform="scale(3.3275825249838755, -3.3275825249838755)   translate(99.50977982491307,-28.259590735148798)" stroke-width="0.3005184672331592"  fill="none">
       <!-- hidden lines -->
       <g  stroke="rgb(160,160,160)" fill="none" stroke-dasharray="0.3005184672331592,0.3005184672331592" >
			<path d="M-21.236813018235388,-30.884614579383296 L-9.768933988388277,-30.068569923032467 " />
			<path d="M-8.11718186474775,-31.02805805513221 L-9.768933988388282,-30.068569923032467 " />
			<path d="M-9.76893398838828,-9.537393909745141 L-9.76893398838828,7.13776305398072 " />
			<path d="M-9.768933988388284,-9.537393909745141 L-9.802067530285957,-9.779226413553111 L-9.830807512068422,-10.021356278091128 L-9.855143551083716,-10.26369603113561 L-9.87506685565532,-10.506158124638306 L-9.890570228258232,-10.748654966354074 L-9.901648068119187,-10.991098951484561 L-9.908296373239962,-11.233402494326477 L-9.91051274184318,-11.47547805991293 L-9.90829637323996,-11.71723819563647 L-9.901648068119185,-11.958595562842335 L-9.890570228258232,-12.199462968380569 L-9.875066855655318,-12.439753396105555 L-9.855143551083714,-12.679380038311603 L-9.830807512068418,-12.91825632709325 L-9.802067530285955,-13.156295965618915 L-9.768933988388298,-13.393412959306506 " />
			<path d="M-9.76893398838828,-30.068569923032463 L-9.76893398838828,-13.393412959306609 " />
			<path d="M-8.11718186474775,-14.352901091406384 L-9.76893398838828,-13.39341295930664 " />
			<path d="M-8.11718186474775,-10.496882041844843 L-9.76893398838828,-9.5373939097451 " />
			<path d="M14.488225770218374,-28.34245077338503 L49.55256370921593,-25.847301885859647 " />
			<path d="M33.03504247281061,-16.252420564862227 L49.55256370921592,-25.84730188585965 " />
			<path d="M17.69734418186283,-17.343838315125684 L23.34184288486577,-16.942180520133565 " />
			<path d="M24.421192862651626,-16.865374880711304 L33.03504247281062,-16.252420564862224 " />
			<path d="M17.697344181862828,-17.343838315125684 L16.045592058222297,-16.38435018302594 " />
			<path d="M16.045592058222297,-16.38435018302594 L36.10258213100017,-14.957111586527573 " />
			<path d="M36.10258213100016,-14.957111586527573 L55.92360761468653,-26.47096917172448 " />
			<path d="M49.55256370921592,-25.84730188585965 L49.55256370921592,11.35903109115354 " />
			<path d="M24.630998045031838,-15.466924069934237 L24.609563582536243,-15.403391144426058 L24.5853980126714,-15.341090817662167 L24.55854788044325,-15.280143085533204 L24.52906490156016,-15.220665338713982 L24.49700586282397,-15.162772136558738 L24.4624325127536,-15.10657498644979 L24.425411442652017,-15.052182129024535 L24.386013958345533,-14.999698329694496 L24.344315942842535,-14.949224676857954 L24.300397710176167,-14.900858387194834 L24.25434385071245,-14.854692618418854 L24.206243068221827,-14.810816289847606 L24.156188009027936,-14.769313911136154 L24.104275083562644,-14.730265419504025 L24.05060428067113,-14.693746025769128 L23.995278975024593,-14.659826069485119 " />
			<path d="M23.99527897502459,-14.659826069485115 L23.931574560953106,-14.625049581099244 L23.866087501849705,-14.593689879998479 L23.798975561775766,-14.565822514449557 L23.730400419273234,-14.541514619376978 L23.66052727786687,-14.520824754629093 L23.589524468074487,-14.503802763902295 L23.51756304188399,-14.490489654663198 L23.44481636067414,-14.48091749935805 L23.371459677571835,-14.4751093581474 L23.297669715251953,-14.473079223352158 L23.22362424019696,-14.474831985744867 L23.14950163444188,-14.480363422767399 L23.075480465836353,-14.489660208703468 L23.001739057859037,-14.502699946781451 L22.928455060020735,-14.519451223130176 L22.855805019891157,-14.539873682457676 L22.78396395778037,-14.563918125270638 L22.71310494509953,-14.591526626400281 L22.643398687416706,-14.62263267454916 L22.575013113212197,-14.657161332522723 L22.508112969324134,-14.695029417759555 L22.442859424058906,-14.736145702725466 L22.37940967892259,-14.780411134688617 L22.317916589908755,-14.82771907434621 L22.258528299255005,-14.877955552727926 L22.201387878555316,-14.930999545757146 L22.14663298408807,-14.98672326580856 L22.09439552518999,-15.044992469559745 L22.044801346475037,-15.105666781395078 L21.997969924663664,-15.16860003158291 L21.954014080752962,-15.233640608411235 L21.913039708220992,-15.300631823433594 L21.875145517920114,-15.36941228894526 L21.840422800273902,-15.439816306780356 L21.808955205350514,-15.511674267493255 L21.780818541342363,-15.584813058962588 L21.756080591937515,-15.659056483433503 L21.734800953022884,-15.73422568199349 L21.717030889112486,-15.810139565459176 L21.70281320984676,-15.886615250636021 L21.692182166860373,-15.963468500899957 L21.685163371267052,-16.040514170039547 L21.681773731960156,-16.11756664828943 L21.682021414877667,-16.194440309480502 L21.68590582332975,-16.270949958229615 L21.693417599436206,-16.346911276091483 L21.70453864667044,-16.422141265597944 L21.71924217345558,-16.496458691114917 L21.737492757707717,-16.569684515454888 L21.75924643217083,-16.641642331193196 L21.78445079033774,-16.712158785648974 L21.81304511270198,-16.78106399850692 L21.844960513036412,-16.848191971073874 L21.88012010434617,-16.91338098618421 L21.918439184096165,-16.97647399779065 L21.959825438266932,-17.037319009301925 L22.004179163747168,-17.09576943975592 L22.051393508527255,-17.151684476946016 L22.101354729115137,-17.204929416650042 L22.15394246455433,-17.25537598714455 L22.209030026384017,-17.302902658222617 L22.26648470384265,-17.34739493397077 L22.326168083579795,-17.388745628599672 L22.387936383106013,-17.42685512466406 " />
			<path d="M22.387936383106023,-17.426855124664065 L22.444809630119057,-17.458110310687943 L22.50312127563928,-17.486640526223542 L22.562759006325777,-17.51239081957477 L22.623607954681354,-17.53531159341933 L22.685550920297405,-17.55535870033755 L22.74846859559219,-17.572493527844156 L22.81223979560767,-17.586683072759325 L22.87674169142239,-17.597900004775674 L22.94185004673071,-17.60612271909886 L23.007439457132868,-17.611335378060282 L23.0733835916748,-17.613527941621843 L23.139555436172664,-17.61269618671391 L23.205827537853285,-17.608841715369362 L23.27207225083935,-17.601971951637882 L23.338161982006593,-17.59210012728663 L23.403969436739303,-17.57924525631468 " />
			<path d="M24.63099804503184,-1.6201607272338725 L24.609563582536243,-1.5566278017256931 L24.5853980126714,-1.4943274749618012 L24.55854788044325,-1.4333797428328399 L24.52906490156016,-1.3739019960136165 L24.497005862823972,-1.3160087938583724 L24.4624325127536,-1.259811643749424 L24.425411442652017,-1.2054187863241685 L24.386013958345533,-1.152934986994129 L24.344315942842535,-1.102461334157587 L24.300397710176167,-1.0540950444944663 L24.25434385071245,-1.0079292757184866 L24.20624306822183,-0.964052947147239 L24.156188009027936,-0.9225505684357858 L24.104275083562644,-0.8835020768036579 L24.05060428067113,-0.8469826830687608 L23.995278975024593,-0.8130627267847503 " />
			<path d="M23.99527897502459,-0.813062726784747 L23.931574560953106,-0.7782862383988765 L23.866087501849705,-0.7469265372981113 L23.798975561775766,-0.7190591717491892 L23.730400419273234,-0.6947512766766102 L23.66052727786687,-0.6740614119287245 L23.589524468074487,-0.6570394212019275 L23.51756304188399,-0.6437263119628307 L23.44481636067414,-0.6341541566576812 L23.371459677571835,-0.6283460154470317 L23.297669715251953,-0.6263158806517912 L23.22362424019696,-0.6280686430445002 L23.14950163444188,-0.6336000800670312 L23.075480465836353,-0.6428968660030998 L23.001739057859037,-0.6559366040810843 L22.928455060020735,-0.6726878804298082 L22.855805019891157,-0.6931103397573088 L22.78396395778037,-0.7171547825702704 L22.71310494509953,-0.7447632836999125 L22.643398687416706,-0.7758693318487935 L22.575013113212197,-0.8103979898223552 L22.508112969324134,-0.8482660750591864 L22.442859424058906,-0.8893823600250985 L22.37940967892259,-0.933647791988248 L22.317916589908755,-0.9809557316458415 L22.258528299255005,-1.0311922100275575 L22.201387878555316,-1.084236203056779 L22.14663298408807,-1.1399599231081932 L22.09439552518999,-1.1982291268593759 L22.044801346475037,-1.2589034386947107 L21.997969924663664,-1.3218366888825421 L21.954014080752962,-1.3868772657108677 L21.913039708220992,-1.4538684807332263 L21.875145517920114,-1.522648946244891 L21.840422800273902,-1.5930529640799878 L21.808955205350514,-1.664910924792888 L21.780818541342363,-1.738049716262221 L21.756080591937515,-1.812293140733135 L21.734800953022884,-1.8874623392931222 L21.717030889112486,-1.9633762227588085 L21.70281320984676,-2.0398519079356543 L21.692182166860373,-2.1167051581995895 L21.685163371267052,-2.193750827339179 L21.681773731960156,-2.2708033055890615 L21.682021414877667,-2.347676966780133 L21.68590582332975,-2.4241866155292477 L21.693417599436206,-2.500147933391114 L21.70453864667044,-2.5753779228975775 L21.71924217345558,-2.6496953484145496 L21.737492757707717,-2.722921172754521 L21.75924643217083,-2.7948789884928305 L21.78445079033774,-2.8653954429486057 L21.81304511270198,-2.9343006558065508 L21.844960513036412,-3.0014286283735068 L21.88012010434617,-3.0666176434838444 L21.918439184096165,-3.129710655090279 L21.959825438266932,-3.190555666601556 L22.004179163747168,-3.2490060970555508 L22.051393508527255,-3.3049211342456473 L22.101354729115137,-3.3581660739496746 L22.15394246455433,-3.4086126444441813 L22.209030026384017,-3.456139315522248 L22.26648470384265,-3.500631591270402 L22.326168083579795,-3.5419822858993024 L22.387936383106013,-3.5800917819636897 " />
			<path d="M22.387936383106023,-3.580091781963697 L22.444809630119057,-3.611346967987573 L22.50312127563928,-3.639877183523175 L22.562759006325777,-3.6656274768743997 L22.623607954681354,-3.688548250718961 L22.685550920297405,-3.708595357637181 L22.74846859559219,-3.7257301851437887 L22.81223979560767,-3.739919730058955 L22.87674169142239,-3.7511366620753055 L22.94185004673071,-3.759359376398491 L23.007439457132868,-3.764572035359916 L23.0733835916748,-3.7667645989214744 L23.139555436172664,-3.7659328440135456 L23.205827537853285,-3.7620783726689933 L23.27207225083935,-3.7552086089375143 L23.338161982006593,-3.7453367845862635 L23.403969436739303,-3.732481913614315 " />
			<path d="M33.03504247281061,-16.252420564862227 L33.03504247281061,10.183658129331356 " />
			<path d="M43.24287059690909,-3.578890732732038 L43.245135572318965,-3.700269972626682 L43.25190226344252,-3.822767511244138 L43.26308631693937,-3.944856298452895 L43.27854831278071,-4.065014379602539 L43.29809550225461,-4.181743868158432 L43.32148421076488,-4.2935896183040745 L43.34842287547027,-4.399157364739149 L43.378575679896855,-4.497131103543116 L43.41156674021478,-4.586289497435131 L43.44698479099319,-4.665521100922863 L43.48438831202108,-4.733838215544031 L43.523311032283125,-4.790389202481691 L43.543191039891454,-4.814026114386327 L43.56326774247827,-4.834469099064635 L43.583478522346496,-4.851654396413746 L43.60376034362226,-4.865528406807965 L43.62404994885901,-4.8760478582719005 L43.64428405633259,-4.883179941442436 L43.66439955741213,-4.886902411898623 L43.68433371339103,-4.887203659540324 " />
			<path d="M43.68433371339103,-4.887203659540324 L43.7016537048393,-4.884642834884929 L43.71874387501522,-4.879444867054392 L43.7355630522019,-4.871622278408507 L43.7520707175283,-4.861193914248499 L43.76822710258277,-4.848184897417045 L43.78399328521857,-4.83262656777515 L43.81420414630851,-4.794017946797384 L43.8424123536909,-4.7457398734408365 L43.86834624690846,-4.688257291943409 L43.8917560683926,-4.622123790988099 L43.912416368765335,-4.547976272341354 L43.93012817803998,-4.466528817140899 L43.944720921810976,-4.378565808904024 L43.9560540639786,-4.28493437948552 L43.964018460188456,-4.186536250734833 L43.96853740895125,-4.084319050421722 L43.969567390320094,-3.9792671860628053 L43.96709848501137,-3.872392364539052 L43.96115446993283,-3.7647238488054566 L43.95179258919901,-3.657298545526131 L43.939103002839104,-3.551151019096298 L43.92320791850659,-3.4473035282216182 L43.90426041455274,-3.3467561810080286 L43.88244296579837,-3.250477303373967 L43.85796568620162,-3.1593941135424366 L43.831064305345656,-3.074383792422652 L43.8019978982339,-2.9962650358783645 L43.77104639025617,-2.9257901702391527 L43.738507861354094,-2.863637906986603 L43.70469567534837,-2.81040680639172 L43.66993546207385,-2.766609513052312 L43.63456198138625,-2.7326678188452735 L43.61675158262567,-2.719498770582762 L43.59891589924168,-2.7089086008402354 L43.581097898957786,-2.700922822264193 L43.56334050689734,-2.695560673294696 L43.545686502173176,-2.6928350718182816 L43.528178414828986,-2.692752584047639 " />
			<path d="M43.528178414828986,-2.692752584047639 L43.49845504051318,-2.698815476327198 L43.469503491065225,-2.7126907848208304 L43.44153105139839,-2.734279166240439 L43.414737996276585,-2.7634260538752407 L43.389316156403616,-2.7999227642457436 L43.36544754496959,-2.8435079912184915 L43.34330305448786,-2.893869676884143 L43.323041233252965,-2.9506472458039235 L43.304807150179606,-3.0134341866278835 L43.28873135615022,-3.081780962601293 L43.27492894930756,-3.1551982301207833 L43.263498750984496,-3.233160342296273 L43.254522598171214,-3.3151091124341705 L43.248064757585496,-3.400457810496376 L43.24417146554114,-3.4885953639215606 L43.24287059690909,-3.5788907327320354 " />
			<path d="M48.52847739255879,-6.649252755451213 L48.530742367968664,-6.770631995345857 L48.537509059092216,-6.893129533963313 L48.54869311258907,-7.01521832117207 L48.564155108430406,-7.1353764023217146 L48.58370229790431,-7.2521058908776075 L48.60709100641458,-7.36395164102325 L48.63402967111997,-7.469519387458324 L48.66418247554655,-7.567493126262291 L48.69717353586448,-7.656651520154306 L48.73259158664289,-7.735883123642038 L48.76999510767078,-7.804200238263206 L48.808917827932824,-7.860751225200866 L48.82879783554115,-7.8843881371055025 L48.848874538127966,-7.90483112178381 L48.869085317996195,-7.922016419132921 L48.88936713927196,-7.935890429527141 L48.90965674450871,-7.946409880991076 L48.929890851982286,-7.953541964161611 L48.95000635306183,-7.957264434617798 L48.969940509040725,-7.957565682259499 " />
			<path d="M48.969940509040725,-7.957565682259499 L48.987260500489,-7.955004857604104 L49.00435067066492,-7.949806889773567 L49.021169847851596,-7.9419843011276825 L49.037677513178,-7.9315559369676745 L49.05383389823247,-7.918546920136221 L49.06960008086827,-7.902988590494325 L49.09981094195821,-7.864379969516559 L49.128019149340595,-7.816101896160012 L49.15395304255816,-7.758619314662584 L49.1773628640423,-7.6924858137072745 L49.198023164415034,-7.618338295060529 L49.21573497368968,-7.5368908398600745 L49.230327717460675,-7.448927831623199 L49.2416608596283,-7.355296402204695 L49.249625255838154,-7.256898273454008 L49.25414420460095,-7.154681073140897 L49.25517418596979,-7.0496292087819805 L49.25270528066107,-6.942754387258227 L49.24676126558253,-6.835085871524632 L49.23739938484871,-6.727660568245306 L49.2247097984888,-6.621513041815473 L49.20881471415629,-6.5176655509407935 L49.189867210202436,-6.417118203727204 L49.16804976144807,-6.320839326093142 L49.143572481851315,-6.229756136261612 L49.116671100995354,-6.144745815141827 L49.0876046938836,-6.06662705859754 L49.056653185905866,-5.996152192958328 L49.02411465700379,-5.933999929705778 L48.99030247099807,-5.880768829110895 L48.95554225772355,-5.836971535771488 L48.92016877703595,-5.803029841564449 L48.902358378275366,-5.789860793301937 L48.88452269489138,-5.779270623559411 L48.866704694607485,-5.771284844983368 L48.84894730254704,-5.765922696013871 L48.831293297822874,-5.763197094537457 L48.813785210478684,-5.763114606766814 " />
			<path d="M48.813785210478684,-5.763114606766814 L48.78406183616288,-5.769177499046373 L48.755110286714924,-5.783052807540006 L48.72713784704809,-5.804641188959614 L48.700344791926284,-5.833788076594416 L48.674922952053315,-5.870284786964919 L48.65105434061929,-5.913870013937666 L48.62890985013756,-5.964231699603318 L48.608648028902664,-6.021009268523099 L48.590413945829305,-6.083796209347059 L48.57433815179992,-6.152142985320468 L48.56053574495726,-6.2255602528399585 L48.549105546634195,-6.303522365015448 L48.54012939382091,-6.385471135153346 L48.533671553235195,-6.470819833215551 L48.52977826119084,-6.558957386640736 L48.52847739255879,-6.649252755451211 " />
			<path d="M23.112901993784618,9.477606932209564 L23.252659813588696,9.367722205308372 L23.390238984454243,9.254999462259546 L23.525591649652306,9.139477913517164 L23.658670726940933,9.021197743096074 L23.789429924942645,8.90020009459397 L23.917823759246858,8.776527056879619 L24.04380756823154,8.650221649452318 L24.16733752859873,8.52132780747762 L24.288370670618395,8.38989036650454 L24.40686489307539,8.25595504686957 L24.522778977914317,8.119568437792928 L24.636072604577166,7.980777981172557 L24.74670636402877,7.839631955081522 L24.854641772465186,7.696179456974552 L24.959841284700214,7.550470386609554 L25.06226830722548,7.4025554286900475 L25.161887210939398,7.252486035234569 L25.258663343540725,7.10031440767914 L25.352563041582318,6.9460934787190824 L25.44355364218091,6.789876893896446 L25.531603494378857,6.63171899293948 L25.61668197015387,6.471674790860628 L25.69875947507296,6.30979995881964 L25.77780745858678,6.146150804758422 L25.853798423960917,5.980784253814404 L25.926705937840612,5.813757828519204 L25.99650463944553,5.645129628789496 L26.063170249391497,5.474958311717021 L26.12667957813604,5.303303071164815 L26.18701053404486,5.130223617176692 L26.244142131076337,4.955780155207184 L26.29805449608154,4.780033365179162 L26.348728875717036,4.603044380376405 L26.39614764296825,4.424874766178463 L26.44029430328097,4.245586498645236 L26.48115350029898,4.065241942958669 L26.518711021205725,3.8839038317291203 L26.55295380166823,3.7016352431739037 L26.583869930381525,3.518499579175617 L26.61144865321194,3.334560543227872 L26.635680376937962,3.14988211827614 L26.65655667258718,2.9645285444613525 L26.67407027836832,2.778564296774066 L26.688215102197244,2.592054062626916 L26.698986223816075,2.4050627193531975 L26.706379896504682,2.2176553116393563 L26.710393548384,2.0298970288993017 L26.711025783310642,1.8418531825983449 L26.708276381362538,1.6535891835346908 L26.702146298915444,1.465170519086392 L26.692637668310276,1.276662730431645 L26.679753797111353,1.088131389750383 L26.663499166955887,0.8996420774150748 L26.643879431995046,0.7112603591786923 L26.62090141692717,0.5230517633677376 L26.594573114623785,0.3350817580883134 L26.564903683349332,0.14741572845313256 L26.531903443575445,-0.039881046162610456 L26.495583874391,-0.22674341482858784 L26.45595760950913,-0.41310637772198944 L26.41303843287261,-0.5989051087376323 L26.366841273859126,-0.7840749780376337 L26.317382202088098,-0.9685515745328013 L26.264678421830915,-1.1522707282879552 L26.208748266026426,-1.3351685328433576 L26.149611189903858,-1.5171813674444767 L26.087287764215343,-1.6982459191723847 L26.021799668080423,-1.87829920496707 L25.953169681444972,-2.0572785935360143 L25.881421677157235,-2.235121827140402 L25.806580612663705,-2.411767043251385 L25.728672521327674,-2.587152796068888 L25.64772450337359,-2.761218077895438 L25.563764716460284,-2.9339023403576157 L25.47682236588635,-3.1051455154677283 L25.38692769443111,-3.2748880365183695 L25.294111971834752,-3.443070858802624 L25.19840748392113,-3.6096354801526918 L25.099847521367238,-3.774523961289778 L24.99846636812307,-3.9376789459782016 L24.89429928948598,-4.099043680976682 L24.787382519833724,-4.258562035779883 L24.67775325002036,-4.416178522143317 L24.565449614439476,-4.571838313384881 L24.450510677759173,-4.725487263456219 L24.33297642133349,-4.877071925777364 L24.21288772929494,-5.026539571828062 L24.09028637433301,-5.1738382094893085 L23.965215003163603,-5.318916601128745 L23.837717121694418,-5.461724281423593 L23.707837079891487,-5.602211574914951 L23.575620056352115,-5.740329613287333 L23.44111204258953,-5.876030352367457 L23.304359827034844,-6.009266588836334 L23.1654109787617,-6.13999197664888 L23.024313830939498,-6.268161043155337 L22.881117464020722,-6.393729204918856 L22.735871688668396,-6.516652783223793 L22.588627028429496,-6.636889019269296 L22.439434702160405,-6.754396089042895 L22.28834660621051,-6.869133117868916 L22.135415296370134,-6.981060194626696 L21.98069396958905,-7.09013838563361 L21.824236445472014,-7.1963297481880915 L21.666097147557686,-7.299597343767964 L21.506331084387465,-7.3999052508794385 L21.344993830370857,-7.497218577552374 L21.182141506453977,-7.59150347347739 L21.017830760597963,-7.68272714178066 L20.852118748074062,-7.7708578504322485 L20.68506311158223,-7.855864943284068 L20.51672196120022,-7.937718850733571 L20.347153854170045,-8.016391100009493 L20.176417774528943,-8.091854325076076 L20.004573112591842,-8.164082276152302 L19.83167964429253,-8.233049828842844 L19.65779751039067,-8.298732992877563 L19.482987195551917,-8.36110892045647 L19.307309507308425,-8.42015591419732 L19.130825554907,-8.475853434683014 L18.95359672805236,-8.528182107606204 L18.775684675552792,-8.577123730508617 L18.597151283875707,-8.62266127911277 L18.418058655620495,-8.664778913243817 L18.238469087916254,-8.703461982339558 L18.058445050751793,-8.738697030546604 L17.87804916524553,-8.770471801400975 L17.697344181862874,-8.798775242091498 " />
			<path d="M17.697344181862828,-17.343838315125684 L17.697344181862828,-8.798775242091503 " />
			<path d="M17.697344181862828,-8.798775242091505 L16.045592058222297,-7.839287109991763 " />
			<path d="M16.045592058222297,-16.38435018302594 L16.045592058222297,-7.83928710999176 " />
			<path d="M16.045592058222297,12.276919720953071 L16.045592058222297,19.898818141174143 " />
			<path d="M16.0455920582223,-7.83928710999176 L16.317421497871052,-7.795373796822799 L16.588479158283484,-7.743611463643143 L16.858551513156783,-7.684040886351212 L17.127425812364873,-7.616708991807911 L17.394890249552816,-7.541668820869862 L17.660734128987755,-7.458979486606358 L17.924748031534975,-7.3687061277329065 L18.186723979628326,-7.270919857298049 L18.446455601105004,-7.16569770666389 L18.703738291775736,-7.053122564824477 L18.958369376602178,-6.9332831131097805 L19.210148269354665,-6.806273755326787 L19.458876630624488,-6.672194543392674 L19.704358524066187,-6.531151098518679 L19.946400570746913,-6.383254528006747 L20.1848121014811,-6.228621337724491 L20.419405307030566,-6.067373340327423 L20.64999538605168,-5.899637559300762 L20.87640069067305,-5.725546128896378 L21.09844286958906,-5.545236190043722 L21.31594700855652,-5.358849782316755 L21.52874176818377,-5.166533732041934 L21.736659518903686,-4.968439536635428 L21.93953647302426,-4.764723245260688 L22.137212813752733,-4.555545335900343 L22.32953282109166,-4.341070588939301 L22.516344994507676,-4.12146795735862 L22.69750217227642,-3.8969104336424 L22.8728616474095,-3.667574913502548 L23.04228528007227,-3.4336420565287793 L23.20563960640382,-3.195296143873595 L23.36279594365339,-2.9527249330843994 " />
			<path d="M23.89876867857013,-2.0009776585621 L23.985556488856183,-1.8235700471848881 L24.069162027825158,-1.64469343979792 L24.14955452999702,-1.4644136600865485 L24.226704412237105,-1.282797048080743 L24.30058328464217,-1.099910435743039 L24.371163960987474,-0.9158211223754602 L24.438420468730826,-0.7305968498544693 L24.502328058570072,-0.5443057777030584 L24.562863213550454,-0.3570164580091508 L24.620003657718428,-0.16879781019954843 L24.673728364318897,0.020280904321299698 L24.724017563532684,0.2101501076583665 L24.770852749751505,0.4007399310295876 L24.814216688387766,0.5919802404764289 L24.854093422216565,0.7838006626720533 L24.89046827724772,0.9761306108175498 L24.923327868125554,1.1688993106167445 L24.952660103054495,1.3620358263199814 L24.978454188248627,1.555469086827325 L25.000700631903683,1.749127911841573 L25.019391247689825,1.9429410380614485 L25.03451915776411,2.1368371454053423 L25.0460787953014,2.3307448832559357 L25.0540659065429,2.5245928967160745 L25.05847755236143,2.718309852866206 L25.059312109343008,2.911824467013746 L25.056569270384223,3.1050655289246714 L25.050250044805246,3.2979619290277453 L25.040356757978426,3.4904426845816694 L25.026893050472584,3.682436965795592 L25.009863876713332,3.873874121893313 L24.989275503159956,4.064683707111622 L24.96513550599942,4.2547955066231955 L24.937452768358483,4.444139562374524 L24.90623747703485,4.632646198829313 L24.87150111874857,4.820246048607975 L24.833256475915142,5.006870078013678 L24.791517621941782,5.192449612435641 L24.746299916048628,5.376916361620264 L24.6976199976168,5.560202444800835 L24.6454957800654,5.742240415676551 L24.58994644425963,5.922963287231658 L24.530992431452574,6.102304556385584 L24.468655435763125,6.280198228465 L24.402958396192936,6.456578841488778 L24.33392548818519,6.631381490256938 L24.26158211472848,6.80454185023471 L24.18595489700889,6.975996201222923 L24.10707166461384,7.145681450805988 L24.02496144529126,7.313535157568898 L23.93965445426783,7.479495554074642 L23.851182083130286,7.6435015695936315 L23.759576888273816,7.805492852576718 L23.66487257892184,7.965409792863598 L23.567104004721557,8.123193543618383 L23.466307142919852,8.278786042984269 L23.362519085124248,8.432130035449365 L23.25577802365379,8.583169092915789 L23.146123237484897,8.73184763546429 L23.03359507779735,8.878110951806754 L22.918234953125694,9.021905219419073 L22.800085314121574,9.163177524346963 L22.679189637932602,9.301875880677423 L22.555592412203474,9.437949249668693 " />
			<path d="M21.311098095459723,10.550125313645422 L21.116503562126255,10.689451739272243 L20.91826060083105,10.823398456735124 L20.71649437155602,10.951880899254872 L20.511332258685698,11.074817949902645 " />
			<path d="M20.511332258685663,11.074817949902666 L20.38514254515283,11.146733744513345 L20.257777644482267,11.216559140288377 L20.129267210808926,11.284277879909634 L19.99964116498008,11.34987419654785 L19.86892968758895,11.413332817533584 L19.737163211947763,11.47463896791314 L19.604372417002054,11.533778373888579 L19.47058822018774,11.590737266141064 L19.335841770232644,11.645502383036751 L19.200164439904224,11.698060973714467 L19.06358781870511,11.748400801054462 L18.926143705518143,11.796510144527575 L18.787864101202736,11.84237780292408 L18.64878120114417,11.885993096961657 L18.508927387757577,11.927345871771825 L18.368335222948424,11.966426499264287 L18.227037440531177,12.003225880368609 L18.08506693860796,12.03773544715275 L17.942456771908915,12.069947164817917 L17.79924014409617,12.099853533569284 L17.655450400033086,12.127447590362168 L17.511121018020596,12.152722910523211 L17.36628560200256,12.175673609246232 L17.220977873741806,12.196294342962366 L17.075231664968737,12.214580310584212 L16.92908090950437,12.230527254623649 L16.78255963535959,12.244131462183104 L16.635701956812458,12.255389765820018 L16.48854206646544,12.264299544284318 L16.341114227284436,12.270858723128713 L16.193452764621373,12.27506577519169 L16.04559205822234,12.276919720953073 " />
			<path d="M36.10258213100016,-14.957111586527573 L36.10258213100016,22.249221390485616 " />
			<path d="M47.96216237873918,-3.243069886497128 L47.96442735414905,-3.3644491263917717 L47.971194045272604,-3.486946665009228 L47.98237809876946,-3.609035452217985 L47.997840094610794,-3.7291935333676296 L48.0173872840847,-3.8459230219235216 L48.040775992594966,-3.9577687720691648 L48.06771465730036,-4.063336518504239 L48.09786746172694,-4.161310257308205 L48.13085852204487,-4.2504686512002205 L48.16627657282328,-4.329700254687953 L48.20368009385117,-4.398017369309121 L48.24260281411321,-4.4545683562467815 L48.26248282172154,-4.478205268151417 L48.282559524308354,-4.498648252829725 L48.30277030417658,-4.5158335501788365 L48.32305212545235,-4.529707560573056 L48.3433417306891,-4.540227012036991 L48.363575838162674,-4.547359095207526 L48.38369133924222,-4.551081565663713 L48.403625495221114,-4.551382813305414 " />
			<path d="M48.403625495221114,-4.551382813305414 L48.42094548666939,-4.548821988650019 L48.43803565684531,-4.5436240208194825 L48.454854834031984,-4.535801432173597 L48.471362499358385,-4.525373068013589 L48.48751888441286,-4.512364051182136 L48.50328506704866,-4.496805721540239 L48.5334959281386,-4.458197100562474 L48.56170413552098,-4.409919027205926 L48.587638028738546,-4.352436445708499 L48.61104785022269,-4.286302944753189 L48.631708150595415,-4.2121554261064444 L48.649419959870066,-4.1307079709059895 L48.66401270364106,-4.042744962669113 L48.675345845808685,-3.9491135332506095 L48.683310242018536,-3.850715404499923 L48.687829190781336,-3.7484982041868116 L48.68885917215018,-3.643446339827895 L48.68639026684146,-3.5365715183041417 L48.680446251762916,-3.4289030025705465 L48.671084371029096,-3.3214776992912207 L48.65839478466919,-3.2153301728613877 L48.64249970033668,-3.111482681986708 L48.623552196382825,-3.0109353347731185 L48.601734747628456,-2.9146564571390567 L48.5772574680317,-2.8235732673075264 L48.55035608717574,-2.738562946187742 L48.52128968006399,-2.6604441896434543 L48.490338172086254,-2.5899693240042425 L48.45779964318418,-2.527817060751693 L48.423987457178455,-2.4745859601568103 L48.38922724390394,-2.430788666817402 L48.353853763216335,-2.396846972610363 L48.336043364455755,-2.383677924347852 L48.31820768107177,-2.3730877546053253 L48.30038968078787,-2.3651019760292833 L48.28263228872743,-2.3597398270597862 L48.26497828400326,-2.357014225583371 L48.24747019665907,-2.3569317378127286 " />
			<path d="M48.24747019665907,-2.356931737812729 L48.217746822343265,-2.3629946300922877 L48.18879527289531,-2.37686993858592 L48.16082283322848,-2.3984583200055285 L48.13402977810667,-2.4276052076403305 L48.1086079382337,-2.4641019180108334 L48.08473932679968,-2.5076871449835814 L48.06259483631795,-2.5580488306492324 L48.04233301508305,-2.6148263995690133 L48.02409893200969,-2.6776133403929734 L48.00802313798031,-2.7459601163663834 L47.994220731137645,-2.8193773838858736 L47.98279053281458,-2.8973394960613628 L47.9738143800013,-2.9792882661992603 L47.96735653941558,-3.064636964261466 L47.96346324737123,-3.152774517686651 L47.96216237873918,-3.2430698864971252 " />
			<path d="M53.24776917438888,-6.313431909216303 L53.25003414979875,-6.4348111491109465 L53.2568008409223,-6.557308687728402 L53.26798489441916,-6.67939747493716 L53.28344689026049,-6.799555556086804 L53.3029940797344,-6.916285044642697 L53.326382788244665,-7.028130794788339 L53.353321452950055,-7.1336985412234135 L53.38347425737664,-7.2316722800273805 L53.416465317694566,-7.320830673919396 L53.45188336847298,-7.400062277407128 L53.48928688950087,-7.468379392028296 L53.52820960976291,-7.524930378965956 L53.54808961737124,-7.548567290870592 L53.56816631995805,-7.5690102755489 L53.58837709982628,-7.586195572898011 L53.60865892110205,-7.60006958329223 L53.628948526338796,-7.610589034756165 L53.64918263381237,-7.617721117926701 L53.66929813489192,-7.6214435883828875 L53.68923229087081,-7.621744836024589 " />
			<path d="M53.68923229087081,-7.621744836024589 L53.70655228231909,-7.619184011369193 L53.72364245249501,-7.613986043538657 L53.74046162968168,-7.606163454892772 L53.75696929500808,-7.595735090732763 L53.773125680062556,-7.58272607390131 L53.78889186269836,-7.5671677442594145 L53.8191027237883,-7.5285591232816484 L53.84731093117068,-7.4802810499251 L53.873244824388244,-7.422798468427674 L53.89665464587239,-7.356664967472364 L53.917314946245114,-7.282517448825619 L53.935026755519765,-7.201069993625164 L53.94961949929076,-7.1131069853882885 L53.960952641458384,-7.019475555969785 L53.968917037668234,-6.921077427219098 L53.973435986431035,-6.818860226905986 L53.97446596779988,-6.71380836254707 L53.971997062491155,-6.6069335410233165 L53.966053047412615,-6.499265025289722 L53.956691166678795,-6.3918397220103955 L53.94400158031889,-6.2856921955805625 L53.92810649598638,-6.181844704705883 L53.90915899203252,-6.081297357492294 L53.887341543278154,-5.9850184798582315 L53.8628642636814,-5.893935290026701 L53.83596288282544,-5.808924968906917 L53.806896475713685,-5.730806212362629 L53.77594496773595,-5.660331346723417 L53.74340643883388,-5.598179083470868 L53.709594252828154,-5.544947982875985 L53.67483403955364,-5.501150689536576 L53.639460558866034,-5.467208995329538 L53.62165016010545,-5.454039947067026 L53.60381447672147,-5.4434497773245 L53.58599647643757,-5.435463998748458 L53.568239084377126,-5.430101849778961 L53.55058507965296,-5.427376248302546 L53.53307699230877,-5.427293760531904 " />
			<path d="M53.53307699230877,-5.427293760531904 L53.503353617992964,-5.4333566528114625 L53.47440206854501,-5.447231961305095 L53.44642962887818,-5.468820342724704 L53.41963657375637,-5.497967230359505 L53.3942147338834,-5.534463940730008 L53.37034612244938,-5.578049167702757 L53.34820163196765,-5.628410853368408 L53.32793981073275,-5.6851884222881885 L53.30970572765939,-5.747975363112149 L53.29362993363001,-5.816322139085558 L53.279827526787344,-5.889739406605048 L53.26839732846428,-5.967701518780538 L53.259421175651,-6.049650288918436 L53.25296333506528,-6.134998986980641 L53.24907004302093,-6.223136540405825 L53.24776917438888,-6.3134319092163 " />
			<path d="M16.281556647313803,12.139849987795964 L16.045592058222297,12.276919720953071 " />
			<path d="M-21.236813018235388,-20.11436029656369 L-8.11718186474775,-19.18077834403064 " />
			<path d="M14.488225770218373,-17.57219649056542 L16.281556647313806,-17.444584568996156 " />
			<path d="M-39.40608637828123,-20.33024512628613 L14.629804523673272,-16.485096436896413 " />
			<path d="M16.281556647313803,-17.444584568996156 L14.629804523673272,-16.485096436896413 " />
			<path d="M16.281556647313806,-8.899521495961977 L16.06808996437647,-8.896089535059026 L15.855070646636362,-8.887751084778111 L15.64260212530662,-8.874510193841372 L15.430787564161987,-8.856373291343722 L15.21972980944782,-8.833349183631217 L15.009531339943244,-8.805449050025135 L14.80029421720271,-8.772686437393881 L14.592120036000233,-8.735077253575335 " />
			<path d="M16.281556647313803,-17.444584568996156 L16.281556647313803,-8.899521495961976 " />
			<path d="M14.629804523673272,12.176173467082599 L14.629804523673272,20.721236540116777 " />
			<path d="M14.629804523673275,-7.940033363862234 L14.50658697231726,-7.93865206277756 " />
			<path d="M11.016050610076368,-7.172727088654327 L10.798620451829716,-7.072712031957604 L10.584056024081262,-6.966862605094976 L10.372492791312165,-6.855245635722083 L10.16406432320994,-6.737931592811847 " />
			<path d="M10.164064323209903,-6.737931592811826 L10.003824481749376,-6.642564048707882 L9.845631593126736,-6.543815150471152 L9.68954636619898,-6.441722794449529 L9.535628700976797,-6.336326160092202 L9.383937665637074,-6.227665694913963 L9.234531473854595,-6.1157830989728765 L9.087467462461687,-6.0007213088672735 L8.94280206944437,-5.882524481258185 L8.800590812283444,-5.761237975923583 L8.66088826664883,-5.636908338350887 L8.52374804545536,-5.50958328187445 L8.389222778288023,-5.379311669364869 L8.257364091204586,-5.246143494477117 L8.12822258692333,-5.1101298624647615 L8.001847825403516,-4.9713229705675595 L7.878288304826015,-4.8297760879799885 L7.757591442981409,-4.685543535408426 L7.639803559072724,-4.538680664224751 L7.524969855939748,-4.389243835224459 L7.413134402711767,-4.2372903969973645 L7.304340117895398,-4.082878663919239 L7.198628752903971,-3.9260678937727946 L7.096040876034804,-3.766918265006653 L6.996615856900531,-3.6054908536409624 L6.900391851320421,-3.4418476098285837 L6.807405786677524,-3.276051334080797 L6.717693347747241,-3.108165653166678 L6.631288963002772,-2.9382549956953956 L6.548225791402663,-2.766384567390769 L6.468535709665584,-2.5926203260676135 L6.392249300037159,-2.4170289563194625 L6.319395838553582,-2.239677843927358 L6.250003283806501,-2.0606350499995636 L6.184098266213498,-1.8799692848521183 L6.121706077798269,-1.6977498816402328 L6.062850662484445,-1.5140467697506654 L6.0075546069067585,-1.3289304479652864 L5.955839131743069,-1.1424719574061357 L5.907724083570638,-0.9547428542723386 L5.863227927249703,-0.7658151823793586 L5.822367738837309,-0.5757614455111177 L5.785159199034133,-0.3846545795956038 L5.751616587166771,-0.19256792471462525 L5.721752775707838,0.00042480304152681114 L5.695579225335969,0.1942495398637154 L5.6731059805376205,0.38883190264702683 L5.6543416657523355,0.584097217536415 L5.639293482063,0.7799705485838784 L5.627967204432316,0.9763767265062204 L5.620367179486578,1.1732403775323899 L5.616496323847585,1.370485952329289 L5.616356123013347,1.5680377549949358 L5.619946630788007,1.7658199721078647 L5.627266469261182,1.9637567018216648 L5.638312829336773,2.1617719829934465 L5.653081471810982,2.359789824335041 L5.671566728999174,2.5577342335757614 L5.693761506910937,2.755529246625566 L5.719657287972506,2.953098956727433 L5.749244134295504,3.150367543587671 L5.782510691490755,3.347259302473061 L5.819444193025694,3.543698673263684 L5.860030465123726,3.7396102694502495 L5.904253932203611,3.9349189070647683 L5.9520976228568205,4.129549633533486 L6.003543176360573,4.32342775644106 L6.058570849724031,4.5164788721949 L6.11715952526497,4.7086288945786166 L6.179286718713987,4.899804083183697 L6.244928587843182,5.089931071708478 L6.314059941615966,5.278936896113581 L6.386654249854491,5.466749022622912 L6.462683653420992,5.653295375559548 L6.542118974909144,5.838504365005874 L6.624929729841332,6.022304914277275 L6.711084138367516,6.204626487198855 L6.800549137461207,6.3853991151747085 L6.893290393607893,6.564553424039435 L6.989272315981058,6.742020660681495 L7.088458070100659,6.9177327194282405 L7.190809591968899,7.091622168182431 L7.296287602677872,7.26362227430033 L7.404851623483406,7.433667030201352 L7.516459991339397,7.601691178699433 L7.6310698748865855,7.767630238046417 L7.748637290889753,7.931420526677906 L7.869117121116926,8.092999187652005 L7.99246312965418,8.252304212771593 L8.118627980649322,8.409274466380865 L8.247563256477733,8.563849708827064 L8.379219476323382,8.715970619578343 L8.513546115167781,8.865578819988889 L8.650491623179708,9.01261689570257 L8.790003445498229,9.15702841868656 L8.932028042401406,9.298757968886443 L9.076510909852953,9.43775115549446 L9.223396600418948,9.573954637822775 L9.372628744546617,9.707316145773769 L9.524150072196987,9.83778449989946 L9.677902434823121,9.965309631042377 L9.833826827685439,10.089842599550314 L9.991863412495686,10.211335614057662 L10.151951540380773,10.329742049826061 L10.314029775157662,10.445016466637322 L10.478035916910393,10.557114626231765 L10.643907025860234,10.665993509285325 L10.811579446519765,10.771611331918853 L10.980988832121604,10.873927561733298 L11.152070169312402,10.972902933364589 L11.324757803102703,11.068499463552321 L11.498985462063024,11.160680465716396 L11.674686283756483,11.249410564036031 L11.851792840398227,11.334655707025743 L12.030237164731863,11.416383180603116 L12.209950776112906,11.494561620643326 L12.390864706789223,11.569161025015575 L12.57290952836841,11.640152765096849 L12.756015378461978,11.707509596758571 L12.9401119874961,11.77120567082196 L13.125128705678573,11.83121654297802 L13.310994530111698,11.88751918316839 L13.497638132040722,11.940091984423498 L13.684987884227306,11.988914771154537 L13.872971888437524,12.03396880689615 L14.061518003033852,12.07523680149682 L14.250553870660614,12.112702917754229 L14.440006946012174,12.146352777493012 L14.62980452367318,12.176173467082586 " />
			<path d="M14.629804523673272,-16.485096436896413 L14.629804523673272,-7.9400333638622325 " />
			<path d="M16.281556647313803,-8.899521495961977 L14.629804523673272,-7.940033363862235 " />
			<path d="M16.281556647313803,11.216685334982856 L14.629804523673272,12.176173467082599 " />
			<path d="M25.64703109866512,-15.619314201584855 L23.99527897502459,-14.659826069485112 " />
			<path d="M24.039688506746554,-18.386343256763805 L22.387936383106023,-17.426855124664062 " />
			<path d="M25.64703109866512,-1.77255085888449 L23.99527897502459,-0.8130627267847477 " />
			<path d="M24.039688506746554,-4.539579914063439 L22.387936383106023,-3.580091781963697 " />
			<path d="M48.24747019665907,-2.35693173781273 L43.528178414828986,-2.6927525840476396 " />
			<path d="M48.403625495221114,-4.551382813305414 L43.68433371339103,-4.887203659540324 " />
			<path d="M53.53307699230877,-5.427293760531905 L48.813785210478684,-5.763114606766814 " />
			<path d="M53.68923229087081,-7.62174483602459 L48.969940509040725,-7.957565682259499 " />
			<path d="M22.163084382326197,10.11532981780292 L20.511332258685666,11.074817949902663 " />
			<path d="M11.815816446850432,-7.697419724911568 L10.164064323209901,-6.737931592811826 " />

       </g>

       <!-- solid lines -->
       <g  stroke="rgb(0,0,0)" fill="none">
			<path d="M-21.236813018235388,-30.884614579383296 L-19.585060894594857,-31.84410271148304 " />
			<path d="M-19.585060894594857,-31.84410271148304 L-19.585060894594857,5.362230265530151 " />
			<path d="M-21.236813018235388,6.321718397629893 L-19.585060894594857,5.362230265530151 " />
			<path d="M-21.236813018235388,-30.884614579383296 L-21.236813018235388,6.321718397629894 " />
			<path d="M-19.585060894594857,-31.84410271148304 L-8.117181864747746,-31.02805805513221 " />
			<path d="M-19.585060894594857,5.362230265530151 L-8.117181864747746,6.178274921880982 " />
			<path d="M-8.11718186474775,-10.496882041844863 L-8.11718186474775,6.178274921880977 " />
			<path d="M-8.11718186474775,-14.352901091406371 L-8.150315406645422,-14.115784097718658 L-8.179055388427885,-13.877744459192996 L-8.203391427443183,-13.638868170411348 L-8.223314732014785,-13.399241528205298 L-8.238818104617701,-13.158951100480316 L-8.249895944478654,-12.91808369494208 L-8.256544249599429,-12.676726327736215 L-8.258760618202649,-12.434966192012665 L-8.25654424959943,-12.192890626426198 L-8.249895944478654,-11.950587083584285 L-8.238818104617703,-11.708143098453798 L-8.223314732014785,-11.465646256738031 L-8.203391427443183,-11.22318416323533 L-8.179055388427887,-10.980844410190853 L-8.150315406645424,-10.738714545652835 L-8.117181864747767,-10.496882041844978 " />
			<path d="M-8.11718186474775,-31.028058055132206 L-8.11718186474775,-14.352901091406363 " />
			<path d="M-21.236813018235388,6.321718397629893 L-9.768933988388277,7.137763053980724 " />
			<path d="M-8.11718186474775,6.178274921880982 L-9.768933988388282,7.137763053980724 " />
			<path d="M23.34184288486577,-16.942180520133565 L24.421192862651626,-16.865374880711304 " />
			<path d="M16.139977893858905,-29.30193890548477 L55.923607614686546,-26.47096917172448 " />
			<path d="M16.1399778938589,-29.30193890548477 L14.48822577021837,-28.34245077338503 " />
			<path d="M14.488225770218374,8.86388220362816 L49.55256370921593,11.359031091153541 " />
			<path d="M14.48822577021837,-7.811274760097032 L14.48822577021837,8.863882203628155 " />
			<path d="M14.488225770218282,-11.667293809659842 L14.521359312115978,-11.425461305851787 L14.55009929389846,-11.183331441313685 L14.574435332913772,-10.940991688269126 L14.594358637485389,-10.698529594766342 L14.609862010088314,-10.456032753050492 L14.620939849949275,-10.213588767919925 L14.627588155070057,-9.971285225077926 L14.629804523673275,-9.729209659491385 L14.627588155070057,-9.487449523767767 L14.620939849949274,-9.246092156561819 L14.609862010088317,-9.0052247510235 L14.59435863748539,-8.764934323298437 L14.574435332913772,-8.525307681092304 L14.55009929389846,-8.286431392310575 L14.521359312115978,-8.048391753784836 L14.488225770218289,-7.811274760097097 " />
			<path d="M14.48822577021837,-28.34245077338503 L14.48822577021837,-11.667293809659839 " />
			<path d="M24.701781049250936,-15.935877926279417 L24.70066645257635,-15.875779819044304 L24.697324307828254,-15.815929051206998 L24.69175954840502,-15.756413969533666 L24.683980388545454,-15.697322425278252 L24.6739983112036,-15.638741644503698 L24.66182805109858,-15.580758099326037 L24.647487572964387,-15.523457380271378 L24.63099804503184,-15.466924069934242 " />
			<path d="M23.403969436739303,-17.57924525631468 L23.47053695060006,-17.563121484157573 L23.53654777045748,-17.543964495366126 L23.6018701502694,-17.52181252393681 L23.66637371799947,-17.49670978132721 L23.729929735816953,-17.468706368217685 L23.792411357034865,-17.4378581745192 L23.85369387927379,-17.404226767826838 L23.913654993345986,-17.367879270541653 L23.972175027363107,-17.328888225906102 L24.02913718558037,-17.287331453220446 L24.084427781500395,-17.243291892529037 L24.13793646477157,-17.196857439086507 L24.189556441428028,-17.14812076793423 L24.239184687031713,-17.097179148937162 L24.286722152291127,-17.0441342526502 L24.332073960746378,-16.98909194740157 L24.375149598125986,-16.932162087998165 L24.415863092997526,-16.87345829647459 L24.45413318835156,-16.813097735323446 L24.489883503776404,-16.751200873659524 L24.523042687900055,-16.68789124678453 L24.553544560795057,-16.623295209632246 L24.581328246062036,-16.5575416845862 L24.60633829232834,-16.490761904173155 L24.62852478391928,-16.42308914914595 L24.647843440481072,-16.354658482478463 L24.664255705356677,-16.285606479803523 L24.677728822538146,-16.216070956831896 L24.688235902041857,-16.146190694296216 L24.695755973576244,-16.076105160968943 L24.7002740283948,-16.005954235307115 L24.701781049250933,-15.935877926279424 " />
			<path d="M24.701781049250936,-2.0891145835790503 L24.70066645257635,-2.029016476343937 L24.697324307828254,-1.9691657085066316 L24.69175954840502,-1.9096506268333002 L24.683980388545454,-1.8505590825778855 L24.6739983112036,-1.7919783018033326 L24.66182805109858,-1.733994756625672 L24.647487572964387,-1.6766940375710129 L24.63099804503184,-1.6201607272338787 " />
			<path d="M23.403969436739303,-3.732481913614315 L23.47053695060006,-3.716358141457204 L23.53654777045748,-3.697201152665758 L23.6018701502694,-3.675049181236443 L23.66637371799947,-3.6499464386268397 L23.729929735816953,-3.6219430255173157 L23.792411357034865,-3.5910948318188334 L23.85369387927379,-3.5574634251264716 L23.913654993345986,-3.521115927841284 L23.972175027363107,-3.482124883205733 L24.02913718558037,-3.4405681105200774 L24.084427781500395,-3.396528549828668 L24.13793646477157,-3.3500940963861394 L24.189556441428028,-3.3013574252338644 L24.239184687031713,-3.2504158062367936 L24.286722152291127,-3.1973709099498304 L24.332073960746378,-3.1423286047012007 L24.375149598125986,-3.0853987452977987 L24.415863092997526,-3.0266949537742223 L24.45413318835156,-2.966334392623078 L24.489883503776404,-2.9044375309591564 L24.523042687900055,-2.8411279040841624 L24.553544560795057,-2.77653186693188 L24.581328246062036,-2.7107783418858347 L24.60633829232834,-2.643998561472789 L24.62852478391928,-2.576325806445585 L24.647843440481072,-2.507895139778094 L24.664255705356677,-2.4388431371031563 L24.677728822538146,-2.369307614131529 L24.688235902041857,-2.299427351595847 L24.695755973576244,-2.229341818268576 L24.7002740283948,-2.159190892606747 L24.701781049250933,-2.0891145835790557 " />
			<path d="M33.03504247281061,10.183658129331356 L33.03504247281061,20.953912412150963 " />
			<path d="M33.03504247281061,20.953912412150963 L49.55256370921592,11.35903109115354 " />
			<path d="M17.69734418186283,19.862494661887506 L33.03504247281062,20.953912412150963 " />
			<path d="M17.697344181862828,11.317431588853328 L17.697344181862828,19.862494661887506 " />
			<path d="M17.697344181862825,11.317431588853328 L17.845204888261893,11.315577643091943 L17.99286635092496,11.31137059102897 L18.140294190105966,11.304811412184575 L18.287454080452985,11.295901633720275 L18.434311759000124,11.28464333008336 L18.5808330331449,11.271039122523907 L18.726983788609257,11.255092178484471 L18.872729997382326,11.236806210862623 L19.018037725643087,11.216185477146487 L19.162873141661123,11.193234778423466 L19.307202523673617,11.167959458262423 L19.4509922677367,11.140365401469541 L19.594208895549436,11.110459032718175 L19.736819062248482,11.078247315053007 L19.878789564171704,11.043737748268864 L20.02008734658895,11.006938367164544 L20.160679511398104,10.967857739672082 L20.300533324784702,10.926504964861913 L20.43961622484327,10.882889670824335 L20.57789582915867,10.837022012427832 L20.71533994234563,10.78891266895472 L20.851916563544755,10.738572841614724 L20.98759389387317,10.686014250937008 L21.12234034382827,10.63124913404132 L21.25612454064259,10.574290241788832 L21.38891533558829,10.515150835813397 L21.520681811229473,10.453844685433845 L21.651393288620607,10.390386064448107 L21.781019334449454,10.324789747809891 L21.909529768122802,10.257071008188632 L22.036894668793366,10.187245612413598 L22.163084382326115,10.115329817802966 " />
			<path d="M22.16308438232619,10.115329817802923 L22.2861885942709,10.04247460780598 L22.4080965919645,9.967624437584785 L22.5287808437301,9.890796211286247 L22.648214094261323,9.812007279781046 L22.766369370777667,9.73127543674512 L22.883219989116,9.648618914641144 L22.998739559756938,9.564056380600913 L23.112901993784618,9.477606932209564 " />
			<path d="M16.045592058222297,20.821982793987246 L36.10258213100017,22.249221390485616 " />
			<path d="M16.045592058222297,19.898818141174143 L16.045592058222297,20.82198279398725 " />
			<path d="M23.362795943653403,-2.95272493308438 L23.505503725384724,-2.719779652205333 L23.64246532650044,-2.4833954290669147 L23.77358439234277,-2.2437385637177383 L23.89876867857012,-2.0009776585621215 " />
			<path d="M22.555592412203445,9.437949249668725 L22.41137508237793,9.589888610055624 L22.263771249798374,9.738274974435807 L22.11285157938209,9.883037303257076 L21.95868832349437,10.024106291964006 L21.80135528735788,10.161414404177311 L21.640927793718596,10.294895904026683 L21.477482646785298,10.424486887621658 L21.31109809545976,10.550125313645397 " />
			<path d="M55.92360761468653,-26.47096917172448 L55.92360761468653,10.73536380528871 " />
			<path d="M55.92360761468653,10.735363805288708 L36.10258213100016,22.249221390485616 " />
			<path d="M16.139977893858905,7.904394071528419 L55.923607614686546,10.735363805288708 " />
			<path d="M16.1399778938589,-8.7707628921974 L16.1399778938589,7.904394071528412 " />
			<path d="M16.1399778938589,-8.770762892197395 L16.173111435756574,-9.007879885885114 L16.20185141753904,-9.24591952441078 L16.226187456554335,-9.484795813192433 L16.24611076112594,-9.724422455398487 L16.261614133728855,-9.964712883123475 L16.27269197358981,-10.205580288661714 L16.279340278710585,-10.446937655867584 L16.281556647313806,-10.688697791591128 L16.279340278710585,-10.930773357177586 L16.272691973589808,-11.173076900019506 L16.261614133728855,-11.415520885149997 L16.24611076112594,-11.65801772686577 L16.22618745655434,-11.900479820368476 L16.201851417539043,-12.142819573412957 L16.173111435756574,-12.384949437950977 L16.139977893858905,-12.626781941758924 " />
			<path d="M16.1399778938589,-29.30193890548477 L16.1399778938589,-12.626781941758956 " />
			<path d="M26.353533172891467,-16.895366058379157 L26.3501827918318,-16.999898857201924 L26.340146514566158,-17.104444656105017 L26.323468872873384,-17.208539576872305 L26.300223866806643,-17.311721741870613 L26.270514636349198,-17.413533323438397 L26.23447300377389,-17.513522575304293 L26.192258888736994,-17.611245837022118 L26.144059598701695,-17.706269502528333 L26.090088997839636,-17.798171944087454 L26.030586558098182,-17.886545383088606 L25.965816296643897,-17.970997699392402 L25.89606560439692,-18.05115417119991 L25.821643970854034,-18.12665913772376 L25.742881610858618,-18.19717757728399 L25.660127999410495,-18.262396593826516 L25.573750321016945,-18.32202680526837 L25.48413184046515,-18.375803627509544 L25.39167020224516,-18.42348844841419 L25.29677566616893,-18.464869686552056 L25.199869287014163,-18.499763730002524 L25.101381046269992,-18.52801575105564 L25.001747944274133,-18.549500393195256 L24.901412061206827,-18.564122327316092 L24.800818595545103,-18.571816674706728 L24.700413888680934,-18.57254929492175 L24.600643444468144,-18.566316937265643 L24.50194995248556,-18.55314725521643 L24.404771323787344,-18.53309868372492 L24.309538747856006,-18.50626017993408 L24.216674779379588,-18.472750828468957 L24.12659146334213,-18.432719313048498 L24.03968850674656,-18.38634325676381 " />
			<path d="M24.039688506746554,-18.386343256763805 L23.97792020722033,-18.34823376069941 L23.91823682748318,-18.306883066070508 L23.860782150024548,-18.262390790322357 L23.80569458819486,-18.21486411924429 L23.753106852755668,-18.164417548749782 L23.70314563216779,-18.111172609045756 L23.6559312873877,-18.05525757185566 L23.611577561907467,-17.996807141401664 L23.570191307736696,-17.935962129890388 L23.5318722279867,-17.87286911828395 L23.496712636676943,-17.807680103173613 L23.464797236342513,-17.74055213060666 L23.43620291397827,-17.671646917748713 L23.41099855581136,-17.601130463292936 L23.389244881348247,-17.529172647554628 L23.37099429709611,-17.455946823214656 L23.35629077031097,-17.381629397697687 L23.345169723076737,-17.306399408191222 L23.337657946970282,-17.230438090329354 L23.3337735385182,-17.15392844158024 L23.333525855600687,-17.07705478038917 L23.336915494907583,-17.000002302139286 L23.343934290500904,-16.922956632999696 L23.35456533348729,-16.846103382735762 L23.368783012753017,-16.769627697558917 L23.386553076663414,-16.69371381409323 L23.407832715578046,-16.618544615533242 L23.432570664982894,-16.544301191062328 L23.460707328991045,-16.471162399592995 L23.492174923914433,-16.399304438880094 L23.526897641560645,-16.328900421045 L23.564791831861523,-16.260119955533334 L23.605766204393493,-16.193128740510975 L23.649722048304195,-16.12808816368265 L23.696553470115568,-16.06515491349482 L23.746147648830522,-16.004480601659484 L23.7983851077286,-15.9462113979083 L23.853140002195847,-15.890487677856886 L23.910280422895536,-15.837443684827665 L23.969668713549286,-15.787207206445949 L24.03116180256312,-15.739899266788356 L24.094611547699436,-15.695633834825205 L24.159865092964665,-15.654517549859294 L24.226765236852728,-15.616649464622462 L24.295150811057237,-15.5821208066489 L24.36485706874006,-15.55101475850002 L24.4357160814209,-15.523406257370379 L24.507557143531688,-15.499361814557416 L24.580207183661265,-15.478939355229915 L24.653491181499568,-15.46218807888119 L24.727232589476884,-15.449148340803207 L24.80125375808241,-15.439851554867138 L24.87537636383749,-15.434320117844608 L24.94942183889248,-15.432567355451898 L25.023211801212362,-15.434597490247139 L25.09656848431467,-15.44040563145779 L25.169315165524516,-15.449977786762938 L25.241276591715017,-15.463290896002034 L25.3122794015074,-15.48031288672883 L25.382152542913765,-15.501002751476717 L25.450727685416297,-15.525310646549297 L25.51783962549024,-15.553178012098218 L25.583326684593636,-15.584537713198984 L25.64703109866511,-15.619314201584848 " />
			<path d="M25.64703109866512,-15.619314201584855 L25.72605830915355,-15.668903129930323 L25.80157189540946,-15.723801813844261 L25.873271271938908,-15.783791726451724 L25.94087103589484,-15.848634074994926 L26.00410210313697,-15.918070751359412 L26.062712779334223,-15.991825359485915 L26.116469761846275,-16.069604315578292 L26.165159068395997,-16.151098016728064 L26.208586888836322,-16.235982073303813 L26.24658035662091,-16.323918600199853 L26.27898823690784,-16.414557561804287 L26.305681528557233,-16.507538165332743 L26.326553977626553,-16.602490296981554 L26.341522500319567,-16.699035995183706 L26.350527513705437,-16.79679095510322 L26.353533172891467,-16.895366058379153 " />
			<path d="M26.353533172891467,-3.048602715678793 L26.3501827918318,-3.153135514501557 L26.340146514566158,-3.257681313404653 L26.323468872873384,-3.3617762341719395 L26.300223866806643,-3.46495839917025 L26.270514636349198,-3.566769980738031 L26.23447300377389,-3.6667592326039284 L26.192258888736994,-3.764482494321751 L26.144059598701695,-3.859506159827967 L26.090088997839636,-3.9514086013870884 L26.030586558098182,-4.039782040388241 L25.965816296643897,-4.124234356692039 L25.89606560439692,-4.204390828499546 L25.821643970854034,-4.2798957950233945 L25.742881610858618,-4.350414234583625 L25.660127999410495,-4.415633251126152 L25.573750321016945,-4.4752634625680034 L25.48413184046515,-4.529040284809179 L25.39167020224516,-4.576725105713824 L25.29677566616893,-4.61810634385169 L25.199869287014163,-4.653000387302161 L25.101381046269992,-4.681252408355277 L25.001747944274133,-4.702737050494893 L24.901412061206827,-4.717358984615726 L24.800818595545103,-4.725053332006365 L24.700413888680934,-4.725785952221383 L24.600643444468144,-4.719553594565277 L24.50194995248556,-4.706383912516065 L24.404771323787344,-4.686335341024556 L24.309538747856006,-4.659496837233716 L24.216674779379588,-4.625987485768591 L24.12659146334213,-4.585955970348132 L24.03968850674656,-4.5395799140634425 " />
			<path d="M24.039688506746554,-4.539579914063439 L23.97792020722033,-4.5014704179990455 L23.91823682748318,-4.460119723370144 L23.860782150024548,-4.41562744762199 L23.80569458819486,-4.368100776543924 L23.753106852755668,-4.3176542060494185 L23.70314563216779,-4.264409266345391 L23.6559312873877,-4.208494229155295 L23.611577561907467,-4.1500437987013 L23.570191307736696,-4.089198787190022 L23.5318722279867,-4.026105775583588 L23.496712636676943,-3.96091676047325 L23.464797236342513,-3.893788787906294 L23.43620291397827,-3.8248835750483487 L23.41099855581136,-3.754367120592573 L23.389244881348247,-3.6824093048542625 L23.37099429709611,-3.6091834805142926 L23.35629077031097,-3.5348660549973214 L23.345169723076737,-3.459636065490857 L23.337657946970282,-3.383674747628991 L23.3337735385182,-3.3071650988798766 L23.333525855600687,-3.2302914376888046 L23.336915494907583,-3.153238959438922 L23.343934290500904,-3.0761932902993325 L23.35456533348729,-2.9993400400353973 L23.368783012753017,-2.9228643548585516 L23.386553076663414,-2.8469504713928653 L23.407832715578046,-2.7717812728328783 L23.432570664982894,-2.6975378483619643 L23.460707328991045,-2.624399056892631 L23.492174923914433,-2.5525410961797306 L23.526897641560645,-2.482137078344634 L23.564791831861523,-2.4133566128329695 L23.605766204393493,-2.3463653978106107 L23.649722048304195,-2.2813248209822854 L23.696553470115568,-2.2183915707944535 L23.746147648830522,-2.157717258959119 L23.7983851077286,-2.0994480552079358 L23.853140002195847,-2.0437243351565217 L23.910280422895536,-1.9906803421273005 L23.969668713549286,-1.9404438637455843 L24.03116180256312,-1.893135924087991 L24.094611547699436,-1.8488704921248416 L24.159865092964665,-1.807754207158929 L24.226765236852728,-1.769886121922098 L24.295150811057237,-1.735357463948536 L24.36485706874006,-1.7042514157996551 L24.4357160814209,-1.6766429146700137 L24.507557143531688,-1.6525984718570517 L24.580207183661265,-1.6321760125295506 L24.653491181499568,-1.6154247361808267 L24.727232589476884,-1.6023849981028424 L24.80125375808241,-1.593088212166774 L24.87537636383749,-1.587556775144243 L24.94942183889248,-1.585804012751534 L25.023211801212362,-1.5878341475467743 L25.09656848431467,-1.593642288757424 L25.169315165524516,-1.603214444062573 L25.241276591715017,-1.6165275533016696 L25.3122794015074,-1.6335495440284664 L25.382152542913765,-1.6542394087763528 L25.450727685416297,-1.678547303848932 L25.51783962549024,-1.706414669397854 L25.583326684593636,-1.7377743704986186 L25.64703109866511,-1.7725508588844827 " />
			<path d="M25.64703109866512,-1.7725508588844894 L25.72605830915355,-1.8221397872299587 L25.80157189540946,-1.8770384711438974 L25.873271271938908,-1.937028383751359 L25.94087103589484,-2.001870732294562 L26.00410210313697,-2.071307408659047 L26.062712779334223,-2.14506201678555 L26.116469761846275,-2.2228409728779264 L26.165159068395997,-2.3043346740276975 L26.208586888836322,-2.3892187306034463 L26.24658035662091,-2.4771552574994877 L26.27898823690784,-2.567794219103923 L26.305681528557233,-2.6607748226323786 L26.326553977626553,-2.755726954281187 L26.341522500319567,-2.852272652483342 L26.350527513705437,-2.9500276124028537 L26.353533172891467,-3.048602715678789 " />
			<path d="M16.1399778938589,-12.626781941758955 L14.48822577021837,-11.667293809659212 " />
			<path d="M17.697344181862828,19.862494661887506 L16.045592058222297,20.82198279398725 " />
			<path d="M16.1399778938589,7.90439407152842 L14.48822577021837,8.863882203628162 " />
			<path d="M16.1399778938589,-8.7707628921974 L14.48822577021837,-7.811274760097657 " />
			<path d="M17.697344181862828,11.317431588853328 L16.281556647313803,12.139849987795964 " />
			<path d="M-37.754334254640696,-21.289733258385873 L-21.236813018235388,-20.11436029656369 " />
			<path d="M-8.11718186474775,-19.18077834403064 L14.488225770218373,-17.57219649056542 " />
			<path d="M-39.40608637828123,-20.33024512628613 L-37.7543342546407,-21.289733258385873 " />
			<path d="M-37.754334254640696,15.916599718627316 L16.281556647313806,19.761748408017034 " />
			<path d="M16.281556647313803,11.216685334982856 L16.281556647313803,19.761748408017034 " />
			<path d="M14.592120036000193,-8.735077253575326 L14.40886868434717,-8.697768370957274 L14.226598558297919,-8.656692612617876 L14.045378963200289,-8.611865596968014 L13.865278804954265,-8.563304368775142 L13.686366563811585,-8.511027392682292 L13.508710268337204,-8.455054546187172 L13.332377469542479,-8.395407112084065 L13.157435215199985,-8.33210777037138 L12.98395002434965,-8.265180589627946 L12.811987862005932,-8.194651017861302 L12.64161411407565,-8.120545872831505 L12.472893562496044,-8.042893331854081 L12.30589036060244,-7.961722921086073 L12.140668008734977,-7.8770655042991535 L11.97728933009358,-7.7889532711441785 L11.815816446850471,-7.69741972491159 " />
			<path d="M11.815816446850434,-7.697419724911569 L11.655576605389907,-7.602052180807625 L11.497383716767267,-7.503303282570895 L11.341298489839511,-7.401210926549272 L11.187380824617328,-7.295814292191945 L11.035689789277605,-7.187153827013706 L10.886283597495126,-7.07527123107262 L10.739219586102218,-6.9602094409670165 L10.594554193084901,-6.842012613357928 L10.452342935923975,-6.720726108023326 L10.31264039028936,-6.59639647045063 L10.17550016909589,-6.469071413974193 L10.040974901928553,-6.338799801464612 L9.909116214845117,-6.205631626576859 L9.779974710563861,-6.069617994564505 L9.653599949044047,-5.930811102667302 L9.530040428466545,-5.7892642200797315 L9.409343566621938,-5.645031667508168 L9.291555682713255,-5.498168796324493 L9.176721979580279,-5.348731967324201 L9.064886526352298,-5.196778529097108 L8.956092241535929,-5.042366796018981 L8.850380876544502,-4.885556025872537 L8.747792999675335,-4.726406397106396 L8.648367980541062,-4.564978985740705 L8.552143974960952,-4.401335741928326 L8.459157910318055,-4.23553946618054 L8.369445471387772,-4.067653785266421 L8.283041086643303,-3.897743127795138 L8.199977915043194,-3.7258726994905116 L8.120287833306115,-3.552108458167356 L8.04400142367769,-3.376517088419205 L7.971147962194113,-3.1991659760271007 L7.901755407447032,-3.020123182099306 L7.835850389854029,-2.839457416951861 L7.7734582014388,-2.657238013739975 L7.714602786124976,-2.4735349018504076 L7.659306730547289,-2.288418580065029 L7.6075912553836,-2.1019600895058783 L7.559476207211169,-1.914230986372081 L7.514980050890234,-1.725303314479101 L7.47411986247784,-1.5352495776108601 L7.436911322674664,-1.3441427116953462 L7.403368710807301,-1.1520560568143676 L7.373504899348369,-0.9590633290582156 L7.3473313489765,-0.765238592236027 L7.324858104178151,-0.5706562294527155 L7.306093789392866,-0.3753909145633274 L7.29104560570353,-0.179517583515864 L7.279719328072847,0.016888594406478052 L7.272119303127109,0.21375224543264748 L7.268248447488116,0.41099782022954656 L7.268108246653878,0.6085496228951935 L7.271698754428538,0.8063318400081223 L7.279018592901712,1.0042685697219225 L7.290064952977303,1.202283850893704 L7.3048335954515125,1.4003016922352982 L7.323318852639705,1.598246101476019 L7.345513630551467,1.7960411145258237 L7.371409411613037,1.9936108246276907 L7.400996257936034,2.190879411487929 L7.4342628151312855,2.387771170373319 L7.471196316666225,2.5842105411639418 L7.511782588764257,2.7801221373505074 L7.556006055844142,2.9754307749650257 L7.603849746497351,3.170061501433744 L7.655295300001104,3.3639396243413175 L7.710322973364562,3.5569907400951575 L7.768911648905501,3.7491407624788744 L7.831038842354518,3.9403159510839547 L7.896680711483713,4.130442939608736 L7.965812065256497,4.319448764013839 L8.038406373495022,4.507260890523169 L8.114435777061523,4.693807243459805 L8.193871098549675,4.879016232906132 L8.276681853481863,5.062816782177533 L8.362836262008047,5.245138355099112 L8.452301261101738,5.425910983074965 L8.545042517248424,5.605065291939692 L8.641024439621589,5.782532528581753 L8.74021019374119,5.9582445873284975 L8.84256171560943,6.132134036082688 L8.948039726318402,6.304134142200587 L9.056603747123937,6.474178898101609 L9.168212114979926,6.64220304659969 L9.282821998527115,6.808142105946675 L9.400389414530284,6.971932394578163 L9.520869244757456,7.133511055552263 L9.64421525329471,7.292816080671851 L9.770380104289853,7.449786334281122 L9.899315380118264,7.604361576727321 L10.030971599963912,7.7564824874786 L10.165298238808312,7.9060906878891455 L10.302243746820238,8.053128763602828 L10.44175556913876,8.197540286586818 L10.583780166041937,8.3392698367867 L10.728263033493484,8.478263023394717 L10.875148724059478,8.614466505723033 L11.024380868187148,8.747828013674026 L11.175902195837518,8.878296367799718 L11.329654558463652,9.005821498942634 L11.48557895132597,9.130354467450571 L11.643615536136217,9.251847481957919 L11.803703664021304,9.370253917726318 L11.965781898798193,9.485528334537578 L12.129788040550924,9.597626494132022 L12.295659149500764,9.706505377185582 L12.463331570160296,9.81212319981911 L12.632740955762134,9.914439429633555 L12.803822292952933,10.013414801264846 L12.976509926743233,10.109011331452578 L13.150737585703554,10.201192333616653 L13.326438407397013,10.289922431936288 L13.503544964038758,10.375167574926 L13.681989288372394,10.456895048503373 L13.861702899753437,10.535073488543583 L14.042616830429754,10.609672892915832 L14.22466165200894,10.680664632997106 L14.407767502102509,10.748021464658828 L14.591864111136632,10.811717538722217 L14.776880829319104,10.871728410878276 L14.962746653752228,10.928031051068647 L15.149390255681253,10.980603852323755 L15.336740007867837,11.029426639054794 L15.524724012078055,11.074480674796407 L15.713270126674383,11.115748669397076 L15.902305994301145,11.153214785654486 L16.091759069652706,11.18686464539327 L16.28155664731371,11.216685334982843 " />
			<path d="M-37.754334254640696,-21.289733258385873 L-37.754334254640696,15.916599718627317 " />
			<path d="M-39.40608637828123,16.876087850727057 L-37.7543342546407,15.916599718627314 " />
			<path d="M-39.40608637828123,-20.33024512628613 L-39.40608637828123,16.87608785072706 " />
			<path d="M-39.40608637828123,16.876087850727057 L14.629804523673272,20.721236540116774 " />
			<path d="M14.506586972317216,-7.938652062777562 L14.279780699190143,-7.9318227508909835 L14.05355571657886,-7.919443678949889 L13.828036327583956,-7.901521648842415 L13.603346447605801,-7.87806650812777 L13.379609536257178,-7.8490911446253335 L13.156948529526307,-7.814611479333234 L12.935485772227619,-7.774646457680284 L12.715342950777346,-7.729218039116091 L12.496641026330906,-7.678351185045084 L12.279500168318751,-7.622073845111048 L12.064039688417266,-7.560416941839714 L11.850377974990971,-7.493414353647873 L11.638632428042078,-7.421102896228312 L11.428919394703065,-7.3435223023208085 L11.221354105307814,-7.260715199880318 L11.016050610076405,-7.172727088654344 " />
			<path d="M16.281556647313803,19.761748408017034 L14.629804523673272,20.721236540116777 " />

       </g>
    </g>
    <g transform="translate(20,210.0)" stroke="rgb(0,0,255)">
        <line x1="30" y1="-30" x2="75" y2="-33" stroke-width="3" stroke="#000000" />
         <text x="80" y="-30" style="stroke:#000000">X </text>

        <line x1="30" y1="-30" x2="30" y2="-75" stroke-width="3" stroke="#000000" />
         <text x="25" y="-85" style="stroke:#000000">Y </text>

        <line x1="30" y1="-30" x2="58" y2="-15" stroke-width="3" stroke="#000000" />
         <text x="65" y="-5" style="stroke:#000000">Z </text>
        <!--
            <line x1="0" y1="0" x2="3.3275825249838755" y2="0" stroke-width="3" />
            <text x="0" y="20" style="stroke:#000000">1  mm </text>
        -->
    </g>
</svg>
