<?xml version="1.0" encoding="UTF-8" standalone="no"?>
<svg
   xmlns:svg="http://www.w3.org/2000/svg"
   xmlns="http://www.w3.org/2000/svg"
   width="800.0"
   height="240.0"

>
  <defs>
    <style>
      .cq-bg { fill: #ffffff; }
      @media (prefers-color-scheme: dark) {
        .cq-bg { fill: #0d1117; }
        /* CadQuery SVG selectors */
        g[stroke="rgb(0,0,0)"] { stroke: #c9d1d9 !important; }
        g[stroke="rgb(160,160,160)"] { stroke: #484f58 !important; }
        /* OpenSCAD SVG selectors */
        path { stroke: #c9d1d9 !important; }
        polygon { stroke: #c9d1d9 !important; fill: #161b22 !important; }
        /* Common selectors */
        line { stroke: #c9d1d9 !important; }
        text { stroke: #c9d1d9 !important; fill: #c9d1d9 !important; }
      }
    </style>
  </defs>
  <rect width="800.0" height="240.0" class="cq-bg"/>
    <g transform="scale(4.683401350072058, -4.683401350072058)   translate(60.35415740200297,-23.487203375877137)" stroke-width="0.21352003068979217"  fill="none">
       <!-- hidden lines -->
       <g  stroke="rgb(160,160,160)" fill="none" stroke-dasharray="0.21352003068979217,0.21352003068979217" >
			<path d="M-17.650151264044528,-18.449212256401502 L16.3287495651321,-16.03130216351015 " />
			<path d="M16.328749565132103,-16.031302163510148 L17.650151264044528,-16.798892669189943 " />
			<path d="M4.673798053771822,-17.72227908341733 L16.468629128826986,-16.88296879366728 " />
			<path d="M17.650151264044528,-16.03359784913787 L17.650151264044528,4.759612296965898 " />
			<path d="M12.930859482214439,0.4893389473708707 L12.929332696008066,0.6900203289157072 L12.924752717347541,0.8904344789002212 L12.917120686014096,1.0905315219203666 L12.906438501327942,1.2902616614878748 L12.892708821675617,1.4895751924226859 L12.875935063848397,1.688422513222671 L12.856121402192,1.8867541384075437 L12.833272767567752,2.084520710833906 L12.807394846125478,2.2816730139783274 L12.778494077888437,2.4781619841854763 L12.746577655150654,2.6739387228781855 L12.711653520687026,2.868954508726417 L12.673730365776676,3.063160809772148 L12.632817628040018,3.2565092955071115 L12.588925489090105,3.4489518489004043 L12.542064871998813,3.6404405783729823 L12.492247438578497,3.830927829716029 L12.439485586479828,4.0203661979502705 L12.383792446106478,4.208708539123256 L12.325181877347477,4.395907982041685 L12.263668466128015,4.581917939935839 L12.199267520779562,4.766692122053251 L12.131995068230204,4.950184545178715 L12.061867850016169,5.132349545077726 L11.988903318115488,5.313141787860569 L11.913119630604875,5.492516281264184 L11.834535647140873,5.6704283858490125 L11.753170924266401,5.8468338261080595 L11.669045710543896,6.021688701485348 L11.582180941516208,6.194949497301109 L11.492598234496548,6.366573095580896 L11.400319883188772,6.536516785786022 L11.305368852139328,6.704738275442547 L11.207768771022266,6.871195700666273 L11.107543928758703,7.0358476365810665 L11.004719267472256,7.19865310762791 L10.899320376281896,7.3595715977621525 L10.7913734849338,7.518563060536403 L10.680905457273768,7.6755879290665545 L10.567943784561846,7.830607125878466 L10.452516578630796,7.983582072632854 L10.334652564890149,8.134474699725954 L10.214381075177542,8.283247455763597 L10.091732040459151,8.429863316906303 L9.966735983381023,8.5742857960831 L9.839424010673158,8.716478952071755 L9.709827805408224,8.85640739844318 L9.577979619116872,8.994036312367745 L9.44391226376155,9.12933144328135 L9.307659103570874,9.262259121409082 L9.169254046736546,9.392786266144327 L9.028731536974897,9.520880394281265 L8.886126544955179,9.646509628098705 L8.741474559596695,9.769642703293217 L8.594811579236968,9.89024897675962 L8.44617410267313,10.008298434216895 L8.29559912007879,10.123761697677562 L8.14312410379858,10.23661003275875 L7.98878699902271,10.34681535583309 L7.832626214343892,10.454350241017648 L7.674680612198899,10.559187926999174 L7.514989499197192,10.661302323693965 L7.353592616339016,10.760668018740697 L7.190530129125431,10.857260283824557 " />
			<path d="M-5.8691284302129585,-11.62485078950438 L-5.695202765008765,-11.723797319367026 L-5.519513884604199,-11.81959797647439 L-5.342110527514387,-11.912226184404757 L-5.163041907873903,-12.00165624681751 L-4.982357701784088,-12.087863354581645 L-4.800108033532215,-12.170823592658168 L-4.616343461686318,-12.250513946734456 L-4.431114965069557,-12.326912309608735 L-4.244473928617982,-12.39999748732294 L-4.056472129125648,-12.46974920504219 L-3.867161720881022,-12.536148112679326 L-3.6765952211986557,-12.599175790262878 L-3.484825495850173,-12.658814753047029 L-3.291905744398563,-12.715048456362108 L-3.0978894854399,-12.767861300204336 L-2.902830541756535,-12.817238633563452 L-2.7067830253859326,-12.863166758487127 L-2.509801322609225,-12.905632933880954 L-2.3119400788637297,-12.944625379043007 L-2.113254183583536,-12.980133276931968 L-1.9137987549724276,-13.012146777167922 L-1.7136291247133348,-13.040656998764996 L-1.5128008226185603,-13.065656032595058 L-1.311369561225046,-13.087136943581816 L-1.1093912203389464,-13.105093772624713 L-0.906921831533803,-13.119521538252064 L-0.7040175626066156,-13.13041623800297 L-0.500734701996113,-13.137774849537676 L-0.2971296431675775,-13.14159533147599 L-0.09325886896851154,-13.141876623963606 L0.11082106404047887,-13.138618648966116 L0.31505354127525254,-13.13182231029065 L0.5193819058337998,-13.121489493335165 L0.7237494742136459,-13.107623064565393 L0.9280995520366384,-13.090226870719652 L1.1323754497767409,-13.06930573774171 L1.3365204984864985,-13.044865469441989 L1.5404780655177803,-13.016912845887525 L1.744191570232451,-12.985455621521078 L1.9476044996986261,-12.950502523009934 L2.1506604243681307,-12.912063246825019 L2.3533030137308453,-12.870148456550954 L2.555476051941551,-12.824769779927841 L2.757123453414985,-12.775939805625562 L2.9581892783847583,-12.723672079751509 L3.1586177484218134,-12.667981102092698 L3.3583532619081273,-12.608882322093352 L3.5573404094613683,-12.546392134568988 L3.755523989306223,-12.48052787515828 L3.9528490225881265,-12.411307815513917 L4.149260768625156,-12.338751158233785 L4.344704740093843,-12.26287803153392 L4.539126718144724,-12.183709483664636 L4.732472767443381,-12.101267477071474 L4.92468925113284,-12.015574882302513 L5.1157228457132,-11.926655471663755 L5.305520555834281,-11.83453391262437 L5.494029728997273,-11.739235760973592 L5.6811980701612725,-11.640787453731196 L5.866973656250627,-11.539216301813516 L6.051304950559137,-11.434550482456988 L6.234140817047026,-11.326819031401438 L6.415430534526794,-11.216051834835133 L6.595123810733967,-11.102279621103959 L6.773170796278874,-10.985533952186953 L6.949522098475541,-10.86584721494057 L7.124128795043913,-10.743252612114134 L7.296942447681563,-10.617784153138912 L7.467915115501148,-10.489476644693463 L7.636999368329859,-10.35836568104777 L7.804148299867223,-10.224487634188893 L7.969315540697548,-10.087879643730888 L8.132455271153432,-9.94857960661176 L8.293522234026781,-9.806626166580346 L8.452471747123774,-9.662058703475982 L8.609259715660315,-9.514917322304012 L8.763842644494547,-9.365242842110101 L8.916177650192992,-9.213076784656476 L9.066222472927011,-9.058461362903207 L9.213935488196258,-8.901439469297747 L9.359275718375901,-8.742054663875999 L9.502202844084362,-8.580351162178136 L9.642677215368483,-8.416373822982619 L9.780659862702967,-8.250168135861742 L9.916112507801051,-8.081780208562211 L10.04899757423344,-7.911256754214207 L10.179278197852527,-7.7386450783725325 L10.30691823701901,-7.563993065893385 L10.431882282628077,-7.387349167650449 L10.554135667932393,-7.208762387093956 L10.673644478159115,-7.028282266656446 L10.790375559918337,-6.845958874009019 L10.904296530400279,-6.661842788171877 L11.015375786358728,-6.475985085483001 L11.123582512878233,-6.2884373254288715 L11.22888669192256,-6.099251536341159 L11.33125911066212,-5.908480200963347 L11.430671369578015,-5.716176241891302 L11.527095890340453,-5.5223930068918055 L11.620505923459351,-5.327184254103155 L11.710875555705014,-5.1306041371219235 L11.79817971729683,-4.932707189979995 L11.88239418885796,-4.733548312016071 L11.963495608134135,-4.533182752645848 L12.041461476474668,-4.33166609603506 L12.116270165073882,-4.129054245679676 L12.187900920971245,-3.9254034088974867 L12.256333872808527,-3.720770081235427 L12.321550036342382,-3.515211030796941 L12.383531319710844,-3.3087832824937164 L12.442260528452262,-3.1015441022261916 L12.497721370275274,-2.8935509809972073 L12.549898459578507,-2.684861618963211 L12.598777321718783,-2.4755339094274413 L12.644344397026545,-2.2656259227795204 L12.686587044567524,-2.055195890385935 L12.725493545649499,-1.844302188435859 L12.761053107073222,-1.6330033217467788 L12.793255864126605,-1.4213579075344622 L12.822092883321323,-1.2094246591517333 L12.84755616487109,-0.9972623698005759 L12.869638644910909,-0.7849298962220932 L12.888334197456677,-0.5724861423688491 L12.903637636104634,-0.3599900430640745 L12.915544715470132,-0.14750054765235218 L12.924052132365356,0.0649233963537435 L12.929157526715695,0.27722285962650195 L12.930859482214437,0.4893389473708263 " />
			<path d="M16.328749565132103,-16.031302163510148 L16.328749565132103,19.216802762081294 " />
			<path d="M10.807563821335856,4.153867730394173 L10.73061552091446,4.301449359434078 L10.651200736419812,4.447493660814443 L10.569341857405629,4.591959460001442 L10.485061962493607,4.734806027491222 L10.398384812866839,4.875993090292847 L10.309334845570769,5.015480843282543 L10.21793716662361,5.153229960426014 L10.12421754393817,5.289201605865713 L10.02820240005705,5.42335744486991 L9.929918804703288,5.555659654640453 L9.829394467148548,5.686070934976239 L9.726657728400987,5.814554518789318 L9.621737553215036,5.941074182470696 L9.514663521925307,6.065594256102935 L9.405465822106951,6.188079633516639 L9.294175240064826,6.308495782187989 L9.18082315215386,6.426808752974564 L9.065441515933053,6.5429851896866875 L8.948062861155634,6.656992338491599 L8.828720280597873,6.768798057147793 L8.707447420729194,6.878370824066945 L8.584278472226156,6.985679747200848 L8.459248160333008,7.090694572750866 L8.332391735071543,7.193385693697445 L8.203744961302998,7.293724158147269 L8.073344108644804,7.391681677495713 L7.941225941245016,7.4872306344023105 L7.807427707417342,7.580344090576965 L7.671987129139657,7.67099579437469 L7.534942391418974,7.7591601881968035 L7.396332131525872,7.844812415696415 L7.256195428101467,7.927928328786216 " />
			<path d="M7.25619542810143,7.927928328786237 L7.048691281229731,8.044808403049917 L6.83813521075731,8.156149033818512 L6.624654047787823,8.261883153659346 L6.408376385391264,8.361947072292283 L6.189432501144322,8.456280514954363 L5.967954278656031,8.544826658707084 L5.7440751281260125,8.627532166664404 L5.517929905983163,8.704347220120885 L5.289654833653186,8.775225548560625 L5.059387415503901,8.840124457528884 L4.827266356017746,8.899004854349629 L4.59343147624139,8.95183127167349 L4.35802362956276,8.99857188884198 L4.121184616866232,9.039198551055062 L3.883057101117072,9.073686786330548 L3.6437845214266,9.102015820245105 L3.4035110066498486,9.124168588447992 L3.162381288567719,9.140131746939993 L2.9205406147059585,9.14989568011133 L2.678134660843495,9.153454506533757 L2.4353094432627946,9.150806082503316 L2.192211230795107,9.141952003331603 L1.9489864567135953,9.126897602384846 L1.7057816305274054,9.105651947871245 L1.46274324972982,9.07822783737866 L1.2200177115536384,9.044641790165796 L0.9777512247869664,9.004914037211629 L0.7360897217025013,8.959068509029022 L0.49517877015339984,8.907132821249881 L0.2551634858886376,8.849138257990523 L0.016188445140703944,8.785119753007296 L-0.22160240246171004,8.715115868653799 L-0.45806582060357925,8.63916877265235 L-0.6930593725637548,8.557324212693738 L-0.9264415070135095,8.469631488880514 L-1.1580716432817635,8.376143424030463 L-1.3878102560356447,8.276916331858107 L-1.6155189593253088,8.172009983053432 L-1.8410605899424697,8.061487569278253 L-2.0642992900423893,7.945415665101931 L-2.285100588979561,7.823864187899336 L-2.5033314843077976,7.696906355735226 L-2.718860521895931,7.564618643260447 L-2.931557875110868,7.427080735646429 L-3.1412954230202974,7.284375480585849 L-3.347946827567954,7.13658883838826 L-3.5513876096749284,6.983809830200826 L-3.7514952242212205,6.826130484385304 L-3.9481491338623353,6.6636457810836 L-4.141230881636466,6.496453595005291 L-4.330624162318548,6.324654636471553 L-4.5162148924781675,6.148352390751026 L-4.69789127919916,5.9676530557241705 L-4.875543887419482,5.78266547791362 L-5.049065705850811,5.593501086919113 L-5.218352211438105,5.4002738282964815 L-5.383301432320437,5.203100094921086 L-5.543814009255003,5.0020986568770995 L-5.699793255467395,4.7973905899148885 L-5.851145214892143,4.589099202519455 L-5.997778718768301,4.377349961634049 L-6.139605440556116,4.162270417083568 L-6.276539949141625,3.943990124743306 L-6.4084997602971665,3.722640568499341 L-6.535405386366799,3.4983550810475643 L-6.657180384146681,3.27126876357904 L-6.77375140093161,3.041518404400108 L-6.88504821869995,2.8092423965362174 L-6.991003796410331,2.5745806543691483 L-7.091554310384673,2.3376745293578125 L-7.186639192753191,2.098666724893418 L-7.276201167938188,1.8577012103403125 L-7.360186287154756,1.6149231343141757 L-7.438543960907488,1.3704787372499394 L-7.511226989463692,1.1245152633120477 L-7.57819159128476,0.8771808717000245 L-7.6393974293985245,0.6286245474029493 L-7.694807635696737,0.37899601145645767 L-7.744388833143049,0.12844563075639326 L-7.788111155878076,-0.12287567251659293 L-7.825948267209487,-0.3748165118069179 L-7.857877375476237,-0.6272251273736681 L-7.88387924777741,-0.8799494777049924 L-7.903938221557405,-1.1328373311022228 L-7.9180422140404705,-1.3857363573785593 L-7.92618272950892,-1.6384942196170782 L-7.928354864420623,-1.8909586659327888 L-7.924557310362733,-2.142977621183487 L-7.9147923548398165,-2.3943992785741237 L-7.899065879895945,-2.6450721910995485 L-7.877387358571571,-2.894845362770522 L-7.849769849197331,-3.143568339568046 L-7.816229987528185,-3.3910913000712526 L-7.776787976722668,-3.6372651457042124 L-7.731467575173252,-3.8819415905473598 L-7.680296082195198,-4.124973250659342 L-7.623304321582452,-4.366213732855658 L-7.5605266230405395,-4.605517722890405 L-7.492000801507659,-4.842741072988118 L-7.417768134376358,-5.077740888673061 L-7.337873336629572,-5.310375614843475 L-7.252364533906011,-5.540505121039085 L-7.161293233511049,-5.767990785850459 L-7.064714293390676,-5.99269558041935 L-6.962685889087096,-6.214484150979762 L-6.855269478695975,-6.43322290039 L-6.742529765846376,-6.648780068606586 L-6.624534660725709,-6.861025812051589 L-6.501355239173176,-7.069832281825538 L-6.373065699866347,-7.275073700718817 L-6.239743319626644,-7.476626438975156 L-6.101468406870682,-7.674369088761574 L-5.958324253235469,-7.868182537299908 L-5.810397083406651,-8.057950038615914 L-5.657776003179983,-8.243557283862662 L-5.50055294578732,-8.424892470175921 L-5.338822616519488,-8.60184636802001 L-5.172682435679352,-8.7743123869836 L-5.002232479899461,-8.942186639985797 L-4.827575421859655,-9.105368005853803 L-4.648816468440844,-9.263758190234567 L-4.466063297352333,-9.417261784803614 L-4.279425992270816,-9.565786324735434 L-4.089016976530052,-9.709242344400872 L-3.89495094540127,-9.84754343125784 L-3.697344797005025,-9.980606277903034 L-3.4963175618961424,-10.108350732253168 L-3.2919903313642314,-10.230699845825574 " />
			<path d="M-3.291990331364155,-10.230699845825619 L-3.1503666934024315,-10.311256011486055 L-3.0072960491116314,-10.389229718371737 L-2.8628187346570657,-10.464598983214563 L-2.716975482789106,-10.537342557021482 L-2.5698074113593314,-10.607439931065263 L-2.4213560117280926,-10.674871342666561 L-2.2716631370667777,-10.739617780765634 L-2.120770990558073,-10.801660991282171 L-1.9687221134975514,-10.860983482261709 L-1.8155593732999118,-10.917568528807152 L-1.6613259514133039,-10.97140017779406 L-1.5060653311451038,-11.02246325236835 L-1.3498212854025788,-11.070743356225123 L-1.192637864351922,-11.11622687766744 L-1.0345593829991007,-11.158900993443902 L-0.8756304086960545,-11.198753672363924 L-0.7158957485757345,-11.235773678689714 L-0.5554004369195509,-11.269950575303984 L-0.39418972246078,-11.301274726652505 L-0.23230905562749804,-11.329737301460675 L-0.06980407572866731,-11.355330275223338 L0.09327940191303963,-11.37804643246715 L0.2568953988780358,-11.397879368784844 L0.4209977866125989,-11.414823492640839 L0.5855402994339769,-11.428874026947677 L0.7504765475741597,-11.440027010412825 L0.915760030258624,-11.4482792986555 L1.081344148816385,-11.453628565093164 L1.2471822198176437,-11.456073301597458 L1.4132274882353288,-11.455612818919409 L1.5794331406268258,-11.452247246883724 L1.7457523183321684,-11.445977534352213 " />
			<path d="M15.845306471032188,2.938590041867577 L7.256195428101429,7.927928328786237 " />
			<path d="M5.297120711566604,-15.220038132744278 L-3.291990331364155,-10.230699845825619 " />

       </g>

       <!-- solid lines -->
       <g  stroke="rgb(0,0,0)" fill="none">
			<path d="M-17.650151264044528,-18.449212256401502 L-16.328749565132103,-19.216802762081297 " />
			<path d="M-16.328749565132103,-19.216802762081294 L-16.328749565132103,16.031302163510148 " />
			<path d="M-17.650151264044528,16.79889266918994 L-16.328749565132103,16.031302163510144 " />
			<path d="M-17.650151264044528,-18.449212256401502 L-17.650151264044528,16.79889266918994 " />
			<path d="M-16.328749565132103,-19.216802762081294 L4.673798053771822,-17.72227908341733 " />
			<path d="M16.468629128826986,-16.88296879366728 L17.650151264044524,-16.798892669189943 " />
			<path d="M-16.328749565132103,16.031302163510148 L17.650151264044524,18.4492122564015 " />
			<path d="M17.650151264044528,-16.79889266918994 L17.650151264044528,-16.03359784913787 " />
			<path d="M17.650151264044528,4.759612296965898 L17.650151264044528,18.449212256401502 " />
			<path d="M7.190530129125385,10.857260283824584 L6.933620232998519,11.001968947198662 L6.672931764794568,11.139819251959782 L6.4086217534990135,11.27072816223891 L6.140849409579466,11.3946168234035 L5.869776029083251,11.511410609556552 L5.5955648964787015,11.621039168488492 L5.3183811862986765,11.723436464054695 L5.038391863645625,11.818540815953195 L4.755765583618036,11.906294936878588 L4.4706725897189195,11.986645967029768 L4.1832846113074895,12.059545505950688 L3.893774760155811,12.124949641684992 L3.602317426172746,12.182818977226933 L3.3090881723579972,12.233118654252655 L3.0142636290495117,12.27581837411754 L2.7180213875279757,12.310892416106993 L2.4205398930424735,12.338319652929615 L2.1219983373217426,12.35808356344352 L1.822576550635753,12.370172242608033 L1.5224548934727036,12.37457840865485 L1.2218141478965978,12.3712994074743 L0.9208354086508885,12.360337214214088 L0.6196999740737796,12.341698432089528 L0.3185892368908779,12.315394288406024 L0.01768457495100928,12.281440627796155 L-0.2828327580290245,12.239857902675466 L-0.5827817416449035,12.190671160922689 L-0.8819816978447166,12.133910030791842 L-1.1802523997626524,12.069608703065287 L-1.4774141802809293,11.99780591045846 L-1.7732880402545632,11.918544904288753 L-2.067695756333742,11.831873428422519 L-2.360459988318913,11.737843690515962 L-2.6514043859838936,11.636512330567204 L-2.940353695302637,11.52794038679845 L-3.227133864015712,11.412193258888863 L-3.511572146472899,11.289340668580234 L-3.793497207688671,11.159456617679206 L-4.072739226548015,11.022619343481368 L-4.349129998100295,10.878911271644016 L-4.622503034879652,10.72841896653604 L-4.892693667190803,10.571233079094764 L-5.15953914229992,10.407448292221225 L-5.422878722470793,10.237163263746726 L-5.682553781787231,10.060480567005055 L-5.938407901703376,9.877506629046138 L-6.190286965264392,9.688351666528362 L-6.438039249940753,9.493129619328192 L-6.68151551902023,9.291958081907035 L-6.9205691115024885,9.084958232476747 L-7.155056030442209,8.872254760006404 L-7.38483502968745,8.653975789114325 L-7.609767698961061,8.430252802890598 L-7.829718547233842,8.201220563696584 L-8.044555084339295,7.967017031989099 L-8.254147900780707,7.727783283218224 L-8.458370745682641,7.483663422848684 L-8.657100602839721,7.234804499556129 L-8.85021776481697,6.981356416650535 L-9.037605905057134,6.723471841779999 L-9.219152147951425,6.461306114969496 L-9.394747136831578,6.195017155049853 L-9.564285099842207,5.924765364533337 L-9.727663913653831,5.650713532993191 L-9.884785164978137,5.373026739005276 L-10.035554209848467,5.091872250710913 L-10.179880230629808,4.8074194250608056 L-10.317676290723943,4.519839605800753 L-10.448859386936794,4.229306020260571 L-10.573350499476458,3.93599367500844 L-10.691074639551765,3.640079250433475 L-10.801960894542713,3.341740994320107 L-10.905942470715608,3.041158614478224 L-11.002956733457086,2.738513170493931 L-11.092945245002861,2.4339869646660652 L-11.17585379963847,2.127763432194036 L-11.251632456350748,1.8200270306833717 L-11.320235568910443,1.5109631290353351 L-11.38162181336778,1.2007578957876364 L-11.435754212944481,0.8895981869734626 L-11.48260016030718,0.5776714335663934 L-11.522131437208868,0.2651655285789888 L-11.554324231486511,-0.04773128611693733 L-11.579159151404602,-0.3608305331801757 L-11.596621237336015,-0.6739436133318315 L-11.606699970773143,-0.9868819189604713 L-11.609389280663823,-1.2994569477323035 L-11.604687547068343,-1.611480416137929 L-11.592597602135207,-1.9227643729072894 L-11.573126728395176,-2.2331213122244824 L-11.546286654374521,-2.5423642866742586 L-11.512093547530224,-2.8503070198521474 L-11.47056800451128,-3.156764018570401 L-11.421735038752068,-3.4615506845921615 L-11.365624065405175,-3.7644834258265334 L-11.302268883622823,-4.065379766917561 L-11.231707656197516,-4.364058459160618 L-11.153982886574196,-4.660339589679829 L-11.069141393247774,-4.954044689800808 L-10.9772342815614,-5.244996842553593 L-10.878316912922523,-5.533020789240773 L-10.772448871455257,-5.817943035006768 L-10.659693928109114,-6.0995919533446585 L-10.540120002245795,-6.377797889477569 L-10.413799120727075,-6.652393262552366 L-10.280807374528548,-6.923212666584089 L-10.141224872905232,-7.190092970090337 L-9.995135695136787,-7.4528734143555795 L-9.84262783988127,-7.711395710266182 L-9.683793172168054,-7.965504133657864 L-9.518727368061757,-8.215045619118092 L-9.347529857030564,-8.459869852186989 L-9.170303762053633,-8.699829359901118 L-8.98715583750367,-8.934779599625697 L-8.798196404842079,-9.164579046121672 L-8.60353928616545,-9.38908927679523 L-8.403301735643371,-9.608175055078387 L-8.197604368888918,-9.821704411890453 L-7.98657109030429,-10.029548725131269 L-7.770329018445482,-10.231582797158323 L-7.549008409450764,-10.427684930201172 L-7.322742578579275,-10.617736999667613 L-7.09166781990692,-10.801624525297486 L-6.85592332422788,-10.97923674012136 L-6.615651095211291,-11.150466657182369 L-6.370995863863559,-11.315211133981176 L-6.1221050013478,-11.473370934605155 L-5.8691284302130535,-11.624850789504325 " />
			<path d="M-17.650151264044528,16.79889266918994 L16.3287495651321,19.21680276208129 " />
			<path d="M16.328749565132103,19.216802762081294 L17.650151264044528,18.4492122564015 " />
			<path d="M22.841372224057622,-5.267589845227583 L22.839845437851253,-5.066908463682746 L22.835265459190726,-4.866494313698232 L22.82763342785728,-4.666397270678087 L22.816951243171125,-4.466667131110579 L22.803221563518804,-4.267353600175768 L22.78644780569158,-4.068506279375782 L22.766634144035187,-3.87017465419091 L22.743785509410937,-3.672408081764548 L22.71790758796866,-3.4752557786201264 L22.689006819731624,-3.278766808412977 L22.657090396993837,-3.0829900697202683 L22.62216626253021,-2.8879742838720364 L22.584243107619862,-2.693767982826306 L22.5433303698832,-2.5004194970913423 L22.49943823093329,-2.3079769436980495 L22.452577613841996,-2.1164882142254715 L22.40276018042168,-1.9260009628824246 L22.34999832832301,-1.7365625946481833 L22.29430518794966,-1.5482202534751979 L22.23569461919066,-1.3610208105567692 L22.174181207971202,-1.1750108526626146 L22.10978026262275,-0.9902366705452028 L22.04250781007339,-0.806744247419739 L21.972380591859356,-0.6245792475207281 L21.899416059958675,-0.4437870047378851 L21.82363237244806,-0.26441251133427013 L21.74504838898406,-0.08650040674944126 L21.663683666109584,0.08990503350960566 L21.579558452387083,0.2647599088868944 L21.49269368335939,0.4380207047026552 L21.403110976339732,0.6096443029824421 L21.310832625031956,0.779587993187568 L21.215881593982512,0.947809482844093 L21.11828151286545,1.114266908067819 L21.018056670601887,1.2789188439826127 L20.91523200931544,1.4417243150294565 L20.80983311812508,1.6026428051636987 L20.701886226776985,1.761634267937949 L20.59141819911695,1.9186591364681007 L20.478456526405033,2.0736783332800126 L20.36302932047398,2.2266532800344 L20.245165306733334,2.3775459071275016 L20.124893817020727,2.526318663165144 L20.002244782302334,2.67293452430785 L19.877248725224206,2.8173570034846467 L19.74993675251634,2.9595501594733022 L19.62034054725141,3.099478605844727 L19.48849236096006,3.2371075197692925 L19.354425005604735,3.372402650682897 L19.21817184541406,3.5053303288106292 L19.079766788579732,3.635857473545874 L18.93924427881808,3.7639516016828125 L18.796639286798364,3.8895808355002526 L18.65198730143988,4.012713910694764 L18.505324321080153,4.1333201841611675 L18.356686844516314,4.251369641618442 L18.206111861921976,4.366832905079109 L18.053636845641766,4.479681240160296 L17.899299740865896,4.5898865632346375 L17.743138956187078,4.697421448419195 L17.585193354042083,4.802259134400721 L17.425502241040377,4.904373531095512 L17.2641053581822,5.003739226142244 L17.101042870968616,5.100331491226104 " />
			<path d="M17.10104287096857,5.100331491226131 L16.844132974841703,5.2450401546002094 L16.583444506637754,5.382890459361329 L16.319134495342198,5.5137993696404575 L16.05136215142265,5.637688030805046 L15.780288770926436,5.7544818169581 L15.506077638321887,5.864110375890039 L15.228893928141861,5.966507671456242 L14.94890460548881,6.061612023354742 L14.66627832546122,6.149366144280135 L14.381185331562104,6.229717174431315 L14.093797353150674,6.302616713352235 L13.804287501998996,6.368020849086539 L13.512830168015931,6.42589018462848 L13.219600914201182,6.476189861654202 L12.924776370892697,6.518889581519087 L12.628534129371161,6.55396362350854 L12.331052634885658,6.581390860331162 L12.032511079164928,6.601154770845067 L11.733089292478939,6.6132434500095805 L11.432967635315888,6.617649616056397 L11.132326889739783,6.614370614875847 L10.831348150494074,6.603408421615635 L10.530212715916964,6.584769639491075 L10.229101978734063,6.558465495807571 L9.928197316794193,6.524511835197702 L9.62767998381416,6.482929110077013 L9.32773100019828,6.433742368324236 L9.028531043998468,6.376981238193389 L8.730260342080532,6.312679910466834 L8.433098561562256,6.240877117860007 L8.137224701588622,6.1616161116903 L7.842816985509443,6.074944635824066 L7.550052753524271,5.9809148979175095 L7.259108355859292,5.879583537968751 L6.970159046540548,5.771011594199997 L6.683378877827472,5.65526446629041 L6.398940595370286,5.532411875981781 L6.117015534154514,5.402527825080753 L5.8377735152951695,5.2656905508829155 L5.5613827437428895,5.121982479045563 L5.288009706963533,4.971490173937587 L5.017819074652382,4.814304286496311 L4.750973599543265,4.650519499622773 L4.487634019372392,4.480234471148274 L4.227958960055954,4.303551774406602 L3.972104840139809,4.120577836447685 L3.7202257765787925,3.9314228739299093 L3.4724734919024316,3.736200826729739 L3.2289972228229544,3.535029289308582 L2.9899436303406963,3.3280294398782946 L2.755456711400976,3.1153259674079514 L2.525677712155735,2.897046996515872 L2.3007450428821237,2.673324010292145 L2.080794194609343,2.444291771098131 L1.8659576575038894,2.210088239390645 L1.6563648410624783,1.9708544906197698 L1.4521419961605435,1.7267346302502302 L1.2534121390034638,1.4778757069576756 L1.0602949770262153,1.2244276240520815 L0.8729068367860506,0.9665430491815448 L0.6913605938917602,0.7043773223710419 L0.5157656050116071,0.43808836245139915 L0.34622764200097755,0.16783657193488288 L0.18284882818935344,-0.10621525960526323 L0.025727576865048007,-0.38390205359317786 L-0.12504146800528204,-0.6650565418875409 L-0.26936748878662264,-0.9495093675376483 L-0.40716354888075834,-1.237089186797701 L-0.5383466450936094,-1.5276227723378826 L-0.6628377576332731,-1.8209351175900137 L-0.78056189770858,-2.116849542164979 L-0.8914481526995282,-2.415187798278347 L-0.9954297288724234,-2.7157701781202297 L-1.0924439916139015,-3.018415622104522 L-1.182432503159676,-3.322941827932388 L-1.2653410577952844,-3.629165360404418 L-1.3411197145075633,-3.936901761915082 L-1.4097228270672577,-4.245965663563118 L-1.4711090715245945,-4.556170896810817 L-1.525241471101296,-4.867330605624991 L-1.5720874184639957,-5.17925735903206 L-1.6116186953656833,-5.491763264019465 L-1.6438114896433262,-5.804660078715391 L-1.6686464095614166,-6.117759325778629 L-1.6861084954928298,-6.430872405930285 L-1.6961872289299578,-6.7438107115589245 L-1.6988765388206382,-7.056385740330757 L-1.694174805225158,-7.368409208736383 L-1.6820848602920222,-7.679693165505743 L-1.6626139865519907,-7.990050104822936 L-1.6357739125313362,-8.299293079272712 L-1.601580805687039,-8.6072358124506 L-1.5600552626680955,-8.913692811168854 L-1.5112222969088833,-9.218479477190616 L-1.4551113235619901,-9.521412218424988 L-1.3917561417796378,-9.822308559516014 L-1.3211949143543311,-10.120987251759072 L-1.2434701447310115,-10.417268382278284 L-1.1586286514045891,-10.710973482399261 L-1.0667215397182144,-11.001925635152046 L-0.9678041710793384,-11.289949581839227 L-0.8619361296120722,-11.574871827605222 L-0.749181186265929,-11.856520745943111 L-0.6296072604026097,-12.134726682076023 L-0.5032863788838906,-12.40932205515082 L-0.3702946326853631,-12.680141459182543 L-0.23071213106204702,-12.947021762688792 L-0.08462295329360181,-13.209802206954034 L0.06788490196191432,-13.468324502864636 L0.22671956967513118,-13.722432926256317 L0.39178537378142764,-13.971974411716545 L0.5629828848126213,-14.216798644785442 L0.7402089797895517,-14.456758152499571 L0.9233569043395153,-14.69170839222415 L1.112316337001106,-14.921507838720125 L1.3069734556777348,-15.146018069393683 L1.5072110061998139,-15.36510384767684 L1.7129083729542671,-15.578633204488906 L1.923941651538895,-15.786477517729722 L2.140183723397703,-15.988511589756776 L2.361504332392421,-16.184613722799625 L2.58777016326391,-16.374665792266065 L2.8188449219362646,-16.55855331789594 L3.054589417615305,-16.736165532719813 L3.294861646631894,-16.90739544978082 L3.5395168779796258,-17.07213992657963 L3.7884077404953853,-17.230299727203608 L4.041384311630131,-17.38177958210278 " />
			<path d="M4.041384311630226,-17.381779582102833 L4.21530997683442,-17.48072611196548 L4.390998857238986,-17.576526769072842 L4.568402214328798,-17.66915497700321 L4.747470833969282,-17.758585039415962 L4.928155040059097,-17.844792147180097 L5.11040470831097,-17.92775238525662 L5.294169280156867,-18.00744273933291 L5.479397776773628,-18.083841102207188 L5.666038813225203,-18.156926279921393 L5.854040612717537,-18.226677997640643 L6.043351020962163,-18.29307690527778 L6.233917520644529,-18.35610458286133 L6.425687245993012,-18.415743545645483 L6.618606997444622,-18.471977248960563 L6.812623256403285,-18.52479009280279 L7.00768220008665,-18.574167426161907 L7.203729716457252,-18.62009555108558 L7.40071141923396,-18.662561726479407 L7.598572662979455,-18.70155417164146 L7.797258558259649,-18.73706206953042 L7.996713986870757,-18.769075569766375 L8.19688361712985,-18.79758579136345 L8.397711919224625,-18.82258482519351 L8.599143180618139,-18.84406573618027 L8.801121521504239,-18.862022565223164 L9.003590910309383,-18.876450330850517 L9.206495179236569,-18.887345030601423 L9.409778039847073,-18.89470364213613 L9.613383098675607,-18.89852412407444 L9.817253872874673,-18.89880541656206 L10.021333805883664,-18.895547441564567 L10.225566283118438,-18.888751102889103 L10.429894647676985,-18.87841828593362 L10.63426221605683,-18.864551857163846 L10.838612293879823,-18.847155663318105 L11.042888191619927,-18.826234530340162 L11.247033240329683,-18.801794262040442 L11.450990807360965,-18.773841638485976 L11.654704312075635,-18.74238441411953 L11.85811724154181,-18.70743131560839 L12.061173166211315,-18.668992039423472 L12.263815755574031,-18.62707724914941 L12.465988793784735,-18.581698572526292 L12.66763619525817,-18.532868598224013 L12.868702020227943,-18.48060087234996 L13.069130490264998,-18.42490989469115 L13.268866003751313,-18.365811114691805 L13.467853151304553,-18.30332092716744 L13.666036731149408,-18.23745666775673 L13.86336176443131,-18.16823660811237 L14.059773510468341,-18.09567995083224 L14.255217481937027,-18.019806824132374 L14.449639459987909,-17.940638276263087 L14.642985509286566,-17.858196269669925 L14.835201992976025,-17.772503674900967 L15.026235587556386,-17.68358426426221 L15.216033297677466,-17.591462705222824 L15.404542470840457,-17.496164553572044 L15.591710812004457,-17.39771624632965 L15.777486398093812,-17.29614509441197 L15.961817692402322,-17.191479275055443 L16.144653558890212,-17.083747823999893 L16.32594327636998,-16.972980627433586 L16.50563655257715,-16.85920841370241 L16.68368353812206,-16.742462744785406 L16.860034840318725,-16.622776007539024 L17.034641536887097,-16.500181404712585 L17.207455189524747,-16.374712945737365 L17.378427857344334,-16.246405437291916 L17.547512110173045,-16.115294473646223 L17.714661041710407,-15.981416426787346 L17.879828282540732,-15.844808436329341 L18.042968012996617,-15.705508399210213 L18.204034975869966,-15.563554959178798 L18.36298448896696,-15.418987496074434 L18.5197724575035,-15.271846114902464 L18.67435538633773,-15.122171634708554 L18.826690392036177,-14.970005577254929 L18.976735214770194,-14.81539015550166 L19.12444823003944,-14.6583682618962 L19.269788460219086,-14.498983456474452 L19.412715585927547,-14.337279954776589 L19.553189957211668,-14.173302615581072 L19.691172604546153,-14.007096928460195 L19.826625249644238,-13.838709001160664 L19.959510316076624,-13.668185546812662 L20.08979093969571,-13.495573870970986 L20.217430978862197,-13.32092185849184 L20.342395024471262,-13.144277960248903 L20.464648409775577,-12.96569117969241 L20.5841572200023,-12.7852110592549 L20.700888301761523,-12.602887666607472 L20.814809272243465,-12.418771580770331 L20.925888528201913,-12.232913878081455 L21.034095254721418,-12.045366118027324 L21.139399433765746,-11.856180328939612 L21.241771852505305,-11.665408993561801 L21.3411841114212,-11.473105034489755 L21.43760863218364,-11.279321799490258 L21.531018665302536,-11.08411304670161 L21.6213882975482,-10.887532929720377 L21.708692459140014,-10.689635982578448 L21.792906930701143,-10.490477104614524 L21.87400834997732,-10.2901115452443 L21.95197421831785,-10.088594888633514 L22.026782906917067,-9.885983038278129 L22.09841366281443,-9.68233220149594 L22.16684661465171,-9.47769887383388 L22.232062778185565,-9.272139823395396 L22.29404406155403,-9.06571207509217 L22.352773270295447,-8.858472894824645 L22.408234112118457,-8.650479773595661 L22.460411201421692,-8.441790411561666 L22.50929006356197,-8.232462702025895 L22.55485713886973,-8.022554715377973 L22.59709978641071,-7.812124682984389 L22.636006287492684,-7.601230981034313 L22.67156584891641,-7.389932114345232 L22.703768605969792,-7.178286700132916 L22.73260562516451,-6.966353451750187 L22.758068906714275,-6.75419116239903 L22.780151386754092,-6.541858688820547 L22.798846939299864,-6.329414934967303 L22.81415037794782,-6.116918835662528 L22.82605745731332,-5.904429340250806 L22.83456487420854,-5.69200539624471 L22.83967026855888,-5.479705932971951 L22.841372224057622,-5.2675898452276275 " />
			<path d="M20.481726333142582,-5.435500268345038 L20.48035167677821,-5.606824800753963 L20.476228089033704,-5.778297444166577 L20.4693567138491,-5.949870629709961 L20.45973945743851,-6.12149676061943 L20.44737898776131,-6.2931282254425165 L20.432278733782034,-6.464717411247061 L20.414442884519104,-6.636216716829676 L20.393876387882756,-6.807578565920994 L20.370584949302405,-6.978755420383969 L20.3445750301439,-7.149699793401609 L20.31585384591705,-7.320364262650481 L20.28442936427392,-7.490701483456313 L20.25031030279851,-7.6606642019280535 L20.213506126588396,-7.830205268066758 L20.174027045628943,-7.999277648845651 L20.131884011960942,-8.167834441257723 L20.087088716642356,-8.335828885327288 L20.03965358650506,-8.503214377081827 L19.989591780707457,-8.669944481480586 L19.936917187083957,-8.835972945296286 L19.881644418292304,-9.001253709946411 L19.82378880775982,-9.165740924270487 L19.763366405429686,-9.329388957249837 L19.700393973308486,-9.492152410666241 L19.634888980816193,-9.653986131696037 L19.566869599939892,-9.81484522543613 L19.496354700192654,-9.974685067358456 L19.42336384337885,-10.133461315689452 L19.347917278167433,-10.291129923711052 L19.270035934474695,-10.447647151979876 L19.18974141765801,-10.602969580461146 L19.107056002522214,-10.75705412057399 L19.022002627140257,-10.909858027144836 L18.934604886489886,-11.06133891026548 L18.84488702590806,-11.211454747052649 L18.752873934364956,-11.360163893305725 L18.65859113755943,-11.507425095059418 L18.562064790837844,-11.653197500028174 L18.463321671938207,-11.797440668939188 L18.362389173561652,-11.94011458675079 L18.259295295773338,-12.081179673753176 L18.154068638234847,-12.220596796548378 L18.04673839227022,-12.358327278906378 L17.937334332767925,-12.494332912494462 L17.82588680992084,-12.628575967476708 L17.712426740806745,-12.76101920298078 L17.596985600811447,-12.891625877429053 L17.479595414897123,-13.020359758731235 L17.360288748718112,-13.147185134335643 L17.23909869958679,-13.272066821136363 L17.116058887291892,-13.39497017523352 L16.991203444771937,-13.515861101543987 L16.86456700864627,-13.63470606325981 L16.736184709606388,-13.751472091151793 L16.606092162670222,-13.86612679271563 L16.474325457302008,-13.978638361158001 L16.340921147400593,-14.088975584220236 L16.20591624115887,-14.197107852837023 L16.06934819079722,-14.303005169627777 L15.931254882173711,-14.406638157218328 L15.791674624274073,-14.507978066390622 L15.650646138584232,-14.60699678405813 L15.508208548348462,-14.703666841064823 L15.364401367716038,-14.79796141980548 L15.219264490779475,-14.889854361665275 L15.072838180507357,-14.979320174276522 L14.925163057574832,-15.066334038590622 L14.77628008909488,-15.150871815763198 L14.62623057725348,-15.232910053850558 L14.475056147851788,-15.312425994315566 L14.322798738758598,-15.389397578341196 L14.169500588276188,-15.46380345294993 L14.01520422342282,-15.535622976927389 L13.859952448135175,-15.604836226548475 L13.703788331393955,-15.671424001104489 L13.546755195275935,-15.735367828229679 L13.38889660293584,-15.796649969025726 L13.230256346521319,-15.855253422982752 L13.070878435024397,-15.911161932695508 L12.910807082072784,-15.964359988373387 L12.750086693664398,-16.014832832143064 L12.588761855848531,-16.062566462142538 L12.426877322357065,-16.10754763640542 L12.26447800218917,-16.149763876534465 L12.101608947152934,-16.189203471163232 L11.938315339367366,-16.225855479204974 L11.774642478728252,-16.25970973288787 L11.610635770341343,-16.29075684057569 L11.446340711926357,-16.31898818937315 L11.281802881195276,-16.34439594751528 L11.117067923208472,-16.36697306654004 L10.952181537712132,-16.386713283243658 L10.787189466460509,-16.40361112141815 L10.622137480526554,-16.417661893370482 L10.457071367604367,-16.42886170122299 L10.29203691930708,-16.43720743799473 L10.127079918463611,-16.442696788463373 L9.962246126417883,-16.4453282298075 L9.797581270334023,-16.44510103202904 L9.633131030510976,-16.442015258155784 L9.468941027710185,-16.43607176422391 L9.305056810499766,-16.427272199040484 L9.141523842618689,-16.415619003726086 L8.978387490364533,-16.401115411037594 L8.815693010008232,-16.383765444471365 L8.653485535239376,-16.363573917147086 L8.491810064645493,-16.34054643047253 L8.33071144922883,-16.31468937258964 L8.170234379964057,-16.286009916602403 L8.01042337540039,-16.254516018586898 L7.851322769311512,-16.22021641538419 L7.692976698396793,-16.18312062217661 L7.535429090037155,-16.14323892984809 L7.378723650109003,-16.10058240212937 L7.222903850859627,-16.055162872528726 L7.068012918847391,-16.00699294104922 L6.914093822950097,-15.956085970693275 L6.761189262444822,-15.902456083755588 L6.609341655162549,-15.846118157905423 L6.458593125720892,-15.787087822059336 L6.308985493838124,-15.725381452045495 L6.16056026273182,-15.661016166060799 L6.013358607605307,-15.594009819922068 L5.8674213642250725,-15.524381002112575 L5.722789017592375,-15.452149028625351 L5.579501690712143,-15.377333937604671 L5.437599133462301,-15.299956483787186 L5.297120711566643,-15.220038132744302 " />
			<path d="M5.297120711566606,-15.220038132744278 L5.092793481034621,-15.09768901917183 L4.891766245925738,-14.969944564821695 L4.694160097529494,-14.836881718176501 L4.500094066400707,-14.698580631319532 L4.309685050659939,-14.555124611654092 L4.123047745578424,-14.40660007172227 L3.9402945744899185,-14.25309647715323 L3.761535621071107,-14.094706292772466 L3.586878563031302,-13.931524926904462 L3.416428607251417,-13.76365067390227 L3.25028842641128,-13.59118465493868 L3.088558097143448,-13.41423075709459 L2.9313350397507856,-13.23289557078133 L2.778713959524116,-13.047288325534584 L2.630786789695298,-12.857520824218579 L2.487642636060082,-12.66370737568024 L2.349367723304118,-12.46596472589382 L2.2160453430644154,-12.26441198763748 L2.0877558037575863,-12.059170568744202 L1.9645763822050544,-11.850364098970253 L1.8465812770843861,-11.63811835552525 L1.7338415642347869,-11.422561187308663 L1.626425153843666,-11.203822437898426 L1.5243967495400863,-10.982033867338012 L1.427817809419711,-10.757329072769123 L1.336746509024751,-10.529843407957749 L1.2512377063011897,-10.299713901762136 L1.1713429085544025,-10.067079175591719 L1.097110241423099,-9.832079359906771 L1.028584419890219,-9.59485600980906 L0.9658067213483097,-9.355552019774322 L0.9088149607355618,-9.114311537578006 L0.8576434677575087,-8.871279877466023 L0.8123230662080942,-8.62660343262288 L0.7728810554025749,-8.380429586989916 L0.7393411937334307,-8.13290662648671 L0.711723684359189,-7.884183649689184 L0.6900451630348154,-7.634410478018212 L0.674318688090942,-7.383737565492787 L0.6645537325680273,-7.13231590810215 L0.6607561785101375,-6.880296952851452 L0.6629283134218422,-6.627832506535741 L0.6710688288902897,-6.375074644297223 L0.6851728213733548,-6.122175618020886 L0.7052317951533507,-5.869287764623656 L0.7312336674545232,-5.616563414292331 L0.7631627757212716,-5.364154798725581 L0.8009998870526829,-5.112213959435255 L0.8447222097877098,-4.860892656162269 L0.8943034072340232,-4.610342275462206 L0.9497136135322357,-4.360713739515715 L1.010919451646,-4.11215741521864 L1.0778840534670682,-3.864823023606616 L1.1505670820232723,-3.6188595496687244 L1.2289247557760028,-3.374415152604487 L1.312909874992572,-3.131637076578351 L1.4024718501775695,-2.8906715620252457 L1.4975567325460855,-2.6516637575608515 L1.5981072465204278,-2.414757632549515 L1.7040628242308085,-2.1800958903824452 L1.815359641999148,-1.947819882518555 L1.9319306587840774,-1.718069523339623 L2.0537056565639595,-1.4909832058710988 L2.18061128263359,-1.266697718419322 L2.312571093789133,-1.0453481621753573 L2.449505602374643,-0.8270678698350951 L2.5913323241624573,-0.6119883252846137 L2.7379658280386154,-0.40023908439920763 L2.889317787463363,-0.19194769700377456 L3.045297033675755,0.012760369958437323 L3.20580961061032,0.21376180800242395 L3.370758831492652,0.4109355413778202 L3.540045337079947,0.6041628000004495 L3.7135671555112744,0.7933271909949582 L3.8912197637315966,0.9783147688055083 L4.072896150452589,1.159014103832365 L4.2584868806122085,1.3353163495528912 L4.44788016129429,1.5071153080866297 L4.640961909068423,1.674307494164938 L4.837615818709538,1.8367921974666421 L5.03772343325583,1.994471543282165 L5.2411642153628035,2.1472505514695985 L5.447815619910459,2.295037193667186 L5.657553167819889,2.437742448727768 L5.870250521034826,2.5752803563417856 L6.085779558622959,2.707568068816567 L6.304010453951196,2.8345259009806743 L6.524811752888368,2.95607737818327 L6.748050452988288,3.0721492823595913 L6.97359208360545,3.1826716961347703 L7.201300786895112,3.2875780449394476 L7.431039399648993,3.3868051371118018 L7.662669535917248,3.4802932019618513 L7.8960516703669965,3.5679859257750746 L8.131045222327177,3.6498304857336894 L8.367508640469048,3.7257775817351373 L8.60529948807146,3.795781466088634 L8.844274528819405,3.8597999710718636 L9.084289813084165,3.9177945343312235 L9.325200764633262,3.969730222110364 L9.566862267717724,4.015575750292967 L9.809128754484394,4.055303503247135 L10.051854292660575,4.088889550459999 L10.294892673458163,4.116313660952585 L10.538097499644351,4.137559315466184 L10.781322273725863,4.1526137164129455 L11.02442048619355,4.161467795584654 L11.267245703774252,4.164116219615099 L11.509651657636715,4.1605573931926685 L11.751492331498476,4.150793460021333 L11.992622049580605,4.134830301529332 L12.232895564357353,4.112677533326446 L12.472168144047819,4.08434849941189 L12.71029565979698,4.049860264136404 L12.947134672493508,4.009233601923322 L13.182542519172138,3.9624929847548334 L13.416377398948494,3.909666567430971 L13.648498458434648,3.8507861706102293 L13.878765876583943,3.7858872616419657 L14.10704094891392,3.715008933202226 L14.333186171056768,3.638193879745744 L14.557065321586798,3.5554883717884245 L14.778543544075086,3.466942228035702 L14.997487428322025,3.3726087853736235 L15.21376509071858,3.272544866740688 L15.427246253688068,3.166810746899854 L15.637802324160488,3.055470116131259 L15.845306471032114,2.938590041867622 " />
			<path d="M15.845306471032188,2.9385900418675774 L15.977010787627815,2.860573212376746 L16.10736980839788,2.7803163048389994 L16.236351091976182,2.697839292123975 L16.363922539862525,2.613162699600437 L16.4900524044108,2.526307600028293 L16.614709296729774,2.437295608314402 L16.73786219449456,2.3461488761334426 L16.859480449666908,2.2528900864152135 L16.97953379612231,2.1575424476997256 L17.097992357182093,2.0601296883614744 L17.21482665304856,1.96067605070437 L17.33000760814141,1.859206284928744 L17.44350655833351,1.755745642971986 L17.555295258084314,1.650319872224287 L17.665345887469094,1.5429552091211187 L17.773631059102236,1.433678372613974 L17.880123824952946,1.3225165575210562 L17.984797683051546,1.209497427759521 L18.087626584084823,1.0946491094609918 L18.188584937878694,0.9780001839720427 L18.287647619766624,0.8595796807413985 L18.38478997684219,0.7394170700956098 L18.479987834094253,0.6175422559050281 L18.573217500423176,0.4939855681418672 L18.664455774536655,0.3687777553322462 L18.7536799507236,0.24194997690404652 L18.840867824504755,0.11353379543253439 L18.92599769815851,-0.016438831214354188 L19.00904838612064,-0.14793555782911127 L19.089999220256594,-0.2809236599141389 L19.168830055004992,-0.4153700418256099 L19.24552127239108,-0.5512412450097237 L19.320053786908897,-0.6885034563292436 L19.392409050270928,-0.8271225164783038 L19.462569056024066,-0.9670639284833404 L19.5305163440307,-1.1082928662880764 L19.59623400481393,-1.2507741834203827 L19.659705683765623,-1.3944724217389002 L19.720915585216503,-1.5393518202572025 L19.779848476367054,-1.6853763240433475 L19.83648969107839,-1.8325095931925492 L19.8908251335221,-1.9807150118708083 L19.94284128168816,-2.12995569742718 L19.992525190750033,-2.280194509572457 L20.03986449628615,-2.4313940596219528 L20.084847417356933,-2.583516719800133 L20.127462759436625,-2.736524632604714 L20.16769991719919,-2.890379720227944 L20.20554887715754,-3.045043694032719 L20.24100022015555,-3.2004780640811497 L20.274045123712078,-3.356644148713237 L20.304675364216592,-3.5135030841732506 L20.332883318975675,-3.6710158342814383 L20.35866196811004,-3.829143200148627 L20.382004896301495,-3.987845829931325 L20.402906294389485,-4.147084228624893 L20.421360960816763,-4.306818767892334 L20.437364302923854,-4.4670096959262695 L20.450912338091992,-4.6276171473416445 L20.462001694734255,-4.788601153096685 L20.470629613134612,-4.9499216504396735 L20.476793946134702,-5.111538492879022 L20.4804931596682,-5.2734114601742075 L20.48172633314258,-5.435500268345013 " />
			<path d="M11.89261529021182,-0.4461619814263774 L11.891535768638047,-0.29450115314270675 L11.888297439094634,-0.1430270004512746 L11.882901007064074,0.008227477423766727 L11.875347648179746,0.15922932911527266 L11.865639007969808,0.30994565829167464 L11.853777201498696,0.4603436308235762 L11.839764812906374,0.6103904819367982 L11.823604894845348,0.7600535233503094 L11.80530096781564,0.9093001503974831 L11.78485701939784,1.058097849129157 L11.762277503384391,1.2064142033969294 L11.737567338809313,1.3542169019151291 L11.710731908876568,1.5014737452999565 L11.681777059787322,1.6481526530842425 L11.650709099466312,1.794221670706303 L11.617534796187654,1.9396489764713591 L11.582261377100338,2.084402888484018 L11.544896526653773,2.228451871550294 L11.505448384923694,2.371764544047669 L11.463925545838825,2.5143096847617086 L11.420337055308648,2.656056239687712 L11.37469240925272,2.7969733287959446 L11.327001551531957,2.9370302527589844 L11.27727487178232,3.0761964996396784 L11.22552320315139,3.214441751538282 L11.171757819938334,3.351735891197337 L11.11599043513775,3.4880490085628306 L11.058233197887944,3.623351407300208 L10.998498690824201,3.7576136112638405 L10.936799927337605,3.8908063709185106 L10.87315034874002,4.022900669711546 L10.807563821335876,4.153867730394133 " />
			<path d="M1.7457523183321781,-11.445977534352213 L1.9926638074485676,-11.43132566057645 L2.239568740210673,-11.410292073453677 L2.486313839797825,-11.382889830484713 L2.732745928612646,-11.349135942786488 L2.978712023372621,-11.30905136453166 L3.2240594300810157,-11.262660979940419 L3.4686358388182184,-11.209993587832539 L3.7122894182946653,-11.151081883749272 L3.954868910106611,-11.085962439656202 L4.196223722636264,-11.014675681239607 L4.436204024538004,-10.937265862810511 L4.67466083775259,-10.853781039831892 L4.911446129991698,-10.764273039086223 L5.146412906635294,-10.668797426501753 L5.379415301984852,-10.567413472657586 L5.6103086698157405,-10.460184115988923 L5.838949673172559,-10.347175923715339 L6.065196373351713,-10.228459050516316 L6.288908318015925,-10.10410719497973 L6.509946628386067,-9.974197553850285 L6.728174085456101,-9.838810774106326 L6.943455215177662,-9.698030902894784 L7.15565637256138,-9.551945335355278 L7.364645824642747,-9.400644760365864 L7.5702938322609805,-9.244223104244014 L7.772472730600189,-9.082777472437828 L7.971057008442766,-8.916408089243664 L8.165923386085868,-8.745218235587615 L8.356950891872561,-8.569314184909446 L8.544020937290176,-8.3888051371888 L8.7270173905892,-8.203803151154622 L8.90582664887706,-8.014423074719911 L9.080337708641945,-7.820782473684949 L9.250442234663048,-7.623001558753295 L9.41603462726425,-7.421203110905828 L9.57701208786968,-7.215512405179205 L9.733274682820314,-7.006057132896001 L9.884725405412093,-6.792967322394854 L10.031270236116988,-6.576375258309792 L10.172818200949648,-6.3564153994488795 L10.309281427943406,-6.133224295323154 L10.440575201700565,-5.906940501377656 L10.56661801598312,-5.6777044929772025 L10.687331624311243,-5.445658578200279 L10.802641088538133,-5.210946809495204 L10.912474825371095,-4.973714894253396 L11.016764650809938,-4.734110104355262 L11.1154458224751,-4.4922811847448605 L11.208457079799278,-4.248378261090114 L11.295740682057522,-4.002552746585852 L11.377242444212298,-3.754957247957594 L11.452911770551149,-3.505745470724367 L11.522701686096163,-3.2550721237794322 L11.586568865765692,-3.0030928233480947 L11.644473661270277,-2.749963996382271 L11.696380125725998,-2.495842783451741 L11.742256035970058,-2.2408869411924193 L11.78207291256469,-1.9852547443721444 L11.815806037476982,-1.7291048876348503 L11.843434469423666,-1.47259638698405 L11.86494105687131,-1.2158884810668384 L11.880312448683867,-0.9591405323196759 L11.889539102410971,-0.7025119280373275 L11.892615290211818,-0.44616198142641394 " />
			<path d="M17.101042870968566,5.1003314912261315 L7.190530129125383,10.857260283824585 " />
			<path d="M4.0413843116302255,-17.381779582102833 L-5.8691284302129585,-11.62485078950438 " />

       </g>
    </g>
    <g transform="translate(20,210.0)" stroke="rgb(0,0,255)">
        <line x1="30" y1="-30" x2="75" y2="-33" stroke-width="3" stroke="#000000" />
         <text x="80" y="-30" style="stroke:#000000">X </text>

        <line x1="30" y1="-30" x2="30" y2="-75" stroke-width="3" stroke="#000000" />
         <text x="25" y="-85" style="stroke:#000000">Y </text>

        <line x1="30" y1="-30" x2="58" y2="-15" stroke-width="3" stroke="#000000" />
         <text x="65" y="-5" style="stroke:#000000">Z </text>
        <!--
            <line x1="0" y1="0" x2="4.683401350072058" y2="0" stroke-width="3" />
            <text x="0" y="20" style="stroke:#000000">1  mm </text>
        -->
    </g>
</svg>
