<?xml version="1.0" encoding="UTF-8" standalone="no"?>
<svg
   xmlns:svg="http://www.w3.org/2000/svg"
   xmlns="http://www.w3.org/2000/svg"
   width="800.0"
   height="240.0"

>
  <defs>
    <style>
      .cq-bg { fill: #ffffff; }
      @media (prefers-color-scheme: dark) {
        .cq-bg { fill: #0d1117; }
        /* CadQuery SVG selectors */
        g[stroke="rgb(0,0,0)"] { stroke: #c9d1d9 !important; }
        g[stroke="rgb(160,160,160)"] { stroke: #484f58 !important; }
        /* OpenSCAD SVG selectors */
        path { stroke: #c9d1d9 !important; }
        polygon { stroke: #c9d1d9 !important; fill: #161b22 !important; }
        /* Common selectors */
        line { stroke: #c9d1d9 !important; }
        text { stroke: #c9d1d9 !important; fill: #c9d1d9 !important; }
      }
    </style>
  </defs>
  <rect width="800.0" height="240.0" class="cq-bg"/>
    <g transform="scale(2.8372464893531095, -2.8372464893531095)   translate(118.50967324168126,-32.917106043049635)" stroke-width="0.35245439680780055"  fill="none">
       <!-- hidden lines -->
       <g  stroke="rgb(160,160,160)" fill="none" stroke-dasharray="0.35245439680780055,0.35245439680780055" >
			<path d="M-48.01879388012114,-24.908529974793876 L46.36704175648061,-18.192113050095678 " />
			<path d="M10.26445962548044,-21.838167952074702 L35.0407414800884,-36.23048993357084 " />
			<path d="M10.264459625480448,-21.8381679520747 L31.265308054624334,-20.343765186329353 " />
			<path d="M46.3670417564806,-18.19211305009568 L48.01879388012113,-19.151601182195424 " />
			<path d="M10.26445962548044,-21.838167952074702 L10.26445962548044,-15.963483797809463 " />
			<path d="M46.3670417564806,-18.19211305009568 L46.3670417564806,25.86801810689362 " />
			<path d="M-40.5623128648296,-16.055463819200295 L-40.558367937147935,-16.184843642249966 L-40.54654885707898,-16.313147027144325 L-40.526902671044404,-16.439863256034652 L-40.514167642232195,-16.50246826005307 L-40.49950758164092,-16.564487928823713 L-40.48293708167247,-16.625860528909275 L-40.46447263635109,-16.68652497095481 L-40.44413262490551,-16.74642087049514 L-40.42193729347449,-16.805488608060635 L-40.39790873495421,-16.863669388521526 L-40.372070867007224,-16.92090529961169 L-40.34444940825527,-16.977139369573642 L-40.3150718526793,-17.03231562386736 L-40.283967442252404,-17.086379140886475 L-40.25116713783279,-17.139276106626433 L-40.21670358834581,-17.190953868250112 L-40.180611098285716,-17.241360986497675 L-40.14292559356952,-17.290447286888423 L-40.103684585776826,-17.33816390966371 L-40.062927134811396,-17.384463358421208 L-40.020693810021534,-17.429299547392098 L-39.977026649817944,-17.47262784731416 L-39.93196911982937,-17.514405129855053 L-39.885566069637505,-17.5545898105416 L-39.83786368813446,-17.593141890152346 L-39.788909457547035,-17.630022994532183 L-39.73875210617359,-17.665196412789392 L-39.68744155988066,-17.698627133837103 L-39.63502889240754,-17.73028188124281 " />
			<path d="M-39.63502889240752,-17.730281881242817 L-39.580525436312215,-17.760686702383218 L-39.52498751657893,-17.78918222844229 L-39.468472567067614,-17.815738991120533 L-39.4110390320216,-17.840329527066856 L-39.35274630562819,-17.862928406279487 L-39.293654670596936,-17.88351225840408 L-39.233825235818955,-17.9020597969019 L-39.17331987317194,-17.91855184106301 L-39.11220115353615,-17.932971335841803 L-39.05053228208741,-17.94530336949423 L-38.988377032934366,-17.95553518899863 L-38.92579968316718,-17.963656213244093 L-38.86286494638621,-17.969658043972792 L-38.79963790577921,-17.973534474464937 L-38.73618394681637,-17.97528149595738 L-38.67256868963272,-17.974897301789227 " />
			<path d="M-36.836099819648666,-14.813428957873779 L-36.86728110438429,-14.757978294812482 L-36.90023379389942,-14.70372355081832 L-36.93492381057351,-14.65072083277075 L-36.971315280150414,-14.599024952781921 L-37.00937056883728,-14.548689371513401 L-37.04905032222307,-14.499766142890481 L-37.09031350597648,-14.452305860271252 L-37.13311744828107,-14.406357604126105 L-37.1774178839638,-14.361968891281753 L-37.22316900027131,-14.319185625782293 L-37.270323484246646,-14.278052051418104 L-37.31883257165733,-14.238610705971665 L-37.36864609742435,-14.200902377227631 L-37.41971254749972,-14.164966060792649 L-37.47197911213911,-14.130838919768523 L-37.525391740514394,-14.098556246320452 " />
			<path d="M-37.52539174051441,-14.098556246320447 L-37.581867936343514,-14.067097085348369 L-37.6394518710461,-14.037687672446788 L-37.698079650747445,-14.010360639657144 L-37.75768622334526,-13.985146308457436 L-37.818205450690044,-13.962072656118185 L-37.879570181970564,-13.941165284659458 L-37.941712328222884,-13.922447392443429 L-38.00456293788044,-13.905939748433982 L-38.06805227328116,-13.891660669151923 L-38.13210988804685,-13.879625998351376 L-38.196664705248956,-13.869849089439885 L-38.26164509627399,-13.862340790661785 L-38.32697896030104,-13.857109433061206 L-38.39259380430328,-13.854160821238146 L-38.45841682348466,-13.853498226907803 L-38.5243749820625,-13.855122385270358 L-38.590395094306395,-13.859031494195207 L-38.65640390574351,-13.865221216220572 L-38.722328174440136,-13.873684683366246 L-38.78809475226935,-13.884412504754165 L-38.85363066607456,-13.897392777028308 L-38.91886319863892,-13.91261109756241 L-38.98371996937079,-13.930050580440795 L-39.04812901461564,-13.949691875194626 L-39.11201886750535,-13.971513188272754 L-39.175318637256275,-13.995490307223369 L-39.23795808782812,-14.02159662755961 L-39.29986771585632,-14.049803182279318 L-39.36097882777144,-14.08007867400619 L-39.42122361602006,-14.112389509716664 L-39.48053523430256,-14.146699838014 L-39.538847871744295,-14.182971588908208 L-39.59609682591793,-14.221164516057678 L-39.652218574635825,-14.261236241425639 L-39.70715084643286,-14.303142302301898 L-39.760832689661484,-14.346836200637703 L-39.81320454012236,-14.392269454638944 L-39.86420828715547,-14.439391652560506 L-39.913787338118446,-14.48815050864203 L-39.96188668118051,-14.538491921123057 L-40.00845294636243,-14.590360032273148 L-40.05343446475467,-14.643697290370413 L-40.096781325848056,-14.698444513559629 L-40.138445432913414,-14.754540955519147 L-40.17838055636865,-14.81192437286367 L-40.21654238507408,-14.87053109420816 L-40.252888575499064,-14.930296090816208 L-40.287378798705525,-14.991153048754505 L-40.31997478509602,-15.05303444247333 L-40.35064036687685,-15.115871609731414 L-40.379341518189065,-15.179594827782077 L-40.406046392862784,-15.244133390736055 L-40.43072535975305,-15.309415688015207 L-40.45335103561788,-15.375369283810045 L-40.4738983155021,-15.441920997452938 L-40.492344400593275,-15.508996984617758 L-40.50866882351876,-15.57652281925595 L-40.52285347105587,-15.64442357617804 L-40.534882604229864,-15.71262391418898 L-40.54474287577764,-15.781048159685103 L-40.55242334495749,-15.84962039061989 L-40.55791548968879,-15.918264520745415 L-40.56121321600782,-15.986904384035988 L-40.5623128648296,-16.055463819200277 " />
			<path d="M34.94635564445179,-10.682330279441738 L34.95030057213346,-10.811710102491409 L34.96211965220241,-10.940013487385768 L34.98176583823699,-11.066729716276095 L34.9945008670492,-11.129334720294516 L35.00916092764047,-11.191354389065156 L35.025731427608925,-11.252726989150718 L35.0441958729303,-11.313391431196253 L35.064535884375886,-11.373287330736582 L35.0867312158069,-11.432355068302076 L35.110759774327185,-11.490535848762967 L35.13659764227417,-11.547771759853132 L35.16421910102612,-11.604005829815085 L35.19359665660209,-11.659182084108801 L35.22470106702899,-11.713245601127918 L35.257501371448605,-11.766142566867876 L35.291964920935584,-11.817820328491555 L35.328057410995676,-11.86822744673912 L35.36574291571187,-11.917313747129867 L35.40498392350457,-11.965030369905154 L35.445741374469996,-12.011329818662649 L35.48797469925986,-12.056166007633541 L35.53164185946345,-12.099494307555604 L35.576699389452024,-12.141271590096496 L35.62310243964389,-12.181456270783041 L35.67080482114693,-12.220008350393789 L35.71975905173436,-12.256889454773626 L35.7699164031078,-12.292062873030833 L35.82122694940073,-12.325493594078546 L35.87363961687385,-12.357148341484253 " />
			<path d="M35.873639616873874,-12.357148341484262 L35.92814307296918,-12.387553162624659 L35.98368099270246,-12.416048688683734 L36.04019594221378,-12.442605451361974 L36.097629477259794,-12.4671959873083 L36.1559222036532,-12.48979486652093 L36.215013838684456,-12.510378718645525 L36.27484327346244,-12.528926257143342 L36.335348636109444,-12.545418301304453 L36.396467355745244,-12.559837796083244 L36.458136227193975,-12.572169829735671 L36.52029147634702,-12.582401649240072 L36.58286882611421,-12.590522673485536 L36.645803562895175,-12.596524504214235 L36.70903060350218,-12.60040093470638 L36.77248456246502,-12.602147956198824 L36.836099819648666,-12.60176376203067 " />
			<path d="M38.672568689632726,-9.440295418115225 L38.64138740489711,-9.384844755053928 L38.60843471538198,-9.330590011059765 L38.573744698707884,-9.277587293012195 L38.53735322913098,-9.225891413023366 L38.499297940444116,-9.175555831754844 L38.459618187058325,-9.126632603131924 L38.41835500330491,-9.079172320512697 L38.37555106100032,-9.033224064367548 L38.331250625317594,-8.988835351523196 L38.28549950901008,-8.946052086023737 L38.23834502503475,-8.904918511659547 L38.18983593762406,-8.865477166213108 L38.14002241185704,-8.827768837469074 L38.08895596178167,-8.791832521034094 L38.03668939714228,-8.757705380009966 L37.983276768767,-8.725422706561895 " />
			<path d="M37.983276768766984,-8.72542270656189 L37.92680057293788,-8.693963545589812 L37.869216638235294,-8.664554132688231 L37.81058885853395,-8.637227099898587 L37.75098228593613,-8.612012768698879 L37.69046305859135,-8.58893911635963 L37.62909832731083,-8.568031744900901 L37.56695618105851,-8.549313852684872 L37.50410557140095,-8.532806208675424 L37.44061623600023,-8.518527129393366 L37.376558621234544,-8.506492458592819 L37.312003804032436,-8.49671554968133 L37.247023413007405,-8.489207250903227 L37.18168954898035,-8.483975893302649 L37.11607470497811,-8.481027281479589 L37.05025168579673,-8.480364687149246 L36.984293527218895,-8.4819888455118 L36.918273414975,-8.48589795443665 L36.85226460353788,-8.492087676462013 L36.786340334841256,-8.500551143607689 L36.72057375701204,-8.511278964995608 L36.655037843206834,-8.524259237269751 L36.589805310642475,-8.539477557803853 L36.5249485399106,-8.556917040682238 L36.46053949466575,-8.576558335436069 L36.396649641776044,-8.598379648514197 L36.33334987202512,-8.622356767464812 L36.27071042145327,-8.648463087801051 L36.20880079342507,-8.67666964252076 L36.14768968150995,-8.706945134247633 L36.087444893261335,-8.739255969958107 L36.028133274978835,-8.773566298255442 L35.9698206375371,-8.80983804914965 L35.91257168336346,-8.848030976299121 L35.85644993464557,-8.88810270166708 L35.80151766284853,-8.930008762543341 L35.74783581961991,-8.973702660879146 L35.69546396915903,-9.019135914880387 L35.64446022212592,-9.066258112801949 L35.594881171162946,-9.115016968883474 L35.54678182810088,-9.1653583813645 L35.50021556291896,-9.217226492514591 L35.45523404452672,-9.270563750611856 L35.411887183433336,-9.325310973801072 L35.37022307636798,-9.38140741576059 L35.33028795291274,-9.438790833105113 L35.292126124207314,-9.497397554449602 L35.25577993378233,-9.557162551057651 L35.22128971057587,-9.618019508995948 L35.18869372418537,-9.679900902714772 L35.15802814240454,-9.742738069972857 L35.12932699109233,-9.80646128802352 L35.10262211641861,-9.870999850977498 L35.077943149528345,-9.936282148256648 L35.055317473663514,-10.00223574405149 L35.034770193779295,-10.06878745769438 L35.01632410868812,-10.1358634448592 L34.99999968576263,-10.203389279497394 L34.985815038225525,-10.271290036419483 L34.97378590505153,-10.339490374430422 L34.963925633503756,-10.407914619926546 L34.9562451643239,-10.476486850861333 L34.950753019592604,-10.545130980986858 L34.94745529327357,-10.61377084427743 L34.94635564445179,-10.68233027944172 " />
			<path d="M-40.5623128648296,11.359728900704157 L-40.558367937147935,11.230349077654486 L-40.54654885707898,11.102045692760127 L-40.526902671044404,10.9753294638698 L-40.514167642232195,10.912724459851379 L-40.49950758164092,10.850704791080739 L-40.48293708167247,10.789332190995177 L-40.46447263635109,10.728667748949642 L-40.44413262490551,10.668771849409312 L-40.42193729347449,10.609704111843818 L-40.39790873495421,10.551523331382928 L-40.372070867007224,10.494287420292762 L-40.34444940825527,10.43805335033081 L-40.3150718526793,10.382877096037094 L-40.283967442252404,10.328813579017977 L-40.25116713783279,10.275916613278019 L-40.21670358834581,10.22423885165434 L-40.180611098285716,10.173831733406775 L-40.14292559356952,10.124745433016027 L-40.103684585776826,10.07702881024074 L-40.062927134811396,10.030729361483246 L-40.020693810021534,9.985893172512354 L-39.977026649817944,9.94256487259029 L-39.93196911982937,9.900787590049399 L-39.885566069637505,9.860602909362854 L-39.83786368813446,9.822050829752106 L-39.788909457547035,9.785169725372269 L-39.73875210617359,9.749996307115062 L-39.68744155988066,9.716565586067349 L-39.63502889240754,9.684910838661642 " />
			<path d="M-39.63502889240752,9.684910838661633 L-39.580525436312215,9.654506017521236 L-39.52498751657893,9.62601049146216 L-39.468472567067614,9.59945372878392 L-39.4110390320216,9.574863192837595 L-39.352746305628195,9.552264313624965 L-39.293654670596936,9.53168046150037 L-39.233825235818955,9.513132923002553 L-39.17331987317195,9.496640878841442 L-39.11220115353615,9.482221384062651 L-39.05053228208742,9.469889350410224 L-38.98837703293437,9.459657530905822 L-38.925799683167185,9.451536506660359 L-38.86286494638622,9.44553467593166 L-38.799637905779214,9.441658245439514 L-38.736183946816375,9.439911223947071 L-38.672568689632726,9.440295418115225 " />
			<path d="M-36.836099819648666,12.60176376203067 L-36.86728110438428,12.657214425091967 L-36.90023379389941,12.71146916908613 L-36.93492381057351,12.7644718871337 L-36.971315280150414,12.81616776712253 L-37.00937056883728,12.866503348391051 L-37.04905032222307,12.915426577013971 L-37.09031350597648,12.962886859633198 L-37.13311744828107,13.008835115778346 L-37.1774178839638,13.053223828622698 L-37.22316900027131,13.096007094122157 L-37.270323484246646,13.137140668486348 L-37.31883257165733,13.176582013932787 L-37.36864609742435,13.21429034267682 L-37.41971254749972,13.250226659111801 L-37.47197911213911,13.284353800135928 L-37.525391740514394,13.316636473584 " />
			<path d="M-37.52539174051441,13.316636473584005 L-37.581867936343514,13.348095634556083 L-37.6394518710461,13.377505047457664 L-37.698079650747445,13.404832080247308 L-37.75768622334526,13.430046411447016 L-37.818205450690044,13.453120063786265 L-37.879570181970564,13.474027435244993 L-37.941712328222884,13.492745327461023 L-38.00456293788044,13.50925297147047 L-38.06805227328116,13.523532050752529 L-38.13210988804685,13.535566721553076 L-38.196664705248956,13.545343630464565 L-38.26164509627399,13.552851929242667 L-38.32697896030104,13.558083286843246 L-38.39259380430328,13.561031898666306 L-38.45841682348466,13.561694492996649 L-38.5243749820625,13.560070334634094 L-38.590395094306395,13.556161225709245 L-38.65640390574351,13.549971503683881 L-38.722328174440136,13.541508036538206 L-38.78809475226935,13.530780215150287 L-38.85363066607456,13.517799942876144 L-38.91886319863892,13.502581622342042 L-38.98371996937079,13.485142139463656 L-39.04812901461564,13.465500844709826 L-39.11201886750535,13.443679531631698 L-39.175318637256275,13.419702412681083 L-39.23795808782812,13.393596092344843 L-39.29986771585632,13.365389537625134 L-39.36097882777144,13.335114045898262 L-39.42122361602006,13.302803210187788 L-39.48053523430256,13.268492881890452 L-39.538847871744295,13.232221130996244 L-39.59609682591793,13.194028203846774 L-39.652218574635825,13.153956478478815 L-39.70715084643286,13.112050417602553 L-39.760832689661484,13.068356519266748 L-39.81320454012236,13.022923265265508 L-39.86420828715547,12.975801067343946 L-39.913787338118446,12.927042211262421 L-39.96188668118051,12.876700798781394 L-40.00845294636243,12.824832687631304 L-40.05343446475467,12.771495429534038 L-40.096781325848056,12.716748206344823 L-40.138445432913414,12.660651764385305 L-40.17838055636865,12.603268347040782 L-40.21654238507408,12.544661625696293 L-40.252888575499064,12.484896629088244 L-40.287378798705525,12.424039671149947 L-40.31997478509602,12.362158277431122 L-40.35064036687685,12.299321110173038 L-40.379341518189065,12.235597892122374 L-40.406046392862784,12.171059329168397 L-40.43072535975305,12.105777031889247 L-40.45335103561788,12.039823436094405 L-40.4738983155021,11.973271722451514 L-40.492344400593275,11.906195735286694 L-40.50866882351876,11.838669900648501 L-40.52285347105587,11.770769143726412 L-40.534882604229864,11.702568805715472 L-40.54474287577764,11.63414456021935 L-40.55242334495749,11.565572329284562 L-40.55791548968879,11.496928199159036 L-40.56121321600782,11.428288335868464 L-40.5623128648296,11.359728900704175 " />
			<path d="M-36.92845819282043,-10.90131163904505 L-38.58021031646096,-11.018848935227268 " />
			<path d="M36.92845819282043,10.901311639045048 L36.92845819282043,11.978337067327011 " />
			<path d="M-38.58021031646096,-11.018848935227268 L-38.58021031646096,6.605203527568452 " />
			<path d="M36.928458192820436,11.97833706732701 L-38.58021031646096,6.605203527568452 " />
			<path d="M34.94635564445179,16.732862440462714 L34.95030057213346,16.603482617413043 L34.96211965220241,16.475179232518684 L34.98176583823699,16.348463003628357 L34.9945008670492,16.285857999609938 L35.00916092764047,16.223838330839296 L35.025731427608925,16.162465730753734 L35.0441958729303,16.1018012887082 L35.064535884375886,16.04190538916787 L35.0867312158069,15.982837651602376 L35.110759774327185,15.924656871141485 L35.13659764227417,15.86742096005132 L35.16421910102612,15.811186890089367 L35.19359665660209,15.75601063579565 L35.22470106702899,15.701947118776534 L35.257501371448605,15.649050153036576 L35.291964920935584,15.597372391412897 L35.328057410995676,15.546965273165332 L35.36574291571187,15.497878972774584 L35.40498392350457,15.450162349999298 L35.445741374469996,15.403862901241803 L35.48797469925986,15.35902671227091 L35.53164185946345,15.315698412348848 L35.576699389452024,15.273921129807956 L35.62310243964389,15.23373644912141 L35.67080482114693,15.195184369510663 L35.71975905173436,15.158303265130826 L35.7699164031078,15.123129846873619 L35.82122694940073,15.089699125825906 L35.87363961687385,15.058044378420199 " />
			<path d="M35.873639616873874,15.05804437842019 L35.92814307296918,15.027639557279793 L35.98368099270246,14.99914403122072 L36.04019594221378,14.972587268542476 L36.097629477259794,14.947996732596152 L36.1559222036532,14.925397853383522 L36.215013838684456,14.904814001258927 L36.27484327346244,14.88626646276111 L36.335348636109444,14.869774418599999 L36.396467355745244,14.855354923821208 L36.458136227193975,14.843022890168779 L36.52029147634702,14.83279107066438 L36.58286882611421,14.824670046418916 L36.645803562895175,14.818668215690217 L36.70903060350218,14.814791785198071 L36.77248456246502,14.813044763705628 L36.836099819648666,14.813428957873782 " />
			<path d="M38.672568689632726,17.97489730178923 L38.6413874048971,18.030347964850527 L38.608434715381975,18.084602708844688 L38.573744698707884,18.137605426892257 L38.53735322913098,18.189301306881088 L38.499297940444116,18.239636888149608 L38.459618187058325,18.28856011677253 L38.41835500330491,18.336020399391757 L38.37555106100032,18.3819686555369 L38.331250625317594,18.426357368381257 L38.28549950901008,18.469140633880716 L38.23834502503475,18.510274208244905 L38.18983593762406,18.549715553691346 L38.14002241185704,18.587423882435377 L38.08895596178167,18.62336019887036 L38.03668939714228,18.657487339894487 L37.983276768767,18.689770013342557 " />
			<path d="M37.983276768766984,18.68977001334256 L37.92680057293788,18.72122917431464 L37.869216638235294,18.75063858721622 L37.81058885853395,18.777965620005865 L37.75098228593613,18.80317995120557 L37.69046305859135,18.826253603544824 L37.62909832731083,18.84716097500355 L37.56695618105851,18.86587886721958 L37.50410557140095,18.882386511229026 L37.44061623600023,18.896665590511084 L37.376558621234544,18.908700261311633 L37.312003804032436,18.918477170223124 L37.247023413007405,18.925985469001226 L37.18168954898035,18.931216826601805 L37.11607470497811,18.934165438424863 L37.05025168579673,18.934828032755206 L36.984293527218895,18.933203874392653 L36.918273414975,18.9292947654678 L36.85226460353788,18.923105043442437 L36.786340334841256,18.914641576296763 L36.72057375701204,18.903913754908842 L36.655037843206834,18.8909334826347 L36.589805310642475,18.875715162100597 L36.5249485399106,18.858275679222213 L36.46053949466575,18.83863438446838 L36.396649641776044,18.816813071390257 L36.33334987202512,18.792835952439642 L36.27071042145327,18.7667296321034 L36.20880079342507,18.73852307738369 L36.14768968150995,18.708247585656817 L36.087444893261335,18.675936749946345 L36.028133274978835,18.64162642164901 L35.9698206375371,18.605354670754803 L35.91257168336346,18.567161743605332 L35.85644993464557,18.52709001823737 L35.80151766284853,18.48518395736111 L35.74783581961991,18.441490059025305 L35.69546396915903,18.396056805024063 L35.64446022212592,18.348934607102503 L35.594881171162946,18.300175751020976 L35.54678182810088,18.24983433853995 L35.50021556291896,18.197966227389863 L35.45523404452672,18.144628969292597 L35.411887183433336,18.08988174610338 L35.37022307636798,18.033785304143862 L35.33028795291274,17.976401886799337 L35.292126124207314,17.917795165454848 L35.25577993378233,17.8580301688468 L35.22128971057587,17.797173210908504 L35.18869372418537,17.73529181718968 L35.15802814240454,17.672454649931595 L35.12932699109233,17.60873143188093 L35.10262211641861,17.544192868926952 L35.077943149528345,17.478910571647802 L35.055317473663514,17.412956975852964 L35.034770193779295,17.346405262210073 L35.01632410868812,17.27932927504525 L34.99999968576263,17.21180344040706 L34.985815038225525,17.14390268348497 L34.97378590505153,17.075702345474028 L34.963925633503756,17.007278099977906 L34.9562451643239,16.93870586904312 L34.950753019592604,16.87006173891759 L34.94745529327357,16.80142187562702 L34.94635564445179,16.732862440462732 " />
			<path d="M18.287255654591593,-20.623854725151073 L31.265308054624334,-28.1626900487919 " />
			<path d="M29.6135559309838,-29.664974324193782 L31.26530805462433,-30.624462456293525 " />
			<path d="M18.287255654591593,-30.470944355157567 L29.613555930983804,-29.664974324193782 " />
			<path d="M-38.58021031646096,-11.018848935227268 L-36.92845819282043,-11.978337067327011 " />
			<path d="M36.92845819282043,11.978337067327011 L38.58021031646096,11.018848935227268 " />
			<path d="M-38.58021031646096,6.605203527568452 L-36.92845819282043,5.64571539546871 " />
			<path d="M29.6135559309838,-29.664974324193782 L29.6135559309838,-14.97826393853068 " />
			<path d="M-39.635028892407526,-17.730281881242817 L-37.983276768767,-18.68977001334256 " />
			<path d="M-37.52539174051441,-14.09855624632045 L-35.87363961687388,-15.058044378420194 " />
			<path d="M35.873639616873874,-12.35714834148426 L37.5253917405144,-13.316636473584003 " />
			<path d="M37.98327676876699,-8.725422706561892 L39.63502889240752,-9.684910838661635 " />
			<path d="M-39.635028892407526,9.684910838661635 L-37.983276768767,8.725422706561892 " />
			<path d="M-37.52539174051441,13.316636473584003 L-35.87363961687388,12.35714834148426 " />
			<path d="M35.873639616873874,15.058044378420194 L37.5253917405144,14.09855624632045 " />
			<path d="M37.98327676876699,18.68977001334256 L39.63502889240752,17.730281881242817 " />

       </g>

       <!-- solid lines -->
       <g  stroke="rgb(0,0,0)" fill="none">
			<path d="M-48.01879388012114,-24.908529974793876 L-46.36704175648061,-25.86801810689362 " />
			<path d="M-46.3670417564806,-25.86801810689362 L-46.3670417564806,18.19211305009568 " />
			<path d="M-48.01879388012114,19.151601182195424 L-46.36704175648061,18.19211305009568 " />
			<path d="M-48.01879388012114,-24.908529974793876 L-48.01879388012114,19.151601182195424 " />
			<path d="M-46.3670417564806,-25.86801810689362 L-8.612707501839902,-23.18145133701434 " />
			<path d="M-8.612707501839909,-23.18145133701434 L16.16357435276805,-37.573773318510476 " />
			<path d="M16.16357435276805,-37.573773318510476 L35.0407414800884,-36.23048993357084 " />
			<path d="M31.265308054624334,-20.343765186329353 L48.018793880121144,-19.15160118219542 " />
			<path d="M-46.3670417564806,18.19211305009568 L48.018793880121144,24.90852997479388 " />
			<path d="M48.01879388012114,-19.151601182195424 L48.01879388012114,24.908529974793876 " />
			<path d="M-8.612707501839909,-17.306767182749102 L10.264459625480441,-15.963483797809463 " />
			<path d="M-8.612707501839909,-23.18145133701434 L-8.612707501839909,-17.306767182749102 " />
			<path d="M-38.910560741189066,-17.014951951300038 L-38.9066158135074,-17.14433177434971 L-38.89479673343845,-17.272635159244068 L-38.87515054740387,-17.399351388134395 L-38.86241551859166,-17.461956392152814 L-38.847755458000385,-17.523976060923456 L-38.83118495803193,-17.585348661009018 L-38.812720512710555,-17.646013103054553 L-38.79238050126497,-17.705909002594883 L-38.77018516983396,-17.764976740160378 L-38.74615661131367,-17.82315752062127 L-38.72031874336669,-17.880393431711433 L-38.69269728461474,-17.936627501673385 L-38.66331972903877,-17.9918037559671 L-38.63221531861187,-18.045867272986218 L-38.59941501419225,-18.098764238726176 L-38.564951464705274,-18.150442000349855 L-38.52885897464518,-18.200849118597418 L-38.49117346992899,-18.249935418988166 L-38.45193246213629,-18.297652041763453 L-38.41117501117086,-18.34395149052095 L-38.368941686381,-18.38878767949184 L-38.32527452617741,-18.432115979413904 L-38.280216996188834,-18.473893261954796 L-38.23381394599697,-18.514077942641343 L-38.18611156449393,-18.55263002225209 L-38.1371573339065,-18.589511126631926 L-38.08699998253306,-18.624684544889135 L-38.035689436240126,-18.658115265936846 L-37.983276768767006,-18.689770013342553 " />
			<path d="M-37.983276768766984,-18.68977001334256 L-37.899664725298166,-18.735414154349016 L-37.813712960224954,-18.77657376204377 L-37.725628538877906,-18.81314967932673 L-37.635623664343335,-18.84505379160949 L-37.54391516624748,-18.87220923909109 L-37.450723978394976,-18.894550601920013 L-37.356274606519946,-18.912024057796327 L-37.260794587432024,-18.924587511634336 L-37.164513940860246,-18.932210696973314 L-37.0676646153154,-18.934875248892066 L-36.970479929305725,-18.932574748251636 L-36.87319400925218,-18.925314737159564 L-36.776041225457426,-18.913112705618474 L-36.6792556274872,-18.895998049391117 L-36.58307038032443,-18.87401199918342 L-36.48771720265436,-18.847207521316072 L-36.39342580863395,-18.815649190124063 L-36.30042335449035,-18.779413032391407 L-36.20893389128164,-18.738586344196 L-36.11917782513822,-18.6932674806057 L-36.031371386285144,-18.64356561873236 L-35.945726108124525,-18.5896004947146 L-35.86244831763311,-18.531502115262967 L-35.78173863830246,-18.469410444462376 L-35.70379150681941,-18.40347506658637 L-35.628794704651064,-18.333854825735518 L-35.5569289056628,-18.260717443168037 L-35.48836724085908,-18.18423911324461 L-35.423274881295704,-18.104604078960733 L-35.36180864016827,-18.022004188089205 L-35.30411659503548,-17.936638431002027 L-35.25033773108727,-17.84871246128518 L-35.20060160631736,-17.75843810030112 L-35.15502803940671,-17.666032826892557 L-35.11372682106977,-17.571719253456877 L-35.076797449559066,-17.475724589653378 L-35.044328890965204,-17.378280095035304 L-35.01639936488975,-17.27962052192532 L-34.993076156007355,-17.179983549876606 L-34.97441545197108,-17.079609213081998 L-34.96046220805145,-16.97873932211058 L-34.95125003883522,-16.87761688136487 L-34.94680113724492,-16.7764855036619 L-34.94712622107416,-16.675588823348615 L-34.952224507167514,-16.575169909365403 L-34.96208371330724,-16.475470679671705 L-34.976680087802166,-16.37673131844447 L-34.99597846670766,-16.279189697453447 L-35.0199323585386,-16.183080803007236 L-35.04848405627143,-16.0886361698507 L-35.0815647763655,-15.996083323377498 L-35.11909482446857,-15.905645231501444 L-35.16098378740751,-15.817539767507315 L-35.20713075100156,-15.731979185174996 L-35.257424543173435,-15.64916960744155 L-35.31174400177257,-15.569310529832999 L-35.369958266465375,-15.49259433986213 L-35.43192709398924,-15.419205853550128 L-35.49750119601083,-15.349321870188593 L-35.56652259877477,-15.283110746414554 L-35.63882502367623,-15.220731990624593 L-35.71423428784069,-15.162335878705141 L-35.792568723745696,-15.108063092004707 L-35.87363961687386,-15.058044378420195 " />
			<path d="M-35.873639616873874,-15.05804437842019 L-35.93011581270298,-15.026585217448112 L-35.987699747405564,-14.997175804546531 L-36.04632752710691,-14.969848771756887 L-36.105934099704726,-14.944634440557179 L-36.16645332704951,-14.921560788217928 L-36.22781805833003,-14.900653416759202 L-36.28996020458235,-14.881935524543172 L-36.35281081423991,-14.865427880533725 L-36.41630014964063,-14.851148801251666 L-36.480357764406314,-14.839114130451119 L-36.54491258160842,-14.829337221539628 L-36.60989297263345,-14.821828922761528 L-36.67522683666051,-14.816597565160949 L-36.74084168066275,-14.81364895333789 L-36.80666469984413,-14.812986359007546 L-36.87262285842196,-14.8146105173701 L-36.93864297066586,-14.81851962629495 L-37.004651782102975,-14.824709348320315 L-37.0705760507996,-14.83317281546599 L-37.13634262862882,-14.843900636853908 L-37.201878542434024,-14.856880909128051 L-37.26711107499838,-14.872099229662153 L-37.331967845730254,-14.889538712540539 L-37.396376890975105,-14.909180007294369 L-37.460266743864814,-14.931001320372497 L-37.52356651361574,-14.954978439323112 L-37.586205964187585,-14.981084759659353 L-37.64811559221579,-15.00929131437906 L-37.709226704130906,-15.039566806105933 L-37.76947149237952,-15.071877641816407 L-37.82878311066202,-15.106187970113742 L-37.88709574810376,-15.14245972100795 L-37.9443447022774,-15.180652648157421 L-38.00046645099529,-15.220724373525382 L-38.055398722792326,-15.262630434401641 L-38.10908056602095,-15.306324332737447 L-38.16145241648183,-15.351757586738687 L-38.212456163514936,-15.398879784660249 L-38.26203521447791,-15.447638640741774 L-38.310134557539975,-15.4979800532228 L-38.3567008227219,-15.549848164372891 L-38.40168234111414,-15.603185422470156 L-38.44502920220752,-15.657932645659372 L-38.48669330927288,-15.71402908761889 L-38.52662843272812,-15.771412504963413 L-38.564790261433544,-15.830019226307902 L-38.60113645185853,-15.889784222915951 L-38.63562667506499,-15.950641180854248 L-38.66822266145549,-16.012522574573072 L-38.69888824323632,-16.075359741831157 L-38.72758939454853,-16.139082959881822 L-38.75429426922225,-16.2036215228358 L-38.77897323611251,-16.26890382011495 L-38.801598911977344,-16.334857415909788 L-38.82214619186156,-16.40140912955268 L-38.84059227695274,-16.468485116717503 L-38.85691669987823,-16.536010951355692 L-38.87110134741533,-16.60391170827778 L-38.88313048058933,-16.672112046288724 L-38.8929907521371,-16.740536291784846 L-38.900671221316955,-16.809108522719633 L-38.906163366048254,-16.87775265284516 L-38.90946109236729,-16.94639251613573 L-38.910560741189066,-17.01495195130002 " />
			<path d="M36.598107768092326,-11.64181841154148 L36.60205269577399,-11.771198234591152 L36.613871775842945,-11.89950161948551 L36.63351796187752,-12.026217848375838 L36.64625299068973,-12.088822852394259 L36.66091305128101,-12.150842521164899 L36.67748355124946,-12.21221512125046 L36.69594799657084,-12.272879563295996 L36.71628800801642,-12.332775462836326 L36.738483339447434,-12.39184320040182 L36.76251189796772,-12.45002398086271 L36.7883497659147,-12.507259891952875 L36.815971224666654,-12.563493961914828 L36.845348780242624,-12.618670216208544 L36.87645319066952,-12.67273373322766 L36.90925349508914,-12.725630698967619 L36.94371704457612,-12.777308460591298 L36.97980953463621,-12.827715578838863 L37.017495039352404,-12.87680187922961 L37.0567360471451,-12.924518502004897 L37.09749349811053,-12.970817950762392 L37.13972682290039,-13.015654139733284 L37.18339398310398,-13.058982439655347 L37.22845151309256,-13.100759722196239 L37.27485456328442,-13.140944402882784 L37.322556944787465,-13.179496482493532 L37.37151117537489,-13.216377586873369 L37.421668526748334,-13.251551005130576 L37.472979073041266,-13.28498172617829 L37.52539174051439,-13.316636473583996 " />
			<path d="M37.52539174051441,-13.316636473584005 L37.609003783983226,-13.36228061459046 L37.69495554905644,-13.403440222285214 L37.783039970403486,-13.440016139568174 L37.87304484493806,-13.471920251850934 L37.96475334303391,-13.499075699332534 L38.05794453088642,-13.521417062161454 L38.152393902761446,-13.53889051803777 L38.24787392184937,-13.551453971875778 L38.344154568421146,-13.559077157214755 L38.44100389396599,-13.561741709133509 L38.53818857997567,-13.559441208493078 L38.63547450002921,-13.552181197401007 L38.732627283823966,-13.539979165859915 L38.82941288179419,-13.522864509632562 L38.92559812895696,-13.500878459424861 L39.02095130662703,-13.474073981557517 L39.11524270064744,-13.442515650365504 L39.208245154791044,-13.40627949263285 L39.29973461799975,-13.365452804437444 L39.38949068414317,-13.320133940847144 L39.47729712299625,-13.270432078973803 L39.56294240115687,-13.216466954956044 L39.64622019164828,-13.158368575504408 L39.726929870978935,-13.096276904703817 L39.804877002461986,-13.030341526827815 L39.87987380463033,-12.96072128597696 L39.95173960361859,-12.88758390340948 L40.020301268422315,-12.811105573486053 L40.08539362798569,-12.731470539202178 L40.14685986911312,-12.648870648330648 L40.20455191424591,-12.563504891243472 L40.25833077819412,-12.475578921526624 L40.30806690296403,-12.385304560542565 L40.353640469874684,-12.292899287134 L40.394941688211624,-12.198585713698318 L40.431871059722326,-12.10259104989482 L40.46433961831619,-12.005146555276747 L40.49226914439164,-11.906486982166763 L40.51559235327404,-11.80685001011805 L40.53425305731031,-11.706475673323439 L40.54820630122994,-11.605605782352024 L40.55741847044617,-11.504483341606312 L40.561867372036474,-11.403351963903342 L40.561542288207235,-11.30245528359006 L40.55644400211388,-11.202036369606846 L40.546584795974155,-11.102337139913146 L40.53198842147923,-11.003597778685913 L40.51269004257373,-10.906056157694888 L40.488736150742795,-10.809947263248677 L40.460184453009965,-10.715502630092146 L40.427103732915896,-10.622949783618939 L40.389573684812824,-10.532511691742886 L40.34768472187388,-10.444406227748757 L40.301537758279835,-10.358845645416439 L40.25124396610796,-10.276036067682993 L40.196924507508825,-10.196176990074441 L40.13871024281602,-10.119460800103573 L40.076741415292155,-10.046072313791571 L40.01116731327056,-9.976188330430036 L39.942145910506625,-9.909977206655997 L39.86984348560516,-9.847598450866036 L39.7944342214407,-9.789202338946584 L39.7160997855357,-9.73492955224615 L39.63502889240753,-9.684910838661638 " />
			<path d="M39.63502889240752,-9.684910838661633 L39.57855269657841,-9.653451677689555 L39.52096876187583,-9.624042264787974 L39.46234098217448,-9.59671523199833 L39.40273440957667,-9.571500900798622 L39.34221518223188,-9.548427248459372 L39.28085045095136,-9.527519877000644 L39.21870830469904,-9.508801984784615 L39.15585769504148,-9.492294340775167 L39.092368359640766,-9.478015261493109 L39.02831074487508,-9.465980590692562 L38.96375592767297,-9.456203681781073 L38.89877553664794,-9.44869538300297 L38.833441672620886,-9.443464025402392 L38.767826828618645,-9.440515413579332 L38.702003809437265,-9.439852819248989 L38.63604565085943,-9.441476977611543 L38.57002553861553,-9.445386086536393 L38.50401672717842,-9.451575808561756 L38.43809245848179,-9.460039275707432 L38.372325880652575,-9.47076709709535 L38.30678996684737,-9.483747369369494 L38.24155743428301,-9.498965689903596 L38.17670066355114,-9.516405172781981 L38.11229161830629,-9.536046467535812 L38.04840176541658,-9.55786778061394 L37.98510199566565,-9.581844899564555 L37.92246254509381,-9.607951219900794 L37.860552917065604,-9.636157774620504 L37.79944180515049,-9.666433266347376 L37.73919701690187,-9.69874410205785 L37.67988539861937,-9.733054430355185 L37.62157276117763,-9.769326181249394 L37.564323807003994,-9.807519108398864 L37.5082020582861,-9.847590833766823 L37.45326978648907,-9.889496894643084 L37.39958794326044,-9.93319079297889 L37.34721609279956,-9.97862404698013 L37.296212345766456,-10.025746244901692 L37.24663329480348,-10.074505100983217 L37.19853395174142,-10.124846513464243 L37.151967686559495,-10.176714624614334 L37.10698616816725,-10.2300518827116 L37.06363930707387,-10.284799105900815 L37.02197520000851,-10.340895547860333 L36.982040076553275,-10.398278965204856 L36.94387824784785,-10.456885686549345 L36.90753205742286,-10.516650683157394 L36.8730418342164,-10.577507641095691 L36.840445847825904,-10.639389034814515 L36.809780266045074,-10.7022262020726 L36.78107911473286,-10.765949420123263 L36.75437424005914,-10.83048798307724 L36.72969527316888,-10.895770280356391 L36.70706959730405,-10.961723876151233 L36.68652231741983,-11.028275589794124 L36.66807623232865,-11.095351576958944 L36.651751809403166,-11.162877411597137 L36.63756716186606,-11.230778168519226 L36.62553802869206,-11.298978506530165 L36.61567775714429,-11.367402752026289 L36.60799728796444,-11.435974982961076 L36.60250514323314,-11.504619113086601 L36.599207416914105,-11.573258976377174 L36.598107768092326,-11.641818411541463 " />
			<path d="M-38.910560741189066,10.400240768604414 L-38.9066158135074,10.270860945554743 L-38.89479673343845,10.142557560660384 L-38.87515054740387,10.015841331770057 L-38.86241551859166,9.953236327751636 L-38.847755458000385,9.891216658980996 L-38.83118495803193,9.829844058895434 L-38.812720512710555,9.769179616849899 L-38.79238050126497,9.70928371730957 L-38.77018516983396,9.650215979744075 L-38.74615661131367,9.592035199283185 L-38.72031874336669,9.53479928819302 L-38.69269728461474,9.478565218231067 L-38.66331972903877,9.42338896393735 L-38.63221531861187,9.369325446918234 L-38.59941501419225,9.316428481178276 L-38.564951464705274,9.264750719554597 L-38.52885897464518,9.214343601307032 L-38.49117346992899,9.165257300916284 L-38.45193246213629,9.117540678140998 L-38.41117501117086,9.071241229383503 L-38.368941686381,9.02640504041261 L-38.32527452617741,8.983076740490548 L-38.280216996188834,8.941299457949656 L-38.23381394599697,8.90111477726311 L-38.18611156449393,8.862562697652363 L-38.1371573339065,8.825681593272526 L-38.08699998253306,8.790508175015319 L-38.035689436240126,8.757077453967606 L-37.983276768767006,8.725422706561899 " />
			<path d="M-37.983276768766984,8.72542270656189 L-37.899664725298166,8.679778565555434 L-37.813712960224954,8.63861895786068 L-37.725628538877906,8.60204304057772 L-37.635623664343335,8.570138928294961 L-37.54391516624748,8.54298348081336 L-37.450723978394976,8.52064211798444 L-37.356274606519946,8.503168662108125 L-37.260794587432024,8.490605208270116 L-37.164513940860246,8.48298202293114 L-37.0676646153154,8.480317471012386 L-36.970479929305725,8.482617971652816 L-36.87319400925218,8.489877982744888 L-36.776041225457426,8.50208001428598 L-36.6792556274872,8.519194670513333 L-36.58307038032443,8.541180720721034 L-36.48771720265436,8.567985198588378 L-36.39342580863395,8.59954352978039 L-36.30042335449035,8.635779687513045 L-36.20893389128164,8.67660637570845 L-36.11917782513822,8.72192523929875 L-36.031371386285144,8.771627101172092 L-35.945726108124525,8.825592225189851 L-35.86244831763311,8.883690604641487 L-35.78173863830246,8.945782275442077 L-35.70379150681941,9.01171765331808 L-35.628794704651064,9.081337894168934 L-35.5569289056628,9.154475276736415 L-35.48836724085908,9.230953606659842 L-35.423274881295704,9.310588640943717 L-35.36180864016827,9.393188531815246 L-35.30411659503548,9.478554288902423 L-35.25033773108727,9.56648025861927 L-35.20060160631736,9.65675461960333 L-35.15502803940671,9.749159893011894 L-35.11372682106977,9.843473466447577 L-35.076797449559066,9.939468130251075 L-35.044328890965204,10.036912624869148 L-35.01639936488975,10.135572197979132 L-34.993076156007355,10.235209170027845 L-34.97441545197108,10.335583506822456 L-34.96046220805145,10.436453397793871 L-34.95125003883522,10.537575838539583 L-34.94680113724492,10.638707216242553 L-34.94712622107416,10.739603896555835 L-34.952224507167514,10.840022810539049 L-34.96208371330724,10.939722040232748 L-34.976680087802166,11.038461401459982 L-34.99597846670766,11.136003022451007 L-35.0199323585386,11.232111916897217 L-35.04848405627143,11.326556550053748 L-35.0815647763655,11.419109396526956 L-35.11909482446857,11.509547488403008 L-35.16098378740751,11.597652952397137 L-35.20713075100156,11.683213534729456 L-35.257424543173435,11.766023112462902 L-35.31174400177257,11.845882190071453 L-35.369958266465375,11.922598380042322 L-35.43192709398924,11.995986866354324 L-35.49750119601083,12.065870849715859 L-35.56652259877477,12.132081973489898 L-35.63882502367623,12.194460729279859 L-35.71423428784069,12.25285684119931 L-35.792568723745696,12.307129627899744 L-35.87363961687386,12.357148341484256 " />
			<path d="M-35.873639616873874,12.357148341484262 L-35.93011581270298,12.38860750245634 L-35.987699747405564,12.41801691535792 L-36.04632752710691,12.445343948147565 L-36.105934099704726,12.470558279347273 L-36.16645332704951,12.493631931686522 L-36.22781805833003,12.51453930314525 L-36.28996020458235,12.53325719536128 L-36.35281081423991,12.549764839370727 L-36.41630014964063,12.564043918652786 L-36.480357764406314,12.576078589453333 L-36.54491258160842,12.585855498364822 L-36.60989297263345,12.593363797142924 L-36.67522683666051,12.598595154743503 L-36.74084168066275,12.601543766566563 L-36.80666469984413,12.602206360896906 L-36.87262285842196,12.600582202534351 L-36.93864297066586,12.596673093609501 L-37.004651782102975,12.590483371584138 L-37.0705760507996,12.582019904438463 L-37.13634262862882,12.571292083050544 L-37.201878542434024,12.5583118107764 L-37.26711107499838,12.543093490242299 L-37.331967845730254,12.525654007363913 L-37.396376890975105,12.506012712610083 L-37.460266743864814,12.484191399531955 L-37.52356651361574,12.46021428058134 L-37.586205964187585,12.4341079602451 L-37.64811559221579,12.405901405525391 L-37.709226704130906,12.375625913798519 L-37.76947149237952,12.343315078088045 L-37.82878311066202,12.30900474979071 L-37.88709574810376,12.272732998896501 L-37.9443447022774,12.23454007174703 L-38.00046645099529,12.194468346379072 L-38.055398722792326,12.15256228550281 L-38.10908056602095,12.108868387167005 L-38.16145241648183,12.063435133165765 L-38.212456163514936,12.016312935244203 L-38.26203521447791,11.967554079162678 L-38.310134557539975,11.917212666681651 L-38.3567008227219,11.86534455553156 L-38.40168234111414,11.812007297434295 L-38.44502920220752,11.75726007424508 L-38.48669330927288,11.701163632285562 L-38.52662843272812,11.643780214941039 L-38.564790261433544,11.58517349359655 L-38.60113645185853,11.5254084969885 L-38.63562667506499,11.464551539050204 L-38.66822266145549,11.40267014533138 L-38.69888824323632,11.339832978073295 L-38.72758939454853,11.276109760022631 L-38.75429426922225,11.211571197068654 L-38.77897323611251,11.146288899789504 L-38.801598911977344,11.080335303994662 L-38.82214619186156,11.013783590351771 L-38.84059227695274,10.946707603186951 L-38.85691669987823,10.879181768548758 L-38.87110134741533,10.811281011626669 L-38.88313048058933,10.74308067361573 L-38.8929907521371,10.674656428119606 L-38.900671221316955,10.606084197184819 L-38.906163366048254,10.537440067059293 L-38.90946109236729,10.468800203768721 L-38.910560741189066,10.400240768604432 " />
			<path d="M38.58021031646097,-6.605203527568453 L-36.92845819282043,-11.978337067327011 " />
			<path d="M38.58021031646096,-6.605203527568453 L38.58021031646096,11.018848935227268 " />
			<path d="M-36.92845819282043,-11.978337067327011 L-36.92845819282043,5.645715395468709 " />
			<path d="M38.58021031646097,11.018848935227266 L-36.92845819282043,5.645715395468709 " />
			<path d="M36.598107768092326,15.773374308362971 L36.60205269577399,15.6439944853133 L36.613871775842945,15.515691100418941 L36.63351796187752,15.388974871528614 L36.64625299068973,15.326369867510193 L36.66091305128101,15.264350198739553 L36.67748355124946,15.202977598653991 L36.69594799657084,15.142313156608456 L36.71628800801642,15.082417257068126 L36.738483339447434,15.023349519502633 L36.76251189796772,14.965168739041742 L36.7883497659147,14.907932827951576 L36.815971224666654,14.851698757989624 L36.845348780242624,14.796522503695908 L36.87645319066952,14.742458986676791 L36.90925349508914,14.689562020936833 L36.94371704457612,14.637884259313154 L36.97980953463621,14.58747714106559 L37.017495039352404,14.538390840674841 L37.0567360471451,14.490674217899555 L37.09749349811053,14.44437476914206 L37.13972682290039,14.399538580171168 L37.18339398310398,14.356210280249105 L37.22845151309256,14.314432997708213 L37.27485456328442,14.274248317021668 L37.322556944787465,14.23569623741092 L37.37151117537489,14.198815133031083 L37.421668526748334,14.163641714773876 L37.472979073041266,14.130210993726163 L37.52539174051439,14.098556246320456 " />
			<path d="M37.52539174051441,14.098556246320447 L37.609003783983226,14.052912105313991 L37.69495554905644,14.011752497619238 L37.783039970403486,13.975176580336278 L37.87304484493806,13.943272468053518 L37.96475334303391,13.916117020571917 L38.05794453088642,13.893775657742996 L38.152393902761446,13.876302201866682 L38.24787392184937,13.863738748028673 L38.344154568421146,13.856115562689697 L38.44100389396599,13.853451010770943 L38.53818857997567,13.855751511411373 L38.63547450002921,13.863011522503445 L38.732627283823966,13.875213554044535 L38.82941288179419,13.89232821027189 L38.92559812895696,13.914314260479589 L39.02095130662703,13.941118738346935 L39.11524270064744,13.972677069538948 L39.208245154791044,14.008913227271602 L39.29973461799975,14.049739915467008 L39.38949068414317,14.095058779057307 L39.47729712299625,14.144760640930649 L39.56294240115687,14.19872576494841 L39.64622019164828,14.256824144400042 L39.726929870978935,14.318915815200635 L39.804877002461986,14.384851193076637 L39.87987380463033,14.454471433927491 L39.95173960361859,14.527608816494972 L40.020301268422315,14.604087146418399 L40.08539362798569,14.683722180702274 L40.14685986911312,14.766322071573803 L40.20455191424591,14.851687828660982 L40.25833077819412,14.939613798377827 L40.30806690296403,15.029888159361887 L40.353640469874684,15.122293432770451 L40.394941688211624,15.216607006206134 L40.431871059722326,15.312601670009633 L40.46433961831619,15.410046164627705 L40.49226914439164,15.508705737737689 L40.51559235327404,15.608342709786402 L40.53425305731031,15.708717046581013 L40.54820630122994,15.809586937552428 L40.55741847044617,15.91070937829814 L40.561867372036474,16.01184075600111 L40.561542288207235,16.112737436314394 L40.55644400211388,16.213156350297606 L40.546584795974155,16.312855579991304 L40.53198842147923,16.41159494121854 L40.51269004257373,16.509136562209562 L40.488736150742795,16.605245456655773 L40.460184453009965,16.699690089812307 L40.427103732915896,16.79224293628551 L40.389573684812824,16.882681028161564 L40.34768472187388,16.970786492155696 L40.301537758279835,17.056347074488013 L40.25124396610796,17.13915665222146 L40.196924507508825,17.21901572983001 L40.13871024281602,17.29573191980088 L40.076741415292155,17.36912040611288 L40.01116731327056,17.439004389474416 L39.942145910506625,17.505215513248455 L39.86984348560516,17.567594269038416 L39.7944342214407,17.62599038095787 L39.7160997855357,17.6802631676583 L39.63502889240753,17.730281881242814 " />
			<path d="M39.63502889240752,17.730281881242817 L39.57855269657841,17.761741042214897 L39.52096876187583,17.791150455116476 L39.46234098217448,17.818477487906122 L39.40273440957667,17.84369181910583 L39.34221518223188,17.86676547144508 L39.28085045095136,17.887672842903807 L39.21870830469904,17.906390735119835 L39.15585769504148,17.922898379129283 L39.092368359640766,17.93717745841134 L39.02831074487508,17.94921212921189 L38.96375592767297,17.95898903812338 L38.89877553664794,17.966497336901483 L38.833441672620886,17.971728694502062 L38.767826828618645,17.97467730632512 L38.702003809437265,17.975339900655463 L38.63604565085943,17.97371574229291 L38.57002553861553,17.96980663336806 L38.50401672717842,17.963616911342694 L38.43809245848179,17.95515344419702 L38.372325880652575,17.9444256228091 L38.30678996684737,17.931445350534958 L38.24155743428301,17.916227030000854 L38.17670066355114,17.89878754712247 L38.11229161830629,17.87914625236864 L38.04840176541658,17.857324939290514 L37.98510199566565,17.8333478203399 L37.92246254509381,17.807241500003656 L37.860552917065604,17.779034945283946 L37.79944180515049,17.748759453557074 L37.73919701690187,17.716448617846602 L37.67988539861937,17.68213828954927 L37.62157276117763,17.64586653865506 L37.564323807003994,17.60767361150559 L37.5082020582861,17.567601886137627 L37.45326978648907,17.525695825261366 L37.39958794326044,17.482001926925562 L37.34721609279956,17.43656867292432 L37.296212345766456,17.38944647500276 L37.24663329480348,17.340687618921233 L37.19853395174142,17.29034620644021 L37.151967686559495,17.23847809529012 L37.10698616816725,17.185140837192854 L37.06363930707387,17.130393614003637 L37.02197520000851,17.07429717204412 L36.982040076553275,17.016913754699594 L36.94387824784785,16.958307033355105 L36.90753205742286,16.898542036747056 L36.8730418342164,16.83768507880876 L36.840445847825904,16.775803685089937 L36.809780266045074,16.712966517831852 L36.78107911473286,16.649243299781187 L36.75437424005914,16.58470473682721 L36.72969527316888,16.51942243954806 L36.70706959730405,16.45346884375322 L36.68652231741983,16.38691713011033 L36.66807623232865,16.319841142945506 L36.651751809403166,16.252315308307317 L36.63756716186606,16.184414551385228 L36.62553802869206,16.116214213374285 L36.61567775714429,16.047789967878163 L36.60799728796444,15.979217736943376 L36.60250514323314,15.91057360681785 L36.599207416914105,15.841933743527278 L36.598107768092326,15.773374308362989 " />
			<path d="M-48.01879388012114,19.151601182195424 L46.36704175648061,25.868018106893622 " />
			<path d="M46.3670417564806,25.86801810689362 L48.01879388012113,24.908529974793876 " />
			<path d="M-38.67256868963272,-17.974897301789227 L-38.60717669307383,-17.972287123912142 L-38.541755319117016,-17.96743508722867 L-38.476375838358365,-17.96034647758846 L-38.411109475755175,-17.951029017382584 L-38.34602733303287,-17.939492857130723 L-38.28120031122617,-17.92575056442306 L-38.216699033438935,-17.909817110229078 L-38.15259376790674,-17.89170985258805 L-38.08895435144607,-17.87144851769904 L-38.02585011337351,-17.849055178431016 L-37.96334979997779,-17.82455423027649 L-37.90152149962702,-17.79797236477485 L-37.84043256859263,-17.769338540434376 L-37.78014955767089,-17.738683951184605 L-37.72073813968189,-17.70604199239339 L-37.662263037925065,-17.671448224485715 L-37.604787955669025,-17.63494033420386 L-37.548375506752734,-17.596558093551153 L-37.49308714737342,-17.556343316464 L-37.43898310913572,-17.514339813259465 L-37.38612233343481,-17.47059334290789 L-37.33456240724521,-17.42515156318273 L-37.284359500385,-17.378063978741764 L-37.23556830432398,-17.32938188719628 L-37.18824197260229,-17.27915832322706 L-37.14243206292454,-17.22744800080792 L-37.09818848099237,-17.174307253599874 L-37.05555942613678,-17.119793973580745 L-37.01459133880936,-17.063967547977168 L-36.97532884998969,-17.006888794567647 L-36.93781473256395,-16.94861989542715 L-36.9020898547278,-16.889224329185435 L-36.8681931354642,-16.828766801872888 L-36.836161502144776,-16.767313176429248 L-36.806029850300796,-16.704930400951937 L-36.77783100560769,-16.641686435762264 L-36.7515956881245,-16.577650179368863 L-36.727352478827186,-16.51289139340908 L-36.70512778847224,-16.44748062665007 L-36.68494582882464,-16.381489138132352 L-36.66682858628129,-16.314988819539632 L-36.65079579791889,-16.248052116879382 L-36.63686492999219,-16.180751951559557 L-36.62505115890611,-16.113161640947393 L-36.61536735468243,-16.04535481849686 L-36.60782406693906,-15.977405353531744 L-36.60242951339725,-15.909387270771788 L-36.599189570929084,-15.84137466968954 L-36.59810776915519,-15.77344164378576 L-36.599185286599536,-15.705662199871343 L-36.60242094940554,-15.638110177443666 L-36.60781123261487,-15.570859168245226 L-36.615350264007574,-15.503982436092167 L-36.62502983049933,-15.437552837060068 L-36.63683938708882,-15.371642740113918 L-36.65076606834559,-15.306323948268755 L-36.666794702425705,-15.241667620366856 L-36.68490782760013,-15.177744193556702 L-36.705085711277654,-15.114623306558139 L-36.727306371501776,-15.052373723797384 L-36.75154560089798,-14.991063260494478 L-36.7777769930455,-14.930758708784804 L-36.80597197124468,-14.871525764955182 L-36.836099819648666,-14.813428957873787 " />
			<path d="M36.836099819648666,-12.60176376203067 L36.90149181620755,-12.599153584153585 L36.96691319016437,-12.594301547470112 L37.03229267092302,-12.587212937829902 L37.09755903352621,-12.577895477624029 L37.16264117624851,-12.566359317372166 L37.22746819805521,-12.552617024664503 L37.29196947584245,-12.536683570470522 L37.35607474137465,-12.518576312829493 L37.419714157835315,-12.498314977940485 L37.48281839590788,-12.475921638672462 L37.545318709303594,-12.451420690517935 L37.60714700965436,-12.424838825016295 L37.66823594068875,-12.39620500067582 L37.728518951610496,-12.36555041142605 L37.78793036959949,-12.332908452634836 L37.84640547135633,-12.298314684727162 L37.90388055361236,-12.261806794445308 L37.96029300252866,-12.223424553792599 L38.01558136190796,-12.18320977670545 L38.06968540014567,-12.141206273500911 L38.12254617584658,-12.097459803149336 L38.17410610203618,-12.052018023424178 L38.22430900889639,-12.00493043898321 L38.273100204957416,-11.956248347437729 L38.3204265366791,-11.906024783468506 L38.36623644635685,-11.85431446104937 L38.410480028289015,-11.801173713841322 L38.45310908314461,-11.746660433822191 L38.494077170472025,-11.690834008218614 L38.5333396592917,-11.633755254809094 L38.57085377671744,-11.575486355668598 L38.60657865455359,-11.516090789426881 L38.64047537381718,-11.455633262114338 L38.67250700713661,-11.394179636670696 L38.7026386589806,-11.331796861193386 L38.730837503673705,-11.268552896003712 L38.75707282115689,-11.20451663961031 L38.78131603045421,-11.13975785365053 L38.803540720809146,-11.074347086891517 L38.823722680456754,-11.0083555983738 L38.8418399230001,-10.941855279781079 L38.8578727113625,-10.874918577120829 L38.8718035792892,-10.807618411801004 L38.88361735037528,-10.740028101188841 L38.893301154598966,-10.67222127873831 L38.90084444234233,-10.604271813773192 L38.906238995884145,-10.536253731013236 L38.90947893835231,-10.468241129930986 L38.9105607401262,-10.400308104027207 L38.90948322268186,-10.332528660112791 L38.90624755987585,-10.264976637685114 L38.90085727666652,-10.197725628486674 L38.89331824527382,-10.130848896333616 L38.88363867878206,-10.064419297301516 L38.87182912219257,-9.998509200355365 L38.8579024409358,-9.933190408510201 L38.841873806855695,-9.868534080608304 L38.823760681681264,-9.804610653798148 L38.80358279800374,-9.741489766799585 L38.78136213777962,-9.67924018403883 L38.757122908383415,-9.617929720735924 L38.73089151623589,-9.557625169026249 L38.70269653803671,-9.498392225196628 L38.672568689632726,-9.440295418115232 " />
			<path d="M-38.672568689632726,9.440295418115225 L-38.60717669307384,9.44290559599231 L-38.54175531911702,9.447757632675783 L-38.47637583835837,9.454846242315993 L-38.41110947575518,9.464163702521866 L-38.34602733303288,9.475699862773729 L-38.28120031122618,9.489442155481392 L-38.21669903343894,9.505375609675372 L-38.152593767906744,9.523482867316401 L-38.08895435144608,9.54374420220541 L-38.025850113373515,9.566137541473433 L-37.9633497999778,9.59063848962796 L-37.90152149962703,9.6172203551296 L-37.84043256859264,9.645854179470074 L-37.780149557670896,9.676508768719845 L-37.7207381396819,9.709150727511059 L-37.662263037925065,9.743744495418733 L-37.60478795566903,9.780252385700587 L-37.548375506752734,9.818634626353296 L-37.49308714737343,9.858849403440445 L-37.43898310913572,9.900852906644984 L-37.38612233343481,9.944599376996559 L-37.334562407245215,9.990041156721716 L-37.284359500385,10.037128741162684 L-37.23556830432398,10.085810832708166 L-37.18824197260229,10.136034396677388 L-37.14243206292454,10.187744719096525 L-37.09818848099238,10.240885466304572 L-37.05555942613678,10.295398746323704 L-37.01459133880937,10.35122517192728 L-36.975328849989694,10.408303925336801 L-36.93781473256395,10.466572824477296 L-36.902089854727805,10.525968390719013 L-36.86819313546421,10.586425918031557 L-36.83616150214478,10.647879543475199 L-36.806029850300796,10.710262318952509 L-36.77783100560769,10.773506284142183 L-36.7515956881245,10.837542540535585 L-36.727352478827186,10.902301326495365 L-36.70512778847225,10.967712093254377 L-36.68494582882464,11.033703581772095 L-36.66682858628129,11.100203900364816 L-36.65079579791889,11.167140603025066 L-36.63686492999219,11.234440768344891 L-36.62505115890611,11.302031078957054 L-36.61536735468243,11.369837901407585 L-36.60782406693906,11.437787366372703 L-36.60242951339725,11.505805449132659 L-36.599189570929084,11.573818050214909 L-36.59810776915519,11.641751076118688 L-36.599185286599536,11.709530520033104 L-36.60242094940554,11.77708254246078 L-36.60781123261487,11.84433355165922 L-36.615350264007574,11.911210283812279 L-36.62502983049933,11.977639882844379 L-36.63683938708882,12.04354997979053 L-36.65076606834559,12.108868771635693 L-36.6667947024257,12.17352509953759 L-36.68490782760013,12.237448526347746 L-36.705085711277654,12.30056941334631 L-36.727306371501776,12.362818996107064 L-36.75154560089798,12.42412945940997 L-36.7777769930455,12.484434011119646 L-36.80597197124468,12.543666954949266 L-36.836099819648666,12.601763762030663 " />
			<path d="M36.928458192820436,-5.64571539546871 L-36.92845819282043,-10.90131163904505 " />
			<path d="M36.92845819282043,-5.64571539546871 L36.92845819282043,10.901311639045048 " />
			<path d="M36.836099819648666,14.813428957873782 L36.90149181620755,14.816039135750867 L36.96691319016437,14.82089117243434 L37.03229267092302,14.82797978207455 L37.09755903352621,14.837297242280421 L37.16264117624851,14.848833402532286 L37.22746819805521,14.862575695239949 L37.29196947584245,14.87850914943393 L37.35607474137465,14.896616407074958 L37.419714157835315,14.916877741963969 L37.48281839590788,14.93927108123199 L37.545318709303594,14.963772029386517 L37.60714700965436,14.990353894888159 L37.66823594068875,15.018987719228631 L37.7285189516105,15.049642308478402 L37.78793036959949,15.082284267269616 L37.84640547135633,15.11687803517729 L37.90388055361236,15.153385925459144 L37.96029300252866,15.191768166111853 L38.01558136190797,15.231982943199002 L38.06968540014567,15.273986446403542 L38.12254617584658,15.317732916755118 L38.17410610203618,15.363174696480275 L38.22430900889639,15.410262280921243 L38.273100204957416,15.458944372466725 L38.3204265366791,15.509167936435947 L38.36623644635685,15.560878258855084 L38.41048002828902,15.614019006063131 L38.45310908314461,15.668532286082263 L38.49407717047203,15.72435871168584 L38.5333396592917,15.78143746509536 L38.57085377671744,15.839706364235855 L38.606578654553594,15.899101930477572 L38.64047537381719,15.959559457790116 L38.67250700713661,16.021013083233758 L38.7026386589806,16.083395858711068 L38.730837503673705,16.146639823900742 L38.75707282115689,16.210676080294142 L38.78131603045421,16.275434866253924 L38.803540720809146,16.340845633012936 L38.823722680456754,16.406837121530653 L38.8418399230001,16.473337440123373 L38.8578727113625,16.540274142783623 L38.8718035792892,16.60757430810345 L38.88361735037528,16.675164618715613 L38.893301154598966,16.742971441166144 L38.90084444234233,16.810920906131262 L38.906238995884145,16.87893898889122 L38.90947893835231,16.94695158997347 L38.9105607401262,17.014884615877246 L38.90948322268186,17.082664059791664 L38.90624755987585,17.15021608221934 L38.90085727666652,17.21746709141778 L38.89331824527382,17.28434382357084 L38.88363867878206,17.35077342260294 L38.87182912219257,17.41668351954909 L38.8579024409358,17.482002311394254 L38.84187380685569,17.54665863929615 L38.823760681681264,17.610582066106307 L38.80358279800374,17.673702953104872 L38.78136213777962,17.735952535865625 L38.757122908383415,17.79726299916853 L38.73089151623589,17.857567550878205 L38.70269653803671,17.91680049470783 L38.672568689632726,17.974897301789223 " />
			<path d="M16.16357435276805,-37.573773318510476 L16.16357435276805,-31.699089164245237 " />
			<path d="M-8.612707501839909,-17.306767182749102 L16.16357435276805,-31.699089164245237 " />
			<path d="M35.0407414800884,-36.23048993357084 L35.0407414800884,-30.355805779305598 " />
			<path d="M31.26530805462433,-30.624462456293525 L35.0407414800884,-30.355805779305598 " />
			<path d="M31.265308054624334,-30.624462456293525 L31.265308054624334,-15.937752070630424 " />
			<path d="M19.939007778232124,-16.74372210159421 L31.265308054624334,-15.937752070630426 " />
			<path d="M19.939007778232124,-31.43043248725731 L19.939007778232124,-16.74372210159421 " />
			<path d="M16.16357435276805,-31.699089164245237 L19.93900777823212,-31.43043248725731 " />
			<path d="M10.26445962548044,-15.963483797809463 L18.287255654591593,-20.623854725151073 " />
			<path d="M31.265308054624334,-28.1626900487919 L35.0407414800884,-30.355805779305598 " />
			<path d="M18.287255654591593,-30.470944355157567 L19.939007778232124,-31.43043248725731 " />
			<path d="M36.92845819282043,-5.645715395468711 L38.58021031646096,-6.605203527568453 " />
			<path d="M29.6135559309838,-14.97826393853068 L31.26530805462433,-15.937752070630424 " />
			<path d="M18.287255654591593,-30.470944355157567 L18.287255654591593,-15.784233969494466 " />
			<path d="M18.287255654591593,-15.784233969494466 L29.613555930983804,-14.978263938530683 " />
			<path d="M18.287255654591593,-15.784233969494466 L19.939007778232124,-16.74372210159421 " />

       </g>
    </g>
    <g transform="translate(20,210.0)" stroke="rgb(0,0,255)">
        <line x1="30" y1="-30" x2="75" y2="-33" stroke-width="3" stroke="#000000" />
         <text x="80" y="-30" style="stroke:#000000">X </text>

        <line x1="30" y1="-30" x2="30" y2="-75" stroke-width="3" stroke="#000000" />
         <text x="25" y="-85" style="stroke:#000000">Y </text>

        <line x1="30" y1="-30" x2="58" y2="-15" stroke-width="3" stroke="#000000" />
         <text x="65" y="-5" style="stroke:#000000">Z </text>
        <!--
            <line x1="0" y1="0" x2="2.8372464893531095" y2="0" stroke-width="3" />
            <text x="0" y="20" style="stroke:#000000">1  mm </text>
        -->
    </g>
</svg>
