<?xml version='1.0' encoding='utf-8'?>
<svg width="71.594582mm" height="63.092285mm" viewBox="-14.894242 -14.478793 71.594582 63.092285" version="1.1" xmlns="http://www.w3.org/2000/svg">
  <g transform="scale(1,-1)" stroke-linecap="round">
    <g fill="none" stroke="rgb(0,0,0)" stroke-width="0.09">
      <path d="M -14.849242,-14.433793 L -4.949747,-6.35085 L -4.949747,-1.732092 L -14.849242,-9.815035 L -14.849242,-14.433793" />
      <path d="M -4.949747,-6.35085 L -14.849242,-14.433793 L 17.987168,-41.244739 A 21.3,21.3 -45.00000000000001 0,1 50.416713,-43.474651 A 21.3,21.3 -45.00000000000001 0,1 47.685653,-16.995911 L 14.849242,9.815035 L 4.949747,1.732092 A 7.0,7.0 44.999999999999986 0,0 -4.949747,-6.35085 M 1.131371,-11.398149 A 1.6,1.6 -45.00000000000001 0,0 -1.131371,-9.550619 A 1.6,1.6 -45.00000000000001 0,0 1.131371,-11.398149 M 11.131371,-3.233144 A 1.6,1.6 -45.00000000000001 0,0 8.868629,-1.385614 A 1.6,1.6 -45.00000000000001 0,0 11.131371,-3.233144 M 46.88118,-40.587886 A 16.3,16.3 -45.00000000000001 0,0 23.829499,-21.766177 A 16.3,16.3 -45.00000000000001 0,0 46.88118,-40.587886" />
      <path d="M 4.949747,6.35085 A 7.0,7.0 44.999999999999986 0,0 -4.949747,-1.732092 L -4.949747,-6.35085 A 7.0,7.0 44.999999999999986 0,1 4.949747,1.732092 L 4.949747,6.35085" />
      <path d="M -14.849242,-9.815035 L -4.949747,-1.732092 A 7.0,7.0 44.999999999999986 0,1 4.949747,6.35085 L 14.849242,14.433793 L 43.664551,-9.093921 L 42.382659,-10.140587 A 21.3,21.3 -45.00000000000001 0,1 15.247958,-32.296084 L 13.966066,-33.342749 L -14.849242,-9.815035 M 1.131371,-6.779391 A 1.6,1.6 -45.00000000000001 0,1 -1.131371,-4.931861 A 1.6,1.6 -45.00000000000001 0,1 1.131371,-6.779391 M 11.131371,1.385614 A 1.6,1.6 -45.00000000000001 0,1 8.868629,3.233144 A 1.6,1.6 -45.00000000000001 0,1 11.131371,1.385614" />
      <path d="M -14.849242,-9.815035 L 13.966066,-33.342749 A 1.6,1.6 -45.00000000000001 0,1 15.732418,-34.784977 L 17.987168,-36.625981 L 17.987168,-41.244739 L -14.849242,-14.433793 L -14.849242,-9.815035" />
      <path d="M 47.685653,-16.995911 A 21.3,21.3 -45.00000000000001 0,0 50.416713,-43.474651 L 50.416713,-33.082446 A 21.3,21.3 -45.00000000000001 0,1 20.293965,-8.487206 A 21.3,21.3 -45.00000000000001 0,1 50.416713,-33.082446 L 50.416713,-43.474651 A 21.3,21.3 -45.00000000000001 0,0 17.987168,-41.244739 L 17.987168,-36.625981 A 21.3,21.3 -45.00000000000001 0,0 16.296809,-34.324152 C 16.407698,-34.335386 16.464672,-34.21762 16.464446,-34.015234 C 16.466502,-33.706911 16.325627,-33.172043 16.076157,-32.565307 C 15.883959,-32.096921 15.664137,-31.666828 15.497192,-31.413256 C 15.32788,-31.153648 15.212278,-31.082274 15.161856,-31.173424 C 15.089185,-31.294558 15.115475,-31.719811 15.247958,-32.296084 A 21.3,21.3 -45.00000000000001 0,0 42.382659,-10.140587 C 41.998993,-9.769405 41.909846,-9.395475 42.13127,-9.152884 C 42.281255,-8.98044 42.622341,-8.867706 43.058844,-8.909153 C 43.491939,-8.945413 44.004006,-9.136888 44.410897,-9.429977 C 44.938985,-9.809221 45.196449,-10.248895 45.195266,-10.556505 C 45.19519,-10.759138 45.088174,-10.917763 44.866513,-10.996974 A 21.3,21.3 -45.00000000000001 0,0 47.685653,-12.377153 L 47.685653,-16.995911 M 49.877044,-13.835265 L 49.877044,-8.639162 A 21.3,21.3 -45.00000000000001 0,0 50.937704,-9.505192 L 50.937704,-14.701294 A 21.3,21.3 -45.00000000000001 0,1 49.877044,-13.835265 M 20.833634,-34.08518 A 21.3,21.3 -45.00000000000001 0,0 19.772974,-33.21915 L 19.772974,-38.415253 A 21.3,21.3 -45.00000000000001 0,1 20.833634,-39.281282 L 20.833634,-34.08518 M 55.588452,-20.54576 C 55.588278,-20.792261 55.529621,-20.88805 55.405884,-20.785405 C 55.288441,-20.691211 55.096452,-20.388272 54.885714,-19.956927 C 54.673479,-19.524024 54.474418,-19.020117 54.36568,-18.631674 C 54.232715,-18.163628 54.210505,-17.823154 54.300411,-17.692071 C 54.375732,-17.5784 54.544704,-17.632953 54.757906,-17.926914 C 54.85799,-18.064392 54.962867,-18.249749 55.059389,-18.460275 C 55.156094,-18.670439 55.244181,-18.904959 55.315818,-19.130843 C 55.501178,-19.717087 55.588286,-20.249291 55.588452,-20.54576 M 28.698677,-42.501275 C 28.701301,-42.202528 28.421219,-41.827888 27.921007,-41.49872 C 27.728515,-41.371514 27.501211,-41.250665 27.265814,-41.153743 C 27.030498,-41.056542 26.788032,-40.983527 26.567255,-40.944594 C 26.097105,-40.860432 25.767322,-40.937181 25.620132,-41.109534 C 25.447132,-41.308463 25.487111,-41.634428 25.74821,-41.997853 C 25.963044,-42.299668 26.366825,-42.636422 26.855076,-42.843957 C 27.337132,-43.053772 27.8376,-43.104836 28.167456,-43.025594 C 28.513979,-42.946335 28.6997,-42.746799 28.698677,-42.501275" />
      <path d="M 4.949747,1.732092 L 14.849242,9.815035 L 14.849242,14.433793 L 4.949747,6.35085 L 4.949747,1.732092" />
      <path d="M 43.664551,-9.093921 L 14.849242,14.433793 L 14.849242,9.815035 L 47.685653,-16.995911 L 47.685653,-12.377153 L 45.430903,-10.536149 A 1.6,1.6 -45.00000000000001 0,0 43.664551,-9.093921" />
      <path d="M 1.131371,-11.398149 A 1.6,1.6 -45.00000000000001 0,1 -1.131371,-9.550619 A 1.6,1.6 -45.00000000000001 0,1 1.131371,-11.398149 L 1.131371,-6.779391 A 1.6,1.6 -45.00000000000001 0,0 -1.131371,-4.931861 A 1.6,1.6 -45.00000000000001 0,0 1.131371,-6.779391 L 1.131371,-11.398149" />
      <path d="M 11.131371,-3.233144 A 1.6,1.6 -45.00000000000001 0,1 8.868629,-1.385614 A 1.6,1.6 -45.00000000000001 0,1 11.131371,-3.233144 L 11.131371,1.385614 A 1.6,1.6 -45.00000000000001 0,0 8.868629,3.233144 A 1.6,1.6 -45.00000000000001 0,0 11.131371,1.385614 L 11.131371,-3.233144" />
      <path d="M 46.88118,-30.195681 L 46.88118,-40.587886 A 16.3,16.3 -45.00000000000001 0,1 23.829499,-21.766177 A 16.3,16.3 -45.00000000000001 0,1 46.88118,-40.587886 L 46.88118,-30.195681 A 16.3,16.3 -45.00000000000001 0,0 23.829499,-11.373972 A 16.3,16.3 -45.00000000000001 0,0 46.88118,-30.195681 M 46.338642,-11.528269 L 46.338642,-16.724371 A 16.3,16.3 -45.00000000000001 0,0 47.399302,-17.590401 L 47.399302,-12.394298 A 16.3,16.3 -45.00000000000001 0,1 46.338642,-11.528269 M 23.311376,-30.330044 A 16.3,16.3 -45.00000000000001 0,1 24.372036,-31.196073 L 24.372036,-36.392176 A 16.3,16.3 -45.00000000000001 0,0 23.311376,-35.526146 L 23.311376,-30.330044 M 51.458337,-23.918001 C 51.457911,-23.611874 51.409115,-23.024232 51.294099,-22.414579 C 51.207576,-21.950247 51.073688,-21.469948 50.926374,-21.150627 C 50.780719,-20.82888 50.638146,-20.692765 50.560158,-20.739812 C 50.461601,-20.794504 50.454944,-21.093905 50.542116,-21.540186 C 50.616035,-21.929445 50.768578,-22.455555 50.926374,-22.940087 C 51.098461,-23.466574 51.248209,-23.886938 51.333663,-24.06169 C 51.420292,-24.240717 51.458024,-24.191612 51.458337,-23.918001 M 41.430092,-13.630771 C 41.432098,-13.335224 41.17135,-12.937414 40.665016,-12.617932 C 40.248515,-12.350406 39.676603,-12.177735 39.185912,-12.166157 C 38.658218,-12.148397 38.223611,-12.29033 38.018719,-12.510783 C 37.813991,-12.727094 37.842016,-13.007392 38.085725,-13.271708 C 38.324853,-13.536461 38.777575,-13.788657 39.295515,-13.961392 C 39.562757,-14.050898 39.85032,-14.11973 40.118655,-14.154888 C 40.387359,-14.190486 40.63588,-14.191977 40.835211,-14.158385 C 41.23174,-14.092988 41.43082,-13.894127 41.430092,-13.630771 M 20.22962,-30.940967 C 20.230833,-31.203927 20.146523,-31.309078 20.004085,-31.167009 C 19.932848,-31.096013 19.848872,-30.960171 19.766856,-30.772143 C 19.684702,-30.584968 19.605152,-30.346293 19.538733,-30.092815 C 19.409247,-29.602907 19.326002,-29.049033 19.285647,-28.62198 C 19.245248,-28.191662 19.241544,-27.891506 19.274406,-27.815525 C 19.308308,-27.734683 19.384015,-27.885793 19.511832,-28.230053 C 19.628746,-28.54682 19.799175,-29.047302 19.944391,-29.536334 C 20.120198,-30.12569 20.231871,-30.64522 20.22962,-30.940967 M 32.828791,-39.129035 C 32.831715,-39.400002 32.565481,-39.63568 32.133049,-39.739001 C 31.700975,-39.847264 31.085198,-39.807413 30.535291,-39.589417 C 30.025065,-39.392645 29.624499,-39.069044 29.434881,-38.774254 C 29.214762,-38.436524 29.229774,-38.130301 29.481373,-37.95065 C 29.683029,-37.802629 30.064142,-37.743976 30.535291,-37.799957 C 31.007481,-37.854017 31.533629,-38.014035 31.942725,-38.214985 C 32.483323,-38.477151 32.83321,-38.818952 32.828791,-39.129035" />
      <path d="M 41.430092,-13.630771 C 41.43082,-13.894127 41.23174,-14.092988 40.835211,-14.158385 C 40.63588,-14.191977 40.387359,-14.190486 40.118655,-14.154888 C 39.85032,-14.11973 39.562757,-14.050898 39.295515,-13.961392 C 38.777575,-13.788657 38.324853,-13.536461 38.085725,-13.271708 C 37.842016,-13.007392 37.813991,-12.727094 38.018719,-12.510783 C 38.223611,-12.29033 38.658218,-12.148397 39.185912,-12.166157 C 39.676603,-12.177735 40.248515,-12.350406 40.665016,-12.617932 C 41.17135,-12.937414 41.432098,-13.335224 41.430092,-13.630771 L 45.195266,-10.556505 C 45.196449,-10.248895 44.938985,-9.809221 44.410897,-9.429977 C 44.004006,-9.136888 43.491939,-8.945413 43.058844,-8.909153 C 42.622341,-8.867706 42.281255,-8.98044 42.13127,-9.152884 C 41.909846,-9.395475 41.998993,-9.769405 42.382659,-10.140587 L 43.664551,-9.093921 A 1.6,1.6 -45.00000000000001 0,1 45.430903,-10.536149 L 44.866513,-10.996974 C 45.088174,-10.917763 45.19519,-10.759138 45.195266,-10.556505 L 41.430092,-13.630771" />
      <path d="M 16.464446,-34.015234 C 16.464672,-34.21762 16.407698,-34.335386 16.296809,-34.324152 L 15.732418,-34.784977 A 1.6,1.6 -45.00000000000001 0,0 13.966066,-33.342749 L 15.247958,-32.296084 C 15.115475,-31.719811 15.089185,-31.294558 15.161856,-31.173424 C 15.212278,-31.082274 15.32788,-31.153648 15.497192,-31.413256 C 15.664137,-31.666828 15.883959,-32.096921 16.076157,-32.565307 C 16.325627,-33.172043 16.466502,-33.706911 16.464446,-34.015234 L 20.22962,-30.940967 C 20.231871,-30.64522 20.120198,-30.12569 19.944391,-29.536334 C 19.799175,-29.047302 19.628746,-28.54682 19.511832,-28.230053 C 19.384015,-27.885793 19.308308,-27.734683 19.274406,-27.815525 C 19.241544,-27.891506 19.245248,-28.191662 19.285647,-28.62198 C 19.326002,-29.049033 19.409247,-29.602907 19.538733,-30.092815 C 19.605152,-30.346293 19.684702,-30.584968 19.766856,-30.772143 C 19.848872,-30.960171 19.932848,-31.096013 20.004085,-31.167009 C 20.146523,-31.309078 20.230833,-31.203927 20.22962,-30.940967 L 16.464446,-34.015234" />
      <path d="M 15.732418,-34.784977 L 16.296809,-34.324152 A 21.3,21.3 -45.00000000000001 0,1 17.987168,-36.625981 L 15.732418,-34.784977" />
      <path d="M 44.866513,-10.996974 L 45.430903,-10.536149 L 47.685653,-12.377153 A 21.3,21.3 -45.00000000000001 0,1 44.866513,-10.996974" />
      <path d="M 50.416713,-33.082446 A 21.3,21.3 -45.00000000000001 0,0 20.293965,-8.487206 A 21.3,21.3 -45.00000000000001 0,0 50.416713,-33.082446 M 46.88118,-30.195681 A 16.3,16.3 -45.00000000000001 0,1 23.829499,-11.373972 A 16.3,16.3 -45.00000000000001 0,1 46.88118,-30.195681" />
      <path d="M 49.877044,-13.835265 L 46.338642,-16.724371 L 46.338642,-11.528269 L 49.877044,-8.639162 L 49.877044,-13.835265" />
      <path d="M 49.877044,-8.639162 L 46.338642,-11.528269 A 16.3,16.3 -45.00000000000001 0,0 47.399302,-12.394298 L 50.937704,-9.505192 A 21.3,21.3 -45.00000000000001 0,1 49.877044,-8.639162" />
      <path d="M 46.338642,-16.724371 L 49.877044,-13.835265 A 21.3,21.3 -45.00000000000001 0,0 50.937704,-14.701294 L 47.399302,-17.590401 A 16.3,16.3 -45.00000000000001 0,1 46.338642,-16.724371" />
      <path d="M 47.399302,-17.590401 L 50.937704,-14.701294 L 50.937704,-9.505192 L 47.399302,-12.394298 L 47.399302,-17.590401" />
      <path d="M 23.311376,-30.330044 L 19.772974,-33.21915 A 21.3,21.3 -45.00000000000001 0,1 20.833634,-34.08518 L 24.372036,-31.196073 A 16.3,16.3 -45.00000000000001 0,0 23.311376,-30.330044" />
      <path d="M 23.311376,-35.526146 L 19.772974,-38.415253 L 19.772974,-33.21915 L 23.311376,-30.330044 L 23.311376,-35.526146" />
      <path d="M 20.833634,-39.281282 L 24.372036,-36.392176 L 24.372036,-31.196073 L 20.833634,-34.08518 L 20.833634,-39.281282" />
      <path d="M 19.772974,-38.415253 L 23.311376,-35.526146 A 16.3,16.3 -45.00000000000001 0,1 24.372036,-36.392176 L 20.833634,-39.281282 A 21.3,21.3 -45.00000000000001 0,0 19.772974,-38.415253" />
      <path d="M 51.458337,-23.918001 C 51.458024,-24.191612 51.420292,-24.240717 51.333663,-24.06169 C 51.248209,-23.886938 51.098461,-23.466574 50.926374,-22.940087 C 50.768578,-22.455555 50.616035,-21.929445 50.542116,-21.540186 C 50.454944,-21.093905 50.461601,-20.794504 50.560158,-20.739812 C 50.638146,-20.692765 50.780719,-20.82888 50.926374,-21.150627 C 51.073688,-21.469948 51.207576,-21.950247 51.294099,-22.414579 C 51.409115,-23.024232 51.457911,-23.611874 51.458337,-23.918001 L 55.588452,-20.54576 C 55.588286,-20.249291 55.501178,-19.717087 55.315818,-19.130843 C 55.244181,-18.904959 55.156094,-18.670439 55.059389,-18.460275 C 54.962867,-18.249749 54.85799,-18.064392 54.757906,-17.926914 C 54.544704,-17.632953 54.375732,-17.5784 54.300411,-17.692071 C 54.210505,-17.823154 54.232715,-18.163628 54.36568,-18.631674 C 54.474418,-19.020117 54.673479,-19.524024 54.885714,-19.956927 C 55.096452,-20.388272 55.288441,-20.691211 55.405884,-20.785405 C 55.529621,-20.88805 55.588278,-20.792261 55.588452,-20.54576 L 51.458337,-23.918001" />
      <path d="M 28.698677,-42.501275 C 28.6997,-42.746799 28.513979,-42.946335 28.167456,-43.025594 C 27.8376,-43.104836 27.337132,-43.053772 26.855076,-42.843957 C 26.366825,-42.636422 25.963044,-42.299668 25.74821,-41.997853 C 25.487111,-41.634428 25.447132,-41.308463 25.620132,-41.109534 C 25.767322,-40.937181 26.097105,-40.860432 26.567255,-40.944594 C 26.788032,-40.983527 27.030498,-41.056542 27.265814,-41.153743 C 27.501211,-41.250665 27.728515,-41.371514 27.921007,-41.49872 C 28.421219,-41.827888 28.701301,-42.202528 28.698677,-42.501275 L 32.828791,-39.129035 C 32.83321,-38.818952 32.483323,-38.477151 31.942725,-38.214985 C 31.533629,-38.014035 31.007481,-37.854017 30.535291,-37.799957 C 30.064142,-37.743976 29.683029,-37.802629 29.481373,-37.95065 C 29.229774,-38.130301 29.214762,-38.436524 29.434881,-38.774254 C 29.624499,-39.069044 30.025065,-39.392645 30.535291,-39.589417 C 31.085198,-39.807413 31.700975,-39.847264 32.133049,-39.739001 C 32.565481,-39.63568 32.831715,-39.400002 32.828791,-39.129035 L 28.698677,-42.501275" />
    </g>
  </g>
</svg>