<?xml version="1.0" encoding="UTF-8" standalone="no"?>
<svg
   xmlns:svg="http://www.w3.org/2000/svg"
   xmlns="http://www.w3.org/2000/svg"
   width="800.0"
   height="240.0"

>
    <g transform="scale(3.2672818374174524, -3.2672818374174524)   translate(72.53926259557964,-48.860290058935526)" stroke-width="0.3060648115959372"  fill="none">
       <!-- hidden lines -->
       <g  stroke="rgb(160,160,160)" fill="none" stroke-dasharray="0.3060648115959372,0.3060648115959372" >
			<path d="M-6.027534719694615,-10.376358956921063 L-5.790387123269815,-10.509936184650982 L-5.549751614158476,-10.637182619815093 L-5.305773142193347,-10.758021613918906 L-5.058598670882998,-10.87238037807083 L-4.808377088886496,-10.980190026827492 L-4.555259120328449,-11.081385619687744 L-4.299397234008427,-11.175906200210395 L-4.040945551559453,-11.263694832732087 L-3.7800597546109085,-11.34469863666322 L-3.5168969910117234,-11.41886881834123 L-3.2516157801704035,-11.486160700422081 L-2.9843759175688525,-11.546533748792207 L-2.7153383785075618,-11.59995159698477 L-2.444665221140099,-11.646382068085433 L-2.172519488855343,-11.685797194114558 L-1.8990651120662363,-11.718173232874053 L-1.624466809464238,-11.743490682248781 L-1.3488899887989472,-11.761734291953925 L-1.072500647242648,-11.772893072721166 L-0.7954652713998316,-11.776960302918228 L-0.5179507370218864,-11.773933532597722 L-0.2401242084873871,-11.76381458497291 L0.03784696189148606,-11.74660955531947 L0.3157953346757029,-11.722328807303928 L0.5935534841586596,-11.690986966740972 L0.870954099217154,-11.65260291278341 L1.14783008409335,-11.607199766550078 L1.424014659047021,-11.554804877198528 L1.6993414608174187,-11.495449805450939 L1.9736446428342886,-11.429170304583101 L2.246758975117644,-11.356006298887984 L2.518519943806118,-11.276001859626843 L2.78876385025397,-11.18920517848233 L3.0573279096370247,-11.095668538529631 L3.324050349008167,-10.99544828274309 L3.588770504743317,-10.88860478005732 L3.8513289193191818,-10.7752023890032 L4.111567437364512,-10.655309418940712 L4.369329300926982,-10.528998088911937 L4.624459243898321,-10.396344484138996 L4.876803585540807,-10.25742851019317 L5.126210323058789,-10.112333844862762 L5.372529223159513,-9.961147887748725 L5.615611912548012,-9.80396170761842 L5.855311967301647,-9.640869987549184 L6.091485001070398,-9.471970967894796 L6.323988752049799,-9.297366387109156 L6.552683168674133,-9.117161420462844 L6.777430493978264,-8.93146461668947 L6.998095348577274,-8.740387832599971 L7.21454481221394,-8.544046165704266 L7.426648503824934,-8.34255788488081 L7.634278660077497,-8.13604435913583 L7.837310212329294,-7.924629984495202 L8.035620861965091,-7.708442109072915 L8.229091154064857,-7.487610956361335 L8.417604549358952,-7.262269546789451 L8.60104749442702,-7.0325536175963315 L8.779309490098326,-6.7986015410680904 L8.952283158012323,-6.560554241187595 L9.11986430529936,-6.318555108747132 L9.281951987342579,-6.072749914975151 L9.438448568583162,-5.823286723729134 L9.589259781332352,-5.57031580230746 L9.73429478255479,-5.313989530934 L9.87346620858894,-5.054462310969971 L10.00669022777172,-4.791890471908332 L10.133886590935534,-4.526432177206742 L10.254978679747397,-4.258247329015806 L10.369893552860933,-3.987497471859993 L10.47856198985352,-3.714345695329266 L10.580918532922087,-3.4389565358400005 L10.676901526312454,-3.161495877524414 L10.766453153458427,-2.882130852308153 L10.849519471808375,-2.6010297392362762 L10.926050445318166,-2.3183618631082505 L10.99599997459104,-2.0342974924830206 L11.059325924646144,-1.7490077371156 L11.115990150299071,-1.462664444886953 L11.165958519139103,-1.1754400982892548 L11.209200932089288,-0.8875077105288836 L11.245691341536999,-0.5990407213097404 L11.275407767024054,-0.31021289235965505 L11.298332308486906,-0.021198202762814842 L11.314451157038981,0.26782925583871886 L11.323754603288636,0.5566953841113098 L11.326237043187724,0.8452261799006955 L11.321896981407281,1.1332478430443491 L11.310737032238235,1.4205868800622188 L11.292763918016666,1.7070702086627052 L11.267988465074524,1.99252526200096 L11.236425597218247,2.2767800926267032 L11.198094326739223,2.559663476058939 L11.15301774296149,2.841005013925179 L11.10122299833359,3.1206352366030505 L11.042741292072956,3.398385705302465 L10.977607851372671,3.6740891135268314 L10.905861910181917,3.9475793878522443 L10.82754668557291,4.218691787963918 L10.742709351708566,4.487263005889566 L10.651401011426527,4.7531312643700385 L10.55367666545674,5.016136414307881 L10.449595179291071,5.276120031235164 L10.33921924772493,5.532925510742468 L10.222615357092266,5.786398162811511 L10.0998537452167,6.0363853049946385 L9.971008359102873,6.282736354385024 L9.836156810393536,6.525302918322176 L9.69538032861921,6.7639388837781205 L9.54876371226855,6.9985005053704405 L9.396395277708887,7.228846491949112 L9.238366805987786,7.454838091705016 L9.074773487547544,7.676339175748828 L8.905713864886039,7.893216320109978 L8.731289773198418,8.105338886106264 L8.55160627903537,8.312579099035704 L8.366771617014987,8.514812125143237 L8.176897124626258,8.711916146815913 L7.982097175163533,8.903772435961274 L7.782489108832326,9.090265425524708 L7.578193162067971,9.271282779102723 L7.369332395109679,9.446715458610198 L7.156032617873661,9.616457789960853 L6.938422314169929,9.78040752672135 L6.716632564308464,9.938465911700744 L6.4907969661413265,10.090537736438105 L6.261051554588318,10.236531398552545 L6.027534719694659,10.376358956921038 " />
			<path d="M4.152976768010479,11.22657514296948 L3.9908190548546365,11.27984581092662 L3.8277219007034025,11.330461196990289 L3.663723698716363,11.378409386270839 L3.4988630541602563,11.423679091738201 L3.333178775321271,11.466259656878863 L3.166709864369565,11.506141058204433 L2.9994955081781223,11.54331390761115 L2.8315750690981933,11.577769454589859 " />
			<path d="M3.822626343282367,11.00207657533004 L3.9881442723060054,10.968134222319476 L4.152976768010374,10.931551803174466 " />
			<path d="M3.8226263432823706,11.00207657533004 L2.831575069098052,11.577769454589886 " />
			<path d="M2.831575069098052,11.577769454589838 L2.831575069098052,41.324281587597625 " />
			<path d="M-1.3181630652330327,41.028989701368054 L-3.2566172109148287e-16,41.12278907985668 " />
			<path d="M-3.2566172109148287e-16,41.12278907985668 L2.578561480830539,41.306277352799505 " />
			<path d="M0.03916262585506331,-8.906384384441214 L-0.0385437939771108,-8.911937947922121 L-0.11603430553826705,-8.91144720288145 L-0.19287483525533153,-8.904914898293868 L-0.26863495051637304,-8.892377625746338 L-0.34289027079704953,-8.873905614465405 L-0.4152248448854694,-8.849602337918686 L-0.48523348088911894,-8.819603934194255 L-0.5525240159720042,-8.784078443404754 " />
			<path d="M-0.5525240159720081,-8.78407844340475 L-0.5949897218962894,-8.75787816486048 L-0.6360220454655785,-8.729449562303111 L-0.6755221362183891,-8.698861122726255 L-0.7133948349762984,-8.666186536360085 L-0.7495489030907422,-8.631504519145112 L-0.7838972422449103,-8.594898623098592 L-0.8163571042812214,-8.556457035030402 L-0.8468502905488821,-8.51627236409328 L-0.8753033402912852,-8.474441418679277 L-0.9016477076194088,-8.431064973199852 L-0.9258199266448656,-8.386247525311497 L-0.9477617643747865,-8.340097044171713 L-0.9674203610002026,-8.292724710331877 L-0.9847483572399531,-8.244244647893531 L-0.9997040084333438,-8.194773649573442 L-1.0122512851066892,-8.144430895339713 L-1.0223599597714714,-8.093337665296795 L-1.0300056797450075,-8.041617047511101 L-1.0351700258181957,-7.989393641481067 L-1.037840556629002,-7.936793257966052 L-1.0380108386347928,-7.8839426158971895 L-1.0356804616113011,-7.830969037100395 L-1.030855039640893,-7.778000139566927 L-1.0235461975877527,-7.725163530010472 L-1.0137715430925647,-7.672586496451391 L-1.0015546241541669,-7.620395701568731 L-0.9869248724003575,-7.568716877558741 L-0.9699175321845261,-7.517674523234987 L-0.9505735756789199,-7.46739160409982 L-0.9289396041690917,-7.417989256109702 L-0.9050677357873207,-7.369586493848073 L-0.8790154799554669,-7.322299923808803 L-0.8508455988397379,-7.276243463480931 L-0.820625956151131,-7.231528066911458 L-0.7884293536558117,-7.188261457407323 L-0.7543333557892795,-7.146547868020531 L-0.7184201027968525,-7.106487790441593 L-0.6807761128506193,-7.068177732906245 L-0.641492073619584,-7.0317099876986555 L-0.6006626237951297,-6.997172408811226 L-0.5583861250981209,-6.96464820029663 L-0.5147644253169023,-6.934215715821965 L-0.4699026129470568,-6.9059482699079 L-0.4239087640240142,-6.879913961307579 L-0.37689368175841514,-6.856175508950755 L-0.3289706296014724,-6.8347901008484 L-0.28025505838339587,-6.815809256321771 L-0.23086432818222857,-6.799278701887859 L-0.1809174255931436,-6.7852382611002025 L-0.1305346770793107,-6.773721758610455 L-0.07983745909490647,-6.764756938681841 L-0.02894790567860696,-6.758365398350794 L0.022011385778009335,-6.754562535397803 L0.0729176498783166,-6.7533575112528155 L0.12364824897323537,-6.754753228924544 L0.17408096860607006,-6.758746326006865 L0.22409431193784077,-6.7653271827791555 L0.2735677924438095,-6.774479945381034 L0.32238222417607265,-6.786182564005707 L0.3704200088929485,-6.800406846019879 L0.41756541936344044,-6.817118523882277 L0.46370487816427397,-6.836277337697161 L0.5087272312978592,-6.857837132203937 L0.5525240159719975,-6.881745967969218 " />
			<path d="M0.5525240159720055,-6.8817459679692226 L0.6167195131077937,-6.9225995449859985 L0.6774603725434845,-6.9685523613971725 L0.7344063461460397,-7.0193470062912615 L0.7872384433482815,-7.074698946600176 L0.8356607180176635,-7.134298120949659 L0.8794019262385288,-7.197810676509981 L0.9182170457215612,-7.264880839117676 L0.9518886483292524,-7.3351329061926025 " />
			<path d="M-7.511704225073076,-1.6107855327300828 L-7.589410644905249,-1.6163390962109896 L-7.666901156466405,-1.6158483511703179 L-7.74374168618347,-1.6093160465827352 L-7.8195018014445115,-1.5967787740352062 L-7.893757121725188,-1.5783067627542737 L-7.966091695813607,-1.5540034862075534 L-8.036100331817257,-1.5240050824831222 L-8.103390866900142,-1.488479591693621 " />
			<path d="M-8.103390866900146,-1.4884795916936189 L-8.145856572824428,-1.462279313149348 L-8.186888896393716,-1.4338507105919787 L-8.226388987146528,-1.4032622710151226 L-8.264261685904437,-1.3705876846489526 L-8.30041575401888,-1.3359056674339795 L-8.334764093173048,-1.2992997713874606 L-8.36722395520936,-1.2608581833192698 L-8.39771714147702,-1.220673512382148 L-8.426170191219423,-1.1788425669681446 L-8.452514558547547,-1.1354661214887205 L-8.476686777573004,-1.0906486736003638 L-8.498628615302925,-1.0444981924605814 L-8.51828721192834,-0.9971258586207441 L-8.53561520816809,-0.9486457961823982 L-8.550570859361482,-0.8991747978623099 L-8.563118136034827,-0.8488320436285806 L-8.573226810699609,-0.7977388135856627 L-8.580872530673146,-0.7460181957999685 L-8.586036876746334,-0.6937947897699355 L-8.588707407557141,-0.6411944062549194 L-8.588877689562931,-0.5883437641860575 L-8.58654731253944,-0.5353701853892634 L-8.581721890569032,-0.48240128785579556 L-8.574413048515892,-0.4295646782993401 L-8.564638394020703,-0.3769876447402586 L-8.552421475082305,-0.32479684985759927 L-8.537791723328496,-0.2731180258476081 L-8.520784383112664,-0.22207567152385477 L-8.501440426607058,-0.17179275238868813 L-8.47980645509723,-0.12239040439856935 L-8.45593458671546,-0.07398764213694031 L-8.429882330883606,-0.026701072097670808 L-8.401712449767876,0.019355388230200776 L-8.37149280707927,0.06407078479967454 L-8.33929620458395,0.10733739430380884 L-8.305200206717418,0.14905098369060132 L-8.269286953724992,0.18911106126953958 L-8.231642963778757,0.2274211188048869 L-8.192358924547722,0.2638888640124767 L-8.151529474723269,0.2984264428999064 L-8.109252976026259,0.330950651414502 L-8.06563127624504,0.36138313588916715 L-8.020769463875196,0.389650581803232 L-7.9747756149521525,0.4156848904035533 L-7.927760532686554,0.4394233427603771 L-7.879837480529611,0.46080875086273276 L-7.831121909311534,0.4797895953893614 L-7.781731179110367,0.49632014982327277 L-7.731784276521282,0.5103605906109296 L-7.681401528007449,0.5218770931006773 L-7.630704310023044,0.5308419130292914 L-7.579814756606745,0.5372334533603387 L-7.528855465150129,0.5410363163133285 L-7.477949201049822,0.5422413404583162 L-7.427218601954903,0.5408456227865883 L-7.376785882322068,0.5368525257042669 L-7.326772538990298,0.5302716689319769 L-7.277299058484329,0.5211189063300978 L-7.228484626752065,0.5094162877054249 L-7.18044684203519,0.4951920056912531 L-7.133301431564698,0.47848032782885497 L-7.087161972763864,0.45932151401397114 L-7.042139619630279,0.4377617195071952 L-6.998342834956141,0.41385288374191387 " />
			<path d="M-6.998342834956133,0.4138528837419092 L-6.934147337820344,0.3729993067251336 L-6.873406478384654,0.32704649031395916 L-6.816460504782098,0.2762518454198709 L-6.763628407579857,0.22089990511095658 L-6.715206132910475,0.16130073076147233 L-6.67146492468961,0.0977881752011509 L-6.632649805206577,0.030718012593456856 L-6.598978202598886,-0.039534054481470515 " />
			<path d="M-2.831575069098052,-0.2014925077409473 L-2.8300041422098023,-0.10355045750622285 L-2.8252931046111738,-0.00549350994826247 L-2.817447183566468,0.09256953308820372 L-2.8064750847381017,0.19052986299504218 L-2.7923889825270014,0.2882787851323604 L-2.7752045065641484,0.3857078394337039 L-2.7549407243682853,0.4827089207509734 L-2.7316201201890133,0.5791743988055349 L-2.705268570058761,0.6749972376124218 L-2.6759153130813034,0.7700711142451236 L-2.643592918988693,0.8642905368091802 L-2.6083372520025976,0.9575509614936812 L-2.570187431040142,1.0497489085707925 L-2.529185786308416,1.1407820772145982 L-2.485377812335801,1.230549459011862 L-2.438812117492234,1.3189514500387518 L-2.3895403700544273,1.4058899613791773 L-2.3376172408758755,1.4912685279621039 L-2.283100342725273,1.5749924155970887 L-2.2260501663606465,1.6569687260892647 L-2.1665300134101306,1.737106500317147 L-2.1046059261338677,1.8153168191588849 L-2.040346614144958,1.8915129021549775 L-1.9738233781707808,1.9656102037979648 L-1.9051100309392577,2.037526507342287 L-1.8342828152778687,2.1071820160301806 L-1.7614203195162845,2.1744994416324115 L-1.6866033902864617,2.2394040902056136 L-1.6099150428169948,2.3018239449710483 L-1.531440368821235,2.361689746222849 L-1.4512664420813837,2.418935068177078 L-1.3694822218333285,2.4734963926763216 L-1.2861784540594192,2.5253131796680477 L-1.2014475707987127,2.5743279343785264 L-1.1153835875864004,2.6204862711077745 L-1.0280819991362298,2.6637369735747356 L-0.939639673381656,2.7040320517457475 L-0.8501547439933022,2.7413267950832347 L-0.7597265014919806,2.7755798221555423 L-0.6684552830781139,2.8067531265528665 L-0.5764423612997552,2.834812119058338 L-0.48378983168279277,2.8597256660274617 L-0.39060049944799163,2.8814661239333206 L-0.296977765440556,2.9000093700392395 L-0.20302551139882308,2.9153348291648378 L-0.10884798468935283,2.9274254965158026 L-0.014549682636331432,2.936267956552037 L0.07976476342637447,2.9418523978732503 L0.1739907042518585,2.9441726241054713 L0.2680235887966892,2.9432260607764107 L0.36175908022846376,2.9390137581720386 L0.4550931716956731,2.9315403901712123 L0.5479223017314319,2.9208142490596387 L0.640143469163016,2.9068472363289395 L0.7316543473997162,2.8896548494710133 L0.822353397972172,2.869256164782359 L0.9121399831972551,2.845673816197434 L1.0009144778434322,2.8189339701745335 L1.088578379672738,2.7890662966620674 L1.1750344187367168,2.7561039361774244 L1.260186665305022,2.7200834630349857 L1.3439406363069495,2.681044844764064 L1.4262034001677868,2.6390313977618063 L1.506883679923633,2.5940897392302777 " />
			<path d="M1.506883679923655,2.5940897392302653 L1.568756829918122,2.5569733072294216 L1.6295675078146927,2.5181251136564935 L1.6892745283593573,2.477571469231497 L1.7478374537722334,2.4353398397253194 L1.8052166211348653,2.391458827357976 L1.861373169252732,2.34595815142718 L1.9162690649747731,2.2988686281803505 L1.9698671289521037,2.2502221499436916 " />
			<path d="M-0.9788158547677883,-2.8259150292035353 L-1.0476258365475393,-2.8034557613076703 L-1.1157262926703244,-2.779097796642955 L-1.1830711007332917,-2.752857632130598 L-1.2496146501114311,-2.72475303944949 L-1.3153118728482802,-2.694803052999977 L-1.3801182741791067,-2.663027957012431 L-1.4439899626658863,-2.629449271809345 L-1.506883679923644,-2.5940897392302715 " />
			<path d="M-1.5068836799236547,-2.5940897392302653 L-1.5817589191709946,-2.5488686715078144 L-1.655059699589464,-2.501110498582511 L-1.726713058694392,-2.450862758215073 L-1.7966476738192882,-2.3981754662438757 L-1.8647939331093415,-2.34310106679995 L-1.931084004812004,-2.285694380104885 L-1.9954519047956911,-2.2260125479036112 L-2.0578335622293826,-2.1641149765863794 L-2.1181668833577563,-2.1000632780565356 L-2.17639181330837,-2.03392120840297 L-2.2324503958693693,-1.9657546044382745 L-2.2862868311782223,-1.8956313181657765 L-2.3378475312640585,-1.8236211492406849 L-2.3870811733883173,-1.749795775492571 L-2.4339387511306274,-1.6742286815783471 L-2.478373623169052,-1.5969950858367508 L-2.5203415597061523,-1.5181718654171552 L-2.5598007864946584,-1.4378374797572213 L-2.5967120264189223,-1.3560718924855573 L-2.631038538590759,-1.2729564918271445 L-2.662746154920773,-1.1885740095907271 L-2.6918033141287534,-1.1030084388188273 L-2.7181810931592953,-1.0163449501823472 L-2.7418532359713694,-0.9286698072029728 L-2.762796179673186,-0.8400702803877718 L-2.7809890779763413,-0.7506345603614578 L-2.796413821945898,-0.6604516700827794 L-2.80905505802574,-0.5696113762324178 L-2.8189002033212724,-0.47820409986059625 L-2.825939458124245,-0.386320826383335 L-2.83016581566723,-0.29405301501695336 L-2.831575069098052,-0.20149250774097352 " />
			<path d="M7.5900294767832035,-0.5361588247783723 L7.51232305695103,-0.541712388259279 L7.434832545389874,-0.5412216432186073 L7.357992015672809,-0.5346893386310246 L7.282231900411768,-0.5221520660834956 L7.207976580131091,-0.5036800548025632 L7.135642006042672,-0.4793767782558428 L7.065633370039022,-0.4493783745314116 L6.998342834956137,-0.41385288374191054 " />
			<path d="M6.998342834956133,-0.4138528837419083 L6.955877129031851,-0.38765260519763733 L6.914844805462563,-0.359224002640268 L6.875344714709752,-0.32863556306341213 L6.8374720159518425,-0.2959609766972421 L6.801317947837399,-0.2612789594822691 L6.7669696086832305,-0.2246730634357501 L6.7345097466469195,-0.18623147536755913 L6.704016560379259,-0.14604680443043738 L6.675563510636856,-0.10421585901643404 L6.649219143308732,-0.060839413537010056 L6.625046924283275,-0.016021965648653214 L6.603105086553354,0.03012851549112916 L6.583446489927939,0.0775008493309664 L6.566118493688188,0.1259809117693123 L6.551162842494797,0.17545191008940064 L6.538615565821452,0.22579466432312995 L6.5285068911566695,0.2768878943660478 L6.5208611711831335,0.328608512151742 L6.515696825109945,0.3808319181817751 L6.513026294299139,0.43343230169679114 L6.512856012293348,0.486282943765653 L6.51518638931684,0.5392565225624472 L6.520011811287247,0.592225420095915 L6.5273206533403885,0.6450620296523705 L6.5370953078355765,0.697639063211452 L6.549312226773974,0.7498298580941113 L6.563941978527783,0.8015086821041024 L6.580949318743615,0.8525510364278558 L6.600293275249221,0.9028339555630225 L6.621927246759049,0.9522363035531412 L6.64579911514082,1.0006390658147701 L6.671851370972674,1.0479256358540399 L6.700021252088403,1.0939820961819113 L6.73024089477701,1.138697492751385 L6.762437497272329,1.1819641022555194 L6.796533495138862,1.2236776916423118 L6.8324467481312885,1.2637377692212501 L6.870090738077522,1.3020478267565974 L6.909374777308557,1.3385155719641872 L6.950204227133011,1.373053150851617 L6.99248072583002,1.4055773593662124 L7.036102425611238,1.4360098438408777 L7.080964237981084,1.4642772897549425 L7.126958086904127,1.4903115983552637 L7.1739731691697255,1.5140500507120875 L7.221896221326668,1.5354354588144434 L7.270611792544745,1.554416303341072 L7.320002522745912,1.5709468577749832 L7.3699494253349975,1.5849872985626403 L7.420332173848831,1.5965038010523878 L7.471029391833235,1.6054686209810018 L7.521918945249534,1.6118601613120491 L7.57287823670615,1.615663024265039 L7.623784500806457,1.6168680484100268 L7.6745150999013765,1.615472330738299 L7.724947819534211,1.6114792336559773 L7.774961162865981,1.6048983768836873 L7.8244346433719505,1.5957456142818085 L7.873249075104214,1.5840429956571356 L7.921286859821089,1.5698187136429635 L7.968432270291581,1.5531070357805654 L8.014571729092415,1.5339482219656817 L8.059594082226,1.5123884274589057 L8.103390866900138,1.4884795916936244 " />
			<path d="M8.103390866900146,1.4884795916936198 L8.167586364035934,1.4476260146768443 L8.228327223471625,1.4016731982656698 L8.285273197074181,1.3508785533715815 L8.338105294276422,1.295526613062667 L8.386527568945805,1.235927438713183 L8.43026877716667,1.1724148831528614 L8.469083896649702,1.1053447205451674 L8.502755499257393,1.03509265347024 " />
			<path d="M0.03916262585506513,6.759440026932759 L-0.038543793977108984,6.7538864634518525 L-0.11603430553826523,6.7543772084925235 L-0.19287483525532972,6.760909513080106 L-0.2686349505163712,6.773446785627636 L-0.3428902707970477,6.791918796908568 L-0.41522484488546757,6.816222073455288 L-0.4852334808891171,6.8462204771797195 L-0.5525240159720024,6.881745967969221 " />
			<path d="M-0.5525240159720063,6.8817459679692226 L-0.5949897218962876,6.907946246513494 L-0.6360220454655767,6.936374849070863 L-0.6755221362183873,6.966963288647719 L-0.7133948349762966,6.999637875013889 L-0.7495489030907404,7.034319892228862 L-0.7838972422449085,7.070925788275381 L-0.8163571042812197,7.109367376343572 L-0.8468502905488803,7.149552047280694 L-0.8753033402912834,7.191382992694697 L-0.901647707619407,7.234759438174121 L-0.9258199266448638,7.279576886062478 L-0.9477617643747848,7.32572736720226 L-0.9674203610002008,7.373099701042097 L-0.9847483572399514,7.421579763480444 L-0.9997040084333421,7.471050761800532 L-1.0122512851066874,7.521393516034261 L-1.0223599597714697,7.572486746077179 L-1.0300056797450057,7.624207363862873 L-1.035170025818194,7.676430769892907 L-1.0378405566290003,7.729031153407922 L-1.038010838634791,7.781881795476784 L-1.0356804616112993,7.8348553742735785 L-1.0308550396408913,7.887824271807046 L-1.023546197587751,7.940660881363502 L-1.013771543092563,7.993237914922583 L-1.001554624154165,8.045428709805243 L-0.9869248724003558,8.097107533815233 L-0.9699175321845244,8.148149888138986 L-0.9505735756789181,8.198432807274154 L-0.9289396041690899,8.247835155264273 L-0.9050677357873189,8.296237917525902 L-0.8790154799554651,8.34352448756517 L-0.8508455988397361,8.389580947893043 L-0.8206259561511292,8.434296344462517 L-0.7884293536558099,8.47756295396665 L-0.7543333557892777,8.519276543353444 L-0.7184201027968508,8.559336620932381 L-0.6807761128506176,8.59764667846773 L-0.6414920736195823,8.63411442367532 L-0.6006626237951279,8.668652002562748 L-0.5583861250981191,8.701176211077344 L-0.5147644253169005,8.731608695552008 L-0.469902612947055,8.759876141466073 L-0.42390876402401234,8.785910450066394 L-0.3768936817584133,8.809648902423218 L-0.32897062960147055,8.831034310525574 L-0.28025505838339404,8.850015155052203 L-0.23086432818222677,8.866545709486115 L-0.1809174255931418,8.880586150273771 L-0.1305346770793089,8.89210265276352 L-0.07983745909490465,8.901067472692134 L-0.02894790567860514,8.90745901302318 L0.022011385778011153,8.91126187597617 L0.07291764987831842,8.912466900121158 L0.12364824897323719,8.91107118244943 L0.17408096860607186,8.90707808536711 L0.22409431193784257,8.90049722859482 L0.27356779244381135,8.89134446599294 L0.3223822241760745,8.879641847368266 L0.37042000889295035,8.865417565354095 L0.41756541936344227,8.848705887491697 L0.4637048781642758,8.829547073676812 L0.508727231297861,8.807987279170037 L0.5525240159719993,8.784078443404756 " />
			<path d="M0.5525240159720073,8.78407844340475 L0.6167195131077955,8.743224866387976 L0.6774603725434862,8.697272049976801 L0.7344063461460415,8.646477405082713 L0.7872384433482833,8.591125464773798 L0.8356607180176653,8.531526290424313 L0.8794019262385305,8.468013734863993 L0.9182170457215629,8.400943572256299 L0.9518886483292541,8.33069150518137 " />
			<path d="M3.8226263432823706,9.416939885589834 L3.8226263432823706,11.00207657533004 " />
			<path d="M3.82262634328237,9.416939885589834 L-1.8405237949137339,9.013954870107943 " />
			<path d="M3.8226263432823706,9.416939885589834 L4.152976768010476,9.225042259169886 " />
			<path d="M0.0,41.12278907985668 L-0.1434957278337008,41.11129714041782 L-0.2822093103509741,41.097591303784235 L-0.41531588889450577,41.08175307154933 L-0.542023946788967,41.06387662557143 L-0.6615800160854447,41.04406826792247 L-0.7732731580495767,41.02244578876399 L-0.8764391907502233,40.99913776590938 L-0.970464638609365,40.974282800237425 L-1.0547903804272827,40.94802869150385 L-1.1289149741900748,40.920531559451845 L-1.1923976388885893,40.89195491544786 L-1.2448608756174147,40.86246869016327 L-1.2859927123676016,40.83224822308361 L-1.3022302467223574,40.81691866540203 L-1.315548559164478,40.801473219854486 L-1.3259278430336083,40.78593485652036 L-1.3333526625190033,40.77032668366405 L-1.3378119756152747,40.754671913368895 L-1.3392991505437877,40.738993827016785 " />
			<path d="M-9.992007221626409e-16,41.12278907985668 L0.22920471923668312,41.13604123613927 L0.4645348949629319,41.143656964981275 L0.7026498141314247,41.145528154600484 L0.9401692318807748,41.14162824186042 L1.173721357001383,41.13201258935677 L1.3999907173944752,41.116817699498036 L1.615765226033213,41.09625927673711 L1.81798177928431,41.07062916546214 L2.0037697402830075,41.04029120701595 L2.0896686463904928,41.02348892092714 L2.170491690077708,41.00567607465705 L2.245951778345759,40.98691594153987 L2.315780868046934,40.96727515978459 L2.3797309180056256,40.946823495768186 L2.43757477008989,40.925633596217224 L2.4891069561039654,40.903780730158104 L2.5341444276355753,40.88134252155256 L2.5725272062655122,40.85839867356822 L2.6041189518298826,40.8350306854635 L2.6288074467164733,40.81132156309263 L2.646504994474968,40.78735552405907 L2.6571487313250968,40.763217698564596 L2.6607008494562123,40.738993827016785 " />
			<path d="M1.543575290156324,-7.457438847229068 L0.5525240159720055,-6.8817459679692226 " />
			<path d="M0.4385272582123103,-9.359771322664596 L-0.5525240159720082,-8.78407844340475 " />
			<path d="M-6.007291560771814,-0.16183999551793635 L-6.998342834956133,0.4138528837419091 " />
			<path d="M-7.112339592715829,-2.064172470953464 L-8.103390866900147,-1.4884795916936187 " />
			<path d="M2.4979349541079734,2.0183968599704194 L1.506883679923655,2.594089739230265 " />
			<path d="M-0.5158324057393364,-3.1697826184901103 L-1.506883679923655,-2.594089739230265 " />
			<path d="M9.094442141084466,0.9127867124337742 L8.103390866900147,1.4884795916936195 " />
			<path d="M7.989394109140451,-0.9895457630017536 L6.998342834956133,-0.4138528837419081 " />
			<path d="M1.5435752901563258,8.208385564144905 L0.5525240159720073,8.78407844340475 " />
			<path d="M0.4385272582123121,6.306053088709377 L-0.5525240159720064,6.8817459679692226 " />

       </g>

       <!-- solid lines -->
       <g  stroke="rgb(0,0,0)" fill="none">
			<path d="M-2.831575069098392,11.17478443910788 L-3.0305301840977164,11.105331661224424 L-3.228483088482704,11.032206297822748 L-3.425368318294945,10.955432531805153 L-3.6211207626610515,10.875035752617888 L-3.815675685325117,10.79104254785473 L-4.008968746057305,10.70348069446434 L-4.2009360219314695,10.6123791495643 L-4.391514028464755,10.517768040864864 L-4.580639740612244,10.419678656705564 L-4.768250613609614,10.318143435708015 L-4.954284603656975,10.213195956048327 L-5.138680188437065,10.10487092435263 L-5.321376387460967,9.99320416421942 L-5.502312782234642,9.878232604372549 L-5.681429536239609,9.7599942664487 L-5.858667414721167,9.638528252423464 L-6.03396780427761,9.513874731680131 L-6.2072727322439425,9.38607492772549 L-6.378524885863722,9.255171104557006 L-6.547667631242655,9.12120655268594 L-6.714645032077705,8.984225574820947 L-6.879401868155484,8.84427347121697 L-7.041883653613817,8.701396524694255 L-7.202036654960499,8.555641985332372 L-7.359807908843205,8.40705805484441 L-7.515145239564726,8.255693870636435 L-7.667997276337706,8.101599489557527 L-7.818313470273216,7.944825871345729 L-7.966044111097502,7.7854248617754385 L-8.11114034359141,7.6234491755117535 L-8.253554183747037,7.45895237867749 L-8.393238534636257,7.291988871138618 L-8.530147201985931,7.122613868513951 L-8.664234909454539,6.950883383915087 L-8.795457313605278,6.776854209422634 L-8.923771018570658,6.600583897304769 L-9.049133590403732,6.422130740984449 L-9.171503571111174,6.241553755761492 L-9.29084049236365,6.058912659295945 L-9.407104888878886,5.874267851859171 L-9.520258311473015,5.687680396359195 L-9.63026333977591,5.499211998146911 L-9.737083594606274,5.30892498460983 L-9.840683750002402,5.11688228456014 L-9.941029544904655,4.923147407423802 L-10.038087794485746,4.727784422237722 L-10.131826401125114,4.53085793646183 L-10.222214365023769,4.33243307461306 L-10.309221794456057,4.132575456728369 L-10.39281991565502,3.931351176663895 L-10.472981082327985,3.7288267802373976 L-10.54967878479935,3.525069243221244 L-10.622887658777435,3.3201459491932033 L-10.692583493742598,3.1141246672523866 L-10.758743240953747,2.907073529607681 L-10.821345021070677,2.6990610090461193 L-10.880368131389673,2.4901558962885733 L-10.935793052689986,2.2804272772403613 L-10.987601455688932,2.069944510144237 L-11.035776207103467,1.8587772026432505 L-11.080301375316266,1.6469951887611969 L-11.121162235644354,1.4346685058081645 L-11.158345275208651,1.221867371218872 L-11.191838197402737,1.0086621593314298 L-11.221629925959393,0.7951233781142145 L-11.24771060861358,0.5813216458485525 L-11.27007162036063,0.3673276677749228 L-11.288705566308575,0.1532122127103961 L-11.30360628412367,-0.0609539103549424 L-11.314768846068311,-0.2750998756748584 L-11.322189560630651,-0.48915486416938236 L-11.325865973745417,-0.7030480868449973 L-11.325796869605462,-0.9167088082049257 L-11.32198227106385,-1.1300663696416733 L-11.314423439626298,-1.3430502128041364 L-11.303122875033985,-1.5555899029316207 L-11.288084314436881,-1.7676151521469312 L-11.269312731157852,-1.979055842700905 L-11.24681433304795,-2.1898420501606903 L-11.220596560433469,-2.3999040665340674 L-11.190668083655366,-2.6091724233222373 L-11.157038800201965,-2.817577914493354 L-11.119719831435791,-3.0250516193693002 L-11.0787235189157,-3.231524925418072 L-11.03406342031545,-3.4369295509442885 L-10.98575430494012,-3.6411975676702557 L-10.933812148841838,-3.844261423200144 L-10.878254129536428,-4.046053963359922 L-10.819098620322709,-4.246508454405538 L-10.756365184206368,-4.445558605092087 L-10.690074567430385,-4.643138588596645 L-10.620248692614144,-4.839183064287497 L-10.546910651503527,-5.033627199332608 L-10.47008469733436,-5.226406690140125 L-10.38979623681176,-5.4174577836239 L-10.30607182170801,-5.606717298286907 L-10.218939140081764,-5.794122645115707 L-10.128427007121475,-5.979611848278898 L-10.03456535561609,-6.163123565622796 L-9.937385226056115,-6.3445971089576165 L-9.836918756368394,-6.523972464127315 L-9.733199171287938,-6.701190310856569 L-9.626260771370346,-6.8761920423682605 L-9.516138921648457,-7.048919784765023 L-9.402870039936966,-7.219316416168402 L-9.28649158478887,-7.387325585609337 L-9.167042043107765,-7.552891731663692 L-9.04456091742004,-7.715960100826667 L-8.919088712811186,-7.876476765620073 L-8.7906669235306,-8.034388642426377 L-8.659338019269233,-8.189643509043693 L-8.525145431114659,-8.342190021955938 L-8.388133537188212,-8.491977733312362 L-8.24834764796893,-8.63895710761089 L-8.105833991309172,-8.78307953807975 L-7.960639697146839,-8.924297362751956 L-7.812812781919292,-9.06256388022735 L-7.662402132684083,-9.197833365116972 L-7.509457490951779,-9.330061083164665 L-7.354029436236216,-9.45920330604089 L-7.196169369327589,-9.585217325803923 L-7.035929495293992,-9.708061469023548 L-6.87336280621696,-9.827695110562646 L-6.708523063666727,-9.944078687012144 L-6.541464780923019,-10.057173709774814 L-6.372243204947264,-10.166942777793624 L-6.200914298112151,-10.273349589920457 L-6.0275347196947076,-10.37635895692101 " />
			<path d="M6.027534719694617,10.376358956921063 L5.803291815153205,10.502879440394834 L5.575920779889133,10.623738588733229 L5.345544173019445,10.738871255597402 L5.112286173745305,10.848215381376384 L4.876272514416057,10.951712026638882 L4.637630412756098,11.04930540390323 L4.3964885032910885,11.140942907708343 L4.152976768010525,11.226575142969462 " />
			<path d="M-1.840523794913734,10.599091559848148 L-2.8315750690980526,11.174784439107993 " />
			<path d="M4.152976768010472,10.931551803174445 L4.341620868226793,10.88623337477576 L4.5292517612268055,10.837448877081297 L4.715812707710095,10.78521306244994 L4.901247291926467,10.729541726913622 L5.085499438735965,10.670451705400653 L5.268513430565947,10.607960866644856 L5.450233924259969,10.542088107782075 L5.630605967813477,10.472853348635718 L5.809575016991237,10.400277525693038 L5.987086951821401,10.324382585773959 L6.1630880929613,10.245191479394396 L6.337525217930017,10.162728153826066 L6.51034557720278,10.077017545854849 L6.681496910162322,9.988085574239953 L6.850927460902452,9.895959131876111 L7.01858599387885,9.800666077661266 " />
			<path d="M7.018585993878938,9.800666077661214 L7.252102828772635,9.6608385192927 L7.481848240325645,9.514844857178257 L7.707683838492783,9.362773032440897 L7.9294735883542495,9.2047146474615 L8.147083892057982,9.040764910701002 L8.360383669294,8.87102257935035 L8.569244436252292,8.695589899842874 L8.773540383016648,8.514572546264857 L8.973148449347855,8.328079556701423 L9.16794839881058,8.13622326755606 L9.35782289119931,7.939119245883383 L9.54265755321969,7.736886219775853 L9.722341047382734,7.529646006846416 L9.896765139070357,7.317523440850131 L10.065824761731863,7.100646296488981 L10.229418080172106,6.8791452124451675 L10.387446551893209,6.653153612689263 L10.539814986452868,6.422807626110591 L10.68643160280353,6.18824600451827 L10.827208084577855,5.949610039062329 L10.96205963328719,5.707043475125181 L11.090905019401015,5.460692425734794 L11.213666631276585,5.210705283551665 L11.330270521909247,4.957232631482622 L11.44064645347539,4.700427151975318 L11.544727939641058,4.440443535048034 L11.642452285610844,4.177438385110192 L11.733760625892884,3.9115701266297185 L11.81859795975723,3.642998908704066 L11.896913184366236,3.3718865085923957 L11.96865912555699,3.09839623426698 L12.033792566257274,2.8226928260426165 L12.092274272517905,2.544942357343209 L12.144069017145807,2.2653121346653364 L12.18914560092354,1.9839705967990944 L12.227476871402565,1.7010872133668582 L12.259039739258842,1.4168323827411138 L12.283815192200983,1.1313773294028575 L12.301788306422551,0.8448940008023725 L12.3129482555916,0.5575549637844991 L12.317288317372045,0.2695333006408446 L12.314805877472953,-0.018997495148538657 L12.305502431223298,-0.3078636234211304 L12.289383582671224,-0.5968910820226616 L12.266459041208371,-0.8859057716194986 L12.236742615721317,-1.1747336005695848 L12.200252206273603,-1.463200589788727 L12.157009793323422,-1.7511329775491 L12.10704142448339,-2.0383573241467974 L12.05037719883046,-2.3247006163754453 L11.987051248775359,-2.609990371742865 L11.917101719502485,-2.894054742368095 L11.840570745992693,-3.1767226184961213 L11.757504427642747,-3.457823731567998 L11.66795280049677,-3.737188756784259 L11.571969807106406,-4.014649415099845 L11.469613264037836,-4.2900385745891105 L11.36094482704525,-4.563190351119838 L11.246029953931714,-4.833940208275649 L11.124937865119852,-5.102125056466587 L10.997741501956037,-5.367583351168176 L10.864517482773259,-5.630155190229815 L10.725346056739106,-5.889682410193845 L10.580311055516672,-6.146008681567304 L10.429499842767479,-6.398979602988978 L10.273003261526899,-6.648442794234993 L10.110915579483681,-6.894247988006971 L9.943334432196641,-7.136247120447437 L9.770360764282643,-7.374294420327934 L9.592098768611336,-7.608246496856176 L9.40865582354327,-7.837962426049295 L9.220142428249176,-8.063303835621177 L9.026672136149411,-8.284134988332752 L8.828361486513614,-8.500322863755043 L8.625329934261813,-8.711737238395674 L8.41769977800925,-8.918250764140653 L8.205596086398259,-9.119739044964112 L7.989146622761596,-9.316080711859813 L7.768481768162586,-9.50715749594931 L7.5437344428584545,-9.692854299722686 L7.315040026234119,-9.873059266369001 L7.082536275254718,-10.04766384715464 L6.846363241485968,-10.216562866809026 L6.606663186732334,-10.37965458687826 L6.363580497343837,-10.536840767008567 L6.117261597243112,-10.688026724122604 L5.86785485972513,-10.833121389453012 L5.615510518082643,-10.97203736339884 L5.360380575111299,-11.10469096817178 L5.102618711548829,-11.231002298200556 L4.8423801935035,-11.350895268263043 L4.579821778927636,-11.464297659317165 L4.315101623192488,-11.571141162002935 L4.048379183821346,-11.671361417789475 L3.7798151244382927,-11.764898057742174 L3.5095712179904437,-11.851694738886685 L3.2378102493019707,-11.931699178147825 L2.9646959170186156,-12.004863183842943 L2.690392735001746,-12.07114268471078 L2.415065933231342,-12.130497756458372 L2.1388813582776685,-12.182892645809922 L1.8620053734014725,-12.228295792043255 L1.5846047583429808,-12.266679846000814 L1.3068466088600241,-12.29802168656377 L1.028898236075809,-12.322302434579312 L0.7509270656969385,-12.339507464232753 L0.4731005371624374,-12.349626411857566 L0.195586002784494,-12.352653182178072 L-0.08144937305832056,-12.348585951981011 L-0.3578387146146189,-12.337427171213768 L-0.6334155352799107,-12.319183561508627 L-0.908013837881912,-12.293866112133896 L-1.181468214671023,-12.261490073374404 L-1.4536139469557785,-12.222074947345279 L-1.7242871043232397,-12.175644476244614 L-1.9933246433845286,-12.122226628052053 L-2.2605645059860797,-12.061853579681927 L-2.5258457168273996,-11.994561697601076 L-2.789008480426583,-11.920391515923066 L-3.0498942773751265,-11.839387711991932 L-3.3083459598240985,-11.75159907947024 L-3.5642078461441216,-11.657078498947593 L-3.8173258147021683,-11.555882906087342 L-4.067547396698673,-11.448073257330677 L-4.314721868009026,-11.333714493178752 L-4.558700339974153,-11.212875499074938 L-4.799335849085492,-11.08562906391083 L-5.036483445510249,-10.952051836180935 " />
			<path d="M-5.036483445510291,-10.95205183618091 L-5.209863023927821,-10.849042469180308 L-5.381191930762933,-10.742635657053475 L-5.55041350673869,-10.632866589034666 L-5.717471789482401,-10.519771566271993 L-5.882311532032638,-10.403387989822491 L-6.04487822110967,-10.283754348283395 L-6.205118095143268,-10.16091020506377 L-6.362978162051902,-10.034896185300731 L-6.518406216767473,-9.9057539624245 L-6.6713508584997765,-9.773526244376807 L-6.821761507734985,-9.638256759487186 L-6.969588422962535,-9.499990242011787 L-7.114782717124871,-9.358772417339576 L-7.25729637378463,-9.214649986870716 L-7.397082263003911,-9.067670612572188 L-7.534094156930356,-8.917882901215764 L-7.668286745084931,-8.765336388303517 L-7.799615649346297,-8.610081521686201 L-7.928037438626884,-8.452169644879897 L-8.053509643235744,-8.291652980086479 L-8.175990768923478,-8.12858461092349 L-8.295440310604583,-7.963018464869136 L-8.411818765752678,-7.7950092954281995 L-8.525087647464169,-7.624612664024818 L-8.635209497186057,-7.451884921628059 L-8.742147897103647,-7.276883190116365 L-8.845867482184103,-7.099665343387111 L-8.946333951871825,-6.920289988217407 L-9.043514081431802,-6.738816444882582 L-9.137375732937185,-6.55530472753868 L-9.227887865897474,-6.369815524375492 L-9.315020547523721,-6.182410177546682 L-9.398744962627475,-5.9931506628836635 L-9.479033423150074,-5.802099569399888 L-9.555859377319237,-5.609320078592371 L-9.629197418429856,-5.414875943547256 L-9.699023293246098,-5.218831467856397 L-9.76531391002208,-5.02125148435184 L-9.828047346138417,-4.822201333665288 L-9.887202855352136,-4.6217468426196735 L-9.942760874657544,-4.419954302459894 L-9.994703030755822,-4.216890446930004 L-10.043012146131153,-4.012622430204036 L-10.087672244731404,-3.807217804677804 L-10.128668557251498,-3.6007444986290174 L-10.165987526017666,-3.393270793753071 L-10.199616809471065,-3.1848653025819536 L-10.229545286249165,-2.975596945793784 L-10.255763058863646,-2.7655349294203933 L-10.278261456973546,-2.5547487219606095 L-10.297033040252574,-2.3433080314066337 L-10.312071600849675,-2.1312827821913247 L-10.323372165441983,-1.9187430920638402 L-10.330930996879534,-1.705759248901375 L-10.334745595421143,-1.4924016874646289 L-10.334814699561097,-1.2787409661046887 L-10.331138286446329,-1.0648477434290635 L-10.323717571883984,-0.8507927549345398 L-10.312555009939341,-0.6366467896146238 L-10.297654292124243,-0.4224806665492856 L-10.279020346176294,-0.20836521148475995 L-10.25665933442924,0.005628766588871126 L-10.230578651775051,0.21943049885453225 L-10.200786923218391,0.4329692800717585 L-10.1672940010243,0.6461744919592097 L-10.130110961460002,0.8589756265485012 L-10.089250101131908,1.0713023095015344 L-10.044724932919108,1.2830843233835876 L-9.996550181504567,1.4942516308845724 L-9.944741778505621,1.7047343979806975 L-9.889316857205305,1.9144630170289068 L-9.830293746886301,2.1233681297864626 L-9.767691966769368,2.3313806503480348 L-9.701532219558212,2.5384317879927396 L-9.631836384593045,2.7444530699335545 L-9.558627510614956,2.9493763639615937 L-9.481929808143592,3.1531339009777475 L-9.401768641470621,3.355658297404242 L-9.318170520271659,3.5568825774687154 L-9.23116309083936,3.756740195353414 L-9.140775126940698,3.955165057202194 L-9.047036520301326,4.152091542978084 L-8.949978270720228,4.34745452816416 L-8.84963247581797,4.541189405300507 L-8.746032320421833,4.733232105350206 L-8.639212065591465,4.923519118887284 L-8.529207037288568,5.111987517099566 L-8.416053614694434,5.29857497259954 L-8.299789218179194,5.483219780036311 L-8.180452296926713,5.665860876501855 L-8.05808231621927,5.84643786172481 L-7.932719744386194,6.024891018045127 L-7.804406039420806,6.20116133016299 L-7.6731836352700675,6.375190504655441 L-7.539095927801455,6.546920989254302 L-7.402187260451765,6.716295991878982 L-7.262502909562528,6.883259499417867 L-7.120089069406898,7.0477562962521265 L-6.9749928369129846,7.209731982515809 L-6.827262196088696,7.369132992086096 L-6.676946002153183,7.525906610297891 L-6.524093965380198,7.6800009913767955 L-6.368756634658675,7.831365175584764 L-6.210985380775965,7.9799491060727235 L-6.050832379429279,8.125703645434603 L-5.888350593970943,8.268580591957317 L-5.723593757893162,8.408532695561288 L-5.5566163570580995,8.545513673426283 L-5.387473611679158,8.679478225297352 L-5.216221458059372,8.81038204846583 L-5.042916530093038,8.938181852420467 L-4.867616140536586,9.062835373163802 L-4.690378262055014,9.184301387189038 L-4.511261508050043,9.302539725112883 L-4.330325113276366,9.41751128495975 L-4.147628914252463,9.529178045092952 L-3.963233329472372,9.637503076788645 L-3.7771993394250094,9.742450556448327 L-3.5895884664276334,9.843985777445871 L-3.4004627542801344,9.942075161605173 L-3.2098847477468366,10.036686270304607 L-3.0179174718726687,10.12778781520464 L-2.8246244111404786,10.215349668595024 L-2.6300694884764115,10.299342873358178 L-2.4343170441103035,10.379739652545437 L-2.23743181429806,10.456513418563024 L-2.0394789099130715,10.529638781964696 L-1.8405237949138296,10.599091559848116 " />
			<path d="M-2.8315750690980526,40.921296572115736 L-1.3181630652330327,41.028989701368054 " />
			<path d="M2.578561480830539,41.306277352799505 L2.831575069098052,41.324281587597625 " />
			<path d="M-2.8315750690980526,11.17478443910782 L-2.8315750690980526,40.921296572115736 " />
			<path d="M1.0382441920026182,-7.759031619515307 L1.0370529254616587,-7.810695168399562 L1.0334818595231736,-7.862409700305659 L1.0275391889671588,-7.914056542204625 L1.0192385508640682,-7.9655171764005726 L1.0085989932808541,-8.01667351250173 L0.9956449315700067,-8.067408158410895 L0.9804060923419025,-8.117604689713454 L0.9629174452490284,-8.167147916844806 L0.9432191227386236,-8.21592414942408 L0.9213563279578868,-8.263821457147571 L0.8973792310230873,-8.310729926643198 L0.8713428538906154,-8.356541913696569 L0.8433069440941725,-8.401152290269845 L0.813335837637837,-8.444458685746557 L0.7814983113596443,-8.48636172184876 L0.7478674251044636,-8.526765240687483 L0.7125203540683558,-8.56557652542308 L0.6755382116991415,-8.602706513029197 L0.6370058635595786,-8.638069998672055 L0.5970117325802973,-8.671585831236063 L0.5556475961493869,-8.703177099547082 L0.5130083755042695,-8.73277130886598 L0.4691919179091599,-8.760300547247498 L0.42429877211796113,-8.785701641382632 L0.3784319576378594,-8.808916301566935 L0.33169672832310465,-8.829891255462067 L0.28420033084147617,-8.848578370343638 L0.23605175856769586,-8.864934763554796 L0.18736150146854952,-8.878922900912132 L0.13824129255366896,-8.890510682838048 L0.08880385147381865,-8.899671518021947 L0.03916262585506787,-8.906384384441214 " />
			<path d="M0.9518886483292529,-7.335132906192603 L0.9719094680917043,-7.38495057537348 L0.9893688401871321,-7.435948838334491 L1.0042207507949183,-7.487993290189203 L1.016426058006247,-7.540946768841593 L1.0259525949818113,-7.594669716473978 L1.0327752547268625,-7.649020547348799 L1.0368760562601873,-7.703856020954965 L1.038244192002618,-7.759031619515304 " />
			<path d="M-6.51262265892552,-0.46343276780417453 L-6.513813925466479,-0.5150963166884293 L-6.517384991404965,-0.5668108485945275 L-6.5233276619609795,-0.6184576904934923 L-6.53162830006407,-0.6699183246894402 L-6.542267857647284,-0.7210746607905995 L-6.555221919358131,-0.771809306699764 L-6.570460758586236,-0.8220058380023224 L-6.58794940567911,-0.871549065133674 L-6.607647728189515,-0.9203252977129479 L-6.629510522970252,-0.9682226054364391 L-6.653487619905051,-1.0151310749320666 L-6.679523997037523,-1.060943061985438 L-6.707559906833966,-1.1055534385587145 L-6.737531013290301,-1.148859834035425 L-6.769368539568494,-1.1907628701376298 L-6.802999425823675,-1.2311663889763516 L-6.838346496859783,-1.2699776737119484 L-6.875328639228997,-1.3071076613180654 L-6.91386098736856,-1.3424711469609236 L-6.953855118347842,-1.3759869795249318 L-6.995219254778752,-1.4075782478359495 L-7.037858475423869,-1.4371724571548485 L-7.081674933018979,-1.464701695536367 L-7.126568078810178,-1.4901027896715004 L-7.17243489329028,-1.5133174498558026 L-7.219170122605035,-1.5342924037509356 L-7.266666520086663,-1.5529795186325057 L-7.314815092360443,-1.5693359118436638 L-7.363505349459589,-1.5833240492010006 L-7.4126255583744705,-1.5949118311269168 L-7.46206299945432,-1.6040726663108156 L-7.511704225073071,-1.6107855327300824 " />
			<path d="M-6.598978202598885,-0.039534054481471625 L-6.578957382836434,-0.08935172366234845 L-6.561498010741007,-0.14034998662335973 L-6.54664610013322,-0.19239443847807042 L-6.534440792921892,-0.24534791713046095 L-6.524914255946327,-0.2990708647628456 L-6.518091596201276,-0.3534216956376672 L-6.513990794667951,-0.40825716924383326 L-6.512622658925521,-0.46343276780417186 " />
			<path d="M1.9698671289521044,2.250222149943691 L2.0546683307036986,2.167357978872799 L2.1357446735884715,2.080564656578548 L2.2129491762517337,1.9899995285902858 L2.286141876504938,1.8958267782533111 L2.3551900850597702,1.798217129084827 L2.41996862607737,1.697347535273381 L2.4803600640966055,1.593400860882864 L2.53625491693,1.4865655483426425 L2.587551854141358,1.3770352768248046 L2.6341578807452812,1.2650086111278385 L2.675988505795543,1.1506886417032816 L2.712967895556696,1.0342826164779182 L2.745029010981229,0.9160015651389888 L2.772113729243046,0.7960599165635397 L2.7941729491069434,0.6746751100854635 L2.811166679943058,0.5520672013049519 L2.8230641142249184,0.42845846315498254 L2.8298436833796745,0.3040729829480605 L2.83149309688924,0.1791362561337075 L2.828009364571478,0.05387477750318197 L2.819398802001035,-0.07148436941749117 L2.8056770190599827,-0.19671392404179017 L2.7868688916390387,-0.3215868607179535 L2.763008516540664,-0.4458768002983334 L2.734139149665783,-0.5693584205367144 L2.7003131275962096,-0.6918078645696003 L2.6615917727149037,-0.8130031467409481 L2.6180452820361024,-0.9327245550346305 L2.5697525999468422,-1.0507550493850715 L2.516801275090565,-1.1668806551439708 L2.4592873016522963,-1.2808908509898036 L2.397314945333087,-1.3925789505768662 L2.3309965543292295,-1.5017424772319907 L2.26045235565891,-1.6081835310196413 L2.1858102372055375,-1.7117091475099526 L2.1072055158728697,-1.8121316475993128 L2.024780692272248,-1.9092689777493013 L1.938685192386664,-2.0029450400271744 L1.8490750966799794,-2.092990011349581 L1.7561128571424083,-2.1792406513507516 L1.6599670027852007,-2.2615405983170302 L1.5608118341184487,-2.339740652651279 L1.4588271071658756,-2.4136990473532385 L1.3541977075894622,-2.4832817050255165 L1.2471133155146643,-2.548362480939287 L1.1377680616638757,-2.6088233917190338 L1.0263601754215026,-2.6645548292317796 L0.9130916254686691,-2.71545575929304 L0.7981677536390523,-2.7614339048292678 L0.681796902659602,-2.802405913164742 L0.5641900384510119,-2.8382975071296355 L0.4455603676726735,-2.86904361971531 L0.32612295120544427,-2.894588512032731 L0.20609431427293537,-2.914885874360165 L0.0856920539081433,-2.9298989100969592 L-0.03486555552298898,-2.9396004024712163 L-0.1553599580259311,-2.943972763880425 L-0.2755727121924704,-2.9430080677756054 L-0.395285887207899,-2.9367080630311535 L-0.514282457932557,-2.9250841707743556 L-0.632346698341487,-2.908157463680295 L-0.749264572608969,-2.8859586277697113 L-0.8648241231289291,-2.8585279067790443 L-0.9788158547677765,-2.8259150292035393 " />
			<path d="M8.589111042930758,0.611193940147536 L8.5879197763898,0.5595303912632813 L8.584348710451314,0.5078158593571831 L8.578406039895299,0.4561690174582182 L8.570105401792208,0.40470838326227027 L8.559465844208995,0.3535520471611111 L8.546511782498147,0.3028174012519466 L8.531272943270043,0.25262086994938815 L8.51378429617717,0.20307764281803653 L8.494085973666765,0.1543014102387626 L8.472223178886027,0.10640410251527149 L8.448246081951229,0.059495633019644056 L8.422209704818757,0.013683645966272584 L8.394173795022313,-0.030926730607003905 L8.364202688565978,-0.07423312608371435 L8.332365162287784,-0.11613616218591927 L8.298734276032604,-0.156539681024641 L8.263387204996496,-0.1953509657602377 L8.226405062627283,-0.232480953366355 L8.18787271448772,-0.26784443900921295 L8.147878583508438,-0.3013602715732212 L8.106514447077528,-0.332951539884239 L8.06387522643241,-0.362545749203138 L8.0200587688373,-0.39007498758465653 L7.975165623046101,-0.4154760817197898 L7.929298808565999,-0.4386907419040921 L7.8825635792512445,-0.4596656957992251 L7.835067181769616,-0.47835281068079516 L7.786918609495836,-0.4947092038919533 L7.73822835239669,-0.50869734124929 L7.689108143481809,-0.5202851231752063 L7.6396707024019594,-0.529445958359105 L7.590029476783208,-0.5361588247783718 " />
			<path d="M8.502755499257393,1.035092653470239 L8.522776319019846,0.9852749842893621 L8.540235691115273,0.9342767213283508 L8.55508760172306,0.8822322694736402 L8.567292908934387,0.8292787908212496 L8.576819445909953,0.775555843188865 L8.583642105655004,0.7212050123140434 L8.587742907188328,0.6663695387078773 L8.589111042930758,0.6111939401475387 " />
			<path d="M1.03824419200262,7.906792791858667 L1.0370529254616605,7.855129242974412 L1.0334818595231754,7.8034147110683145 L1.0275391889671606,7.751767869169349 L1.01923855086407,7.700307234973401 L1.008598993280856,7.649150898872242 L0.9956449315700084,7.598416252963077 L0.9804060923419042,7.548219721660519 L0.9629174452490302,7.4986764945291675 L0.9432191227386254,7.449900261949893 L0.9213563279578886,7.402002954226402 L0.897379231023089,7.355094484730775 L0.8713428538906172,7.309282497677404 L0.8433069440941743,7.264672121104128 L0.8133358376378388,7.221365725627417 L0.7814983113596461,7.179462689525212 L0.7478674251044654,7.13905917068649 L0.7125203540683576,7.1002478859508935 L0.6755382116991433,7.063117898344776 L0.6370058635595803,7.027754412701919 L0.597011732580299,6.99423858013791 L0.5556475961493886,6.962647311826893 L0.5130083755042713,6.933053102507993 L0.4691919179091617,6.905523864126475 L0.42429877211796296,6.880122769991342 L0.37843195763786125,6.85690810980704 L0.3316967283231065,6.835933155911906 L0.284200330841478,6.817246041030336 L0.23605175856769767,6.800889647819178 L0.18736150146855132,6.786901510461841 L0.13824129255367076,6.7753137285359255 L0.08880385147382047,6.766152893352026 L0.03916262585506969,6.75944002693276 " />
			<path d="M0.9518886483292547,8.33069150518137 L0.9719094680917061,8.280873836000493 L0.9893688401871339,8.229875573039482 L1.0042207507949201,8.177831121184772 L1.0164260580062487,8.12487764253238 L1.0259525949818131,8.071154694899995 L1.0327752547268643,8.016803864025174 L1.036876056260189,7.961968390419009 L1.0382441920026197,7.90679279185867 " />
			<path d="M-1.840523794913734,9.013954870107941 L-1.510173370185628,8.822057243687993 " />
			<path d="M-1.510173370185628,8.822057243687993 L-1.510173370185628,40.153706066435944 " />
			<path d="M-2.8315750690980526,40.921296572115736 L-1.510173370185628,40.153706066435944 " />
			<path d="M-1.840523794913734,9.013954870107941 L-1.840523794913734,10.599091559848148 " />
			<path d="M2.0292954661869365,-8.33472449877515 L2.0269920792084144,-8.406590797965801 L2.0200921385882884,-8.47846603471168 L2.008626259924505,-8.55003129273919 L1.9926453182536221,-8.620969031175528 L1.9722202223141285,-8.690964493503378 L1.9474415999186028,-8.759707104161182 L1.9184193958307363,-8.826891846592185 L1.8852823839314694,-8.892220616627709 L1.8481775958388043,-8.955403545199605 L1.8072696685165535,-9.016160284512896 L1.7627401137667345,-9.074221251971757 L1.7147865128469362,-9.12932882633942 L1.6636216397862023,-9.181238490824565 L1.6094725172893527,-9.229719918022223 L1.5525794094187693,-9.274557991895211 L1.4931947555232035,-9.315553762261484 L1.4315820501438443,-9.352525327552291 L1.3680146738676002,-9.385308641924235 L1.3027746803151927,-9.413758243144018 L1.2361515446462912,-9.437747898016216 L1.1684408791346743,-9.457171162490233 L1.099943121512521,-9.47194185396122 L1.0309622019037465,-9.481994433669293 L0.9618041942613126,-9.487284297500358 L0.8927759582921967,-9.487787973898183 L0.8241837778959027,-9.48350322800961 L0.7563320021578768,-9.474449071600777 L0.689521694927854,-9.460665678700362 L0.6240492989750593,-9.442214207344161 L0.5602053206475213,-9.419176528211887 L0.49827304087176877,-9.391654861360323 L0.4385272582123143,-9.359771322664598 " />
			<path d="M0.4385272582123104,-9.359771322664596 L0.3960615522880291,-9.333571044120324 L0.35502922871874,-9.305142441562955 L0.3155291379659294,-9.274554001986099 L0.2776564392080201,-9.241879415619929 L0.2415023710935763,-9.207197398404956 L0.20715403193940818,-9.170591502358437 L0.17469416990309705,-9.132149914290247 L0.14420098363543643,-9.091965243353124 L0.11574793389303328,-9.05013429793912 L0.08940356656490966,-9.006757852459698 L0.06523134753945292,-8.96194040457134 L0.043289509809531945,-8.915789923431557 L0.02363091318411592,-8.86841758959172 L0.0063029169443653554,-8.819937527153375 L-0.008652734249025351,-8.770466528833287 L-0.02120001092237067,-8.720123774599557 L-0.03130868558715294,-8.66903054455664 L-0.038954405560688965,-8.617309926770945 L-0.04411875163387724,-8.565086520740913 L-0.04678928244468361,-8.512486137225896 L-0.046959564450474334,-8.459635495157034 L-0.04462918742698263,-8.40666191636024 L-0.0398037654565746,-8.353693018826773 L-0.032494923403434184,-8.300856409270317 L-0.02272026890824619,-8.248279375711235 L-0.010503349969848363,-8.196088580828576 L0.0041264017839609535,-8.144409756818584 L0.021133741999792344,-8.093367402494831 L0.04047769850539862,-8.043084483359666 L0.06211167001522677,-7.993682135369546 L0.0859835383969978,-7.945279373107917 L0.11203579422885157,-7.8979928030686475 L0.14020567534458062,-7.851936342740776 L0.1704253180331875,-7.807220946171302 L0.2026219205285068,-7.763954336667168 L0.23671791839503897,-7.722240747280376 L0.27263117138746595,-7.682180669701437 L0.31027516133369915,-7.64387061216609 L0.34955920056473444,-7.6074028669585 L0.3903886503891888,-7.57286528807107 L0.4326651490861976,-7.540341079556475 L0.47628684886741623,-7.50990859508181 L0.5211486612372618,-7.481641149167745 L0.5671425101603044,-7.455606840567423 L0.6141575924259034,-7.431868388210599 L0.6620806445828462,-7.4104829801082435 L0.7107962158009227,-7.391502135581615 L0.7601869460020899,-7.374971581147704 L0.8101338485911749,-7.360931140360047 L0.8605165971050078,-7.349414637870299 L0.911213815089412,-7.3404498179416855 L0.9621033685057115,-7.334058277610638 L1.0130626599623278,-7.330255414657648 L1.063968924062635,-7.329050390512661 L1.1146995231575538,-7.330446108184388 L1.1651322427903885,-7.33443920526671 L1.2151455861221594,-7.341020062039 L1.264619066628128,-7.350172824640879 L1.3134334983603912,-7.361875443265552 L1.361471283077267,-7.376099725279723 L1.408616693547759,-7.3928114031421215 L1.4547561523485926,-7.411970216957005 L1.4997785054821777,-7.433530011463781 L1.543575290156316,-7.457438847229063 " />
			<path d="M1.543575290156324,-7.457438847229067 L1.5979064973671209,-7.491531235466578 L1.6498220879180563,-7.5292740806574106 L1.6991154092820522,-7.570517145575041 L1.7455902470017577,-7.615096260198492 L1.7890616057307196,-7.662833975199076 L1.829356445616332,-7.713540268286047 L1.8663143710933672,-7.767013300599555 L1.899788269346303,-7.823040220140023 L1.9296448958990253,-7.88139800903585 L1.955765405000929,-7.941854371276879 L1.9780458226981934,-8.004168657379928 L1.9963974607071526,-8.068092822305742 L2.0107472694423096,-8.133372412814298 L2.021038128793755,-8.199747580328278 L2.0272290754965407,-8.266954115272943 L2.0292954661869365,-8.334724498775149 " />
			<path d="M-5.521571384741201,-1.0391256470640198 L-5.523874771719724,-1.1109919462546702 L-5.53077471233985,-1.1828671830005486 L-5.542240591003633,-1.254432441028058 L-5.558221532674516,-1.3253701794643964 L-5.57864662861401,-1.3953656417922458 L-5.6034252510095355,-1.4641082524500504 L-5.632447455097402,-1.5312929948810536 L-5.665584466996669,-1.5966217649165768 L-5.702689255089334,-1.6598046934884727 L-5.743597182411585,-1.720561432801765 L-5.788126737161404,-1.7786224002606261 L-5.836080338081202,-1.833729974628288 L-5.887245211141936,-1.8856396391134334 L-5.941394333638786,-1.934121066311092 L-5.998287441509369,-1.9789591401840787 L-6.057672095404935,-2.019954910550352 L-6.119284800784294,-2.0569264758411605 L-6.182852177060538,-2.089709790213104 L-6.248092170612946,-2.118159391432887 L-6.314715306281847,-2.142149046305085 L-6.382425971793464,-2.1615723107791025 L-6.450923729415617,-2.1763430022500883 L-6.519904649024392,-2.186395581958161 L-6.589062656666826,-2.1916854457892256 L-6.658090892635942,-2.1921891221870506 L-6.726683073032236,-2.187904376298478 L-6.794534848770262,-2.178850219889645 L-6.861345156000285,-2.1650668269892317 L-6.926817551953079,-2.1466153556330294 L-6.990661530280617,-2.123577676500756 L-7.052593810056369,-2.0960560096491903 L-7.1123395927158235,-2.0641724709534666 " />
			<path d="M-7.112339592715828,-2.064172470953464 L-7.15480529864011,-2.0379721924091934 L-7.195837622209398,-2.0095435898518237 L-7.235337712962209,-1.978955150274968 L-7.273210411720118,-1.946280563908798 L-7.309364479834562,-1.911598546693825 L-7.34371281898873,-1.874992650647306 L-7.376172681025041,-1.8365510625791148 L-7.406665867292702,-1.7963663916419932 L-7.435118917035105,-1.7545354462279898 L-7.461463284363228,-1.711159000748566 L-7.485635503388686,-1.666341552860209 L-7.507577341118607,-1.6201910717204266 L-7.527235937744022,-1.5728187378805893 L-7.544563933983773,-1.5243386754422434 L-7.5595195851771635,-1.4748676771221552 L-7.572066861850509,-1.4245249228884258 L-7.582175536515291,-1.373431692845508 L-7.589821256488827,-1.3217110750598138 L-7.594985602562016,-1.2694876690297807 L-7.597656133372822,-1.2168872855147648 L-7.597826415378613,-1.1640366434459029 L-7.595496038355121,-1.1110630646491086 L-7.590670616384713,-1.0580941671156407 L-7.583361774331572,-1.0052575575591853 L-7.573587119836384,-0.9526805240001038 L-7.561370200897986,-0.9004897291174445 L-7.546740449144178,-0.8488109051074533 L-7.529733108928346,-0.7977685507837 L-7.510389152422739,-0.7474856316485334 L-7.488755180912912,-0.6980832836584145 L-7.464883312531141,-0.6496805213967856 L-7.438831056699287,-0.602393951357516 L-7.410661175583558,-0.5563374910296445 L-7.380441532894951,-0.5116220944601707 L-7.348244930399631,-0.4683554849560364 L-7.314148932533099,-0.4266418955692439 L-7.278235679540672,-0.38658181799030567 L-7.240591689594439,-0.34827176045495833 L-7.201307650363404,-0.31180401524736856 L-7.160478200538949,-0.27726643635993886 L-7.118201701841941,-0.24474222784534327 L-7.074580002060722,-0.2143097433706781 L-7.029718189690876,-0.18604229745661327 L-6.983724340767834,-0.16000798885629197 L-6.936709258502235,-0.13626953649946816 L-6.8887862063452925,-0.11488412839711248 L-6.840070635127216,-0.09590328387048386 L-6.790679904926049,-0.07937272943657248 L-6.740733002336963,-0.0653322886489156 L-6.69035025382313,-0.05381578615916793 L-6.639653035838726,-0.044850966230553846 L-6.588763482422427,-0.03845942589950657 L-6.537804190965811,-0.034656562946516756 L-6.486897926865503,-0.03345153880152907 L-6.436167327770584,-0.03484725647325693 L-6.385734608137749,-0.038840353555578355 L-6.335721264805979,-0.04542121032786839 L-6.28624778430001,-0.054573972929747416 L-6.237433352567747,-0.06627659155442034 L-6.189395567850871,-0.08050087356859215 L-6.14225015738038,-0.09721255143099028 L-6.096110698579546,-0.1163713652458741 L-6.051088345445961,-0.13793115975265002 L-6.007291560771822,-0.16183999551793138 " />
			<path d="M-6.007291560771814,-0.16183999551793604 L-5.952960353561017,-0.1959323837554462 L-5.9010447630100815,-0.23367522894627912 L-5.851751441646086,-0.274918293863909 L-5.80527660392638,-0.3194974084873612 L-5.761805245197419,-0.3672351234879446 L-5.721510405311806,-0.41794141657491524 L-5.684552479834771,-0.4714144488884241 L-5.651078581581835,-0.5274413684288916 L-5.621221955029113,-0.5857991573247189 L-5.5951014459272095,-0.6462555195657473 L-5.572821028229945,-0.7085698056687968 L-5.554469390220985,-0.7724939705946099 L-5.540119581485829,-0.8377735611031657 L-5.529828722134383,-0.9041487286171473 L-5.523637775431598,-0.9713552635618115 L-5.521571384741202,-1.039125647064017 " />
			<path d="M-1.8405237949137336,-0.7771853870007926 L-1.8389528680254839,-0.6792433367660682 L-1.8342418304268553,-0.5811863892081078 L-1.8263959093821494,-0.48312334617164165 L-1.8154238105537832,-0.3851630162648032 L-1.801337708342683,-0.287414094127485 L-1.78415323237983,-0.18998503982614146 L-1.7638894501839668,-0.09298395850887198 L-1.7405688460046949,0.0034815195456895376 L-1.7142172958744424,0.09930435835257645 L-1.6848640388969849,0.1943782349852783 L-1.6525416448043746,0.28859765754933486 L-1.617285977818279,0.3818580822338359 L-1.5791361568558235,0.47405602931094715 L-1.5381345121240977,0.5650891979547529 L-1.4943265381514825,0.6548565797520166 L-1.4477608433079157,0.7432585707789064 L-1.3984890958701088,0.830197082119332 L-1.346565966691557,0.9155756487022585 L-1.2920490685409547,0.9992995363372433 L-1.234998892176328,1.0812758468294192 L-1.1754787392258121,1.1614136210573016 L-1.1135546519495492,1.2396239398990394 L-1.0492953399606395,1.315820022895132 L-0.9827721039864623,1.3899173245381196 L-0.9140587567549392,1.4618336280824415 L-0.8432315410935503,1.5314891367703352 L-0.770369045331966,1.598806562372566 L-0.6955521161021432,1.6637112109457681 L-0.6188637686326763,1.7261310657112028 L-0.5403890946369165,1.7859968669630035 L-0.4602151678970652,1.8432421889172326 L-0.37843094764901,1.8978035134164761 L-0.29512717987510073,1.9496203004082022 L-0.21039629661439418,1.998635055118681 L-0.12433231340208195,2.044793391847929 L-0.03703072495191129,2.08804409431489 L0.051411600802662494,2.128339172485902 L0.14089653019101633,2.1656339158233893 L0.23132477269233787,2.199886942895697 L0.3225959911062046,2.231060247293021 L0.41460891288456325,2.2591192397984927 L0.5072614425015257,2.2840327867676162 L0.6004507747363268,2.305773244673475 L0.6940735087437625,2.324316490779394 L0.7880257627854954,2.3396419499049923 L0.8822032894949656,2.351732617255957 L0.9765015915479871,2.3605750772921916 L1.070816037610693,2.366159518613405 L1.165041978436177,2.368479744845626 L1.2590748629810076,2.367533181516565 L1.3528103544127823,2.363320878912193 L1.4461444458799915,2.355847510911367 L1.5389735759157503,2.3451213697997932 L1.6311947433473346,2.331154357069094 L1.7227056215840348,2.313961970211168 L1.8134046721564905,2.2935632855225134 L1.9031912573815735,2.2699809369375887 L1.9919657520277507,2.243241090914688 L2.0796296538570562,2.213373417402222 L2.166085692921035,2.180411056917579 L2.2512379394893403,2.1443905837751402 L2.3349919104912678,2.1053519655042185 L2.4172546743521055,2.063338518501961 L2.4979349541079516,2.0183968599704323 " />
			<path d="M2.4979349541079734,2.01839685997042 L2.61375051571965,1.9469415548496807 L2.725656852726801,1.8694090024204915 L2.833384372961739,1.7859859853927036 L2.936673551392401,1.6968734771213305 L3.0352755553408843,1.602286157444131 L3.1289528439431615,1.5024518954990795 L3.217479740405828,1.397611200767649 L3.3006429756812654,1.288016643666408 L3.3782422022514558,1.1739322470827633 L3.4500904767827025,1.055632850320698 L3.516014710488493,0.9334034469888147 L3.5758560861155506,0.8075384984257713 L3.629470440548504,0.6783412243171242 L3.67672861211146,0.5461228722125452 L3.717516751729798,0.4112019677032146 L3.7517365972025574,0.27390354706577036 L3.77930570992469,0.13455837422144912 L3.8001576734888802,-0.00649785610317033 L3.8142422536884846,-0.14892532709416967 L3.821525519536139,-0.2923809184987594 L3.821989925006477,-0.4365190332320199 L3.8156343513060444,-0.5809924299505498 L3.8024741095685677,-0.7254530595872802 L3.782540903969094,-0.8695529038321599 L3.755882755345854,-1.0129448135387462 L3.722563885513859,-1.1552833450369084 L3.6826645625489247,-1.2962255923368846 L3.63628090741484,-1.4354320132198461 L3.583524662399551,-1.5725672472248444 L3.524522921918201,-1.7073009235615317 L3.4594178263315527,-1.8393084570023386 L3.388366219517406,-1.968271829836711 L3.3115392710199623,-2.093880358003634 L3.229122063687398,-2.215831439556745 L3.1413131477910725,-2.333831283658929 L3.0483240627005315,-2.4475956183501797 L2.9503788272666407,-2.5568503753836462 L2.8477134001405506,-2.6613323504800483 L2.740575111328636,-2.7607898374098387 L2.6292220663528507,-2.854983234375557 L2.5139225244519166,-2.9436856212335454 L2.39495425232132,-3.026683306164451 L2.272603854949015,-3.1037763404755365 L2.147166085158898,-3.1747790002945946 L2.018943133525446,-3.239520233995023 L1.888243900370147,-3.2978440742741757 L1.7553832515935728,-3.3496100138922538 L1.620681260135847,-3.3946933441665563 L1.4844624348928903,-3.4329854554056203 L1.347054938946072,-3.464394098559478 L1.2087897989886045,-3.4888436074556988 L1.0700001078532424,-3.5062750810858274 L0.9310202220624708,-3.5166465255030728 L0.7921849563343599,-3.5199329549894025 L0.6538287769845814,-3.516126452248326 L0.5162849961677587,-3.505236187478358 L0.3798849688992918,-3.487288396281204 L0.24495729479210426,-3.4623263164578972 L0.11182702643138676,-3.430410083845153 L-0.01918511370554543,-3.391616587442867 L-0.14776350589779375,-3.3460392841817814 L-0.27359839353643145,-3.2937879737775524 L-0.39638662935530156,-3.2349885342136178 L-0.5158324057393255,-3.169782618490117 " />
			<path d="M-0.5158324057393362,-3.169782618490111 L-0.5907076449866762,-3.12456155076766 L-0.6640084254051455,-3.0768033778423565 L-0.7356617845100735,-3.0265556374749183 L-0.8055963996349698,-2.973868345503721 L-0.873742658925023,-2.9187939460597954 L-0.9400327306276854,-2.8613872593647303 L-1.0044006306113726,-2.8017054271634567 L-1.0667822880450641,-2.739807855846225 L-1.1271156091734378,-2.675756157316381 L-1.1853405391240517,-2.6096140876628153 L-1.2413991216850508,-2.54144748369812 L-1.2952355569939038,-2.4713241974256217 L-1.34679625707974,-2.3993140285005303 L-1.3960298992039988,-2.3254886547524163 L-1.442887476946309,-2.2499215608381924 L-1.4873223489847334,-2.1726879650965962 L-1.5292902855218338,-2.0938647446770005 L-1.5687495123103399,-2.0135303590170666 L-1.6056607522346038,-1.9317647717454025 L-1.6399872644064404,-1.84864937108699 L-1.6716948807364544,-1.7642668888505724 L-1.700752039944435,-1.6787013180786725 L-1.7271298189749769,-1.5920378294421926 L-1.750801961787051,-1.5043626864628181 L-1.7717449054888674,-1.415763159647617 L-1.7899378037920228,-1.3263274396213032 L-1.8053625477615793,-1.2361445493426246 L-1.8180037838414216,-1.1453042554922632 L-1.827848929136954,-1.0538969791204416 L-1.8348881839399267,-0.9620137056431803 L-1.8391145414829113,-0.8697458942767987 L-1.8405237949137336,-0.7771853870008189 " />
			<path d="M9.580162317115077,0.03550106088769067 L9.577858930136555,-0.03636523830295977 L9.570958989516429,-0.10824047504883806 L9.559493110852646,-0.1798057330763476 L9.543512169181763,-0.25074347151268594 L9.52308707324227,-0.32073893384053537 L9.498308450846743,-0.38948154449834 L9.469286246758877,-0.4566662869293431 L9.43614923485961,-0.5219950569648664 L9.399044446766945,-0.5851779855367624 L9.358136519444695,-0.6459347248500548 L9.313606964694875,-0.7039956923089157 L9.265653363775076,-0.7591032666765776 L9.214488490714343,-0.8110129311617229 L9.160339368217494,-0.8594943583593816 L9.10344626034691,-0.9043324322323684 L9.044061606451343,-0.9453282025986415 L8.982448901071985,-0.98229976788945 L8.918881524795742,-1.0150830822613934 L8.853641531243333,-1.0435326834811764 L8.787018395574432,-1.0675223383533745 L8.719307730062816,-1.0869456028273923 L8.650809972440662,-1.1017162942983776 L8.581829052831887,-1.1117688740064506 L8.512671045189453,-1.117058737837515 L8.443642809220337,-1.1175624142353402 L8.375050628824043,-1.1132776683467673 L8.307198853086017,-1.1042235119379342 L8.240388545855994,-1.0904401190375212 L8.1749161499032,-1.071988647681319 L8.111072171575662,-1.0489509685490452 L8.049139891799909,-1.0214293016974798 L7.989394109140456,-0.9895457630017559 " />
			<path d="M7.989394109140451,-0.9895457630017537 L7.94692840321617,-0.9633454844574827 L7.905896079646881,-0.9349168819001134 L7.86639598889407,-0.9043284423232575 L7.828523290136161,-0.8716538559570874 L7.792369222021717,-0.8369718387421144 L7.758020882867549,-0.8003659426955955 L7.725561020831238,-0.7619243546274045 L7.695067834563577,-0.7217396836902827 L7.666614784821174,-0.6799087382762794 L7.640270417493051,-0.6365322927968554 L7.6160981984675935,-0.5917148449084986 L7.5941563607376725,-0.5455643637687162 L7.574497764112257,-0.49819202992887895 L7.557169767872506,-0.44971196749053305 L7.542214116679116,-0.4002409691704447 L7.5296668400057705,-0.3498982149367154 L7.519558165340988,-0.29880498489379753 L7.511912445367452,-0.24708436710810333 L7.5067480992942635,-0.19486096107807024 L7.504077568483457,-0.1422605775630542 L7.503907286477666,-0.08940993549419235 L7.5062376635011585,-0.03643635669739814 L7.511063085471566,0.01653254083606963 L7.518371927524707,0.06936915039252514 L7.528146582019895,0.12194618395160658 L7.540363500958293,0.17413697883426596 L7.5549932527121015,0.22581580284425712 L7.5720005929279335,0.27685815716801043 L7.59134454943354,0.32714107630317707 L7.612978520943368,0.37654342429329585 L7.636850389325138,0.4249461865549249 L7.662902645156993,0.4722327565941944 L7.6910725262727215,0.518289216922066 L7.7212921689613285,0.5630046134915397 L7.753488771456648,0.606271222995674 L7.78758476932318,0.6479848123824665 L7.823498022315607,0.6880448899614048 L7.8611420122618405,0.7263549474967521 L7.900426051492875,0.7628226927043419 L7.94125550131733,0.7973602715917716 L7.983532000014338,0.8298844801063672 L8.027153699795557,0.8603169645810324 L8.072015512165402,0.8885844104950972 L8.118009361088445,0.9146187190954185 L8.165024443354044,0.9383571714522423 L8.212947495510987,0.959742579554598 L8.261663066729064,0.9787234240812266 L8.311053796930231,0.995253978515138 L8.361000699519316,1.0092944193027948 L8.411383448033149,1.0208109217925425 L8.462080666017552,1.0297757417211566 L8.512970219433852,1.0361672820522039 L8.56392951089047,1.0399701450051937 L8.614835774990777,1.0411751691501814 L8.665566374085694,1.0397794514784535 L8.71599909371853,1.035786354396132 L8.7660124370503,1.029205497623842 L8.81548591755627,1.020052735021963 L8.864300349288532,1.00835011639729 L8.912338134005408,0.9941258343831183 L8.9594835444759,0.9774141565207202 L9.005623003276733,0.9582553427058363 L9.05064535641032,0.9366955481990604 L9.094442141084457,0.9127867124337791 " />
			<path d="M9.094442141084464,0.9127867124337744 L9.148773348295261,0.8786943241962643 L9.200688938846197,0.8409514790054313 L9.249982260210192,0.7997084140878015 L9.296457097929899,0.7551292994643493 L9.33992845665886,0.7073915844637658 L9.380223296544473,0.6566852913767952 L9.417181222021508,0.6032122590632863 L9.450655120274444,0.5471853395228189 L9.480511746827167,0.48882755062699157 L9.50663225592907,0.4283711883859631 L9.528912673626335,0.36605690228291365 L9.547264311635294,0.30213273735710056 L9.56161412037045,0.23685314684854475 L9.571904979721896,0.17047797933456307 L9.578095926424682,0.10327144438989899 L9.580162317115077,0.035501060887693364 " />
			<path d="M2.0292954661869382,7.331099912598821 L2.026992079208416,7.259233613408171 L2.02009213858829,7.187358376662293 L2.008626259924507,7.115793118634784 L1.992645318253624,7.044855380198445 L1.9722202223141303,6.974859917870596 L1.9474415999186045,6.906117307212791 L1.918419395830738,6.838932564781788 L1.8852823839314712,6.773603794746265 L1.848177595838806,6.710420866174369 L1.8072696685165552,6.649664126861076 L1.7627401137667362,6.591603159402215 L1.714786512846938,6.536495585034554 L1.663621639786204,6.484585920549408 L1.6094725172893545,6.436104493351749 L1.552579409418771,6.391266419478763 L1.4931947555232052,6.350270649112489 L1.431582050143846,6.313299083821681 L1.368014673867602,6.280515769449738 L1.3027746803151945,6.2520661682299545 L1.236151544646293,6.228076513357756 L1.168440879134676,6.2086532488837385 L1.0999431215125228,6.193882557412754 L1.0309622019037483,6.18382997770468 L0.9618041942613144,6.178540113873616 L0.8927759582921985,6.178036437475791 L0.8241837778959045,6.182321183364364 L0.7563320021578785,6.191375339773197 L0.6895216949278558,6.20515873267361 L0.6240492989750611,6.2236102040298125 L0.560205320647523,6.246647883162086 L0.49827304087177055,6.274169550013651 L0.4385272582123161,6.306053088709375 " />
			<path d="M0.4385272582123122,6.306053088709377 L0.39606155228803086,6.3322533672536485 L0.35502922871874176,6.360681969811018 L0.3155291379659312,6.391270409387873 L0.27765643920802185,6.423944995754043 L0.24150237109357808,6.458627012969017 L0.20715403193940995,6.495232909015535 L0.17469416990309883,6.533674497083727 L0.1442009836354382,6.5738591680208485 L0.11574793389303506,6.615690113434852 L0.08940356656491144,6.659066558914276 L0.0652313475394547,6.703884006802633 L0.04328950980953372,6.750034487942415 L0.023630913184117697,6.797406821782252 L0.006302916944367132,6.845886884220598 L-0.008652734249023575,6.8953578825406865 L-0.021200010922368895,6.945700636774416 L-0.031308685587151164,6.996793866817334 L-0.03895440556068719,7.048514484603028 L-0.044118751633875464,7.100737890633061 L-0.046789282444681835,7.153338274148076 L-0.04695956445047256,7.206188916216939 L-0.044629187426980854,7.259162495013733 L-0.039803765456572826,7.312131392547201 L-0.03249492340343241,7.364968002103656 L-0.022720268908244412,7.417545035662737 L-0.010503349969846587,7.469735830545397 L0.00412640178396273,7.521414654555388 L0.02113374199979412,7.572457008879141 L0.040477698505400395,7.622739928014308 L0.06211167001522855,7.672142276004426 L0.08598353839699957,7.720545038266056 L0.11203579422885335,7.767831608305325 L0.1402056753445824,7.813888068633197 L0.17042531803318928,7.858603465202671 L0.20262192052850858,7.901870074706805 L0.23671791839504075,7.943583664093597 L0.27263117138746773,7.983643741672536 L0.3102751613337009,8.021953799207884 L0.3495592005647362,8.058421544415474 L0.3903886503891906,8.092959123302903 L0.43266514908619935,8.125483331817499 L0.476286848867418,8.155915816292163 L0.5211486612372636,8.184183262206227 L0.5671425101603061,8.210217570806549 L0.6141575924259052,8.233956023163373 L0.662080644582848,8.255341431265729 L0.7107962158009244,8.274322275792358 L0.7601869460020917,8.29085283022627 L0.8101338485911767,8.304893271013926 L0.8605165971050096,8.316409773503674 L0.9112138150894138,8.325374593432288 L0.9621033685057133,8.331766133763335 L1.0130626599623296,8.335568996716324 L1.0639689240626369,8.336774020861313 L1.1146995231575556,8.335378303189584 L1.1651322427903903,8.331385206107264 L1.2151455861221612,8.324804349334974 L1.2646190666281298,8.315651586733093 L1.313433498360393,8.303948968108422 L1.3614712830772688,8.28972468609425 L1.4086166935477609,8.273013008231851 L1.4547561523485943,8.253854194416967 L1.4997785054821795,8.232294399910192 L1.5435752901563178,8.20838556414491 " />
			<path d="M1.5435752901563258,8.208385564144905 L1.5979064973671226,8.174293175907396 L1.649822087918058,8.136550330716563 L1.699115409282054,8.095307265798933 L1.7455902470017595,8.05072815117548 L1.7890616057307214,8.002990436174898 L1.8293564456163338,7.952284143087926 L1.866314371093369,7.898811110774417 L1.8997882693463048,7.8427841912339495 L1.929644895899027,7.784426402338123 L1.9557654050009308,7.723970040097094 L1.9780458226981952,7.661655753994045 L1.9963974607071544,7.597731589068232 L2.0107472694423114,7.532451998559676 L2.021038128793757,7.466076831045694 L2.0272290754965425,7.39887029610103 L2.0292954661869382,7.331099912598824 " />
			<path d="M4.152976768010477,9.225042259169886 L4.152976768010477,40.55669108191783 " />
			<path d="M2.831575069098052,41.324281587597625 L4.152976768010476,40.55669108191783 " />
			<path d="M-1.3392991505437877,40.738993827016785 L-1.3357470324126721,40.714769955468974 L-1.3251032955625432,40.690632129974496 L-1.3074057478040486,40.666666090940936 L-1.282717252917458,40.64295696857007 L-1.251125507353088,40.61958898046535 L-1.2127427287231511,40.59664513248101 L-1.1677052571915412,40.574206923875465 L-1.116173071177466,40.552354057816345 L-1.0583292190932014,40.53116415826538 L-0.9943791691345097,40.51071249424898 L-0.9245500794333351,40.4910717124937 L-0.8490899911652837,40.472311579376516 L-0.7682669474780685,40.454498733106426 L-0.6823680413705836,40.43769644701762 L-0.49658008037188595,40.40735848857143 L-0.29436352712078884,40.38172837729646 L-0.07858901848205191,40.361169954535534 L0.14768034191103996,40.3459750646768 L0.38123246703164926,40.33635941217315 L0.6187518847810007,40.332459499433085 L0.856866803949493,40.334330689052294 L1.0921969796757414,40.3419464178943 L1.3214016989124082,40.35519857417689 " />
			<path d="M-1.510173370185628,40.153706066435944 L1.3214016989124244,40.35519857417689 " />
			<path d="M1.3214016989124244,40.35519857417689 L4.152976768010476,40.55669108191783 " />
			<path d="M2.6607008494562123,40.738993827016785 L2.659213674527699,40.723315740664674 L2.6547543614314275,40.70766097036952 L2.6473295419460325,40.692052797513206 L2.636950258076902,40.67651443417908 L2.623631945634782,40.66106898863154 L2.6073944112800262,40.64573943094996 L2.5662625745298393,40.6155189638703 L2.513799337801014,40.58603273858571 L2.4503166731024995,40.557456094581724 L2.3761920793397073,40.52995896252972 L2.29186633752179,40.503704853796144 L2.197840889662648,40.47884988812419 L2.0946748569620017,40.45554186526958 L1.9829817149978695,40.4339193861111 L1.8634256457013918,40.41411102846214 L1.7367175878069312,40.39623458248424 L1.6036110092633988,40.380396350249335 L1.4648974267461252,40.36669051361575 L1.3214016989124424,40.35519857417689 " />
			<path d="M-1.510173370185628,8.822057243687993 L4.152976768010476,9.225042259169886 " />
			<path d="M7.018585993878938,9.800666077661214 L6.02753471969462,10.37635895692106 " />
			<path d="M-5.036483445510301,-10.952051836180905 L-6.02753471969462,-10.37635895692106 " />
			<path d="M2.6607008494562123,40.738993827016785 L2.6567543063127554,40.86457486607541 L2.6449302520851683,40.98966029414539 L2.62527535091359,41.113756456188234 L2.5978671717134754,41.23637360134649 L2.562813882046521,41.35702781576668 L2.520253821232717,41.47524293238614 L2.4703549543882537,41.59055241014693 L2.413314209543943,41.702501175220206 L2.3493567004602465,41.810647416974774 L2.278734838206112,41.914564331601724 L2.201727335007796,42.01384180651416 L2.1186381042990416,42.10808803887416 L2.029795061313597,42.1969310818596 L1.9355488289535998,42.280020312568354 L1.836271354041168,42.35702781576667 L1.732354439414216,42.427649678020806 L1.6242081976596543,42.491607187104506 L1.51225943258637,42.54864793194882 L1.3969499548255815,42.59854679879328 L1.2787348382061214,42.641106859607085 L1.1580806237859371,42.67616014927404 L1.035463478627678,42.70356832847416 L0.9113673165848379,42.72322322964574 L0.786281888514857,42.73504728387333 L0.660700849456231,42.738993827016785 L0.5351198103976049,42.73504728387333 L0.4100343823276238,42.72322322964574 L0.2859382202847835,42.70356832847417 L0.1633210751265236,42.676160149274054 L0.04266686070633863,42.6411068596071 L-0.07554825591312231,42.59854679879329 L-0.19085773367391146,42.548647931948835 L-0.3028064987471969,42.49160718710452 L-0.4109527405017598,42.42764967802083 L-0.5148696551287132,42.35702781576669 L-0.6141471300411466,42.28002031256838 L-0.708393362401145,42.196931081859624 L-0.7972364053865918,42.108088038874186 L-0.8803256360953479,42.013841806514186 L-0.9573331392936654,41.91456433160175 L-1.0279550015478018,41.8106474169748 L-1.0919125106315004,41.70250117522024 L-1.1489532554758135,41.590552410146955 L-1.1988521223202788,41.47524293238617 L-1.2414121831340847,41.35702781576671 L-1.2764654728010418,41.23637360134653 L-1.3038736520011587,41.11375645618827 L-1.3235285531727392,40.98966029414543 L-1.3353526074003286,40.86457486607545 L-1.3392991505437877,40.73899382701682 " />

       </g>
    </g>
    <g transform="translate(20,210.0)" stroke="rgb(0,0,255)">
        <line x1="30" y1="-30" x2="75" y2="-33" stroke-width="3" stroke="#000000" />
         <text x="80" y="-30" style="stroke:#000000">X </text>

        <line x1="30" y1="-30" x2="30" y2="-75" stroke-width="3" stroke="#000000" />
         <text x="25" y="-85" style="stroke:#000000">Y </text>

        <line x1="30" y1="-30" x2="58" y2="-15" stroke-width="3" stroke="#000000" />
         <text x="65" y="-5" style="stroke:#000000">Z </text>
        <!--
            <line x1="0" y1="0" x2="3.2672818374174524" y2="0" stroke-width="3" />
            <text x="0" y="20" style="stroke:#000000">1  mm </text>
        -->
    </g>
</svg>
