<?xml version='1.0' encoding='utf-8'?>
<svg width="83.5286mm" height="102.858342mm" viewBox="-41.7643 -36.995553 83.5286 102.858342" version="1.1" xmlns="http://www.w3.org/2000/svg">
  <g transform="scale(1,-1)" stroke-linecap="round">
    <g fill="none" stroke="rgb(0,0,0)" stroke-width="0.09">
      <path d="M -41.7193,-16.742822 L -41.7193,-19.629545 L -14.849242,2.30987 L -14.849242,5.196594 L -41.7193,-16.742822" />
      <path d="M -41.7193,-16.742822 L -33.127953,-23.757661 L -33.127953,-26.644385 L -41.7193,-19.629545 L -41.7193,-16.742822" />
      <path d="M -6.257895,-4.704969 L -14.849242,2.30987 L -41.7193,-19.629545 L -33.127953,-26.644385 L -6.257895,-4.704969" />
      <path d="M -6.257895,-1.818246 L -14.849242,5.196594 L -14.849242,2.30987 L -6.257895,-4.704969 L -6.257895,-1.818246" />
      <path d="M -14.849242,5.196594 L -6.257895,-1.818246 L -33.127953,-23.757661 L -41.7193,-16.742822 L -14.849242,5.196594" />
      <path d="M -6.257895,-4.704969 L -33.127953,-26.644385 L -33.127953,-23.757661 L -6.257895,-1.818246 L -6.257895,-4.704969" />
      <path d="M -14.955308,-38.595635 L 11.313708,-60.0443 L 11.313708,-31.177064 L -41.7193,12.124414 L -41.7193,15.011138 L 14.849242,-31.177106 L 14.849242,-65.817789 L -14.955308,-41.482358 L -14.955308,-38.595635" />
      <path d="M 11.914749,-16.656219 L 38.183766,-38.104885 L 11.313708,-60.0443 L -14.955308,-38.595635 L 11.914749,-16.656219 M 1.131371,-37.956006 A 1.6,1.6 -45.00000000000001 0,1 -1.131371,-36.108476 A 1.6,1.6 -45.00000000000001 0,1 1.131371,-37.956006 M 11.131371,-29.791001 A 1.6,1.6 -45.00000000000001 0,1 8.868629,-27.943471 A 1.6,1.6 -45.00000000000001 0,1 11.131371,-29.791001" />
      <path d="M 11.313708,-31.177064 L 11.313708,-60.0443 L 38.183766,-38.104885 L 38.183766,-9.237649 L 11.313708,-31.177064" />
      <path d="M 38.183766,-9.237649 L -14.849242,34.06383 L -41.7193,12.124414 L 11.313708,-31.177064 L 38.183766,-9.237649" />
      <path d="M -41.7193,15.011138 L -41.7193,12.124414 L -14.849242,34.06383 L -14.849242,36.950553 L -41.7193,15.011138" />
      <path d="M -41.7193,15.011138 L -14.849242,36.950553 L 41.7193,-9.23769 L 14.849242,-31.177106 L -41.7193,15.011138" />
      <path d="M 14.849242,-65.817789 L 14.849242,-31.177106 L 41.7193,-9.23769 L 41.7193,-43.878373 L 14.849242,-65.817789" />
      <path d="M 41.7193,-43.878373 L 11.914749,-19.542942 L -14.955308,-41.482358 L 14.849242,-65.817789 L 41.7193,-43.878373 M 1.131371,-40.842729 A 1.6,1.6 -45.00000000000001 0,0 -1.131371,-38.9952 A 1.6,1.6 -45.00000000000001 0,0 1.131371,-40.842729 M 11.131371,-32.677724 A 1.6,1.6 -45.00000000000001 0,0 8.868629,-30.830195 A 1.6,1.6 -45.00000000000001 0,0 11.131371,-32.677724" />
      <path d="M -14.955308,-41.482358 L 11.914749,-19.542942 L 11.914749,-16.656219 L -14.955308,-38.595635 L -14.955308,-41.482358" />
      <path d="M 38.183766,-38.104885 L 11.914749,-16.656219 L 11.914749,-19.542942 L 41.7193,-43.878373 L 41.7193,-9.23769 L -14.849242,36.950553 L -14.849242,34.06383 L 38.183766,-9.237649 L 38.183766,-38.104885" />
      <path d="M 1.131371,-40.842729 A 1.6,1.6 -45.00000000000001 0,1 -1.131371,-38.9952 A 1.6,1.6 -45.00000000000001 0,1 1.131371,-40.842729 L 1.131371,-37.956006 A 1.6,1.6 -45.00000000000001 0,0 -1.131371,-36.108476 A 1.6,1.6 -45.00000000000001 0,0 1.131371,-37.956006 L 1.131371,-40.842729" />
      <path d="M 11.131371,-32.677724 A 1.6,1.6 -45.00000000000001 0,1 8.868629,-30.830195 A 1.6,1.6 -45.00000000000001 0,1 11.131371,-32.677724 L 11.131371,-29.791001 A 1.6,1.6 -45.00000000000001 0,0 8.868629,-27.943471 A 1.6,1.6 -45.00000000000001 0,0 11.131371,-29.791001 L 11.131371,-32.677724" />
    </g>
  </g>
</svg>