<?xml version='1.0' encoding='utf-8'?>
<svg width="43.909805mm" height="37.600927mm" viewBox="-12.045 -26.025887 43.909805 37.600927" version="1.1" xmlns="http://www.w3.org/2000/svg">
  <g transform="scale(1,-1)" stroke-linecap="round">
    <g fill="none" stroke="rgb(0,0,0)" stroke-width="0.09">
      <path d="M 6.094518,8.440295 A 12.0,12.0 59.477512185928205 1,1 10.337159,4.976177 L 10.337159,3.244143 A 12.0,12.0 30.52248781407007 1,0 6.094518,6.708261 L 6.094518,8.440295" />
      <path d="M 6.094518,8.440295 L 27.577164,25.980887 L 28.284271,25.403534 A 2.0,2.0 -45.00000000000001 0,0 31.112698,23.094122 L 31.819805,22.516769 L 10.337159,4.976177 A 12.0,12.0 59.477512185928205 1,0 6.094518,8.440295 M -4.879037,-5.253913 A 1.1,1.1 -45.00000000000001 0,1 -6.434672,-3.983736 A 1.1,1.1 -45.00000000000001 0,1 -4.879037,-5.253913 M 2.12132,-1.732059 A 3.0,3.0 -45.00000000000001 0,1 -2.12132,1.732059 A 3.0,3.0 -45.00000000000001 0,1 2.12132,-1.732059 M 6.434672,-5.253913 A 1.1,1.1 -45.00000000000001 0,1 4.879037,-3.983736 A 1.1,1.1 -45.00000000000001 0,1 6.434672,-5.253913 M -4.879037,3.983736 A 1.1,1.1 -45.00000000000001 0,1 -6.434672,5.253913 A 1.1,1.1 -45.00000000000001 0,1 -4.879037,3.983736 M 6.434672,3.983736 A 1.1,1.1 -45.00000000000001 0,1 4.879037,5.253913 A 1.1,1.1 -45.00000000000001 0,1 6.434672,3.983736" />
      <path d="M 9.192388,1.732092 L 9.192388,2.309437 L 10.337159,3.244143 L 10.337159,4.976177 L 31.819805,22.516769 L 31.819805,20.20739 L 9.192388,1.732092" />
      <path d="M 4.949747,5.773555 L 6.094518,6.708261 A 12.0,12.0 30.52248781407007 1,1 10.337159,3.244143 L 9.192388,2.309437 L 4.949747,5.773555 M -4.879037,-6.985947 A 1.1,1.1 -45.00000000000001 0,0 -6.434672,-5.71577 A 1.1,1.1 -45.00000000000001 0,0 -4.879037,-6.985947 M 2.12132,-3.464093 A 3.0,3.0 -45.00000000000001 0,0 -2.12132,2.5e-05 A 3.0,3.0 -45.00000000000001 0,0 2.12132,-3.464093 M 6.434672,-6.985947 A 1.1,1.1 -45.00000000000001 0,0 4.879037,-5.71577 A 1.1,1.1 -45.00000000000001 0,0 6.434672,-6.985947 M -4.879037,2.251702 A 1.1,1.1 -45.00000000000001 0,0 -6.434672,3.521879 A 1.1,1.1 -45.00000000000001 0,0 -4.879037,2.251702 M 6.434672,2.251702 A 1.1,1.1 -45.00000000000001 0,0 4.879037,3.521879 A 1.1,1.1 -45.00000000000001 0,0 6.434672,2.251702" />
      <path d="M 4.949747,5.773555 L 4.949747,5.196211 L 27.577164,23.671508 L 27.577164,25.980887 L 6.094518,8.440295 L 6.094518,6.708261 L 4.949747,5.773555" />
      <path d="M 28.284271,23.094155 L 28.284271,25.403534 L 27.577164,25.980887 L 27.577164,23.671508 L 28.284271,23.094155" />
      <path d="M 31.819805,22.516769 L 31.112698,23.094122 L 31.112698,20.784743 L 31.819805,20.20739 L 31.819805,22.516769" />
      <path d="M -4.879037,-6.985947 A 1.1,1.1 -45.00000000000001 0,1 -6.434672,-5.71577 A 1.1,1.1 -45.00000000000001 0,1 -4.879037,-6.985947 L -4.879037,-5.253913 A 1.1,1.1 -45.00000000000001 0,0 -6.434672,-3.983736 A 1.1,1.1 -45.00000000000001 0,0 -4.879037,-5.253913 L -4.879037,-6.985947" />
      <path d="M 2.12132,-3.464093 A 3.0,3.0 -45.00000000000001 0,1 -2.12132,2.5e-05 A 3.0,3.0 -45.00000000000001 0,1 2.12132,-3.464093 L 2.12132,-1.732059 A 3.0,3.0 -45.00000000000001 0,0 -2.12132,1.732059 A 3.0,3.0 -45.00000000000001 0,0 2.12132,-1.732059 L 2.12132,-3.464093" />
      <path d="M 6.434672,-6.985947 A 1.1,1.1 -45.00000000000001 0,1 4.879037,-5.71577 A 1.1,1.1 -45.00000000000001 0,1 6.434672,-6.985947 L 6.434672,-5.253913 A 1.1,1.1 -45.00000000000001 0,0 4.879037,-3.983736 A 1.1,1.1 -45.00000000000001 0,0 6.434672,-5.253913 L 6.434672,-6.985947" />
      <path d="M -4.879037,2.251702 A 1.1,1.1 -45.00000000000001 0,1 -6.434672,3.521879 A 1.1,1.1 -45.00000000000001 0,1 -4.879037,2.251702 L -4.879037,3.983736 A 1.1,1.1 -45.00000000000001 0,0 -6.434672,5.253913 A 1.1,1.1 -45.00000000000001 0,0 -4.879037,3.983736 L -4.879037,2.251702" />
      <path d="M 6.434672,2.251702 A 1.1,1.1 -45.00000000000001 0,1 4.879037,3.521879 A 1.1,1.1 -45.00000000000001 0,1 6.434672,2.251702 L 6.434672,3.983736 A 1.1,1.1 -45.00000000000001 0,0 4.879037,5.253913 A 1.1,1.1 -45.00000000000001 0,0 6.434672,3.983736 L 6.434672,2.251702" />
      <path d="M 9.192388,2.309437 L 9.192388,1.732092 L 4.949747,5.196211 L 4.949747,5.773555 L 9.192388,2.309437" />
      <path d="M 28.284271,23.094155 L 27.577164,23.671508 L 4.949747,5.196211 L 9.192388,1.732092 L 31.819805,20.20739 L 31.112698,20.784743 A 2.0,2.0 -45.00000000000001 0,1 28.284271,23.094155" />
      <path d="M 28.284271,23.094155 A 2.0,2.0 -45.00000000000001 0,0 31.112698,20.784743 L 31.112698,23.094122 A 2.0,2.0 -45.00000000000001 0,1 28.284271,25.403534 L 28.284271,23.094155" />
    </g>
  </g>
</svg>