<?xml version='1.0' encoding='utf-8'?>
<svg width="51.001688mm" height="43.968798mm" viewBox="-25.500844 -21.984399 51.001688 43.968798" version="1.1" xmlns="http://www.w3.org/2000/svg">
  <defs>
    <style>
      .cq-bg { fill: #ffffff; }
      @media (prefers-color-scheme: dark) {
        .cq-bg { fill: #0d1117; }
        /* CadQuery SVG selectors */
        g[stroke="rgb(0,0,0)"] { stroke: #c9d1d9 !important; }
        g[stroke="rgb(160,160,160)"] { stroke: #484f58 !important; }
        /* OpenSCAD SVG selectors */
        path { stroke: #c9d1d9 !important; }
        polygon { stroke: #c9d1d9 !important; fill: #161b22 !important; }
        /* Common selectors */
        line { stroke: #c9d1d9 !important; }
        text { stroke: #c9d1d9 !important; fill: #c9d1d9 !important; }
      }
    </style>
  </defs>
  <rect width="51.001688mm" height="43.968798mm" class="cq-bg"/>
  <g transform="scale(1,-1)" stroke-linecap="round">
    <g fill="none" stroke="rgb(0,0,0)" stroke-width="0.09">
      <path d="M -25.455844,1.154689 L -25.455844,-1.154689 L 0.0,19.63002 L 0.0,21.939399 L -25.455844,1.154689" />
      <path d="M -25.455844,1.154689 L -0.0,-19.63002 L -0.0,-21.939399 L -25.455844,-1.154689 L -25.455844,1.154689" />
      <path d="M 0.0,19.63002 L -25.455844,-1.154689 L -0.0,-21.939399 L 25.455844,-1.154689 L 0.0,19.63002 M 9.192388,-8.660279 A 13.0,13.0 -45.00000000000001 0,0 -9.192388,6.3509 A 13.0,13.0 -45.00000000000001 0,0 9.192388,-8.660279" />
      <path d="M 25.455844,1.154689 L 0.0,21.939399 L 0.0,19.63002 L 25.455844,-1.154689 L 25.455844,1.154689" />
      <path d="M -25.455844,1.154689 L 0.0,21.939399 L 25.455844,1.154689 L -0.0,-19.63002 L -25.455844,1.154689 M 9.192388,-6.3509 A 13.0,13.0 -45.00000000000001 0,1 -9.192388,8.660279 A 13.0,13.0 -45.00000000000001 0,1 9.192388,-6.3509" />
      <path d="M -0.0,-21.939399 L -0.0,-19.63002 L 25.455844,1.154689 L 25.455844,-1.154689 L -0.0,-21.939399" />
      <path d="M 9.192388,-8.660279 L 9.192388,-17.32045 A 13.0,13.0 -45.00000000000001 0,0 -9.192388,-2.309271 A 13.0,13.0 -45.00000000000001 0,0 9.192388,-17.32045 L 9.192388,-8.660279 A 13.0,13.0 -45.00000000000001 0,1 -9.192388,6.3509 A 13.0,13.0 -45.00000000000001 0,1 9.192388,-8.660279" />
      <path d="M 9.192388,-6.3509 A 13.0,13.0 -45.00000000000001 0,0 -9.192388,8.660279 A 13.0,13.0 -45.00000000000001 0,0 9.192388,-6.3509 L 9.192388,-0.000108 A 13.0,13.0 -45.00000000000001 0,1 -9.192388,15.011071 A 13.0,13.0 -45.00000000000001 0,1 9.192388,-0.000108 L 9.192388,-6.3509" />
      <path d="M 9.192388,-17.32045 A 13.0,13.0 -45.00000000000001 0,1 -9.192388,-2.309271 A 13.0,13.0 -45.00000000000001 0,1 9.192388,-17.32045 M 7.424621,-15.877067 A 10.5,10.5 -45.00000000000001 0,0 -7.424621,-3.752653 A 10.5,10.5 -45.00000000000001 0,0 7.424621,-15.877067" />
      <circle cx="0.0" cy="7.505481" r="13.0" />
      <path d="M 7.424621,-15.877067 L 7.424621,-7.216896 A 10.5,10.5 -45.00000000000001 0,0 -7.424621,4.907518 A 10.5,10.5 -45.00000000000001 0,0 7.424621,-7.216896 L 7.424621,-15.877067 A 10.5,10.5 -45.00000000000001 0,1 -7.424621,-3.752653 A 10.5,10.5 -45.00000000000001 0,1 7.424621,-15.877067" />
      <circle cx="0.0" cy="-1.154689" r="10.5" />
      <circle cx="0.0" cy="1.154689" r="10.5" />
      <path d="M 7.424621,-4.907518 A 10.5,10.5 -45.00000000000001 0,1 -7.424621,7.216896 A 10.5,10.5 -45.00000000000001 0,1 7.424621,-4.907518 L 7.424621,-0.866105 A 10.5,10.5 -45.00000000000001 0,0 -7.424621,11.258309 A 10.5,10.5 -45.00000000000001 0,0 7.424621,-0.866105 L 7.424621,-4.907518" />
      <circle cx="0.0" cy="5.196102" r="10.5" />
    </g>
  </g>
</svg>