<?xml version='1.0' encoding='utf-8'?>
<svg width="70.800678mm" height="70.08925mm" viewBox="-35.400339 -30.067342 70.800678 70.08925" version="1.1" xmlns="http://www.w3.org/2000/svg">
  <defs>
    <style>
      .cq-bg { fill: #ffffff; }
      @media (prefers-color-scheme: dark) {
        .cq-bg { fill: #0d1117; }
        /* CadQuery SVG selectors */
        g[stroke="rgb(0,0,0)"] { stroke: #c9d1d9 !important; }
        g[stroke="rgb(160,160,160)"] { stroke: #484f58 !important; }
        /* OpenSCAD SVG selectors */
        path { stroke: #c9d1d9 !important; }
        polygon { stroke: #c9d1d9 !important; fill: #161b22 !important; }
        /* Common selectors */
        line { stroke: #c9d1d9 !important; }
        text { stroke: #c9d1d9 !important; fill: #c9d1d9 !important; }
      }
    </style>
  </defs>
  <rect width="70.800678mm" height="70.08925mm" class="cq-bg"/>
  <g transform="scale(1,-1)" stroke-linecap="round">
    <g fill="none" stroke="rgb(0,0,0)" stroke-width="0.09">
      <path d="M -35.355339,6.92822 L -35.355339,4.618841 L -7.071068,27.712963 L -7.071068,30.022342 L -35.355339,6.92822" />
      <path d="M -35.355339,6.92822 L 7.071068,-27.712963 L 7.071068,-30.022342 L -35.355339,4.618841 L -35.355339,6.92822" />
      <path d="M -7.071068,27.712963 L -35.355339,4.618841 L 7.071068,-30.022342 L 35.355339,-6.92822 L -7.071068,27.712963 M -19.728279,3.4064 A 2.1,2.1 -45.00000000000001 0,0 -22.698128,5.831282 A 2.1,2.1 -45.00000000000001 0,0 -19.728279,3.4064 M 8.555992,-19.687722 A 2.1,2.1 -45.00000000000001 0,0 5.586144,-17.262839 A 2.1,2.1 -45.00000000000001 0,0 8.555992,-19.687722 M -5.586144,14.953461 A 2.1,2.1 -45.00000000000001 0,0 -8.555992,17.378343 A 2.1,2.1 -45.00000000000001 0,0 -5.586144,14.953461 M 8.838835,-8.371603 A 12.5,12.5 -45.00000000000001 0,0 -8.838835,6.062224 A 12.5,12.5 -45.00000000000001 0,0 8.838835,-8.371603 M 22.698128,-8.140661 A 2.1,2.1 -45.00000000000001 0,0 19.728279,-5.715778 A 2.1,2.1 -45.00000000000001 0,0 22.698128,-8.140661" />
      <path d="M 35.355339,-4.618841 L -7.071068,30.022342 L -7.071068,27.712963 L 35.355339,-6.92822 L 35.355339,-4.618841" />
      <path d="M -35.355339,6.92822 L -7.071068,30.022342 L 35.355339,-4.618841 L 7.071068,-27.712963 L -35.355339,6.92822 M -19.728279,5.715778 A 2.1,2.1 -45.00000000000001 0,1 -22.698128,8.140661 A 2.1,2.1 -45.00000000000001 0,1 -19.728279,5.715778 M 8.555992,-17.378343 A 2.1,2.1 -45.00000000000001 0,1 5.586144,-14.953461 A 2.1,2.1 -45.00000000000001 0,1 8.555992,-17.378343 M -5.586144,17.262839 A 2.1,2.1 -45.00000000000001 0,1 -8.555992,19.687722 A 2.1,2.1 -45.00000000000001 0,1 -5.586144,17.262839 M 8.838835,-6.062224 A 12.5,12.5 -45.00000000000001 0,1 -8.838835,8.371603 A 12.5,12.5 -45.00000000000001 0,1 8.838835,-6.062224 M 22.698128,-5.831282 A 2.1,2.1 -45.00000000000001 0,1 19.728279,-3.4064 A 2.1,2.1 -45.00000000000001 0,1 22.698128,-5.831282" />
      <path d="M 7.071068,-30.022342 L 7.071068,-27.712963 L 35.355339,-4.618841 L 35.355339,-6.92822 L 7.071068,-30.022342" />
      <path d="M -19.728279,3.4064 A 2.1,2.1 -45.00000000000001 0,1 -22.698128,5.831282 A 2.1,2.1 -45.00000000000001 0,1 -19.728279,3.4064 L -19.728279,5.715778 A 2.1,2.1 -45.00000000000001 0,0 -22.698128,8.140661 A 2.1,2.1 -45.00000000000001 0,0 -19.728279,5.715778 L -19.728279,3.4064" />
      <path d="M 8.555992,-19.687722 A 2.1,2.1 -45.00000000000001 0,1 5.586144,-17.262839 A 2.1,2.1 -45.00000000000001 0,1 8.555992,-19.687722 L 8.555992,-17.378343 A 2.1,2.1 -45.00000000000001 0,0 5.586144,-14.953461 A 2.1,2.1 -45.00000000000001 0,0 8.555992,-17.378343 L 8.555992,-19.687722" />
      <path d="M -5.586144,14.953461 A 2.1,2.1 -45.00000000000001 0,1 -8.555992,17.378343 A 2.1,2.1 -45.00000000000001 0,1 -5.586144,14.953461 L -5.586144,17.262839 A 2.1,2.1 -45.00000000000001 0,0 -8.555992,19.687722 A 2.1,2.1 -45.00000000000001 0,0 -5.586144,17.262839 L -5.586144,14.953461" />
      <path d="M 8.838835,-8.371603 A 12.5,12.5 -45.00000000000001 0,1 -8.838835,6.062224 A 12.5,12.5 -45.00000000000001 0,1 8.838835,-8.371603 L 8.838835,-6.062224 A 12.5,12.5 -45.00000000000001 0,0 -8.838835,8.371603 A 12.5,12.5 -45.00000000000001 0,0 8.838835,-6.062224 L 8.838835,-8.371603" />
      <path d="M 22.698128,-8.140661 A 2.1,2.1 -45.00000000000001 0,1 19.728279,-5.715778 A 2.1,2.1 -45.00000000000001 0,1 22.698128,-8.140661 L 22.698128,-5.831282 A 2.1,2.1 -45.00000000000001 0,0 19.728279,-3.4064 A 2.1,2.1 -45.00000000000001 0,0 22.698128,-5.831282 L 22.698128,-8.140661" />
      <path d="M 2.828427,-20.784443 A 4.0,4.0 -45.00000000000001 0,0 -2.828427,-16.165619 A 4.0,4.0 -45.00000000000001 0,0 2.828427,-20.784443 L 2.828427,13.85624 A 4.0,4.0 -45.00000000000001 0,1 -2.828427,18.475064 A 4.0,4.0 -45.00000000000001 0,1 2.828427,13.85624 L 2.828427,-20.784443" />
      <circle cx="0.0" cy="-18.475031" r="4.0" />
      <circle cx="0.0" cy="16.165652" r="4.0" />
      <path d="M 2.12132,-39.259466 A 3.0,3.0 -45.00000000000001 0,0 -2.12132,-35.795347 A 3.0,3.0 -45.00000000000001 0,0 2.12132,-39.259466 L 2.828427,-36.37275 A 4.0,4.0 -45.00000000000001 0,1 -2.828427,-31.753926 A 4.0,4.0 -45.00000000000001 0,1 2.828427,-36.37275 L 2.12132,-39.259466" />
      <circle cx="0.0" cy="-37.527407" r="3.0" />
      <circle cx="0.0" cy="-34.063338" r="4.0" />
    </g>
  </g>
</svg>