<?xml version='1.0' encoding='utf-8'?>
<svg width="157.944518mm" height="135.681266mm" viewBox="-78.972259 -64.489147 157.944518 135.681266" version="1.1" xmlns="http://www.w3.org/2000/svg">
  <g transform="scale(1,-1)" stroke-linecap="round">
    <g fill="none" stroke="rgb(0,0,0)" stroke-width="0.09">
      <path d="M -78.927259,12.205243 L -78.927259,5.502271 L -14.948237,57.741175 L -14.948237,64.444147 L -78.927259,12.205243" />
      <path d="M -78.927259,12.205243 L 14.948237,-64.444147 L 14.948237,-71.147119 L -78.927259,5.502271 L -78.927259,12.205243" />
      <path d="M 78.927259,-12.205243 L -14.948237,64.444147 L -14.948237,57.741175 L 78.927259,-18.908216 L 78.927259,-12.205243" />
      <path d="M -78.927259,12.205243 L -14.948237,64.444147 L 78.927259,-12.205243 L 14.948237,-64.444147 L -78.927259,12.205243" />
      <path d="M 14.948237,-71.147119 L 14.948237,-64.444147 L 78.927259,-12.205243 L 78.927259,-18.908216 L 14.948237,-71.147119" />
      <path d="M -14.948237,57.741175 L -78.927259,5.502271 L 14.948237,-71.147119 L 78.927259,-18.908216 L -14.948237,57.741175 M 14.948237,-68.837707 L -76.098832,5.502271 L -14.948237,55.431763 L 76.098832,-18.908216 L 14.948237,-68.837707" />
      <path d="M 14.948237,-68.837707 L 14.948237,-62.71208 L -76.098832,11.627899 L -76.098832,5.502271 L 14.948237,-68.837707" />
      <path d="M 14.948237,-62.71208 L 14.948237,-68.837707 L 76.098832,-18.908216 L 76.098832,-12.782588 L 14.948237,-62.71208" />
      <path d="M 76.098832,-12.782588 L 76.098832,-18.908216 L -14.948237,55.431763 L -14.948237,61.55739 L 76.098832,-12.782588" />
      <path d="M -76.098832,5.502271 L -76.098832,11.627899 L -14.948237,61.55739 L -14.948237,55.431763 L -76.098832,5.502271" />
      <path d="M -14.948237,61.55739 L -76.098832,11.627899 L 14.948237,-62.71208 L 76.098832,-12.782588 L -14.948237,61.55739" />
      <path d="M 70.088424,-17.690031 A 1.5,1.5 -45.00000000000001 0,0 67.967104,-15.957972 A 1.5,1.5 -45.00000000000001 0,0 70.088424,-17.690031 L 70.088424,-14.803307 A 1.5,1.5 -45.00000000000001 0,1 67.967104,-13.071248 A 1.5,1.5 -45.00000000000001 0,1 70.088424,-14.803307 L 70.088424,-17.690031" />
      <circle cx="69.027764" cy="-16.824001" r="1.5" />
      <circle cx="69.027764" cy="-13.937278" r="1.5" />
      <path d="M -13.887577,50.876417 A 1.5,1.5 -45.00000000000001 0,0 -16.008898,52.608476 A 1.5,1.5 -45.00000000000001 0,0 -13.887577,50.876417 L -13.887577,53.763141 A 1.5,1.5 -45.00000000000001 0,1 -16.008898,55.4952 A 1.5,1.5 -45.00000000000001 0,1 -13.887577,53.763141 L -13.887577,50.876417" />
      <circle cx="-14.948237" cy="51.742447" r="1.5" />
      <circle cx="-14.948237" cy="54.62917" r="1.5" />
      <path d="M 16.008898,-61.845992 A 1.5,1.5 -45.00000000000001 0,0 13.887577,-60.113932 A 1.5,1.5 -45.00000000000001 0,0 16.008898,-61.845992 L 16.008898,-58.959268 A 1.5,1.5 -45.00000000000001 0,1 13.887577,-57.227209 A 1.5,1.5 -45.00000000000001 0,1 16.008898,-58.959268 L 16.008898,-61.845992" />
      <circle cx="14.948237" cy="-60.979962" r="1.5" />
      <circle cx="14.948237" cy="-58.093238" r="1.5" />
      <path d="M -67.967104,6.720456 A 1.5,1.5 -45.00000000000001 0,0 -70.088424,8.452515 A 1.5,1.5 -45.00000000000001 0,0 -67.967104,6.720456 L -67.967104,9.60718 A 1.5,1.5 -45.00000000000001 0,1 -70.088424,11.339239 A 1.5,1.5 -45.00000000000001 0,1 -67.967104,9.60718 L -67.967104,6.720456" />
      <circle cx="-69.027764" cy="7.586486" r="1.5" />
      <circle cx="-69.027764" cy="10.473209" r="1.5" />
    </g>
  </g>
</svg>