<?xml version="1.0" encoding="UTF-8" standalone="no"?>
<svg
   xmlns:svg="http://www.w3.org/2000/svg"
   xmlns="http://www.w3.org/2000/svg"
   width="800.0"
   height="240.0"

>
    <g transform="scale(1.9098303150523135, -1.9098303150523135)   translate(165.15187662550125,-56.6372518154421)" stroke-width="0.5236067267958349"  fill="none">
       <!-- hidden lines -->
       <g  stroke="rgb(160,160,160)" fill="none" stroke-dasharray="0.5236067267958349,0.5236067267958349" >
			<path d="M-60.43053126633426,-45.58942440026555 L59.43947999214996,-37.05957490589884 " />
			<path d="M59.43947999214995,-37.059574905898835 L63.734035513615325,-39.55424404935817 " />
			<path d="M59.43947999214995,-37.059574905898835 L59.43947999214995,46.1651172795254 " />
			<path d="M-57.551763279417905,-44.07256088960969 L-54.24825903213684,-45.991537153809176 " />
			<path d="M-54.24825903213685,-43.83748629724525 L-57.55176327941792,-44.07256088960969 " />
			<path d="M58.542814553602234,43.49686801034984 L61.846318800883296,41.57789174615036 " />
			<path d="M58.54281455360223,41.342817153785916 L58.54281455360223,43.49686801034984 " />
			<path d="M-57.551763279417905,35.23567519297106 L-54.24825903213684,33.31669892877157 " />
			<path d="M58.54281455360223,43.49686801034984 L-57.55176327941792,35.23567519297106 " />
			<path d="M-57.55176327941791,-44.07256088960969 L-57.55176327941791,35.23567519297106 " />

       </g>

       <!-- solid lines -->
       <g  stroke="rgb(0,0,0)" fill="none">
			<path d="M-60.43053126633426,-45.58942440026555 L-56.13597574486889,-48.08409354372488 " />
			<path d="M-60.43053126633426,-45.58942440026555 L-60.43053126633426,37.63526778515868 " />
			<path d="M-56.13597574486889,35.14059864169935 L-60.43053126633426,37.63526778515868 " />
			<path d="M-56.13597574486889,-48.08409354372488 L-56.13597574486889,35.14059864169935 " />
			<path d="M-56.13597574486889,-48.08409354372488 L63.73403551361534,-39.554244049358175 " />
			<path d="M-60.43053126633426,37.63526778515868 L59.43947999214996,46.16511727952539 " />
			<path d="M-56.13597574486889,35.14059864169935 L63.73403551361534,43.67044813606606 " />
			<path d="M63.734035513615325,43.670448136066064 L59.43947999214995,46.1651172795254 " />
			<path d="M63.734035513615325,-39.55424404935817 L63.734035513615325,43.670448136066064 " />
			<path d="M61.84631880088329,-37.73034433643039 L-54.24825903213686,-45.991537153809176 " />
			<path d="M61.84631880088329,-37.73034433643039 L61.84631880088329,41.57789174615036 " />
			<path d="M61.84631880088329,41.57789174615036 L-54.24825903213686,33.31669892877157 " />
			<path d="M-54.24825903213685,-45.991537153809176 L-54.24825903213685,33.31669892877157 " />
			<path d="M58.542814553602234,-35.811368072230906 L61.846318800883296,-37.73034433643039 " />
			<path d="M58.54281455360223,-35.811368072230906 L-54.24825903213685,-43.83748629724525 " />
			<path d="M58.54281455360223,-35.811368072230906 L58.54281455360223,41.342817153785916 " />

       </g>
    </g>
    <g transform="translate(20,210.0)" stroke="rgb(0,0,255)">
        <line x1="30" y1="-30" x2="75" y2="-33" stroke-width="3" stroke="#000000" />
         <text x="80" y="-30" style="stroke:#000000">X </text>

        <line x1="30" y1="-30" x2="30" y2="-75" stroke-width="3" stroke="#000000" />
         <text x="25" y="-85" style="stroke:#000000">Y </text>

        <line x1="30" y1="-30" x2="58" y2="-15" stroke-width="3" stroke="#000000" />
         <text x="65" y="-5" style="stroke:#000000">Z </text>
        <!--
            <line x1="0" y1="0" x2="1.9098303150523135" y2="0" stroke-width="3" />
            <text x="0" y="20" style="stroke:#000000">1  mm </text>
        -->
    </g>
</svg>
