<?xml version='1.0' encoding='utf-8'?>
<svg width="149.996638mm" height="129.994327mm" viewBox="-74.998319 -62.11044 149.996638 129.994327" version="1.1" xmlns="http://www.w3.org/2000/svg">
  <g transform="scale(1,-1)" stroke-linecap="round">
    <g fill="none" stroke="rgb(0,0,0)" stroke-width="0.09">
      <path d="M -74.953319,12.990431 L -74.953319,5.48495 L -14.849242,54.559959 L -14.849242,62.06544 L -74.953319,12.990431" />
      <path d="M -74.953319,12.990431 L 14.849242,-60.333406 L 14.849242,-67.838887 L -74.953319,5.48495 L -74.953319,12.990431" />
      <path d="M 74.953319,-11.258397 L -14.849242,62.06544 L -14.849242,54.559959 L 74.953319,-18.763878 L 74.953319,-11.258397" />
      <path d="M -74.953319,12.990431 L -14.849242,62.06544 L 74.953319,-11.258397 L 14.849242,-60.333406 L -74.953319,12.990431" />
      <path d="M 14.849242,-67.838887 L 14.849242,-60.333406 L 74.953319,-11.258397 L 74.953319,-18.763878 L 14.849242,-67.838887" />
      <path d="M -14.849242,54.559959 L -74.953319,5.48495 L 14.849242,-67.838887 L 74.953319,-18.763878 L -14.849242,54.559959 M 14.849242,-65.529475 L -72.124892,5.48495 L -14.849242,52.250546 L 72.124892,-18.763878 L 14.849242,-65.529475" />
      <path d="M 14.849242,-65.529475 L 14.849242,-59.756028 L -72.124892,11.258397 L -72.124892,5.48495 L 14.849242,-65.529475" />
      <path d="M 14.849242,-59.756028 L 14.849242,-65.529475 L 72.124892,-18.763878 L 72.124892,-12.990431 L 14.849242,-59.756028" />
      <path d="M 72.124892,-12.990431 L 72.124892,-18.763878 L -14.849242,52.250546 L -14.849242,58.023994 L 72.124892,-12.990431" />
      <path d="M -72.124892,5.48495 L -72.124892,11.258397 L -14.849242,58.023994 L -14.849242,52.250546 L -72.124892,5.48495" />
      <path d="M -72.124892,11.258397 L 14.849242,-59.756028 L 72.124892,-12.990431 L -14.849242,58.023994 L -72.124892,11.258397" />
    </g>
  </g>
</svg>