<?xml version='1.0' encoding='utf-8'?>
<svg width="16.353456mm" height="27.802738mm" viewBox="-8.176728 -13.901369 16.353456 27.802738" version="1.1" xmlns="http://www.w3.org/2000/svg">
  <defs>
    <style>
      .cq-bg { fill: #ffffff; }
      @media (prefers-color-scheme: dark) {
        .cq-bg { fill: #0d1117; }
        /* CadQuery SVG selectors */
        g[stroke="rgb(0,0,0)"] { stroke: #c9d1d9 !important; }
        g[stroke="rgb(160,160,160)"] { stroke: #484f58 !important; }
        /* OpenSCAD SVG selectors */
        path { stroke: #c9d1d9 !important; }
        polygon { stroke: #c9d1d9 !important; fill: #161b22 !important; }
        /* Common selectors */
        line { stroke: #c9d1d9 !important; }
        text { stroke: #c9d1d9 !important; fill: #c9d1d9 !important; }
      }
    </style>
  </defs>
  <rect width="16.353456mm" height="27.802738mm" class="cq-bg"/>
  <g transform="scale(1,-1)" stroke-linecap="round">
    <g fill="none" stroke="rgb(0,0,0)" stroke-width="0.09">
      <path d="M -6.010408,8.612154 L -6.576093,8.150272 L -6.576093,9.016289 L -6.010408,9.478172 L -6.010408,11.017757 L -6.576093,10.555875 L -6.576093,11.421892 L -6.010408,11.883775 L -6.010408,13.856369 L -8.131728,12.12431 L -8.131728,-2.309308 L -6.010408,-0.577249 L -6.010408,1.395346 L -6.576093,0.933463 L -6.576093,1.79948 L -6.010408,2.261363 L -6.010408,3.800949 L -6.576093,3.339066 L -6.576093,4.205083 L -6.010408,4.666966 L -6.010408,6.206551 L -6.576093,5.744669 L -6.576093,6.610686 L -6.010408,7.072569 L -6.010408,8.612154" />
      <path d="M -6.010408,8.612154 L 8.131728,-2.934906 L 7.566043,-3.396789 L -6.576093,8.150272 L -6.010408,8.612154" />
      <path d="M 7.566043,-2.530772 L -6.576093,9.016289 L -6.576093,8.150272 L 7.566043,-3.396789 L 7.566043,-2.530772" />
      <path d="M 8.131728,-2.068889 L -6.010408,9.478172 L -6.576093,9.016289 L 7.566043,-2.530772 L 8.131728,-2.068889" />
      <path d="M 8.131728,-2.068889 L 8.131728,-0.529303 L -6.010408,11.017757 L -6.010408,9.478172 L 8.131728,-2.068889" />
      <path d="M -6.010408,11.017757 L 8.131728,-0.529303 L 7.566043,-0.991186 L -6.576093,10.555875 L -6.010408,11.017757" />
      <path d="M 7.566043,-0.125169 L -6.576093,11.421892 L -6.576093,10.555875 L 7.566043,-0.991186 L 7.566043,-0.125169" />
      <path d="M 8.131728,0.336714 L -6.010408,11.883775 L -6.576093,11.421892 L 7.566043,-0.125169 L 8.131728,0.336714" />
      <path d="M 8.131728,0.336714 L 8.131728,2.309308 L -6.010408,13.856369 L -6.010408,11.883775 L 8.131728,0.336714" />
      <path d="M -8.131728,12.12431 L -6.010408,13.856369 L 8.131728,2.309308 L 6.010408,0.577249 L -8.131728,12.12431" />
      <path d="M -8.131728,12.12431 L 6.010408,0.577249 L 6.010408,-13.856369 L -8.131728,-2.309308 L -8.131728,12.12431" />
      <path d="M -6.010408,-0.577249 L -8.131728,-2.309308 L 6.010408,-13.856369 L 8.131728,-12.12431 L -6.010408,-0.577249" />
      <path d="M 8.131728,-12.12431 L 8.131728,-10.151715 L -6.010408,1.395346 L -6.010408,-0.577249 L 8.131728,-12.12431" />
      <path d="M -6.010408,1.395346 L 8.131728,-10.151715 L 7.566043,-10.613598 L -6.576093,0.933463 L -6.010408,1.395346" />
      <path d="M 7.566043,-9.747581 L -6.576093,1.79948 L -6.576093,0.933463 L 7.566043,-10.613598 L 7.566043,-9.747581" />
      <path d="M 8.131728,-9.285698 L -6.010408,2.261363 L -6.576093,1.79948 L 7.566043,-9.747581 L 8.131728,-9.285698" />
      <path d="M 8.131728,-9.285698 L 8.131728,-7.746112 L -6.010408,3.800949 L -6.010408,2.261363 L 8.131728,-9.285698" />
      <path d="M -6.010408,3.800949 L 8.131728,-7.746112 L 7.566043,-8.207995 L -6.576093,3.339066 L -6.010408,3.800949" />
      <path d="M 7.566043,-7.341978 L -6.576093,4.205083 L -6.576093,3.339066 L 7.566043,-8.207995 L 7.566043,-7.341978" />
      <path d="M 8.131728,-6.880095 L -6.010408,4.666966 L -6.576093,4.205083 L 7.566043,-7.341978 L 8.131728,-6.880095" />
      <path d="M 8.131728,-6.880095 L 8.131728,-5.340509 L -6.010408,6.206551 L -6.010408,4.666966 L 8.131728,-6.880095" />
      <path d="M -6.010408,6.206551 L 8.131728,-5.340509 L 7.566043,-5.802392 L -6.576093,5.744669 L -6.010408,6.206551" />
      <path d="M 7.566043,-4.936375 L -6.576093,6.610686 L -6.576093,5.744669 L 7.566043,-5.802392 L 7.566043,-4.936375" />
      <path d="M 8.131728,-4.474492 L -6.010408,7.072569 L -6.576093,6.610686 L 7.566043,-4.936375 L 8.131728,-4.474492" />
      <path d="M 8.131728,-4.474492 L 8.131728,-2.934906 L -6.010408,8.612154 L -6.010408,7.072569 L 8.131728,-4.474492" />
      <path d="M 7.566043,-3.396789 L 8.131728,-2.934906 L 8.131728,-4.474492 L 7.566043,-4.936375 L 7.566043,-5.802392 L 8.131728,-5.340509 L 8.131728,-6.880095 L 7.566043,-7.341978 L 7.566043,-8.207995 L 8.131728,-7.746112 L 8.131728,-9.285698 L 7.566043,-9.747581 L 7.566043,-10.613598 L 8.131728,-10.151715 L 8.131728,-12.12431 L 6.010408,-13.856369 L 6.010408,0.577249 L 8.131728,2.309308 L 8.131728,0.336714 L 7.566043,-0.125169 L 7.566043,-0.991186 L 8.131728,-0.529303 L 8.131728,-2.068889 L 7.566043,-2.530772 L 7.566043,-3.396789" />
    </g>
  </g>
</svg>