<?xml version='1.0' encoding='utf-8'?>
<svg width="36.09mm" height="38.336461mm" viewBox="-18.045 -21.958818 36.09 38.336461" version="1.1" xmlns="http://www.w3.org/2000/svg">
  <defs>
    <style>
      .cq-bg { fill: #ffffff; }
      @media (prefers-color-scheme: dark) {
        .cq-bg { fill: #0d1117; }
        /* CadQuery SVG selectors */
        g[stroke="rgb(0,0,0)"] { stroke: #c9d1d9 !important; }
        g[stroke="rgb(160,160,160)"] { stroke: #484f58 !important; }
        /* OpenSCAD SVG selectors */
        path { stroke: #c9d1d9 !important; }
        polygon { stroke: #c9d1d9 !important; fill: #161b22 !important; }
        /* Common selectors */
        line { stroke: #c9d1d9 !important; }
        text { stroke: #c9d1d9 !important; fill: #c9d1d9 !important; }
      }
    </style>
  </defs>
  <rect width="36.09mm" height="38.336461mm" class="cq-bg"/>
  <g transform="scale(1,-1)" stroke-linecap="round">
    <g fill="none" stroke="rgb(0,0,0)" stroke-width="0.09">
      <path d="M 12.727922,-6.062269 A 18.0,18.0 -45.00000000000001 0,0 -12.727922,14.72244 A 18.0,18.0 -45.00000000000001 0,0 12.727922,-6.062269 L 12.727922,-3.175546 A 18.0,18.0 -45.00000000000001 0,1 -12.727922,17.609164 A 18.0,18.0 -45.00000000000001 0,1 12.727922,-3.175546 L 12.727922,-6.062269" />
      <path d="M 12.727922,-6.062269 A 18.0,18.0 -45.00000000000001 0,1 -12.727922,14.72244 A 18.0,18.0 -45.00000000000001 0,1 12.727922,-6.062269 M 8.52424,-2.629961 A 12.055095289373025,12.055095289373025 -45.00000000000001 0,0 -8.52424,11.290131 A 12.055095289373025,12.055095289373025 -45.00000000000001 0,0 8.52424,-2.629961" />
      <circle cx="0.0" cy="7.216809" r="18.0" />
      <path d="M 10.39447,-12.817175 A 14.7,14.7 -45.00000000000001 0,0 -10.39447,4.157004 A 14.7,14.7 -45.00000000000001 0,0 10.39447,-12.817175 L 8.52424,-2.629961 A 12.055095289373025,12.055095289373025 -45.00000000000001 0,1 -8.52424,11.290131 A 12.055095289373025,12.055095289373025 -45.00000000000001 0,1 8.52424,-2.629961 L 10.39447,-12.817175 M -9.023679,-11.519641 A 14.171019057874604,14.171019057874604 -45.00000000000001 0,0 -10.926619,-9.96589 C -10.895926,-10.284752 -10.853787,-10.612512 -10.773225,-10.964159 C -10.734392,-11.12989 -10.687716,-11.300947 -10.616212,-11.484175 C -10.579768,-11.581103 -10.530554,-11.682466 -10.46857,-11.788265 C -10.415492,-11.875938 -10.342851,-11.973769 -10.252508,-12.047289 C -10.134598,-12.142594 -10.029155,-12.16721 -9.947875,-12.171815 C -9.855983,-12.176196 -9.78107,-12.157195 -9.712552,-12.131625 C -9.579466,-12.079885 -9.471568,-11.999753 -9.372141,-11.911756 C -9.243416,-11.793175 -9.127262,-11.66247 -9.023679,-11.519641 M 9.023679,6.323538 A 14.171019057874604,14.171019057874604 -45.00000000000001 0,0 10.926619,4.769787 C 10.895754,4.673338 10.853389,4.587299 10.77198,4.537026 C 10.733082,4.514547 10.686345,4.499081 10.614739,4.507364 C 10.57564,4.512504 10.529661,4.523917 10.463992,4.555909 C 10.411849,4.5814 10.341055,4.624577 10.253864,4.695725 C 10.134517,4.793378 10.027905,4.905607 9.945972,4.997733 C 9.854383,5.101046 9.779635,5.194446 9.711253,5.283261 C 9.577364,5.457996 9.468902,5.615408 9.368958,5.766531 C 9.241538,5.961048 9.126445,6.146717 9.023679,6.323538" />
      <path d="M 10.39447,-12.817175 A 14.7,14.7 -45.00000000000001 0,1 -10.39447,4.157004 A 14.7,14.7 -45.00000000000001 0,1 10.39447,-12.817175 M -6.717514,-12.701705 A 2.5,2.5 -45.00000000000001 0,0 -10.253048,-9.814939 A 2.5,2.5 -45.00000000000001 0,0 -6.717514,-12.701705 M -6.081118,0.635151 A 1.4,1.4 -45.00000000000001 0,0 -8.061017,2.251739 A 1.4,1.4 -45.00000000000001 0,0 -6.081118,0.635151 M 8.061017,-10.91191 A 1.4,1.4 -45.00000000000001 0,0 6.081118,-9.295322 A 1.4,1.4 -45.00000000000001 0,0 8.061017,-10.91191 M 10.253048,1.154769 A 2.5,2.5 -45.00000000000001 0,0 6.717514,4.041534 A 2.5,2.5 -45.00000000000001 0,0 10.253048,1.154769" />
      <path d="M -9.023679,-11.519641 A 2.5,2.5 -45.00000000000001 0,1 -6.717514,-10.96967 A 2.5,2.5 -45.00000000000001 1,1 -10.926619,-9.96589 A 14.171019057874604,14.171019057874604 -45.00000000000001 0,1 -9.023679,-11.519641" />
      <path d="M -6.717514,-12.701705 L -6.717514,-10.96967 A 2.5,2.5 -45.00000000000001 0,0 -9.023679,-11.519641 C -9.127262,-11.66247 -9.243416,-11.793175 -9.372141,-11.911756 C -9.471568,-11.999753 -9.579466,-12.079885 -9.712552,-12.131625 C -9.78107,-12.157195 -9.855983,-12.176196 -9.947875,-12.171815 C -10.029155,-12.16721 -10.134598,-12.142594 -10.252508,-12.047289 C -10.342851,-11.973769 -10.415492,-11.875938 -10.46857,-11.788265 C -10.530554,-11.682466 -10.579768,-11.581103 -10.616212,-11.484175 C -10.687716,-11.300947 -10.734392,-11.12989 -10.773225,-10.964159 C -10.853787,-10.612512 -10.895926,-10.284752 -10.926619,-9.96589 A 2.5,2.5 -45.00000000000001 1,0 -6.717514,-10.96967 L -6.717514,-12.701705 A 2.5,2.5 -45.00000000000001 0,1 -10.253048,-9.814939 A 2.5,2.5 -45.00000000000001 0,1 -6.717514,-12.701705" />
      <path d="M 9.023679,6.323538 A 2.5,2.5 -45.00000000000001 1,1 10.253048,2.886803 A 2.5,2.5 -45.00000000000001 0,1 10.926619,4.769787 A 14.171019057874604,14.171019057874604 -45.00000000000001 0,1 9.023679,6.323538" />
      <path d="M 10.253048,1.154769 L 10.253048,2.886803 A 2.5,2.5 -45.00000000000001 1,0 9.023679,6.323538 C 9.126445,6.146717 9.241538,5.961048 9.368958,5.766531 C 9.468902,5.615408 9.577364,5.457996 9.711253,5.283261 C 9.779635,5.194446 9.854383,5.101046 9.945972,4.997733 C 10.027905,4.905607 10.134517,4.793378 10.253864,4.695725 C 10.341055,4.624577 10.411849,4.5814 10.463992,4.555909 C 10.529661,4.523917 10.57564,4.512504 10.614739,4.507364 C 10.686345,4.499081 10.733082,4.514547 10.77198,4.537026 C 10.853389,4.587299 10.895754,4.673338 10.926619,4.769787 A 2.5,2.5 -45.00000000000001 0,0 10.253048,2.886803 L 10.253048,1.154769 A 2.5,2.5 -45.00000000000001 0,1 6.717514,4.041534 A 2.5,2.5 -45.00000000000001 0,1 10.253048,1.154769" />
      <path d="M -6.081118,-3.983607 A 1.4,1.4 -45.00000000000001 0,0 -8.061017,-2.367018 A 1.4,1.4 -45.00000000000001 0,0 -6.081118,-3.983607 L -6.081118,0.635151 A 1.4,1.4 -45.00000000000001 0,1 -8.061017,2.251739 A 1.4,1.4 -45.00000000000001 0,1 -6.081118,0.635151 L -6.081118,-3.983607" />
      <path d="M 8.061017,-15.530668 A 1.4,1.4 -45.00000000000001 0,0 6.081118,-13.914079 A 1.4,1.4 -45.00000000000001 0,0 8.061017,-15.530668 L 8.061017,-10.91191 A 1.4,1.4 -45.00000000000001 0,1 6.081118,-9.295322 A 1.4,1.4 -45.00000000000001 0,1 8.061017,-10.91191 L 8.061017,-15.530668" />
      <circle cx="-7.071068" cy="-3.175313" r="1.4" />
      <circle cx="7.071068" cy="-14.722374" r="1.4" />
    </g>
  </g>
</svg>