<?xml version="1.0" encoding="UTF-8" standalone="no"?>
<svg
   xmlns:svg="http://www.w3.org/2000/svg"
   xmlns="http://www.w3.org/2000/svg"
   width="800.0"
   height="240.0"

>
  <defs>
    <style>
      .cq-bg { fill: #ffffff; }
      @media (prefers-color-scheme: dark) {
        .cq-bg { fill: #0d1117; }
        /* CadQuery SVG selectors */
        g[stroke="rgb(0,0,0)"] { stroke: #c9d1d9 !important; }
        g[stroke="rgb(160,160,160)"] { stroke: #484f58 !important; }
        /* OpenSCAD SVG selectors */
        path { stroke: #c9d1d9 !important; }
        polygon { stroke: #c9d1d9 !important; fill: #161b22 !important; }
        /* Common selectors */
        line { stroke: #c9d1d9 !important; }
        text { stroke: #c9d1d9 !important; fill: #c9d1d9 !important; }
      }
    </style>
  </defs>
  <rect width="800.0" height="240.0" class="cq-bg"/>
    <g transform="scale(1.8047847804686827, -1.8047847804686827)   translate(173.46985502700377,-59.83512981091733)" stroke-width="0.5540826866571376"  fill="none">
       <!-- hidden lines -->
       <g  stroke="rgb(160,160,160)" fill="none" stroke-dasharray="0.5540826866571376,0.5540826866571376" >
			<path d="M63.64436896976055,-40.4124538478051 L62.65331769557623,48.75347607777458 " />
			<path d="M63.64436896976055,48.17778319851473 L63.64436896976055,-40.4124538478051 " />
			<path d="M63.64436896976055,-40.4124538478051 L62.653317695576234,-39.83676096854525 " />
			<path d="M62.653317695576234,-39.83676096854525 L62.653317695576234,48.75347607777458 " />
			<path d="M63.64436896976055,48.17778319851473 L61.75665225702851,46.08522680859902 " />
			<path d="M61.75665225702852,46.08522680859902 L63.644368969760556,-40.41245384780511 " />
			<path d="M63.64436896976055,48.17778319851473 L-59.77454970865989,37.43716837635762 " />
			<path d="M-59.774549708659876,37.43716837635762 L61.75665225702852,46.08522680859902 " />
			<path d="M-59.774549708659876,37.43716837635762 L-61.66226642139191,39.2610680892854 " />
			<path d="M-61.66226642139192,39.2610680892854 L-59.77454970865988,-47.236612567118726 " />
			<path d="M-59.774549708659876,-47.23661256711871 L-59.774549708659876,37.43716837635762 " />
			<path d="M61.75665225702852,-38.58855413487731 L63.644368969760556,-40.4124538478051 " />
			<path d="M61.75665225702852,46.08522680859902 L61.75665225702852,44.23058902109748 " />
			<path d="M-59.774549708659876,-47.23661256711871 L63.64436896976056,-40.4124538478051 " />
			<path d="M-56.93023255175089,-47.03421334309293 L-59.774549708659876,-47.23661256711871 " />
			<path d="M-59.774549708659876,-47.23661256711871 L-61.66226642139191,-49.329168957034426 " />
			<path d="M-61.66226642139192,-49.329168957034426 L63.64436896976056,-40.4124538478051 " />
			<path d="M-62.653317695576234,-48.75347607777458 L62.65331769557622,48.75347607777458 " />
			<path d="M62.653317695576234,-39.83676096854525 L-62.65331769557625,-48.75347607777458 " />
			<path d="M-62.653317695576234,-48.75347607777458 L63.64436896976058,-40.4124538478051 " />
			<path d="M61.74210669475527,44.22955397108206 L61.75665225702851,46.085226808599025 " />
			<path d="M61.75665225702852,46.08522680859902 L61.09595107722188,46.46902225333654 " />
			<path d="M61.095951077221876,46.46902225333654 L61.095951077221876,44.183574079117136 " />
			<path d="M-60.43525088846652,37.82096382109514 L-56.93023255175088,35.62834540579168 " />
			<path d="M-54.860076089165425,34.33332702175729 L-52.13075297631322,32.625956747580425 " />
			<path d="M55.88519821026782,-34.94509166529202 L58.184437515664065,-36.383416363737204 " />
			<path d="M61.095951077221876,46.46902225333654 L-60.43525088846652,37.82096382109514 " />
			<path d="M-60.43525088846652,37.82096382109514 L-60.43525088846652,-46.85281712238119 " />
			<path d="M-60.43525088846652,-46.85281712238119 L-56.93023255175088,-46.603402956375064 " />
			<path d="M-59.774549708659876,-47.23661256711871 L-60.43525088846651,37.82096382109515 " />
			<path d="M-60.43525088846652,37.82096382109514 L-59.77454970865988,37.43716837635762 " />
			<path d="M-59.774549708659876,-47.23661256711871 L-60.43525088846651,-46.85281712238119 " />
			<path d="M-60.43525088846652,37.82096382109514 L61.75665225702853,46.08522680859902 " />
			<path d="M-56.93023255175088,-47.02407553968888 L-59.77454970865988,-47.23661256711871 " />
			<path d="M66.48868612666955,-42.06469241128085 L63.644368969760556,48.177783198514724 " />
			<path d="M66.48868612666955,-42.06469241128085 L63.644368969760556,-40.4124538478051 " />
			<path d="M61.75665225702852,-38.58855413487731 L63.644368969760556,48.17778319851473 " />
			<path d="M-61.66226642139192,-49.329168957034426 L-59.77454970865988,37.43716837635762 " />
			<path d="M-61.66226642139192,-49.329168957034426 L66.48868612666955,-42.06469241128086 " />
			<path d="M64.6009694139375,44.43298824512326 L61.75665225702851,46.08522680859902 " />
			<path d="M-56.93023255175088,-48.88885113059447 L-59.774549708659876,37.437168376357626 " />
			<path d="M-59.774549708659876,37.43716837635762 L-56.93023255175088,35.78492981288186 " />
			<path d="M-56.93023255175088,-48.88885113059447 L-59.774549708659876,-47.23661256711871 " />
			<path d="M-59.774549708659876,37.43716837635762 L64.6009694139375,44.43298824512326 " />
			<path d="M-52.03594943065055,-42.487303494826264 L-53.829185921910344,-41.183639817194454 " />
			<path d="M-53.82918592191034,-41.183639817194454 L-52.1774337982698,-42.1431279492942 " />
			<path d="M-52.03594943065055,-42.487303494826264 L-53.68770155429108,-41.52781536272652 " />
			<path d="M-53.68770155429108,-41.52781536272652 L-53.82918592191035,-41.183639817194454 " />
			<path d="M-51.98771826864024,-42.8639634705587 L-53.687701554291074,-41.527815362726514 " />
			<path d="M-51.98771826864024,-42.8639634705587 L-53.63947039228077,-41.90447533845896 " />
			<path d="M-53.63947039228077,-41.90447533845896 L-53.687701554291074,-41.527815362726514 " />
			<path d="M-54.054107368232366,-40.89543431093764 L-52.69561203591476,-41.64246747809552 " />
			<path d="M-52.40235524459183,-41.85492244303738 L-54.054107368232366,-40.89543431093764 " />
			<path d="M-54.054107368232366,-40.89543431093764 L-54.34736415955529,-40.68297934599578 " />
			<path d="M-52.03594943065055,-43.247487624388185 L-53.63947039228078,-41.904475338458965 " />
			<path d="M-52.03594943065055,-43.247487624388185 L-53.68770155429108,-42.28799949228844 " />
			<path d="M-53.68770155429108,-42.28799949228844 L-53.63947039228078,-41.904475338458965 " />
			<path d="M-52.40235524459183,-43.932014937180426 L-53.829185921910344,-42.65231085576076 " />
			<path d="M-53.82918592191034,-42.65231085576076 L-52.1774337982698,-43.6117989878605 " />
			<path d="M-52.40235524459183,-43.932014937180426 L-54.054107368232366,-42.97252680508068 " />
			<path d="M-54.054107368232366,-42.97252680508068 L-53.82918592191035,-42.65231085576076 " />
			<path d="M-52.17743379826981,-43.6117989878605 L-53.687701554291074,-42.28799949228844 " />
			<path d="M-53.82918592191034,-42.65231085576076 L-53.68770155429107,-42.28799949228844 " />
			<path d="M-55.76315169410431,-43.32746383866309 L-53.76991161713055,-44.40942116678333 " />
			<path d="M-55.76315169410431,-43.32746383866309 L-55.42166374077108,-43.44993303468359 " />
			<path d="M-55.42166374077108,-43.449933034683596 L-53.769911617130546,-44.40942116678334 " />
			<path d="M-55.055257926829796,-43.47389263089575 L-53.03709998924797,-44.35727490577998 " />
			<path d="M-53.40350580318927,-44.43338076299549 L-55.055257926829796,-43.47389263089575 " />
			<path d="M-55.055257926829796,-43.47389263089575 L-54.688852112888505,-43.39778677368024 " />
			<path d="M-54.68885211288851,-43.39778677368024 L-53.03709998924798,-44.35727490577998 " />
			<path d="M-54.68885211288851,-43.39778677368024 L-52.69561203591476,-44.18620571689237 " />
			<path d="M-54.68885211288851,-43.39778677368024 L-54.34736415955529,-43.226717584792624 " />
			<path d="M-54.34736415955528,-43.226717584792624 L-52.69561203591475,-44.18620571689237 " />
			<path d="M-54.34736415955528,-43.226717584792624 L-52.402355244591824,-43.932014937180426 " />
			<path d="M-54.34736415955528,-43.226717584792624 L-54.05410736823236,-42.97252680508068 " />
			<path d="M-52.17743379826981,-42.1431279492942 L-54.05410736823236,-40.89543431093764 " />
			<path d="M-53.82918592191034,-41.183639817194454 L-54.05410736823235,-40.89543431093764 " />
			<path d="M-53.68770155429108,-42.28799949228844 L-53.68770155429108,-41.527815362726514 " />
			<path d="M-53.82918592191034,-42.65231085576076 L-53.68770155429107,-41.527815362726514 " />
			<path d="M-53.82918592191034,-42.65231085576076 L-53.82918592191034,-41.18363981719445 " />
			<path d="M-54.054107368232366,-42.97252680508068 L-53.82918592191035,-41.183639817194454 " />
			<path d="M-54.054107368232366,-42.97252680508068 L-54.054107368232366,-40.89543431093764 " />
			<path d="M-54.34736415955528,-43.226717584792624 L-54.05410736823236,-40.89543431093764 " />
			<path d="M-54.34736415955528,-43.226717584792624 L-54.34736415955528,-40.682979345995776 " />
			<path d="M-54.68885211288851,-43.39778677368024 L-54.34736415955529,-40.682979345995776 " />
			<path d="M-54.68885211288851,-43.39778677368024 L-54.68885211288851,-40.56051014997527 " />
			<path d="M-55.055257926829796,-43.47389263089575 L-54.688852112888505,-40.56051014997527 " />
			<path d="M-55.055257926829796,-43.47389263089575 L-55.055257926829796,-40.53655055376313 " />
			<path d="M-55.42166374077108,-43.449933034683596 L-55.055257926829796,-40.53655055376313 " />
			<path d="M-55.055257926829796,-43.47389263089575 L-55.42166374077108,-43.449933034683596 " />
			<path d="M-55.42166374077108,-43.449933034683596 L-55.42166374077108,-40.61265641097863 " />
			<path d="M-55.76315169410431,-43.32746383866309 L-55.42166374077108,-40.61265641097862 " />
			<path d="M-55.76315169410431,-43.32746383866309 L-55.76315169410431,-40.783725599866244 " />
			<path d="M-56.05640848542723,-43.11500887372123 L-55.76315169410431,-40.78372559986625 " />
			<path d="M-56.05640848542723,-43.11500887372123 L-56.05640848542723,-41.037916379578185 " />
			<path d="M-56.281329931749255,-42.82680336746442 L-56.056408485427234,-41.037916379578185 " />
			<path d="M-56.281329931749255,-42.82680336746442 L-56.281329931749255,-41.35813232889811 " />
			<path d="M-56.42281429936851,-42.48262782193235 L-56.28132993174925,-41.35813232889811 " />
			<path d="M-56.42281429936851,-42.48262782193235 L-56.42281429936851,-41.72244369237042 " />
			<path d="M-55.42166374077108,-43.449933034683596 L-53.40350580318926,-44.43338076299549 " />
			<path d="M-52.03594943065055,32.39533719154133 L-53.829185921910344,33.69900086917315 " />
			<path d="M-53.82918592191034,33.69900086917315 L-52.1774337982698,32.739512737073404 " />
			<path d="M-52.03594943065055,32.39533719154133 L-53.68770155429108,33.35482532364107 " />
			<path d="M-53.68770155429108,33.35482532364107 L-53.82918592191035,33.69900086917315 " />
			<path d="M-51.98771826864024,32.01867721580889 L-53.687701554291074,33.35482532364107 " />
			<path d="M-51.98771826864024,32.01867721580889 L-53.63947039228077,32.978165347908636 " />
			<path d="M-53.63947039228077,32.978165347908636 L-53.687701554291074,33.35482532364107 " />
			<path d="M-54.054107368232366,33.987206375429956 L-52.69561203591476,33.24017320827208 " />
			<path d="M-52.40235524459183,33.02771824333021 L-54.054107368232366,33.987206375429956 " />
			<path d="M-54.054107368232366,33.987206375429956 L-54.34736415955529,34.19966134037182 " />
			<path d="M-52.03594943065055,31.635153061979413 L-53.63947039228078,32.97816534790864 " />
			<path d="M-52.03594943065055,31.635153061979413 L-53.68770155429108,32.59464119407915 " />
			<path d="M-53.68770155429108,32.59464119407915 L-53.63947039228078,32.978165347908636 " />
			<path d="M-52.40235524459183,30.95062574918717 L-53.829185921910344,32.23032983060684 " />
			<path d="M-53.82918592191034,32.23032983060684 L-52.1774337982698,31.2708416985071 " />
			<path d="M-52.40235524459183,30.95062574918717 L-54.054107368232366,31.910113881286915 " />
			<path d="M-54.054107368232366,31.910113881286915 L-53.82918592191035,32.23032983060684 " />
			<path d="M-52.17743379826981,31.270841698507102 L-53.687701554291074,32.59464119407916 " />
			<path d="M-53.82918592191034,32.23032983060684 L-53.68770155429107,32.59464119407915 " />
			<path d="M-55.76315169410431,31.555176847704505 L-53.76991161713055,30.47321951958426 " />
			<path d="M-55.76315169410431,31.555176847704505 L-55.42166374077108,31.432707651684 " />
			<path d="M-55.42166374077108,31.432707651684 L-53.769911617130546,30.47321951958426 " />
			<path d="M-55.055257926829796,31.408748055471857 L-53.03709998924797,30.525365780587617 " />
			<path d="M-53.40350580318927,30.449259923372114 L-55.055257926829796,31.408748055471857 " />
			<path d="M-55.055257926829796,31.408748055471857 L-54.688852112888505,31.48485391268736 " />
			<path d="M-54.68885211288851,31.48485391268736 L-53.03709998924798,30.525365780587617 " />
			<path d="M-54.68885211288851,31.48485391268736 L-52.69561203591476,30.696434969475238 " />
			<path d="M-54.68885211288851,31.48485391268736 L-54.34736415955529,31.65592310157498 " />
			<path d="M-54.34736415955528,31.655923101574974 L-52.69561203591475,30.69643496947523 " />
			<path d="M-54.34736415955528,31.655923101574974 L-52.402355244591824,30.950625749187164 " />
			<path d="M-54.34736415955528,31.655923101574974 L-54.05410736823236,31.910113881286907 " />
			<path d="M-52.17743379826981,32.739512737073404 L-54.05410736823236,33.987206375429956 " />
			<path d="M-53.82918592191034,33.69900086917315 L-54.05410736823235,33.987206375429956 " />
			<path d="M-53.68770155429108,32.59464119407915 L-53.68770155429108,33.35482532364108 " />
			<path d="M-53.82918592191034,32.23032983060684 L-53.68770155429107,33.35482532364108 " />
			<path d="M-53.82918592191034,32.23032983060684 L-53.82918592191034,33.699000869173155 " />
			<path d="M-54.054107368232366,31.910113881286915 L-53.82918592191035,33.699000869173155 " />
			<path d="M-54.054107368232366,31.910113881286915 L-54.054107368232366,33.98720637542996 " />
			<path d="M-54.34736415955528,31.655923101574974 L-54.05410736823236,33.987206375429956 " />
			<path d="M-54.34736415955528,31.655923101574974 L-54.34736415955528,34.19966134037182 " />
			<path d="M-54.68885211288851,31.48485391268736 L-54.34736415955529,34.199661340371826 " />
			<path d="M-54.68885211288851,31.48485391268736 L-54.68885211288851,34.32213053639232 " />
			<path d="M-55.055257926829796,31.408748055471857 L-54.688852112888505,34.32213053639232 " />
			<path d="M-55.055257926829796,31.408748055471857 L-55.055257926829796,34.34609013260448 " />
			<path d="M-55.42166374077108,31.432707651684 L-55.055257926829796,34.34609013260447 " />
			<path d="M-55.055257926829796,31.408748055471857 L-55.42166374077108,31.432707651684 " />
			<path d="M-55.42166374077108,31.432707651684 L-55.42166374077108,34.269984275388964 " />
			<path d="M-55.76315169410431,31.555176847704505 L-55.42166374077108,34.269984275388964 " />
			<path d="M-55.76315169410431,31.555176847704505 L-55.76315169410431,34.09891508650135 " />
			<path d="M-56.05640848542723,31.767631812646368 L-55.76315169410431,34.09891508650136 " />
			<path d="M-56.05640848542723,31.767631812646368 L-56.05640848542723,33.844724306789416 " />
			<path d="M-56.281329931749255,32.05583731890318 L-56.056408485427234,33.84472430678941 " />
			<path d="M-56.281329931749255,32.05583731890318 L-56.281329931749255,33.52450835746949 " />
			<path d="M-56.42281429936851,32.40001286443525 L-56.28132993174925,33.52450835746949 " />
			<path d="M-56.42281429936851,32.40001286443525 L-56.42281429936851,33.160196993997175 " />
			<path d="M-55.42166374077108,31.432707651684 L-53.40350580318926,30.449259923372114 " />
			<path d="M58.404916847737155,-34.31158275251686 L58.404916847737155,-33.551398622954935 " />
			<path d="M58.404916847737155,-33.55139862295494 L58.453148009747466,-33.928058598687386 " />
			<path d="M58.453148009747466,-33.92805859868738 L58.404916847737155,-34.311582752516856 " />
			<path d="M58.2634324801179,-34.67589411598918 L58.40491684773716,-33.551398622954935 " />
			<path d="M58.404916847737155,-34.31158275251686 L58.26343248011789,-34.67589411598918 " />
			<path d="M58.2634324801179,-34.67589411598918 L58.2634324801179,-33.20722307742287 " />
			<path d="M58.2634324801179,-33.207223077422874 L58.40491684773716,-33.55139862295494 " />
			<path d="M58.03851103379587,-34.996110065309104 L58.26343248011789,-33.207223077422874 " />
			<path d="M58.2634324801179,-34.67589411598918 L58.03851103379588,-34.996110065309104 " />
			<path d="M58.03851103379587,-34.996110065309104 L58.03851103379587,-32.91901757116606 " />
			<path d="M58.03851103379587,-32.91901757116606 L58.26343248011789,-33.207223077422874 " />
			<path d="M57.74525424247295,-35.250300845021044 L58.03851103379587,-32.91901757116606 " />
			<path d="M58.03851103379587,-34.996110065309104 L57.74525424247295,-35.250300845021044 " />
			<path d="M57.74525424247295,-35.250300845021044 L57.74525424247295,-32.706562606224196 " />
			<path d="M57.74525424247295,-32.706562606224196 L58.03851103379587,-32.91901757116606 " />
			<path d="M57.403766289139725,-35.42137003390866 L57.74525424247295,-32.706562606224196 " />
			<path d="M57.74525424247295,-35.250300845021044 L57.403766289139725,-35.42137003390866 " />
			<path d="M57.403766289139725,-35.42137003390866 L57.403766289139725,-32.58409341020369 " />
			<path d="M57.03736047519844,-35.49747589112417 L57.403766289139725,-32.58409341020369 " />
			<path d="M57.403766289139725,-35.42137003390866 L57.03736047519844,-35.49747589112417 " />
			<path d="M57.03736047519844,-35.49747589112417 L57.03736047519844,-32.56013381399155 " />
			<path d="M56.67095466125714,-35.47351629491202 L57.03736047519843,-32.56013381399155 " />
			<path d="M57.03736047519844,-35.49747589112417 L56.67095466125715,-35.47351629491202 " />
			<path d="M56.67095466125714,-35.47351629491202 L56.67095466125714,-32.63623967120705 " />
			<path d="M56.32946670792393,-35.35104709889151 L56.67095466125715,-32.63623967120704 " />
			<path d="M56.67095466125714,-35.47351629491202 L56.32946670792392,-35.35104709889152 " />
			<path d="M56.32946670792393,-35.35104709889151 L56.32946670792393,-32.807308860094665 " />
			<path d="M56.036209916600995,-35.13859213394965 L56.32946670792392,-32.80730886009467 " />
			<path d="M56.036209916600995,-35.13859213394965 L56.036209916600995,-33.061499639806605 " />
			<path d="M55.81128847027898,-34.85038662769284 L56.036209916600995,-33.061499639806605 " />
			<path d="M55.81128847027898,-34.85038662769284 L55.81128847027898,-33.38171558912653 " />
			<path d="M55.66980410265971,-34.50621108216077 L55.81128847027898,-33.38171558912653 " />
			<path d="M55.66980410265971,-34.50621108216077 L55.66980410265971,-33.74602695259884 " />
			<path d="M60.05666897137768,-34.510886755054685 L58.26343248011789,-33.207223077422874 " />
			<path d="M58.2634324801179,-33.207223077422874 L59.91518460375843,-34.16671120952262 " />
			<path d="M60.05666897137768,-34.510886755054685 L58.404916847737155,-33.55139862295494 " />
			<path d="M60.10490013338799,-34.88754673078712 L58.404916847737155,-33.551398622954935 " />
			<path d="M60.10490013338799,-34.88754673078712 L58.453148009747466,-33.92805859868738 " />
			<path d="M59.915184603758426,-34.16671120952262 L58.03851103379587,-32.91901757116606 " />
			<path d="M58.03851103379587,-32.91901757116606 L59.690263157436405,-33.8785057032658 " />
			<path d="M59.6902631574364,-35.95559819740885 L58.26343248011789,-34.67589411598918 " />
			<path d="M58.2634324801179,-34.67589411598918 L59.91518460375843,-35.63538224808892 " />
			<path d="M59.6902631574364,-35.95559819740885 L58.03851103379587,-34.996110065309104 " />
			<path d="M56.32946670792393,-35.35104709889151 L58.322706784897676,-36.43300442701175 " />
			<path d="M56.67095466125714,-35.47351629491202 L58.322706784897676,-36.43300442701176 " />
			<path d="M59.915184603758426,-35.63538224808892 L58.404916847737155,-34.31158275251686 " />
			<path d="M58.404916847737155,-34.31158275251686 L60.05666897137769,-35.271070884616606 " />
			<path d="M57.403766289139725,-35.42137003390866 L59.39700636611348,-36.20978897712079 " />
			<path d="M59.05551841278025,-36.3808581660084 L57.403766289139725,-35.42137003390866 " />
			<path d="M57.74525424247295,-35.250300845021044 L59.39700636611349,-36.20978897712079 " />
			<path d="M57.74525424247295,-35.250300845021044 L59.690263157436405,-35.95559819740885 " />
			<path d="M58.03851103379587,-32.91901757116606 L59.39700636611348,-33.66605073832394 " />
			<path d="M60.05666897137768,-35.271070884616606 L58.45314800974746,-33.928058598687386 " />
			<path d="M56.67095466125714,-35.47351629491202 L58.68911259883897,-36.45696402322391 " />
			<path d="M57.03736047519844,-35.49747589112417 L58.689112598838975,-36.45696402322391 " />
			<path d="M57.03736047519844,-35.49747589112417 L59.05551841278026,-36.3808581660084 " />
			<path d="M58.404916847737155,40.57105793385073 L58.404916847737155,41.33124206341266 " />
			<path d="M58.404916847737155,41.33124206341265 L58.453148009747466,40.954582087680215 " />
			<path d="M58.453148009747466,40.954582087680215 L58.404916847737155,40.57105793385073 " />
			<path d="M58.2634324801179,40.20674657037842 L58.40491684773716,41.33124206341266 " />
			<path d="M58.404916847737155,40.57105793385073 L58.26343248011789,40.20674657037842 " />
			<path d="M58.2634324801179,40.20674657037842 L58.2634324801179,41.675417608944734 " />
			<path d="M58.2634324801179,41.67541760894473 L58.40491684773716,41.33124206341265 " />
			<path d="M58.03851103379587,39.88653062105849 L58.26343248011789,41.67541760894473 " />
			<path d="M58.2634324801179,40.20674657037842 L58.03851103379588,39.88653062105849 " />
			<path d="M58.03851103379587,39.88653062105849 L58.03851103379587,41.963623115201536 " />
			<path d="M58.03851103379587,41.963623115201536 L58.26343248011789,41.67541760894473 " />
			<path d="M57.74525424247295,39.63233984134655 L58.03851103379587,41.96362311520153 " />
			<path d="M58.03851103379587,39.88653062105849 L57.74525424247295,39.63233984134656 " />
			<path d="M57.74525424247295,39.63233984134655 L57.74525424247295,42.1760780801434 " />
			<path d="M57.74525424247295,42.1760780801434 L58.03851103379587,41.96362311520153 " />
			<path d="M57.403766289139725,39.461270652458936 L57.74525424247295,42.176078080143405 " />
			<path d="M57.74525424247295,39.63233984134655 L57.403766289139725,39.46127065245893 " />
			<path d="M57.403766289139725,39.461270652458936 L57.403766289139725,42.2985472761639 " />
			<path d="M57.03736047519844,39.38516479524343 L57.403766289139725,42.2985472761639 " />
			<path d="M57.403766289139725,39.461270652458936 L57.03736047519844,39.38516479524343 " />
			<path d="M57.03736047519844,39.38516479524343 L57.03736047519844,42.32250687237605 " />
			<path d="M56.67095466125714,39.40912439145558 L57.03736047519843,42.32250687237605 " />
			<path d="M57.03736047519844,39.38516479524343 L56.67095466125715,39.40912439145558 " />
			<path d="M56.67095466125714,39.40912439145558 L56.67095466125714,42.246401015160544 " />
			<path d="M56.32946670792393,39.53159358747608 L56.67095466125715,42.246401015160544 " />
			<path d="M56.67095466125714,39.40912439145558 L56.32946670792392,39.53159358747608 " />
			<path d="M56.32946670792393,39.53159358747608 L56.32946670792393,42.07533182627293 " />
			<path d="M56.036209916600995,39.744048552417944 L56.32946670792392,42.07533182627293 " />
			<path d="M56.036209916600995,39.744048552417944 L56.036209916600995,41.82114104656099 " />
			<path d="M55.81128847027898,40.03225405867476 L56.036209916600995,41.82114104656099 " />
			<path d="M55.81128847027898,40.03225405867476 L55.81128847027898,41.50092509724107 " />
			<path d="M55.66980410265971,40.37642960420683 L55.81128847027898,41.50092509724107 " />
			<path d="M55.66980410265971,40.37642960420683 L55.66980410265971,41.136613733768755 " />
			<path d="M60.05666897137768,40.37175393131291 L58.26343248011789,41.67541760894473 " />
			<path d="M58.2634324801179,41.67541760894473 L59.91518460375843,40.715929476844984 " />
			<path d="M60.05666897137768,40.37175393131291 L58.404916847737155,41.33124206341265 " />
			<path d="M60.10490013338799,39.99509395558047 L58.404916847737155,41.33124206341265 " />
			<path d="M60.10490013338799,39.99509395558047 L58.453148009747466,40.954582087680215 " />
			<path d="M59.915184603758426,40.715929476844984 L58.03851103379587,41.963623115201536 " />
			<path d="M58.03851103379587,41.963623115201536 L59.690263157436405,41.00413498310179 " />
			<path d="M59.6902631574364,38.92704248895875 L58.26343248011789,40.20674657037842 " />
			<path d="M58.2634324801179,40.20674657037842 L59.91518460375843,39.24725843827868 " />
			<path d="M59.6902631574364,38.92704248895875 L58.03851103379587,39.88653062105849 " />
			<path d="M56.32946670792393,39.53159358747608 L58.322706784897676,38.449636259355835 " />
			<path d="M56.67095466125714,39.40912439145558 L58.322706784897676,38.449636259355835 " />
			<path d="M59.915184603758426,39.24725843827868 L58.404916847737155,40.57105793385073 " />
			<path d="M58.404916847737155,40.57105793385073 L60.05666897137769,39.61156980175099 " />
			<path d="M57.403766289139725,39.461270652458936 L59.39700636611348,38.672851709246814 " />
			<path d="M59.05551841278025,38.50178252035919 L57.403766289139725,39.461270652458936 " />
			<path d="M57.74525424247295,39.63233984134655 L59.39700636611349,38.67285170924681 " />
			<path d="M57.74525424247295,39.63233984134655 L59.690263157436405,38.92704248895874 " />
			<path d="M58.03851103379587,41.963623115201536 L59.39700636611348,41.21658994804366 " />
			<path d="M60.05666897137768,39.61156980175099 L58.45314800974746,40.954582087680215 " />
			<path d="M56.67095466125714,39.40912439145558 L58.68911259883897,38.42567666314369 " />
			<path d="M57.03736047519844,39.38516479524343 L58.689112598838975,38.42567666314369 " />
			<path d="M57.03736047519844,39.38516479524343 L59.05551841278026,38.50178252035919 " />

       </g>

       <!-- solid lines -->
       <g  stroke="rgb(0,0,0)" fill="none">
			<path d="M62.653317695576234,48.75347607777458 L63.64436896976055,48.17778319851473 " />
			<path d="M63.64436896976055,48.17778319851473 L-61.662266421391934,39.2610680892854 " />
			<path d="M61.75665225702852,44.23058902109748 L61.75665225702852,-38.58855413487731 " />
			<path d="M61.75665225702852,-38.58855413487731 L-56.93023255175089,-47.03421334309293 " />
			<path d="M-61.66226642139192,39.2610680892854 L-61.66226642139192,-49.329168957034426 " />
			<path d="M-62.653317695576234,-48.75347607777458 L-62.653317695576234,39.83676096854525 " />
			<path d="M-62.653317695576234,39.83676096854525 L62.65331769557625,48.75347607777458 " />
			<path d="M-62.653317695576234,-48.75347607777458 L-61.66226642139191,39.261068089285416 " />
			<path d="M-61.66226642139192,39.2610680892854 L-62.653317695576234,39.83676096854525 " />
			<path d="M-62.653317695576234,-48.75347607777458 L-61.66226642139192,-49.329168957034426 " />
			<path d="M62.653317695576234,48.75347607777458 L-61.662266421391934,39.2610680892854 " />
			<path d="M61.095951077221876,-38.20475869013979 L61.74210669475527,44.22955397108206 " />
			<path d="M61.095951077221876,44.183574079117136 L61.095951077221876,-38.20475869013979 " />
			<path d="M61.095951077221876,-38.20475869013979 L61.75665225702851,-38.58855413487731 " />
			<path d="M-56.93023255175088,35.62834540579168 L-54.860076089165425,34.33332702175729 " />
			<path d="M-52.13075297631322,32.625956747580425 L55.88519821026782,-34.94509166529202 " />
			<path d="M58.184437515664065,-36.383416363737204 L61.09595107722186,-38.204758690139805 " />
			<path d="M-56.93023255175088,-46.603402956375064 L61.095951077221876,-38.20475869013979 " />
			<path d="M61.095951077221876,-38.20475869013979 L-56.93023255175088,-47.02407553968888 " />
			<path d="M63.64436896976055,48.17778319851473 L66.48868612666955,46.525544635038976 " />
			<path d="M66.48868612666955,46.525544635038976 L66.48868612666955,-42.06469241128085 " />
			<path d="M66.48868612666955,46.525544635038976 L64.60096941393752,44.43298824512326 " />
			<path d="M64.6009694139375,44.43298824512326 L66.48868612666953,-42.064692411280866 " />
			<path d="M66.48868612666955,46.525544635038976 L-56.93023255175089,35.78492981288187 " />
			<path d="M-56.93023255175088,35.78492981288186 L64.60096941393752,44.43298824512326 " />
			<path d="M-56.93023255175088,35.78492981288186 L-58.81794926448292,37.60882952580965 " />
			<path d="M-58.81794926448292,37.60882952580965 L-56.93023255175088,-48.88885113059448 " />
			<path d="M-56.93023255175088,-48.88885113059447 L-56.93023255175088,35.78492981288186 " />
			<path d="M66.48868612666955,46.525544635038976 L-58.817949264482934,37.608829525809654 " />
			<path d="M64.6009694139375,-40.24079269835307 L66.48868612666953,-42.06469241128085 " />
			<path d="M64.6009694139375,44.43298824512326 L64.6009694139375,-40.24079269835307 " />
			<path d="M-56.93023255175088,-48.88885113059447 L66.48868612666956,-42.06469241128085 " />
			<path d="M64.6009694139375,-40.24079269835307 L-56.93023255175089,-48.88885113059447 " />
			<path d="M-56.93023255175088,-48.88885113059447 L-58.81794926448292,-50.98140752051018 " />
			<path d="M-58.81794926448292,-50.98140752051018 L66.48868612666956,-42.06469241128086 " />
			<path d="M-58.81794926448292,37.60882952580965 L-58.81794926448292,-50.98140752051018 " />
			<path d="M-61.66226642139192,-49.329168957034426 L-58.81794926448293,37.608829525809654 " />
			<path d="M-58.81794926448292,37.60882952580965 L-61.66226642139191,39.2610680892854 " />
			<path d="M-61.66226642139192,-49.329168957034426 L-58.81794926448293,-50.98140752051018 " />
			<path d="M63.64436896976055,48.17778319851473 L-58.81794926448292,37.60882952580965 " />
			<path d="M61.75665225702852,-38.58855413487731 L64.60096941393752,44.432988245123255 " />
			<path d="M61.75665225702852,-38.58855413487731 L64.60096941393752,-40.24079269835307 " />
			<path d="M61.75665225702852,-38.58855413487731 L-56.930232551750876,-48.88885113059447 " />
			<path d="M-54.34736415955528,-40.682979345995776 L-53.03709998924797,-41.519998282075015 " />
			<path d="M-53.03709998924798,-41.519998282075015 L-52.695612035914756,-41.64246747809552 " />
			<path d="M-52.695612035914756,-41.64246747809552 L-54.34736415955528,-40.682979345995776 " />
			<path d="M-54.34736415955528,-40.682979345995776 L-54.688852112888505,-40.56051014997527 " />
			<path d="M-54.68885211288851,-40.56051014997527 L-53.03709998924798,-41.519998282075015 " />
			<path d="M-52.17743379826981,-42.1431279492942 L-52.03594943065054,-42.487303494826264 " />
			<path d="M-52.03594943065055,-42.487303494826264 L-51.98771826864024,-42.86396347055871 " />
			<path d="M-56.281329931749255,-41.358132328898115 L-54.4046563617867,-41.99740451167793 " />
			<path d="M-54.4046563617867,-41.99740451167793 L-56.05640848542723,-41.037916379578185 " />
			<path d="M-56.05640848542723,-41.037916379578185 L-56.28132993174925,-41.358132328898115 " />
			<path d="M-56.281329931749255,-41.358132328898115 L-54.62957780810872,-42.31762046099786 " />
			<path d="M-54.62957780810873,-42.31762046099786 L-54.40465636178671,-41.99740451167793 " />
			<path d="M-56.47104546137882,-42.10596784619991 L-54.771062175727984,-42.68193182447016 " />
			<path d="M-54.771062175727984,-42.68193182447017 L-56.42281429936851,-41.722443692370426 " />
			<path d="M-56.42281429936851,-41.722443692370426 L-56.47104546137882,-42.10596784619991 " />
			<path d="M-56.47104546137882,-42.10596784619991 L-54.81929333773829,-43.06545597829965 " />
			<path d="M-54.819293337738294,-43.06545597829965 L-54.771062175727984,-42.68193182447017 " />
			<path d="M-52.695612035914756,-41.64246747809552 L-52.40235524459183,-41.854922443037374 " />
			<path d="M-55.055257926829796,-40.53655055376313 L-53.76991161713055,-41.57214454307837 " />
			<path d="M-53.76991161713055,-41.57214454307837 L-53.40350580318927,-41.49603868586287 " />
			<path d="M-53.40350580318927,-41.49603868586287 L-55.055257926829796,-40.53655055376313 " />
			<path d="M-55.055257926829796,-40.53655055376313 L-55.42166374077108,-40.61265641097863 " />
			<path d="M-55.42166374077108,-40.61265641097863 L-53.769911617130546,-41.57214454307837 " />
			<path d="M-51.98771826864024,-42.8639634705587 L-52.03594943065055,-43.24748762438818 " />
			<path d="M-56.42281429936851,-42.48262782193235 L-54.81929333773829,-43.06545597829965 " />
			<path d="M-56.47104546137882,-42.10596784619991 L-56.42281429936851,-42.48262782193235 " />
			<path d="M-56.42281429936851,-42.48262782193235 L-54.77106217572798,-43.44211595403209 " />
			<path d="M-54.771062175727984,-43.44211595403209 L-54.819293337738294,-43.06545597829965 " />
			<path d="M-55.42166374077108,-40.61265641097863 L-54.111399570463774,-41.743213731965994 " />
			<path d="M-54.11139957046378,-41.74321373196599 L-53.76991161713055,-41.572144543078366 " />
			<path d="M-55.42166374077108,-40.61265641097863 L-55.76315169410431,-40.78372559986625 " />
			<path d="M-55.76315169410431,-40.783725599866244 L-54.111399570463774,-41.74321373196599 " />
			<path d="M-56.281329931749255,-42.82680336746442 L-54.771062175727984,-43.44211595403209 " />
			<path d="M-56.42281429936851,-42.48262782193235 L-56.28132993174925,-42.82680336746442 " />
			<path d="M-56.281329931749255,-42.82680336746442 L-54.62957780810872,-43.786291499564165 " />
			<path d="M-54.62957780810873,-43.786291499564165 L-54.77106217572799,-43.44211595403209 " />
			<path d="M-52.17743379826981,-43.6117989878605 L-52.402355244591824,-43.932014937180426 " />
			<path d="M-55.76315169410431,-40.783725599866244 L-54.4046563617867,-41.99740451167792 " />
			<path d="M-54.4046563617867,-41.99740451167793 L-54.11139957046378,-41.743213731965994 " />
			<path d="M-55.76315169410431,-40.783725599866244 L-56.05640848542723,-41.03791637957818 " />
			<path d="M-52.03594943065055,-43.247487624388185 L-52.17743379826982,-43.6117989878605 " />
			<path d="M-53.76991161713055,-44.40942116678334 L-54.11139957046378,-44.28695197076284 " />
			<path d="M-54.11139957046378,-44.286951970762836 L-55.76315169410431,-43.32746383866309 " />
			<path d="M-56.05640848542723,-43.11500887372123 L-54.62957780810872,-43.786291499564165 " />
			<path d="M-56.281329931749255,-42.82680336746442 L-56.056408485427234,-43.11500887372123 " />
			<path d="M-56.05640848542723,-43.11500887372123 L-54.40465636178669,-44.07449700582097 " />
			<path d="M-54.4046563617867,-44.07449700582097 L-54.62957780810872,-43.786291499564165 " />
			<path d="M-52.03594943065055,-42.487303494826264 L-52.03594943065055,-43.247487624388185 " />
			<path d="M-52.17743379826981,-42.1431279492942 L-52.03594943065054,-43.247487624388185 " />
			<path d="M-52.17743379826981,-42.1431279492942 L-52.17743379826981,-43.61179898786051 " />
			<path d="M-52.40235524459183,-41.85492244303738 L-52.17743379826982,-43.61179898786051 " />
			<path d="M-52.17743379826981,-42.1431279492942 L-52.402355244591824,-41.85492244303738 " />
			<path d="M-52.40235524459183,-41.85492244303738 L-52.40235524459183,-43.932014937180426 " />
			<path d="M-52.695612035914756,-41.64246747809552 L-52.40235524459183,-43.932014937180426 " />
			<path d="M-52.695612035914756,-41.64246747809552 L-52.695612035914756,-44.18620571689237 " />
			<path d="M-52.695612035914756,-44.18620571689237 L-52.40235524459183,-43.932014937180426 " />
			<path d="M-53.03709998924798,-41.519998282075015 L-52.695612035914756,-44.18620571689237 " />
			<path d="M-53.03709998924798,-41.519998282075015 L-53.03709998924798,-44.35727490577998 " />
			<path d="M-53.03709998924798,-44.35727490577998 L-52.695612035914756,-44.18620571689237 " />
			<path d="M-53.40350580318927,-41.49603868586287 L-53.03709998924798,-44.35727490577998 " />
			<path d="M-53.03709998924798,-41.519998282075015 L-53.40350580318927,-41.49603868586287 " />
			<path d="M-53.40350580318927,-41.49603868586287 L-53.40350580318927,-44.43338076299549 " />
			<path d="M-53.40350580318927,-44.43338076299549 L-53.03709998924798,-44.35727490577998 " />
			<path d="M-53.76991161713055,-41.57214454307837 L-53.40350580318927,-44.43338076299549 " />
			<path d="M-53.76991161713055,-41.57214454307837 L-53.76991161713055,-44.40942116678334 " />
			<path d="M-53.76991161713055,-44.40942116678334 L-53.40350580318927,-44.43338076299549 " />
			<path d="M-54.11139957046378,-41.74321373196599 L-53.76991161713055,-44.40942116678333 " />
			<path d="M-54.11139957046378,-41.74321373196599 L-54.11139957046378,-44.286951970762836 " />
			<path d="M-54.4046563617867,-41.99740451167793 L-54.11139957046378,-44.28695197076284 " />
			<path d="M-54.4046563617867,-41.99740451167793 L-54.4046563617867,-44.07449700582097 " />
			<path d="M-54.4046563617867,-44.07449700582097 L-54.11139957046378,-44.28695197076284 " />
			<path d="M-54.62957780810873,-42.31762046099786 L-54.40465636178671,-44.07449700582098 " />
			<path d="M-54.62957780810873,-42.31762046099786 L-54.62957780810873,-43.78629149956417 " />
			<path d="M-54.771062175727984,-42.68193182447017 L-54.62957780810872,-43.786291499564165 " />
			<path d="M-54.62957780810873,-42.31762046099786 L-54.77106217572799,-42.68193182447017 " />
			<path d="M-54.771062175727984,-42.68193182447017 L-54.771062175727984,-43.44211595403209 " />
			<path d="M-56.42281429936851,-41.722443692370426 L-54.62957780810872,-42.31762046099786 " />
			<path d="M-56.281329931749255,-41.358132328898115 L-56.42281429936852,-41.722443692370426 " />
			<path d="M-56.05640848542723,-43.11500887372123 L-54.111399570463774,-44.286951970762836 " />
			<path d="M-56.05640848542723,-43.11500887372123 L-55.76315169410431,-43.3274638386631 " />
			<path d="M-54.68885211288851,-40.56051014997527 L-53.403505803189276,-41.49603868586287 " />
			<path d="M-54.68885211288851,-40.56051014997527 L-55.0552579268298,-40.53655055376313 " />
			<path d="M-54.34736415955528,34.19966134037182 L-53.03709998924797,33.36264240429257 " />
			<path d="M-53.03709998924798,33.36264240429258 L-52.695612035914756,33.24017320827208 " />
			<path d="M-52.695612035914756,33.240173208272076 L-54.34736415955528,34.19966134037182 " />
			<path d="M-54.34736415955528,34.19966134037182 L-54.688852112888505,34.322130536392315 " />
			<path d="M-54.68885211288851,34.32213053639232 L-53.03709998924798,33.36264240429258 " />
			<path d="M-52.17743379826981,32.739512737073404 L-52.03594943065054,32.39533719154133 " />
			<path d="M-52.03594943065055,32.39533719154133 L-51.98771826864024,32.01867721580889 " />
			<path d="M-52.03594943065055,32.39533719154133 L-52.03594943065055,31.635153061979405 " />
			<path d="M-52.03594943065055,31.635153061979413 L-51.98771826864024,32.0186772158089 " />
			<path d="M-52.17743379826981,32.739512737073404 L-52.03594943065054,31.635153061979405 " />
			<path d="M-52.17743379826981,32.739512737073404 L-52.17743379826981,31.270841698507095 " />
			<path d="M-52.17743379826981,31.270841698507102 L-52.03594943065054,31.635153061979413 " />
			<path d="M-52.40235524459183,33.02771824333021 L-52.17743379826982,31.27084169850709 " />
			<path d="M-52.17743379826981,32.739512737073404 L-52.402355244591824,33.02771824333021 " />
			<path d="M-52.40235524459183,33.02771824333021 L-52.40235524459183,30.950625749187164 " />
			<path d="M-52.40235524459183,30.95062574918717 L-52.17743379826982,31.2708416985071 " />
			<path d="M-52.695612035914756,33.240173208272076 L-52.40235524459183,30.95062574918716 " />
			<path d="M-52.40235524459183,33.02771824333021 L-52.695612035914756,33.240173208272076 " />
			<path d="M-52.695612035914756,33.240173208272076 L-52.695612035914756,30.696434969475227 " />
			<path d="M-52.695612035914756,30.69643496947523 L-52.40235524459183,30.950625749187164 " />
			<path d="M-53.03709998924798,33.36264240429258 L-52.695612035914756,30.696434969475234 " />
			<path d="M-53.03709998924798,33.36264240429258 L-53.03709998924798,30.525365780587613 " />
			<path d="M-53.03709998924798,30.525365780587617 L-52.695612035914756,30.696434969475238 " />
			<path d="M-53.40350580318927,33.38660200050473 L-53.03709998924798,30.525365780587613 " />
			<path d="M-53.03709998924798,33.36264240429258 L-53.40350580318927,33.38660200050473 " />
			<path d="M-53.40350580318927,33.38660200050473 L-53.40350580318927,30.44925992337211 " />
			<path d="M-53.40350580318927,30.449259923372114 L-53.03709998924798,30.525365780587617 " />
			<path d="M-53.76991161713055,33.31049614328922 L-53.40350580318927,30.44925992337211 " />
			<path d="M-53.40350580318927,33.38660200050473 L-53.76991161713055,33.31049614328922 " />
			<path d="M-53.76991161713055,33.31049614328922 L-53.76991161713055,30.473219519584255 " />
			<path d="M-53.76991161713055,30.47321951958426 L-53.40350580318927,30.449259923372114 " />
			<path d="M-54.11139957046378,33.13942695440161 L-53.76991161713055,30.473219519584255 " />
			<path d="M-53.76991161713055,33.31049614328922 L-54.11139957046378,33.13942695440161 " />
			<path d="M-54.11139957046378,33.13942695440161 L-54.11139957046378,30.59568871560476 " />
			<path d="M-54.11139957046378,30.595688715604762 L-53.76991161713055,30.47321951958426 " />
			<path d="M-54.4046563617867,32.885236174689666 L-54.11139957046378,30.59568871560476 " />
			<path d="M-54.11139957046378,33.13942695440161 L-54.4046563617867,32.885236174689666 " />
			<path d="M-54.4046563617867,32.885236174689666 L-54.4046563617867,30.808143680546618 " />
			<path d="M-54.4046563617867,30.808143680546625 L-54.11139957046378,30.595688715604766 " />
			<path d="M-54.62957780810873,32.56502022536974 L-54.40465636178671,30.808143680546618 " />
			<path d="M-54.4046563617867,32.885236174689666 L-54.62957780810872,32.56502022536974 " />
			<path d="M-54.62957780810873,32.56502022536974 L-54.62957780810873,31.096349186803433 " />
			<path d="M-54.62957780810873,31.09634918680344 L-54.40465636178671,30.808143680546625 " />
			<path d="M-54.771062175727984,32.200708861897425 L-54.62957780810872,31.096349186803433 " />
			<path d="M-54.62957780810873,32.56502022536974 L-54.77106217572799,32.200708861897425 " />
			<path d="M-54.771062175727984,32.200708861897425 L-54.771062175727984,31.4405247323355 " />
			<path d="M-54.771062175727984,31.440524732335508 L-54.62957780810872,31.09634918680344 " />
			<path d="M-54.771062175727984,32.200708861897425 L-54.819293337738294,31.817184708067945 " />
			<path d="M-54.819293337738294,31.817184708067945 L-54.771062175727984,31.4405247323355 " />
			<path d="M-56.281329931749255,33.524508357469486 L-54.4046563617867,32.885236174689666 " />
			<path d="M-54.4046563617867,32.885236174689666 L-56.05640848542723,33.84472430678941 " />
			<path d="M-56.05640848542723,33.84472430678941 L-56.28132993174925,33.524508357469486 " />
			<path d="M-56.281329931749255,33.524508357469486 L-54.62957780810872,32.56502022536974 " />
			<path d="M-56.47104546137882,32.776672840167684 L-54.771062175727984,32.200708861897425 " />
			<path d="M-54.771062175727984,32.200708861897425 L-56.42281429936851,33.16019699399717 " />
			<path d="M-56.42281429936851,33.16019699399717 L-56.47104546137882,32.77667284016769 " />
			<path d="M-56.47104546137882,32.776672840167684 L-54.81929333773829,31.81718470806794 " />
			<path d="M-55.055257926829796,34.34609013260447 L-53.76991161713055,33.31049614328922 " />
			<path d="M-53.40350580318927,33.38660200050473 L-55.055257926829796,34.34609013260447 " />
			<path d="M-55.055257926829796,34.34609013260447 L-55.42166374077108,34.269984275388964 " />
			<path d="M-55.42166374077108,34.269984275388964 L-53.769911617130546,33.31049614328922 " />
			<path d="M-56.42281429936851,32.40001286443525 L-54.81929333773829,31.81718470806795 " />
			<path d="M-56.47104546137882,32.776672840167684 L-56.42281429936851,32.40001286443524 " />
			<path d="M-56.42281429936851,32.40001286443525 L-54.77106217572798,31.440524732335504 " />
			<path d="M-55.42166374077108,34.269984275388964 L-54.111399570463774,33.13942695440161 " />
			<path d="M-55.42166374077108,34.269984275388964 L-55.76315169410431,34.09891508650135 " />
			<path d="M-55.76315169410431,34.09891508650135 L-54.111399570463774,33.13942695440161 " />
			<path d="M-56.281329931749255,32.05583731890318 L-54.771062175727984,31.440524732335504 " />
			<path d="M-56.42281429936851,32.40001286443525 L-56.28132993174925,32.05583731890318 " />
			<path d="M-56.281329931749255,32.05583731890318 L-54.62957780810872,31.096349186803437 " />
			<path d="M-55.76315169410431,34.09891508650135 L-54.4046563617867,32.885236174689666 " />
			<path d="M-55.76315169410431,34.09891508650135 L-56.05640848542723,33.84472430678941 " />
			<path d="M-54.11139957046378,30.595688715604762 L-55.76315169410431,31.555176847704505 " />
			<path d="M-56.05640848542723,31.767631812646368 L-54.62957780810872,31.09634918680344 " />
			<path d="M-56.281329931749255,32.05583731890318 L-56.056408485427234,31.767631812646364 " />
			<path d="M-56.05640848542723,31.767631812646368 L-54.40465636178669,30.808143680546625 " />
			<path d="M-56.42281429936851,33.16019699399717 L-54.62957780810872,32.56502022536974 " />
			<path d="M-56.281329931749255,33.524508357469486 L-56.42281429936852,33.16019699399717 " />
			<path d="M-56.05640848542723,31.767631812646368 L-54.111399570463774,30.595688715604766 " />
			<path d="M-56.05640848542723,31.767631812646368 L-55.76315169410431,31.55517684770451 " />
			<path d="M-54.68885211288851,34.32213053639232 L-53.403505803189276,33.38660200050473 " />
			<path d="M-54.68885211288851,34.32213053639232 L-55.0552579268298,34.34609013260447 " />
			<path d="M57.403766289139725,-32.58409341020369 L57.74525424247295,-32.706562606224196 " />
			<path d="M57.03736047519844,-32.56013381399155 L57.403766289139725,-32.58409341020369 " />
			<path d="M56.67095466125714,-32.63623967120705 L57.03736047519843,-32.56013381399155 " />
			<path d="M56.32946670792393,-32.807308860094665 L56.67095466125715,-32.63623967120704 " />
			<path d="M56.32946670792393,-35.35104709889151 L56.036209916601,-35.13859213394965 " />
			<path d="M56.036209916600995,-33.061499639806605 L56.32946670792392,-32.80730886009467 " />
			<path d="M56.036209916600995,-35.13859213394965 L55.81128847027898,-34.85038662769284 " />
			<path d="M55.81128847027898,-33.381715589126536 L56.036209916600995,-33.061499639806605 " />
			<path d="M55.81128847027898,-34.85038662769284 L55.66980410265971,-34.50621108216077 " />
			<path d="M55.66980410265971,-33.74602695259885 L55.81128847027898,-33.381715589126536 " />
			<path d="M55.66980410265971,-34.50621108216077 L55.62157294064941,-34.12955110642833 " />
			<path d="M55.621572940649415,-34.12955110642833 L55.66980410265972,-33.74602695259885 " />
			<path d="M59.915184603758426,-34.16671120952262 L60.05666897137769,-34.510886755054685 " />
			<path d="M60.05666897137768,-34.510886755054685 L60.10490013338799,-34.88754673078713 " />
			<path d="M59.6902631574364,-33.8785057032658 L59.91518460375842,-34.16671120952262 " />
			<path d="M59.915184603758426,-35.63538224808892 L59.690263157436405,-35.95559819740885 " />
			<path d="M56.67095466125714,-32.63623967120705 L57.981218831564455,-33.766796992194415 " />
			<path d="M57.981218831564455,-33.76679699219441 L58.322706784897676,-33.59572780330679 " />
			<path d="M58.322706784897676,-33.595727803306794 L56.67095466125714,-32.63623967120705 " />
			<path d="M56.32946670792393,-32.807308860094665 L57.98121883156446,-33.76679699219441 " />
			<path d="M58.322706784897676,-36.43300442701176 L57.981218831564455,-36.31053523099126 " />
			<path d="M57.981218831564455,-36.310535230991256 L56.32946670792393,-35.35104709889151 " />
			<path d="M55.81128847027898,-34.85038662769284 L57.321556226300245,-35.46569921426051 " />
			<path d="M57.321556226300245,-35.46569921426051 L55.66980410265971,-34.50621108216077 " />
			<path d="M55.81128847027898,-34.85038662769284 L57.463040593919516,-35.809874759792585 " />
			<path d="M57.46304059391951,-35.809874759792585 L57.32155622630024,-35.46569921426051 " />
			<path d="M60.05666897137768,-35.271070884616606 L59.91518460375842,-35.63538224808892 " />
			<path d="M59.39700636611348,-36.20978897712079 L59.05551841278025,-36.3808581660084 " />
			<path d="M59.6902631574364,-35.95559819740885 L59.39700636611348,-36.20978897712079 " />
			<path d="M59.39700636611348,-33.66605073832394 L59.6902631574364,-33.8785057032658 " />
			<path d="M57.74525424247295,-32.706562606224196 L59.39700636611349,-33.66605073832394 " />
			<path d="M55.66980410265971,-34.50621108216077 L57.27332506428994,-35.08903923852807 " />
			<path d="M57.27332506428994,-35.08903923852807 L55.621572940649415,-34.12955110642833 " />
			<path d="M57.321556226300245,-35.46569921426051 L57.27332506428994,-35.08903923852807 " />
			<path d="M57.403766289139725,-32.58409341020369 L58.68911259883897,-33.51962194609129 " />
			<path d="M58.68911259883897,-33.51962194609129 L59.05551841278025,-33.543581542303436 " />
			<path d="M59.05551841278025,-33.543581542303436 L57.403766289139725,-32.58409341020369 " />
			<path d="M57.03736047519844,-32.56013381399155 L58.689112598838975,-33.51962194609129 " />
			<path d="M55.81128847027898,-33.381715589126536 L57.68796204024153,-34.02098777190635 " />
			<path d="M57.68796204024153,-34.02098777190635 L56.036209916600995,-33.061499639806605 " />
			<path d="M55.81128847027898,-33.381715589126536 L57.463040593919516,-34.34120372122628 " />
			<path d="M57.46304059391951,-34.34120372122628 L57.68796204024152,-34.02098777190635 " />
			<path d="M57.03736047519844,-32.56013381399155 L58.322706784897676,-33.595727803306794 " />
			<path d="M58.322706784897676,-33.595727803306794 L58.68911259883897,-33.51962194609129 " />
			<path d="M55.621572940649415,-34.12955110642833 L57.321556226300245,-34.70551508469859 " />
			<path d="M57.321556226300245,-34.70551508469859 L55.66980410265971,-33.74602695259885 " />
			<path d="M57.27332506428994,-35.08903923852807 L57.321556226300245,-34.70551508469859 " />
			<path d="M55.66980410265971,-33.74602695259885 L57.46304059391951,-34.34120372122628 " />
			<path d="M57.321556226300245,-34.70551508469859 L57.463040593919516,-34.34120372122628 " />
			<path d="M56.32946670792393,-32.807308860094665 L57.68796204024153,-34.02098777190634 " />
			<path d="M57.68796204024153,-34.02098777190635 L57.981218831564455,-33.766796992194415 " />
			<path d="M60.10490013338799,-34.88754673078712 L60.05666897137768,-35.2710708846166 " />
			<path d="M57.74525424247295,-32.706562606224196 L59.05551841278026,-33.543581542303436 " />
			<path d="M59.05551841278025,-33.543581542303436 L59.39700636611348,-33.66605073832394 " />
			<path d="M58.68911259883897,-36.45696402322391 L58.322706784897676,-36.43300442701176 " />
			<path d="M59.05551841278025,-36.3808581660084 L58.68911259883897,-36.45696402322391 " />
			<path d="M56.036209916600995,-35.13859213394965 L57.46304059391951,-35.809874759792585 " />
			<path d="M56.036209916600995,-35.13859213394965 L57.68796204024153,-36.098080266049394 " />
			<path d="M57.68796204024153,-36.098080266049394 L57.463040593919516,-35.809874759792585 " />
			<path d="M60.05666897137768,-34.510886755054685 L60.05666897137768,-35.271070884616606 " />
			<path d="M59.915184603758426,-34.16671120952262 L60.05666897137769,-35.271070884616606 " />
			<path d="M59.915184603758426,-34.16671120952262 L59.915184603758426,-35.63538224808893 " />
			<path d="M59.6902631574364,-33.8785057032658 L59.91518460375842,-35.63538224808893 " />
			<path d="M59.6902631574364,-33.8785057032658 L59.6902631574364,-35.95559819740885 " />
			<path d="M59.39700636611348,-33.66605073832394 L59.6902631574364,-35.95559819740885 " />
			<path d="M59.39700636611348,-33.66605073832394 L59.39700636611348,-36.20978897712079 " />
			<path d="M59.05551841278025,-33.543581542303436 L59.39700636611348,-36.20978897712079 " />
			<path d="M59.05551841278025,-33.543581542303436 L59.05551841278025,-36.3808581660084 " />
			<path d="M58.68911259883897,-33.51962194609129 L59.05551841278025,-36.3808581660084 " />
			<path d="M58.68911259883897,-33.51962194609129 L58.68911259883897,-36.45696402322391 " />
			<path d="M58.322706784897676,-33.595727803306794 L58.68911259883897,-36.45696402322391 " />
			<path d="M58.322706784897676,-33.595727803306794 L58.322706784897676,-36.43300442701176 " />
			<path d="M57.981218831564455,-33.76679699219441 L58.322706784897676,-36.43300442701175 " />
			<path d="M57.981218831564455,-33.76679699219441 L57.981218831564455,-36.310535230991256 " />
			<path d="M57.68796204024153,-34.02098777190635 L57.981218831564455,-36.31053523099126 " />
			<path d="M57.68796204024153,-34.02098777190635 L57.68796204024153,-36.098080266049394 " />
			<path d="M57.68796204024153,-36.098080266049394 L57.981218831564455,-36.310535230991256 " />
			<path d="M57.46304059391951,-34.34120372122628 L57.68796204024152,-36.0980802660494 " />
			<path d="M57.46304059391951,-34.34120372122628 L57.46304059391951,-35.80987475979259 " />
			<path d="M57.321556226300245,-34.70551508469859 L57.463040593919516,-35.809874759792585 " />
			<path d="M57.321556226300245,-34.70551508469859 L57.321556226300245,-35.46569921426051 " />
			<path d="M56.036209916600995,-35.13859213394965 L57.981218831564455,-36.310535230991256 " />
			<path d="M57.403766289139725,42.2985472761639 L57.74525424247295,42.176078080143405 " />
			<path d="M57.03736047519844,42.32250687237605 L57.403766289139725,42.2985472761639 " />
			<path d="M56.67095466125714,42.246401015160544 L57.03736047519843,42.32250687237605 " />
			<path d="M56.32946670792393,42.07533182627293 L56.67095466125715,42.246401015160544 " />
			<path d="M56.32946670792393,39.53159358747608 L56.036209916601,39.74404855241794 " />
			<path d="M56.036209916600995,41.82114104656099 L56.32946670792392,42.07533182627293 " />
			<path d="M56.036209916600995,39.744048552417944 L55.81128847027898,40.03225405867476 " />
			<path d="M55.81128847027898,41.500925097241065 L56.036209916600995,41.82114104656099 " />
			<path d="M55.81128847027898,40.03225405867476 L55.66980410265971,40.37642960420683 " />
			<path d="M55.66980410265971,41.13661373376875 L55.81128847027898,41.500925097241065 " />
			<path d="M55.66980410265971,40.37642960420683 L55.62157294064941,40.75308957993927 " />
			<path d="M55.621572940649415,40.753089579939264 L55.66980410265972,41.13661373376874 " />
			<path d="M59.915184603758426,40.715929476844984 L60.05666897137769,40.37175393131291 " />
			<path d="M60.05666897137768,40.37175393131291 L60.10490013338799,39.99509395558047 " />
			<path d="M59.6902631574364,41.00413498310179 L59.91518460375842,40.715929476844984 " />
			<path d="M59.915184603758426,39.24725843827868 L59.690263157436405,38.92704248895875 " />
			<path d="M56.67095466125714,42.246401015160544 L57.981218831564455,41.115843694173186 " />
			<path d="M57.981218831564455,41.115843694173186 L58.322706784897676,41.2869128830608 " />
			<path d="M58.322706784897676,41.2869128830608 L56.67095466125714,42.246401015160544 " />
			<path d="M56.32946670792393,42.07533182627293 L57.98121883156446,41.115843694173186 " />
			<path d="M58.322706784897676,38.449636259355835 L57.981218831564455,38.57210545537634 " />
			<path d="M57.981218831564455,38.57210545537634 L56.32946670792393,39.53159358747608 " />
			<path d="M55.81128847027898,40.03225405867476 L57.321556226300245,39.416941472107084 " />
			<path d="M57.321556226300245,39.416941472107084 L55.66980410265971,40.37642960420683 " />
			<path d="M55.81128847027898,40.03225405867476 L57.463040593919516,39.072765926575016 " />
			<path d="M57.46304059391951,39.072765926575016 L57.32155622630024,39.416941472107084 " />
			<path d="M60.05666897137768,39.61156980175099 L59.91518460375842,39.24725843827868 " />
			<path d="M59.39700636611348,38.67285170924681 L59.05551841278025,38.501782520359185 " />
			<path d="M59.6902631574364,38.92704248895875 L59.39700636611348,38.672851709246814 " />
			<path d="M57.03736047519844,42.32250687237605 L58.322706784897676,41.2869128830608 " />
			<path d="M58.322706784897676,41.2869128830608 L58.68911259883897,41.36301874027631 " />
			<path d="M58.68911259883897,41.36301874027631 L57.03736047519844,42.32250687237605 " />
			<path d="M59.39700636611348,41.216589948043655 L59.6902631574364,41.004134983101785 " />
			<path d="M57.74525424247295,42.1760780801434 L59.39700636611349,41.216589948043655 " />
			<path d="M55.66980410265971,40.37642960420683 L57.27332506428994,39.79360144783953 " />
			<path d="M57.27332506428994,39.79360144783952 L55.621572940649415,40.753089579939264 " />
			<path d="M57.321556226300245,39.416941472107084 L57.27332506428994,39.79360144783953 " />
			<path d="M57.403766289139725,42.2985472761639 L58.68911259883897,41.36301874027631 " />
			<path d="M58.68911259883897,41.36301874027631 L59.05551841278025,41.33905914406416 " />
			<path d="M59.05551841278025,41.33905914406416 L57.403766289139725,42.2985472761639 " />
			<path d="M55.81128847027898,41.500925097241065 L57.68796204024153,40.861652914461246 " />
			<path d="M57.68796204024153,40.861652914461246 L56.036209916600995,41.82114104656099 " />
			<path d="M55.81128847027898,41.500925097241065 L57.463040593919516,40.54143696514132 " />
			<path d="M57.46304059391951,40.54143696514132 L57.68796204024152,40.861652914461246 " />
			<path d="M55.621572940649415,40.753089579939264 L57.321556226300245,40.177125601669 " />
			<path d="M57.321556226300245,40.177125601669005 L55.66980410265971,41.13661373376875 " />
			<path d="M57.27332506428994,39.79360144783952 L57.321556226300245,40.177125601669 " />
			<path d="M55.66980410265971,41.13661373376875 L57.46304059391951,40.54143696514132 " />
			<path d="M57.321556226300245,40.177125601669005 L57.463040593919516,40.54143696514132 " />
			<path d="M56.32946670792393,42.07533182627293 L57.68796204024153,40.861652914461246 " />
			<path d="M57.68796204024153,40.861652914461246 L57.981218831564455,41.115843694173186 " />
			<path d="M60.10490013338799,39.99509395558047 L60.05666897137768,39.61156980175099 " />
			<path d="M57.74525424247295,42.1760780801434 L59.05551841278026,41.33905914406415 " />
			<path d="M59.05551841278025,41.33905914406416 L59.39700636611348,41.21658994804366 " />
			<path d="M58.68911259883897,38.42567666314369 L58.322706784897676,38.449636259355835 " />
			<path d="M59.05551841278025,38.50178252035919 L58.68911259883897,38.42567666314369 " />
			<path d="M56.036209916600995,39.744048552417944 L57.46304059391951,39.072765926575016 " />
			<path d="M56.036209916600995,39.744048552417944 L57.68796204024153,38.7845604203182 " />
			<path d="M57.68796204024153,38.7845604203182 L57.463040593919516,39.072765926575016 " />
			<path d="M60.05666897137768,40.37175393131291 L60.05666897137768,39.61156980175099 " />
			<path d="M59.915184603758426,40.715929476844984 L60.05666897137769,39.61156980175099 " />
			<path d="M59.915184603758426,40.715929476844984 L59.915184603758426,39.24725843827867 " />
			<path d="M59.6902631574364,41.00413498310179 L59.91518460375842,39.24725843827867 " />
			<path d="M59.6902631574364,41.00413498310179 L59.6902631574364,38.92704248895875 " />
			<path d="M59.39700636611348,41.216589948043655 L59.6902631574364,38.92704248895874 " />
			<path d="M59.39700636611348,41.216589948043655 L59.39700636611348,38.67285170924681 " />
			<path d="M59.05551841278025,41.33905914406416 L59.39700636611348,38.672851709246814 " />
			<path d="M59.05551841278025,41.33905914406416 L59.05551841278025,38.50178252035919 " />
			<path d="M58.68911259883897,41.36301874027631 L59.05551841278025,38.50178252035919 " />
			<path d="M58.68911259883897,41.36301874027631 L58.68911259883897,38.42567666314369 " />
			<path d="M58.322706784897676,41.2869128830608 L58.68911259883897,38.42567666314369 " />
			<path d="M58.322706784897676,41.2869128830608 L58.322706784897676,38.449636259355835 " />
			<path d="M57.981218831564455,41.115843694173186 L58.322706784897676,38.449636259355835 " />
			<path d="M57.981218831564455,41.115843694173186 L57.981218831564455,38.57210545537634 " />
			<path d="M57.68796204024153,40.861652914461246 L57.981218831564455,38.57210545537634 " />
			<path d="M57.68796204024153,40.861652914461246 L57.68796204024153,38.7845604203182 " />
			<path d="M57.68796204024153,38.7845604203182 L57.981218831564455,38.572105455376345 " />
			<path d="M57.46304059391951,40.54143696514132 L57.68796204024152,38.78456042031819 " />
			<path d="M57.46304059391951,40.54143696514132 L57.46304059391951,39.07276592657501 " />
			<path d="M57.321556226300245,40.177125601669005 L57.463040593919516,39.072765926575016 " />
			<path d="M57.321556226300245,40.177125601669005 L57.321556226300245,39.416941472107084 " />
			<path d="M56.036209916600995,39.744048552417944 L57.981218831564455,38.572105455376345 " />

       </g>
    </g>
    <g transform="translate(20,210.0)" stroke="rgb(0,0,255)">
        <line x1="30" y1="-30" x2="75" y2="-33" stroke-width="3" stroke="#000000" />
         <text x="80" y="-30" style="stroke:#000000">X </text>

        <line x1="30" y1="-30" x2="30" y2="-75" stroke-width="3" stroke="#000000" />
         <text x="25" y="-85" style="stroke:#000000">Y </text>

        <line x1="30" y1="-30" x2="58" y2="-15" stroke-width="3" stroke="#000000" />
         <text x="65" y="-5" style="stroke:#000000">Z </text>
        <!--
            <line x1="0" y1="0" x2="1.8047847804686827" y2="0" stroke-width="3" />
            <text x="0" y="20" style="stroke:#000000">1  mm </text>
        -->
    </g>
</svg>
