<?xml version="1.0" encoding="UTF-8" standalone="no"?>
<svg
   xmlns:svg="http://www.w3.org/2000/svg"
   xmlns="http://www.w3.org/2000/svg"
   width="800.0"
   height="240.0"

>
    <g transform="scale(1.8047847804686827, -1.8047847804686827)   translate(173.46985502700375,-59.83512981091733)" stroke-width="0.5540826866571376"  fill="none">
       <!-- hidden lines -->
       <g  stroke="rgb(160,160,160)" fill="none" stroke-dasharray="0.5540826866571376,0.5540826866571376" >
			<path d="M-62.653317695576234,-48.75347607777458 L62.65331769557625,-39.83676096854525 " />
			<path d="M62.653317695576234,-39.83676096854525 L66.48868612666955,-42.06469241128085 " />
			<path d="M62.653317695576234,-39.83676096854525 L62.653317695576234,48.75347607777458 " />
			<path d="M-60.435250558116095,-46.852817314278816 L-56.93023255175088,-46.60340317178015 " />
			<path d="M-60.435250558116095,-46.852817314278816 L-56.93023255175089,-48.88885113059447 " />
			<path d="M61.0959514075723,44.1835741026246 L61.0959514075723,46.46902206143891 " />
			<path d="M64.6009694139375,44.43298824512326 L61.0959514075723,46.46902206143891 " />
			<path d="M61.0959514075723,46.46902206143891 L-60.435250558116095,37.820963629197514 " />
			<path d="M-56.93023255175088,35.78492981288186 L-60.43525055811609,37.820963629197514 " />
			<path d="M-60.435250558116095,37.820963629197514 L-60.435250558116095,-46.852817314278816 " />
			<path d="M58.45314800974745,40.954582087680215 L58.450330204260545,41.0469962470014 L58.44188800421129,41.13864152192595 L58.4278550141866,41.22915311399047 L58.408287093184114,41.31817073741122 L58.3832621322628,41.405340053219156 L58.352879744493805,41.49031407972331 L58.31726086844576,41.57275457368835 L58.27654728678295,41.652333376728116 L58.23090106189259,41.728733721556026 L58.180503890787534,41.801651492892624 L58.12555638185261,41.870796438011226 L58.066277256313114,41.93589332210293 L58.00290247760443,41.99668302386218 L57.93568431210807,42.052923566931675 L57.864890324993155,42.10439108310099 L57.790802315160256,42.15088070342487 " />
			<path d="M56.283918635236596,39.556790964194604 L56.36539015704495,39.51331341142771 L56.44984326583007,39.47578386572103 L56.53690323627671,39.444368848722476 L56.626183776212336,39.41920775141856 L56.717288740616915,39.40041221564527 L56.809813889350586,39.388065638724136 L56.90334868080008,39.382222803421534 L56.99747809348524,39.382909634873116 L57.0917844675431,39.390123085551835 L57.185849357918705,39.40383114879012 L57.279255391039825,39.42397300079601 L57.371588116737485,39.45045927053331 L57.462437847195076,39.48317243626812 L57.55140147476654,39.52196734702237 L57.63808426059778,39.566671866620474 L57.72210158611509,39.61708763747158 L57.803080659609044,39.672990960698314 L57.88066217034166,39.734133788706934 L57.95450188283736,39.80024482579465 L58.024272164283815,39.87103073191076 L58.08966343826536,39.9461774242303 L58.15038555837875,40.02535147076511 L58.20616909563636,40.10820156982869 L58.25676653394454,40.19436010879036 L58.301953368352635,40.28344479520244 L58.341529101199725,40.3750603530629 L58.37531813173908,40.468800276687176 L58.40317053529294,40.56424863440697 L58.4249627284805,40.660981914092886 L58.440598017567474,40.75857090231222 L58.450007027504014,40.85658258878387 L58.45314800974745,40.95458208768021 " />
			<path d="M-53.63947039228077,32.978165347908636 L-53.64228819776768,33.07057950722982 L-53.65073039781693,33.16222478215437 L-53.664763387841624,33.25273637421889 L-53.68433130884411,33.34175399763964 L-53.70935626976542,33.42892331344758 L-53.73973865753442,33.51389733995173 L-53.775357533582465,33.59633783391677 L-53.81607111524527,33.675916636956536 L-53.861717340135634,33.752316981784446 L-53.91211451124069,33.825234753121045 L-53.96706202017561,33.894379698239646 L-54.02634114571511,33.95947658233135 L-54.08971592442379,34.0202662840906 L-54.15693408992015,34.076506827160095 L-54.22772807703507,34.12797434332941 L-54.301816086867966,34.17446396365329 " />
			<path d="M-55.80869976679163,31.58037422442303 L-55.72722824498327,31.536896671656127 L-55.64277513619815,31.499367125949448 L-55.555715165751515,31.467952108950893 L-55.466434625815886,31.44279101164698 L-55.37532966141131,31.42399547587369 L-55.282804512677636,31.411648898952553 L-55.18926972122814,31.405806063649955 L-55.09514030854298,31.406492895101536 L-55.00083393448512,31.41370634578026 L-54.90676904410952,31.42741440901854 L-54.8133630109884,31.44755626102443 L-54.72103028529074,31.474042530761725 L-54.630180554833146,31.50675569649654 L-54.54121692726168,31.545550607250792 L-54.45453414143044,31.590255126848895 L-54.370516815913135,31.640670897699998 L-54.28953774241918,31.696574220926735 L-54.211956231686564,31.757717048935355 L-54.13811651919086,31.82382808602307 L-54.06834623774441,31.894613992139178 L-54.00295496376286,31.969760684458716 L-53.94223284364947,32.04893473099353 L-53.88644930639186,32.13178483005711 L-53.83585186808368,32.21794336901878 L-53.79066503367559,32.30702805543086 L-53.7510893008285,32.39864361329132 L-53.717300270289144,32.4923835369156 L-53.689447866735286,32.58783189463539 L-53.66765567354772,32.68456517432131 L-53.65202038446075,32.78215416254064 L-53.64261137452421,32.88016584901229 L-53.63947039228077,32.97816534790863 " />
			<path d="M58.45314800974745,-33.92805859868738 L58.450330204260545,-33.83564443936619 L58.44188800421129,-33.74399916444165 L58.4278550141866,-33.653487572377124 L58.408287093184114,-33.56446994895637 L58.3832621322628,-33.47730063314844 L58.352879744493805,-33.39232660664428 L58.31726086844576,-33.309886112679244 L58.27654728678295,-33.23030730963948 L58.23090106189259,-33.15390696481157 L58.180503890787534,-33.08098919347497 L58.12555638185261,-33.01184424835637 L58.066277256313114,-32.94674736426467 L58.00290247760443,-32.88595766250541 L57.93568431210807,-32.82971711943592 L57.864890324993155,-32.7782496032666 L57.790802315160256,-32.73175998294273 " />
			<path d="M56.283918635236596,-35.32584972217299 L56.36539015704495,-35.369327274939884 L56.44984326583007,-35.40685682064657 L56.53690323627671,-35.43827183764512 L56.626183776212336,-35.46343293494903 L56.717288740616915,-35.482228470722326 L56.809813889350586,-35.49457504764346 L56.90334868080008,-35.50041788294606 L56.99747809348524,-35.49973105149448 L57.0917844675431,-35.49251760081576 L57.185849357918705,-35.478809537577476 L57.279255391039825,-35.458667685571584 L57.371588116737485,-35.432181415834286 L57.462437847195076,-35.399468250099474 L57.55140147476654,-35.360673339345226 L57.63808426059778,-35.31596881974712 L57.72210158611509,-35.26555304889602 L57.803080659609044,-35.20964972566928 L57.88066217034166,-35.14850689766066 L57.95450188283736,-35.082395860572944 L58.024272164283815,-35.01160995445684 L58.08966343826536,-34.936463262137295 L58.15038555837875,-34.857289215602485 L58.20616909563636,-34.77443911653891 L58.25676653394454,-34.68828057757723 L58.301953368352635,-34.59919589116515 L58.341529101199725,-34.507580333304695 L58.37531813173908,-34.41384040968042 L58.40317053529294,-34.31839205196062 L58.4249627284805,-34.22165877227471 L58.440598017567474,-34.12406978405537 L58.450007027504014,-34.02605809758372 L58.45314800974745,-33.928058598687386 " />
			<path d="M-53.63947039228077,-41.90447533845896 L-53.64228819776768,-41.81206117913777 L-53.65073039781693,-41.720415904213226 L-53.664763387841624,-41.6299043121487 L-53.68433130884411,-41.54088668872795 L-53.70935626976542,-41.45371737292002 L-53.73973865753442,-41.36874334641586 L-53.775357533582465,-41.286302852450824 L-53.81607111524527,-41.20672404941106 L-53.861717340135634,-41.13032370458315 L-53.91211451124069,-41.05740593324655 L-53.96706202017561,-40.98826098812795 L-54.02634114571511,-40.923164104036246 L-54.08971592442379,-40.86237440227699 L-54.15693408992015,-40.8061338592075 L-54.22772807703507,-40.75466634303818 L-54.301816086867966,-40.708176722714306 " />
			<path d="M-55.80869976679163,-43.30226646194457 L-55.72722824498327,-43.345744014711464 L-55.64277513619815,-43.38327356041815 L-55.555715165751515,-43.4146885774167 L-55.466434625815886,-43.43984967472061 L-55.37532966141131,-43.458645210493906 L-55.282804512677636,-43.47099178741504 L-55.18926972122814,-43.47683462271764 L-55.09514030854298,-43.47614779126606 L-55.00083393448512,-43.46893434058734 L-54.90676904410952,-43.455226277349055 L-54.8133630109884,-43.43508442534316 L-54.72103028529074,-43.408598155605866 L-54.630180554833146,-43.375884989871054 L-54.54121692726168,-43.337090079116805 L-54.45453414143044,-43.2923855595187 L-54.370516815913135,-43.241969788667596 L-54.28953774241918,-43.18606646544086 L-54.211956231686564,-43.12492363743224 L-54.13811651919086,-43.058812600344524 L-54.06834623774441,-42.98802669422842 L-54.00295496376286,-42.912880001908874 L-53.94223284364947,-42.833705955374064 L-53.88644930639186,-42.75085585631049 L-53.83585186808368,-42.66469731734881 L-53.79066503367559,-42.57561263093673 L-53.7510893008285,-42.483997073076274 L-53.717300270289144,-42.390257149452 L-53.689447866735286,-42.2948087917322 L-53.66765567354772,-42.19807551204629 L-53.65202038446075,-42.10048652382695 L-53.64261137452421,-42.0024748373553 L-53.63947039228077,-41.904475338458965 " />

       </g>

       <!-- solid lines -->
       <g  stroke="rgb(0,0,0)" fill="none">
			<path d="M-62.653317695576234,-48.75347607777458 L-58.81794926448292,-50.98140752051018 " />
			<path d="M-62.653317695576234,-48.75347607777458 L-62.653317695576234,39.83676096854525 " />
			<path d="M-58.81794926448292,37.60882952580965 L-62.653317695576234,39.83676096854525 " />
			<path d="M-58.81794926448292,-50.98140752051018 L-58.81794926448292,37.60882952580965 " />
			<path d="M-58.81794926448292,-50.98140752051018 L66.48868612666956,-42.06469241128086 " />
			<path d="M-62.653317695576234,39.83676096854525 L62.65331769557625,48.75347607777458 " />
			<path d="M-58.81794926448292,37.60882952580965 L66.48868612666956,46.52554463503897 " />
			<path d="M66.48868612666955,46.525544635038976 L62.653317695576234,48.75347607777458 " />
			<path d="M66.48868612666955,-42.06469241128085 L66.48868612666955,46.525544635038976 " />
			<path d="M64.60096941393752,-40.24079269835307 L-56.93023255175089,-48.88885113059447 " />
			<path d="M64.6009694139375,-40.24079269835307 L64.6009694139375,44.43298824512326 " />
			<path d="M64.60096941393752,44.43298824512326 L-56.93023255175089,35.78492981288186 " />
			<path d="M-56.93023255175088,-48.88885113059447 L-56.93023255175088,35.78492981288186 " />
			<path d="M64.6009694139375,-40.24079269835307 L61.0959514075723,-38.20475888203742 " />
			<path d="M-56.93023255175088,-46.60340317178015 L61.0959514075723,-38.20475888203742 " />
			<path d="M61.0959514075723,-38.20475888203742 L61.0959514075723,44.1835741026246 " />
			<path d="M60.104900133387986,39.99509395558047 L60.10208232790108,40.08750811490166 L60.09364012785183,40.179153389826205 L60.07960713782713,40.26966498189073 L60.06003921682465,40.35868260531148 L60.035014255903334,40.44585192111941 L60.00463186813434,40.53082594762357 L59.96901299208629,40.61326644158861 L59.928299410423485,40.69284524462837 L59.88265318553312,40.76924558945628 L59.83225601442807,40.84216336079288 L59.777308505493146,40.91130830591148 L59.71802937995365,40.976405190003184 L59.654654601244964,41.03719489176244 L59.58743643574861,41.09343543483193 L59.51664244863369,41.14490295100125 L59.44255443880079,41.191392571325125 " />
			<path d="M59.44255443880079,41.19139257132513 L59.38283155060877,41.22399552918688 L59.321437432699334,41.25339524896885 L59.25851998888002,41.279520904170965 L59.19423079278389,41.30230955580151 L59.128724722715425,41.32170630400265 L59.06215958853507,41.337664420309025 L58.99469575148147,41.35014546022067 L58.92649573784724,41.35911935581925 L58.85772384743883,41.36456448820424 L58.78854575776394,41.36646773957477 L58.71912812489988,41.36482452483161 L58.6496381820045,41.35963880262299 L58.580243336436816,41.350923065807926 L58.51111076645808,41.33869831135981 L58.44240701848467,41.32299398978289 L58.3742976058632,41.30384793416335 L58.30694661013433,41.2813062690262 L58.24051628574605,41.25542329921716 L58.1751666691684,41.226261379077584 L58.11105519335167,41.19389076222737 L58.04833630845661,41.15838943231784 L57.98716110977046,41.1198429151623 L57.92767697370516,41.078344072696844 L57.87002720275469,41.033992879267856 L57.814350680266806,40.986896180784996 L57.76078153586084,40.9371674373201 L57.7094488222978,40.884926449771896 L57.66047620458085,40.83029907125516 L57.613981662035584,40.773416903909535 L57.57007720408742,40.71441698185845 L57.52886860042114,40.65344144108189 L57.490455126172414,40.59063717699843 L57.454929322765345,40.526155490581246 L57.42237677497202,40.46015172386084 L57.39287590473134,40.3927848856925 L57.366497782223696,40.32421726869 L57.34330595465666,40.254614058248514 L57.323356293174186,40.184142934598526 L57.30669685825819,40.11297366884945 L57.29336778394657,40.04127771399615 L57.283401181146836,39.96922779187371 L57.276821060278095,39.89699747705535 L57.27364327342788,39.82476077869608 L57.27387547616305,39.752691721329455 L57.27751710908688,39.68096392562716 L57.284559399186676,39.60975019013166 L57.294985380968775,39.53922207496935 L57.30876993732984,39.46954948854719 L57.32587986006622,39.40090027822846 L57.34627392987539,39.3334398259738 L57.36990301565687,39.26733064992151 L57.39671019287334,39.20273201286719 L57.42663088068687,39.13979953858566 L57.459592997539765,39.07868483691973 L57.49551713480539,39.01953513853869 L57.53431674809049,38.96249294024687 L57.57589836572821,38.90769566169625 L57.62016181395954,38.855275314330534 L57.667000458260674,38.80535818335801 L57.71630146023492,38.75806452351941 L57.76794604945025,38.71350826938372 L57.82180980956772,38.671796760869825 L57.877762978071296,38.63303048465524 L57.93567075887712,38.59730283209487 " />
			<path d="M57.93567075887713,38.59730283209486 L58.01714228068548,38.55382527932797 L58.1015953894706,38.516295733621284 L58.18865535991724,38.484880716622726 L58.27793589985287,38.45971961931882 L58.36904086425745,38.440924083545525 L58.46156601299112,38.42857750662439 L58.55510080444061,38.42273467132179 L58.649230217125776,38.42342150277337 L58.743536591183634,38.43063495345209 L58.83760148155924,38.444343016690375 L58.93100751468036,38.46448486869627 L59.02334024037802,38.490971138433565 L59.11418997083561,38.52368430416838 L59.20315359840708,38.562479214922625 L59.28983638423831,38.60718373452073 L59.37385370975562,38.657599505371834 L59.45483278324958,38.71350282859857 L59.53241429398219,38.77464565660719 L59.6062540064779,38.84075669369491 L59.67602428792435,38.911542599811014 L59.741415561905896,38.986689292130556 L59.802137682019286,39.065863338665366 L59.857921219276896,39.148713437728944 L59.90851865758508,39.23487197669062 L59.95370549199317,39.3239566631027 L59.99328122484026,39.415572220963156 L60.02707025537961,39.50931214458743 L60.05492265893347,39.60476050230723 L60.076714852121036,39.70149378199314 L60.09235014120801,39.79908277021248 L60.10175915114455,39.89709445668413 L60.104900133387986,39.995093955580465 " />
			<path d="M57.790802315160256,42.150880703424875 L57.731079426968236,42.18348366128662 L57.6696853090588,42.21288338106859 L57.60676786523948,42.23900903627071 L57.54247866914336,42.26179768790125 L57.47697259907489,42.281194436102396 L57.41040746489453,42.29715255240877 L57.34294362784094,42.30963359232042 L57.274743614206706,42.318607487918996 L57.20597172379829,42.32405262030398 L57.13679363412341,42.325955871674516 L57.06737600125935,42.324312656931355 L56.99788605836397,42.31912693472273 L56.92849121279628,42.31041119790767 L56.85935864281755,42.29818644345956 L56.79065489484414,42.28248212188263 L56.722545482222664,42.26333606626309 L56.6551944864938,42.240794401125946 L56.58876416210551,42.21491143131691 L56.523414545527864,42.18574951117733 L56.45930306971113,42.15337889432711 L56.39658418481608,42.11787756441758 L56.33540898612993,42.079331047262045 L56.27592485006463,42.03783220479659 L56.21827507911416,41.9934810113676 L56.16259855662627,41.94638431288474 L56.10902941222031,41.89665556941984 L56.05769669865727,41.84441458187164 L56.00872408094032,41.789787203354905 L55.96222953839505,41.73290503600928 L55.918325080446884,41.67390511395819 L55.87711647678061,41.61292957318163 L55.83870300253188,41.55012530909817 L55.80317719912481,41.48564362268099 L55.77062465133149,41.41963985596058 L55.741123781090806,41.35227301779224 L55.71474565858316,41.28370540078974 L55.69155383101612,41.21410219034826 L55.67160416953365,41.14363106669827 L55.65494473461766,41.07246180094919 L55.64161566030604,41.000765846095895 L55.6316490575063,40.928715923973456 L55.62506893663756,40.856485609155094 L55.621891149787345,40.784248910795824 L55.622123352522514,40.7121798534292 L55.625764985446345,40.640452057726904 L55.63280727554614,40.569238322231406 L55.64323325732824,40.498710207069095 L55.65701781368931,40.42903762064693 L55.67412773642569,40.360388410328206 L55.69452180623485,40.29292795807354 L55.71815089201633,40.226818782021255 L55.74495806923281,40.16222014496693 L55.77487875704634,40.09928767068541 L55.80784087389923,40.03817296901947 L55.843765011164855,39.979023270638436 L55.882564624449955,39.92198107234661 L55.92414624208767,39.867183793795995 L55.96840969031901,39.81476344643028 L56.01524833462014,39.76484631545775 L56.06454933659438,39.71755265561915 L56.11619392580972,39.672996401483466 L56.17005768592718,39.631284892969575 L56.22601085443076,39.59251861675498 L56.28391863523659,39.55679096419461 " />
			<path d="M-51.987718268640236,32.01867721580889 L-51.99053607412714,32.11109137513009 L-51.998978274176395,32.202736650054625 L-52.01301126420109,32.29324824211915 L-52.03257918520357,32.38226586553991 L-52.05760414612489,32.46943518134783 L-52.08798653389388,32.55440920785199 L-52.12360540994193,32.63684970181703 L-52.16431899160474,32.71642850485679 L-52.2099652164951,32.7928288496847 L-52.26036238760015,32.86574662102131 L-52.31530989653508,32.9348915661399 L-52.374589022074574,32.99998845023161 L-52.43796380078326,33.06077815199086 L-52.505181966279615,33.11701869506036 L-52.57597595339453,33.16848621122968 L-52.65006396322743,33.21497583155355 " />
			<path d="M-52.65006396322743,33.21497583155355 L-52.70978685141945,33.24757878941531 L-52.77118096932889,33.27697850919727 L-52.834098413148205,33.303104164399386 L-52.89838760924433,33.325892816029935 L-52.9638936793128,33.345289564231074 L-53.030458813493155,33.361247680537446 L-53.09792265054675,33.3737287204491 L-53.16612266418098,33.38270261604768 L-53.234894554589395,33.38814774843266 L-53.30407264426428,33.3900509998032 L-53.37349027712834,33.38840778506003 L-53.44298022002372,33.38322206285141 L-53.51237506559141,33.37450632603635 L-53.58150763557014,33.362281571588234 L-53.65021138354355,33.34657725001131 L-53.718320796165024,33.32743119439178 L-53.78567179189389,33.30488952925462 L-53.852102116282175,33.279006559445584 L-53.917451732859824,33.24984463930601 L-53.981563208676555,33.2174740224558 L-54.04428209357161,33.18197269254627 L-54.10545729225776,33.14342617539072 L-54.16494142832306,33.10192733292527 L-54.22259119927353,33.05757613949628 L-54.27826772176142,33.010479441013416 L-54.33183686616738,32.96075069754853 L-54.38316957973042,32.908509710000324 L-54.43214219744737,32.85388233148359 L-54.47863673999264,32.79700016413796 L-54.522541197940804,32.73800024208687 L-54.56374980160708,32.677024701310316 L-54.60216327585581,32.614220437226855 L-54.63768907926288,32.54973875080967 L-54.6702416270562,32.48373498408927 L-54.69974249729688,32.41636814592092 L-54.726120619804526,32.34780052891842 L-54.749312447371565,32.27819731847694 L-54.769262108854036,32.207726194826954 L-54.78592154377003,32.13655692907787 L-54.79925061808165,32.06486097422458 L-54.809217220881386,31.992811052102137 L-54.81579734175013,31.920580737283775 L-54.81897512860034,31.84834403892451 L-54.81874292586517,31.77627498155788 L-54.81510129294134,31.704547185855585 L-54.808059002841546,31.633333450360084 L-54.79763302105945,31.562805335197776 L-54.78384846469838,31.493132748775615 L-54.766738541962,31.42448353845689 L-54.746344472152835,31.357023086202226 L-54.722715386371355,31.290913910149936 L-54.69590820915488,31.22631527309561 L-54.66598752134135,31.16338279881409 L-54.63302540448846,31.102268097148148 L-54.59710126722283,31.043118398767117 L-54.55830165393773,30.986076200475296 L-54.516720036300015,30.931278921924676 L-54.47245658806868,30.878858574558958 L-54.42561794376755,30.828941443586434 L-54.376316941793306,30.781647783747832 L-54.32467235257797,30.737091529612147 L-54.270808592460504,30.695380021098252 L-54.21485542395693,30.656613744883657 L-54.1569476431511,30.620886092323296 " />
			<path d="M-54.15694764315109,30.62088609232329 L-54.07547612134274,30.577408539556387 L-53.99102301255762,30.539878993849708 L-53.90396304211098,30.508463976851154 L-53.81468250217535,30.483302879547242 L-53.72357753777077,30.464507343773953 L-53.6310523890371,30.452160766852813 L-53.53751759758761,30.446317931550215 L-53.443388184902446,30.447004763001797 L-53.34908181084459,30.45421821368052 L-53.25501692046898,30.467926276918803 L-53.16161088734786,30.48806812892469 L-53.0692781616502,30.514554398661986 L-52.97842843119261,30.5472675643968 L-52.889464803621145,30.586062475151053 L-52.80278201778991,30.630766994749155 L-52.7187646922726,30.68118276560026 L-52.63778561877864,30.737086088826995 L-52.56020410804603,30.798228916835615 L-52.486364395550325,30.86433995392333 L-52.41659411410387,30.935125860039438 L-52.351202840122326,31.010272552358977 L-52.29048072000894,31.089446598893787 L-52.234697182751326,31.172296697957368 L-52.184099744443145,31.258455236919044 L-52.13891291003505,31.347539923331123 L-52.09933717718796,31.43915548119158 L-52.06554814664861,31.53289540481586 L-52.03769574309475,31.628343762535653 L-52.015903549907186,31.72507704222157 L-52.000268260820214,31.8226660304409 L-51.99085925088367,31.920677716912554 L-51.987718268640236,32.018677215808886 " />
			<path d="M-54.301816086867966,34.174463963653295 L-54.361538975059986,34.20706692151504 L-54.42293309296942,34.236466641297014 L-54.48585053678874,34.26259229649913 L-54.550139732884865,34.28538094812967 L-54.61564580295333,34.30477769633082 L-54.68221093713369,34.32073581263719 L-54.749674774187284,34.33321685254884 L-54.817874787821516,34.34219074814742 L-54.88664667822993,34.3476358805324 L-54.955824767904815,34.34953913190294 L-55.025242400768875,34.347895917159775 L-55.094732343664255,34.34271019495115 L-55.16412718923194,34.33399445813609 L-55.233259759210675,34.32176970368798 L-55.301963507184084,34.30606538211105 L-55.37007291980556,34.286919326491514 L-55.437423915534424,34.26437766135437 L-55.50385423992271,34.23849469154533 L-55.56920385650036,34.20933277140575 L-55.63331533231709,34.17696215455553 L-55.696034217212144,34.141460824646 L-55.757209415898295,34.102914307490465 L-55.816693551963596,34.06141546502501 L-55.874343322914065,34.01706427159602 L-55.93001984540195,33.96996757311316 L-55.98358898980791,33.92023882964826 L-56.034921703370955,33.86799784210006 L-56.083894321087904,33.813370463583325 L-56.13038886363317,33.7564882962377 L-56.17429332158134,33.69748837418661 L-56.215501925247615,33.63651283341005 L-56.25391539949634,33.57370856932659 L-56.28944120290341,33.50922688290941 L-56.321993750696734,33.443223116189 L-56.351494620937416,33.37585627802066 L-56.37787274344506,33.30728866101816 L-56.4010645710121,33.23768545057668 L-56.42101423249457,33.16721432692669 L-56.437673667410564,33.09604506117761 L-56.451002741722185,33.024349106324316 L-56.46096934452192,32.95229918420188 L-56.46754946539066,32.880068869383514 L-56.47072725224088,32.807832171024245 L-56.47049504950571,32.73576311365762 L-56.46685341658188,32.664035317955324 L-56.45981112648208,32.59282158245983 L-56.44938514469998,32.522293467297516 L-56.435600588338914,32.45262088087535 L-56.41849066560253,32.383971670556626 L-56.39809659579337,32.31651121830196 L-56.37446751001189,32.250402042249675 L-56.347660332795414,32.18580340519535 L-56.317739644981884,32.122870930913834 L-56.28477752812899,32.06175622924789 L-56.24885339086337,32.002606530866856 L-56.21005377757827,31.945564332575035 L-56.16847215994055,31.890767054024415 L-56.124208711709215,31.838346706658697 L-56.07737006740808,31.788429575686173 L-56.02806906543384,31.741135915847572 L-55.976424476218504,31.696579661711887 L-55.92256071610104,31.65486815319799 L-55.86660754759746,31.616101876983397 L-55.808699766791634,31.580374224423032 " />
			<path d="M60.104900133387986,-34.88754673078712 L60.10208232790108,-34.795132571465935 L60.09364012785183,-34.70348729654139 L60.07960713782713,-34.61297570447687 L60.06003921682465,-34.523958081056115 L60.035014255903334,-34.43678876524818 L60.00463186813434,-34.351814738744025 L59.96901299208629,-34.26937424477899 L59.928299410423485,-34.18979544173922 L59.88265318553312,-34.11339509691131 L59.83225601442807,-34.04047732557471 L59.777308505493146,-33.97133238045611 L59.71802937995365,-33.90623549636441 L59.654654601244964,-33.845445794605155 L59.58743643574861,-33.78920525153566 L59.51664244863369,-33.737737735366345 L59.44255443880079,-33.69124811504247 " />
			<path d="M59.44255443880079,-33.69124811504246 L59.38283155060877,-33.658645157180715 L59.321437432699334,-33.629245437398744 L59.25851998888002,-33.60311978219663 L59.19423079278389,-33.58033113056609 L59.128724722715425,-33.56093438236494 L59.06215958853507,-33.54497626605857 L58.99469575148147,-33.53249522614692 L58.92649573784724,-33.52352133054834 L58.85772384743883,-33.51807619816336 L58.78854575776394,-33.51617294679282 L58.71912812489988,-33.51781616153598 L58.6496381820045,-33.523001883744605 L58.580243336436816,-33.53171762055967 L58.51111076645808,-33.54394237500778 L58.44240701848467,-33.55964669658471 L58.3742976058632,-33.578792752204244 L58.30694661013433,-33.60133441734139 L58.24051628574605,-33.62721738715043 L58.1751666691684,-33.65637930729001 L58.11105519335167,-33.688749924140225 L58.04833630845661,-33.724251254049754 L57.98716110977046,-33.76279777120529 L57.92767697370516,-33.80429661367075 L57.87002720275469,-33.84864780709974 L57.814350680266806,-33.8957445055826 L57.76078153586084,-33.945473249047495 L57.7094488222978,-33.9977142365957 L57.66047620458085,-34.05234161511243 L57.613981662035584,-34.10922378245806 L57.57007720408742,-34.168223704509145 L57.52886860042114,-34.229199245285706 L57.490455126172414,-34.29200350936917 L57.454929322765345,-34.35648519578635 L57.42237677497202,-34.422488962506755 L57.39287590473134,-34.489855800675095 L57.366497782223696,-34.558423417677595 L57.34330595465666,-34.62802662811908 L57.323356293174186,-34.69849775176907 L57.30669685825819,-34.769667017518145 L57.29336778394657,-34.84136297237144 L57.283401181146836,-34.91341289449388 L57.276821060278095,-34.985643209312244 L57.27364327342788,-35.05787990767151 L57.27387547616305,-35.12994896503814 L57.27751710908688,-35.20167676074043 L57.284559399186676,-35.27289049623593 L57.294985380968775,-35.34341861139824 L57.30876993732984,-35.41309119782041 L57.32587986006622,-35.48174040813913 L57.34627392987539,-35.549200860393796 L57.36990301565687,-35.61531003644608 L57.39671019287334,-35.67990867350041 L57.42663088068687,-35.74284114778193 L57.459592997539765,-35.80395584944787 L57.49551713480539,-35.8631055478289 L57.53431674809049,-35.920147746120726 L57.57589836572821,-35.97494502467134 L57.62016181395954,-36.02736537203706 L57.667000458260674,-36.077282503009585 L57.71630146023492,-36.124576162848186 L57.76794604945025,-36.16913241698387 L57.82180980956772,-36.21084392549777 L57.877762978071296,-36.24961020171236 L57.93567075887712,-36.285337854272726 " />
			<path d="M57.93567075887713,-36.28533785427273 L58.01714228068548,-36.32881540703963 L58.1015953894706,-36.36634495274631 L58.18865535991724,-36.39775996974487 L58.27793589985287,-36.422921067048776 L58.36904086425745,-36.44171660282207 L58.46156601299112,-36.4540631797432 L58.55510080444061,-36.4599060150458 L58.649230217125776,-36.45921918359422 L58.743536591183634,-36.4520057329155 L58.83760148155924,-36.43829766967722 L58.93100751468036,-36.41815581767133 L59.02334024037802,-36.39166954793403 L59.11418997083561,-36.35895638219922 L59.20315359840708,-36.32016147144497 L59.28983638423831,-36.27545695184686 L59.37385370975562,-36.22504118099576 L59.45483278324958,-36.16913785776902 L59.53241429398219,-36.1079950297604 L59.6062540064779,-36.04188399267269 L59.67602428792435,-35.97109808655658 L59.741415561905896,-35.89595139423704 L59.802137682019286,-35.81677734770223 L59.857921219276896,-35.73392724863865 L59.90851865758508,-35.647768709676974 L59.95370549199317,-35.558684023264895 L59.99328122484026,-35.46706846540444 L60.02707025537961,-35.37332854178016 L60.05492265893347,-35.277880184060365 L60.076714852121036,-35.18114690437445 L60.09235014120801,-35.083557916155115 L60.10175915114455,-34.985546229683465 L60.104900133387986,-34.88754673078713 " />
			<path d="M57.790802315160256,-32.73175998294272 L57.731079426968236,-32.69915702508097 L57.6696853090588,-32.669757305299 L57.60676786523948,-32.643631650096886 L57.54247866914336,-32.620842998466344 L57.47697259907489,-32.6014462502652 L57.41040746489453,-32.585488133958826 L57.34294362784094,-32.57300709404718 L57.274743614206706,-32.5640331984486 L57.20597172379829,-32.558588066063614 L57.13679363412341,-32.55668481469308 L57.06737600125935,-32.55832802943624 L56.99788605836397,-32.56351375164486 L56.92849121279628,-32.572229488459925 L56.85935864281755,-32.58445424290804 L56.79065489484414,-32.600158564484964 L56.722545482222664,-32.6193046201045 L56.6551944864938,-32.64184628524165 L56.58876416210551,-32.66772925505069 L56.523414545527864,-32.69689117519027 L56.45930306971113,-32.72926179204048 L56.39658418481608,-32.76476312195001 L56.33540898612993,-32.80330963910555 L56.27592485006463,-32.84480848157101 L56.21827507911416,-32.889159674999995 L56.16259855662627,-32.936256373482856 L56.10902941222031,-32.98598511694775 L56.05769669865727,-33.038226104495955 L56.00872408094032,-33.09285348301269 L55.96222953839505,-33.149735650358316 L55.918325080446884,-33.2087355724094 L55.87711647678061,-33.26971111318596 L55.83870300253188,-33.332515377269424 L55.80317719912481,-33.396997063686605 L55.77062465133149,-33.46300083040701 L55.741123781090806,-33.53036766857535 L55.71474565858316,-33.59893528557785 L55.69155383101612,-33.66853849601934 L55.67160416953365,-33.739009619669325 L55.65494473461766,-33.8101788854184 L55.64161566030604,-33.8818748402717 L55.6316490575063,-33.95392476239414 L55.62506893663756,-34.0261550772125 L55.621891149787345,-34.09839177557177 L55.622123352522514,-34.170460832938396 L55.625764985446345,-34.24218862864069 L55.63280727554614,-34.31340236413619 L55.64323325732824,-34.3839304792985 L55.65701781368931,-34.453603065720664 L55.67412773642569,-34.52225227603939 L55.69452180623485,-34.58971272829405 L55.71815089201633,-34.65582190434634 L55.74495806923281,-34.720420541400664 L55.77487875704634,-34.78335301568218 L55.80784087389923,-34.844467717348124 L55.843765011164855,-34.90361741572916 L55.882564624449955,-34.96065961402098 L55.92414624208767,-35.0154568925716 L55.96840969031901,-35.06787723993732 L56.01524833462014,-35.11779437090984 L56.06454933659438,-35.16508803074844 L56.11619392580972,-35.20964428488413 L56.17005768592718,-35.25135579339802 L56.22601085443076,-35.290122069612615 L56.28391863523659,-35.32584972217298 " />
			<path d="M-51.987718268640236,-42.8639634705587 L-51.99053607412714,-42.771549311237514 L-51.998978274176395,-42.67990403631297 L-52.01301126420109,-42.589392444248446 L-52.03257918520357,-42.500374820827695 L-52.05760414612489,-42.41320550501976 L-52.08798653389388,-42.328231478515605 L-52.12360540994193,-42.24579098455057 L-52.16431899160474,-42.1662121815108 L-52.2099652164951,-42.08981183668289 L-52.26036238760015,-42.01689406534629 L-52.31530989653508,-41.94774912022769 L-52.374589022074574,-41.88265223613599 L-52.43796380078326,-41.821862534376734 L-52.505181966279615,-41.76562199130724 L-52.57597595339453,-41.714154475137924 L-52.65006396322743,-41.66766485481405 " />
			<path d="M-52.65006396322743,-41.66766485481404 L-52.70978685141945,-41.635061896952294 L-52.77118096932889,-41.60566217717032 L-52.834098413148205,-41.57953652196821 L-52.89838760924433,-41.55674787033767 L-52.9638936793128,-41.53735112213652 L-53.030458813493155,-41.52139300583015 L-53.09792265054675,-41.5089119659185 L-53.16612266418098,-41.49993807031992 L-53.234894554589395,-41.494492937934936 L-53.30407264426428,-41.4925896865644 L-53.37349027712834,-41.49423290130756 L-53.44298022002372,-41.499418623516185 L-53.51237506559141,-41.50813436033125 L-53.58150763557014,-41.52035911477936 L-53.65021138354355,-41.53606343635629 L-53.718320796165024,-41.55520949197582 L-53.78567179189389,-41.57775115711297 L-53.852102116282175,-41.60363412692201 L-53.917451732859824,-41.63279604706159 L-53.981563208676555,-41.665166663911805 L-54.04428209357161,-41.700667993821334 L-54.10545729225776,-41.73921451097687 L-54.16494142832306,-41.78071335344233 L-54.22259119927353,-41.82506454687132 L-54.27826772176142,-41.87216124535418 L-54.33183686616738,-41.921889988819075 L-54.38316957973042,-41.97413097636728 L-54.43214219744737,-42.02875835488401 L-54.47863673999264,-42.08564052222964 L-54.522541197940804,-42.144640444280725 L-54.56374980160708,-42.205615985057285 L-54.60216327585581,-42.268420249140746 L-54.63768907926288,-42.33290193555793 L-54.6702416270562,-42.398905702278334 L-54.69974249729688,-42.466272540446674 L-54.726120619804526,-42.534840157449175 L-54.749312447371565,-42.60444336789066 L-54.769262108854036,-42.67491449154065 L-54.78592154377003,-42.746083757289725 L-54.79925061808165,-42.81777971214302 L-54.809217220881386,-42.88982963426546 L-54.81579734175013,-42.96205994908382 L-54.81897512860034,-43.03429664744309 L-54.81874292586517,-43.10636570480972 L-54.81510129294134,-43.17809350051201 L-54.808059002841546,-43.24930723600751 L-54.79763302105945,-43.31983535116982 L-54.78384846469838,-43.389507937591986 L-54.766738541962,-43.45815714791071 L-54.746344472152835,-43.525617600165376 L-54.722715386371355,-43.59172677621766 L-54.69590820915488,-43.656325413271986 L-54.66598752134135,-43.71925788755351 L-54.63302540448846,-43.780372589219446 L-54.59710126722283,-43.83952228760048 L-54.55830165393773,-43.896564485892306 L-54.516720036300015,-43.95136176444292 L-54.47245658806868,-44.00378211180864 L-54.42561794376755,-44.053699242781164 L-54.376316941793306,-44.100992902619765 L-54.32467235257797,-44.14554915675545 L-54.270808592460504,-44.18726066526935 L-54.21485542395693,-44.22602694148394 L-54.1569476431511,-44.261754594044305 " />
			<path d="M-54.15694764315109,-44.26175459404431 L-54.07547612134274,-44.30523214681121 L-53.99102301255762,-44.34276169251789 L-53.90396304211098,-44.37417670951645 L-53.81468250217535,-44.399337806820355 L-53.72357753777077,-44.41813334259365 L-53.6310523890371,-44.43047991951478 L-53.53751759758761,-44.43632275481738 L-53.443388184902446,-44.4356359233658 L-53.34908181084459,-44.42842247268708 L-53.25501692046898,-44.4147144094488 L-53.16161088734786,-44.394572557442906 L-53.0692781616502,-44.36808628770561 L-52.97842843119261,-44.3353731219708 L-52.889464803621145,-44.29657821121655 L-52.80278201778991,-44.25187369161844 L-52.7187646922726,-44.20145792076734 L-52.63778561877864,-44.1455545975406 L-52.56020410804603,-44.08441176953198 L-52.486364395550325,-44.01830073244427 L-52.41659411410387,-43.94751482632816 L-52.351202840122326,-43.87236813400862 L-52.29048072000894,-43.79319408747381 L-52.234697182751326,-43.71034398841023 L-52.184099744443145,-43.624185449448554 L-52.13891291003505,-43.535100763036475 L-52.09933717718796,-43.44348520517602 L-52.06554814664861,-43.34974528155174 L-52.03769574309475,-43.254296923831944 L-52.015903549907186,-43.15756364414603 L-52.000268260820214,-43.059974655926695 L-51.99085925088367,-42.961962969455044 L-51.987718268640236,-42.86396347055871 " />
			<path d="M-54.301816086867966,-40.7081767227143 L-54.361538975059986,-40.67557376485255 L-54.42293309296942,-40.64617404507058 L-54.48585053678874,-40.620048389868465 L-54.550139732884865,-40.59725973823792 L-54.61564580295333,-40.57786299003678 L-54.68221093713369,-40.561904873730406 L-54.749674774187284,-40.54942383381876 L-54.817874787821516,-40.54044993822018 L-54.88664667822993,-40.53500480583519 L-54.955824767904815,-40.53310155446466 L-55.025242400768875,-40.53474476920782 L-55.094732343664255,-40.53993049141644 L-55.16412718923194,-40.548646228231505 L-55.233259759210675,-40.56087098267962 L-55.301963507184084,-40.576575304256544 L-55.37007291980556,-40.59572135987608 L-55.437423915534424,-40.61826302501323 L-55.50385423992271,-40.64414599482227 L-55.56920385650036,-40.673307914961846 L-55.63331533231709,-40.70567853181206 L-55.696034217212144,-40.74117986172159 L-55.757209415898295,-40.77972637887713 L-55.816693551963596,-40.82122522134259 L-55.874343322914065,-40.865576414771574 L-55.93001984540195,-40.912673113254435 L-55.98358898980791,-40.96240185671933 L-56.034921703370955,-41.014642844267534 L-56.083894321087904,-41.06927022278427 L-56.13038886363317,-41.126152390129896 L-56.17429332158134,-41.18515231218098 L-56.215501925247615,-41.24612785295754 L-56.25391539949634,-41.308932117041 L-56.28944120290341,-41.373413803458185 L-56.321993750696734,-41.43941757017859 L-56.351494620937416,-41.50678440834693 L-56.37787274344506,-41.57535202534943 L-56.4010645710121,-41.64495523579092 L-56.42101423249457,-41.715426359440904 L-56.437673667410564,-41.78659562518998 L-56.451002741722185,-41.85829158004328 L-56.46096934452192,-41.93034150216572 L-56.46754946539066,-42.00257181698408 L-56.47072725224088,-42.07480851534335 L-56.47049504950571,-42.146877572709975 L-56.46685341658188,-42.21860536841227 L-56.45981112648208,-42.28981910390777 L-56.44938514469998,-42.36034721907008 L-56.435600588338914,-42.43001980549224 L-56.41849066560253,-42.49866901581097 L-56.39809659579337,-42.56612946806563 L-56.37446751001189,-42.63223864411792 L-56.347660332795414,-42.69683728117224 L-56.317739644981884,-42.75976975545376 L-56.28477752812899,-42.8208844571197 L-56.24885339086337,-42.88003415550074 L-56.21005377757827,-42.93707635379256 L-56.16847215994055,-42.99187363234318 L-56.124208711709215,-43.0442939797089 L-56.07737006740808,-43.09421111068142 L-56.02806906543384,-43.14150477052002 L-55.976424476218504,-43.18606102465571 L-55.92256071610104,-43.2277725331696 L-55.86660754759746,-43.266538809384194 L-55.808699766791634,-43.30226646194456 " />
			<path d="M56.2839186352366,39.556790964194604 L57.93567075887714,38.59730283209486 " />
			<path d="M57.79080231516026,42.15088070342487 L59.4425544388008,41.191392571325125 " />
			<path d="M-55.80869976679162,31.580374224423036 L-54.156947643151085,30.620886092323293 " />
			<path d="M-54.30181608686796,34.174463963653295 L-52.650063963227424,33.21497583155355 " />
			<path d="M56.2839186352366,-35.32584972217299 L57.93567075887714,-36.28533785427273 " />
			<path d="M57.79080231516026,-32.73175998294273 L59.4425544388008,-33.69124811504247 " />
			<path d="M-55.80869976679162,-43.30226646194456 L-54.156947643151085,-44.261754594044305 " />
			<path d="M-54.30181608686796,-40.7081767227143 L-52.650063963227424,-41.66766485481404 " />

       </g>
    </g>
    <g transform="translate(20,210.0)" stroke="rgb(0,0,255)">
        <line x1="30" y1="-30" x2="75" y2="-33" stroke-width="3" stroke="#000000" />
         <text x="80" y="-30" style="stroke:#000000">X </text>

        <line x1="30" y1="-30" x2="30" y2="-75" stroke-width="3" stroke="#000000" />
         <text x="25" y="-85" style="stroke:#000000">Y </text>

        <line x1="30" y1="-30" x2="58" y2="-15" stroke-width="3" stroke="#000000" />
         <text x="65" y="-5" style="stroke:#000000">Z </text>
        <!--
            <line x1="0" y1="0" x2="1.8047847804686827" y2="0" stroke-width="3" />
            <text x="0" y="20" style="stroke:#000000">1  mm </text>
        -->
    </g>
</svg>
