<?xml version="1.0" encoding="UTF-8" standalone="no"?>
<svg
   xmlns:svg="http://www.w3.org/2000/svg"
   xmlns="http://www.w3.org/2000/svg"
   width="800.0"
   height="240.0"

>
  <defs>
    <style>
      .cq-bg { fill: #ffffff; }
      @media (prefers-color-scheme: dark) {
        .cq-bg { fill: #0d1117; }
        /* CadQuery SVG selectors */
        g[stroke="rgb(0,0,0)"] { stroke: #c9d1d9 !important; }
        g[stroke="rgb(160,160,160)"] { stroke: #484f58 !important; }
        /* OpenSCAD SVG selectors */
        path { stroke: #c9d1d9 !important; }
        polygon { stroke: #c9d1d9 !important; fill: #161b22 !important; }
        /* Common selectors */
        line { stroke: #c9d1d9 !important; }
        text { stroke: #c9d1d9 !important; fill: #c9d1d9 !important; }
      }
    </style>
  </defs>
  <rect width="800.0" height="240.0" class="cq-bg"/>
    <g transform="scale(4.683401350072058, -4.683401350072058)   translate(60.35415740200297,-23.487203375877137)" stroke-width="0.21352003068979217"  fill="none">
       <!-- hidden lines -->
       <g  stroke="rgb(160,160,160)" fill="none" stroke-dasharray="0.21352003068979217,0.21352003068979217" >
			<path d="M-17.650151264044528,-18.449212256401502 L16.328749565132096,-16.03130216351015 " />
			<path d="M16.328749565132103,-16.031302163510148 L17.650151264044528,-16.798892669189943 " />
			<path d="M4.673798053771829,-17.72227908341733 L16.468629128826965,-16.882968793667285 " />
			<path d="M17.650151264044528,-16.03359784913787 L17.650151264044528,4.759612296965894 " />
			<path d="M12.930859482214439,0.48933894737087047 L12.929332696008068,0.6900203289157065 L12.924752717347545,0.8904344789002205 L12.917120686014098,1.0905315219203657 L12.906438501327944,1.2902616614878741 L12.892708821675619,1.489575192422685 L12.875935063848399,1.6884225132226705 L12.856121402192002,1.8867541384075428 L12.833272767567756,2.084520710833905 L12.807394846125478,2.2816730139783274 L12.778494077888439,2.4781619841854754 L12.746577655150656,2.6739387228781846 L12.711653520687028,2.868954508726417 L12.673730365776676,3.063160809772148 L12.63281762804002,3.2565092955071107 L12.588925489090109,3.4489518489004043 L12.542064871998814,3.6404405783729823 L12.492247438578499,3.8309278297160274 L12.43948558647983,4.020366197950271 L12.383792446106478,4.208708539123255 L12.325181877347479,4.395907982041684 L12.263668466128017,4.581917939935839 L12.199267520779562,4.766692122053249 L12.131995068230204,4.950184545178714 L12.061867850016169,5.132349545077725 L11.98890331811549,5.313141787860569 L11.913119630604875,5.492516281264184 L11.834535647140873,5.670428385849012 L11.753170924266401,5.8468338261080595 L11.669045710543898,6.021688701485347 L11.58218094151621,6.194949497301107 L11.49259823449655,6.366573095580896 L11.400319883188772,6.536516785786021 L11.305368852139328,6.704738275442547 L11.207768771022266,6.871195700666273 L11.107543928758703,7.035847636581066 L11.004719267472257,7.198653107627909 L10.899320376281898,7.3595715977621525 L10.791373484933802,7.518563060536402 L10.68090545727377,7.675587929066553 L10.567943784561846,7.830607125878468 L10.452516578630796,7.983582072632852 L10.334652564890149,8.134474699725954 L10.214381075177542,8.283247455763595 L10.091732040459151,8.429863316906301 L9.966735983381023,8.574285796083098 L9.839424010673158,8.716478952071755 L9.709827805408224,8.85640739844318 L9.577979619116872,8.994036312367744 L9.44391226376155,9.12933144328135 L9.307659103570874,9.262259121409082 L9.169254046736546,9.392786266144327 L9.028731536974899,9.520880394281265 L8.886126544955179,9.646509628098705 L8.741474559596695,9.769642703293217 L8.594811579236968,9.890248976759622 L8.44617410267313,10.008298434216895 L8.295599120078792,10.123761697677562 L8.14312410379858,10.23661003275875 L7.988786999022711,10.346815355833092 L7.832626214343892,10.454350241017648 L7.674680612198898,10.559187926999172 L7.514989499197192,10.661302323693965 L7.353592616339016,10.760668018740699 L7.19053012912543,10.857260283824557 " />
			<path d="M-5.8691284302129585,-11.62485078950438 L-5.695202765008765,-11.723797319367028 L-5.519513884604199,-11.81959797647439 L-5.342110527514387,-11.912226184404755 L-5.163041907873902,-12.001656246817507 L-4.982357701784088,-12.087863354581645 L-4.800108033532215,-12.170823592658168 L-4.616343461686319,-12.250513946734456 L-4.431114965069556,-12.326912309608735 L-4.244473928617982,-12.39999748732294 L-4.056472129125648,-12.46974920504219 L-3.867161720881022,-12.536148112679326 L-3.676595221198655,-12.599175790262878 L-3.484825495850173,-12.658814753047029 L-3.2919057443985626,-12.715048456362108 L-3.0978894854398997,-12.767861300204336 L-2.902830541756535,-12.817238633563452 L-2.706783025385932,-12.863166758487127 L-2.509801322609225,-12.905632933880954 L-2.311940078863729,-12.944625379043007 L-2.1132541835835346,-12.980133276931968 L-1.9137987549724267,-13.012146777167922 L-1.713629124713334,-13.040656998764996 L-1.5128008226185599,-13.065656032595058 L-1.311369561225046,-13.087136943581816 L-1.1093912203389458,-13.105093772624713 L-0.9069218315338023,-13.119521538252064 L-0.704017562606615,-13.13041623800297 L-0.5007347019961124,-13.137774849537676 L-0.29712964316757695,-13.141595331475992 L-0.09325886896851099,-13.141876623963606 L0.11082106404048098,-13.138618648966114 L0.31505354127525376,-13.131822310290652 L0.5193819058338001,-13.121489493335167 L0.7237494742136459,-13.107623064565393 L0.9280995520366382,-13.090226870719652 L1.1323754497767418,-13.06930573774171 L1.3365204984864993,-13.044865469441989 L1.5404780655177808,-13.016912845887527 L1.7441915702324513,-12.985455621521078 L1.9476044996986266,-12.950502523009934 L2.150660424368132,-12.912063246825019 L2.3533030137308453,-12.870148456550954 L2.555476051941552,-12.824769779927843 L2.7571234534149847,-12.77593980562556 L2.9581892783847596,-12.723672079751507 L3.1586177484218156,-12.6679811020927 L3.358353261908129,-12.608882322093352 L3.5573404094613705,-12.546392134568988 L3.755523989306223,-12.48052787515828 L3.9528490225881265,-12.411307815513917 L4.149260768625156,-12.338751158233785 L4.344704740093845,-12.262878031533921 L4.539126718144724,-12.183709483664636 L4.732472767443381,-12.101267477071474 L4.9246892511328415,-12.015574882302515 L5.115722845713201,-11.926655471663755 L5.305520555834281,-11.83453391262437 L5.494029728997274,-11.739235760973592 L5.6811980701612725,-11.640787453731198 L5.866973656250629,-11.539216301813516 L6.051304950559141,-11.43455048245699 L6.234140817047027,-11.32681903140144 L6.415430534526795,-11.216051834835133 L6.595123810733967,-11.10227962110396 L6.773170796278874,-10.985533952186953 L6.949522098475541,-10.865847214940572 L7.124128795043913,-10.743252612114134 L7.296942447681566,-10.617784153138912 L7.46791511550115,-10.489476644693463 L7.636999368329861,-10.35836568104777 L7.804148299867225,-10.224487634188895 L7.969315540697549,-10.087879643730888 L8.132455271153436,-9.948579606611762 L8.293522234026781,-9.806626166580346 L8.452471747123775,-9.662058703475983 L8.609259715660317,-9.514917322304012 L8.763842644494549,-9.365242842110101 L8.916177650192994,-9.213076784656478 L9.066222472927013,-9.058461362903207 L9.21393548819626,-8.901439469297747 L9.359275718375903,-8.742054663875999 L9.502202844084364,-8.580351162178136 L9.642677215368485,-8.416373822982619 L9.780659862702969,-8.250168135861742 L9.916112507801051,-8.081780208562211 L10.048997574233441,-7.911256754214208 L10.179278197852529,-7.7386450783725325 L10.30691823701901,-7.563993065893386 L10.431882282628079,-7.3873491676504495 L10.554135667932394,-7.208762387093957 L10.673644478159117,-7.028282266656447 L10.790375559918338,-6.84595887400902 L10.904296530400279,-6.661842788171878 L11.01537578635873,-6.475985085483002 L11.123582512878235,-6.288437325428872 L11.228886691922561,-6.09925153634116 L11.331259110662122,-5.908480200963348 L11.430671369578016,-5.7161762418913025 L11.527095890340455,-5.522393006891806 L11.620505923459353,-5.327184254103156 L11.710875555705016,-5.130604137121924 L11.798179717296831,-4.932707189979996 L11.882394188857962,-4.7335483120160715 L11.963495608134137,-4.533182752645849 L12.04146147647467,-4.331666096035061 L12.116270165073884,-4.129054245679677 L12.187900920971247,-3.9254034088974876 L12.256333872808527,-3.720770081235428 L12.321550036342384,-3.5152110307969417 L12.383531319710846,-3.3087832824937173 L12.442260528452262,-3.1015441022261925 L12.497721370275276,-2.893550980997208 L12.54989845957851,-2.684861618963212 L12.598777321718785,-2.4755339094274422 L12.644344397026545,-2.2656259227795212 L12.686587044567524,-2.055195890385936 L12.725493545649499,-1.84430218843586 L12.761053107073224,-1.6330033217467792 L12.793255864126607,-1.4213579075344633 L12.822092883321323,-1.2094246591517328 L12.847556164871092,-0.9972623698005771 L12.86963864491091,-0.7849298962220941 L12.888334197456679,-0.5724861423688499 L12.903637636104635,-0.359990043064075 L12.915544715470133,-0.147500547652353 L12.924052132365357,0.06492339635374278 L12.929157526715697,0.2772228596265014 L12.930859482214439,0.4893389473708252 " />
			<path d="M16.328749565132103,-16.031302163510148 L16.328749565132103,19.216802762081294 " />
			<path d="M10.807563821335858,4.153867730394173 L10.730615520914462,4.301449359434077 L10.651200736419813,4.447493660814443 L10.569341857405629,4.591959460001442 L10.485061962493608,4.7348060274912225 L10.39838481286684,4.875993090292848 L10.309334845570769,5.015480843282543 L10.217937166623612,5.153229960426014 L10.12421754393817,5.289201605865713 L10.02820240005705,5.42335744486991 L9.92991880470329,5.555659654640452 L9.829394467148548,5.6860709349762395 L9.726657728400989,5.814554518789318 L9.621737553215036,5.941074182470695 L9.514663521925307,6.065594256102934 L9.405465822106951,6.188079633516639 L9.294175240064826,6.308495782187989 L9.18082315215386,6.426808752974563 L9.065441515933053,6.542985189686688 L8.948062861155634,6.656992338491599 L8.828720280597873,6.768798057147793 L8.707447420729194,6.878370824066945 L8.584278472226156,6.985679747200848 L8.459248160333008,7.090694572750866 L8.332391735071543,7.193385693697445 L8.203744961302998,7.293724158147269 L8.073344108644804,7.391681677495711 L7.941225941245017,7.4872306344023105 L7.807427707417342,7.580344090576965 L7.671987129139657,7.670995794374692 L7.534942391418974,7.759160188196802 L7.396332131525872,7.844812415696417 L7.256195428101467,7.927928328786214 " />
			<path d="M7.25619542810143,7.927928328786237 L7.04869128122973,8.044808403049915 L6.83813521075731,8.156149033818512 L6.624654047787823,8.261883153659346 L6.408376385391264,8.361947072292283 L6.189432501144322,8.456280514954363 L5.9679542786560305,8.544826658707084 L5.7440751281260125,8.627532166664404 L5.517929905983163,8.704347220120885 L5.289654833653186,8.775225548560625 L5.059387415503901,8.840124457528884 L4.827266356017745,8.899004854349629 L4.59343147624139,8.95183127167349 L4.35802362956276,8.99857188884198 L4.121184616866232,9.039198551055062 L3.883057101117071,9.073686786330548 L3.6437845214265994,9.102015820245107 L3.4035110066498473,9.124168588447992 L3.1623812885677185,9.140131746939993 L2.9205406147059585,9.14989568011133 L2.678134660843494,9.153454506533757 L2.4353094432627937,9.150806082503316 L2.192211230795106,9.141952003331603 L1.9489864567135946,9.126897602384846 L1.7057816305274045,9.105651947871245 L1.4627432497298196,9.07822783737866 L1.2200177115536386,9.044641790165796 L0.9777512247869655,9.004914037211629 L0.7360897217025002,8.959068509029022 L0.49517877015339806,8.907132821249881 L0.25516348588863735,8.849138257990523 L0.016188445140703056,8.785119753007296 L-0.22160240246171092,8.715115868653799 L-0.45806582060358014,8.63916877265235 L-0.6930593725637566,8.557324212693738 L-0.9264415070135104,8.469631488880514 L-1.1580716432817653,8.376143424030463 L-1.3878102560356456,8.276916331858107 L-1.6155189593253088,8.172009983053432 L-1.8410605899424715,8.061487569278254 L-2.06429929004239,7.945415665101933 L-2.285100588979563,7.823864187899336 L-2.5033314843077994,7.696906355735226 L-2.718860521895932,7.564618643260449 L-2.9315578751108697,7.427080735646429 L-3.141295423020299,7.284375480585849 L-3.347946827567955,7.136588838388262 L-3.5513876096749293,6.983809830200826 L-3.7514952242212205,6.826130484385304 L-3.9481491338623362,6.663645781083602 L-4.141230881636468,6.496453595005292 L-4.330624162318548,6.3246546364715535 L-4.516214892478169,6.148352390751027 L-4.697891279199162,5.9676530557241705 L-4.875543887419484,5.782665477913621 L-5.049065705850813,5.5935010869191135 L-5.218352211438106,5.400273828296482 L-5.3833014323204385,5.203100094921087 L-5.543814009255003,5.0020986568771 L-5.699793255467397,4.797390589914889 L-5.851145214892143,4.589099202519456 L-5.997778718768303,4.37734996163405 L-6.139605440556117,4.162270417083569 L-6.276539949141627,3.9439901247433067 L-6.408499760297168,3.722640568499342 L-6.535405386366801,3.498355081047565 L-6.657180384146683,3.271268763579041 L-6.773751400931612,3.041518404400108 L-6.88504821869995,2.8092423965362183 L-6.991003796410332,2.574580654369149 L-7.091554310384675,2.3376745293578134 L-7.1866391927531925,2.0986667248934188 L-7.27620116793819,1.857701210340313 L-7.360186287154757,1.614923134314177 L-7.43854396090749,1.3704787372499403 L-7.511226989463692,1.1245152633120485 L-7.578191591284762,0.8771808717000253 L-7.639397429398526,0.6286245474029502 L-7.694807635696739,0.37899601145645856 L-7.744388833143049,0.12844563075639415 L-7.788111155878077,-0.12287567251659204 L-7.82594826720949,-0.3748165118069171 L-7.857877375476239,-0.6272251273736671 L-7.88387924777741,-0.8799494777049917 L-7.903938221557405,-1.132837331102223 L-7.9180422140404705,-1.385736357378559 L-7.92618272950892,-1.6384942196170778 L-7.928354864420623,-1.8909586659327882 L-7.924557310362735,-2.142977621183486 L-7.914792354839818,-2.394399278574122 L-7.8990658798959466,-2.6450721910995476 L-7.877387358571571,-2.8948453627705195 L-7.849769849197331,-3.143568339568046 L-7.816229987528185,-3.391091300071251 L-7.776787976722668,-3.6372651457042116 L-7.731467575173253,-3.881941590547359 L-7.680296082195202,-4.124973250659342 L-7.623304321582452,-4.366213732855657 L-7.5605266230405395,-4.605517722890405 L-7.492000801507661,-4.842741072988117 L-7.4177681343763595,-5.077740888673061 L-7.337873336629574,-5.310375614843474 L-7.252364533906011,-5.540505121039085 L-7.161293233511049,-5.767990785850458 L-7.0647142933906775,-5.992695580419349 L-6.962685889087098,-6.214484150979761 L-6.855269478695977,-6.43322290039 L-6.742529765846378,-6.648780068606586 L-6.624534660725708,-6.86102581205159 L-6.501355239173176,-7.069832281825537 L-6.373065699866348,-7.275073700718817 L-6.239743319626646,-7.476626438975156 L-6.1014684068706835,-7.674369088761574 L-5.958324253235469,-7.868182537299907 L-5.810397083406652,-8.057950038615912 L-5.657776003179984,-8.243557283862662 L-5.500552945787321,-8.424892470175921 L-5.338822616519488,-8.60184636802001 L-5.172682435679353,-8.7743123869836 L-5.00223247989946,-8.942186639985797 L-4.827575421859655,-9.105368005853803 L-4.648816468440844,-9.263758190234567 L-4.466063297352333,-9.417261784803614 L-4.279425992270816,-9.565786324735434 L-4.089016976530053,-9.709242344400872 L-3.89495094540127,-9.84754343125784 L-3.697344797005025,-9.980606277903034 L-3.4963175618961415,-10.108350732253168 L-3.2919903313642314,-10.230699845825574 " />
			<path d="M-3.291990331364155,-10.230699845825619 L-3.1503666934024324,-10.311256011486055 L-3.0072960491116323,-10.389229718371737 L-2.862818734657065,-10.464598983214564 L-2.716975482789106,-10.537342557021482 L-2.5698074113593323,-10.607439931065265 L-2.4213560117280917,-10.674871342666561 L-2.2716631370667777,-10.739617780765634 L-2.120770990558073,-10.801660991282171 L-1.9687221134975514,-10.860983482261709 L-1.8155593732999113,-10.917568528807152 L-1.6613259514133034,-10.97140017779406 L-1.5060653311451033,-11.022463252368352 L-1.3498212854025788,-11.070743356225123 L-1.192637864351922,-11.11622687766744 L-1.0345593829991002,-11.158900993443902 L-0.8756304086960536,-11.198753672363924 L-0.715895748575734,-11.235773678689714 L-0.5554004369195504,-11.269950575303984 L-0.39418972246078,-11.301274726652505 L-0.2323090556274976,-11.329737301460675 L-0.06980407572866731,-11.355330275223338 L0.09327940191304007,-11.37804643246715 L0.25689539887803603,-11.397879368784844 L0.4209977866125998,-11.41482349264084 L0.5855402994339776,-11.428874026947678 L0.7504765475741606,-11.440027010412827 L0.9157600302586251,-11.448279298655502 L1.0813441488163855,-11.453628565093164 L1.2471822198176445,-11.45607330159746 L1.4132274882353295,-11.455612818919409 L1.5794331406268256,-11.452247246883726 L1.745752318332169,-11.445977534352213 " />
			<path d="M15.845306471032188,2.9385900418675774 L7.256195428101429,7.927928328786237 " />
			<path d="M5.297120711566605,-15.220038132744278 L-3.291990331364155,-10.230699845825619 " />

       </g>

       <!-- solid lines -->
       <g  stroke="rgb(0,0,0)" fill="none">
			<path d="M-17.650151264044528,-18.449212256401502 L-16.328749565132103,-19.216802762081297 " />
			<path d="M-16.328749565132103,-19.216802762081294 L-16.328749565132103,16.031302163510148 " />
			<path d="M-17.650151264044528,16.79889266918994 L-16.328749565132103,16.031302163510144 " />
			<path d="M-17.650151264044528,-18.449212256401502 L-17.650151264044528,16.79889266918994 " />
			<path d="M-16.328749565132103,-19.216802762081294 L4.673798053771829,-17.72227908341733 " />
			<path d="M16.468629128826965,-16.882968793667285 L17.65015126404452,-16.798892669189943 " />
			<path d="M-16.328749565132103,16.031302163510148 L17.65015126404452,18.4492122564015 " />
			<path d="M17.650151264044528,-16.79889266918994 L17.650151264044528,-16.03359784913787 " />
			<path d="M17.650151264044528,4.759612296965894 L17.650151264044528,18.449212256401502 " />
			<path d="M7.190530129125384,10.857260283824585 L6.933620232998518,11.001968947198662 L6.672931764794568,11.139819251959782 L6.4086217534990135,11.27072816223891 L6.140849409579465,11.3946168234035 L5.869776029083251,11.51141060955655 L5.5955648964787015,11.621039168488492 L5.3183811862986765,11.723436464054695 L5.038391863645625,11.818540815953195 L4.755765583618036,11.906294936878588 L4.4706725897189195,11.986645967029768 L4.183284611307489,12.059545505950688 L3.893774760155811,12.124949641684992 L3.602317426172746,12.182818977226933 L3.309088172357997,12.233118654252655 L3.0142636290495113,12.27581837411754 L2.7180213875279753,12.310892416106993 L2.4205398930424726,12.338319652929616 L2.1219983373217417,12.35808356344352 L1.8225765506357519,12.370172242608033 L1.5224548934727027,12.37457840865485 L1.2218141478965974,12.371299407474298 L0.9208354086508868,12.360337214214086 L0.6196999740737787,12.341698432089528 L0.3185892368908769,12.315394288406024 L0.017684574951008614,12.281440627796156 L-0.2828327580290253,12.239857902675466 L-0.5827817416449044,12.190671160922689 L-0.8819816978447186,12.133910030791844 L-1.1802523997626535,12.069608703065287 L-1.477414180280931,11.997805910458462 L-1.7732880402545632,11.918544904288753 L-2.067695756333742,11.831873428422519 L-2.3604599883189135,11.737843690515964 L-2.651404385983894,11.636512330567205 L-2.940353695302637,11.52794038679845 L-3.2271338640157134,11.412193258888864 L-3.511572146472899,11.289340668580234 L-3.793497207688673,11.159456617679208 L-4.072739226548016,11.022619343481368 L-4.349129998100297,10.878911271644016 L-4.622503034879653,10.728418966536042 L-4.892693667190803,10.571233079094766 L-5.159539142299922,10.407448292221227 L-5.422878722470795,10.237163263746726 L-5.6825537817872345,10.060480567005056 L-5.9384079017033775,9.877506629046138 L-6.190286965264394,9.688351666528364 L-6.438039249940755,9.493129619328192 L-6.68151551902023,9.291958081907035 L-6.92056911150249,9.08495823247675 L-7.155056030442209,8.872254760006406 L-7.384835029687451,8.653975789114325 L-7.609767698961061,8.430252802890598 L-7.829718547233844,8.201220563696586 L-8.044555084339297,7.967017031989099 L-8.254147900780708,7.727783283218224 L-8.458370745682643,7.483663422848685 L-8.657100602839723,7.23480449955613 L-8.850217764816971,6.981356416650536 L-9.037605905057136,6.7234718417799995 L-9.219152147951426,6.461306114969497 L-9.39474713683158,6.195017155049854 L-9.564285099842209,5.924765364533338 L-9.727663913653833,5.6507135329931915 L-9.884785164978139,5.373026739005277 L-10.035554209848469,5.091872250710914 L-10.17988023062981,4.807419425060806 L-10.317676290723945,4.519839605800754 L-10.448859386936796,4.229306020260572 L-10.57335049947646,3.935993675008441 L-10.691074639551765,3.640079250433476 L-10.801960894542715,3.3417409943201077 L-10.90594247071561,3.041158614478225 L-11.002956733457088,2.738513170493932 L-11.092945245002863,2.433986964666066 L-11.175853799638471,2.127763432194037 L-11.25163245635075,1.8200270306833726 L-11.320235568910443,1.5109631290353354 L-11.381621813367783,1.200757895787637 L-11.435754212944483,0.8895981869734635 L-11.482600160307182,0.5776714335663946 L-11.52213143720887,0.2651655285789898 L-11.554324231486513,-0.04773128611693633 L-11.5791591514046,-0.3608305331801749 L-11.596621237336016,-0.6739436133318304 L-11.606699970773144,-0.9868819189604701 L-11.609389280663823,-1.2994569477323037 L-11.604687547068345,-1.6114804161379281 L-11.59259760213521,-1.9227643729072883 L-11.573126728395177,-2.2331213122244815 L-11.546286654374523,-2.542364286674256 L-11.512093547530226,-2.8503070198521465 L-11.470568004511282,-3.1567640185704002 L-11.421735038752068,-3.4615506845921606 L-11.365624065405175,-3.7644834258265334 L-11.302268883622826,-4.06537976691756 L-11.231707656197516,-4.364058459160617 L-11.153982886574198,-4.660339589679828 L-11.069141393247774,-4.9540446898008055 L-10.977234281561401,-5.244996842553591 L-10.878316912922525,-5.533020789240773 L-10.772448871455257,-5.817943035006767 L-10.659693928109117,-6.099591953344658 L-10.540120002245793,-6.377797889477569 L-10.413799120727077,-6.652393262552365 L-10.280807374528548,-6.923212666584088 L-10.141224872905234,-7.190092970090338 L-9.995135695136788,-7.452873414355579 L-9.84262783988127,-7.711395710266182 L-9.683793172168055,-7.965504133657863 L-9.518727368061757,-8.215045619118095 L-9.347529857030565,-8.459869852186989 L-9.170303762053633,-8.699829359901118 L-8.98715583750367,-8.9347795996257 L-8.79819640484208,-9.164579046121672 L-8.60353928616545,-9.389089276795229 L-8.403301735643373,-9.608175055078387 L-8.197604368888918,-9.821704411890453 L-7.98657109030429,-10.029548725131269 L-7.770329018445484,-10.231582797158321 L-7.549008409450764,-10.42768493020117 L-7.322742578579275,-10.617736999667613 L-7.09166781990692,-10.801624525297484 L-6.855923324227879,-10.979236740121358 L-6.615651095211291,-11.150466657182369 L-6.370995863863559,-11.315211133981178 L-6.1221050013478,-11.473370934605155 L-5.8691284302130535,-11.624850789504325 " />
			<path d="M-17.650151264044528,16.79889266918994 L16.328749565132096,19.21680276208129 " />
			<path d="M16.328749565132103,19.216802762081294 L17.650151264044528,18.4492122564015 " />
			<path d="M22.841372224057622,-5.267589845227583 L22.839845437851253,-5.066908463682747 L22.83526545919073,-4.866494313698233 L22.827633427857283,-4.666397270678088 L22.81695124317113,-4.4666671311105794 L22.803221563518804,-4.267353600175769 L22.786447805691584,-4.068506279375783 L22.766634144035187,-3.870174654190911 L22.74378550941094,-3.672408081764549 L22.71790758796866,-3.4752557786201264 L22.689006819731624,-3.2787668084129784 L22.65709039699384,-3.0829900697202692 L22.622166262530214,-2.887974283872037 L22.584243107619862,-2.693767982826306 L22.543330369883204,-2.500419497091343 L22.499438230933293,-2.3079769436980495 L22.452577613842,-2.1164882142254715 L22.402760180421684,-1.9260009628824264 L22.349998328323014,-1.7365625946481824 L22.29430518794966,-1.5482202534751988 L22.235694619190664,-1.36102081055677 L22.174181207971202,-1.1750108526626146 L22.10978026262275,-0.9902366705452046 L22.04250781007339,-0.8067442474197399 L21.972380591859356,-0.624579247520729 L21.899416059958675,-0.4437870047378851 L21.82363237244806,-0.26441251133427013 L21.74504838898406,-0.08650040674944215 L21.663683666109584,0.08990503350960566 L21.579558452387083,0.2647599088868935 L21.492693683359395,0.4380207047026534 L21.403110976339732,0.6096443029824421 L21.310832625031956,0.7795879931875671 L21.215881593982512,0.947809482844093 L21.11828151286545,1.114266908067819 L21.018056670601887,1.2789188439826118 L20.915232009315442,1.4417243150294556 L20.809833118125084,1.6026428051636987 L20.701886226776985,1.7616342679379482 L20.591418199116955,1.918659136468099 L20.478456526405033,2.0736783332800144 L20.36302932047398,2.226653280034398 L20.245165306733334,2.3775459071275016 L20.124893817020727,2.526318663165142 L20.002244782302334,2.6729345243078484 L19.877248725224206,2.817357003484645 L19.74993675251634,2.9595501594733022 L19.62034054725141,3.099478605844727 L19.48849236096006,3.2371075197692907 L19.354425005604735,3.372402650682897 L19.21817184541406,3.5053303288106292 L19.079766788579732,3.635857473545874 L18.939244278818084,3.7639516016828125 L18.796639286798364,3.8895808355002526 L18.65198730143988,4.012713910694764 L18.505324321080153,4.133320184161169 L18.356686844516314,4.251369641618442 L18.206111861921976,4.366832905079109 L18.053636845641766,4.479681240160296 L17.899299740865896,4.589886563234639 L17.743138956187078,4.697421448419195 L17.585193354042083,4.802259134400719 L17.425502241040377,4.904373531095512 L17.2641053581822,5.003739226142246 L17.101042870968616,5.100331491226104 " />
			<path d="M17.10104287096857,5.100331491226132 L16.844132974841703,5.2450401546002094 L16.583444506637754,5.382890459361329 L16.319134495342198,5.5137993696404575 L16.05136215142265,5.637688030805046 L15.780288770926436,5.754481816958098 L15.506077638321887,5.864110375890039 L15.228893928141861,5.966507671456242 L14.94890460548881,6.061612023354742 L14.66627832546122,6.149366144280135 L14.381185331562104,6.229717174431315 L14.093797353150674,6.302616713352235 L13.804287501998996,6.368020849086539 L13.512830168015931,6.42589018462848 L13.219600914201182,6.476189861654202 L12.924776370892696,6.518889581519087 L12.628534129371161,6.55396362350854 L12.331052634885658,6.5813908603311635 L12.032511079164927,6.601154770845067 L11.733089292478937,6.6132434500095805 L11.432967635315887,6.617649616056397 L11.132326889739783,6.614370614875845 L10.831348150494073,6.603408421615633 L10.530212715916964,6.584769639491075 L10.229101978734061,6.558465495807571 L9.928197316794193,6.524511835197703 L9.62767998381416,6.482929110077013 L9.32773100019828,6.433742368324236 L9.028531043998466,6.376981238193391 L8.73026034208053,6.312679910466834 L8.433098561562254,6.240877117860009 L8.137224701588622,6.1616161116903 L7.842816985509443,6.074944635824066 L7.550052753524271,5.980914897917511 L7.259108355859291,5.879583537968752 L6.970159046540548,5.771011594199997 L6.683378877827471,5.6552644662904115 L6.398940595370286,5.532411875981781 L6.117015534154512,5.402527825080755 L5.837773515295169,5.2656905508829155 L5.561382743742888,5.121982479045563 L5.288009706963532,4.971490173937589 L5.017819074652382,4.814304286496313 L4.750973599543263,4.650519499622774 L4.48763401937239,4.480234471148274 L4.22795896005595,4.303551774406603 L3.9721048401398074,4.120577836447685 L3.7202257765787907,3.931422873929911 L3.47247349190243,3.736200826729739 L3.2289972228229544,3.535029289308582 L2.9899436303406945,3.3280294398782964 L2.755456711400976,3.115325967407953 L2.5256777121557334,2.897046996515872 L2.3007450428821237,2.673324010292145 L2.080794194609341,2.4442917710981327 L1.8659576575038876,2.210088239390645 L1.6563648410624765,1.9708544906197698 L1.4521419961605417,1.726734630250231 L1.253412139003462,1.4778757069576764 L1.0602949770262136,1.2244276240520824 L0.8729068367860489,0.9665430491815457 L0.6913605938917584,0.7043773223710428 L0.5157656050116053,0.43808836245140004 L0.3462276420009758,0.16783657193488377 L0.18284882818935166,-0.10621525960526235 L0.02572757686504623,-0.383902053593177 L-0.12504146800528382,-0.66505654188754 L-0.2693674887866244,-0.9495093675376474 L-0.4071635488807601,-1.2370891867977 L-0.5383466450936112,-1.5276227723378817 L-0.6628377576332749,-1.8209351175900128 L-0.78056189770858,-2.116849542164978 L-0.8914481526995299,-2.415187798278346 L-0.9954297288724252,-2.715770178120229 L-1.0924439916139033,-3.0184156221045213 L-1.1824325031596779,-3.3229418279323872 L-1.2653410577952862,-3.629165360404417 L-1.341119714507565,-3.936901761915081 L-1.4097228270672577,-4.245965663563118 L-1.471109071524598,-4.5561708968108166 L-1.5252414711012978,-4.86733060562499 L-1.5720874184639975,-5.179257359032059 L-1.611618695365685,-5.491763264019464 L-1.643811489643328,-5.80466007871539 L-1.6686464095614149,-6.1177593257786285 L-1.6861084954928316,-6.430872405930284 L-1.6961872289299595,-6.743810711558924 L-1.6988765388206382,-7.056385740330757 L-1.6941748052251597,-7.368409208736382 L-1.6820848602920258,-7.679693165505742 L-1.6626139865519924,-7.990050104822935 L-1.635773912531338,-8.29929307927271 L-1.6015808056870409,-8.6072358124506 L-1.5600552626680972,-8.913692811168854 L-1.5112222969088833,-9.218479477190614 L-1.4551113235619901,-9.521412218424988 L-1.3917561417796414,-9.822308559516014 L-1.3211949143543311,-10.120987251759072 L-1.2434701447310132,-10.417268382278282 L-1.1586286514045891,-10.71097348239926 L-1.0667215397182161,-11.001925635152045 L-0.9678041710793401,-11.289949581839227 L-0.8619361296120722,-11.574871827605222 L-0.7491811862659326,-11.856520745943111 L-0.629607260402608,-12.134726682076023 L-0.5032863788838924,-12.409322055150819 L-0.3702946326853631,-12.680141459182542 L-0.2307121310620488,-12.947021762688792 L-0.08462295329360359,-13.209802206954032 L0.06788490196191432,-13.468324502864636 L0.2267195696751294,-13.722432926256317 L0.39178537378142764,-13.971974411716548 L0.5629828848126195,-14.216798644785442 L0.7402089797895517,-14.456758152499571 L0.9233569043395153,-14.691708392224152 L1.1123163370011042,-14.921507838720125 L1.3069734556777348,-15.146018069393682 L1.507211006199812,-15.36510384767684 L1.7129083729542671,-15.578633204488906 L1.923941651538895,-15.786477517729722 L2.1401837233977012,-15.988511589756774 L2.361504332392421,-16.184613722799625 L2.58777016326391,-16.374665792266065 L2.8188449219362646,-16.558553317895935 L3.054589417615306,-16.73616553271981 L3.294861646631894,-16.90739544978082 L3.5395168779796258,-17.07213992657963 L3.7884077404953853,-17.230299727203608 L4.041384311630131,-17.38177958210278 " />
			<path d="M4.041384311630226,-17.381779582102833 L4.21530997683442,-17.48072611196548 L4.390998857238986,-17.576526769072842 L4.568402214328798,-17.66915497700321 L4.747470833969283,-17.758585039415962 L4.928155040059097,-17.844792147180097 L5.11040470831097,-17.92775238525662 L5.294169280156866,-18.00744273933291 L5.479397776773629,-18.083841102207188 L5.666038813225203,-18.156926279921393 L5.854040612717537,-18.226677997640643 L6.043351020962163,-18.29307690527778 L6.23391752064453,-18.35610458286133 L6.425687245993012,-18.415743545645483 L6.618606997444623,-18.471977248960563 L6.812623256403285,-18.52479009280279 L7.00768220008665,-18.574167426161907 L7.203729716457253,-18.62009555108558 L7.40071141923396,-18.662561726479407 L7.598572662979455,-18.70155417164146 L7.79725855825965,-18.73706206953042 L7.996713986870758,-18.769075569766375 L8.196883617129851,-18.79758579136345 L8.397711919224625,-18.82258482519351 L8.599143180618139,-18.84406573618027 L8.801121521504239,-18.862022565223164 L9.003590910309383,-18.876450330850517 L9.206495179236569,-18.887345030601423 L9.409778039847073,-18.89470364213613 L9.613383098675609,-18.898524124074445 L9.817253872874673,-18.89880541656206 L10.021333805883666,-18.895547441564567 L10.22556628311844,-18.888751102889103 L10.429894647676985,-18.87841828593362 L10.63426221605683,-18.864551857163846 L10.838612293879823,-18.847155663318105 L11.042888191619927,-18.826234530340162 L11.247033240329685,-18.801794262040442 L11.450990807360967,-18.77384163848598 L11.654704312075637,-18.74238441411953 L11.858117241541812,-18.70743131560839 L12.061173166211317,-18.668992039423472 L12.26381575557403,-18.62707724914941 L12.465988793784737,-18.581698572526296 L12.667636195258169,-18.532868598224013 L12.868702020227945,-18.48060087234996 L13.069130490265,-18.424909894691154 L13.268866003751313,-18.365811114691805 L13.467853151304556,-18.30332092716744 L13.666036731149408,-18.23745666775673 L13.86336176443131,-18.16823660811237 L14.059773510468341,-18.09567995083224 L14.25521748193703,-18.019806824132374 L14.449639459987909,-17.940638276263087 L14.642985509286566,-17.858196269669925 L14.835201992976026,-17.772503674900967 L15.026235587556386,-17.68358426426221 L15.216033297677466,-17.591462705222824 L15.40454247084046,-17.496164553572044 L15.591710812004457,-17.39771624632965 L15.777486398093814,-17.29614509441197 L15.961817692402326,-17.191479275055443 L16.144653558890212,-17.083747823999893 L16.32594327636998,-16.972980627433586 L16.50563655257715,-16.85920841370241 L16.68368353812206,-16.742462744785406 L16.860034840318725,-16.622776007539024 L17.034641536887097,-16.500181404712585 L17.20745518952475,-16.374712945737365 L17.378427857344334,-16.246405437291916 L17.547512110173045,-16.115294473646223 L17.71466104171041,-15.981416426787348 L17.879828282540736,-15.844808436329341 L18.04296801299662,-15.705508399210215 L18.204034975869966,-15.563554959178798 L18.36298448896696,-15.418987496074436 L18.5197724575035,-15.271846114902464 L18.674355386337734,-15.122171634708554 L18.826690392036177,-14.97000557725493 L18.976735214770198,-14.81539015550166 L19.124448230039444,-14.6583682618962 L19.26978846021909,-14.498983456474452 L19.41271558592755,-14.337279954776589 L19.55318995721167,-14.173302615581072 L19.691172604546153,-14.007096928460196 L19.826625249644238,-13.838709001160664 L19.959510316076624,-13.668185546812662 L20.089790939695714,-13.495573870970986 L20.217430978862197,-13.32092185849184 L20.342395024471266,-13.144277960248903 L20.464648409775577,-12.96569117969241 L20.584157220002304,-12.785211059254902 L20.700888301761523,-12.602887666607474 L20.814809272243465,-12.418771580770333 L20.925888528201916,-12.232913878081455 L21.03409525472142,-12.045366118027326 L21.139399433765746,-11.856180328939613 L21.24177185250531,-11.665408993561801 L21.3411841114212,-11.473105034489755 L21.43760863218364,-11.27932179949026 L21.53101866530254,-11.08411304670161 L21.6213882975482,-10.88753292972038 L21.708692459140018,-10.68963598257845 L21.792906930701147,-10.490477104614525 L21.874008349977323,-10.290111545244303 L21.951974218317854,-10.088594888633514 L22.02678290691707,-9.88598303827813 L22.09841366281443,-9.68233220149594 L22.16684661465171,-9.477698873833882 L22.23206277818557,-9.272139823395396 L22.294044061554033,-9.06571207509217 L22.352773270295447,-8.858472894824645 L22.40823411211846,-8.650479773595661 L22.460411201421692,-8.441790411561666 L22.50929006356197,-8.232462702025895 L22.55485713886973,-8.022554715377975 L22.59709978641071,-7.81212468298439 L22.636006287492684,-7.6012309810343135 L22.67156584891641,-7.389932114345233 L22.703768605969792,-7.178286700132917 L22.73260562516451,-6.966353451750186 L22.75806890671428,-6.754191162399031 L22.780151386754095,-6.541858688820548 L22.798846939299864,-6.3294149349673035 L22.81415037794782,-6.116918835662529 L22.82605745731332,-5.904429340250807 L22.834564874208542,-5.692005396244711 L22.839670268558883,-5.479705932971952 L22.841372224057622,-5.267589845227628 " />
			<path d="M20.481726333142582,-5.435500268345039 L20.480351676778213,-5.606824800753964 L20.476228089033704,-5.7782974441665775 L20.469356713849102,-5.949870629709962 L20.45973945743851,-6.121496760619431 L20.44737898776131,-6.293128225442517 L20.432278733782034,-6.464717411247062 L20.414442884519104,-6.636216716829677 L20.393876387882756,-6.807578565920995 L20.370584949302405,-6.978755420383969 L20.344575030143904,-7.149699793401609 L20.315853845917054,-7.3203642626504815 L20.28442936427392,-7.490701483456314 L20.25031030279851,-7.660664201928055 L20.213506126588396,-7.830205268066759 L20.174027045628947,-7.999277648845652 L20.131884011960945,-8.167834441257725 L20.08708871664236,-8.335828885327288 L20.03965358650506,-8.503214377081829 L19.989591780707457,-8.669944481480588 L19.936917187083957,-8.835972945296287 L19.881644418292307,-9.001253709946411 L19.82378880775982,-9.165740924270487 L19.763366405429686,-9.329388957249837 L19.700393973308486,-9.492152410666241 L19.634888980816193,-9.653986131696037 L19.566869599939892,-9.81484522543613 L19.496354700192658,-9.974685067358458 L19.42336384337885,-10.133461315689452 L19.347917278167436,-10.291129923711054 L19.2700359344747,-10.447647151979877 L19.189741417658013,-10.602969580461146 L19.107056002522214,-10.757054120573992 L19.02200262714026,-10.909858027144837 L18.93460488648989,-11.06133891026548 L18.844887025908065,-11.211454747052649 L18.752873934364956,-11.360163893305726 L18.658591137559434,-11.507425095059418 L18.562064790837848,-11.653197500028174 L18.463321671938207,-11.797440668939188 L18.362389173561652,-11.940114586750791 L18.25929529577334,-12.081179673753178 L18.154068638234847,-12.220596796548378 L18.046738392270225,-12.35832727890638 L17.937334332767925,-12.494332912494464 L17.825886809920842,-12.628575967476708 L17.712426740806745,-12.76101920298078 L17.59698560081145,-12.891625877429053 L17.479595414897126,-13.020359758731237 L17.360288748718116,-13.147185134335643 L17.23909869958679,-13.272066821136365 L17.116058887291896,-13.39497017523352 L16.991203444771937,-13.515861101543987 L16.86456700864627,-13.63470606325981 L16.73618470960639,-13.751472091151795 L16.606092162670222,-13.866126792715631 L16.474325457302008,-13.978638361158001 L16.340921147400593,-14.088975584220236 L16.205916241158874,-14.197107852837025 L16.06934819079722,-14.303005169627777 L15.931254882173713,-14.406638157218328 L15.791674624274073,-14.507978066390622 L15.650646138584234,-14.606996784058131 L15.508208548348463,-14.703666841064823 L15.364401367716038,-14.797961419805482 L15.219264490779477,-14.889854361665275 L15.072838180507357,-14.979320174276523 L14.925163057574832,-15.066334038590622 L14.776280089094882,-15.1508718157632 L14.62623057725348,-15.232910053850556 L14.47505614785179,-15.312425994315566 L14.3227987387586,-15.389397578341196 L14.16950058827619,-15.463803452949932 L14.015204223422822,-15.53562297692739 L13.859952448135177,-15.604836226548475 L13.703788331393957,-15.671424001104489 L13.546755195275937,-15.735367828229679 L13.388896602935842,-15.796649969025726 L13.230256346521319,-15.855253422982754 L13.070878435024397,-15.911161932695508 L12.910807082072786,-15.964359988373388 L12.7500866936644,-16.014832832143064 L12.588761855848531,-16.062566462142538 L12.426877322357065,-16.10754763640542 L12.264478002189172,-16.149763876534465 L12.101608947152936,-16.189203471163232 L11.938315339367366,-16.225855479204974 L11.774642478728252,-16.25970973288787 L11.610635770341345,-16.29075684057569 L11.446340711926357,-16.31898818937315 L11.281802881195278,-16.34439594751528 L11.117067923208474,-16.36697306654004 L10.952181537712132,-16.386713283243658 L10.78718946646051,-16.40361112141815 L10.622137480526556,-16.41766189337048 L10.457071367604367,-16.428861701222992 L10.29203691930708,-16.43720743799473 L10.127079918463611,-16.442696788463373 L9.962246126417883,-16.4453282298075 L9.797581270334023,-16.44510103202904 L9.633131030510976,-16.442015258155784 L9.468941027710185,-16.43607176422391 L9.305056810499767,-16.427272199040484 L9.141523842618689,-16.41561900372609 L8.978387490364533,-16.401115411037594 L8.815693010008232,-16.383765444471365 L8.653485535239376,-16.363573917147086 L8.491810064645493,-16.34054643047253 L8.330711449228831,-16.31468937258964 L8.170234379964057,-16.286009916602403 L8.01042337540039,-16.254516018586898 L7.851322769311512,-16.22021641538419 L7.692976698396794,-16.18312062217661 L7.535429090037156,-16.14323892984809 L7.378723650109003,-16.10058240212937 L7.222903850859628,-16.055162872528726 L7.0680129188473915,-16.00699294104922 L6.914093822950097,-15.956085970693275 L6.761189262444823,-15.902456083755588 L6.609341655162549,-15.846118157905423 L6.458593125720892,-15.787087822059336 L6.308985493838124,-15.725381452045495 L6.160560262731819,-15.661016166060799 L6.013358607605307,-15.59400981992207 L5.867421364225072,-15.524381002112575 L5.722789017592375,-15.452149028625351 L5.579501690712143,-15.377333937604671 L5.437599133462301,-15.299956483787184 L5.297120711566643,-15.220038132744302 " />
			<path d="M5.297120711566606,-15.220038132744278 L5.092793481034621,-15.09768901917183 L4.891766245925739,-14.969944564821695 L4.694160097529494,-14.836881718176501 L4.500094066400706,-14.698580631319532 L4.309685050659939,-14.555124611654092 L4.123047745578424,-14.40660007172227 L3.9402945744899176,-14.25309647715323 L3.7615356210711077,-14.094706292772466 L3.586878563031302,-13.93152492690446 L3.416428607251417,-13.76365067390227 L3.250288426411279,-13.591184654938678 L3.088558097143448,-13.414230757094588 L2.9313350397507847,-13.23289557078133 L2.778713959524115,-13.047288325534584 L2.630786789695298,-12.857520824218579 L2.487642636060082,-12.66370737568024 L2.349367723304116,-12.465964725893818 L2.2160453430644154,-12.26441198763748 L2.0877558037575845,-12.059170568744202 L1.9645763822050526,-11.850364098970251 L1.8465812770843844,-11.638118355525249 L1.733841564234785,-11.422561187308663 L1.6264251538436643,-11.203822437898426 L1.5243967495400845,-10.98203386733801 L1.427817809419711,-10.757329072769123 L1.3367465090247492,-10.529843407957749 L1.251237706301188,-10.299713901762136 L1.1713429085544025,-10.067079175591719 L1.0971102414230973,-9.832079359906771 L1.028584419890219,-9.594856009809059 L0.9658067213483097,-9.355552019774322 L0.90881496073556,-9.114311537578006 L0.8576434677575087,-8.871279877466021 L0.8123230662080942,-8.62660343262288 L0.7728810554025749,-8.380429586989916 L0.7393411937334289,-8.132906626486708 L0.711723684359189,-7.8841836496891835 L0.6900451630348154,-7.634410478018211 L0.674318688090942,-7.383737565492785 L0.6645537325680255,-7.132315908102149 L0.6607561785101375,-6.8802969528514515 L0.6629283134218404,-6.62783250653574 L0.671068828890288,-6.375074644297222 L0.685172821373353,-6.122175618020885 L0.7052317951533489,-5.869287764623655 L0.7312336674545215,-5.616563414292331 L0.7631627757212716,-5.36415479872558 L0.8009998870526829,-5.112213959435255 L0.8447222097877098,-4.860892656162269 L0.8943034072340197,-4.610342275462205 L0.9497136135322357,-4.360713739515715 L1.0109194516459983,-4.112157415218638 L1.0778840534670664,-3.8648230236066152 L1.1505670820232705,-3.6188595496687235 L1.228924755776001,-3.3744151526044863 L1.3129098749925703,-3.1316370765783503 L1.4024718501775677,-2.8906715620252452 L1.4975567325460855,-2.6516637575608506 L1.598107246520426,-2.414757632549514 L1.7040628242308085,-2.1800958903824443 L1.8153596419991462,-1.9478198825185542 L1.9319306587840757,-1.7180695233396222 L2.0537056565639578,-1.490983205871098 L2.1806112826335884,-1.266697718419321 L2.3125710937891313,-1.0453481621753564 L2.449505602374641,-0.8270678698350942 L2.5913323241624555,-0.6119883252846119 L2.7379658280386154,-0.40023908439920675 L2.8893177874633613,-0.19194769700377368 L3.0452970336757534,0.0127603699584391 L3.205809610610318,0.21376180800242484 L3.370758831492651,0.41093554137782107 L3.5400453370799454,0.6041628000004504 L3.7135671555112726,0.79332719099496 L3.8912197637315966,0.9783147688055092 L4.072896150452587,1.1590141038323658 L4.258486880612207,1.3353163495528921 L4.4478801612942895,1.5071153080866306 L4.640961909068422,1.674307494164939 L4.837615818709536,1.836792197466643 L5.037723433255828,1.9944715432821667 L5.241164215362802,2.1472505514696003 L5.4478156199104575,2.295037193667188 L5.65755316781989,2.437742448727768 L5.870250521034826,2.5752803563417856 L6.085779558622959,2.707568068816567 L6.304010453951194,2.834525900980676 L6.5248117528883665,2.95607737818327 L6.748050452988286,3.072149282359593 L6.973592083605448,3.182671696134772 L7.201300786895111,3.2875780449394476 L7.431039399648991,3.3868051371118035 L7.662669535917246,3.480293201961853 L7.896051670366996,3.5679859257750746 L8.131045222327177,3.649830485733691 L8.367508640469044,3.7257775817351373 L8.605299488071458,3.795781466088636 L8.844274528819403,3.8597999710718653 L9.084289813084165,3.9177945343312235 L9.325200764633262,3.969730222110364 L9.566862267717724,4.015575750292969 L9.809128754484394,4.055303503247135 L10.051854292660575,4.088889550459999 L10.294892673458161,4.116313660952587 L10.538097499644351,4.137559315466184 L10.781322273725863,4.1526137164129455 L11.02442048619355,4.161467795584656 L11.26724570377425,4.164116219615099 L11.509651657636713,4.1605573931926685 L11.751492331498476,4.150793460021333 L11.992622049580605,4.134830301529334 L12.232895564357351,4.112677533326448 L12.472168144047819,4.08434849941189 L12.71029565979698,4.049860264136404 L12.947134672493508,4.009233601923322 L13.182542519172138,3.9624929847548334 L13.416377398948494,3.909666567430971 L13.648498458434648,3.8507861706102293 L13.878765876583943,3.7858872616419657 L14.10704094891392,3.715008933202226 L14.33318617105677,3.638193879745744 L14.557065321586796,3.5554883717884245 L14.778543544075086,3.466942228035702 L14.997487428322025,3.3726087853736235 L15.21376509071858,3.272544866740688 L15.427246253688066,3.166810746899854 L15.637802324160488,3.055470116131257 L15.845306471032114,2.938590041867622 " />
			<path d="M15.845306471032188,2.9385900418675774 L15.977010787627815,2.8605732123767442 L16.10736980839788,2.7803163048389994 L16.236351091976182,2.697839292123973 L16.363922539862525,2.6131626996004353 L16.4900524044108,2.526307600028291 L16.614709296729774,2.437295608314402 L16.73786219449456,2.3461488761334426 L16.859480449666908,2.2528900864152135 L16.97953379612231,2.157542447699724 L17.097992357182093,2.0601296883614744 L17.21482665304856,1.96067605070437 L17.33000760814141,1.859206284928744 L17.44350655833351,1.755745642971986 L17.555295258084314,1.6503198722242862 L17.665345887469094,1.5429552091211196 L17.773631059102236,1.4336783726139748 L17.880123824952946,1.3225165575210562 L17.984797683051546,1.20949742775952 L18.087626584084823,1.094649109460991 L18.188584937878694,0.9780001839720427 L18.287647619766624,0.8595796807413976 L18.384789976842193,0.7394170700956106 L18.479987834094253,0.6175422559050272 L18.573217500423176,0.49398556814186634 L18.664455774536655,0.36877775533224444 L18.7536799507236,0.24194997690404563 L18.840867824504755,0.11353379543253439 L18.92599769815851,-0.016438831214355076 L19.00904838612064,-0.14793555782911305 L19.089999220256594,-0.2809236599141389 L19.168830055004992,-0.41537004182561077 L19.24552127239108,-0.5512412450097237 L19.320053786908897,-0.6885034563292445 L19.392409050270928,-0.8271225164783047 L19.462569056024066,-0.9670639284833404 L19.5305163440307,-1.1082928662880764 L19.59623400481393,-1.2507741834203827 L19.659705683765626,-1.3944724217389002 L19.720915585216506,-1.5393518202572034 L19.779848476367054,-1.6853763240433484 L19.83648969107839,-1.8325095931925492 L19.890825133522103,-1.9807150118708083 L19.942841281688164,-2.12995569742718 L19.992525190750037,-2.2801945095724565 L20.03986449628615,-2.431394059621953 L20.084847417356933,-2.5835167198001336 L20.12746275943663,-2.7365246326047146 L20.16769991719919,-2.890379720227945 L20.205548877157543,-3.04504369403272 L20.24100022015555,-3.200478064081151 L20.274045123712078,-3.3566441487132375 L20.304675364216592,-3.513503084173251 L20.33288331897568,-3.6710158342814387 L20.35866196811004,-3.829143200148627 L20.382004896301495,-3.987845829931325 L20.40290629438949,-4.147084228624894 L20.421360960816763,-4.306818767892334 L20.437364302923854,-4.46700969592627 L20.450912338091992,-4.627617147341645 L20.46200169473426,-4.788601153096687 L20.470629613134612,-4.9499216504396735 L20.476793946134702,-5.111538492879024 L20.480493159668203,-5.273411460174208 L20.481726333142582,-5.435500268345014 " />
			<path d="M11.892615290211822,-0.4461619814263782 L11.891535768638049,-0.2945011531427084 L11.888297439094636,-0.14302700045127525 L11.882901007064076,0.008227477423766283 L11.875347648179748,0.15922932911527155 L11.865639007969808,0.30994565829167464 L11.853777201498698,0.4603436308235749 L11.839764812906376,0.6103904819367976 L11.823604894845348,0.7600535233503087 L11.80530096781564,0.9093001503974822 L11.784857019397842,1.0580978491291562 L11.762277503384393,1.2064142033969294 L11.737567338809313,1.3542169019151291 L11.71073190887657,1.501473745299956 L11.681777059787322,1.6481526530842425 L11.650709099466312,1.794221670706303 L11.617534796187654,1.9396489764713583 L11.582261377100338,2.084402888484018 L11.544896526653773,2.228451871550292 L11.505448384923694,2.371764544047669 L11.463925545838826,2.5143096847617095 L11.42033705530865,2.656056239687711 L11.37469240925272,2.7969733287959437 L11.32700155153196,2.9370302527589836 L11.277274871782321,3.0761964996396784 L11.22552320315139,3.2144417515382813 L11.171757819938335,3.351735891197336 L11.11599043513775,3.4880490085628297 L11.058233197887946,3.623351407300208 L10.998498690824201,3.7576136112638387 L10.936799927337606,3.8908063709185097 L10.873150348740023,4.022900669711545 L10.807563821335876,4.153867730394133 " />
			<path d="M1.7457523183321788,-11.445977534352213 L1.9926638074485687,-11.43132566057645 L2.2395687402106734,-11.410292073453677 L2.486313839797826,-11.382889830484713 L2.7327459286126468,-11.34913594278649 L2.978712023372622,-11.30905136453166 L3.2240594300810157,-11.26266097994042 L3.4686358388182197,-11.209993587832539 L3.712289418294667,-11.151081883749274 L3.9548689101066103,-11.085962439656202 L4.196223722636266,-11.01467568123961 L4.436204024538005,-10.937265862810511 L4.674660837752592,-10.853781039831894 L4.911446129991698,-10.764273039086223 L5.146412906635295,-10.668797426501754 L5.379415301984854,-10.567413472657586 L5.6103086698157405,-10.460184115988923 L5.838949673172561,-10.34717592371534 L6.065196373351714,-10.228459050516317 L6.2889083180159275,-10.10410719497973 L6.509946628386069,-9.974197553850285 L6.728174085456102,-9.838810774106328 L6.943455215177662,-9.698030902894784 L7.155656372561381,-9.551945335355278 L7.364645824642748,-9.400644760365866 L7.570293832260983,-9.244223104244016 L7.772472730600191,-9.082777472437828 L7.971057008442767,-8.916408089243664 L8.16592338608587,-8.745218235587616 L8.356950891872563,-8.569314184909448 L8.544020937290178,-8.3888051371888 L8.727017390589204,-8.203803151154624 L8.90582664887706,-8.014423074719913 L9.080337708641949,-7.82078247368495 L9.250442234663048,-7.623001558753295 L9.416034627264253,-7.421203110905829 L9.577012087869683,-7.215512405179206 L9.733274682820316,-7.006057132896002 L9.884725405412095,-6.792967322394855 L10.03127023611699,-6.576375258309793 L10.172818200949648,-6.35641539944888 L10.309281427943407,-6.133224295323155 L10.440575201700566,-5.906940501377657 L10.566618015983122,-5.677704492977203 L10.687331624311245,-5.4456585782002795 L10.802641088538135,-5.210946809495205 L10.912474825371097,-4.973714894253398 L11.01676465080994,-4.7341101043552625 L11.115445822475102,-4.492281184744861 L11.20845707979928,-4.248378261090115 L11.295740682057524,-4.002552746585853 L11.3772424442123,-3.754957247957595 L11.45291177055115,-3.505745470724368 L11.522701686096164,-3.255072123779433 L11.586568865765692,-3.003092823348096 L11.644473661270277,-2.749963996382272 L11.696380125725998,-2.4958427834517423 L11.74225603597006,-2.2408869411924197 L11.782072912564692,-1.9852547443721453 L11.815806037476984,-1.7291048876348512 L11.843434469423668,-1.472596386984051 L11.864941056871311,-1.215888481066839 L11.880312448683869,-0.9591405323196767 L11.889539102410973,-0.7025119280373289 L11.89261529021182,-0.4461619814264146 " />
			<path d="M17.10104287096857,5.1003314912261315 L7.190530129125384,10.857260283824585 " />
			<path d="M4.0413843116302255,-17.381779582102833 L-5.869128430212959,-11.62485078950438 " />

       </g>
    </g>
    <g transform="translate(20,210.0)" stroke="rgb(0,0,255)">
        <line x1="30" y1="-30" x2="75" y2="-33" stroke-width="3" stroke="#000000" />
         <text x="80" y="-30" style="stroke:#000000">X </text>

        <line x1="30" y1="-30" x2="30" y2="-75" stroke-width="3" stroke="#000000" />
         <text x="25" y="-85" style="stroke:#000000">Y </text>

        <line x1="30" y1="-30" x2="58" y2="-15" stroke-width="3" stroke="#000000" />
         <text x="65" y="-5" style="stroke:#000000">Z </text>
        <!--
            <line x1="0" y1="0" x2="4.683401350072058" y2="0" stroke-width="3" />
            <text x="0" y="20" style="stroke:#000000">1  mm </text>
        -->
    </g>
</svg>
