<?xml version="1.0" encoding="UTF-8" standalone="no"?>
<svg
   xmlns:svg="http://www.w3.org/2000/svg"
   xmlns="http://www.w3.org/2000/svg"
   width="800.0"
   height="240.0"

>
  <defs>
    <style>
      .cq-bg { fill: #ffffff; }
      @media (prefers-color-scheme: dark) {
        .cq-bg { fill: #0d1117; }
        /* CadQuery SVG selectors */
        g[stroke="rgb(0,0,0)"] { stroke: #c9d1d9 !important; }
        g[stroke="rgb(160,160,160)"] { stroke: #484f58 !important; }
        /* OpenSCAD SVG selectors */
        path { stroke: #c9d1d9 !important; }
        polygon { stroke: #c9d1d9 !important; fill: #161b22 !important; }
        /* Common selectors */
        line { stroke: #c9d1d9 !important; }
        text { stroke: #c9d1d9 !important; fill: #c9d1d9 !important; }
      }
    </style>
  </defs>
  <rect width="800.0" height="240.0" class="cq-bg"/>
    <g transform="scale(3.225408611928431, -3.225408611928431)   translate(98.53496581325928,-34.10420608204192)" stroke-width="0.31003823710947204"  fill="none">
       <!-- hidden lines -->
       <g  stroke="rgb(160,160,160)" fill="none" stroke-dasharray="0.31003823710947204,0.31003823710947204" >
			<path d="M-36.52731839136487,-27.13585083417269 L35.20591669245246,-22.03137397140206 " />
			<path d="M35.20591669245245,-22.031373971402058 L36.52731839136487,-22.798964477081853 " />
			<path d="M27.0887348277047,-13.67946591244294 L-25.767333128792277,-17.44065939027393 " />
			<path d="M27.0887348277047,-13.679465912442938 L27.0887348277047,16.673068884594137 " />
			<path d="M35.20591669245245,-22.031373971402058 L35.20591669245245,27.90344133985248 " />
			<path d="M25.767333128792277,-12.911875406763148 L-27.0887348277047,-16.673068884594137 " />
			<path d="M25.767333128792277,-12.911875406763146 L25.767333128792277,17.44065939027393 " />
			<path d="M25.767333128792277,17.44065939027393 L-27.0887348277047,13.67946591244294 " />
			<path d="M-27.0887348277047,-16.673068884594137 L-27.0887348277047,13.679465912442936 " />
			<path d="M27.0887348277047,-13.67946591244294 L32.70469204808251,-16.94172556158206 " />
			<path d="M21.472777607326897,-10.417206263303814 L25.767333128792277,-12.911875406763144 " />
			<path d="M-31.383290349170082,-14.178399741134806 L-27.0887348277047,-16.673068884594137 " />
			<path d="M-31.383290349170082,-14.178399741134806 L21.472777607326897,-10.417206263303814 " />
			<path d="M21.472777607326897,19.93532853373326 L25.767333128792277,17.44065939027393 " />
			<path d="M21.472777607326897,-10.417206263303814 L21.472777607326897,19.93532853373326 " />
			<path d="M-31.383290349170082,16.17413505590227 L-27.0887348277047,13.67946591244294 " />
			<path d="M-31.383290349170082,16.17413505590227 L21.472777607326897,19.93532853373326 " />
			<path d="M-31.383290349170082,-14.178399741134806 L-31.383290349170082,16.17413505590227 " />
			<path d="M-23.407687237877234,-14.82496390287929 L-17.791730017499425,-18.087223552018415 " />
			<path d="M-17.79173001749943,-14.42533709585975 L-23.407687237877234,-14.824963902879292 " />
			<path d="M24.72908893678966,14.057373397199498 L30.345046157167467,10.795113748060373 " />
			<path d="M24.72908893678966,10.395486941040833 L24.72908893678966,14.057373397199498 " />
			<path d="M-23.407687237877234,10.632000765603419 L-17.791730017499425,7.369741116464293 " />
			<path d="M24.729088936789662,14.057373397199498 L-23.407687237877234,10.632000765603417 " />
			<path d="M-23.407687237877234,-14.824963902879292 L-23.407687237877234,10.632000765603415 " />
			<path d="M23.407687237877237,-10.632000765603415 L-24.72908893678966,-14.057373397199497 " />
			<path d="M-24.72908893678966,-14.0573733971995 L-24.72908893678966,11.399591271283207 " />
			<path d="M23.407687237877237,14.824963902879293 L-24.72908893678966,11.399591271283212 " />
			<path d="M23.407687237877234,-10.632000765603417 L23.407687237877234,14.82496390287929 " />
			<path d="M20.93005905241644,-9.192768567453804 L23.407687237877234,-10.632000765603417 " />
			<path d="M-27.206717122250453,-12.618141199049884 L-24.72908893678966,-14.057373397199497 " />
			<path d="M-27.206717122250453,-12.618141199049884 L20.93005905241644,-9.192768567453804 " />
			<path d="M-27.206717122250453,12.838823469432825 L-24.72908893678966,11.399591271283212 " />
			<path d="M-27.206717122250453,-12.618141199049884 L-27.206717122250453,12.838823469432825 " />
			<path d="M20.93005905241644,16.264196101028904 L23.407687237877234,14.824963902879292 " />
			<path d="M-27.206717122250453,12.838823469432825 L20.93005905241644,16.264196101028904 " />
			<path d="M20.93005905241644,-9.192768567453804 L20.93005905241644,16.264196101028904 " />

       </g>

       <!-- solid lines -->
       <g  stroke="rgb(0,0,0)" fill="none">
			<path d="M-36.52731839136487,-27.13585083417269 L-35.20591669245245,-27.903441339852485 " />
			<path d="M-35.20591669245245,-27.90344133985248 L-35.20591669245245,22.031373971402058 " />
			<path d="M-36.52731839136487,22.79896447708185 L-35.20591669245245,22.031373971402054 " />
			<path d="M-36.52731839136487,-27.13585083417269 L-36.52731839136487,22.79896447708185 " />
			<path d="M-35.20591669245245,-27.90344133985248 L36.52731839136489,-22.798964477081853 " />
			<path d="M-35.20591669245245,22.031373971402058 L36.52731839136489,27.135850834172686 " />
			<path d="M36.52731839136487,-22.79896447708185 L36.52731839136487,27.13585083417269 " />
			<path d="M27.0887348277047,16.673068884594134 L-25.767333128792277,12.911875406763144 " />
			<path d="M-25.767333128792277,-17.44065939027393 L-25.767333128792277,12.911875406763144 " />
			<path d="M-36.52731839136487,22.79896447708185 L35.20591669245246,27.903441339852478 " />
			<path d="M35.20591669245245,27.90344133985248 L36.52731839136487,27.135850834172686 " />
			<path d="M-20.151375908414472,-20.702919039413054 L32.70469204808251,-16.941725561582064 " />
			<path d="M-25.767333128792277,-17.44065939027393 L-20.151375908414472,-20.702919039413054 " />
			<path d="M32.70469204808251,-16.94172556158206 L32.70469204808251,13.410809235455012 " />
			<path d="M27.0887348277047,16.673068884594134 L32.70469204808251,13.41080923545501 " />
			<path d="M-20.151375908414472,9.649615757624021 L32.70469204808251,13.410809235455012 " />
			<path d="M-25.767333128792277,12.911875406763144 L-20.151375908414472,9.649615757624021 " />
			<path d="M-20.151375908414472,-20.702919039413054 L-20.151375908414472,9.64961575762402 " />
			<path d="M30.345046157167467,-14.661850920422335 L-17.791730017499425,-18.087223552018415 " />
			<path d="M30.345046157167463,-14.661850920422333 L30.345046157167463,10.795113748060375 " />
			<path d="M30.345046157167467,10.795113748060373 L-17.791730017499425,7.369741116464294 " />
			<path d="M-17.79173001749943,-18.087223552018415 L-17.79173001749943,7.369741116464294 " />
			<path d="M24.72908893678966,-11.39959127128321 L30.345046157167467,-14.661850920422335 " />
			<path d="M24.729088936789662,-11.39959127128321 L-17.79173001749943,-14.42533709585975 " />
			<path d="M24.72908893678966,-11.399591271283208 L24.72908893678966,10.395486941040833 " />

       </g>
    </g>
    <g transform="translate(20,210.0)" stroke="rgb(0,0,255)">
        <line x1="30" y1="-30" x2="75" y2="-33" stroke-width="3" stroke="#000000" />
         <text x="80" y="-30" style="stroke:#000000">X </text>

        <line x1="30" y1="-30" x2="30" y2="-75" stroke-width="3" stroke="#000000" />
         <text x="25" y="-85" style="stroke:#000000">Y </text>

        <line x1="30" y1="-30" x2="58" y2="-15" stroke-width="3" stroke="#000000" />
         <text x="65" y="-5" style="stroke:#000000">Z </text>
        <!--
            <line x1="0" y1="0" x2="3.225408611928431" y2="0" stroke-width="3" />
            <text x="0" y="20" style="stroke:#000000">1  mm </text>
        -->
    </g>
</svg>
