<?xml version="1.0" encoding="UTF-8" standalone="no"?>
  <defs>
    <style>
      .cq-bg { fill: #ffffff; }
      @media (prefers-color-scheme: dark) {
        .cq-bg { fill: #0d1117; }
        g[stroke="rgb(0,0,0)"] { stroke: #c9d1d9 !important; }
        g[stroke="rgb(160,160,160)"] { stroke: #484f58 !important; }
        line { stroke: #c9d1d9 !important; }
        text { stroke: #c9d1d9 !important; fill: #c9d1d9 !important; }
      }
    </style>
  </defs>
  <rect width="800.0" height="240.0" class="cq-bg"/>

<svg
   xmlns:svg="http://www.w3.org/2000/svg"
   xmlns="http://www.w3.org/2000/svg"
   width="800.0"
   height="240.0"

>
    <g transform="scale(3.950073903483616, -3.950073903483616)   translate(65.61571548869587,-20.264164700428484)" stroke-width="0.25315982040692664"  fill="none">
       <!-- hidden lines -->
       <g  stroke="rgb(160,160,160)" fill="none" stroke-dasharray="0.25315982040692664,0.25315982040692664" >
			<path d="M2.619206938915693,-14.920546056720795 L2.9334642863135922,-14.852837720255735 L3.2466631521141114,-14.77791086977849 L3.558646240299023,-14.695803135359036 L3.869256865442919,-14.606555753480333 L4.178339031404408,-14.510213546328337 L4.485737509671134,-14.406824899281247 L4.791297917319271,-14.296441736609182 L5.094866794548367,-14.179119495396577 L5.396291681752524,-14.054917097700335 L5.695421196089315,-13.923896920957743 L5.992105107507875,-13.78612476665904 L6.286194414198071,-13.641669827300298 L6.577541417422782,-13.490604651633305 L6.865999795695783,-13.333005108229818 L7.151424678267908,-13.168950347378544 L7.4336727178846385,-12.998522761333966 L7.712602162778547,-12.821807942936948 L7.9880729278604505,-12.63889464262796 L8.25994666507352,-12.449874723874474 L8.528086832875005,-12.254843117034902 L8.79235876481069,-12.053897771682287 L9.052629737147637,-11.847139607411673 L9.308769035531233,-11.634672463155853 L9.560648020633094,-11.416603045034943 L9.808140192756841,-11.193040872766009 L10.051121255369287,-10.964098224659613 L10.289469177525156,-10.729890081230955 L10.52306425515396,-10.49053406745388 L10.751789171178277,-10.246150393686774 L10.975529054433213,-9.996861795300036 L11.194171537357457,-9.742793471035421 L11.407606812426993,-9.484073020128195 L11.615727687303071,-9.220830378223742 L11.818429638666803,-8.953197752120744 L12.015610864713274,-8.681309553373744 L12.20717233627886,-8.405302330788421 L12.393017846576084,-8.125314701843495 L12.573054059510959,-7.841487283073674 L12.747190556558627,-7.553962619448662 L12.915339882173738,-7.262885112783627 L13.077417587712713,-6.968400949217127 L13.2333422738459,-6.6706580257929184 L13.383035631438272,-6.3698058761824905 L13.526422480878171,-6.065995595585651 L13.663430809834306,-5.759379764846882 L13.793991809422096,-5.450112373825552 L13.91803990876114,-5.138348744058504 L14.035512807906498,-4.824245450753846 L14.146351509137228,-4.50796024415509 L14.250500346586454,-4.189651970315182 L14.34790701419811,-3.869480491320205 L14.438522591996309,-3.54760660500276 L14.522301570654122,-3.2241919641854384 L14.599201874349468,-2.8993989954948662 L14.669184881896602,-2.5733908177871494 L14.7322154461426,-2.246331160225646 L14.788261911619122,-1.9183842800522348 L14.83729613044053,-1.5897148800933762 L14.87929347644045,-1.2604880260423763 L14.914232857539623,-0.9308690635594137 L14.942096726338853,-0.6010235352309832 L14.962871088931733,-0.27111709743040674 L14.976545511932725,0.05868456287880125 L14.983113127717054,0.38821581135484035 " />
			<path d="M13.331999283669997,1.4872066047546029 L13.330237607278029,1.7187620449986443 L13.324953016515886,1.9500091411346223 L13.316146826515755,2.1808903446194043 L13.303821228800963,2.41134819796653 L13.287979290740589,2.6413253490451587 L13.268624954786103,2.8707645653528346 L13.24576303749026,3.0996087482584556 L13.219399228308438,3.32780094721195 L13.189540088182733,3.555284373917052 L13.156193047909225,3.7820024164637647 L13.119366406288707,4.007898653416889 L13.079069328061443,4.232916867857156 L13.035311841626426,4.457001061371462 L12.988104836545665,4.6800954679887266 L12.93746006083423,4.902144568057912 L12.883390118036582,5.123093102064732 L12.825908464090066,5.342886084383631 L12.765029403976214,5.561468816961603 L12.700768088160812,5.778786902930433 L12.633140508823503,5.994786260144004 L12.56216349587797,6.209413134637258 L12.487854712783601,6.422614114003504 L12.410232652149725,6.634336140686732 L12.329316631133532,6.84452652518559 L12.245126786632746,7.053132959165793 L12.157684070274348,7.260103528477655 L12.067010243200498,7.465386726075536 L11.97312787065303,7.668931464835975 L11.876060316357831,7.870687090271309 L11.775831736710499,8.070603393135645 L11.672467074764738,8.268630621920016 L11.565992054024997,8.464719495233622 L11.45643317204487,8.658821214068075 L11.343817693832873,8.850887473941604 L11.228173645067224,9.040870476920212 L11.109529805121324,9.228722943512725 L10.987915699901679,9.41439812443685 L10.863361594500029,9.597849812253294 L10.735898485661531,9.779032352865006 L10.605558094070851,9.957900656878753 L10.4723728564581,10.134410210826122 L10.336375917526583,10.308517088241238 L10.197601121704347,10.480177960592362 L10.056083004721588,10.64935010806472 L9.911856785016054,10.81599143019179 L9.764958354968519,10.980060456332547 L9.615424271970518,11.141516355991882 L9.463291749326649,11.300318948981765 L9.308598646993586,11.456428715420541 L9.151383462158192,11.609806805567926 L8.991685319657043,11.760415049493208 L8.829543962239757,11.908215966574293 L8.664999740678544,12.053172774825184 L8.498093603726446,12.195249400049619 L8.32886708792676,12.334410484818548 L8.157362307276179,12.470621397269248 L7.98362194274425,12.603848239723863 L7.807689231651699,12.734057857125233 L7.629607956910309,12.861217845287937 L7.4494224361270565,12.985296558962425 L7.2671775105751415,13.106263119710338 L7.082918534034711,13.22408742358894 L6.896691361506047,13.338740148642865 L6.708542337798065,13.450192762201166 " />
			<path d="M-8.36029446143854,-12.490704630101455 L-8.159611001587546,-12.604873703019893 L-7.9568930626592,-12.715412922759157 L-7.752196881401725,-12.822291624217272 L-7.5455792433550135,-12.925480157770448 L-7.337097467097536,-13.024949897498297 L-7.126809388345373,-13.120673249125057 L-6.914773343907801,-13.21262365767462 L-6.7010481555038455,-13.300775614837251 L-6.485693113444336,-13.385104666045947 L-6.26876796018395,-13.465587417260465 L-6.050332873747843,-13.542201541457164 L-5.8304484510374195,-13.614925784822798 L-5.60917569101994,-13.683739972650665 L-5.386575977806546,-13.748625014937296 L-5.162711063623471,-13.809562911678327 L-4.937643051681127,-13.866536757861923 L-4.711434378945817,-13.91953074815847 L-4.484147798818848,-13.968530181305194 L-4.2558463637278905,-14.013521464184485 L-4.0265934076353584,-14.054492115594826 L-3.796452528468695,-14.091430769713234 L-3.5654875704774343,-14.12432717924832 L-3.333762606521926,-14.153172218283006 L-3.1013419202986396,-14.177957884806188 L-2.8682899885069855,-14.198677302932609 L-2.634671462962592,-14.215324724810321 L-2.400551152661989,-14.22789553221521 L-2.165994005803717,-14.236386237832178 L-1.931065091770792,-14.240794486222542 L-1.6958295830795613,-14.241119054477485 L-1.4603527372999565,-14.2373598525573 L-1.2246998789521415,-14.229517923316383 L-0.9889363813845877,-14.217595442213899 L-0.7531276486386105,-14.201595716710315 L-0.5173390973043892,-14.181523185349846 L-0.2816361383735009,-14.157383416529141 L-0.04608415909301211,-14.129183106952542 L0.18925149517385265,-14.096930079774316 L0.42430553907539625,-14.060633282428416 L0.6590127653825206,-14.020302784146327 L0.893308063078103,-13.975949773163729 L1.1271264354196955,-13.927586553616731 L1.360403017970512,-13.875226542128527 L1.593073096593705,-13.818884264087435 L1.825072125404981,-13.75857534961737 L2.0563357446785053,-13.694316529241823 L2.2867997987011766,-13.626125629242576 L2.516400353570302,-13.554021566714463 L2.745073714929748,-13.478024344317493 L2.972756445639636,-13.398155044727842 L3.1993853833746693,-13.314435824789232 L3.424897658146233,-13.226889909366307 L3.6492307097434047,-13.135541584901748 L3.872322305088005,-13.040416192678869 L4.094110555498923,-12.941540121791608 L4.314533933860877,-12.838940801823812 L4.533531291692891,-12.732646695239904 L4.751041876111729,-12.622687289489008 L4.967005346685574,-12.509093088824706 L5.181361792173292,-12.391895605842766 L5.394051747144651,-12.271127352739082 L5.60501620847683,-12.146821832290367 L5.814196651722714,-12.019013528560016 L6.021535047346376,-11.88773789733174 L6.226973876821268,-11.753031356273656 L6.430456148586653,-11.614931274835524 L6.631925413857853,-11.473475963881938 L6.831325782285912,-11.328704665064375 L7.028601937462355,-11.180657539935012 L7.223699152264713,-11.029375658805368 L7.416563304038595,-10.874900989352817 L7.607140889612046,-10.717276384978195 L7.795379040138069,-10.556545572917665 L7.981225535761164,-10.392753142112184 L8.164628820103843,-10.225944530837918 L8.345538014569085,-10.056166014101029 L8.52390293245474,-9.883464690800366 L8.699674092876021,-9.707888470661567 L8.872802734492195,-9.529486060946255 L9.043240829033637,-9.348306952939957 L9.210941094625529,-9.164401408222552 L9.375857008904523,-8.977820444725019 L9.537942821924663,-8.788615822576347 L9.69715356884907,-8.596840029744566 L9.85344508242378,-8.402546267475874 L10.006774005230383,-8.205788435535872 L10.157097801713945,-8.006621117257017 L10.304374769982964,-7.805099564396462 L10.448564053378043,-7.60127968180846 L10.589625651806099,-7.395218011935583 L10.727520432836931,-7.186971719123071 L10.86221014255911,-6.976598573760655 L10.99365741619212,-6.76415693625626 L11.121825788451872,-6.5497057408460195 L11.246679703666684,-6.3333044792451005 L11.368184525640906,-6.115013184143893 L11.486306547263476,-5.8948924125541105 L11.60101299985874,-5.673003229009442 L11.712272062276938,-5.449407188625409 L11.820052869721819,-5.224166320023121 L11.92432552231297,-4.997343108121699 L12.025061093380447,-4.769000476804089 L12.122231637489444,-4.5392017714611 L12.215810198192726,-4.308010741418534 L12.305770815508723,-4.07549152225224 L12.392088533123202,-3.841708617996028 L12.474739405312468,-3.6067268832473496 L12.553700503586253,-3.3706115051757415 L12.628949923048394,-3.133427985439026 L12.700466788473543,-2.8952421220122293 L12.768231260098254,-2.6561199909343154 L12.832224539124807,-2.416127927977796 L12.892428872936234,-2.175332510246262 L12.948827560021167,-1.9338005377049883 L13.001404954607045,-1.6915990146496953 L13.050146471000481,-1.448795131118637 L13.095038587633528,-1.205456244253162 L13.136068850814747,-0.9616498596119158 L13.173225878184034,-0.717443612443859 L13.206499361870248,-0.472905248925326 L13.235880071350751,-0.2281026073662979 L13.261359856012076,0.016896400608874595 L13.282931647411042,0.2620238089010792 L13.300589461235607,0.507211615791205 L13.314328398965024,0.7523918028047292 L13.324144649228748,0.9974963535809942 L13.330035488863754,1.2424572727418695 L13.331999283669996,1.4872066047545514 " />
			<path d="M-8.612707501839909,-4.088727835652311 L10.264459625480443,-2.7454444507126716 " />
			<path d="M10.26445962548044,-2.745444450712671 L10.26445962548044,3.1292397035525688 " />
			<path d="M10.26445962548044,-2.745444450712671 L21.49637406623605,-9.26996374899092 " />
			<path d="M2.619206938915701,-10.613247133930559 L21.49637406623605,-9.26996374899092 " />
			<path d="M21.49637406623605,-27.873130237497513 L23.478476614604688,-29.024515996017204 " />
			<path d="M21.49637406623605,-27.873130237497513 L21.49637406623605,-9.269963748990918 " />
			<path d="M2.619206938915701,-29.216413622437152 L21.49637406623605,-27.873130237497513 " />

       </g>

       <!-- solid lines -->
       <g  stroke="rgb(0,0,0)" fill="none">
			<path d="M14.983751407310528,0.5277184726548607 L14.98198973091856,0.7592739128989021 L14.976705140156417,0.9905210090348802 L14.967898950156286,1.2214022125196622 L14.955573352441494,1.451860065866788 L14.93973141438112,1.6818372169454165 L14.920377078426634,1.9112764332530925 L14.89751516113079,2.1401206161587134 L14.871151351948969,2.368312815112208 L14.841292211823264,2.5957962418173097 L14.807945171549756,2.8225142843640225 L14.771118529929238,3.048410521317146 L14.730821451701974,3.2734287357574137 L14.687063965266956,3.497512929271719 L14.639856960186195,3.720607335888984 L14.58921218447476,3.942656435958169 L14.535142241677113,4.163604969964989 L14.477660587730597,4.383397952283888 L14.416781527616745,4.60198068486186 L14.352520211801343,4.81929877083069 L14.284892632464034,5.035298128044261 L14.2139156195185,5.249925002537515 L14.139606836424132,5.463125981903761 L14.061984775790256,5.674848008586989 L13.981068754774062,5.885038393085847 L13.896878910273276,6.09364482706605 L13.809436193914879,6.300615396377912 L13.718762366841029,6.505898593975793 L13.624879994293561,6.709443332736232 L13.527812439998362,6.911198958171566 L13.42758386035103,7.111115261035902 L13.324219198405268,7.309142489820273 L13.217744177665528,7.505231363133879 L13.1081852956854,7.699333081968332 L12.995569817473404,7.891399341841861 L12.879925768707755,8.081382344820469 L12.761281928761855,8.269234811412982 L12.63966782354221,8.454909992337107 L12.51511371814056,8.638361680153551 L12.387650609302062,8.819544220765263 L12.257310217711382,8.99841252477901 L12.12412498009863,9.174922078726379 L11.988128041167114,9.349028956141495 L11.849353245344878,9.52068982849262 L11.707835128362118,9.689861975964977 L11.563608908656585,9.856503298092047 L11.41671047860905,10.020572324232804 L11.267176395611049,10.18202822389214 L11.11504387296718,10.340830816882022 L10.960350770634117,10.496940583320798 L10.803135585798723,10.650318673468183 L10.643437443297573,10.800926917393465 L10.481296085880288,10.94872783447455 L10.316751864319075,11.09368464272544 L10.149845727366976,11.235761267949876 L9.98061921156729,11.374922352718805 L9.80911443091671,11.511133265169505 L9.635374066384781,11.64436010762412 L9.45944135529223,11.77456972502549 L9.28136008055084,11.901729713188194 L9.101174559767587,12.025808426862682 L8.918929634215672,12.146774987610595 L8.734670657675242,12.264599291489198 L8.548443485146578,12.379252016543122 L8.360294461438595,12.490704630101423 " />
			<path d="M8.360294461438542,12.490704630101455 L8.212633422917015,12.57517340870862 L8.063859965907541,12.657676164763851 L7.913996495145507,12.73820047365555 L7.763065579518369,12.816734208718989 L7.611089948666854,12.89326554306254 L7.458092489561959,12.967782951348754 L7.3040962430582494,13.04027521153004 L7.149124400424019,13.110731406538664 L6.993200299848728,13.17914092593081 L6.8363474229283865,13.245493467484494 L6.67858939112932,13.309779038751017 L6.51994996223083,13.371987958559808 L6.360453026747387,13.432110858476369 L6.200122604330801,13.49013868421312 L6.038982840152945,13.54606269699295 L5.877058001269587,13.599874474865235 L5.714372472965856,13.651565913974167 L5.550950755083907,13.70112922977915 L5.386817458333344,13.748556958227134 L5.221997300584928,13.793841956876665 L5.056515103148158,13.836977405973519 L4.8903957870332775,13.877956809477727 L4.723664369198259,13.916773996041854 L4.556345958781341,13.953423119940384 L4.388465753319686,13.98789866195007 L4.2200490349547275,14.020195430181086 L4.051121166624765,14.050308560858943 L3.881707588245402,14.07823351905692 L3.71183381287839,14.103966099379027 L3.541525422889457,14.127502426593326 L3.370808066095684,14.148838956215506 L3.199707451903068,14.167972475042694 L3.0282493474347447,14.184900101637325 L2.8564595736505662,14.199619286761104 L2.6843640014585857,14.212127813758894 L2.5119885478189525,14.222423798892533 L2.339359171840937,14.230505691624536 L2.1665018708735815,14.236372274851586 L1.9934426765905888,14.240022665087826 L1.8202076510700618,14.241456312597913 L1.6468228828696319,14.240673001479806 L1.4733144830976315,14.23767284969728 L1.2997085814808536,14.232456309062156 L1.1260313224295055,14.225024165166264 L0.9523088610999704,14.215377537263144 L0.778567359455919,14.203517878099465 L0.6048329823284275,14.189446973696283 L0.43113189347564784,14.173166943080039 L0.25749025164263806,14.154680237963463 L0.08393420662195439,14.133989642376344 L-0.08951010468441467,14.111098272246277 L-0.262816562201162,14.086009574929395 L-0.43595906661325934,14.058727328691237 L-0.6089115432964087,14.029255642137729 L-0.7816479462437957,13.997598953596462 L-0.9541422619885003,13.96376203044829 L-1.1263685135210624,13.927749968409378 L-1.298300764201504,13.889568190763802 L-1.469913121665276,13.849222447546836 L-1.641179741722592,13.806718814679005 L-1.8120748322504392,13.762063693051076 L-1.9825726570767825,13.715263807560111 L-2.1526475398563507,13.666326206096722 L-2.3222738679373736,13.615258258483687 L-2.4914260962187837,13.562067655366068 L-2.6600787509971866,13.506762407053046 L-2.8282064338031363,13.449350842311585 L-2.9957838252260114,13.389841607112169 L-3.162785688727065,13.32824366332672 L-3.3291868744399444,13.264566287378994 L-3.4949623229581457,13.198819068847587 L-3.6600870691088794,13.131011909021778 L-3.824536245712764,13.061155019410421 L-3.988285087328709,12.98925892020413 L-4.151308933983469,12.915334438690993 L-4.313583234885373,12.839392707626018 L-4.4750835521216095,12.761445163554566 L-4.635785564338461,12.68150354509005 L-4.795665070403982,12.59957989114617 L-4.95469799305263,12.515686539123877 L-5.112860382511241,12.429836123053395 L-5.270128420105733,12.342041571691597 L-5.426478421848116,12.252316106574987 L-5.581886842003215,12.160673240028585 L-5.7363302766346,12.067126773130997 L-5.889785467129119,11.97169079363604 L-6.0422293036995205,11.874379673851191 L-6.193638828864744,11.775208068473157 L-6.343991240907232,11.674190912380922 L-6.493263897306788,11.571343418386615 L-6.6414343181504085,11.466681074944534 L-6.788480189517722,11.360219643818631 L-6.934379366841387,11.25197515770883 L-7.0791098782419715,11.141963917836584 L-7.222649927836805,11.03020249148996 L-7.364977899022389,10.916707709528694 L-7.506072357729801,10.801496663849466 L-7.645912055652554,10.684586704811974 L-7.784475933446501,10.565995438626025 L-7.921743123901313,10.445740724700105 L-8.057692955083029,10.323840672951789 L-8.192304953447143,10.200313641080477 L-8.325558846921835,10.075178231802813 L-8.457434567960885,9.948453290051155 L-8.58791225656579,9.820157900135595 L-8.71697226327659,9.690311382869933 L-8.844595152130983,9.558933292662067 L-8.970761703591338,9.426043414569147 L-9.095452917439095,9.291661761317984 L-9.218650015636092,9.155808570291278 L-9.340334445152484,9.018504300479893 L-9.460487880760798,8.879769629401807 L-9.579092227795577,8.73962544998818 L-9.696129624878415,8.598092867436954 L-9.81158244660782,8.455193196034443 L-9.925433306213508,8.310947955945545 L-10.037665058174783,8.165378869972852 L-10.14826080080264,8.018507860285244 L-10.257203878785031,7.870357045116556 L-10.364477885695136,7.720948735434623 L-10.470066666462099,7.570305431581307 L-10.573954319803933,7.418449819884045 L-10.676125200622169,7.265404769239402 L-10.776563922357955,7.1111933276690715 L-10.875255359309254,6.955838718848909 L-10.972184648908684,6.799364338611554 L-11.067337193961754,6.641793751423119 L-11.160698664845171,6.4831506868344615 L-11.252255001664842,6.3234590359075575 L-11.341992416373216,6.162742847617637 L-11.429897394845712,6.001026325231504 L-11.515956698915904,5.838333822662602 L-11.60015736836916,5.674689840803378 L-11.682486722894376,5.510119023835556 L-11.76293236399359,5.344646155518847 L-11.841482176849146,5.178296155458571 L-11.918124332148166,5.011094075352845 L-11.992847287863976,4.8430650952199 L-12.065639790994293,4.674234519606099 L-12.136490879255897,4.504627773775134 L-12.205389882735506,4.334270399879038 L-12.272326425496633,4.163188053111713 L-12.337290427142138,3.9914064978453 L-12.400272104332343,3.818951603750135 L-12.461261972258322,3.6458493418989444 L-12.520250846070299,3.472125780855655 L-12.577229842260863,3.297807082749527 L-12.632190380002774,3.1229194993353167 L-12.685124182441198,2.9474893680398084 L-12.736023277940207,2.7715431079954707 L-12.784880001283232,2.5951072160618947 L-12.831686994827445,2.4182082628354373 L-12.876437209611794,2.2408728886477567 L-12.919123906418537,2.0631277995539015 L-12.959740656788147,1.8849997633105047 L-12.998281343987415,1.7065156053446278 L-13.034740163930616,1.5277022047139366 L-13.069111626053575,1.3485864900588225 L-13.10139055414052,1.1691954355470862 L-13.131572087103612,0.9895560568116983 L-13.159651679715008,0.8096954068823199 L-13.185625103291343,0.6296405721112346 L-13.209488446330566,0.4494186680942795 L-13.231238115100984,0.26905683558730636 L-13.25087083418249,0.08858223641884994 L-13.268383646959803,-0.09197795060030028 L-13.283773916067734,-0.2725965337701238 L-13.297039323788367,-0.4532463125963458 L-13.308177872400092,-0.6339000818867695 L-13.31718788447846,-0.8145306358482549 L-13.324068003148795,-0.9951107721837702 L-13.32881719229053,-1.175613296188995 L-13.331434736693247,-1.3560110248477693 L-13.331920242164392,-1.5362767909257236 L-13.330273635588624,-1.716383447061545 L-13.326495164938839,-1.8963038698552919 L-13.320585399238814,-2.076010963953102 L-13.31254522847753,-2.25547766612763 L-13.302375863475124,-2.434676949353648 L-13.290078835700568,-2.613581826878239 L-13.275655997041008,-2.7921653562849174 L-13.25910951952289,-2.9704006435510553 L-13.240441894984874,-3.148260847097976 L-13.219655934702546,-3.3257191818332354 L-13.19675476896507,-3.502748923184375 L-13.171741846603767,-3.6793234111235296 L-13.144620934472739,-3.8554160541822946 L-13.115396116881598,-4.031000333456329 L-13.084071794980373,-4.206049806599055 L-13.05065268609672,-4.380538111803683 L-13.01514382302552,-4.554438971773254 L-12.97755055327093,-4.727726197677944 L-12.937878538241103,-4.900373693098918 L-12.896133752395576,-5.072355457958396 L-12.852322482345546,-5.24364559243522 L-12.806451325907132,-5.414218300865176 L-12.758527191107769,-5.584047895625781 L-12.708557295145873,-5.753108801004767 L-12.65654916330398,-5.921375557051628 L-12.602510627815443,-6.088822823411829 L-12.546449826684933,-6.255425383142982 L-12.48837520246289,-6.421158146512419 L-12.428295500974116,-6.585996154775577 L-12.366219770000662,-6.749914583934721 L-12.302157357919276,-6.912888748477371 L-12.236117912293574,-7.074894105093825 L-12.168111378421164,-7.235906256373268 L-12.098147997835897,-7.3959009544779555 L-12.026238306765544,-7.554854104794868 L-11.95239313454507,-7.712741769564257 L-11.87662360198579,-7.869540171484556 L-11.798941119700611,-8.025225697293168 L-11.719357386385623,-8.179774901322578 L-11.637884387058326,-8.33316450903115 L-11.55453439125274,-8.485371420508157 L-11.469319951171657,-8.636372713952584 L-11.382253899796302,-8.786145649125073 L-11.293349348953756,-8.93466767077251 L-11.202619687342356,-9.081916412024729 L-11.110078578515427,-9.227869697762909 L-11.015739958823554,-9.372505547959086 L-10.919618035315853,-9.515802180986253 L-10.821727283600445,-9.657738016898538 L-10.722082445664476,-9.798291680681132 L-10.620698527654012,-9.937442005469274 L-10.517590797614172,-10.075168035735896 L-10.412774783189855,-10.211449030447426 L-10.306266269287292,-10.346264466187332 L-10.198081295696902,-10.479594040246893 L-10.088236154677764,-10.611417673682688 L-9.976747388504082,-10.741715514340399 L-9.86363178697396,-10.870467939844485 L-9.74890638488091,-10.997655560553262 L-9.632588459448487,-11.123259222478898 L-9.514695527728414,-11.2472600101719 L-9.395245343962577,-11.369639249569744 L-9.274255896909258,-11.490378510809139 L-9.15174540713416,-11.609459611001455 L-9.027732324266424,-11.726864616971 L-8.902235324220152,-11.842575847955745 L-8.77527330638195,-11.956575878269918 L-8.646865390764708,-12.068847539928267 L-8.51703091512818,-12.179373925231529 L-8.385789432066835,-12.288138389312621 L-8.25316070606529,-12.395124552643308 L-8.119164710521812,-12.500316303500934 L-7.9838216247404645,-12.603697800394741 L-7.847151830892148,-12.705253474451558 L-7.709175910945092,-12.804968031760424 L-7.5699146435653155,-12.9028264556758 L-7.429389000987452,-12.998814009078984 L-7.287620145856394,-13.092916236597501 L-7.1446294280402425,-13.185118966782026 L-7.000438381415132,-13.275408314240552 L-6.855068720622317,-13.36377068172945 L-6.708542337798119,-13.450192762201134 " />
			<path d="M-6.70854233779801,-13.450192762201198 L-6.449044505469195,-13.596921551140271 L-6.18618229634333,-13.73758413947063 L-5.920077274293042,-13.87211547604237 L-5.650852502869811,-14.000453345178624 L-5.378632488391719,-14.122538395447974 L-5.103543122363964,-14.238314167112257 L-4.825711623258778,-14.347727118237069 L-4.545266477681673,-14.450726649452873 L-4.262337380951232,-14.547265127355338 L-3.9770551771199,-14.637297906533956 L-3.689551798463545,-14.720783350218897 L-3.3999602044677397,-14.797682849536423 L-3.1084143203390133,-14.867960841364045 L-2.8150489750694874,-14.931584824777138 L-2.519999839083538,-14.988525376079373 L-2.2234033614953423,-15.038756162410099 L-1.9253967070062936,-15.082253953922269 L-1.6261176924714995,-15.118998634525383 L-1.3257047231646704,-15.14897321118843 L-1.0242967287708957,-15.17216382179851 L-0.7220330991369002,-15.18855974157155 L-0.41905361980847555,-15.198153388012106 L-0.1154984073849521,-15.200940324419985 L0.18849215527947738,-15.19691926194205 L0.4927774839975223,-15.186092060168269 L0.7972168582636927,-15.168463726271723 L1.1016694863322334,-15.144042412692977 L1.4059945703280077,-15.11283941336988 L1.7100513713602083,-15.074869158514549 L2.0136992746087925,-15.03014920793994 L2.316797854353548,-14.978700242939087 L2.619206938915678,-14.920546056720797 " />
			<path d="M14.983113127717056,0.38821581135490607 L14.983751407310526,0.5277184726548092 " />
			<path d="M6.708542337798011,13.450192762201198 L6.560881299276486,13.534661540808363 L6.412107842267011,13.617164296863594 L6.262244371504976,13.697688605755292 L6.111313455877839,13.776222340818732 L5.959337825026323,13.852753675162283 L5.806340365921428,13.927271083448497 L5.652344119417719,13.999763343629784 L5.497372276783488,14.070219538638407 L5.341448176208197,14.138629058030553 L5.184595299287856,14.204981599584237 L5.026837267488789,14.26926717085076 L4.868197838590299,14.331476090659551 L4.708700903106856,14.391598990576112 L4.54837048069027,14.449626816312863 L4.3872307165124145,14.505550829092693 L4.225305877629056,14.559362606964978 L4.062620349325325,14.61105404607391 L3.899198631443376,14.660617361878893 L3.7350653346928135,14.708045090326877 L3.570245176944397,14.753330088976409 L3.404762979507627,14.796465538073262 L3.2386436633927467,14.83744494157747 L3.0719122455577277,14.876262128141597 L2.9045938351408096,14.912911252040127 L2.7367136296791554,14.947386794049812 L2.5682969113141967,14.97968356228083 L2.399369042984234,15.009796692958686 L2.2299554646048714,15.037721651156662 L2.060081689237859,15.06345423147877 L1.889773299248926,15.086990558693069 L1.719055942455153,15.10832708831525 L1.5479553282625371,15.127460607142437 L1.376497223794214,15.144388233737068 L1.2047074500100354,15.159107418860847 L1.0326118778180549,15.171615945858637 L0.8602364241784217,15.181911930992277 L0.6876070482004062,15.18999382372428 L0.5147497472330507,15.19586040695133 L0.341690552950058,15.19951079718757 L0.16845552742953096,15.200944444697656 L-0.004929240770898957,15.200161133579549 L-0.17843764054289935,15.197160981797023 L-0.35204354215967726,15.1919444411619 L-0.5257208012110253,15.184512297266007 L-0.6994432625405604,15.174865669362887 L-0.8731847641846118,15.163006010199208 L-1.0469191413121033,15.148935105796026 L-1.220620230164883,15.132655075179782 L-1.3942618719978928,15.114168370063206 L-1.5678179170185764,15.093477774476087 L-1.7412622283249455,15.07058640434602 L-1.9145686858416928,15.045497707029138 L-2.08771119025379,15.01821546079098 L-2.2606636669369395,14.988743774237472 L-2.4334000698843266,14.957087085696205 L-2.605894385629031,14.923250162548033 L-2.778120637161593,14.887238100509121 L-2.950052887842035,14.849056322863545 L-3.121665245305807,14.80871057964658 L-3.2929318653631228,14.766206946778748 L-3.46382695589097,14.721551825150819 L-3.6343247807173134,14.674751939659854 L-3.8043996634968815,14.625814338196465 L-3.9740259915779044,14.57474639058343 L-4.143178219859315,14.521555787465811 L-4.311830874637717,14.466250539152789 L-4.479958557443667,14.408838974411328 L-4.647535948866542,14.349329739211912 L-4.814537812367596,14.287731795426463 L-4.980938998080475,14.224054419478737 L-5.1467144465986765,14.15830720094733 L-5.31183919274941,14.09050004112152 L-5.476288369353295,14.020643151510164 L-5.64003721096924,13.948747052303872 L-5.803061057623999,13.874822570790736 L-5.965335358525904,13.798880839725761 L-6.12683567576214,13.720933295654309 L-6.2875376879789915,13.640991677189794 L-6.447417194044513,13.559068023245914 L-6.606450116693161,13.47517467122362 L-6.764612506151772,13.389324255153138 L-6.921880543746264,13.30152970379134 L-7.078230545488647,13.21180423867473 L-7.233638965643745,13.120161372128328 L-7.388082400275131,13.02661490523074 L-7.54153759076965,12.931178925735782 L-7.693981427340051,12.833867805950934 L-7.845390952505275,12.7346962005729 L-7.995743364547763,12.633679044480665 L-8.145016020947319,12.530831550486358 L-8.29318644179094,12.426169207044277 L-8.440232313158253,12.319707775918374 L-8.586131490481918,12.211463289808574 L-8.730862001882503,12.101452049936327 L-8.874402051477336,11.989690623589704 L-9.01673002266292,11.876195841628437 L-9.157824481370332,11.76098479594921 L-9.297664179293085,11.644074836911717 L-9.436228057087032,11.525483570725768 L-9.573495247541844,11.405228856799848 L-9.70944507872356,11.283328805051532 L-9.844057077087674,11.15980177318022 L-9.977310970562366,11.034666363902556 L-10.109186691601415,10.907941422150898 L-10.239664380206321,10.779646032235338 L-10.36872438691712,10.649799514969676 L-10.496347275771514,10.51842142476181 L-10.622513827231868,10.38553154666889 L-10.747205041079626,10.251149893417727 L-10.870402139276623,10.11529670239102 L-10.992086568793015,9.977992432579637 L-11.112240004401329,9.83925776150155 L-11.230844351436108,9.699113582087923 L-11.347881748518946,9.557580999536697 L-11.463334570248351,9.414681328134186 L-11.577185429854039,9.270436088045289 L-11.689417181815314,9.124867002072595 L-11.800012924443172,8.977995992384987 L-11.908956002425562,8.8298451772163 L-12.016230009335667,8.680436867534366 L-12.12181879010263,8.52979356368105 L-12.225706443444464,8.377937951983787 L-12.3278773242627,8.224892901339144 L-12.428316045998486,8.070681459768814 L-12.527007482949784,7.915326850948652 L-12.623936772549214,7.758852470711297 L-12.719089317602284,7.601281883522862 L-12.812450788485702,7.4426388189342045 L-12.904007125305373,7.282947168007301 L-12.993744540013747,7.12223097971738 L-13.081649518486243,6.960514457331247 L-13.167708822556435,6.797821954762345 L-13.251909492009691,6.634177972903121 L-13.334238846534907,6.469607155935299 L-13.414684487634121,6.30413428761859 L-13.493234300489677,6.137784287558314 L-13.569876455788696,5.970582207452588 L-13.644599411504506,5.802553227319643 L-13.717391914634824,5.633722651705842 L-13.788243002896428,5.464115905874877 L-13.857142006376037,5.293758531978781 L-13.924078549137164,5.122676185211456 L-13.989042550782669,4.950894629945043 L-14.052024227972874,4.778439735849878 L-14.113014095898853,4.605337473998687 L-14.17200296971083,4.431613912955397 L-14.228981965901394,4.257295214849269 L-14.283942503643305,4.082407631435059 L-14.336876306081729,3.9069775001395506 L-14.387775401580738,3.731031240095213 L-14.436632124923763,3.554595348161637 L-14.483439118467976,3.3776963949351795 L-14.528189333252325,3.200361020747499 L-14.570876030059068,3.0226159316536436 L-14.611492780428678,2.844487895410247 L-14.650033467627946,2.66600373744437 L-14.686492287571147,2.4871903368136787 L-14.720863749694105,2.3080746221585646 L-14.753142677781051,2.1286835676468283 L-14.783324210744142,1.9490441889114405 L-14.811403803355539,1.769183538982062 L-14.837377226931874,1.5891287042109767 L-14.861240569971097,1.4089068001940217 L-14.882990238741515,1.2285449676870486 L-14.90262295782302,1.0480703685185921 L-14.920135770600334,0.8675101814994419 L-14.935526039708265,0.6868915983296184 L-14.948791447428897,0.5062418195033964 L-14.959929996040623,0.3255880502129727 L-14.968940008118992,0.1449574962514873 L-14.975820126789326,-0.03562264008402799 L-14.98056931593106,-0.2161251640892527 L-14.983186860333777,-0.39652289274802704 L-14.983672365804923,-0.5767886588259814 L-14.982025759229154,-0.756895314961803 L-14.97824728857937,-0.9368157377555497 L-14.972337522879345,-1.1165228318533598 L-14.964297352118061,-1.2959895340278877 L-14.954127987115655,-1.475188817253906 L-14.941830959341099,-1.654093694778497 L-14.92740812068154,-1.8326772241851752 L-14.91086164316342,-2.010912511451313 L-14.892194018625405,-2.1887727149982337 L-14.871408058343077,-2.3662310497334933 L-14.8485068926056,-2.543260791084633 L-14.823493970244298,-2.7198352790237874 L-14.79637305811327,-2.8959279220825525 L-14.767148240522129,-3.0715122013565863 L-14.735823918620904,-3.2465616744993127 L-14.702404809737251,-3.4210499797039406 L-14.66689594666605,-3.5949508396735115 L-14.629302676911461,-3.7682380655782013 L-14.589630661881634,-3.9408855609991753 L-14.547885876036107,-4.112867325858653 L-14.504074605986077,-4.284157460335477 L-14.458203449547662,-4.454730168765433 L-14.4102793147483,-4.624559763526038 L-14.360309418786404,-4.793620668905024 L-14.308301286944511,-4.961887424951885 L-14.254262751455974,-5.129334691312086 L-14.198201950325464,-5.295937251043239 L-14.140127326103421,-5.461670014412676 L-14.080047624614647,-5.626508022675834 L-14.017971893641192,-5.790426451834978 L-13.953909481559807,-5.953400616377628 L-13.887870035934105,-6.115405972994082 L-13.819863502061695,-6.276418124273525 L-13.749900121476427,-6.436412822378212 L-13.677990430406075,-6.595365972695125 L-13.6041452581856,-6.753253637464514 L-13.52837572562632,-6.910052039384813 L-13.450693243341142,-7.065737565193425 L-13.371109510026153,-7.220286769222835 L-13.289636510698857,-7.373676376931407 L-13.206286514893272,-7.525883288408414 L-13.121072074812188,-7.676884581852841 L-13.034006023436833,-7.82665751702533 L-12.945101472594287,-7.9751795386727675 L-12.854371810982887,-8.122428279924986 L-12.761830702155958,-8.268381565663166 L-12.667492082464085,-8.413017415859343 L-12.571370158956384,-8.55631404888651 L-12.473479407240976,-8.698249884798795 L-12.373834569305007,-8.838803548581389 L-12.272450651294543,-8.97795387336953 L-12.169342921254703,-9.115679903636153 L-12.064526906830386,-9.251960898347683 L-11.958018392927823,-9.386776334087589 L-11.849833419337433,-9.52010590814715 L-11.739988278318295,-9.651929541582945 L-11.628499512144613,-9.782227382240656 L-11.51538391061449,-9.910979807744742 L-11.40065850852144,-10.03816742845352 L-11.284340583089017,-10.163771090379155 L-11.166447651368944,-10.287771878072157 L-11.046997467603108,-10.41015111747 L-10.926008020549789,-10.530890378709396 L-10.80349753077469,-10.649971478901712 L-10.679484447906955,-10.767376484871257 L-10.553987447860683,-10.883087715856002 L-10.42702543002248,-10.997087746170175 L-10.298617514405239,-11.109359407828524 L-10.16878303876871,-11.219885793131786 L-10.037541555707366,-11.328650257212878 L-9.90491282970582,-11.435636420543565 L-9.770916834162342,-11.540828171401191 L-9.635573748380995,-11.644209668294998 L-9.498903954532679,-11.745765342351815 L-9.360928034585623,-11.845479899660681 L-9.221666767205846,-11.943338323576057 L-9.081141124627983,-12.039325876979241 L-8.939372269496925,-12.133428104497758 L-8.796381551680774,-12.225630834682283 L-8.652190505055664,-12.31592018214081 L-8.506820844262847,-12.404282549629707 L-8.360294461438649,-12.49070463010139 " />
			<path d="M-8.612707501839909,-4.088727835652311 L-8.612707501839909,1.7859563186129286 " />
			<path d="M-8.612707501839909,1.785956318612929 L10.264459625480443,3.1292397035525683 " />
			<path d="M-8.612707501839909,-4.088727835652311 L2.619206938915701,-10.61324713393056 " />
			<path d="M4.601309487284338,-5.889948738185009 L-8.612707501839909,1.7859563186129304 " />
			<path d="M4.601309487284338,-30.367799380956843 L4.601309487284338,-5.889948738185009 " />
			<path d="M2.619206938915701,-29.216413622437152 L4.601309487284338,-30.367799380956843 " />
			<path d="M2.619206938915701,-29.216413622437152 L2.619206938915701,-10.613247133930557 " />
			<path d="M10.26445962548044,3.1292397035525688 L23.478476614604688,-4.54666535324537 " />
			<path d="M23.478476614604688,-4.546665353245369 L23.478476614604688,-29.024515996017204 " />
			<path d="M4.601309487284338,-5.889948738185009 L23.478476614604688,-4.546665353245369 " />
			<path d="M4.601309487284338,-30.367799380956843 L23.478476614604688,-29.024515996017204 " />
			<path d="M-8.36029446143854,-12.490704630101455 L-6.70854233779801,-13.450192762201198 " />
			<path d="M6.70854233779801,13.450192762201198 L8.36029446143854,12.490704630101455 " />

       </g>
    </g>
    <g transform="translate(20,210.0)" stroke="rgb(0,0,255)">
        <line x1="30" y1="-30" x2="75" y2="-33" stroke-width="3" stroke="#000000" />
         <text x="80" y="-30" style="stroke:#000000">X </text>

        <line x1="30" y1="-30" x2="30" y2="-75" stroke-width="3" stroke="#000000" />
         <text x="25" y="-85" style="stroke:#000000">Y </text>

        <line x1="30" y1="-30" x2="58" y2="-15" stroke-width="3" stroke="#000000" />
         <text x="65" y="-5" style="stroke:#000000">Z </text>
        <!--
            <line x1="0" y1="0" x2="3.950073903483616" y2="0" stroke-width="3" />
            <text x="0" y="20" style="stroke:#000000">1  mm </text>
        -->
    </g>
</svg>
