<?xml version="1.0" encoding="UTF-8" standalone="no"?>
<svg
   xmlns:svg="http://www.w3.org/2000/svg"
   xmlns="http://www.w3.org/2000/svg"
   width="800.0"
   height="240.0"

>
  <defs>
    <style>
      .cq-bg { fill: #ffffff; }
      @media (prefers-color-scheme: dark) {
        .cq-bg { fill: #0d1117; }
        /* CadQuery SVG selectors */
        g[stroke="rgb(0,0,0)"] { stroke: #c9d1d9 !important; }
        g[stroke="rgb(160,160,160)"] { stroke: #484f58 !important; }
        /* OpenSCAD SVG selectors */
        path { stroke: #c9d1d9 !important; }
        polygon { stroke: #c9d1d9 !important; fill: #161b22 !important; }
        /* Common selectors */
        line { stroke: #c9d1d9 !important; }
        text { stroke: #c9d1d9 !important; fill: #c9d1d9 !important; }
      }
    </style>
  </defs>
  <rect width="800.0" height="240.0" class="cq-bg"/>
    <g transform="scale(4.223453898898292, -4.223453898898292)   translate(61.512482448499235,-31.70252885941786)" stroke-width="0.23677303551504486"  fill="none">
       <!-- hidden lines -->
       <g  stroke="rgb(160,160,160)" fill="none" stroke-dasharray="0.23677303551504486,0.23677303551504486" >
			<path d="M7.0789376727451305,13.222814108946894 L7.069735053770562,12.994808981526672 " />
			<path d="M7.069735053770562,12.99480898152667 L8.730689796385661,12.26332597684715 " />
			<path d="M8.730689796385661,12.26332597684715 L7.0789376727451305,13.222814108946894 " />
			<path d="M7.0789376727451305,13.222814108946894 L5.41798293013003,13.954297113626414 " />
			<path d="M5.417982930130031,13.954297113626414 L7.069735053770562,12.99480898152667 " />
			<path d="M15.688530442009034,1.9563548034896616 L13.67546933955159,4.774339522679663 " />
			<path d="M13.67546933955159,4.774339522679663 L15.32722146319212,3.8148513905799213 " />
			<path d="M15.32722146319212,3.8148513905799213 L15.688530442009034,1.9563548034896616 " />
			<path d="M15.688530442009034,1.9563548034896616 L14.036778318368503,2.9158429355894038 " />
			<path d="M14.036778318368503,2.9158429355894038 L13.67546933955159,4.774339522679663 " />
			<path d="M15.809627469130792,0.04797440660498731 L14.036778318368501,2.915842935589404 " />
			<path d="M15.688530442009034,1.9563548034896616 L15.766331921891044,0.7302733497628118 " />
			<path d="M15.809627469130792,0.04797440660498731 L14.157875345490261,1.0074625387047296 " />
			<path d="M14.157875345490261,1.0074625387047296 L14.036778318368501,2.9158429355894038 " />
			<path d="M15.32722146319212,3.8148513905799213 L13.080177874191543,6.551133776345367 " />
			<path d="M13.080177874191543,6.551133776345366 L14.731929997832074,5.591645644245624 " />
			<path d="M14.731929997832074,5.591645644245624 L15.32722146319212,3.814851390579921 " />
			<path d="M13.67546933955159,4.774339522679663 L13.080177874191543,6.551133776345367 " />
			<path d="M13.912849716177643,7.256356484917803 L11.232197598262516,9.739975159946644 " />
			<path d="M11.232197598262518,9.739975159946642 L12.883949721903049,8.780487027846899 " />
			<path d="M12.883949721903049,8.780487027846899 L13.912849716177645,7.2563564849178 " />
			<path d="M13.912849716177643,7.256356484917803 L12.261097592537112,8.215844617017545 " />
			<path d="M12.261097592537112,8.215844617017545 L11.232197598262516,9.739975159946644 " />
			<path d="M14.731929997832074,5.591645644245624 L12.261097592537112,8.215844617017545 " />
			<path d="M13.912849716177643,7.256356484917803 L14.731929997832074,5.591645644245624 " />
			<path d="M13.080177874191543,6.551133776345366 L12.261097592537112,8.215844617017545 " />
			<path d="M14.731929997832074,-5.6490729279280565 L13.67546933955159,-2.828069659074469 " />
			<path d="M13.67546933955159,-2.828069659074469 L15.32722146319212,-3.787557791174211 " />
			<path d="M15.32722146319212,-3.787557791174211 L14.731929997832074,-5.6490729279280565 " />
			<path d="M14.731929997832074,-5.6490729279280565 L13.080177874191543,-4.689584795828314 " />
			<path d="M13.080177874191543,-4.689584795828314 L13.67546933955159,-2.828069659074469 " />
			<path d="M0.0,-14.686710385663101 L3.499722960985993,-15.389078132937165 " />
			<path d="M1.6517521236405308,-15.646198517762844 L0.0,-14.686710385663101 " />
			<path d="M0.0,-14.686710385663101 L1.847970837345462,-14.429590000837424 " />
			<path d="M1.8479708373454617,-14.429590000837422 L3.4997229609859923,-15.389078132937165 " />
			<path d="M12.883949721903049,-9.100915765466667 L12.261097592537112,-6.470865768645556 " />
			<path d="M12.261097592537112,-6.470865768645556 L13.912849716177643,-7.430353900745298 " />
			<path d="M13.912849716177643,-7.430353900745298 L12.883949721903047,-9.100915765466667 " />
			<path d="M12.883949721903049,-9.100915765466667 L11.232197598262518,-8.141427633366924 " />
			<path d="M11.232197598262518,-8.141427633366924 L12.261097592537114,-6.470865768645555 " />
			<path d="M-7.0789376727451305,-13.222814108946894 L-3.7662308064895,-14.913785245726157 " />
			<path d="M-7.0789376727451305,-13.222814108946894 L-5.41798293013003,-13.954297113626414 " />
			<path d="M-5.417982930130031,-13.954297113626414 L-3.7662308064895003,-14.913785245726157 " />
			<path d="M7.0789376727451305,-12.215351570242165 L10.27051919612831,-11.997934533921573 " />
			<path d="M8.730689796385661,-13.174839702341908 L7.0789376727451305,-12.215351570242165 " />
			<path d="M7.0789376727451305,-12.215351570242165 L8.61876707248778,-11.038446401821831 " />
			<path d="M8.61876707248778,-11.038446401821831 L10.27051919612831,-11.997934533921574 " />
			<path d="M10.011128042631801,11.097454302639989 L10.27051919612831,11.305566746412639 " />
			<path d="M10.27051919612831,11.305566746412639 L11.662880166272332,10.137966170540246 " />
			<path d="M11.662880166272332,10.137966170540246 L10.011128042631801,11.097454302639989 " />
			<path d="M10.011128042631801,11.097454302639989 L8.61876707248778,12.265054878512382 " />
			<path d="M8.61876707248778,12.265054878512382 L10.27051919612831,11.305566746412639 " />
			<path d="M15.688530442009034,-1.8776403161084623 L14.157875345490263,1.0074625387047293 " />
			<path d="M15.801141193819609,-0.08696942371533656 L15.688530442009032,-1.877640316108462 " />
			<path d="M15.688530442009034,-1.8776403161084623 L14.036778318368503,-0.9181521840087199 " />
			<path d="M14.036778318368503,-0.91815218400872 L14.157875345490263,1.0074625387047296 " />
			<path d="M3.664331858336226,14.447035989748139 L3.499722960985993,13.733101979391629 " />
			<path d="M3.4997229609859923,13.733101979391627 L5.316083981976757,13.487547857648396 " />
			<path d="M5.316083981976757,13.487547857648396 L3.664331858336226,14.447035989748139 " />
			<path d="M3.664331858336226,14.447035989748139 L3.4450830007359663,14.476676276039832 " />
			<path d="M3.4450830007359663,13.764841846801486 L3.4997229609859923,13.733101979391627 " />
			<path d="M3.4450830007359663,13.732928130335655 L3.4997229609859923,13.733101979391627 " />
			<path d="M8.61876707248778,-11.038446401821831 L11.662880166272332,-10.632175479669655 " />
			<path d="M11.662880166272332,-10.632175479669655 L10.378468338360243,-11.892047826693105 " />
			<path d="M8.61876707248778,-11.038446401821831 L10.011128042631801,-9.672687347569912 " />
			<path d="M10.011128042631801,-9.672687347569912 L11.662880166272332,-10.632175479669655 " />
			<path d="M-3.664331858336226,-14.447035989748139 L-0.19621871370493027,-15.652078243591113 " />
			<path d="M-2.012579734695695,-15.406524121847882 L-3.664331858336226,-14.447035989748139 " />
			<path d="M-3.664331858336226,-14.447035989748139 L-1.847970837345462,-14.69259011149137 " />
			<path d="M-1.8479708373454617,-14.69259011149137 L-0.19621871370493094,-15.652078243591113 " />
			<path d="M12.883949721903049,8.780487027846899 L10.011128042631801,11.097454302639987 " />
			<path d="M11.662880166272332,10.137966170540246 L12.883949721903049,8.7804870278469 " />
			<path d="M11.232197598262518,9.739975159946642 L10.011128042631801,11.097454302639987 " />
			<path d="M15.32722146319212,-3.787557791174211 L14.036778318368503,-0.9181521840087195 " />
			<path d="M15.688530442009034,-1.8776403161084623 L15.32722146319212,-3.787557791174212 " />
			<path d="M13.67546933955159,-2.828069659074469 L14.036778318368503,-0.9181521840087195 " />
			<path d="M1.8479708373454617,-14.429590000837422 L5.316083981976758,-14.885022556596148 " />
			<path d="M1.8479708373454617,-14.429590000837422 L3.664331858336226,-13.925534424496407 " />
			<path d="M3.664331858336226,-13.925534424496407 L5.316083981976757,-14.88502255659615 " />
			<path d="M5.417982930130031,-13.183218868586437 L8.730689796385661,-13.174839702341906 " />
			<path d="M7.069735053770562,-14.14270700068618 L5.417982930130031,-13.183218868586437 " />
			<path d="M5.417982930130031,-13.183218868586437 L7.0789376727451305,-12.215351570242163 " />
			<path d="M5.417982930130031,13.954297113626414 L5.316083981976757,13.487547857648396 " />
			<path d="M5.316083981976757,13.487547857648396 L7.069735053770563,12.994808981526672 " />
			<path d="M5.417982930130031,13.954297113626414 L3.664331858336225,14.447035989748137 " />
			<path d="M13.912849716177643,-7.430353900745298 L13.080177874191543,-4.689584795828315 " />
			<path d="M14.731929997832074,-5.6490729279280565 L13.912849716177643,-7.430353900745297 " />
			<path d="M12.261097592537112,-6.470865768645556 L13.080177874191543,-4.689584795828315 " />
			<path d="M-1.8479708373454617,-14.69259011149137 L1.6517521236405306,-15.646198517762842 " />
			<path d="M-1.8479708373454617,-14.69259011149137 L0.0,-14.686710385663101 " />
			<path d="M8.61876707248778,12.265054878512382 L8.730689796385661,12.26332597684715 " />
			<path d="M8.730689796385661,12.26332597684715 L10.27051919612831,11.305566746412639 " />
			<path d="M8.61876707248778,12.265054878512382 L7.0789376727451305,13.222814108946894 " />
			<path d="M11.662880166272332,-10.632175479669655 L11.232197598262518,-8.141427633366927 " />
			<path d="M12.883949721903049,-9.100915765466667 L11.662880166272332,-10.632175479669653 " />
			<path d="M10.011128042631801,-9.672687347569912 L11.232197598262518,-8.141427633366925 " />
			<path d="M14.036778318368503,-0.91815218400872 L14.036778318368503,2.9158429355894038 " />
			<path d="M13.67546933955159,-2.828069659074469 L14.036778318368503,2.9158429355894047 " />
			<path d="M13.67546933955159,-2.828069659074469 L13.67546933955159,4.774339522679663 " />
			<path d="M13.080177874191543,-4.689584795828314 L13.67546933955159,4.774339522679663 " />
			<path d="M13.080177874191543,-4.689584795828314 L13.080177874191543,6.551133776345366 " />
			<path d="M12.261097592537112,-6.470865768645556 L13.080177874191543,6.551133776345367 " />
			<path d="M12.261097592537112,-6.470865768645556 L12.261097592537112,8.215844617017545 " />
			<path d="M11.232197598262518,-8.141427633366924 L12.261097592537114,8.215844617017542 " />
			<path d="M11.232197598262518,-8.141427633366924 L11.232197598262518,9.739975159946642 " />
			<path d="M10.011128042631801,-9.672687347569912 L11.232197598262518,9.739975159946638 " />
			<path d="M10.011128042631801,-9.672687347569912 L10.011128042631801,11.097454302639989 " />
			<path d="M8.61876707248778,-11.038446401821831 L10.011128042631801,11.097454302639987 " />
			<path d="M8.61876707248778,-11.038446401821831 L8.61876707248778,12.265054878512382 " />
			<path d="M7.0789376727451305,-12.215351570242165 L8.61876707248778,12.265054878512379 " />
			<path d="M7.0789376727451305,-12.215351570242165 L7.0789376727451305,13.222814108946894 " />
			<path d="M5.417982930130031,-13.183218868586437 L7.0789376727451305,13.222814108946896 " />
			<path d="M5.417982930130031,-13.183218868586437 L5.417982930130031,13.954297113626414 " />
			<path d="M3.664331858336226,-13.925534424496407 L5.417982930130032,13.954297113626419 " />
			<path d="M5.417982930130031,-13.183218868586437 L3.664331858336225,-13.925534424496407 " />
			<path d="M3.664331858336226,-13.925534424496407 L3.664331858336226,14.447035989748139 " />
			<path d="M1.8479708373454617,-14.429590000837422 L3.6643318583362263,14.44703598974814 " />
			<path d="M1.8479708373454617,-14.429590000837422 L1.8479708373454617,14.69259011149137 " />
			<path d="M0.0,-14.686710385663101 L1.8479708373454615,14.69259011149137 " />
			<path d="M0.0,-14.686710385663101 L0.0,14.686710385663101 " />
			<path d="M-1.8479708373454617,-14.69259011149137 L-2.220446049250313e-16,14.686710385663101 " />
			<path d="M-1.8479708373454617,-14.69259011149137 L-1.8479708373454617,14.429590000837422 " />
			<path d="M-3.664331858336226,-14.447035989748139 L-1.8479708373454613,14.429590000837424 " />
			<path d="M-3.664331858336226,-14.447035989748139 L-3.664331858336226,13.925534424496407 " />
			<path d="M-5.417982930130031,-13.954297113626414 L-3.664331858336225,13.925534424496412 " />
			<path d="M-3.664331858336226,-14.447035989748139 L-5.417982930130032,-13.954297113626415 " />
			<path d="M-5.417982930130031,-13.954297113626414 L-5.417982930130031,13.183218868586437 " />
			<path d="M-7.0789376727451305,-13.222814108946894 L-5.417982930130031,13.183218868586438 " />
			<path d="M-7.0789376727451305,-13.222814108946894 L-7.0789376727451305,12.215351570242165 " />
			<path d="M-8.61876707248778,-12.265054878512382 L-7.078937672745131,12.215351570242161 " />
			<path d="M-8.61876707248778,-12.265054878512382 L-8.61876707248778,11.038446401821831 " />
			<path d="M-10.011128042631801,-11.097454302639989 L-8.61876707248778,11.03844640182183 " />
			<path d="M-10.011128042631801,-11.097454302639989 L-10.011128042631801,9.672687347569912 " />
			<path d="M-11.232197598262518,-9.739975159946642 L-10.011128042631801,9.672687347569909 " />
			<path d="M-11.232197598262518,-9.739975159946642 L-11.232197598262518,8.141427633366924 " />
			<path d="M-12.261097592537112,-8.215844617017545 L-11.232197598262516,8.14142763336692 " />
			<path d="M-12.261097592537112,-8.215844617017545 L-12.261097592537112,6.470865768645556 " />
			<path d="M-13.080177874191543,-6.551133776345366 L-12.261097592537112,6.470865768645557 " />
			<path d="M-13.080177874191543,-6.551133776345366 L-13.080177874191543,4.689584795828314 " />
			<path d="M-13.67546933955159,-4.774339522679663 L-13.080177874191543,4.689584795828314 " />
			<path d="M-13.67546933955159,-4.774339522679663 L-13.67546933955159,2.828069659074469 " />
			<path d="M-14.036778318368503,-2.9158429355894038 L-13.67546933955159,2.82806965907447 " />
			<path d="M-14.036778318368503,-2.9158429355894038 L-14.036778318368503,0.9181521840087199 " />
			<path d="M3.664331858336226,-13.925534424496407 L7.069735053770563,-14.14270700068618 " />
			<path d="M11.090335687300705,2.6494956375026977 L14.70845938670377,0.654996027147787 " />
			<path d="M15.688530442009034,1.9563548034896616 L11.090335687300705,2.6494956375026977 " />
			<path d="M15.32722146319212,3.8148513905799213 L11.090335687300705,2.6494956375026977 " />
			<path d="M11.090335687300705,-3.2251885167625423 L15.699876497460327,-0.02814566138030372 " />
			<path d="M11.090335687300705,2.6494956375026977 L11.090335687300705,-3.2251885167625423 " />
			<path d="M14.731929997832074,5.591645644245624 L11.090335687300705,2.6494956375026977 " />
			<path d="M11.090335687300705,-3.2251885167625423 L15.688530442009032,-1.8776403161084616 " />
			<path d="M13.912849716177643,7.256356484917803 L11.090335687300705,2.6494956375026977 " />
			<path d="M11.090335687300705,-3.2251885167625423 L15.32722146319212,-3.787557791174211 " />
			<path d="M12.883949721903049,8.780487027846899 L11.090335687300707,2.649495637502695 " />
			<path d="M11.090335687300705,-3.2251885167625423 L14.731929997832074,-5.649072927928057 " />
			<path d="M11.662880166272332,10.137966170540246 L11.090335687300705,2.649495637502697 " />
			<path d="M11.090335687300705,-3.2251885167625423 L13.912849716177643,-7.430353900745297 " />
			<path d="M11.090335687300705,-3.2251885167625423 L12.883949721903047,-9.100915765466667 " />
			<path d="M10.27051919612831,11.305566746412639 L11.090335687300705,2.6494956375026977 " />
			<path d="M8.730689796385661,12.26332597684715 L11.090335687300705,2.6494956375026977 " />
			<path d="M7.069735053770562,12.99480898152667 L11.090335687300705,2.649495637502696 " />
			<path d="M5.316083981976757,13.487547857648396 L11.090335687300705,2.6494956375026977 " />
			<path d="M3.4997229609859923,13.733101979391627 L11.090335687300707,2.6494956375026977 " />
			<path d="M3.4450830007359667,11.622454196511828 L11.090335687300707,2.6494956375026977 " />
			<path d="M3.4450830007359663,2.1054658666021435 L11.090335687300708,2.6494956375026977 " />
			<path d="M11.090335687300705,-3.2251885167625423 L11.66288016627233,-10.632175479669652 " />
			<path d="M11.090335687300705,-3.2251885167625423 L10.279757940222845,-11.899071975859364 " />
			<path d="M11.090335687300705,-3.2251885167625423 L9.011851958916218,-11.989295102394589 " />
			<path d="M11.090335687300705,-3.2251885167625423 L7.831850342117779,-12.073263028056129 " />
			<path d="M11.090335687300705,-3.2251885167625423 L6.667508871256458,-12.15611659086326 " />
			<path d="M11.090335687300705,-3.2251885167625423 L5.463728546657876,-12.241776589434245 " />
			<path d="M11.090335687300705,-3.2251885167625423 L4.601309487284335,-11.764632892450248 " />
			<path d="M11.090335687300705,-3.2251885167625423 L-7.786831440019647,-4.568471901702182 " />
			<path d="M-5.417982930130031,-13.954297113626414 L-2.0125797346956946,-15.40652412184788 " />
			<path d="M24.30435267642495,-10.90109357356048 L11.090335687300703,2.6494956375026977 " />
			<path d="M11.090335687300705,2.6494956375026977 L14.543999218549086,0.6432931794759642 " />
			<path d="M24.30435267642495,-10.90109357356048 L11.090335687300705,-3.2251885167625414 " />
			<path d="M11.090335687300705,2.6494956375026977 L9.610194173908543,0.2922077493212858 " />
			<path d="M-7.786831440019643,-4.568471901702182 L24.30435267642495,-10.90109357356048 " />
			<path d="M24.30435267642495,1.3378317478254367 L22.322250128056314,26.96706814911696 " />
			<path d="M24.30435267642495,1.3378317478254367 L22.322250128056314,2.4892175063451276 " />
			<path d="M22.322250128056314,2.4892175063451276 L22.322250128056314,26.96706814911696 " />
			<path d="M3.4450830007359663,1.1459341214054888 L22.322250128056314,26.967068149116965 " />
			<path d="M22.322250128056314,2.4892175063451276 L3.4450830007359627,1.1459341214054881 " />
			<path d="M3.4450830007359663,1.1459341214054888 L24.30435267642495,1.3378317478254378 " />

       </g>

       <!-- solid lines -->
       <g  stroke="rgb(0,0,0)" fill="none">
			<path d="M-1.8479708373454617,14.429590000837422 L-2.012579734695695,12.966046292396664 " />
			<path d="M-2.012579734695695,12.966046292396664 L-0.19621871370493094,13.470101868737679 " />
			<path d="M-0.19621871370493094,13.470101868737679 L-1.8479708373454617,14.429590000837422 " />
			<path d="M-1.8479708373454617,14.429590000837422 L-3.664331858336226,13.925534424496407 " />
			<path d="M-3.664331858336226,13.925534424496407 L-2.012579734695695,12.966046292396664 " />
			<path d="M15.766331921891044,0.7302733497628118 L15.809627469130794,0.04797440660498742 " />
			<path d="M-13.080177874191543,4.689584795828314 L-10.609345468896581,5.511377636545813 " />
			<path d="M-10.609345468896581,5.511377636545814 L-12.261097592537112,6.470865768645556 " />
			<path d="M-12.261097592537112,6.470865768645556 L-13.080177874191543,4.689584795828315 " />
			<path d="M-13.080177874191543,4.689584795828314 L-11.428425750551012,3.730096663728572 " />
			<path d="M-11.428425750551012,3.730096663728572 L-10.609345468896581,5.511377636545813 " />
			<path d="M-14.036778318368503,-2.9158429355894038 L-12.506123221849732,-1.9669506708044717 " />
			<path d="M-12.50612322184973,-1.9669506708044717 L-14.157875345490261,-1.0074625387047293 " />
			<path d="M-14.157875345490261,-1.0074625387047296 L-14.036778318368501,-2.9158429355894038 " />
			<path d="M-14.036778318368503,-2.9158429355894038 L-12.385026194727972,-3.875331067689146 " />
			<path d="M-12.385026194727972,-3.875331067689146 L-12.506123221849732,-1.9669506708044717 " />
			<path d="M3.4997229609859923,-15.389078132937165 L1.6517521236405304,-15.646198517762842 " />
			<path d="M-8.61876707248778,-12.265054878512382 L-5.4271855491046,-14.182302241046635 " />
			<path d="M-5.4271855491046,-14.182302241046637 L-6.967014948847249,-13.224543010612125 " />
			<path d="M-6.967014948847249,-13.224543010612125 L-8.61876707248778,-12.265054878512382 " />
			<path d="M-8.61876707248778,-12.265054878512382 L-7.0789376727451305,-13.222814108946894 " />
			<path d="M-7.0789376727451305,-13.222814108946894 L-5.4271855491046,-14.182302241046637 " />
			<path d="M-12.261097592537112,6.470865768645556 L-9.580445474621985,7.181939501267182 " />
			<path d="M-9.580445474621987,7.181939501267181 L-11.232197598262518,8.141427633366924 " />
			<path d="M-11.232197598262518,8.141427633366924 L-12.261097592537114,6.470865768645555 " />
			<path d="M-10.609345468896581,5.511377636545814 L-9.580445474621985,7.181939501267182 " />
			<path d="M-3.7662308064895003,-14.913785245726157 L-5.4271855491046,-14.182302241046637 " />
			<path d="M10.27051919612831,-11.997934533921574 L8.730689796385661,-13.174839702341908 " />
			<path d="M-10.011128042631801,-11.097454302639989 L-9.580445474621987,-10.699463292046385 " />
			<path d="M-9.580445474621987,-10.699463292046385 L-11.232197598262518,-9.739975159946642 " />
			<path d="M-11.232197598262518,-9.739975159946642 L-10.011128042631801,-11.097454302639987 " />
			<path d="M-10.011128042631801,-11.097454302639989 L-8.35937591899127,-12.056942434739732 " />
			<path d="M-8.35937591899127,-12.056942434739732 L-9.580445474621987,-10.699463292046387 " />
			<path d="M-13.67546933955159,2.828069659074469 L-11.428425750551012,3.730096663728572 " />
			<path d="M-13.080177874191543,4.689584795828314 L-13.67546933955159,2.828069659074469 " />
			<path d="M-13.67546933955159,2.828069659074469 L-12.02371721591106,1.8685815269747266 " />
			<path d="M-12.02371721591106,1.8685815269747268 L-11.428425750551012,3.730096663728572 " />
			<path d="M-14.036778318368503,0.91815218400872 L-12.02371721591106,1.8685815269747272 " />
			<path d="M-13.67546933955159,2.828069659074469 L-14.036778318368503,0.9181521840087195 " />
			<path d="M-14.036778318368503,0.91815218400872 L-12.385026194727972,-0.04133594809102237 " />
			<path d="M-12.385026194727972,-0.04133594809102226 L-12.02371721591106,1.8685815269747272 " />
			<path d="M15.809627469130792,0.04797440660498731 L15.801141193819609,-0.08696942371533656 " />
			<path d="M3.4450830007359663,14.476676276039832 L1.847970837345462,14.69259011149137 " />
			<path d="M1.8479708373454617,14.69259011149137 L3.4450830007359663,13.764841846801486 " />
			<path d="M1.8479708373454617,14.69259011149137 L1.6517521236405308,13.727222253563358 " />
			<path d="M1.6517521236405308,13.727222253563358 L3.4450830007359663,13.732928130335655 " />
			<path d="M1.8479708373454617,14.69259011149137 L0.0,14.686710385663101 " />
			<path d="M0.0,14.686710385663101 L1.6517521236405308,13.727222253563358 " />
			<path d="M10.378468338360243,-11.892047826693105 L10.27051919612831,-11.997934533921574 " />
			<path d="M-0.19621871370493094,-15.652078243591113 L-2.012579734695695,-15.406524121847882 " />
			<path d="M-8.61876707248778,11.038446401821831 L-8.359375918991269,8.71319921547017 " />
			<path d="M-8.35937591899127,8.71319921547017 L-6.9670149488472495,10.078958269722088 " />
			<path d="M-6.967014948847249,10.078958269722088 L-8.61876707248778,11.038446401821831 " />
			<path d="M-8.61876707248778,11.038446401821831 L-10.011128042631801,9.672687347569912 " />
			<path d="M-10.011128042631801,9.672687347569912 L-8.35937591899127,8.71319921547017 " />
			<path d="M-12.261097592537112,-8.215844617017545 L-11.428425750551012,-7.510621908445109 " />
			<path d="M-11.428425750551012,-7.510621908445108 L-13.080177874191543,-6.551133776345366 " />
			<path d="M-13.080177874191543,-6.551133776345366 L-12.261097592537112,-8.215844617017545 " />
			<path d="M-12.261097592537112,-8.215844617017545 L-10.609345468896581,-9.175332749117288 " />
			<path d="M-10.609345468896581,-9.175332749117288 L-11.428425750551012,-7.51062190844511 " />
			<path d="M-5.417982930130031,13.183218868586437 L-5.4271855491046,11.255863438142422 " />
			<path d="M-5.4271855491046,11.255863438142422 L-3.7662308064895003,12.223730736486695 " />
			<path d="M-3.7662308064895003,12.223730736486694 L-5.417982930130031,13.183218868586437 " />
			<path d="M-5.417982930130031,13.183218868586437 L-7.0789376727451305,12.215351570242163 " />
			<path d="M-7.0789376727451305,12.215351570242165 L-5.4271855491046,11.255863438142422 " />
			<path d="M-13.67546933955159,-4.774339522679663 L-12.385026194727972,-3.8753310676891455 " />
			<path d="M-14.036778318368503,-2.9158429355894038 L-13.67546933955159,-4.774339522679663 " />
			<path d="M-13.67546933955159,-4.774339522679663 L-12.02371721591106,-5.733827654779406 " />
			<path d="M-12.02371721591106,-5.733827654779406 L-12.385026194727972,-3.875331067689146 " />
			<path d="M5.316083981976757,-14.88502255659615 L3.4997229609859923,-15.389078132937165 " />
			<path d="M8.730689796385661,-13.174839702341908 L7.069735053770562,-14.142707000686181 " />
			<path d="M0.0,14.686710385663101 L-0.1962187137049309,13.47010186873768 " />
			<path d="M-0.19621871370493094,13.470101868737679 L1.651752123640531,13.727222253563356 " />
			<path d="M0.0,14.686710385663101 L-1.847970837345462,14.429590000837424 " />
			<path d="M1.6517521236405308,-15.646198517762844 L-0.19621871370493094,-15.652078243591113 " />
			<path d="M-13.080177874191543,-6.551133776345366 L-12.02371721591106,-5.733827654779406 " />
			<path d="M-13.67546933955159,-4.774339522679663 L-13.080177874191543,-6.551133776345367 " />
			<path d="M-11.428425750551012,-7.510621908445108 L-12.02371721591106,-5.733827654779406 " />
			<path d="M-5.417982930130031,13.183218868586437 L-3.664331858336225,13.925534424496407 " />
			<path d="M-8.61876707248778,11.038446401821831 L-7.0789376727451305,12.215351570242165 " />
			<path d="M-8.61876707248778,-12.265054878512382 L-10.011128042631801,-11.097454302639989 " />
			<path d="M-11.232197598262518,8.141427633366924 L-10.011128042631801,9.67268734756991 " />
			<path d="M-11.232197598262518,-9.739975159946642 L-12.261097592537114,-8.215844617017543 " />
			<path d="M-14.157875345490261,-1.0074625387047296 L-14.036778318368501,0.9181521840087199 " />
			<path d="M-3.664331858336226,13.925534424496407 L-3.7662308064895007,12.223730736486695 " />
			<path d="M-3.7662308064895003,12.223730736486694 L-2.012579734695694,12.966046292396664 " />
			<path d="M-14.157875345490261,-1.0074625387047296 L-12.38502619472797,-0.041335948091022034 " />
			<path d="M-12.50612322184973,-1.9669506708044717 L-12.38502619472797,-0.04133594809102226 " />
			<path d="M7.069735053770562,-14.14270700068618 L5.316083981976756,-14.88502255659615 " />
			<path d="M-10.011128042631801,-11.097454302639989 L-6.9670149488472495,-13.224543010612123 " />
			<path d="M-6.967014948847249,-13.224543010612125 L-8.35937591899127,-12.056942434739732 " />
			<path d="M-11.232197598262518,8.141427633366924 L-8.35937591899127,8.713199215470167 " />
			<path d="M-9.580445474621987,7.181939501267181 L-8.35937591899127,8.713199215470167 " />
			<path d="M14.70845938670377,0.654996027147787 L15.809627469130792,0.04797440660498786 " />
			<path d="M15.699876497460327,-0.02814566138030372 L15.809627469130792,0.04797440660498653 " />
			<path d="M1.6517521236405308,13.727222253563358 L3.4450830007359667,11.622454196511828 " />
			<path d="M-7.786831440019643,1.306212252563058 L1.6517521236405308,13.727222253563358 " />
			<path d="M-0.19621871370493094,13.470101868737679 L-7.786831440019645,1.3062122525630553 " />
			<path d="M-2.012579734695695,12.966046292396664 L-7.786831440019643,1.306212252563057 " />
			<path d="M-3.7662308064895003,12.223730736486694 L-7.786831440019642,1.306212252563057 " />
			<path d="M-5.4271855491046,11.255863438142422 L-7.786831440019643,1.3062122525630588 " />
			<path d="M-5.4271855491046,11.255863438142422 L-6.967014948847249,10.078958269722088 " />
			<path d="M-6.967014948847249,10.078958269722088 L-7.786831440019643,1.3062122525630588 " />
			<path d="M-7.786831440019643,1.306212252563058 L3.4450830007359663,2.1054658666021435 " />
			<path d="M-9.580445474621987,7.181939501267181 L-7.786831440019645,1.306212252563057 " />
			<path d="M-7.786831440019643,1.306212252563058 L-8.359375918991269,8.71319921547017 " />
			<path d="M10.279757940222845,-11.899071975859364 L10.27051919612831,-11.997934533921573 " />
			<path d="M9.011851958916218,-11.989295102394589 L8.730689796385661,-13.174839702341906 " />
			<path d="M7.831850342117779,-12.073263028056129 L7.069735053770563,-14.14270700068618 " />
			<path d="M6.667508871256458,-12.15611659086326 L5.316083981976757,-14.885022556596148 " />
			<path d="M5.463728546657876,-12.241776589434245 L3.4997229609859906,-15.389078132937165 " />
			<path d="M4.601309487284335,-11.764632892450248 L1.6517521236405308,-15.64619851776284 " />
			<path d="M-7.786831440019643,-4.568471901702182 L1.6517521236405326,-15.646198517762842 " />
			<path d="M-7.786831440019643,-4.568471901702182 L-0.19621871370492894,-15.652078243591111 " />
			<path d="M-7.786831440019643,-4.568471901702182 L-2.012579734695694,-15.40652412184788 " />
			<path d="M-7.786831440019643,-4.568471901702182 L-3.7662308064894994,-14.913785245726157 " />
			<path d="M-3.7662308064895003,-14.913785245726157 L-2.012579734695694,-15.40652412184788 " />
			<path d="M-7.786831440019643,-4.568471901702182 L-5.4271855491046,-14.182302241046635 " />
			<path d="M-7.786831440019643,-4.568471901702182 L-6.967014948847249,-13.224543010612123 " />
			<path d="M-7.786831440019643,-4.568471901702182 L-8.359375918991269,-12.056942434739732 " />
			<path d="M-10.609345468896581,5.511377636545814 L-7.786831440019643,1.3062122525630588 " />
			<path d="M-11.428425750551012,3.730096663728572 L-7.786831440019643,1.306212252563057 " />
			<path d="M-7.786831440019643,-4.568471901702182 L-9.580445474621985,-10.699463292046385 " />
			<path d="M-12.02371721591106,1.8685815269747268 L-7.786831440019644,1.3062122525630577 " />
			<path d="M-7.786831440019643,-4.568471901702182 L-10.609345468896581,-9.175332749117288 " />
			<path d="M-10.609345468896581,-9.175332749117288 L-9.580445474621985,-10.699463292046387 " />
			<path d="M-12.385026194727972,-0.04133594809102226 L-7.786831440019644,1.3062122525630584 " />
			<path d="M-7.786831440019643,-4.568471901702182 L-11.428425750551012,-7.510621908445108 " />
			<path d="M-12.50612322184973,-1.9669506708044717 L-7.786831440019643,1.306212252563057 " />
			<path d="M-7.786831440019643,-4.568471901702182 L-12.02371721591106,-5.733827654779406 " />
			<path d="M-12.50612322184973,-1.9669506708044717 L-7.786831440019643,-4.568471901702182 " />
			<path d="M-7.786831440019643,-4.568471901702182 L-7.786831440019643,1.306212252563058 " />
			<path d="M-7.786831440019643,-4.568471901702182 L-12.38502619472797,-3.875331067689146 " />
			<path d="M-7.0789376727451305,12.215351570242165 L-6.967014948847248,10.078958269722088 " />
			<path d="M-11.232197598262518,-9.739975159946642 L-10.609345468896581,-9.175332749117286 " />
			<path d="M14.543999218549086,0.6432931794759642 L24.30435267642495,-5.026409419295241 " />
			<path d="M24.30435267642495,-5.02640941929524 L24.30435267642495,-10.90109357356048 " />
			<path d="M5.427185549104603,-6.36969280423488 L24.30435267642495,-10.90109357356048 " />
			<path d="M24.30435267642495,-5.02640941929524 L5.4271855491046,-6.36969280423488 " />
			<path d="M5.427185549104603,-6.36969280423488 L5.427185549104603,-12.24437695850012 " />
			<path d="M5.427185549104603,-12.24437695850012 L24.304352676424955,-10.90109357356048 " />
			<path d="M-7.786831440019643,-4.568471901702182 L5.427185549104605,-6.36969280423488 " />
			<path d="M5.427185549104603,-6.36969280423488 L-7.786831440019643,1.3062122525630588 " />
			<path d="M-7.786831440019643,-4.568471901702182 L5.427185549104603,-12.244376958500121 " />
			<path d="M9.610194173908543,0.2922077493212858 L5.4271855491046015,-6.36969280423488 " />
			<path d="M22.322250128056314,26.967068149116958 L24.30435267642495,25.815682390597267 " />
			<path d="M24.30435267642495,25.815682390597267 L24.30435267642495,1.3378317478254331 " />
			<path d="M5.427185549104603,24.47239900565763 L24.304352676424955,1.3378317478254331 " />
			<path d="M24.30435267642495,25.815682390597267 L5.4271855491046,24.47239900565763 " />
			<path d="M5.427185549104603,24.47239900565763 L5.427185549104603,-0.00545163711420571 " />
			<path d="M5.427185549104603,-0.005451637114202157 L24.304352676424955,1.3378317478254373 " />
			<path d="M3.4450830007359663,1.1459341214054888 L3.4450830007359663,25.623784764177323 " />
			<path d="M3.4450830007359663,25.62378476417732 L22.322250128056318,26.967068149116958 " />
			<path d="M3.4450830007359663,1.1459341214054888 L5.427185549104603,24.472399005657635 " />
			<path d="M5.427185549104603,24.47239900565763 L3.4450830007359663,25.62378476417732 " />
			<path d="M3.4450830007359663,1.1459341214054888 L5.427185549104603,-0.005451637114202157 " />
			<path d="M22.322250128056314,26.967068149116958 L5.4271855491046,24.47239900565763 " />

       </g>
    </g>
    <g transform="translate(20,210.0)" stroke="rgb(0,0,255)">
        <line x1="30" y1="-30" x2="75" y2="-33" stroke-width="3" stroke="#000000" />
         <text x="80" y="-30" style="stroke:#000000">X </text>

        <line x1="30" y1="-30" x2="30" y2="-75" stroke-width="3" stroke="#000000" />
         <text x="25" y="-85" style="stroke:#000000">Y </text>

        <line x1="30" y1="-30" x2="58" y2="-15" stroke-width="3" stroke="#000000" />
         <text x="65" y="-5" style="stroke:#000000">Z </text>
        <!--
            <line x1="0" y1="0" x2="4.223453898898292" y2="0" stroke-width="3" />
            <text x="0" y="20" style="stroke:#000000">1  mm </text>
        -->
    </g>
</svg>
