<?xml version="1.0" standalone="no"?>
<!DOCTYPE svg PUBLIC "-//W3C//DTD SVG 1.1//EN" "http://www.w3.org/Graphics/SVG/1.1/DTD/svg11.dtd">
<svg width="41mm" height="51mm" viewBox="-15 -11 41 51" xmlns="http://www.w3.org/2000/svg" version="1.1">
  <defs>
    <style>
      .cq-bg { fill: #ffffff; }
      @media (prefers-color-scheme: dark) {
        .cq-bg { fill: #0d1117; }
        /* CadQuery SVG selectors */
        g[stroke="rgb(0,0,0)"] { stroke: #c9d1d9 !important; }
        g[stroke="rgb(160,160,160)"] { stroke: #484f58 !important; }
        /* OpenSCAD SVG selectors */
        path { stroke: #c9d1d9 !important; }
        polygon { stroke: #c9d1d9 !important; fill: #161b22 !important; }
        /* Common selectors */
        line { stroke: #c9d1d9 !important; }
        text { stroke: #c9d1d9 !important; fill: #c9d1d9 !important; }
      }
    </style>
  </defs>
  <rect width="41mm" height="51mm" class="cq-bg"/>
<title>OpenSCAD Model</title>
<path d="
M 25.3688,30.7415 L 13.494,5.27606 L 13.9149,4.74316 L 14.7298,3.42958 L 15.3223,2.1208 L 15.6822,0.839279
 L 15.8034,-0.393097 L 15.6839,-1.55524 L 15.3255,-2.62724 L 13.5946,-6.33926 L 13.0037,-7.30283 L 12.1903,-8.14142
 L 11.1683,-8.84071 L 9.95526,-9.38875 L 8.57184,-9.77612 L 7.04175,-9.99623 L 5.39119,-10.0453 L 3.64838,-9.92252
 L 1.84314,-9.62993 L 0.00637817,-9.17258 L -1.83051,-8.55829 L -3.63605,-7.79755 L -5.37939,-6.90341 L -7.0307,-5.89113
 L -8.56171,-4.77806 L -9.94623,-3.58324 L -11.1606,-2.3271 L -12.1839,-1.03114 L -12.9988,0.282425 L -13.5913,1.5912
 L -13.9512,2.87273 L -14.0725,4.1051 L -13.9529,5.26726 L -13.5946,6.33926 L -11.8637,10.0513 L -11.2728,11.0148
 L -10.4594,11.8534 L -9.43738,12.5527 L -8.22432,13.1008 L -6.8409,13.4881 L -5.31081,13.7083 L -4.63211,13.7284
 L 7.24261,39.1939 z
" stroke="black" fill="lightgray" stroke-width="0.5"/>
</svg>
