<?xml version="1.0" standalone="no"?>
<!DOCTYPE svg PUBLIC "-//W3C//DTD SVG 1.1//EN" "http://www.w3.org/Graphics/SVG/1.1/DTD/svg11.dtd">
<svg width="30mm" height="50mm" viewBox="-15 -35 30 50" xmlns="http://www.w3.org/2000/svg" version="1.1">
  <defs>
    <style>
      .cq-bg { fill: #ffffff; }
      @media (prefers-color-scheme: dark) {
        .cq-bg { fill: #0d1117; }
        /* CadQuery SVG selectors */
        g[stroke="rgb(0,0,0)"] { stroke: #c9d1d9 !important; }
        g[stroke="rgb(160,160,160)"] { stroke: #484f58 !important; }
        /* OpenSCAD SVG selectors */
        path { stroke: #c9d1d9 !important; }
        polygon { stroke: #c9d1d9 !important; fill: #161b22 !important; }
        /* Common selectors */
        line { stroke: #c9d1d9 !important; }
        text { stroke: #c9d1d9 !important; fill: #c9d1d9 !important; }
      }
    </style>
  </defs>
  <rect width="30mm" height="50mm" class="cq-bg"/>
<title>OpenSCAD Model</title>
<path d="
M 1.95789,14.8717 L 3.88228,14.4889 L 5.74025,13.8582 L 7.5,12.9904 L 9.13141,11.9003 L 10.6066,10.6066
 L 11.9003,9.13141 L 12.9904,7.5 L 13.8582,5.74025 L 14.4889,3.88228 L 14.8717,1.95789 L 15,-0
 L 14.8717,-1.95789 L 14.4889,-3.88228 L 13.8582,-5.74025 L 12.9904,-7.5 L 11.9003,-9.13141 L 10.6066,-10.6066
 L 10,-11.1386 L 10,-34.5 L -10,-34.5 L -10,-11.1386 L -10.6066,-10.6066 L -11.9003,-9.13141
 L -12.9904,-7.5 L -13.8582,-5.74025 L -14.4889,-3.88228 L -14.8717,-1.95789 L -15,-0 L -14.8717,1.95789
 L -14.4889,3.88228 L -13.8582,5.74025 L -12.9904,7.5 L -11.9003,9.13141 L -10.6066,10.6066 L -9.13141,11.9003
 L -7.5,12.9904 L -5.74025,13.8582 L -3.88228,14.4889 L -1.95789,14.8717 L 0,15 z
" stroke="black" fill="lightgray" stroke-width="0.5"/>
</svg>
