<?xml version="1.0" encoding="UTF-8" standalone="no"?>
<svg
   xmlns:svg="http://www.w3.org/2000/svg"
   xmlns="http://www.w3.org/2000/svg"
   width="800.0"
   height="240.0"

>
    <g transform="scale(19.82801155771079, -19.82801155771079)   translate(23.65470400895147,-5.547707074904483)" stroke-width="0.050433700680949836"  fill="none">
       <!-- hidden lines -->
       <g  stroke="rgb(160,160,160)" fill="none" stroke-dasharray="0.050433700680949836,0.050433700680949836" >
			<path d="M8.309886279172478,2.79596295463762 L8.309886279172478,2.0126717340689213 " />
			<path d="M-10.56728084814787,0.669388349129282 L8.30988627917248,2.0126717340689217 " />
			<path d="M-10.56728084814787,0.9924959776138703 L7.81436064208032,2.3005181736988445 " />
			<path d="M7.814360642080318,2.3005181736988445 L8.309886279172478,2.0126717340689217 " />
			<path d="M7.814360642080318,2.7607017657829545 L7.814360642080318,2.300518173698844 " />
			<path d="M6.933426176138703,3.5955363980540715 L6.933426176138703,2.812245177485373 " />
			<path d="M-11.943740951181645,1.4689617925457337 L6.933426176138704,2.8122451774853734 " />
			<path d="M-11.943740951181645,1.792069421030322 L6.437900539046545,3.100091617115296 " />
			<path d="M6.437900539046543,3.1000916171152966 L6.933426176138703,2.812245177485374 " />
			<path d="M6.437900539046543,3.560275209199406 L6.437900539046543,3.1000916171152957 " />
			<path d="M5.309203254558847,1.6016909841528655 L5.309203254558847,4.539033061285485 " />
			<path d="M-13.567963872761501,0.2584075992132262 L5.309203254558851,1.6016909841528657 " />
			<path d="M5.309203254558847,1.6016909841528655 L13.567963872761501,-3.195749676345846 " />
			<path d="M12.439266588273805,0.39724262438826474 L12.439266588273805,-0.38604859618043386 " />
			<path d="M-6.437900539046543,-1.7293319811200734 L12.439266588273806,-0.38604859618043363 " />
			<path d="M-6.437900539046543,-1.406224352635485 L11.943740951181647,-0.0982021565505109 " />
			<path d="M11.943740951181645,-0.09820215655051112 L12.439266588273803,-0.38604859618043386 " />
			<path d="M11.943740951181645,0.36198143553359907 L11.943740951181645,-0.09820215655051112 " />
			<path d="M11.06280648524003,1.1968160678047162 L11.06280648524003,0.4135248472360177 " />
			<path d="M-7.814360642080318,-0.9297585377036218 L11.062806485240031,0.4135248472360178 " />
			<path d="M-7.814360642080318,-0.6066509092190335 L10.567280848147872,0.7013712868659405 " />
			<path d="M10.56728084814787,0.7013712868659401 L11.06280648524003,0.41352484723601757 " />
			<path d="M10.56728084814787,1.1615548789500507 L10.56728084814787,0.7013712868659404 " />
			<path d="M9.686346382206253,1.9963895112211685 L9.686346382206253,1.2130982906524699 " />
			<path d="M-9.190820745114094,-0.1301850942871697 L9.686346382206256,1.2130982906524699 " />
			<path d="M-9.190820745114095,0.1929225341974185 L9.190820745114095,1.5009447302823926 " />
			<path d="M9.190820745114094,1.5009447302823926 L9.686346382206253,1.2130982906524699 " />
			<path d="M9.190820745114095,1.9611283223665028 L9.190820745114095,1.5009447302823924 " />

       </g>

       <!-- solid lines -->
       <g  stroke="rgb(0,0,0)" fill="none">
			<path d="M-10.56728084814787,1.4526795696979806 L-10.56728084814787,0.6693883491292819 " />
			<path d="M-11.06280648524003,0.9572347887592048 L-10.56728084814787,0.669388349129282 " />
			<path d="M-11.06280648524003,1.7405260093279034 L-11.06280648524003,0.9572347887592046 " />
			<path d="M-11.943740951181645,2.2522530131144327 L-11.06280648524003,1.7405260093279034 " />
			<path d="M-11.943740951181645,2.2522530131144323 L-11.943740951181645,1.4689617925457337 " />
			<path d="M-12.439266588273805,1.7568082321756568 L-11.943740951181645,1.4689617925457341 " />
			<path d="M-12.439266588273805,2.540099452744355 L-12.439266588273805,1.7568082321756564 " />
			<path d="M-13.567963872761501,3.195749676345846 L-12.439266588273805,2.5400994527443554 " />
			<path d="M-13.567963872761501,0.2584075992132262 L-13.567963872761501,3.195749676345846 " />
			<path d="M-13.567963872761501,0.2584075992132262 L-5.309203254558847,-4.539033061285485 " />
			<path d="M-5.309203254558847,-4.539033061285485 L-5.309203254558847,-1.601690984152865 " />
			<path d="M-6.437900539046544,-0.9460407605513748 L-5.309203254558847,-1.6016909841528655 " />
			<path d="M-6.437900539046543,-0.946040760551375 L-6.437900539046543,-1.7293319811200736 " />
			<path d="M-6.9334261761387035,-1.4414855414901506 L-6.437900539046544,-1.7293319811200734 " />
			<path d="M-6.933426176138703,-0.6581943209214522 L-6.933426176138703,-1.4414855414901508 " />
			<path d="M-7.814360642080318,-0.14646731713492311 L-6.933426176138703,-0.658194320921452 " />
			<path d="M-7.814360642080318,-0.14646731713492334 L-7.814360642080318,-0.9297585377036219 " />
			<path d="M-8.309886279172478,-0.6419120980736993 L-7.8143606420803176,-0.9297585377036218 " />
			<path d="M-8.309886279172478,0.1413791224949994 L-8.309886279172478,-0.6419120980736992 " />
			<path d="M-9.190820745114095,0.653106126281529 L-8.309886279172478,0.14137912249499918 " />
			<path d="M-9.190820745114095,0.6531061262815288 L-9.190820745114095,-0.13018509428716984 " />
			<path d="M-9.686346382206255,0.1576613453427531 L-9.190820745114095,-0.13018509428716962 " />
			<path d="M-9.686346382206253,0.9409525659114515 L-9.686346382206253,0.1576613453427529 " />
			<path d="M-10.56728084814787,1.4526795696979808 L-9.686346382206253,0.9409525659114517 " />
			<path d="M-10.56728084814787,1.4526795696979806 L8.30988627917248,2.7959629546376203 " />
			<path d="M-11.06280648524003,0.9572347887592048 L-10.56728084814787,0.9924959776138703 " />
			<path d="M-11.06280648524003,1.7405260093279034 L7.81436064208032,3.083809394267543 " />
			<path d="M7.814360642080318,3.0838093942675426 L7.814360642080318,2.7607017657829545 " />
			<path d="M6.933426176138703,3.5955363980540715 L7.814360642080318,3.083809394267542 " />
			<path d="M-11.943740951181645,2.2522530131144323 L6.933426176138704,3.595536398054072 " />
			<path d="M-12.439266588273805,1.7568082321756564 L-11.943740951181645,1.792069421030322 " />
			<path d="M-12.439266588273805,2.540099452744355 L6.437900539046545,3.8833828376839947 " />
			<path d="M6.437900539046543,3.8833828376839943 L6.437900539046543,3.560275209199406 " />
			<path d="M5.309203254558847,4.539033061285485 L6.437900539046543,3.8833828376839943 " />
			<path d="M-13.567963872761501,3.195749676345846 L5.309203254558851,4.539033061285486 " />
			<path d="M-5.309203254558847,-4.539033061285485 L13.567963872761505,-3.1957496763458453 " />
			<path d="M-5.309203254558847,-1.6016909841528655 L13.567963872761505,-0.258407599213226 " />
			<path d="M13.567963872761501,-3.195749676345846 L13.567963872761501,-0.2584075992132262 " />
			<path d="M12.439266588273803,0.3972426243882641 L13.567963872761501,-0.25840759921322665 " />
			<path d="M-6.437900539046543,-0.9460407605513746 L12.439266588273806,0.39724262438826496 " />
			<path d="M-6.933426176138703,-1.4414855414901506 L-6.437900539046543,-1.406224352635485 " />
			<path d="M-6.933426176138703,-0.6581943209214519 L11.943740951181647,0.6850890640181877 " />
			<path d="M11.943740951181645,0.6850890640181875 L11.943740951181645,0.36198143553359907 " />
			<path d="M11.06280648524003,1.1968160678047157 L11.943740951181645,0.6850890640181868 " />
			<path d="M-7.814360642080318,-0.14646731713492323 L11.062806485240031,1.1968160678047164 " />
			<path d="M-8.309886279172478,-0.6419120980736991 L-7.814360642080318,-0.6066509092190335 " />
			<path d="M-8.309886279172478,0.1413791224949995 L10.567280848147872,1.4846625074346391 " />
			<path d="M10.56728084814787,1.484662507434639 L10.56728084814787,1.1615548789500507 " />
			<path d="M9.686346382206253,1.9963895112211678 L10.56728084814787,1.484662507434638 " />
			<path d="M-9.190820745114094,0.6531061262815289 L9.686346382206256,1.9963895112211685 " />
			<path d="M-9.686346382206255,0.15766134534275297 L-9.190820745114095,0.1929225341974185 " />
			<path d="M-9.686346382206255,0.9409525659114516 L9.190820745114095,2.284235950851091 " />
			<path d="M9.190820745114095,2.284235950851091 L9.190820745114095,1.9611283223665028 " />
			<path d="M8.309886279172478,2.79596295463762 L9.190820745114095,2.2842359508510905 " />

       </g>
    </g>
    <g transform="translate(20,210.0)" stroke="rgb(0,0,255)">
        <line x1="30" y1="-30" x2="75" y2="-33" stroke-width="3" stroke="#000000" />
         <text x="80" y="-30" style="stroke:#000000">X </text>

        <line x1="30" y1="-30" x2="30" y2="-75" stroke-width="3" stroke="#000000" />
         <text x="25" y="-85" style="stroke:#000000">Y </text>

        <line x1="30" y1="-30" x2="58" y2="-15" stroke-width="3" stroke="#000000" />
         <text x="65" y="-5" style="stroke:#000000">Z </text>
        <!--
            <line x1="0" y1="0" x2="19.82801155771079" y2="0" stroke-width="3" />
            <text x="0" y="20" style="stroke:#000000">1  mm </text>
        -->
    </g>
</svg>
