<?xml version="1.0" encoding="UTF-8" standalone="no"?>
<svg
   xmlns:svg="http://www.w3.org/2000/svg"
   xmlns="http://www.w3.org/2000/svg"
   width="800.0"
   height="240.0"

>
  <defs>
    <style>
      .cq-bg { fill: #ffffff; }
      @media (prefers-color-scheme: dark) {
        .cq-bg { fill: #0d1117; }
        /* CadQuery SVG selectors */
        g[stroke="rgb(0,0,0)"] { stroke: #c9d1d9 !important; }
        g[stroke="rgb(160,160,160)"] { stroke: #484f58 !important; }
        /* OpenSCAD SVG selectors */
        path { stroke: #c9d1d9 !important; }
        polygon { stroke: #c9d1d9 !important; fill: #161b22 !important; }
        /* Common selectors */
        line { stroke: #c9d1d9 !important; }
        text { stroke: #c9d1d9 !important; fill: #c9d1d9 !important; }
      }
    </style>
  </defs>
  <rect width="800.0" height="240.0" class="cq-bg"/>
    <g transform="scale(19.828011557710788, -19.828011557710788)   translate(23.654704008951477,-5.5477070749044834)" stroke-width="0.05043370068094985"  fill="none">
       <!-- hidden lines -->
       <g  stroke="rgb(160,160,160)" fill="none" stroke-dasharray="0.05043370068094985,0.05043370068094985" >
			<path d="M-11.943739850013564,1.958518165742416 L6.933427277306784,3.5955357583953176 " />
			<path d="M6.933427277306785,3.595535758395317 L6.933427277306785,3.3018015506820553 " />
			<path d="M6.933427277306785,3.3018015506820557 L-11.943739850013568,1.9585181657424162 " />
			<path d="M4.766843322921129,3.4413634608056523 L-11.943739850013564,1.9585181657424164 " />
			<path d="M6.933427277306785,3.3018015506820557 L6.482949425404823,3.5634801321638028 " />
			<path d="M-10.567281949315952,1.1589460016434734 L8.309885178004397,2.795963594296375 " />
			<path d="M8.309885178004397,2.7959635942963748 L8.309885178004397,2.502229386583113 " />
			<path d="M8.309885178004397,2.502229386583113 L-10.567281949315955,1.1589460016434734 " />
			<path d="M6.143301223618753,2.6417912967067108 L-10.567281949315955,1.1589460016434736 " />
			<path d="M8.309885178004397,2.502229386583113 L7.859407326102434,2.7639079680648604 " />
			<path d="M-9.190820745114095,0.3593719185682668 L9.686346382206253,1.9963895112211683 " />
			<path d="M9.686346382206253,1.9963895112211683 L9.686346382206253,1.7026553035079062 " />
			<path d="M9.686346382206253,1.7026553035079064 L-9.190820745114099,0.3593719185682669 " />
			<path d="M7.519762427820624,1.8422172136315054 L-9.190820745114095,0.3593719185682671 " />
			<path d="M9.686346382206253,1.7026553035079064 L9.235868530304291,1.964333884989654 " />
			<path d="M-7.814359540912236,-0.44020216450693983 L11.062807586408113,1.1968154281459618 " />
			<path d="M11.062807586408113,1.1968154281459618 L11.062807586408113,0.9030812204326997 " />
			<path d="M11.062807586408113,0.9030812204326998 L-7.814359540912239,-0.4402021645069397 " />
			<path d="M8.896223632022455,1.0426431305562966 L-7.814359540912239,-0.4402021645069394 " />
			<path d="M11.062807586408113,0.9030812204326998 L10.612329734506151,1.1647598019144474 " />
			<path d="M-6.437901640214625,-1.2397743286058822 L12.439265487105722,0.3972432640470194 " />
			<path d="M12.439265487105722,0.39724326404701915 L12.439265487105722,0.10350905633375712 " />
			<path d="M12.439265487105722,0.10350905633375729 L-6.43790164021463,-1.2397743286058822 " />
			<path d="M10.272681532720092,0.24307096645735626 L-6.437901640214626,-1.239774328605882 " />
			<path d="M12.439265487105722,0.10350905633375729 L11.98878763520376,0.36518763781550495 " />
			<path d="M13.567963872761501,-0.2584075992132262 L12.439265487105722,0.10350905633375695 " />
			<path d="M13.567963872761501,-3.195749676345846 L11.943739850013564,0.39135549596368024 " />
			<path d="M12.439265487105722,0.10350905633375729 L13.567963872761501,-3.195749676345847 " />
			<path d="M13.567963872761501,-3.195749676345846 L11.06280758640811,0.9030812204326999 " />
			<path d="M11.062807586408113,0.9030812204326998 L11.943739850013564,0.3913554959636799 " />
			<path d="M13.567963872761501,-3.195749676345846 L10.567281949315952,1.1909276600626235 " />
			<path d="M13.567963872761501,-3.195749676345846 L9.686346382206253,1.7026553035079068 " />
			<path d="M9.686346382206253,1.7026553035079064 L10.567281949315952,1.1909276600626224 " />
			<path d="M13.567963872761501,-3.195749676345846 L9.190820745114095,1.9905017431378287 " />
			<path d="M5.309203254558847,1.6016909841528655 L9.190820745114094,1.9905017431378291 " />
			<path d="M13.567963872761501,-3.195749676345846 L5.309203254558847,1.6016909841528655 " />
			<path d="M5.309203254558847,1.6016909841528655 L8.309885178004397,2.5022293865831133 " />
			<path d="M8.309885178004397,2.502229386583113 L9.190820745114095,1.990501743137829 " />
			<path d="M5.309203254558847,1.6016909841528655 L7.814359540912236,2.790075826213036 " />
			<path d="M5.309203254558847,1.6016909841528655 L6.933427277306785,3.3018015506820557 " />
			<path d="M6.933427277306785,3.3018015506820557 L7.814359540912236,2.7900758262130356 " />
			<path d="M11.943739850013564,0.39135549596368 L11.062807586408113,1.1968154281459618 " />
			<path d="M10.567281949315952,1.1909276600626226 L9.686346382206253,1.9963895112211687 " />
			<path d="M9.190820745114095,1.9905017431378291 L8.309885178004397,2.795963594296375 " />
			<path d="M7.814359540912236,2.7900758262130356 L6.933427277306785,3.595535758395317 " />
			<path d="M6.437901640214625,3.5896479903119785 L5.309203254558847,4.539033061285486 " />
			<path d="M5.309203254558847,1.6016909841528655 L6.437901640214625,3.5896479903119785 " />
			<path d="M5.309203254558847,1.6016909841528655 L5.309203254558847,4.539033061285485 " />
			<path d="M-13.567963872761501,0.2584075992132262 L5.309203254558847,4.539033061285487 " />
			<path d="M5.309203254558847,1.6016909841528655 L-13.567963872761505,0.258407599213226 " />
			<path d="M-13.567963872761501,0.2584075992132262 L13.567963872761501,-3.1957496763458457 " />

       </g>

       <!-- solid lines -->
       <g  stroke="rgb(0,0,0)" fill="none">
			<path d="M-11.943739850013564,1.958518165742416 L-11.943739850013564,2.252252373455678 " />
			<path d="M-11.943739850013564,2.252252373455678 L6.933427277306787,3.595535758395317 " />
			<path d="M-12.439265487105722,2.5400988130856006 L6.43790164021463,3.589647990311978 " />
			<path d="M6.437901640214625,3.5896479903119785 L6.437901640214625,3.8833821980252403 " />
			<path d="M6.437901640214625,3.88338219802524 L-12.439265487105725,2.5400988130856 " />
			<path d="M-12.439265487105722,2.5400988130856006 L-12.439265487105722,2.2463646053723387 " />
			<path d="M-12.439265487105722,2.2463646053723387 L6.43790164021463,3.5896479903119785 " />
			<path d="M6.437901640214625,3.5896479903119785 L4.766843322921129,3.4413634608056523 " />
			<path d="M6.482949425404823,3.5634801321638028 L6.437901640214625,3.5896479903119785 " />
			<path d="M-12.439265487105722,2.2463646053723387 L-11.943739850013563,1.958518165742416 " />
			<path d="M-10.567281949315952,1.1589460016434734 L-10.567281949315952,1.4526802093567355 " />
			<path d="M-10.567281949315952,1.4526802093567355 L8.3098851780044,2.795963594296375 " />
			<path d="M-11.062807586408113,1.7405266489866582 L7.814359540912239,2.7900758262130356 " />
			<path d="M7.814359540912236,2.7900758262130356 L7.814359540912236,3.0838100339262975 " />
			<path d="M7.814359540912236,3.0838100339262975 L-11.062807586408116,1.740526648986658 " />
			<path d="M-11.062807586408113,1.7405266489866582 L-11.062807586408113,1.4467924412733961 " />
			<path d="M-11.062807586408113,1.4467924412733961 L7.814359540912239,2.7900758262130356 " />
			<path d="M7.814359540912236,2.7900758262130356 L6.143301223618753,2.6417912967067108 " />
			<path d="M7.859407326102434,2.7639079680648604 L7.814359540912237,2.7900758262130356 " />
			<path d="M-11.062807586408113,1.4467924412733961 L-10.567281949315953,1.1589460016434734 " />
			<path d="M-9.190820745114095,0.3593719185682668 L-9.190820745114095,0.6531061262815288 " />
			<path d="M-9.190820745114095,0.6531061262815289 L9.686346382206256,1.9963895112211683 " />
			<path d="M-9.686346382206253,0.9409525659114516 L9.190820745114099,1.9905017431378291 " />
			<path d="M9.190820745114095,1.9905017431378291 L9.190820745114095,2.284235950851091 " />
			<path d="M9.190820745114095,2.284235950851091 L-9.686346382206256,0.9409525659114515 " />
			<path d="M-9.686346382206253,0.9409525659114516 L-9.686346382206253,0.6472183581981896 " />
			<path d="M-9.686346382206253,0.6472183581981895 L9.190820745114099,1.9905017431378291 " />
			<path d="M9.190820745114095,1.9905017431378291 L7.519762427820624,1.8422172136315054 " />
			<path d="M9.235868530304291,1.964333884989654 L9.190820745114094,1.9905017431378291 " />
			<path d="M-9.686346382206253,0.6472183581981895 L-9.190820745114094,0.3593719185682668 " />
			<path d="M-7.814359540912236,-0.44020216450693983 L-7.814359540912236,-0.1464679567936778 " />
			<path d="M-7.814359540912236,-0.14646795679367774 L11.062807586408116,1.1968154281459618 " />
			<path d="M-8.309885178004397,0.141378482836245 L10.567281949315955,1.1909276600626224 " />
			<path d="M10.567281949315952,1.1909276600626226 L10.567281949315952,1.4846618677758847 " />
			<path d="M10.567281949315952,1.4846618677758845 L-8.3098851780044,0.141378482836245 " />
			<path d="M-8.309885178004397,0.141378482836245 L-8.309885178004397,-0.15235572487701704 " />
			<path d="M-8.309885178004397,-0.1523557248770171 L10.567281949315955,1.1909276600626224 " />
			<path d="M10.567281949315952,1.1909276600626226 L8.896223632022455,1.0426431305562966 " />
			<path d="M10.612329734506151,1.1647598019144474 L10.567281949315953,1.1909276600626226 " />
			<path d="M-8.309885178004397,-0.1523557248770171 L-7.814359540912237,-0.44020216450693983 " />
			<path d="M-6.437901640214625,-1.2397743286058822 L-6.437901640214625,-0.9460401208926201 " />
			<path d="M-6.437901640214625,-0.9460401208926202 L12.439265487105725,0.39724326404701926 " />
			<path d="M-6.933427277306785,-0.6581936812626975 L11.943739850013568,0.3913554959636799 " />
			<path d="M11.943739850013564,0.39135549596368 L11.943739850013564,0.6850897036769421 " />
			<path d="M11.943739850013564,0.6850897036769419 L-6.933427277306787,-0.6581936812626976 " />
			<path d="M-6.933427277306785,-0.6581936812626975 L-6.933427277306785,-0.9519278889759595 " />
			<path d="M-6.933427277306785,-0.9519278889759596 L11.943739850013568,0.3913554959636799 " />
			<path d="M11.943739850013564,0.39135549596368 L10.272681532720092,0.24307096645735626 " />
			<path d="M11.98878763520376,0.36518763781550495 L11.943739850013563,0.39135549596368 " />
			<path d="M-6.933427277306785,-0.9519278889759596 L-6.437901640214625,-1.2397743286058822 " />
			<path d="M12.439265487105722,0.39724326404701915 L13.5679638727615,-0.2584075992132262 " />
			<path d="M13.567963872761501,-0.2584075992132262 L13.567963872761501,-3.195749676345846 " />
			<path d="M11.062807586408113,1.1968154281459618 L11.943739850013564,0.6850897036769419 " />
			<path d="M9.686346382206253,1.9963895112211683 L10.567281949315952,1.4846618677758843 " />
			<path d="M8.309885178004397,2.7959635942963748 L9.190820745114095,2.284235950851091 " />
			<path d="M6.933427277306785,3.595535758395317 L7.814359540912236,3.083810033926297 " />
			<path d="M5.309203254558847,4.539033061285485 L6.437901640214625,3.88338219802524 " />
			<path d="M-5.309203254558847,-1.6016909841528655 L13.567963872761505,-3.195749676345846 " />
			<path d="M13.567963872761501,-0.2584075992132262 L-5.309203254558851,-1.6016909841528657 " />
			<path d="M-5.309203254558847,-1.6016909841528655 L-5.309203254558847,-4.539033061285485 " />
			<path d="M-5.309203254558847,-4.539033061285485 L13.567963872761505,-3.1957496763458453 " />
			<path d="M-13.567963872761501,0.2584075992132262 L-13.567963872761501,3.195749676345846 " />
			<path d="M-13.567963872761501,3.195749676345846 L5.309203254558851,4.539033061285486 " />
			<path d="M-13.567963872761501,3.195749676345846 L-12.439265487105722,2.2463646053723387 " />
			<path d="M-12.439265487105722,2.5400988130856006 L-13.5679638727615,3.195749676345846 " />
			<path d="M-13.567963872761501,0.2584075992132262 L-11.943739850013564,1.9585181657424162 " />
			<path d="M-12.439265487105722,2.2463646053723387 L-13.567963872761501,0.25840759921322554 " />
			<path d="M-13.567963872761501,0.2584075992132262 L-11.062807586408113,1.4467924412733968 " />
			<path d="M-11.062807586408113,1.4467924412733961 L-11.943739850013564,1.958518165742416 " />
			<path d="M-13.567963872761501,0.2584075992132262 L-10.567281949315952,1.158946001643474 " />
			<path d="M-13.567963872761501,0.2584075992132262 L-9.686346382206255,0.6472183581981898 " />
			<path d="M-9.686346382206253,0.6472183581981895 L-10.567281949315952,1.1589460016434736 " />
			<path d="M-13.567963872761501,0.2584075992132262 L-9.190820745114095,0.35937191856826695 " />
			<path d="M-5.309203254558847,-4.539033061285485 L-9.190820745114095,0.359371918568268 " />
			<path d="M-13.567963872761501,0.2584075992132262 L-5.309203254558847,-4.539033061285485 " />
			<path d="M-5.309203254558847,-4.539033061285485 L-8.309885178004397,-0.15235572487701532 " />
			<path d="M-8.309885178004397,-0.1523557248770171 L-9.190820745114095,0.3593719185682669 " />
			<path d="M-5.309203254558847,-4.539033061285485 L-7.814359540912237,-0.44020216450693894 " />
			<path d="M-5.309203254558847,-4.539033061285485 L-6.933427277306785,-0.9519278889759586 " />
			<path d="M-6.933427277306785,-0.9519278889759596 L-7.814359540912236,-0.4402021645069397 " />
			<path d="M-11.943739850013564,1.958518165742416 L-11.062807586408113,1.7405266489866582 " />
			<path d="M-11.062807586408113,1.7405266489866582 L-11.943739850013564,2.2522523734556783 " />
			<path d="M-10.567281949315952,1.1589460016434734 L-9.686346382206253,0.9409525659114515 " />
			<path d="M-9.686346382206253,0.9409525659114516 L-10.567281949315952,1.4526802093567355 " />
			<path d="M-9.190820745114095,0.3593719185682668 L-8.309885178004397,0.14137848283624493 " />
			<path d="M-8.309885178004397,0.141378482836245 L-9.190820745114095,0.653106126281529 " />
			<path d="M-7.814359540912236,-0.44020216450693983 L-6.933427277306785,-0.6581936812626976 " />
			<path d="M-6.933427277306785,-0.6581936812626975 L-7.814359540912236,-0.14646795679367763 " />
			<path d="M-6.437901640214625,-1.2397743286058822 L-5.309203254558847,-1.6016909841528655 " />
			<path d="M-5.309203254558847,-1.6016909841528655 L-6.437901640214625,-0.9460401208926201 " />
			<path d="M-5.309203254558847,-4.539033061285485 L-6.437901640214625,-1.2397743286058809 " />
			<path d="M12.439265487105722,0.39724326404701915 L-5.309203254558849,-1.601690984152866 " />
			<path d="M5.309203254558847,4.539033061285485 L-12.439265487105724,2.5400988130856 " />
			<path d="M6.933427277306785,3.595535758395317 L-11.062807586408113,1.740526648986658 " />
			<path d="M8.309885178004397,2.7959635942963748 L-9.686346382206253,0.9409525659114513 " />
			<path d="M9.686346382206253,1.9963895112211683 L-8.309885178004397,0.14137848283624477 " />
			<path d="M11.062807586408113,1.1968154281459618 L-6.933427277306784,-0.6581936812626974 " />

       </g>
    </g>
    <g transform="translate(20,210.0)" stroke="rgb(0,0,255)">
        <line x1="30" y1="-30" x2="75" y2="-33" stroke-width="3" stroke="#000000" />
         <text x="80" y="-30" style="stroke:#000000">X </text>

        <line x1="30" y1="-30" x2="30" y2="-75" stroke-width="3" stroke="#000000" />
         <text x="25" y="-85" style="stroke:#000000">Y </text>

        <line x1="30" y1="-30" x2="58" y2="-15" stroke-width="3" stroke="#000000" />
         <text x="65" y="-5" style="stroke:#000000">Z </text>
        <!--
            <line x1="0" y1="0" x2="19.828011557710788" y2="0" stroke-width="3" />
            <text x="0" y="20" style="stroke:#000000">1  mm </text>
        -->
    </g>
</svg>
