<?xml version="1.0" encoding="UTF-8" standalone="no"?>
<svg
   xmlns:svg="http://www.w3.org/2000/svg"
   xmlns="http://www.w3.org/2000/svg"
   width="800.0"
   height="240.0"

>
  <defs>
    <style>
      .cq-bg { fill: #ffffff; }
      @media (prefers-color-scheme: dark) {
        .cq-bg { fill: #0d1117; }
        /* CadQuery SVG selectors */
        g[stroke="rgb(0,0,0)"] { stroke: #c9d1d9 !important; }
        g[stroke="rgb(160,160,160)"] { stroke: #484f58 !important; }
        /* OpenSCAD SVG selectors */
        path { stroke: #c9d1d9 !important; }
        polygon { stroke: #c9d1d9 !important; fill: #161b22 !important; }
        /* Common selectors */
        line { stroke: #c9d1d9 !important; }
        text { stroke: #c9d1d9 !important; fill: #c9d1d9 !important; }
      }
    </style>
  </defs>
  <rect width="800.0" height="240.0" class="cq-bg"/>
    <g transform="scale(4.339927326381293, -4.339927326381293)   translate(63.073171398636106,-23.441379607646176)" stroke-width="0.23041860492023894"  fill="none">
       <!-- hidden lines -->
       <g  stroke="rgb(160,160,160)" fill="none" stroke-dasharray="0.23041860492023894,0.23041860492023894" >
			<path d="M28.247509731815263,-5.855623835294885 L14.68898444261742,3.5920391001568177 " />
			<path d="M14.68898444261742,3.592039100156816 L27.903001431741664,-4.083865956641123 " />
			<path d="M28.247509731815263,-5.855623835294885 L15.033492742691017,1.8202812215030537 " />
			<path d="M15.033492742691017,1.8202812215030533 L14.68898444261742,3.592039100156816 " />
			<path d="M28.36294360879883,-7.674945568665838 L15.033492742691015,1.8202812215030546 " />
			<path d="M28.36294360879883,-7.674945568665838 L15.148926619674583,0.0009594881321008941 " />
			<path d="M15.148926619674581,0.0009594881321000059 L15.033492742691017,1.8202812215030533 " />
			<path d="M27.903001431741664,-4.083865956641122 L14.121536798770165,5.285925510786172 " />
			<path d="M14.121536798770169,5.285925510786172 L27.335553787894415,-2.3899795460117668 " />
			<path d="M14.68898444261742,3.592039100156816 L14.121536798770169,5.285925510786171 " />
			<path d="M27.903001431741664,-11.331483380038662 L15.033492742691015,-1.834790601036664 " />
			<path d="M15.033492742691017,-1.8347906010366652 L28.247509731815263,-9.510695657834605 " />
			<path d="M27.903001431741664,-11.331483380038662 L14.688984442617418,-3.6555783232407233 " />
			<path d="M14.68898444261742,-3.655578323240725 L15.033492742691017,-1.8347906010366657 " />
			<path d="M26.55469976967281,-0.8029534002764613 L12.359825176612997,8.325960904887875 " />
			<path d="M12.359825176612999,8.325960904887875 L25.573842165737247,0.6500558480899361 " />
			<path d="M26.55469976967281,-0.8029534002764613 L13.340682780548562,6.872951656521478 " />
			<path d="M13.340682780548564,6.872951656521477 L12.359825176612999,8.325960904887877 " />
			<path d="M27.335553787894415,-2.389979546011766 L13.340682780548564,6.872951656521478 " />
			<path d="M14.121536798770169,5.285925510786172 L13.340682780548564,6.872951656521478 " />
			<path d="M27.335553787894415,-13.10612798777059 L14.688984442617418,-3.6555783232407215 " />
			<path d="M27.335553787894415,-13.10612798777059 L14.121536798770169,-5.430222930972651 " />
			<path d="M14.121536798770169,-5.4302229309726515 L14.68898444261742,-3.655578323240724 " />
			<path d="M28.247509731815263,-9.510695657834603 L15.148926619674583,0.0009594881320982296 " />
			<path d="M15.033492742691017,-1.8347906010366652 L15.148926619674581,0.0009594881321000059 " />
			<path d="M5.145075724970361,-14.235114456594626 L20.030911266391477,-21.20341095471478 " />
			<path d="M18.359092714094608,-21.911019513392564 L5.145075724970361,-14.235114456594625 " />
			<path d="M5.145075724970361,-14.235114456594626 L6.816894277267234,-13.52750589791684 " />
			<path d="M6.816894277267234,-13.52750589791684 L20.03091126639148,-21.203410954714776 " />
			<path d="M2.595610480006548,-14.829522561834187 L16.62749961208908,-22.39161484603585 " />
			<path d="M13.92191075639876,-21.408869753375278 L2.595610480006549,-14.829522561834187 " />
			<path d="M2.595610480006548,-14.829522561834187 L3.413482622964829,-14.715709789237915 " />
			<path d="M3.4134826229648296,-14.715709789237915 L16.627499612089075,-22.391614846035854 " />
			<path d="M25.573842165737247,0.6500558480899379 L11.195670279871152,9.620058464036108 " />
			<path d="M11.195670279871152,9.620058464036106 L24.4096872689954,1.9441534072381668 " />
			<path d="M12.359825176612999,8.325960904887875 L11.195670279871152,9.620058464036106 " />
			<path d="M-0.109978375683768,-14.966436319603668 L13.921910756398761,-22.63975595712609 " />
			<path d="M13.104038613440478,-22.642341376401603 L-0.10997837568376845,-14.966436319603664 " />
			<path d="M-0.109978375683768,-14.966436319603668 L0.7078937672745133,-14.963850900328152 " />
			<path d="M0.7078937672745134,-14.963850900328152 L13.92191075639876,-22.63975595712609 " />
			<path d="M11.195670279871152,9.620058464036106 L23.0823298238543,3.057339003696238 " />
			<path d="M11.195670279871152,9.620058464036106 L9.868312834730059,10.733244060494176 " />
			<path d="M9.868312834730059,10.733244060494176 L23.082329823854305,3.057339003696237 " />
			<path d="M26.55469976967281,-14.80428396794195 L14.121536798770167,-5.430222930972651 " />
			<path d="M26.55469976967281,-14.80428396794195 L13.340682780548562,-7.1283789111440115 " />
			<path d="M13.340682780548564,-7.128378911144012 L14.121536798770169,-5.430222930972651 " />
			<path d="M6.816894277267234,-13.52750589791684 L21.6143563607818,-20.280713295990356 " />
			<path d="M6.816894277267234,-13.52750589791684 L8.400339371657555,-12.604808239192419 " />
			<path d="M8.400339371657555,-12.604808239192419 L21.6143563607818,-20.28071329599036 " />
			<path d="M8.400339371657555,-12.604808239192419 L23.0823298238543,-19.15875823968348 " />
			<path d="M8.400339371657555,-12.604808239192419 L9.868312834730059,-11.482853182885542 " />
			<path d="M9.868312834730059,-11.482853182885542 L23.082329823854305,-19.15875823968348 " />
			<path d="M9.868312834730059,-11.482853182885542 L24.4096872689954,-17.85666535751796 " />
			<path d="M9.868312834730059,-11.482853182885542 L11.195670279871152,-10.180760300720026 " />
			<path d="M11.195670279871152,-10.180760300720028 L24.4096872689954,-17.85666535751797 " />
			<path d="M-0.8644232370942535,8.602707545313391 L0.7078937672745134,8.99409019479121 " />
			<path d="M0.7078937672745134,8.994090194791209 L0.38281007217492974,8.948829534638097 " />
			<path d="M0.3828100721749297,8.948829534638097 L-0.8644232370942531,8.60270754531339 " />
			<path d="M-0.8644232370942535,8.602707545313391 L0.7078937672745134,-11.047394797484658 " />
			<path d="M0.7078937672745134,-11.04739479748466 L0.7078937672745134,8.994090194791209 " />
			<path d="M-0.8644232370942535,-10.879781667403625 L0.7078937672745131,-11.047394797484658 " />
			<path d="M-0.8644232370942535,8.602707545313391 L-0.8644232370942535,-10.879781667403625 " />
			<path d="M-0.8644232370942535,-10.879781667403625 L0.38281007217492946,-11.048399503675638 " />
			<path d="M0.3828100721749297,-11.04839950367564 L0.7078937672745134,-11.04739479748466 " />
			<path d="M-2.068597728146018,8.092984795933225 L-0.8644232370942533,-10.879781667403629 " />
			<path d="M-0.8644232370942535,8.602707545313391 L-2.0685977281460186,8.092984795933226 " />
			<path d="M-2.068597728146018,8.092984795933225 L-2.068597728146018,-10.541435012274059 " />
			<path d="M-2.068597728146018,-10.541435012274059 L-0.8644232370942533,-10.879781667403625 " />
			<path d="M-3.209118411644459,7.428372252460833 L-2.0685977281460177,-10.541435012274057 " />
			<path d="M-2.068597728146018,8.092984795933225 L-3.2091184116444595,7.428372252460831 " />
			<path d="M-3.209118411644459,7.428372252460833 L-3.209118411644459,-10.039139459904234 " />
			<path d="M-3.209118411644459,-10.039139459904234 L-2.0685977281460177,-10.54143501227406 " />
			<path d="M-4.266466296779926,6.620245832978492 L-3.2091184116444587,-10.039139459904236 " />
			<path d="M-3.209118411644459,7.428372252460833 L-4.266466296779926,6.620245832978492 " />
			<path d="M-4.266466296779926,6.620245832978492 L-4.266466296779926,-9.38149301833637 " />
			<path d="M-4.266466296779926,-9.38149301833637 L-3.209118411644459,-10.039139459904233 " />
			<path d="M-5.2225570574444475,5.682425062498072 L-4.266466296779927,-9.381493018336368 " />
			<path d="M-4.266466296779926,6.620245832978492 L-5.2225570574444475,5.682425062498072 " />
			<path d="M-5.2225570574444475,5.682425062498072 L-5.2225570574444475,-8.579741481616793 " />
			<path d="M-5.2225570574444475,-8.579741481616795 L-4.266466296779927,-9.38149301833637 " />
			<path d="M-6.061024189738635,4.630957100905122 L-5.222557057444447,-8.579741481616793 " />
			<path d="M-5.2225570574444475,5.682425062498072 L-6.061024189738636,4.630957100905122 " />
			<path d="M-6.061024189738635,4.630957100905122 L-6.061024189738635,-7.6476027562415725 " />
			<path d="M-6.061024189738635,-7.6476027562415725 L-5.2225570574444475,-8.579741481616795 " />
			<path d="M-6.767521046645726,3.4838406807780222 L-6.061024189738635,-7.647602756241571 " />
			<path d="M-6.061024189738635,4.630957100905122 L-6.767521046645726,3.4838406807780222 " />
			<path d="M-6.767521046645726,3.4838406807780222 L-6.767521046645726,-6.601033784043975 " />
			<path d="M-6.767521046645726,-6.601033784043975 L-6.061024189738635,-7.6476027562415725 " />
			<path d="M-7.329966241204236,2.2606953282157543 L-6.767521046645726,-6.601033784043975 " />
			<path d="M-6.767521046645726,3.4838406807780222 L-7.329966241204236,2.2606953282157543 " />
			<path d="M-7.329966241204236,2.2606953282157543 L-7.329966241204236,-5.457934688390259 " />
			<path d="M-7.329966241204236,-5.457934688390259 L-6.767521046645726,-6.601033784043974 " />
			<path d="M-7.738732418179232,0.9824541957963392 L-7.329966241204237,-5.457934688390259 " />
			<path d="M-7.329966241204236,2.2606953282157543 L-7.738732418179231,0.9824541957963391 " />
			<path d="M-7.738732418179232,0.9824541957963392 L-7.738732418179232,-4.237868472805811 " />
			<path d="M-7.738732418179232,-4.237868472805811 L-7.329966241204237,-5.45793468839026 " />
			<path d="M-7.986835025733603,-0.32902143358678515 L-7.738732418179231,-4.237868472805811 " />
			<path d="M-7.738732418179232,0.9824541957963392 L-7.986835025733604,-0.32902143358678504 " />
			<path d="M-7.986835025733603,-0.32902143358678515 L-7.986835025733603,-2.9617023904792097 " />
			<path d="M-7.986835025733603,-2.9617023904792097 L-7.738732418179231,-4.237868472805811 " />
			<path d="M-7.986835025733603,-0.32902143358678515 L-8.069988946929449,-1.6512790753436568 " />
			<path d="M-8.069988946929449,-1.6512790753436566 L-7.986835025733602,-2.9617023904792097 " />
			<path d="M16.50453741259137,6.938622962507022 L15.148926619674583,0.0009594881321035587 " />
			<path d="M15.148926619674581,0.0009594881321000059 L18.641202538228846,-17.374585548449787 " />
			<path d="M18.641202538228846,-17.374585548449787 L18.641202538228846,5.697453176206373 " />
			<path d="M16.22079945747505,7.103443819501187 L15.033492742691017,1.820281221503059 " />
			<path d="M15.738286978022748,7.383731031485578 L14.688984442617421,3.5920391001568177 " />
			<path d="M15.023793109221621,7.798774171288988 L14.12153679877017,5.285925510786173 " />
			<path d="M14.057300039807206,8.360201407608132 L13.340682780548565,6.872951656521478 " />
			<path d="M12.84547576916976,9.064139358845239 L12.359825176613,8.325960904887879 " />
			<path d="M11.433883570099404,9.884120724685664 L11.195670279871154,9.620058464036108 " />
			<path d="M9.911547045575414,10.768432485171477 L9.868312834730059,10.73324406049418 " />
			<path d="M8.400339371657555,11.646279595224776 L9.868312834730057,10.733244060494176 " />
			<path d="M0.7078937672745134,8.994090194791209 L2.595610480006548,9.128418533285172 " />
			<path d="M2.595610480006548,9.128418533285174 L2.595610480006548,11.813988432377855 " />
			<path d="M2.1441999617445395,12.076208791461013 L0.7078937672745134,8.994090194791209 " />
			<path d="M0.7078937672745134,8.994090194791209 L2.5956104800065485,-10.913066458990698 " />
			<path d="M2.595610480006548,-10.913066458990695 L2.595610480006548,9.128418533285174 " />
			<path d="M0.7078937672745134,12.910546297634701 L0.7078937672745134,8.994090194791207 " />
			<path d="M15.033492742691017,-1.8347906010366652 L18.641202538228846,-17.374585548449787 " />
			<path d="M14.68898444261742,-3.655578323240725 L18.641202538228846,-17.374585548449787 " />
			<path d="M14.121536798770169,-5.4302229309726515 L18.641202538228846,-17.374585548449787 " />
			<path d="M13.340682780548564,-7.128378911144012 L18.641202538228846,-17.374585548449787 " />
			<path d="M12.359825176612999,-8.72098216887334 L18.641202538228846,-17.374585548449787 " />
			<path d="M13.340682780548564,-7.128378911144012 L12.359825176612999,-8.72098216887334 " />
			<path d="M11.195670279871152,-10.180760300720028 L18.641202538228846,-17.37458554844979 " />
			<path d="M12.359825176612999,-8.72098216887334 L11.195670279871152,-10.180760300720024 " />
			<path d="M9.868312834730059,-11.482853182885542 L18.641202538228846,-17.374585548449787 " />
			<path d="M8.400339371657555,-12.604808239192419 L18.641202538228846,-17.374585548449787 " />
			<path d="M6.816894277267234,-13.52750589791684 L18.641202538228846,-17.374585548449787 " />
			<path d="M5.145075724970361,-14.235114456594626 L18.641202538228846,-17.374585548449787 " />
			<path d="M3.4134826229648296,-14.715709789237915 L18.641202538228843,-17.374585548449787 " />
			<path d="M5.145075724970361,-14.235114456594626 L3.413482622964829,-14.715709789237916 " />
			<path d="M2.595610480006548,-14.829522561834187 L18.641202538228846,-17.374585548449787 " />
			<path d="M0.7078937672745134,-11.04739479748466 L2.595610480006548,-10.913066458990697 " />
			<path d="M0.7078937672745134,-11.04739479748466 L2.595610480006548,-14.829522561834189 " />
			<path d="M2.595610480006548,-14.829522561834187 L2.595610480006548,-10.913066458990693 " />
			<path d="M0.7078937672745134,-14.963850900328152 L2.595610480006548,-14.829522561834189 " />
			<path d="M0.7078937672745134,-11.04739479748466 L0.7078937672745134,-14.963850900328154 " />
			<path d="M0.7078937672745134,-14.963850900328152 L18.641202538228846,-17.374585548449787 " />
			<path d="M-1.5298777318896075,-15.637269714780096 L0.7078937672745127,-14.963850900328154 " />
			<path d="M-0.109978375683768,-14.966436319603668 L-1.7758415055955235,-15.49439154412751 " />
			<path d="M3.3358099446603227,-18.46370445237493 L18.64120253822884,-17.37458554844979 " />
			<path d="M-1.8415714776892997,-14.73227841347802 L-2.598956664919899,-15.016251261805703 " />
			<path d="M-0.109978375683768,-14.966436319603668 L-1.8415714776893,-14.732278413478019 " />
			<path d="M-3.513390029986172,-14.262600267641051 L-3.725551624877853,-14.361822259843487 " />
			<path d="M-1.8415714776892997,-14.73227841347802 L-3.5133900299861716,-14.262600267641053 " />
			<path d="M-3.513390029986172,-14.262600267641051 L-5.096835124376494,-13.56525585942426 " />
			<path d="M11.290339273014665,1.0427261262797254 L11.290339273014665,0.47842386120757896 " />
			<path d="M11.32521083691885,0.4931848693177101 L11.290339273014665,1.0427261262797254 " />
			<path d="M11.042236665460294,2.3188922086063264 L11.16248998927117,0.42430571728385313 " />
			<path d="M11.290339273014665,1.0427261262797254 L11.042236665460294,2.3188922086063264 " />
			<path d="M11.042236665460294,2.3188922086063264 L11.042236665460294,0.3569524233913022 " />
			<path d="M10.633470488485298,3.538958424190775 L10.842805783499108,0.24073860313808204 " />
			<path d="M11.042236665460294,2.3188922086063264 L10.6334704884853,3.538958424190776 " />
			<path d="M10.633470488485298,3.538958424190775 L10.633470488485298,0.11875321096534819 " />
			<path d="M10.071025293926787,4.6820575198444905 L10.370383998614276,-0.03455447009315282 " />
			<path d="M10.633470488485298,3.538958424190775 L10.071025293926787,4.68205751984449 " />
			<path d="M10.071025293926787,4.6820575198444905 L10.071025293926787,-0.2089989611151566 " />
			<path d="M9.364528437019697,5.728626492042088 L9.755905117302337,-0.43783742997310604 " />
			<path d="M10.071025293926787,4.6820575198444905 L9.364528437019697,5.728626492042088 " />
			<path d="M9.364528437019697,5.728626492042088 L9.364528437019697,-0.7369649354536438 " />
			<path d="M8.52606130472551,6.6607652174173095 L9.012655317351891,-1.0059000402633478 " />
			<path d="M9.364528437019697,5.728626492042088 L8.52606130472551,6.66076521741731 " />
			<path d="M8.52606130472551,6.6607652174173095 L8.52606130472551,-1.4690943478773937 " />
			<path d="M7.569970544060988,7.462516754136884 L8.159660996703561,-1.8284930925473857 " />
			<path d="M8.52606130472551,6.6607652174173095 L7.569970544060989,7.462516754136884 " />
			<path d="M7.569970544060988,7.462516754136884 L7.569970544060988,-2.522042856412292 " />
			<path d="M6.512622658925521,8.120163195704748 L7.2162239596219635,-2.965653805171657 " />
			<path d="M7.569970544060988,7.462516754136884 L6.512622658925521,8.120163195704748 " />
			<path d="M6.512622658925521,8.120163195704748 L6.512622658925521,-4.084696534954746 " />
			<path d="M5.37210197542708,8.622458748074573 L6.21708746265617,-4.690957279093507 " />
			<path d="M6.512622658925521,8.120163195704748 L5.372101975427079,8.622458748074575 " />
			<path d="M5.37210197542708,8.622458748074573 L5.37210197542708,-7.238876242589386 " />
			<path d="M4.167927484375316,8.960805403204139 L5.2403129503413055,-7.9355158157235675 " />
			<path d="M5.37210197542708,8.622458748074573 L4.167927484375316,8.960805403204139 " />
			<path d="M4.167927484375316,8.960805403204139 L4.167927484375316,-10.521683809512878 " />
			<path d="M4.167927484375316,-10.521683809512878 L5.192310399486457,-10.088066190315136 " />
			<path d="M2.595610480006548,9.128418533285174 L4.167927484375315,8.96080540320414 " />
			<path d="M4.167927484375316,8.960805403204139 L2.9206941751061324,9.129423239476152 " />
			<path d="M2.920694175106132,9.129423239476154 L2.595610480006548,9.128418533285174 " />
			<path d="M2.595610480006548,9.128418533285174 L4.167927484375315,-10.521683809512876 " />
			<path d="M2.595610480006548,-10.913066458990695 L4.167927484375315,-10.521683809512876 " />
			<path d="M2.595610480006548,-10.913066458990695 L2.9206941751061315,-10.867805798837583 " />
			<path d="M2.920694175106132,-10.867805798837583 L4.167927484375315,-10.521683809512876 " />
			<path d="M3.4134826229648296,-14.715709789237915 L18.359092714094608,-21.911019513392564 " />
			<path d="M25.573842165737247,-16.39688722567128 L13.340682780548562,-7.1283789111440115 " />
			<path d="M25.573842165737247,-16.39688722567128 L12.359825176613,-8.72098216887334 " />
			<path d="M-1.8415714776892997,-14.73227841347802 L13.104038613440476,-22.642341376401607 " />
			<path d="M11.372445511434947,-22.408183470275958 L-1.8415714776892997,-14.732278413478019 " />
			<path d="M9.868312834730059,10.733244060494176 L21.614356360781805,3.970374538426838 " />
			<path d="M24.4096872689954,-17.856665357517965 L12.359825176612999,-8.720982168873341 " />
			<path d="M-3.513390029986172,-14.262600267641051 L11.372445511434947,-22.408183470275958 " />
			<path d="M9.700626959138074,-21.93850532443899 L-3.513390029986173,-14.26260026764105 " />
			<path d="M-5.096835124376494,-13.565255859424262 L9.700626959138074,-21.938505324438992 " />
			<path d="M2.920694175106132,9.129423239476154 L17.381944473499562,1.2849003464062028 " />
			<path d="M16.134711164230378,1.4535181826782164 L2.9206941751061315,9.129423239476155 " />
			<path d="M4.167927484375316,8.960805403204139 L17.381944473499562,1.2849003464062 " />
			<path d="M11.290339273014665,1.0427261262797254 L11.905799725568079,0.7389460665370394 " />
			<path d="M13.08661080691006,1.131333434975506 L11.042236665460294,2.318892208606327 " />
			<path d="M11.290339273014665,1.0427261262797254 L11.852288357677336,0.7162948961567912 " />
			<path d="M11.042236665460294,2.3188922086063264 L13.287305000544883,1.1870284465106797 " />
			<path d="M13.92191075639876,1.6287326917560394 L10.633470488485298,3.538958424190776 " />
			<path d="M10.071025293926787,4.6820575198444905 L16.171729062140606,1.4485136035007908 " />
			<path d="M16.902876188724353,1.349667264516074 L9.364528437019697,5.728626492042089 " />
			<path d="M10.071025293926787,4.6820575198444905 L13.92191075639876,2.4451123714564766 " />
			<path d="M4.167927484375316,8.960805403204139 L18.586118964551325,0.9465536912766357 " />
			<path d="M5.37210197542708,8.622458748074573 L18.586118964551325,0.9465536912766339 " />
			<path d="M-3.209118411644459,-10.039139459904234 L8.94755069234432,-17.05739807513431 " />
			<path d="M10.004898577479787,-17.71504451670217 L-3.209118411644459,-10.039139459904233 " />
			<path d="M-4.266466296779926,-9.38149301833637 L8.94755069234432,-17.05739807513431 " />
			<path d="M-0.8644232370942535,-10.879781667403625 L8.144106492077242,-16.38365176491493 " />
			<path d="M7.555232646347718,-15.77068495785671 L-0.864423237094254,-10.879781667403625 " />
			<path d="M-2.068597728146018,-10.541435012274059 L8.494354304970722,-16.677359991971578 " />
			<path d="M10.633470488485298,3.538958424190775 L13.92191075639876,1.840928919720879 " />
			<path d="M-2.068597728146018,8.092984795933225 L12.349593752029993,0.9268024885154516 " />
			<path d="M11.145419260978228,0.4170797391352874 L-2.0685977281460186,8.092984795933226 " />
			<path d="M-0.8644232370942535,8.602707545313391 L12.349593752029993,0.9268024885154524 " />
			<path d="M9.364528437019697,5.728626492042088 L17.665419720265113,1.205250011452354 " />
			<path d="M18.15403842020445,1.0679588597241407 L8.52606130472551,6.66076521741731 " />
			<path d="M7.991459931679799,-16.25564653841473 L-6.061024189738635,-7.64760275624157 " />
			<path d="M-6.061024189738635,-7.6476027562415725 L7.152992799385611,-15.323507813039512 " />
			<path d="M7.991459931679799,-16.25564653841473 L-5.2225570574444475,-8.579741481616791 " />
			<path d="M-5.2225570574444475,5.682425062498072 L8.94755069234432,-1.055659223819446 " />
			<path d="M7.991459931679799,-1.9934799942998662 L-5.2225570574444475,5.682425062498073 " />
			<path d="M-4.266466296779926,6.620245832978492 L8.94755069234432,-1.0556592238194469 " />
			<path d="M5.884050747920011,-13.133839745188197 L-7.738732418179232,-4.237868472805808 " />
			<path d="M-7.738732418179232,-4.237868472805811 L5.475284570945014,-11.91377352960375 " />
			<path d="M5.884050747920011,-13.133839745188197 L-7.329966241204236,-5.457934688390258 " />
			<path d="M5.37210197542708,8.622458748074573 L19.72663964804977,0.44425813890680743 " />
			<path d="M6.512622658925521,8.120163195704748 L19.72663964804977,0.4442581389068092 " />
			<path d="M-3.209118411644459,7.428372252460833 L11.145419260978231,0.4170797391352856 " />
			<path d="M10.004898577479787,-0.247532804337105 L-3.209118411644459,7.428372252460834 " />
			<path d="M4.167927484375316,-10.521683809512878 L5.336629363222018,-11.200572346519609 " />
			<path d="M6.446495942478521,-14.276938840841913 L-7.329966241204238,-5.45793468839026 " />
			<path d="M6.446495942478521,-14.276938840841913 L-6.767521046645726,-6.601033784043974 " />
			<path d="M5.475284570945014,-11.913773529603748 L-7.986835025733601,-2.961702390479209 " />
			<path d="M-7.986835025733603,-2.9617023904792097 L5.227181963390644,-10.637607447277148 " />
			<path d="M-4.266466296779926,6.620245832978492 L10.004898577479787,-0.2475328043371059 " />
			<path d="M4.167927484375316,-10.521683809512878 L5.360003350541648,-11.320801191029062 " />
			<path d="M2.920694175106132,-10.867805798837583 L5.657479342892396,-12.457579985299594 " />
			<path d="M7.569970544060988,7.462516754136884 L18.35053504001544,1.0127476137200464 " />
			<path d="M19.41740139071603,0.580449444797794 L7.569970544060986,7.462516754136885 " />
			<path d="M5.475284570945014,-6.693450861001599 L-7.329966241204236,2.2606953282157534 " />
			<path d="M-7.329966241204236,2.2606953282157543 L5.884050747920011,-5.415209728582185 " />
			<path d="M5.475284570945014,-6.693450861001599 L-7.738732418179232,0.9824541957963397 " />
			<path d="M2.920694175106132,-10.867805798837583 L5.678315007376456,-12.519769304641953 " />
			<path d="M2.595610480006548,-10.913066458990695 L5.7548638297402945,-12.748248658535775 " />
			<path d="M-0.8644232370942535,8.602707545313391 L13.596827061299177,1.27292447784016 " />
			<path d="M0.3828100721749297,8.948829534638097 L13.596827061299177,1.2729244778401583 " />
			<path d="M-4.266466296779926,-9.38149301833637 L7.991459931679799,-16.255646538414734 " />
			<path d="M5.884050747920011,-5.415209728582184 L-6.767521046645728,3.483840680778023 " />
			<path d="M-6.767521046645726,3.4838406807780222 L6.446495942478521,-4.192064376019917 " />
			<path d="M0.7078937672745134,-11.04739479748466 L6.6592964108585475,-14.59217077046526 " />
			<path d="M6.561947070737883,-14.447962345702805 L0.7078937672745127,-11.047394797484658 " />
			<path d="M0.3828100721749297,-11.04839950367564 L6.77277621912112,-14.760274060858466 " />
			<path d="M2.595610480006548,9.128418533285174 L16.134711164230378,1.4535181826782164 " />
			<path d="M13.92191075639876,2.549071341744086 L2.595610480006549,9.128418533285176 " />
			<path d="M6.512622658925521,8.120163195704748 L19.446385151770336,0.5676847361176574 " />
			<path d="M5.227181963390644,-10.637607447277148 L-8.06998894692945,-1.6512790753436555 " />
			<path d="M-8.069988946929449,-1.6512790753436566 L5.1440280421947975,-9.327184132141596 " />
			<path d="M7.152992799385611,-3.044947955892816 L-5.2225570574444475,5.682425062498073 " />
			<path d="M7.152992799385611,-3.044947955892816 L-6.061024189738635,4.630957100905123 " />
			<path d="M0.3828100721749297,8.948829534638097 L13.92191075639876,1.3181851379932716 " />
			<path d="M0.7078937672745134,8.994090194791209 L13.92191075639876,1.3181851379932699 " />
			<path d="M0.3828100721749297,-11.04839950367564 L7.120350950351199,-15.27515381675405 " />
			<path d="M5.227181963390644,-8.004926490384722 L-7.738732418179234,0.9824541957963415 " />
			<path d="M5.227181963390644,-8.004926490384722 L-7.986835025733603,-0.3290214335867834 " />
			<path d="M5.1440280421947975,-9.327184132141594 L-7.986835025733603,-0.3290214335867834 " />
			<path d="M-2.068597728146018,-10.541435012274059 L10.004898577479791,-17.71504451670217 " />
			<path d="M6.446495942478521,-4.192064376019916 L-6.061024189738635,4.630957100905123 " />
			<path d="M7.152992799385611,-15.32350781303951 L-6.767521046645726,-6.601033784043976 " />
			<path d="M2.595610480006548,-14.829522561834187 L11.656650701120313,-17.407430415974375 " />
			<path d="M2.595610480006548,9.128418533285174 L11.656650701120313,6.550510679144985 " />
			<path d="M13.92191075639876,1.3181851379932716 L0.7078937672745109,12.910546297634705 " />
			<path d="M13.92191075639876,-22.63975595712609 L0.7078937672745109,-11.047394797484658 " />
			<path d="M18.641202538228846,-17.374585548449787 L16.989450414588315,18.833007509241398 " />
			<path d="M18.641202538228846,-17.374585548449787 L16.989450414588315,-16.415097416350044 " />
			<path d="M16.989450414588315,-16.415097416350044 L16.989450414588315,18.833007509241398 " />
			<path d="M-16.989450414588315,-18.833007509241398 L16.989450414588315,18.833007509241398 " />
			<path d="M16.989450414588315,-16.415097416350044 L-16.98945041458831,-18.833007509241394 " />
			<path d="M-16.989450414588315,-18.833007509241398 L18.64120253822885,-17.37458554844979 " />

       </g>

       <!-- solid lines -->
       <g  stroke="rgb(0,0,0)" fill="none">
			<path d="M5.145075724970361,12.813302149278535 L16.627499612089075,5.371554998606245 " />
			<path d="M16.627499612089075,5.3715549986062445 L18.359092714094608,5.1373970924805965 " />
			<path d="M18.359092714094608,5.137397092480597 L5.145075724970361,12.813302149278536 " />
			<path d="M5.145075724970361,12.813302149278535 L3.413482622964829,13.047460055404184 " />
			<path d="M3.4134826229648296,13.047460055404182 L16.627499612089075,5.371554998606243 " />
			<path d="M27.903001431741664,-4.083865956641122 L28.24750973181526,-5.855623835294885 " />
			<path d="M28.247509731815263,-5.855623835294885 L28.36294360879883,-7.674945568665839 " />
			<path d="M27.335553787894415,-2.389979546011766 L27.903001431741664,-4.083865956641121 " />
			<path d="M-6.564808587448997,-12.652220324693662 L8.117181864747753,-21.2411609162222 " />
			<path d="M8.117181864747753,-21.2411609162222 L6.64920840167525,-20.3281253814916 " />
			<path d="M6.649208401675249,-20.3281253814916 L-6.564808587448997,-12.65222032469366 " />
			<path d="M-6.564808587448997,-12.652220324693662 L-5.096835124376494,-13.565255859424262 " />
			<path d="M-5.096835124376494,-13.565255859424262 L8.117181864747753,-21.2411609162222 " />
			<path d="M6.816894277267234,12.343624003441565 L18.359092714094608,5.137397092480595 " />
			<path d="M18.359092714094608,5.137397092480597 L20.03091126639148,4.667718946643629 " />
			<path d="M20.03091126639148,4.667718946643628 L6.8168942772672345,12.343624003441567 " />
			<path d="M6.816894277267234,12.343624003441565 L5.145075724970361,12.813302149278533 " />
			<path d="M28.247509731815263,-9.510695657834603 L27.903001431741668,-11.331483380038662 " />
			<path d="M8.400339371657555,11.646279595224776 L20.030911266391477,4.667718946643629 " />
			<path d="M20.03091126639148,4.667718946643628 L21.614356360781805,3.970374538426838 " />
			<path d="M21.6143563607818,3.9703745384268387 L8.400339371657555,11.646279595224778 " />
			<path d="M8.400339371657555,11.646279595224776 L6.816894277267233,12.343624003441567 " />
			<path d="M25.573842165737247,0.6500558480899379 L26.554699769672812,-0.802953400276462 " />
			<path d="M26.55469976967281,-0.8029534002764613 L27.335553787894415,-2.3899795460117663 " />
			<path d="M-0.109978375683768,12.796733525038428 L11.372445511434947,4.640233135597201 " />
			<path d="M11.372445511434947,4.640233135597203 L13.104038613440478,5.120828468240493 " />
			<path d="M13.104038613440478,5.120828468240491 L-0.10997837568376845,12.79673352503843 " />
			<path d="M-0.109978375683768,12.796733525038428 L-1.8415714776893,12.316138192395139 " />
			<path d="M-1.8415714776892997,12.31613819239514 L11.372445511434947,4.640233135597201 " />
			<path d="M-11.729988495409955,-0.08418566316281928 L1.8285367937878867,-5.939302997756697 " />
			<path d="M1.8285367937878885,-5.939302997756697 L-11.385480195336358,1.7366020590412417 " />
			<path d="M-11.385480195336358,1.7366020590412408 L-11.729988495409955,-0.08418566316281861 " />
			<path d="M-11.729988495409955,-0.08418566316281928 L1.4840284937142911,-7.7600907199607585 " />
			<path d="M1.4840284937142911,-7.760090719960758 L1.8285367937878876,-5.939302997756698 " />
			<path d="M-9.056320929331937,-10.244937169087361 L3.176838455856748,-16.467832977518903 " />
			<path d="M3.1768384558567444,-16.4678329775189 L-10.037178533267502,-8.79192792072096 " />
			<path d="M-10.037178533267502,-8.791927920720962 L-9.056320929331937,-10.244937169087361 " />
			<path d="M-9.056320929331937,-10.244937169087361 L4.157696059792309,-17.920842225885302 " />
			<path d="M4.157696059792309,-17.9208422258853 L3.1768384558567444,-16.4678329775189 " />
			<path d="M0.7078937672745134,12.910546297634701 L13.10403861344048,5.1208284682404885 " />
			<path d="M13.104038613440478,5.120828468240491 L13.92191075639876,5.234641240836765 " />
			<path d="M13.92191075639876,5.234641240836764 L0.7078937672745127,12.910546297634703 " />
			<path d="M0.7078937672745134,12.910546297634701 L-0.109978375683768,12.796733525038428 " />
			<path d="M27.903001431741664,-11.331483380038662 L27.335553787894415,-13.10612798777059 " />
			<path d="M-6.564808587448997,9.563876918686056 L5.321850956534156,0.5858789797226027 " />
			<path d="M5.321850956534156,0.5858789797226045 L6.64920840167525,1.8879718618881203 " />
			<path d="M6.649208401675249,1.8879718618881185 L-6.564808587448997,9.563876918686057 " />
			<path d="M-6.564808587448997,9.563876918686056 L-7.892166032590091,8.26178403652054 " />
			<path d="M-7.89216603259009,8.261784036520542 L5.321850956534156,0.5858789797226027 " />
			<path d="M28.36294360879883,-7.674945568665838 L28.247509731815263,-9.510695657834603 " />
			<path d="M20.03091126639148,-21.203410954714776 L18.359092714094608,-21.911019513392564 " />
			<path d="M-1.8415714776892997,12.31613819239514 L9.700626959138075,3.932624576919414 " />
			<path d="M9.700626959138074,3.932624576919416 L11.372445511434945,4.640233135597203 " />
			<path d="M-1.8415714776892997,12.31613819239514 L-3.513390029986172,11.608529633717353 " />
			<path d="M-3.513390029986172,11.608529633717353 L9.700626959138074,3.932624576919414 " />
			<path d="M16.627499612089075,-22.39161484603585 L15.809627469130794,-22.505427618632122 " />
			<path d="M15.809627469130795,-22.505427618632126 L13.92191075639876,-21.408869753375278 " />
			<path d="M24.4096872689954,1.9441534072381685 L25.573842165737247,0.6500558480899381 " />
			<path d="M-11.385480195336358,-5.5110153643563 L1.484028493714293,-11.415162542500475 " />
			<path d="M1.4840284937142911,-11.415162542500475 L-11.729988495409955,-3.7392574857025362 " />
			<path d="M-11.729988495409955,-3.7392574857025376 L-11.385480195336358,-5.5110153643563 " />
			<path d="M-11.385480195336358,-5.5110153643563 L1.8285367937878885,-13.18692042115424 " />
			<path d="M1.8285367937878885,-13.186920421154237 L1.484028493714292,-11.415162542500475 " />
			<path d="M13.92191075639876,-22.63975595712609 L13.104038613440478,-22.642341376401607 " />
			<path d="M-10.818032551489107,-7.2049017749856565 L1.8285367937878885,-13.186920421154241 " />
			<path d="M-11.385480195336358,-5.5110153643563 L-10.818032551489107,-7.204901774985656 " />
			<path d="M-10.818032551489107,-7.2049017749856565 L2.395984437635139,-14.880806831783595 " />
			<path d="M2.395984437635139,-14.880806831783595 L1.828536793787889,-13.18692042115424 " />
			<path d="M23.082329823854305,3.0573390036962387 L24.4096872689954,1.9441534072381692 " />
			<path d="M27.335553787894415,-13.10612798777059 L26.55469976967281,-14.80428396794195 " />
			<path d="M21.6143563607818,-20.280713295990356 L20.030911266391477,-21.203410954714776 " />
			<path d="M23.082329823854305,-19.15875823968348 L21.6143563607818,-20.280713295990356 " />
			<path d="M24.4096872689954,-17.856665357517965 L23.082329823854305,-19.15875823968348 " />
			<path d="M-11.385480195336358,1.7366020590412408 L2.395984437635141,-4.164658390024772 " />
			<path d="M2.395984437635139,-4.164658390024771 L-10.818032551489107,3.511246666773168 " />
			<path d="M-10.818032551489107,3.511246666773167 L-11.385480195336358,1.73660205904124 " />
			<path d="M1.8285367937878885,-5.939302997756697 L2.3959844376351382,-4.16465839002477 " />
			<path d="M18.641202538228846,17.873519377141655 L16.50453741259137,6.938622962507022 " />
			<path d="M18.641202538228846,5.697453176206373 L18.641202538228846,17.873519377141655 " />
			<path d="M18.641202538228846,17.873519377141655 L16.22079945747505,7.103443819501187 " />
			<path d="M18.641202538228846,17.873519377141655 L15.738286978022748,7.383731031485578 " />
			<path d="M18.641202538228846,17.873519377141655 L15.023793109221621,7.798774171288988 " />
			<path d="M18.641202538228846,17.873519377141655 L14.057300039807206,8.360201407608132 " />
			<path d="M18.641202538228846,17.873519377141655 L12.84547576916976,9.064139358845239 " />
			<path d="M18.641202538228846,17.873519377141655 L11.433883570099404,9.884120724685664 " />
			<path d="M18.641202538228846,17.873519377141655 L9.911547045575414,10.768432485171477 " />
			<path d="M18.641202538228846,17.873519377141655 L8.400339371657557,11.646279595224778 " />
			<path d="M18.641202538228846,17.873519377141655 L6.816894277267236,12.343624003441569 " />
			<path d="M18.641202538228846,17.873519377141655 L5.145075724970361,12.813302149278536 " />
			<path d="M18.641202538228846,17.873519377141655 L3.41348262296483,13.047460055404184 " />
			<path d="M18.641202538228846,17.873519377141655 L2.595610480006549,13.044874636128668 " />
			<path d="M2.595610480006548,13.044874636128666 L3.413482622964829,13.047460055404182 " />
			<path d="M2.595610480006548,11.813988432377855 L2.595610480006548,13.044874636128668 " />
			<path d="M2.595610480006548,13.044874636128666 L2.1441999617445395,12.076208791461013 " />
			<path d="M2.595610480006548,13.044874636128666 L0.7078937672745131,12.910546297634703 " />
			<path d="M18.641202538228846,17.873519377141655 L0.7078937672745127,12.910546297634703 " />
			<path d="M-15.337698290947785,15.4556092842503 L0.7078937672745127,12.910546297634701 " />
			<path d="M18.641202538228846,17.873519377141655 L-15.337698290947777,15.455609284250304 " />
			<path d="M-11.729988495409955,-0.08418566316281928 L-15.337698290947785,15.455609284250302 " />
			<path d="M-15.337698290947785,15.4556092842503 L-11.84542237239352,-1.919935752331586 " />
			<path d="M-11.84542237239352,-1.9199357523315845 L-11.729988495409955,-0.08418566316281928 " />
			<path d="M-11.385480195336358,1.7366020590412408 L-15.337698290947783,15.455609284250302 " />
			<path d="M-10.818032551489107,3.511246666773167 L-15.337698290947783,15.455609284250304 " />
			<path d="M-10.037178533267502,5.209402646944528 L-15.337698290947785,15.4556092842503 " />
			<path d="M-10.818032551489107,3.511246666773167 L-10.037178533267502,5.209402646944529 " />
			<path d="M-9.056320929331937,6.802005904673855 L-15.337698290947785,15.455609284250304 " />
			<path d="M-10.037178533267502,5.209402646944528 L-9.056320929331937,6.802005904673855 " />
			<path d="M-7.89216603259009,8.261784036520542 L-15.337698290947785,15.455609284250304 " />
			<path d="M-9.056320929331937,6.802005904673855 L-7.89216603259009,8.261784036520542 " />
			<path d="M-6.564808587448997,9.563876918686056 L-15.337698290947783,15.455609284250302 " />
			<path d="M-5.096835124376494,10.685831974992933 L-15.337698290947785,15.455609284250302 " />
			<path d="M-6.564808587448997,9.563876918686056 L-5.096835124376494,10.685831974992933 " />
			<path d="M-3.513390029986172,11.608529633717353 L-15.337698290947785,15.455609284250302 " />
			<path d="M-5.096835124376494,10.685831974992933 L-3.513390029986172,11.608529633717353 " />
			<path d="M-1.8415714776892997,12.31613819239514 L-15.337698290947785,15.455609284250302 " />
			<path d="M-0.109978375683768,12.796733525038428 L-15.337698290947783,15.4556092842503 " />
			<path d="M-15.337698290947785,-19.79249564134114 L-1.5298777318896075,-15.637269714780096 " />
			<path d="M-1.7758415055955235,-15.49439154412751 L-15.337698290947785,-19.792495641341137 " />
			<path d="M-15.337698290947785,-19.79249564134114 L-11.845422372393521,-1.9199357523315896 " />
			<path d="M-15.337698290947785,15.4556092842503 L-15.337698290947785,-19.79249564134114 " />
			<path d="M-15.337698290947785,-19.79249564134114 L3.3358099446603227,-18.46370445237493 " />
			<path d="M-2.598956664919899,-15.016251261805703 L-15.337698290947785,-19.79249564134114 " />
			<path d="M-3.725551624877853,-14.361822259843487 L-15.337698290947781,-19.792495641341137 " />
			<path d="M-5.096835124376494,-13.565255859424262 L-15.337698290947785,-19.79249564134114 " />
			<path d="M-6.564808587448997,-12.652220324693662 L-15.337698290947785,-19.792495641341137 " />
			<path d="M-7.89216603259009,-11.539034728235592 L-15.337698290947783,-19.79249564134114 " />
			<path d="M-6.564808587448997,-12.652220324693662 L-7.892166032590091,-11.539034728235592 " />
			<path d="M-9.056320929331937,-10.244937169087361 L-15.337698290947781,-19.792495641341137 " />
			<path d="M-7.89216603259009,-11.539034728235592 L-9.056320929331937,-10.244937169087361 " />
			<path d="M-10.037178533267502,-8.791927920720962 L-15.337698290947783,-19.79249564134114 " />
			<path d="M-10.818032551489107,-7.2049017749856565 L-15.337698290947783,-19.792495641341137 " />
			<path d="M-10.037178533267502,-8.791927920720962 L-10.818032551489107,-7.204901774985657 " />
			<path d="M-11.385480195336358,-5.5110153643563 L-15.337698290947783,-19.792495641341137 " />
			<path d="M-11.729988495409955,-3.7392574857025376 L-15.337698290947785,-19.792495641341134 " />
			<path d="M-11.729988495409955,-3.7392574857025376 L-11.84542237239352,-1.9199357523315843 " />
			<path d="M11.290339273014665,0.47842386120757896 L11.290339273014665,-1.5899548306126992 " />
			<path d="M11.290339273014665,-1.5899548306126994 L11.37349319421051,-0.2676971888558277 " />
			<path d="M11.37349319421051,-0.26769718885582794 L11.32521083691885,0.4931848693177101 " />
			<path d="M11.16248998927117,0.42430571728385313 L11.290339273014665,-1.5899548306127 " />
			<path d="M11.042236665460294,0.3569524233913022 L11.042236665460294,-2.9014304599958236 " />
			<path d="M11.042236665460294,-2.9014304599958236 L11.290339273014665,-1.5899548306126994 " />
			<path d="M10.842805783499108,0.24073860313808204 L11.042236665460292,-2.901430459995823 " />
			<path d="M10.633470488485298,0.11875321096534819 L10.633470488485298,-4.179671592415239 " />
			<path d="M10.633470488485298,-4.179671592415239 L11.042236665460292,-2.901430459995823 " />
			<path d="M10.370383998614276,-0.03455447009315282 L10.633470488485298,-4.179671592415239 " />
			<path d="M10.071025293926787,-0.2089989611151566 L10.071025293926787,-5.4028169449775065 " />
			<path d="M10.071025293926787,-5.4028169449775065 L10.633470488485298,-4.179671592415239 " />
			<path d="M9.755905117302337,-0.43783742997310604 L10.071025293926787,-5.402816944977505 " />
			<path d="M9.364528437019697,-0.7369649354536438 L9.364528437019697,-6.549933365104606 " />
			<path d="M9.364528437019697,-6.549933365104606 L10.071025293926787,-5.4028169449775065 " />
			<path d="M9.012655317351891,-1.0059000402633478 L9.364528437019697,-6.549933365104606 " />
			<path d="M8.52606130472551,-1.4690943478773937 L8.52606130472551,-7.601401326697556 " />
			<path d="M8.52606130472551,-7.601401326697556 L9.364528437019697,-6.549933365104606 " />
			<path d="M8.159660996703561,-1.8284930925473857 L8.52606130472551,-7.601401326697556 " />
			<path d="M7.569970544060988,-2.522042856412292 L7.569970544060988,-8.539222097177976 " />
			<path d="M7.569970544060988,-8.539222097177976 L8.52606130472551,-7.601401326697556 " />
			<path d="M7.2162239596219635,-2.965653805171657 L7.569970544060988,-8.53922209717798 " />
			<path d="M6.512622658925521,-4.084696534954746 L6.512622658925521,-9.347348516660318 " />
			<path d="M6.512622658925521,-9.347348516660318 L7.569970544060988,-8.539222097177976 " />
			<path d="M6.21708746265617,-4.690957279093507 L6.512622658925522,-9.347348516660317 " />
			<path d="M5.37210197542708,-7.238876242589386 L5.37210197542708,-10.01196106013271 " />
			<path d="M5.37210197542708,-10.01196106013271 L6.512622658925522,-9.347348516660318 " />
			<path d="M5.2403129503413055,-7.9355158157235675 L5.37210197542708,-10.011961060132714 " />
			<path d="M5.192310399486457,-10.088066190315136 L5.37210197542708,-10.011961060132712 " />
			<path d="M-9.056320929331937,6.802005904673855 L5.321850956534158,0.5858789797226027 " />
			<path d="M-9.056320929331937,6.802005904673855 L4.157696059792309,-0.8738991521240838 " />
			<path d="M4.157696059792309,-0.8738991521240829 L5.321850956534156,0.5858789797226027 " />
			<path d="M18.359092714094608,-21.911019513392564 L16.627499612089075,-22.391614846035854 " />
			<path d="M-11.729988495409955,-3.7392574857025376 L1.3685946167307268,-9.595840809129522 " />
			<path d="M1.3685946167307268,-9.595840809129523 L-11.84542237239352,-1.9199357523315843 " />
			<path d="M1.4840284937142911,-11.415162542500475 L1.3685946167307264,-9.595840809129522 " />
			<path d="M-7.89216603259009,-11.539034728235592 L4.157696059792309,-17.920842225885302 " />
			<path d="M-7.89216603259009,-11.539034728235592 L5.321850956534156,-19.21493978503353 " />
			<path d="M5.321850956534156,-19.21493978503353 L4.157696059792309,-17.9208422258853 " />
			<path d="M-5.096835124376494,10.685831974992933 L6.649208401675254,1.887971861888115 " />
			<path d="M6.649208401675249,1.8879718618881185 L8.117181864747753,3.009926918194996 " />
			<path d="M8.117181864747753,3.0099269181949957 L-5.0968351243764936,10.685831974992935 " />
			<path d="M-11.84542237239352,-1.9199357523315845 L1.484028493714293,-7.760090719960757 " />
			<path d="M1.3685946167307268,-9.595840809129523 L1.4840284937142916,-7.760090719960758 " />
			<path d="M26.55469976967281,-14.80428396794195 L25.573842165737243,-16.39688722567128 " />
			<path d="M13.104038613440478,-22.642341376401603 L11.372445511434947,-22.408183470275954 " />
			<path d="M3.4134826229648296,13.047460055404182 L15.809627469130797,5.368969579330727 " />
			<path d="M15.809627469130795,5.368969579330729 L16.62749961208908,5.371554998606245 " />
			<path d="M2.595610480006548,13.044874636128666 L15.809627469130795,5.368969579330727 " />
			<path d="M21.6143563607818,3.9703745384268387 L23.082329823854305,3.0573390036962387 " />
			<path d="M25.573842165737247,-16.39688722567128 L24.4096872689954,-17.856665357517965 " />
			<path d="M11.372445511434947,-22.408183470275958 L9.700626959138075,-21.93850532443899 " />
			<path d="M-7.89216603259009,-11.539034728235592 L6.6492084016752475,-20.3281253814916 " />
			<path d="M6.649208401675249,-20.3281253814916 L5.321850956534155,-19.21493978503353 " />
			<path d="M-3.513390029986172,11.608529633717353 L8.11718186474775,3.0099269181949957 " />
			<path d="M8.117181864747753,3.0099269181949957 L9.700626959138075,3.932624576919415 " />
			<path d="M-10.037178533267502,-8.791927920720962 L2.3959844376351374,-14.880806831783595 " />
			<path d="M3.1768384558567444,-16.4678329775189 L2.395984437635139,-14.880806831783595 " />
			<path d="M-10.818032551489107,3.511246666773167 L3.1768384558567444,-2.466502409853409 " />
			<path d="M3.1768384558567444,-2.46650240985341 L-10.037178533267502,5.209402646944529 " />
			<path d="M2.395984437635139,-4.164658390024771 L3.176838455856745,-2.4665024098534096 " />
			<path d="M-10.037178533267502,5.209402646944528 L4.157696059792311,-0.8738991521240838 " />
			<path d="M3.1768384558567444,-2.46650240985341 L4.157696059792309,-0.8738991521240826 " />
			<path d="M9.700626959138074,-21.93850532443899 L8.117181864747751,-21.2411609162222 " />
			<path d="M13.92191075639876,5.234641240836764 L13.596827061299175,1.2729244778401583 " />
			<path d="M13.596827061299177,1.27292447784016 L13.921910756398761,1.3181851379932719 " />
			<path d="M13.92191075639876,1.3181851379932716 L13.92191075639876,5.2346412408367655 " />
			<path d="M13.104038613440478,5.120828468240491 L13.596827061299177,1.2729244778401587 " />
			<path d="M13.104038613440478,5.120828468240491 L12.349593752029993,0.9268024885154516 " />
			<path d="M12.349593752029993,0.9268024885154542 L13.596827061299175,1.2729244778401612 " />
			<path d="M11.372445511434947,4.640233135597203 L12.349593752029993,0.9268024885154538 " />
			<path d="M11.372445511434947,4.640233135597203 L11.145419260978228,0.4170797391352883 " />
			<path d="M11.145419260978228,0.4170797391352874 L12.349593752029993,0.9268024885154523 " />
			<path d="M9.700626959138074,3.932624576919416 L11.145419260978228,0.41707973913528873 " />
			<path d="M9.700626959138074,3.932624576919416 L10.004898577479786,-0.247532804337105 " />
			<path d="M10.004898577479787,-0.247532804337105 L11.14541926097823,0.41707973913528795 " />
			<path d="M8.117181864747753,3.0099269181949957 L10.004898577479787,-0.24753280433710545 " />
			<path d="M8.117181864747753,3.0099269181949957 L8.94755069234432,-1.0556592238194469 " />
			<path d="M8.94755069234432,-1.055659223819446 L10.004898577479787,-0.2475328043371049 " />
			<path d="M6.649208401675249,1.8879718618881185 L8.947550692344318,-1.0556592238194469 " />
			<path d="M6.649208401675249,1.8879718618881185 L7.991459931679799,-1.9934799942998676 " />
			<path d="M7.991459931679799,-1.9934799942998662 L8.94755069234432,-1.0556592238194455 " />
			<path d="M5.321850956534156,0.5858789797226045 L7.9914599316798,-1.9934799942998653 " />
			<path d="M5.321850956534156,0.5858789797226045 L7.152992799385611,-3.0449479558928156 " />
			<path d="M7.152992799385611,-3.044947955892816 L7.9914599316798,-1.993479994299866 " />
			<path d="M4.157696059792309,-0.8738991521240829 L7.152992799385611,-3.0449479558928174 " />
			<path d="M4.157696059792309,-0.8738991521240829 L6.446495942478521,-4.192064376019917 " />
			<path d="M6.446495942478521,-4.192064376019916 L7.152992799385611,-3.044947955892816 " />
			<path d="M3.1768384558567444,-2.46650240985341 L6.446495942478521,-4.192064376019917 " />
			<path d="M3.1768384558567444,-2.46650240985341 L5.884050747920011,-5.415209728582184 " />
			<path d="M5.884050747920011,-5.415209728582184 L6.446495942478521,-4.192064376019916 " />
			<path d="M2.395984437635139,-4.164658390024771 L5.884050747920011,-5.415209728582184 " />
			<path d="M2.395984437635139,-4.164658390024771 L5.475284570945015,-6.693450861001598 " />
			<path d="M5.475284570945014,-6.693450861001599 L5.88405074792001,-5.415209728582184 " />
			<path d="M13.596827061299177,-18.724304560473577 L13.921910756398761,-22.63975595712609 " />
			<path d="M13.92191075639876,-22.63975595712609 L13.92191075639876,-18.723299854282597 " />
			<path d="M13.92191075639876,-18.723299854282597 L13.596827061299175,-18.724304560473577 " />
			<path d="M13.596827061299177,-18.724304560473577 L13.104038613440478,-22.642341376401607 " />
			<path d="M12.349593752029993,-18.555686724201564 L13.104038613440478,-22.64234137640161 " />
			<path d="M13.596827061299177,-18.724304560473577 L12.349593752029994,-18.555686724201564 " />
			<path d="M12.349593752029993,-18.555686724201564 L11.372445511434947,-22.40818347027596 " />
			<path d="M11.145419260978228,-18.217340069071994 L11.372445511434947,-22.408183470275958 " />
			<path d="M12.349593752029993,-18.555686724201564 L11.145419260978228,-18.217340069071998 " />
			<path d="M9.700626959138074,-21.93850532443899 L11.145419260978228,-18.217340069071994 " />
			<path d="M11.145419260978228,-18.217340069071994 L10.004898577479787,-17.715044516702168 " />
			<path d="M10.004898577479787,-17.71504451670217 L9.700626959138075,-21.938505324438992 " />
			<path d="M8.117181864747753,-21.2411609162222 L10.004898577479787,-17.71504451670217 " />
			<path d="M10.004898577479787,-17.71504451670217 L8.94755069234432,-17.05739807513431 " />
			<path d="M8.94755069234432,-17.05739807513431 L8.117181864747753,-21.2411609162222 " />
			<path d="M6.649208401675249,-20.3281253814916 L8.94755069234432,-17.057398075134305 " />
			<path d="M8.94755069234432,-17.05739807513431 L7.9914599316798,-16.255646538414734 " />
			<path d="M7.991459931679799,-16.25564653841473 L6.649208401675249,-20.328125381491596 " />
			<path d="M5.321850956534156,-19.21493978503353 L7.9914599316798,-16.25564653841473 " />
			<path d="M7.991459931679799,-16.25564653841473 L7.152992799385611,-15.323507813039509 " />
			<path d="M7.152992799385611,-15.32350781303951 L5.321850956534156,-19.21493978503353 " />
			<path d="M4.157696059792309,-17.9208422258853 L7.152992799385611,-15.323507813039509 " />
			<path d="M7.152992799385611,-15.32350781303951 L6.446495942478521,-14.276938840841913 " />
			<path d="M6.446495942478521,-14.276938840841913 L4.157696059792309,-17.9208422258853 " />
			<path d="M3.1768384558567444,-16.4678329775189 L6.446495942478521,-14.276938840841913 " />
			<path d="M6.446495942478521,-14.276938840841913 L5.884050747920011,-13.133839745188197 " />
			<path d="M5.884050747920011,-13.133839745188197 L3.1768384558567444,-16.4678329775189 " />
			<path d="M2.395984437635139,-14.880806831783595 L5.884050747920011,-13.133839745188197 " />
			<path d="M5.884050747920011,-13.133839745188197 L5.475284570945015,-11.913773529603748 " />
			<path d="M5.475284570945014,-11.913773529603748 L2.3959844376351382,-14.880806831783595 " />
			<path d="M1.8285367937878885,-13.186920421154237 L5.475284570945014,-11.913773529603748 " />
			<path d="M5.475284570945014,-11.913773529603748 L5.227181963390643,-10.637607447277148 " />
			<path d="M5.227181963390644,-10.637607447277148 L1.828536793787888,-13.18692042115424 " />
			<path d="M1.4840284937142911,-11.415162542500475 L5.227181963390643,-10.637607447277148 " />
			<path d="M5.227181963390644,-10.637607447277148 L5.144028042194797,-9.327184132141594 " />
			<path d="M5.1440280421947975,-9.327184132141594 L1.4840284937142925,-11.415162542500475 " />
			<path d="M1.8285367937878885,-5.939302997756697 L5.475284570945015,-6.693450861001599 " />
			<path d="M1.8285367937878885,-5.939302997756697 L5.227181963390644,-8.004926490384722 " />
			<path d="M5.227181963390644,-8.004926490384722 L5.475284570945015,-6.693450861001598 " />
			<path d="M1.4840284937142911,-7.760090719960758 L5.227181963390643,-8.004926490384724 " />
			<path d="M1.4840284937142911,-7.760090719960758 L5.144028042194796,-9.327184132141594 " />
			<path d="M5.1440280421947975,-9.327184132141594 L5.2271819633906444,-8.004926490384722 " />
			<path d="M1.3685946167307268,-9.595840809129523 L5.144028042194797,-9.327184132141596 " />
			<path d="M24.587510183334757,-7.943602245653766 L28.362943608798826,-7.674945568665838 " />
			<path d="M28.247509731815263,-5.855623835294885 L24.587510183334757,-7.943602245653767 " />
			<path d="M24.504356262138913,-6.633178930518213 L28.247509731815263,-5.855623835294884 " />
			<path d="M27.903001431741664,-4.083865956641122 L24.50435626213891,-6.633178930518213 " />
			<path d="M24.587510183334757,-7.943602245653766 L28.247509731815263,-9.510695657834603 " />
			<path d="M24.25625365458454,-5.357012848191612 L27.903001431741668,-4.083865956641122 " />
			<path d="M27.335553787894415,-2.389979546011766 L24.25625365458454,-5.357012848191611 " />
			<path d="M24.504356262138913,-9.265859887410638 L28.247509731815263,-9.510695657834605 " />
			<path d="M24.587510183334757,-7.943602245653766 L24.50435626213891,-9.265859887410638 " />
			<path d="M23.847487477609544,-4.136946632607163 L27.335553787894415,-2.3899795460117668 " />
			<path d="M26.55469976967281,-0.8029534002764613 L23.84748747760954,-4.136946632607163 " />
			<path d="M24.504356262138913,-9.265859887410638 L27.903001431741668,-11.331483380038664 " />
			<path d="M23.285042283051034,-2.9938475369534476 L26.55469976967281,-0.8029534002764609 " />
			<path d="M25.573842165737247,0.6500558480899379 L23.285042283051034,-2.993847536953449 " />
			<path d="M24.25625365458454,-10.577335516793761 L27.903001431741668,-11.331483380038662 " />
			<path d="M24.504356262138913,-9.265859887410638 L24.25625365458454,-10.577335516793763 " />
			<path d="M24.25625365458454,-10.577335516793761 L27.335553787894415,-13.106127987770588 " />
			<path d="M24.504356262138913,-6.633178930518213 L24.58751018333476,-7.943602245653766 " />
			<path d="M22.578545426143943,-1.94727856475585 L25.573842165737247,0.6500558480899388 " />
			<path d="M24.4096872689954,1.9441534072381685 L22.578545426143943,-1.9472785647558508 " />
			<path d="M24.25625365458454,-5.357012848191612 L24.504356262138913,-6.633178930518213 " />
			<path d="M23.847487477609544,-4.136946632607163 L24.25625365458454,-5.357012848191612 " />
			<path d="M23.285042283051034,-2.9938475369534476 L23.847487477609544,-4.136946632607162 " />
			<path d="M21.740078293849756,-1.0151398393806286 L24.4096872689954,1.944153407238169 " />
			<path d="M23.082329823854305,3.0573390036962387 L21.740078293849756,-1.0151398393806286 " />
			<path d="M22.578545426143943,-1.94727856475585 L23.285042283051034,-2.9938475369534476 " />
			<path d="M21.740078293849756,-1.0151398393806286 L22.578545426143943,-1.9472785647558506 " />
			<path d="M20.783987533185233,-0.21338830266105369 L23.0823298238543,3.057339003696239 " />
			<path d="M21.6143563607818,3.9703745384268387 L20.783987533185233,-0.21338830266105369 " />
			<path d="M20.783987533185233,-0.21338830266105369 L21.740078293849752,-1.0151398393806284 " />
			<path d="M19.72663964804977,0.444258138906811 L21.614356360781805,3.9703745384268405 " />
			<path d="M20.03091126639148,4.667718946643628 L19.72663964804977,0.4442581389068083 " />
			<path d="M19.72663964804977,0.444258138906811 L20.783987533185236,-0.21338830266105202 " />
			<path d="M20.03091126639148,4.667718946643628 L18.58611896455133,0.9465536912766352 " />
			<path d="M18.586118964551325,0.9465536912766357 L19.726639648049765,0.4442581389068092 " />
			<path d="M18.359092714094608,5.137397092480597 L18.586118964551325,0.9465536912766357 " />
			<path d="M18.359092714094608,5.137397092480597 L17.381944473499562,1.2849003464062014 " />
			<path d="M17.381944473499562,1.2849003464062019 L18.58611896455133,0.946553691276636 " />
			<path d="M16.627499612089075,5.3715549986062445 L17.38194447349956,1.2849003464062 " />
			<path d="M16.627499612089075,5.3715549986062445 L16.134711164230378,1.4535181826782142 " />
			<path d="M16.134711164230378,1.4535181826782164 L17.381944473499562,1.2849003464062032 " />
			<path d="M15.809627469130795,5.368969579330729 L16.134711164230378,1.4535181826782146 " />
			<path d="M15.809627469130795,5.368969579330729 L15.809627469130795,1.4525134764872356 " />
			<path d="M15.809627469130795,1.452513476487237 L16.134711164230378,1.4535181826782162 " />
			<path d="M23.847487477609544,-11.855576649213177 L27.335553787894415,-13.10612798777059 " />
			<path d="M24.25625365458454,-10.577335516793761 L23.847487477609544,-11.855576649213177 " />
			<path d="M23.847487477609544,-11.855576649213177 L26.55469976967281,-14.80428396794195 " />
			<path d="M23.285042283051034,-13.078722001775445 L26.554699769672812,-14.804283967941952 " />
			<path d="M23.847487477609544,-11.855576649213177 L23.285042283051034,-13.078722001775445 " />
			<path d="M23.285042283051034,-13.078722001775445 L25.573842165737247,-16.39688722567128 " />
			<path d="M22.578545426143943,-14.225838421902544 L25.573842165737247,-16.39688722567128 " />
			<path d="M23.285042283051034,-13.078722001775445 L22.578545426143943,-14.225838421902544 " />
			<path d="M22.578545426143943,-14.225838421902544 L24.4096872689954,-17.856665357517965 " />
			<path d="M21.740078293849756,-15.277306383495494 L24.4096872689954,-17.856665357517965 " />
			<path d="M22.578545426143943,-14.225838421902544 L21.740078293849756,-15.277306383495494 " />
			<path d="M21.740078293849756,-15.277306383495494 L23.082329823854305,-19.15875823968348 " />
			<path d="M20.783987533185233,-16.215127153975914 L23.0823298238543,-19.15875823968348 " />
			<path d="M21.740078293849756,-15.277306383495494 L20.783987533185236,-16.215127153975914 " />
			<path d="M20.783987533185233,-16.215127153975914 L21.6143563607818,-20.280713295990356 " />
			<path d="M19.72663964804977,-17.023253573458256 L21.614356360781805,-20.280713295990356 " />
			<path d="M20.783987533185233,-16.215127153975914 L19.726639648049765,-17.023253573458256 " />
			<path d="M19.72663964804977,-17.023253573458256 L20.03091126639148,-21.203410954714776 " />
			<path d="M18.586118964551325,-17.68786611693065 L20.030911266391477,-21.203410954714776 " />
			<path d="M19.72663964804977,-17.023253573458256 L18.58611896455133,-17.68786611693065 " />
			<path d="M18.586118964551325,-17.68786611693065 L18.359092714094608,-21.911019513392564 " />
			<path d="M17.381944473499562,-18.197588866310817 L18.359092714094608,-21.911019513392567 " />
			<path d="M18.586118964551325,-17.68786611693065 L17.38194447349956,-18.197588866310813 " />
			<path d="M17.381944473499562,-18.197588866310817 L16.62749961208908,-22.391614846035857 " />
			<path d="M16.134711164230378,-18.54371085563552 L16.627499612089075,-22.391614846035854 " />
			<path d="M17.381944473499562,-18.197588866310817 L16.134711164230378,-18.543710855635524 " />
			<path d="M15.809627469130795,-18.588971515788632 L16.62749961208908,-22.391614846035854 " />
			<path d="M16.134711164230378,-18.54371085563552 L15.809627469130794,-18.588971515788632 " />
			<path d="M15.809627469130795,-18.588971515788632 L15.809627469130795,-22.505427618632126 " />
			<path d="M11.905799725568079,0.7389460665370394 L24.25625365458454,-5.357012848191611 " />
			<path d="M24.25625365458454,-5.357012848191612 L13.08661080691006,1.131333434975506 " />
			<path d="M11.852288357677336,0.7162948961567912 L24.504356262138913,-6.633178930518214 " />
			<path d="M11.37349319421051,-0.26769718885582794 L24.504356262138913,-6.633178930518214 " />
			<path d="M11.37349319421051,-0.26769718885582794 L24.587510183334757,-7.943602245653767 " />
			<path d="M13.287305000544883,1.1870284465106797 L23.847487477609548,-4.136946632607163 " />
			<path d="M23.847487477609544,-4.136946632607163 L13.92191075639876,1.6287326917560394 " />
			<path d="M16.171729062140606,1.4485136035007908 L22.578545426143943,-1.94727856475585 " />
			<path d="M22.578545426143943,-1.94727856475585 L16.902876188724353,1.349667264516074 " />
			<path d="M13.92191075639876,2.4451123714564766 L23.285042283051034,-2.9938475369534485 " />
			<path d="M11.290339273014665,-1.5899548306126994 L24.58751018333476,-7.943602245653768 " />
			<path d="M11.290339273014665,-1.5899548306126994 L24.504356262138913,-9.265859887410638 " />
			<path d="M8.144106492077242,-16.38365176491493 L11.145419260978228,-18.217340069071998 " />
			<path d="M12.349593752029993,-18.555686724201564 L7.555232646347718,-15.77068495785671 " />
			<path d="M8.494354304970722,-16.677359991971578 L11.145419260978228,-18.217340069071998 " />
			<path d="M13.92191075639876,1.840928919720879 L23.285042283051038,-2.9938475369534494 " />
			<path d="M17.665419720265113,1.205250011452354 L21.740078293849756,-1.0151398393806286 " />
			<path d="M21.740078293849756,-1.0151398393806286 L18.15403842020445,1.0679588597241407 " />
			<path d="M10.633470488485298,-4.179671592415239 L24.25625365458454,-10.577335516793763 " />
			<path d="M24.25625365458454,-10.577335516793761 L11.042236665460294,-2.9014304599958223 " />
			<path d="M10.633470488485298,-4.179671592415239 L23.847487477609544,-11.855576649213177 " />
			<path d="M11.042236665460294,-2.9014304599958236 L24.504356262138913,-9.265859887410638 " />
			<path d="M9.364528437019697,-6.549933365104606 L23.285042283051034,-13.078722001775446 " />
			<path d="M23.285042283051034,-13.078722001775445 L10.071025293926787,-5.402816944977506 " />
			<path d="M9.364528437019697,-6.549933365104606 L22.578545426143943,-14.225838421902544 " />
			<path d="M6.512622658925521,-9.347348516660318 L18.586118964551325,-17.68786611693065 " />
			<path d="M19.72663964804977,-17.023253573458256 L6.5126226589255225,-9.347348516660317 " />
			<path d="M5.37210197542708,-10.01196106013271 L18.586118964551325,-17.68786611693065 " />
			<path d="M5.37210197542708,-10.01196106013271 L17.381944473499562,-18.197588866310813 " />
			<path d="M5.336629363222018,-11.200572346519609 L17.381944473499562,-18.197588866310817 " />
			<path d="M7.569970544060988,-8.539222097177976 L19.72663964804977,-17.023253573458256 " />
			<path d="M20.783987533185233,-16.215127153975914 L7.569970544060986,-8.539222097177975 " />
			<path d="M5.360003350541648,-11.320801191029062 L16.13471116423038,-18.543710855635524 " />
			<path d="M5.657479342892396,-12.457579985299594 L16.134711164230378,-18.543710855635524 " />
			<path d="M18.35053504001544,1.0127476137200464 L21.740078293849756,-1.0151398393806312 " />
			<path d="M20.783987533185233,-0.21338830266105369 L19.41740139071603,0.580449444797794 " />
			<path d="M5.678315007376456,-12.519769304641953 L15.809627469130795,-18.588971515788636 " />
			<path d="M5.7548638297402945,-12.748248658535775 L15.809627469130795,-18.588971515788636 " />
			<path d="M10.071025293926787,-5.4028169449775065 L23.847487477609548,-11.855576649213178 " />
			<path d="M8.52606130472551,-7.601401326697556 L22.578545426143943,-14.225838421902544 " />
			<path d="M8.52606130472551,-7.601401326697556 L21.740078293849756,-15.277306383495496 " />
			<path d="M6.6592964108585475,-14.59217077046526 L13.596827061299175,-18.724304560473577 " />
			<path d="M13.92191075639876,-18.723299854282597 L6.561947070737883,-14.447962345702805 " />
			<path d="M6.77277621912112,-14.760274060858466 L13.596827061299177,-18.724304560473577 " />
			<path d="M15.809627469130795,1.452513476487237 L13.92191075639876,2.549071341744086 " />
			<path d="M19.446385151770336,0.5676847361176574 L20.783987533185233,-0.21338830266105369 " />
			<path d="M7.120350950351199,-15.27515381675405 L12.349593752029994,-18.555686724201564 " />
			<path d="M8.52606130472551,-7.601401326697556 L20.783987533185233,-16.215127153975917 " />
			<path d="M11.656650701120313,-17.407430415974375 L15.809627469130795,-18.588971515788632 " />
			<path d="M11.656650701120313,6.550510679144985 L15.809627469130795,5.368969579330728 " />
			<path d="M16.989450414588315,18.833007509241398 L18.641202538228846,17.873519377141655 " />
			<path d="M-16.989450414588315,-18.833007509241398 L-16.989450414588315,16.415097416350044 " />
			<path d="M-16.989450414588315,16.415097416350044 L16.98945041458831,18.833007509241394 " />
			<path d="M-16.989450414588315,-18.833007509241398 L-15.337698290947785,15.4556092842503 " />
			<path d="M-15.337698290947785,15.4556092842503 L-16.989450414588315,16.415097416350044 " />
			<path d="M-16.989450414588315,-18.833007509241398 L-15.337698290947785,-19.79249564134114 " />
			<path d="M16.989450414588315,18.833007509241398 L-15.337698290947781,15.455609284250304 " />

       </g>
    </g>
    <g transform="translate(20,210.0)" stroke="rgb(0,0,255)">
        <line x1="30" y1="-30" x2="75" y2="-33" stroke-width="3" stroke="#000000" />
         <text x="80" y="-30" style="stroke:#000000">X </text>

        <line x1="30" y1="-30" x2="30" y2="-75" stroke-width="3" stroke="#000000" />
         <text x="25" y="-85" style="stroke:#000000">Y </text>

        <line x1="30" y1="-30" x2="58" y2="-15" stroke-width="3" stroke="#000000" />
         <text x="65" y="-5" style="stroke:#000000">Z </text>
        <!--
            <line x1="0" y1="0" x2="4.339927326381293" y2="0" stroke-width="3" />
            <text x="0" y="20" style="stroke:#000000">1  mm </text>
        -->
    </g>
</svg>
