<?xml version="1.0" encoding="UTF-8" standalone="no"?>
<svg
   xmlns:svg="http://www.w3.org/2000/svg"
   xmlns="http://www.w3.org/2000/svg"
   width="800.0"
   height="240.0"

>
    <g transform="scale(4.337075720542883, -4.337075720542883)   translate(63.929347279108676,-23.924153655561277)" stroke-width="0.23057010401350048"  fill="none">
       <!-- hidden lines -->
       <g  stroke="rgb(160,160,160)" fill="none" stroke-dasharray="0.23057010401350048,0.23057010401350048" >
			<path d="M-17.81532647640858,-18.353263443191526 L16.163574352768045,-15.935353350300176 " />
			<path d="M16.16357435276805,-15.935353350300172 L17.815326476408583,-16.894841482399915 " />
			<path d="M2.492096632859379,-17.985229670077775 L17.815326476408572,-16.89484148239992 " />
			<path d="M17.81532647640858,-16.894841482399915 L17.81532647640858,6.18882802603116 " />
			<path d="M-6.356936145815824,-12.844905156380802 L-6.180697867953289,-12.945332318428365 L-6.002808875870901,-13.042822649437921 L-5.823311079336791,-13.137353181168889 L-5.642246767145475,-13.228901642694778 L-5.459658597154819,-13.31744646565011 L-5.275589586236067,-13.402966789311831 L-5.0900831001392675,-13.485442465513973 L-4.90318284327653,-13.564854063394487 L-4.714932848425466,-13.64118287397304 L-4.525377466355302,-13.714410914558767 L-4.334561355378034,-13.784520932986899 L-4.142529470827178,-13.851496411683296 L-3.9493270544664902,-13.915321571555898 L-3.754999623831244,-13.975981375712202 L-3.5595929615045225,-14.033461533001882 L-3.3631531043310616,-14.087748501383714 L-3.165726332571207,-14.138829491116013 L-2.967359158997505,-14.186692467769834 L-2.7680983179365266,-14.231326155064222 L-2.5679907542584823,-14.272720037522845 L-2.3670836123172636,-14.3108643629514 L-2.165424224843443,-14.345750144735165 L-1.9630601017929306,-14.377369163956223 L-1.7600389191538532,-14.40571397132977 L-1.5564085077143357,-14.430777888959161 L-1.3522168417938012,-14.452555011909164 L-1.1475120279404551,-14.471040209597142 L-0.9423422935976218,-14.486229127001804 L-0.7367559757415973,-14.498118185689208 L-0.5308015094937,-14.506704584655836 L-0.3245274167091843,-14.51198630098849 L-0.11798229454575182,-14.513962090340883 " />
			<path d="M-0.11798229454575204,-14.513962090340883 L-0.11798229454575204,-10.584140358540541 " />
			<path d="M-0.11798229454575271,9.490323887946836 L-0.30550285320646964,9.456097818195873 L-0.4925976233322862,9.418132446339573 L-0.6791961927854122,9.376442060446987 L-0.865228336170579,9.331042350476702 L-1.0506240412640127,9.281950402372024 L-1.2353135353621552,9.22918469163075 L-1.4192273115402663,9.17276507635203 L-1.6022961548109746,9.112712789762874 L-1.7844511681729998,9.049050432227117 L-1.9656237985401646,8.981801962739915 L-2.1457458625409864,8.910992689910895 L-2.324749572179131,8.836649262439389 L-2.5025675603450943,8.758799659085334 L-2.679132906169445,8.677473178139609 L-2.8543791602081234,8.592700426397794 L-3.028240369450366,8.504513307641453 L-3.200651102139785,8.412945010631297 L-3.3715464723992508,8.318029996616785 L-3.5408621646503464,8.219803986366816 L-3.708534457818204,8.118303946726403 L-3.874500249312616,8.013568076704374 L-4.03869707877635,7.905635793097392 L-4.20106315159177,7.794547715655657 L-4.361537362136918,7.6803456517958715 L-4.5200593167823175,7.563072580867214 L-4.676569356619792,7.442772637976314 L-4.831008579914753,7.319491097377229 L-4.983318864273588,7.193274355432719 L-5.133442888517727,7.064169913153197 L-5.281324154256151,6.932226358319992 L-5.426907007148262,6.797493347199595 L-5.5701366578491065,6.6600215858557785 L-5.710959202629078,6.519862811066616 L-5.849321643660286,6.377069770853634 L-5.9851719089620055,6.23169620463038 L-6.118458871997698,6.083796822977862 L-6.249132370916236,5.933427287054501 L-6.377143227430035,5.780644187648345 L-6.502443265323041,5.625505023879449 L-6.624985328581598,5.468068181560364 L-6.7447232991413895,5.3083929112229225 L-6.861612114243712,5.1465393058196325 L-6.9756077833945955,4.982568278108022 L-7.086667404920417,4.816541537726421 L-7.194749182113725,4.648521567969857 L-7.2998124389631975,4.4785716022748 L-7.401817635461844,4.306755600421609 L-7.500726382487683,4.133138224463591 L-7.596501456251298,3.9577848143917485 L-7.689106812304818,3.7807613635444475 L-7.778507599107025,3.6021344937711706 L-7.864670171139581,3.4219714303597293 L-7.947562101569339,3.240339976736354 L-8.027152194452004,3.057308488948247 L-8.10341049647256,2.8729458499381626 L-8.176308308218047,2.68732144362065 L-8.245818194978444,2.5005051287697655 L-8.311913997071574,2.3125672127281085 L-8.374570839688152,2.123578424947032 L-8.433765142253298,1.933609890367971 L-8.48947462730097,1.7427331026549218 L-8.541678328857964,1.5510198972882008 L-8.590356600334346,1.3585424245295443 L-8.635491121917346,1.1653731222687242 L-8.677064907465926,0.9715846887619088 L-8.715062310903422,0.7772500552720696 L-8.749469032105871,0.5824423586217056 L-8.78027212228377,0.3872349136681534 L-8.80745998885531,0.1917011857119228 L-8.831022399809159,-0.004085237151580545 L-8.85095048755524,-0.20005067172652874 L-8.867236752262002,-0.39612136744696574 L-8.879875064678941,-0.5922235341324789 L-8.888860668443302,-0.7882833697587208 L-8.894190181870128,-0.9842270882323976 L-8.895861599224926,-1.1799809471602978 L-8.89387429147852,-1.375471275601877 L-8.888229006543778,-1.5706245017949074 L-8.87892786899415,-1.7653671808438127 L-8.865974379264086,-1.959626022360287 L-8.849373412331675,-2.1533279180457625 L-8.82913121588395,-2.3463999692053257 L-8.80525540796563,-2.5387695141827296 L-8.777754974112108,-2.7303641557062632 L-8.746640263967764,-2.9211117881350845 L-8.711922987390961,-3.1109406245957962 L-8.673616210047086,-3.29977922399904 L-8.631734348491362,-3.487556517925991 L-8.586293164743237,-3.6742018373746044 L-8.537309760354454,-3.859644939355508 L-8.484802569972954,-4.043816033327565 L-8.428791354405108,-4.226645807463199 L-8.369297193178822,-4.408065454733553 L-8.306342476610372,-4.5880066988036345 L-8.239950897377943,-4.766401819727744 L-8.170147441604998,-4.94318367943554 L-8.096958379456881,-5.118285746999116 L-8.020411255254173,-5.291642123671545 L-7.9405348771065505,-5.4631875676875215 L-7.857359306070995,-5.632857518816769 L-7.770915844838452,-5.800588122660954 L-7.6812370259532585,-5.96631625468496 L-7.588356599569668,-6.129979543973436 L-7.492309520750176,-6.291516396703795 L-7.393131936310336,-6.450866019326735 L-7.290861171215118,-6.607968441445564 L-7.185535714531854,-6.762764538385726 L-7.077195204945072,-6.915196053446077 L-6.965880415838674,-7.065205619823506 L-6.851633239951096,-7.212736782202614 L-6.734496673609209,-7.357734018002371 L-6.6145148005468615,-7.500142758271751 L-6.491732775314189,-7.639909408226491 L-6.366196806283941,-7.776981367419201 L-6.237954138261221,-7.9113070495352344 L-6.107053034703135,-8.04283590180696 L-5.973542759555081,-8.171518424039043 L-5.837473558710532,-8.297306187237549 L-5.698896641101271,-8.420151851835968 L-5.557864159425162,-8.540009185511188 L-5.414429190518749,-8.656833080582823 L-5.268645715382069,-8.770579570989234 L-5.120568598863208,-8.88120584883391 L-4.970253569010182,-8.988670280496013 L-4.817757196097968,-9.092932422298984 L-4.663136871338593,-9.193953035731301 L-4.506450785282257,-9.291694102213667 L-4.3477579059176925,-9.386118837407071 " />
			<path d="M-4.347757905917617,-9.386118837407116 L-4.22789191040614,-9.454496150692053 L-4.106963732055535,-9.520987182750362 L-3.984998787116906,-9.585577958735238 L-3.862022709745247,-9.648254903188885 L-3.738061346611735,-9.709004842895755 L-3.613140751471387,-9.76781500965126 L-3.487287179687157,-9.824673042945333 L-3.36052708271169,-9.879566992560319 L-3.2328871025278456,-9.932485321082636 L-3.104394066049184,-9.98341690632766 L-2.9750749794815774,-10.03235104367735 L-2.8449570226471463,-10.0792774483301 L-2.7140675432717023,-10.124186257462375 L-2.5824340512368957,-10.167068032301623 L-2.4500842127982962,-10.20791376011011 L-2.317045844770587,-10.246714856079151 L-2.183346908681136,-10.283463165133469 L-2.0490155048931404,-10.318150963645177 L-1.9140798666995886,-10.350770961057108 L-1.7785683543892903,-10.381316301415115 L-1.6425094492862153,-10.409780564809049 L-1.5059317477633885,-10.43615776872204 L-1.3688639552326052,-10.460442369287913 L-1.2313348801112332,-10.482629262456358 L-1.0933734277673626,-10.502713785065692 L-0.9550085944445761,-10.520691715822934 L-0.8162694611676273,-10.536559276191037 L-0.677185187630291,-10.55031313118303 L-0.5377850060666862,-10.561950390062968 L-0.398098215107348,-10.57146860695349 L-0.2581541736213482,-10.578865781349881 L-0.1179822945457536,-10.584140358540541 " />
			<path d="M-0.11798229454575204,9.490323887946833 L-0.11798229454575204,13.420145619747174 " />
			<path d="M1.7697344181862755,-14.37963375184692 L2.0336056732033816,-14.338968711599941 L2.2970123741654547,-14.292972710724008 L2.5598532014974005,-14.241663441613612 L2.822027053287817,-14.18506064041565 L3.0834330841779227,-14.123186079437911 L3.3439707441517914,-14.056063558774335 L3.603539817212985,-13.983718897150293 L3.862040459932711,-13.906179921991395 L4.119373239854678,-13.82347645871965 L4.3754391737418405,-13.7356403192811 L4.630139765650385,-13.642705289909323 L4.883377044816266,-13.54470711812955 L5.135053603339723,-13.441683499008338 L5.385072633653304,-13.333674060654143 L5.6333379657589635,-13.220720348974343 L5.879754104219916,-13.102865811694567 L6.124226264893031,-12.980155781646504 L6.36666041138762,-12.852637459330593 L6.606963291236601,-12.720359894760316 L6.845042471766124,-12.58337396859508 L7.080806375649857,-12.441732372568932 L7.31416431613429,-12.295489589222644 L7.545026531921442,-12.144701870946967 L7.773304221695616,-11.989427218345114 L7.998909578280886,-11.829725357922776 L8.221755822416188,-11.665657719114288 L8.441757236135029,-11.497287410653747 L8.658829195736965,-11.324679196300199 L8.872888204338151,-11.147899469926209 L9.083851923988506,-10.967016229979407 L9.29163920734304,-10.782099053326846 L9.496170128875242,-10.593219068492203 L9.697366015620508,-10.400448928296148 L9.895149477437723,-10.203862781910374 L10.089444436777466,-10.003536246336076 L10.280176157945268,-9.799546377317812 L10.467271275848761,-9.591971639703962 L10.65065782421762,-9.380891877265164 L10.83026526328542,-9.166388281982341 L11.006024506922833,-8.94854336281617 L11.177867949211633,-8.727440913969934 L11.345729490449376,-8.503165982658025 L11.509544562574693,-8.27580483639248 L11.66925015400344,-8.045444929800107 L11.824784833866145,-7.812174870983017 L11.976088775637448,-7.576084387435444 L12.123103780148403,-7.337264291530001 L12.265773297972837,-7.095806445586646 L12.404042451179123,-6.8518037265377565 L12.537858054439024,-6.6053499902029635 L12.667168635485453,-6.356540035187448 L12.791924454911332,-6.105469566417587 L12.912077525301882,-5.852235158327973 L13.027581629693012,-5.596934217714006 L13.138392339348725,-5.339664946264293 L13.24446703085064,-5.080526302787291 L13.345764902493137,-4.81961796514675 L13.442246989977756,-4.557040291920531 L13.533876181400839,-4.292894283797618 L13.62061723152866,-4.027281544728136 L13.70243677535452,-3.760304242841307 L13.779303340932623,-3.4920650711464143 L13.851187361483781,-3.222667208031861 L13.918061186768304,-2.952214277577532 L13.979899093721672,-2.6808103096957105 L14.036677296348945,-2.408559700115911 L14.088373954874049,-2.135567170228971 L14.134969184140468,-1.8619377268059147 L14.176445061260091,-1.587776621607 L14.212785632507243,-1.3131893108965644 L14.243976919455317,-1.03828141487921 L14.270006924353579,-0.7631586770728966 L14.29086563474211,-0.4879269236346376 L14.306545027303102,-0.21269202265438164 L14.317039070947045,0.062440156567216965 L14.322343729132575,0.33736378424150043 L14.322456961419148,0.6119731107993149 L14.31737872425188,0.8861625075676494 L14.307110970978316,1.1598265073997918 L14.291657651097063,1.4328598452433314 L14.27102470873862,1.7051574986304412 L14.245220080378955,1.9766147280748467 L14.214253691786743,2.247127117359937 L14.178137454205407,2.516590613702547 L14.136885259771448,2.784901567776924 L14.090512976170837,3.051956773583519 L14.039038440535476,3.3176535081472553 L13.982481452582151,3.581889571029978 L13.92086376699656,3.8445633236419403 L13.854209085065333,4.105573728337156 L13.782543045559343,4.36482038727759 L13.705893214871717,4.622203581051276 L13.624289076414412,4.877624307029448 L13.537762019277396,5.130984317447974 L13.446345326154807,5.382186157198435 L13.350074160542759,5.631133201314288 L13.248985553213656,5.8777296921377395 L13.143118387972288,6.121880776153002 L13.032513386699156,6.363492540471745 L12.917213093686756,6.6024720489567725 L12.79726185927491,6.838727377969974 L12.672705822791338,7.072167651730809 L12.543592894804178,7.302703077271742 L12.409972738693115,7.530244978977176 L12.271896751546352,7.7547058326925935 L12.129418044390665,7.975999299390773 L11.982591421762217,8.194040258382167 L11.831473360625962,8.408744840056634 L11.67612198865172,8.620030458143946 L11.516597061855348,8.82781584148065 L11.352959941613538,9.032021065271081 L11.185273571061108,9.232567581830496 L11.013602450879906,9.429378250798495 L10.838012614488553,9.622377368811112 L10.658571602642652,9.811490698620165 L10.47534843745519,9.996645497648686 L10.288413595847127,10.177770545971372 L10.097838982438404,10.354796173709415 L9.90369790188977,10.527654287829042 L9.706065030706112,10.69627839833357 L9.505016388512058,10.860603643838814 L9.300629308810995,11.02056681652208 L9.092982409238672,11.176106386435084 L8.882155561322874,11.327162525171499 L8.668229859760778,11.473677128879999 L8.451287591225828,11.615593840613927 L8.231412202716102,11.752858072009063 L8.008688269456403,11.88541702428103 " />
			<path d="M1.7697344181862829,9.624652226440798 L1.7697344181862829,12.323587754490326 " />
			<path d="M1.7697344181862817,-10.449812020046577 L1.934946701244587,-10.419857845101527 L2.099835073921891,-10.387000603456393 L2.2643513796322066,-10.351249891255263 L2.4284475704538164,-10.31261614969674 L2.59207572116194,-10.27111066198453 L2.7551880432255693,-10.226745550032115 L2.9177368987643915,-10.179533770922484 L3.079674814461685,-10.129489113123944 L3.240954495429184,-10.076626192463113 L3.401528839019815,-10.020960447856286 L3.5613509485842894,-9.962508136800425 L3.720374147167541,-9.901286330625044 L3.878551991140996,-9.83731290950645 L4.0358382837666955,-9.770606557245713 L4.192187088689318,-9.701186755811984 L4.347552743352139,-9.629073779652654 " />
			<path d="M10.51821636941263,0.9936805907549706 L10.506189236003982,1.1391284461928892 L10.492109967894958,1.2842331159922722 L10.475981549757032,1.4289638393375732 L10.457807400662082,1.5732899346863354 L10.437591373357572,1.7171808062734062 L10.4153377534498,1.8606059505969643 L10.3910512584954,2.003534962884937 L10.364737037001259,2.145937543540549 L10.336400667333082,2.2877835045655597 L10.306048156532837,2.429042775959796 L10.273685939045313,2.56968541209574 L10.239320875354077,2.709681598066712 L10.202960250527127,2.8490016560073363 L10.164611772672515,2.9876160513849745 L10.124283571304307,3.125495399260778 L10.0819841956192,3.2626104705189936 L10.03772261268418,3.3989321980632816 L9.99150820553558,3.534431682978646 L9.943350771189968,3.669080200657745 L9.893260518567274,3.802849206890236 L9.841248066326598,3.93571034391386 L9.78732444061515,4.067635446426038 L9.731501072730811,4.198596547554644 L9.673789796698813,4.328565884786709 L9.614202846763026,4.457515905853814 L9.552752854792429,4.585419274572921 L9.489452847603259,4.712248876641372 L9.424316244197458,4.837977825384856 L9.357356852917972,4.962579467457164 L9.288588868521506,5.086027388490407 L9.21802686916938,5.20829541869463 L9.145685813337085,5.329357638405563 L9.071581036643241,5.449188383579338 L8.995728248598587,5.567762251233017 L8.918143529275694,5.685054104829803 L8.83884332590018,5.801039079607727 L8.757844449364024,5.915692587850749 L8.67516407066182,6.0289903241011364 L8.590819717250701,6.140908270311961 L8.50482926933468,6.251422700938717 L8.4172109560742,6.3605101879689165 L8.32798335172175,6.468147605888594 L8.237165371684286,6.574312136584694 L8.144776268513336,6.678981274182313 L8.05083562782366,6.7821328298157075 L7.955363364141277,6.883744936332139 L7.858379716681759,6.983796052927511 L7.759905245059737,7.08226496971279 L7.659960824930438,7.179130812210323 L7.558567643564249,7.27437304577902 L7.455747195355221,7.367971479967501 L7.351521277264444,7.459906272794295 L7.245911984199326,7.550157934954132 L7.138941704329659,7.638707333949503 L7.030633114341539,7.725535698146565 L6.921009174630143,7.8106246207545595 L6.810093124432326,7.893956063727851 L6.697908476900121,7.975512361589859 L6.584479014116186,8.055276225177938 L6.469828782052226,8.133230745308534 L6.353982085471456,8.209359396361778 L6.236963482776246,8.283646039784735 L6.118797780801966,8.356074927512648 L5.999510029558189,8.42663070530735 " />
			<path d="M5.999510029558152,8.42663070530737 L5.879644034046677,8.495008018592307 L5.75871585569607,8.561499050650617 L5.636750910757443,8.626089826635493 L5.513774833385785,8.688766771089137 L5.389813470252271,8.74951671079601 L5.264892875111925,8.808326877551513 L5.139039303327697,8.865184910845587 L5.012279206352227,8.920078860460572 L4.884639226168382,8.972997188982891 L4.756146189689721,9.023928774227915 L4.626827103122117,9.072862911577603 L4.496709146287685,9.119789316230356 L4.3658196669122376,9.16469812536263 L4.234186174877434,9.207579900201882 L4.101836336438835,9.248425628010363 L3.9687979684111223,9.287226723979405 L3.83509903232167,9.323975033033726 L3.7007676285336757,9.358662831545434 L3.565831990340125,9.391282828957362 L3.4303204780298255,9.421828169315372 L3.294261572926748,9.450292432709304 L3.1576838714039224,9.476669636622296 L3.0206160788731418,9.50095423718817 L2.8830870037517666,9.523141130356613 L2.7451255514078943,9.54322565296595 L2.6067607180851096,9.561203583723191 L2.468021584808162,9.577071144091294 L2.328937311270824,9.590824999083287 L2.1895371297072215,9.602462257963225 L2.049850338747885,9.611980474853747 L1.909906297261882,9.619377649250138 L1.769734418186328,9.624652226440798 " />
			<path d="M1.7697344181862829,-14.37963375184692 L1.7697344181862829,-10.449812020046577 " />
			<path d="M16.16357435276805,-15.935353350300172 L16.16357435276805,19.31275157529127 " />
			<path d="M10.205137995536827,-20.510570941517322 L13.096034694578494,-22.18986714713882 " />
			<path d="M10.205137995536852,-20.510570941517333 L10.079344604324904,-20.49296455899133 L9.960888573772667,-20.473623094307296 L9.849989657685816,-20.45290993864909 L9.7468101299331,-20.431148525260067 L9.651466606166245,-20.408624266633737 L9.564026379890882,-20.385582409814607 L9.48450559183172,-20.362224646508135 L9.412941861319302,-20.338728103670732 L9.349381620062106,-20.31524442408066 L9.293884052105186,-20.29190194606587 L9.246526112090914,-20.26880814013716 L9.207408432601795,-20.24605259526275 L9.176662141467249,-20.22371125546307 L9.15444408894421,-20.201843637320266 L9.140944571207257,-20.180497056187797 L9.137533266984489,-20.170030940558778 L9.136388802742784,-20.159707927932768 " />
			<path d="M9.136388802742783,-20.159707927932768 L9.13992824549755,-20.142032059092312 L9.15068055843107,-20.12481289514985 L9.168866043879373,-20.108054103296695 L9.19472448439582,-20.091758428623674 L9.228503311402282,-20.075928879525474 L9.270456906741526,-20.060564403212517 L9.320843638948878,-20.045660664369485 L9.379922899058016,-20.03121082436134 " />
			<path d="M3.5981295009747267,-16.672618413118364 L9.379922899058037,-20.031210824361352 " />
			<path d="M3.5981295009747276,-16.672618413118364 L3.472336104487904,-16.655012029791937 L3.353880069304803,-16.635670564173925 L3.242981149255587,-16.61495740749262 L3.1398016182245976,-16.593195993029095 L3.0444580918728006,-16.570671733308256 L2.9570178685668878,-16.547629876916993 L2.8774970896660523,-16.524272115871327 L2.8059333650094445,-16.50077557449082 L2.7423731263067275,-16.477291895891796 L2.686875561187802,-16.453949419592814 L2.6395176249006385,-16.43085561582131 L2.6003999438601118,-16.408100070620158 L2.5696536502158724,-16.385758729825653 L2.5474355958717956,-16.363891110720765 L2.5339360770226147,-16.34254452866604 L2.5305247725174125,-16.332078412592526 L2.5293803081806607,-16.321755399533796 " />
			<path d="M2.52938030818066,-16.321755399533796 L2.5329197509354264,-16.304079530693343 L2.5436720638689456,-16.286860366750883 L2.5618575493172475,-16.270101574897726 L2.587715989833695,-16.253805900224705 L2.6214948168401557,-16.237976351126505 L2.6634484121794,-16.22261187481355 L2.713835144386752,-16.207708135970517 L2.7729144044958907,-16.19325829596237 " />
			<path d="M-0.11798229454575204,-14.513962090340883 L2.772914404495893,-16.19325829596237 " />
			<path d="M2.772914404495893,-12.263436564162028 L2.7729144044958933,-16.193258295962373 " />
			<path d="M-0.11798229454575204,-10.584140358540541 L2.772914404495891,-12.263436564162028 " />
			<path d="M3.5981295009747294,-12.742796681318024 L5.73014766836325,-13.981267090862065 " />
			<path d="M3.598129500974726,-12.742796681318023 L3.4725198977841614,-12.722335600573931 L3.354204440377362,-12.700172195970689 L3.24340214450413,-12.676737831637062 L3.140275935408648,-12.652415239586936 L3.0449445798413093,-12.62754060812839 L2.9574804809065234,-12.602402242921938 L2.877910373019312,-12.577238244929964 L2.8062812006764215,-12.552256058418212 L2.742648028709181,-12.527631613951167 L2.6870777117318085,-12.50351168505362 L2.6396535899723608,-12.480016517634 L2.6004810970393684,-12.457243010105689 L2.5696943625583004,-12.435268913938604 L2.5474507998035785,-12.414149685810754 L2.5339389874128093,-12.3939227053108 L2.5305253730005286,-12.3841508161293 L2.529380306035427,-12.374608303592602 " />
			<path d="M2.529380306035427,-12.3746083035926 L2.5329259310393213,-12.35848071491459 L2.543693566377217,-12.343045365538165 L2.5618977279262225,-12.328283046884556 L2.5877722657646367,-12.314168260039944 L2.621559403470498,-12.300670196993526 L2.66350891124487,-12.287749043407846 L2.7138752316433727,-12.275356487617074 L2.772914404495889,-12.263436564162031 " />
			<path d="M-0.11798229454575204,9.490323887946833 L2.7729144044958938,7.811027682325343 " />
			<path d="M3.598129500974725,7.331667565169353 L3.4725199012196186,7.3316512725797995 L3.3542044468307726,7.333588615260524 L3.243402153541986,7.337549346409956 L3.1402759465871095,7.343585957525307 L3.0449445927102308,7.351733527717717 L2.9574804950180944,7.362012048134916 L2.8779103879224737,7.374431602812254 L2.8062812159139248,7.388987586168419 L2.742648043817095,7.405661968747433 L2.6870777262371393,7.424423291419632 L2.639653603390006,7.445226551020391 L2.6004811081850154,7.468012428250527 L2.5696943686589098,7.492702998268714 L2.547450801704378,7.519204886791895 L2.5395903643346083,7.533100635941914 L2.533938987548176,7.547405116376399 L2.5305253730992345,7.562100582243905 L2.529380306477108,7.577167664434123 " />
			<path d="M2.529380306477108,7.577167664434124 L2.5329259324959517,7.604328706892385 L2.5436935687956055,7.632433459334736 L2.561897730995049,7.661341606080426 L2.5877722690890232,7.690886351727275 L2.6215594066364103,7.7208686707696295 L2.6635089138179873,7.751062057833768 L2.713875233168321,7.781210666261863 L2.7729144044958876,7.811027682325343 " />
			<path d="M3.598129500974724,7.331667565169353 L9.379922899058023,3.97307515392637 " />
			<path d="M10.205137995536848,3.493715036770383 L10.079528400820067,3.4936987441417036 L9.961212950857224,3.4956360866188287 L9.85041066135866,3.4995968173926086 L9.747284457543103,3.5056334279555585 L9.651953106145402,3.513780997416956 L9.56448900566788,3.5240595177663447 L9.484918889804822,3.536479073279107 L9.413289712170807,3.551035057148113 L9.34965653761886,3.5677094404202268 L9.294086217322477,3.5864707647415077 L9.24666209089967,3.607274026419062 L9.207489597167505,3.630059903637742 L9.176702860047676,3.6547504729318514 L9.15445929483891,3.68125236057448 L9.146598858088502,3.6951481092289744 L9.140947481748661,3.7094525891333388 L9.137533867570315,3.724148054438096 L9.136388801039233,3.7392151360351518 " />
			<path d="M9.136388801039232,3.739215136035153 L9.139934427058074,3.766376178493404 L9.150702063357723,3.794480930935749 L9.168906225557164,3.823389077681441 L9.194780763651137,3.8529338233282937 L9.228567901198526,3.8829161423706515 L9.270517408380103,3.9131095294347937 L9.320883727730438,3.943258137862891 L9.379922899058013,3.9730751539263736 " />
			<path d="M10.205137995536841,3.4937150367703858 L13.096034694578494,1.8144188311488936 " />
			<path d="M2.772914404495892,11.346464263948638 L2.7729144044958924,7.811027682325346 " />
			<path d="M1.7697344181862829,-14.379633751846917 L4.660631117227928,-16.058929957468404 " />
			<path d="M12.092854708268863,-20.376242603023357 L13.096034694578494,-20.958980943388006 " />
			<path d="M12.09285470826888,-20.376242603023368 L12.151926434711502,-20.3489283823515 L12.202317747561548,-20.321263613353906 L12.244273568380361,-20.29349453307806 L12.278046790050471,-20.265840664891893 L12.303901391321176,-20.23848611360611 L12.322090264220718,-20.211589194857403 L12.33284761998907,-20.185289188961896 L12.33638879844401,-20.15970792290851 " />
			<path d="M12.336388798444013,-20.15970792290851 L12.335244059072615,-20.145425965114207 L12.331831993850322,-20.131432507937667 L12.326184244560297,-20.117743964167886 L12.318330229610394,-20.10437544550129 L12.296109752577486,-20.078652996132202 L12.265360137646782,-20.054363599427468 L12.226235849912158,-20.031592044786926 L12.178872663140051,-20.01041718139873 L12.12337001501609,-19.990901609133072 L12.059801842444388,-19.97309989260959 L11.988225205897812,-19.95706032417859 L11.908686795268345,-19.94282504390273 L11.821229559013204,-19.930430047011505 L11.72589945659676,-19.919905078828688 L11.622752322890273,-19.91127341641963 L11.511864755869004,-19.904552009937042 L11.393407678264383,-19.899753776768527 L11.267639611790052,-19.896882485867373 " />
			<path d="M5.485846213706762,-16.5382900746244 L11.267639611790074,-19.896882485867387 " />
			<path d="M5.485846213706758,-16.5382900746244 L5.5449179401494,-16.510975853952516 L5.595309252999454,-16.483311084954916 L5.637265073818277,-16.455542004679064 L5.671038295488384,-16.42788813649289 L5.696892896759076,-16.40053358520711 L5.715081769658606,-16.37363666645841 L5.72583912542695,-16.347336660562913 L5.729380303881888,-16.321755394509537 " />
			<path d="M5.729380303881887,-16.32175539450954 L5.7282355645104905,-16.307473436715238 L5.724823499288199,-16.2934799795387 L5.7191757499981755,-16.279791435768917 L5.711321735048273,-16.266422917102325 L5.689101258015366,-16.240700467733234 L5.658351643084662,-16.2164110710285 L5.6192273553500325,-16.193639516387954 L5.571864168577923,-16.172464652999757 L5.516361520453975,-16.152949080734107 L5.452793347882301,-16.135147364210628 L5.381216711335762,-16.119107795779637 L5.3016783007063335,-16.10487251550378 L5.214221064451234,-16.092477518612554 L5.118890962034823,-16.081952550429733 L5.015743828328327,-16.07332088802067 L4.904856261307007,-16.066599481538077 L4.786399183702326,-16.06180124836956 L4.660631117227929,-16.058929957468404 " />
			<path d="M1.7697344181862829,9.624652226440798 L4.660631117227929,7.945356020819308 " />
			<path d="M4.660631117227927,10.64429154886884 L4.660631117227927,7.945356020819311 " />
			<path d="M1.7697344181862829,-10.449812020046576 L4.6606311172279264,-12.129108225668062 " />
			<path d="M4.660631117227929,7.94535602081931 L4.786222220308879,7.9248981838316785 L4.904542872481747,7.902734189960431 L5.015338245587884,7.879301697606542 L5.118436527032759,7.854986536383719 L5.2137552379009335,7.8301166072759845 L5.301232630858645,7.804975879640245 L5.380815668165371,7.779809045500458 L5.452453649812179,7.754824881516213 L5.516091952577982,7.730199410873219 L5.571665891092739,7.706078862602459 L5.619094700907605,7.682582428328035 L5.658273425501186,7.659806229897363 L5.689062807180798,7.637831012122417 L5.711307817143277,7.616711354448771 L5.7248209687627645,7.59648357185181 L5.728235063437209,7.586711002609883 L5.729380302250007,7.577167634774525 " />
			<path d="M5.729380302250007,7.577167634774524 L5.725833391775498,7.561037271618029 L5.715061918301571,7.545599349642778 L5.696855477101903,7.530837470975036 L5.6709850495649805,7.516726051854413 L5.637203076093451,7.503230181890728 L5.595251068335316,7.490308208204302 L5.544879672849583,7.477914557967312 L5.485846213706764,7.465995903663318 " />
			<path d="M5.4858462137067585,7.465995903663318 L11.26763961179006,4.107403492420335 " />
			<path d="M11.267639611790052,4.107403492420341 L11.39323071487103,4.086945655432705 L11.511551367043923,4.064781661561452 L11.622346740150084,4.041349169207558 L11.725445021594942,4.017034007984735 L11.820763732463105,3.9921640788770016 L11.908241125420806,3.9670233512412634 L11.987824162727524,3.941856517101478 L12.059462144374324,3.9168723531172365 L12.123100447140116,3.8922468824742453 L12.178674385654864,3.8681263342034886 L12.226103195469728,3.844629899929067 L12.26528192006331,3.8218537014983935 L12.296071301742924,3.799878483723446 L12.318316311705404,3.7787588260498 L12.33182946332489,3.758531043452839 L12.335243557999334,3.748758474210913 L12.336388796812132,3.7392151063755543 " />
			<path d="M12.336388796812132,3.739215106375554 L12.332841886337622,3.7230847432190584 L12.322070412863695,3.7076468212438067 L12.303863971664025,3.692884942576064 L12.2779935441271,3.6787735234554404 L12.244211570655564,3.6652776534917546 L12.202259562897433,3.6523556798053303 L12.151888167411707,3.639962029568343 L12.092854708268888,3.628043375264349 " />
			<path d="M12.092854708268877,3.628043375264351 L13.096034694578494,3.045305034899707 " />
			<path d="M4.860465914818328,-12.130058046933462 L4.660631117227934,-12.129108225668064 " />
			<path d="M4.660631117227928,-12.129108225668062 L4.660631117227928,-16.058929957468408 " />
			<path d="M10.20513799553685,-16.58074920971699 L10.20513799553685,-20.510570941517337 " />
			<path d="M9.379922899058016,-16.37763005685393 L9.379922899058016,-20.03121082436134 " />
			<path d="M3.5981295009747267,-12.74279668131802 L3.598129500974727,-16.672618413118364 " />
			<path d="M3.598129500974726,11.261489296969696 L3.5981295009747263,7.331667565169354 " />
			<path d="M9.379922899058014,7.508511735549669 L9.379922899058014,3.973075153926377 " />
			<path d="M10.205137995536848,7.423536768570723 L10.205137995536848,3.493715036770382 " />
			<path d="M5.48584621370676,10.164931431712844 L5.48584621370676,7.46599590366332 " />
			<path d="M11.26763961179005,6.806339020469868 L11.26763961179005,4.107403492420342 " />
			<path d="M12.092854708268884,6.326978903313876 L12.092854708268884,3.6280433752643475 " />
			<path d="M12.092854708268886,-17.67730707497384 L12.092854708268886,-20.37624260302337 " />
			<path d="M11.267639611790052,-17.197946957817848 L11.267639611790052,-19.896882485867376 " />
			<path d="M5.485846213706761,-13.556483198915057 L5.485846213706761,-16.5382900746244 " />
			<path d="M-4.347757905917617,-9.386118837407116 L8.866259083206629,-17.062023894205055 " />
			<path d="M5.999510029558148,8.426630705307373 L19.213527018682395,0.7507256485094338 " />
			<path d="M9.136388803663452,-16.212560842626054 L9.136388803663452,-20.15970793847238 " />
			<path d="M2.5293803091013265,-12.374608314227086 L2.529380309101327,-16.32175541007341 " />
			<path d="M2.5293803091013256,11.524314749574707 L2.529380309101326,7.577167653788937 " />
			<path d="M9.13638880366345,7.686362221175735 L9.13638880366345,3.7392151253899666 " />
			<path d="M5.729380309101327,11.524314736609355 L5.729380309101327,7.5771676388851485 " />
			<path d="M12.33638880366345,7.6863622082103955 L12.33638880366345,3.739215110486178 " />
			<path d="M12.336388803663452,-16.21256082778283 L12.336388803663452,-20.159707925507046 " />
			<path d="M5.729380309101328,-12.374608299383866 L5.729380309101328,-16.321755397108085 " />

       </g>

       <!-- solid lines -->
       <g  stroke="rgb(0,0,0)" fill="none">
			<path d="M-17.81532647640858,-18.353263443191526 L-16.163574352768048,-19.31275157529127 " />
			<path d="M-16.16357435276805,-19.31275157529127 L-16.16357435276805,15.935353350300172 " />
			<path d="M-17.81532647640858,16.894841482399915 L-16.163574352768048,15.935353350300172 " />
			<path d="M-17.81532647640858,-18.353263443191526 L-17.81532647640858,16.894841482399915 " />
			<path d="M-16.16357435276805,-19.31275157529127 L2.492096632859379,-17.985229670077775 " />
			<path d="M-16.16357435276805,15.935353350300172 L17.815326476408572,18.353263443191523 " />
			<path d="M17.81532647640858,6.18882802603116 L17.81532647640858,18.353263443191526 " />
			<path d="M-0.11798229454575804,13.420145619747174 L-0.3818535495628632,13.379480579500198 L-0.645260250524931,13.333484578624265 L-0.9081010778568759,13.282175309513867 L-1.1702749296472925,13.225572508315906 L-1.4316809605373981,13.163697947338168 L-1.692218620511266,13.09657542667459 L-1.9517876935724594,13.024230765050547 L-2.210288336292189,12.94669178989165 L-2.467621116214154,12.863988326619904 L-2.723687050101317,12.776152187181353 L-2.9783876420098627,12.683217157809578 L-3.2316249211757437,12.585218986029805 L-3.4833014796992074,12.482195366908591 L-3.733320510012783,12.374185928554397 L-3.9815858421184336,12.2612322168746 L-4.228001980579393,12.14337767959482 L-4.472474141252515,12.020667649546754 L-4.714908287747102,11.893149327230844 L-4.955211167596078,11.760871762660571 L-5.193290348125604,11.623885836495331 L-5.429054252009342,11.48224424046918 L-5.66241219249377,11.336001457122894 L-5.893274408280917,11.18521373884722 L-6.121552098055096,11.029939086245363 L-6.347157454640371,10.870237225823022 L-6.570003698775669,10.706169587014536 L-6.790005112494505,10.537799278554 L-7.0070770720964415,10.365191064200447 L-7.221136080697635,10.188411337826452 L-7.432099800347986,10.007528097879655 L-7.639887083702515,9.8226109212271 L-7.844418005234724,9.633730936392453 L-8.045613891979992,9.440960796196393 L-8.243397353797205,9.244374649810622 L-8.437692313136942,9.044048114236327 L-8.628424034304738,8.840058245218069 L-8.815519152208227,8.632483507604224 L-8.998905700577088,8.421403745165419 L-9.178513139644895,8.206900149882593 L-9.354272383282302,7.989055230716428 L-9.526115825571097,7.767952781870196 L-9.693977366808845,7.543677850558282 L-9.857792438934167,7.316316704292731 L-10.017498030362908,7.085956797700363 L-10.17303271022561,6.852686738883279 L-10.32433665199692,6.6165962553357005 L-10.471351656507878,6.377776159430254 L-10.614021174332308,6.136318313486901 L-10.752290327538594,5.892315594438013 L-10.886105930798498,5.645861858103215 L-11.01541651184493,5.397051903087695 L-11.140172331270804,5.145981434317838 L-11.26032540166135,4.89274702622823 L-11.375829506052485,4.637446085614258 L-11.4866402157082,4.380176814164537 L-11.59271490721011,4.121038170687543 L-11.694012778852606,3.8601298330470066 L-11.790494866337227,3.5975521598207814 L-11.882124057760313,3.3334061516978633 L-11.968865107888133,3.0677934126283883 L-12.050684651713992,2.800816110741565 L-12.127551217292094,2.5325769390466664 L-12.199435237843254,2.263179075932108 L-12.266309063127775,1.9927261454777834 L-12.328146970081141,1.7213221775959693 L-12.384925172708416,1.4490715680161617 L-12.436621831233522,1.1760790381292172 L-12.48321706049994,0.9024495947061637 L-12.52469293761956,0.6282884895072507 L-12.561033508866712,0.3537011787968089 L-12.592224795814788,0.07879328277944836 L-12.61825480071305,-0.196329455026858 L-12.639113511101579,-0.4715612084651109 L-12.654792903662573,-0.7467961094453739 L-12.665286947306512,-1.0219282886669778 L-12.670591605492046,-1.296851916341256 L-12.670704837778617,-1.5714612428990642 L-12.665626600611349,-1.8456506396674048 L-12.655358847337785,-2.1193146394995543 L-12.639905527456532,-2.392347977343086 L-12.619272585098088,-2.6646456307301913 L-12.593467956738424,-2.9361028601746013 L-12.562501568146208,-3.206615249459699 L-12.526385330564874,-3.4760787458023006 L-12.485133136130917,-3.7443896998766717 L-12.438760852530303,-4.011444905683276 L-12.38728631689494,-4.277141640247017 L-12.330729328941619,-4.541377703129732 L-12.269111643356027,-4.804051455741693 L-12.202456961424799,-5.06506186043691 L-12.130790921918807,-5.324308519377349 L-12.054141091231182,-5.581691713151029 L-11.97253695277388,-5.837112439129197 L-11.886009895636866,-6.090472449547717 L-11.79459320251428,-6.3416742892981715 L-11.69832203690223,-6.590621333414031 L-11.597233429573121,-6.8372178242374915 L-11.491366264331756,-7.081368908252745 L-11.380761263058625,-7.322980672571482 L-11.265460970046233,-7.561960181056508 L-11.145509735634386,-7.798215510069703 L-11.020953699150814,-8.031655783830542 L-10.891840771163649,-8.262191209371482 L-10.758220615052592,-8.48973311107691 L-10.620144627905832,-8.714193964792322 L-10.47766592075014,-8.935487431490508 L-10.33083929812169,-9.153528390481904 L-10.179721236985438,-9.368232972156369 L-10.0243698650112,-9.579518590243675 L-9.864844938214825,-9.787303973580382 L-9.701207817973009,-9.991509197370819 L-9.533521447420584,-10.19205571393023 L-9.361850327239388,-10.388866382898225 L-9.18626049084803,-10.581865500910844 L-9.006819479002127,-10.770978830719905 L-8.823596313814669,-10.95613362974842 L-8.63666147220661,-11.137258678071102 L-8.44608685879788,-11.31428430580915 L-8.251945778249244,-11.487142419928782 L-8.05431290706559,-11.655766530433306 L-7.853264264871541,-11.820091775938549 L-7.648877185170473,-11.980054948621817 L-7.441230285598145,-12.135594518534823 L-7.230403437682352,-12.286650657271235 L-7.0164777361202635,-12.433165260979733 L-6.799535467585309,-12.575081972713667 L-6.579660079075571,-12.712346204108808 L-6.3569361458159275,-12.844905156380742 " />
			<path d="M8.008688269456353,11.88541702428106 L7.832449991593819,11.985844186328622 L7.6545609995114265,12.08333451733818 L7.475063202977318,12.17786504906915 L7.2939988907860025,12.269413510595037 L7.111410720795348,12.35795833355037 L6.927341709876595,12.443478657212086 L6.741835223779797,12.525954333414228 L6.5549349669170605,12.605365931294742 L6.366684972065999,12.681694741873295 L6.177129589995834,12.754922782459023 L5.98631347901857,12.825032800887156 L5.794281594467714,12.89200827958355 L5.601079178107026,12.955833439456152 L5.406751747471782,13.016493243612455 L5.211345085145055,13.073973400902137 L5.014905227971596,13.128260369283968 L4.817478456211743,13.179341359016268 L4.619111282638036,13.227204335670088 L4.419850441577056,13.271838022964477 L4.219742877899016,13.3132319054231 L4.018835735957799,13.351376230851654 L3.81717634848398,13.386262012635422 L3.614812225433467,13.417881031856478 L3.4117910427943894,13.446225839230026 L3.2081606313548736,13.471289756859417 L3.003968965434341,13.493066879809419 L2.7992641515809957,13.511552077497399 L2.5940944172381633,13.52674099490206 L2.3885080993821406,13.538630053589465 L2.182553633134243,13.547216452556093 L1.976279540349724,13.552498168888746 L1.769734418186343,13.55447395824114 " />
			<path d="M1.7697344181862829,12.323587754490326 L1.7697344181862829,13.55447395824114 " />
			<path d="M4.34755274335215,-9.629073779652648 L4.527771934802049,-9.541435492516108 L4.706515249296875,-9.450184477736975 L4.883711425205345,-9.355357115395746 L5.059289817711532,-9.256991211396095 L5.233180426979614,-9.155125982392367 L5.405313926061533,-9.049802040154635 L5.575621688536339,-8.94106137537753 L5.744035815870271,-8.82894734093934 L5.910489164486638,-8.713504634618028 L6.07491537253472,-8.594779281271055 L6.2372488863469915,-8.47281861448613 L6.397424986574151,-8.347671257710186 L6.55537981398753,-8.219387104864117 L6.71105039493856,-8.088017300451009 L6.864374666465213,-7.95361421916577 L7.015291501035333,-7.816231445014314 L7.16374073091706,-7.6759237499506225 L7.30966317216657,-7.532747072040177 L7.4530006482236235,-7.38675849315851 L7.593696013105463,-7.238016216233701 L7.731693174189864,-7.086579542041975 L7.866937114578223,-6.932508845565574 L7.999373915029748,-6.775865551922378 L8.128950775458085,-6.616712111876858 L8.255616035981703,-6.455111976942113 L8.379319197519749,-6.291129574082941 L8.500010941925074,-6.12483028003 L8.617643151646469,-5.956280395215329 L8.732168928912243,-5.785547117339597 L8.843542614427466,-5.61269851458163 L8.951719805577515,-5.437803498460899 L9.056657374130536,-5.260931796363775 L9.158313483431892,-5.082153923744527 L9.25664760508365,-4.901541156012114 L9.351620535102489,-4.7191655001140145 L9.443194409549612,-4.535099665828388 L9.531332719626388,-4.349417036776051 L9.61600032622973,-4.162191641163789 L9.6971634739614,-3.973498122270682 L9.774789804585657,-3.7834117086892367 L9.848848369929886,-3.5920081843331233 L9.919309644223063,-3.3993638582235612 L9.986145535867118,-3.2055555340663235 L10.04932939863654,-3.0106604796315324 L10.10883604230173,-2.814756395948434 L10.164641742671872,-2.617921386327449 L10.216724251053337,-2.420233925221837 L10.265062803119813,-2.22177282694139 L10.309638127190652,-2.0226172142306362 L10.350432451914148,-1.8228464867240781 L10.387429513352624,-1.6225402892910301 L10.420614561466568,-1.4217784802826987 L10.449974365995207,-1.2206410996941384 L10.475497221731155,-1.0192083372538039 L10.497172953187071,-0.8175605004533923 L10.514992918652425,-0.6157779825307421 L10.528950013638791,-0.4139412304185491 L10.539038673712282,-0.21213071267166989 L10.545254876711981,-0.010426887385809602 L10.547596144353493,0.19108982987962658 L10.546061543217007,0.39233909816171536 L10.540651685119421,0.5932406831244648 L10.531368726870427,0.7937144890467445 L10.518216369412633,0.9936805907549253 " />
			<path d="M-17.81532647640858,16.894841482399915 L16.163574352768045,19.312751575291266 " />
			<path d="M16.16357435276805,19.31275157529127 L17.815326476408583,18.353263443191526 " />
			<path d="M13.096034694578488,5.744240562949237 L12.832163439561384,5.703575522702261 L12.568756738599316,5.657579521826328 L12.30591591126737,5.60627025271593 L12.043742059476955,5.549667451517969 L11.782336028586847,5.487792890540231 L11.52179836861298,5.420670369876653 L11.262229295551787,5.3483257082526094 L11.003728652832057,5.270786733093713 L10.746395872910092,5.188083269821966 L10.49032993902293,5.100247130383416 L10.235629347114383,5.007312101011641 L9.982392067948503,4.9093139292318675 L9.730715509425039,4.806290310110654 L9.480696479111463,4.6982808717564595 L9.232431147005812,4.5853271600766625 L8.986015008544854,4.467472622796883 L8.741542847871731,4.3447625927488165 L8.499108701377144,4.217244270432907 L8.258805821528169,4.084966705862634 L8.020726640998642,3.947980779697394 L7.784962737114904,3.806339183671243 L7.5516047966304765,3.6600964003249565 L7.320742580843329,3.5093086820492836 L7.092464891069151,3.3540340294474262 L6.866859534483876,3.1943321690250848 L6.644013290348577,3.0302645302165985 L6.424011876629741,2.861894221756062 L6.206939917027805,2.68928600740251 L5.992880908426612,2.5125062810285144 L5.78191718877626,2.331623041081718 L5.5741299054217315,2.146705864429162 L5.369598983889523,1.957825879594516 L5.168403097144255,1.7650557393984556 L4.970619635327042,1.5684695930126846 L4.776324675987304,1.36814305743839 L4.585592954819509,1.1641531884201317 L4.39849783691602,0.9565784508062869 L4.215111288547158,0.7454986883674817 L4.035503849479351,0.5309950930846554 L3.8597446058419447,0.31315017391849054 L3.68790116355315,0.09204772507225911 L3.5200396223154016,-0.132227206239655 L3.3562245501900794,-0.35958835250520593 L3.196518958761338,-0.5899482590975742 L3.0409842788986357,-0.8232183179146579 L2.889680337127327,-1.0593088014622367 L2.742665332616369,-1.2981288973676834 L2.5999958147919386,-1.5395867433110366 L2.4617266615856526,-1.7835894623599247 L2.327911058325748,-2.030043198694722 L2.1986004772793173,-2.2788531537102426 L2.073844657853442,-2.5299236224800996 L1.953691587462897,-2.783158030569707 L1.8381874830717617,-3.0384589711836796 L1.7273767734160472,-3.2957282426334 L1.621302081914136,-3.5548668861103945 L1.5200042102716402,-3.815775223750931 L1.4235221227870198,-4.078352896977156 L1.3318929313639334,-4.342498905100074 L1.2451518812361133,-4.608111644169549 L1.1633323374102549,-4.875088946056373 L1.0864657718321524,-5.143328117751271 L1.0145817512809927,-5.4127259808658295 L0.9477079259964718,-5.683178911320154 L0.8858700190431055,-5.954582879201968 L0.829091816415831,-6.226833488781776 L0.7773951578907248,-6.4998260186687205 L0.7307999286243057,-6.773455462091774 L0.6893240515046859,-7.047616567290687 L0.652983480257534,-7.322203878001129 L0.6217921933094583,-7.597111774018489 L0.5957621884111965,-7.872234511824796 L0.5749034780226676,-8.147466265263049 L0.5592240854616737,-8.42270116624331 L0.5487300418177341,-8.697833345464915 L0.5434253836322007,-8.972756973139195 L0.5433121513456296,-9.247366299697003 L0.5483903885128978,-9.521555696465342 L0.5586581417864611,-9.795219696297492 L0.5741114616677141,-10.068253034141023 L0.5947444040261587,-10.340550687528129 L0.6205490323858225,-10.612007916972539 L0.651515420978038,-10.882520306257636 L0.687631658559372,-11.151983802600238 L0.728883852993329,-11.42029475667461 L0.7752561365939439,-11.687349962481214 L0.8267306722293064,-11.953046697044954 L0.8832876601826278,-12.21728275992767 L0.9449053457682197,-12.47995651253963 L1.0115600276994474,-12.740966917234847 L1.0832260672054392,-13.000213576175287 L1.1598758978930643,-13.257596769948966 L1.2414800363503673,-13.513017495927134 L1.3280070934873809,-13.766377506345655 L1.4194237866099666,-14.01757934609611 L1.5156949522220167,-14.266526390211968 L1.6167835595511253,-14.513122881035429 L1.7226507247924907,-14.757273965050683 L1.8332557260656213,-14.99888572936942 L1.9485560190780138,-15.237865237854445 L2.0685072534898605,-15.47412056686764 L2.1930632899734324,-15.707560840628481 L2.322176217960598,-15.938096266169419 L2.455796374071655,-16.165638167874846 L2.5938723612184145,-16.39009902159026 L2.7363510683741072,-16.611392488288445 L2.8831776910025564,-16.82943344727984 L3.0342957521388083,-17.044138028954308 L3.189647124113046,-17.25542364704161 L3.349172050909422,-17.46320903037832 L3.512809171151238,-17.667414254168754 L3.680495541703662,-17.867960770728168 L3.8521666618848585,-18.064771439696163 L4.027756498276217,-18.25777055770878 L4.2071975101221195,-18.446883887517842 L4.390420675309578,-18.63203868654636 L4.5773555169176365,-18.81316373486904 L4.767930130326366,-18.990189362607087 L4.962071210875003,-19.163047476726717 L5.159704082058656,-19.33167158723124 L5.3607527242527055,-19.495996832736488 L5.565139803953773,-19.655960005419754 L5.772786703526101,-19.81149957533276 L5.983613551441895,-19.962555714069172 L6.197539253003983,-20.10907031777767 L6.414481521538938,-20.250987029511606 L6.634356910048676,-20.388251260906745 L6.857080843308319,-20.520810213178677 " />
			<path d="M6.857080843308423,-20.52081021317874 L7.033319121170957,-20.6212373752263 L7.211208113253345,-20.71872770623586 L7.390705909787456,-20.813258237966828 L7.571770221978771,-20.904806699492717 L7.7543583919694274,-20.993351522448048 L7.93842740288818,-21.07887184610977 L8.123933888984979,-21.16134752231191 L8.310834145847718,-21.240759120192422 L8.49908414069878,-21.317087930770978 L8.688639522768945,-21.390315971356706 L8.879455633746211,-21.460425989784838 L9.071487518297069,-21.527401468481234 L9.264689934657756,-21.591226628353837 L9.459017365293002,-21.65188643251014 L9.654424027619724,-21.70936658979982 L9.850863884793185,-21.76365355818165 L10.04829065655304,-21.81473454791395 L10.246657830126741,-21.86259752456777 L10.44591867118772,-21.90723121186216 L10.646026234865765,-21.948625094320782 L10.846933376806984,-21.986769419749336 L11.048592764280803,-22.0216552015331 L11.250956887331316,-22.05327422075416 L11.453978069970393,-22.081619028127708 L11.65760848140991,-22.1066829457571 L11.861800147330445,-22.1284600687071 L12.066504961183792,-22.14694526639508 L12.271674695526624,-22.162134183799743 L12.477261013382648,-22.174023242487145 L12.683215479630547,-22.182609641453773 L12.889489572415062,-22.187891357786427 L13.096034694578496,-22.18986714713882 " />
			<path d="M-0.11798229454575204,13.420145619747174 L2.772914404495892,11.740849414125686 " />
			<path d="M3.598129500974725,11.261489296969694 L3.4723361097627135,11.264361358083912 L3.3538800792104633,11.269160049596461 L3.242981163123575,11.275882795459783 L3.139801635370789,11.28451846175101 L3.044458111603907,11.295047077024202 L2.957017885328612,11.30744213635057 L2.877497097269482,11.32167652938699 L2.805933366757095,11.337715195361472 L2.7423731254999373,11.355516555707167 L2.6868755575430585,11.37503226382965 L2.6395176175288073,11.396206811658526 L2.6003999380396783,11.418976500582415 L2.5696536469051274,11.443265191932115 L2.5474355943820894,11.468987107677762 L2.53958276605625,11.482355014828919 L2.5339360766451353,11.496042574753316 L2.5305247724223663,11.510034625505298 L2.5293803081806616,11.524314760114327 " />
			<path d="M2.5293803081806616,11.52431476011433 L2.5329197509354278,11.54988979698299 L2.5436720638689483,11.576183503563286 L2.5618575493172533,11.603080278402357 L2.587715989833701,11.63044160068029 L2.621494816840159,11.658100834910801 L2.6634484121794024,11.68586864479882 L2.713835144386757,11.713531372008099 L2.7729144044958876,11.740849414125686 " />
			<path d="M3.598129500974726,11.261489296969694 L9.379922899058007,7.9028968857267206 " />
			<path d="M10.205137995536848,7.423536768570725 L10.07934460432485,7.4264088296849415 L9.960888573772612,7.431207521197491 L9.849989657685745,7.4379302670608105 L9.74681012993298,7.4465659333520335 L9.651466606166107,7.457094548625225 L9.564026379890809,7.469489607951589 L9.484505591831681,7.483724000988004 L9.412941861319293,7.499762666962484 L9.34938162006213,7.517564027308176 L9.293884052105247,7.537079735430655 L9.246526112090988,7.5582542832595285 L9.207408432601847,7.581023972183416 L9.176662141467277,7.60531266353312 L9.154444088944224,7.631034579278777 L9.14659126061838,7.644402486429937 L9.140944571207262,7.65809004635434 L9.13753326698449,7.672082097106326 L9.136388802742784,7.686362231715356 " />
			<path d="M9.136388802742784,7.686362231715358 L9.139928245497549,7.711937268584013 L9.150680558431066,7.738230975164304 L9.16886604387937,7.765127750003378 L9.194724484395818,7.792489072281314 L9.228503311402276,7.820148306511825 L9.270456906741519,7.847916116399846 L9.320843638948876,7.875578843609126 L9.379922899058013,7.902896885726715 " />
			<path d="M10.205137995536857,7.4235367685707185 L13.096034694578494,5.744240562949235 " />
			<path d="M13.096034694578494,1.814418831148899 L12.908514135917777,1.7801927613979363 L12.72141936579196,1.742227389541636 L12.534820796338835,1.7005370036490497 L12.348788652953667,1.6551372936787647 L12.163392947860235,1.6060453455740866 L11.97870345376209,1.553279634832812 L11.79478967758398,1.4968600195540933 L11.611720834313271,1.4368077329649367 L11.429565820951247,1.3731453754291802 L11.248393190584082,1.305896905941978 L11.06827112658326,1.2350876331129577 L10.889267416945115,1.1607442056414516 L10.711449428779153,1.0828946022873964 L10.534884082954802,1.0015681213416716 L10.359637828916123,0.916795369599857 L10.18577661967388,0.8286082508435157 L10.013365886984461,0.7370399538333601 L9.842470516724996,0.6421249398188476 L9.673154824473901,0.5438989295688792 L9.505482531306043,0.4423988899284659 L9.33951673981163,0.33766301990643655 L9.175319910347897,0.22973073629945517 L9.012953837532477,0.11864265885771985 L8.852479626987328,0.004440594997934255 L8.693957672341929,-0.11283247593072332 L8.537447632504454,-0.23313241882162306 L8.383008409209493,-0.3564139594207081 L8.230698124850658,-0.4826307013652178 L8.080574100606519,-0.61173514364474 L7.932692834868096,-0.7436786984779449 L7.787109981975984,-0.8784117095983426 L7.64388033127514,-1.0158834709421587 L7.503057786495169,-1.1560422457313209 L7.364695345463961,-1.2988352859443033 L7.228845080162241,-1.4442088521675576 L7.095558117126549,-1.592108233820075 L6.964884618208011,-1.7424777697434362 L6.8368737616942115,-1.8952608691495918 L6.711573723801205,-2.050400032918488 L6.589031660542648,-2.2078368752375734 L6.469293689982857,-2.3675121455750148 L6.352404874880534,-2.5293657509783047 L6.238409205729651,-2.6933367786899156 L6.12734958420383,-2.8593635190715165 L6.019267807010522,-3.0273834888280806 L5.914204550161049,-3.197333454523137 L5.812199353662402,-3.369149456376328 L5.713290606636564,-3.5427668323343466 L5.6175155328729485,-3.718120242406189 L5.524910176819429,-3.89514369325349 L5.435509390017222,-4.073770563026767 L5.3493468179846655,-4.253933626438208 L5.266454887554907,-4.435565080061584 L5.186864794672243,-4.618596567849691 L5.110606492651687,-4.802959206859775 L5.037708680906199,-4.988583613177288 L4.968198794145803,-5.175399928028172 L4.902102992052672,-5.363337844069829 L4.839446149436094,-5.552326631850906 L4.780251846870948,-5.742295166429967 L4.724542361823277,-5.933171954143016 L4.672338660266282,-6.124885159509737 L4.623660388789901,-6.317362632268393 L4.578525867206901,-6.510531934529213 L4.53695208165832,-6.704320368036029 L4.498954678220825,-6.898655001525868 L4.464547957018375,-7.093462698176232 L4.433744866840476,-7.288670143129784 L4.406557000268936,-7.484203871086015 L4.3829945893150875,-7.679990293949518 L4.363066501569007,-7.875955728524467 L4.346780236862244,-8.072026424244903 L4.334141924445305,-8.268128590930417 L4.325156320680945,-8.464188426556658 L4.319826807254119,-8.660132145030335 L4.318155389899321,-8.855886003958236 L4.320142697645727,-9.051376332399816 L4.325787982580469,-9.246529558592846 L4.335089120130096,-9.441272237641751 L4.34804260986016,-9.635531079158225 L4.364643576792572,-9.8292329748437 L4.384885773240297,-10.022305026003263 L4.4087615811586165,-10.214674570980668 L4.436262015012138,-10.406269212504201 L4.467376725156482,-10.597016844933023 L4.502094001733285,-10.786845681393734 L4.54040077907716,-10.975684280796978 L4.582282640632885,-11.163461574723929 L4.627723824381009,-11.350106894172542 L4.676707228769793,-11.535549996153446 L4.729214419151292,-11.719721090125503 L4.785225634719138,-11.902550864261137 L4.844719795945425,-12.08397051153149 L4.907674512513875,-12.263911755601573 L4.9740660917463035,-12.44230687652568 L5.0438695475192485,-12.619088736233477 L5.117058609667366,-12.794190803797054 L5.193605733870074,-12.967547180469483 L5.273482112017696,-13.139092624485459 L5.3566576830532515,-13.308762575614706 L5.443101144285794,-13.476493179458892 L5.532779963170988,-13.642221311482897 L5.625660389554579,-13.805884600771373 L5.7217074683740705,-13.967421453501732 L5.82088505281391,-14.126771076124673 L5.923155817909128,-14.283873498243501 L6.028481274592393,-14.438669595183663 L6.136821784179174,-14.591101110244015 L6.2481365732855725,-14.741110676621442 L6.3623837491731505,-14.888641839000552 L6.479520315515037,-15.033639074800309 L6.599502188577385,-15.176047815069687 L6.722284213810058,-15.315814465024427 L6.847820182840305,-15.452886424217137 L6.976062850863025,-15.587212106333173 L7.106963954421111,-15.718740958604897 L7.240474229569165,-15.84742348083698 L7.376543430413714,-15.973211244035486 L7.515120348022975,-16.096056908633905 L7.656152829699084,-16.215914242309125 L7.799587798605497,-16.33273813738076 L7.945371273742177,-16.44648462778717 L8.093448390261038,-16.557110905631845 L8.243763420114064,-16.66457533729395 L8.396259793026278,-16.768837479096923 L8.550880117785653,-16.86985809252924 L8.707566203841989,-16.967599159011606 L8.866259083206554,-17.06202389420501 " />
			<path d="M8.866259083206629,-17.062023894205055 L8.986125078718107,-17.13040120748999 L9.107053257068712,-17.196892239548298 L9.22901820200734,-17.261483015533173 L9.351994279379,-17.324159959986822 L9.475955642512512,-17.384909899693692 L9.600876237652859,-17.443720066449195 L9.726729809437089,-17.500578099743272 L9.853489906412555,-17.555472049358258 L9.9811298865964,-17.608390377880575 L10.109622923075062,-17.6593219631256 L10.238942009642669,-17.70825610047529 L10.3690599664771,-17.755182505128037 L10.499949445852543,-17.800091314260314 L10.631582937887352,-17.84297308909956 L10.76393277632595,-17.883818816908047 L10.89697114435366,-17.92261991287709 L11.03067008044311,-17.959368221931406 L11.165001484231105,-17.994056020443114 L11.299937122424659,-18.026676017855046 L11.435448634734957,-18.057221358213052 L11.57150753983803,-18.085685621606984 L11.708085241360859,-18.112062825519978 L11.845153033891641,-18.136347426085848 L11.982682109013012,-18.158534319254294 L12.120643561356884,-18.17861884186363 L12.25900839467967,-18.19659677262087 L12.39774752795662,-18.212464332988972 L12.536831801493955,-18.22621818798097 L12.67623198305756,-18.237855446860905 L12.815918774016898,-18.247373663751425 L12.955862815502899,-18.25477083814782 L13.096034694578492,-18.260045415338478 " />
			<path d="M10.205137995536841,-16.580749209716988 L13.096034694578494,-18.26004541533848 " />
			<path d="M10.20513799553685,-16.58074920971699 L10.079528397384658,-16.560288129856165 L9.961212944403878,-16.538124726258292 L9.850410652320905,-16.514690363001748 L9.747284446364773,-16.490367772057898 L9.651953093276632,-16.4654931416997 L9.564488991556422,-16.440354776024595 L9.484918874901735,-16.415190775649567 L9.413289696933345,-16.390208587593065 L9.349656522510962,-16.365584142134743 L9.294086202817141,-16.3414642115973 L9.246662077482009,-16.317969042109528 L9.207489586021842,-16.29519553493648 L9.176702853947056,-16.27322143976071 L9.154459292938109,-16.25210221256167 L9.140947481613294,-16.231875232921816 L9.137533867471609,-16.22210334414342 L9.136388800597553,-16.21256083199157 " />
			<path d="M9.136388800597551,-16.212560831991567 L9.139934425601448,-16.19643324331356 L9.150702060939343,-16.180997893937136 L9.168906222488348,-16.166235575283526 L9.19478076032676,-16.152120788438914 L9.228567898032622,-16.138622725392498 L9.270517405806995,-16.125701571806815 L9.3208837262055,-16.113309016016043 L9.379922899058014,-16.101389092561 " />
			<path d="M5.73014766836325,-13.981267090862065 L9.379922899058023,-16.101389092561003 " />
			<path d="M2.772914404495892,11.740849414125687 L2.772914404495892,11.346464263948638 " />
			<path d="M1.7697344181862829,13.55447395824114 L4.660631117227927,11.875177752619651 " />
			<path d="M4.660631117227926,11.875177752619651 L4.7863991837023905,11.857575239932427 L4.904856261307124,11.838234147551626 L5.015743828328489,11.81752381698257 L5.118890962035,11.79577056233853 L5.214221064451384,11.773251414843969 L5.301678300706436,11.750207125112668 L5.381216711335815,11.726845973799783 L5.452793347882315,11.703346732880656 L5.516361520453963,11.67986146629158 L5.571864168577904,11.656518167669333 L5.619227355350018,11.633423235189449 L5.6583516430846545,11.610665224857579 L5.68910125801536,11.588322798590479 L5.711321735048268,11.56645443458293 L5.724823499288198,11.545106362299173 L5.728235564510492,11.534639107918704 L5.729380303881889,11.524314733699406 " />
			<path d="M5.72938030388189,11.524314733699407 L5.725839125426949,11.506634676331227 L5.715081769658595,11.489411727145402 L5.696892896759051,11.47265323168284 L5.671038295488346,11.456361810494153 L5.637265073818236,11.440535369952977 L5.595309252999422,11.425170248522585 L5.544917940149381,11.410265476853587 L5.485846213706762,11.395817635463658 " />
			<path d="M5.48584621370676,11.39581763546366 L11.267639611790043,8.037225224220686 " />
			<path d="M11.267639611790049,8.03722522422068 L11.393407678264449,8.019622711533469 L11.51186475586913,8.000281619152677 L11.622752322890447,7.979571288583634 L11.725899456596956,7.957818033939599 L11.82122955901338,7.9352988864450325 L11.908686795268483,7.912254596713722 L11.988225205897914,7.888893445400824 L12.059801842444454,7.865394204481682 L12.123370015016132,7.841908937892594 L12.178872663140085,7.818565639270338 L12.226235849912193,7.7954707067904545 L12.265360137646816,7.772712696458586 L12.29610975257751,7.750370270191489 L12.318330229610407,7.728501906183946 L12.331831993850326,7.707153833900198 L12.335244059072618,7.696686579519732 L12.336388798444014,7.686362205300438 " />
			<path d="M12.336388798444014,7.686362205300437 L12.332847619989076,7.668682147932263 L12.322090264220726,7.651459198746441 L12.303901391321187,7.63470070328388 L12.278046790050485,7.618409282095194 L12.244273568380377,7.602582841554015 L12.202317747561562,7.58721772012362 L12.151926434711516,7.572312948454619 L12.092854708268886,7.557865107064688 " />
			<path d="M12.092854708268893,7.557865107064684 L14.98375140731053,5.8785689014432005 " />
			<path d="M14.983751407310528,5.878568901443202 L15.190296529473976,5.876593112090809 L15.396570622258483,5.8713113957581555 L15.602525088506376,5.862724996791528 L15.808111406362404,5.850835938104122 L16.013281140705242,5.835647020699463 L16.21798595455858,5.817161823011483 L16.422177620479108,5.795384700061479 L16.62580803191863,5.770320782432091 L16.82882921455771,5.741975975058542 L17.03119333760822,5.7103569558374865 L17.232852725082033,5.675471174053719 L17.433759867023255,5.637326848625165 L17.633867430701304,5.595932966166542 L17.833128271762288,5.5512992788721505 L18.031495445335995,5.503436302218331 L18.228922217095842,5.452355312486034 L18.425362074269295,5.398068344104201 L18.620768736596023,5.3405881868145215 L18.81509616723127,5.279928382658216 L19.008298583591966,5.216103222785613 L19.200330468142827,5.149127744089215 L19.391146579120086,5.079017725661085 L19.580701961190243,5.00578968507536 L19.768951956041313,4.929460874496803 L19.955852212904055,4.850049276616289 L20.141358699000847,4.767573600414149 L20.325427709919595,4.682053276752434 L20.508015879910253,4.593508453797096 L20.689080192101574,4.501959992271207 L20.86857798863568,4.407429460540241 L21.04646698071806,4.309939129530688 L21.222705258580497,4.2095119674831825 " />
			<path d="M21.2227052585806,4.209511967483122 L21.44542919184035,4.076953015211126 L21.66530458035008,3.9396887838159884 L21.882246848885032,3.797772072082056 L22.096172550447125,3.651257468373558 L22.306999398362926,3.500201329637143 L22.514646297935247,3.344661759724138 L22.719033377636308,3.1846985870408755 L22.92008201983036,3.0203733415356293 L23.117714891014025,2.8517492310311017 L23.311855971562654,2.6788911169114744 L23.50243058497138,2.501865489173431 L23.689365426579442,2.320740440850745 L23.872588591766906,2.1355856418222245 L24.0520296036128,1.946472312013169 L24.227619440004155,1.753473194000554 L24.399290560185356,1.5566625250325554 L24.566976930737788,1.3561160084731387 L24.730614050979597,1.151910784682709 L24.89013897777597,0.9441254013460068 L25.04549034975021,0.7328397832586937 L25.19660841088647,0.5181352015842258 L25.343435033514915,0.30009424259283257 L25.4859137406706,0.0788007758946545 L25.623989727817367,-0.14566007782076085 L25.757609883928424,-0.37320197952619605 L25.88672281191559,-0.6037374050671289 L26.011278848399158,-0.8371776788279632 L26.13123008281101,-1.0734330078411656 L26.246530375823404,-1.3124125163261935 L26.357135377096533,-1.5540242806449385 L26.463002542337904,-1.7981753646601977 L26.564091149667007,-2.044771855483651 L26.660362315279052,-2.2937188995995017 L26.75177900840164,-2.544920739349963 L26.83830606553866,-2.798280749768489 L26.91991020399596,-3.053701475746661 L26.99656003468359,-3.311084669520346 L27.06822607418958,-3.57033132846078 L27.134880756120808,-3.831341733155994 L27.1964984417064,-4.094015485767958 L27.253055429659724,-4.3582515486506805 L27.30452996529508,-4.623948283214418 L27.350902248895693,-4.891003489021014 L27.39215444332965,-5.159314443095388 L27.42827068091099,-5.428777939437997 L27.459237069503203,-5.699290328723087 L27.48504169786287,-5.970747558167491 L27.505674640221308,-6.243045211554601 L27.52112796010256,-6.516078549398141 L27.531395713376128,-6.789742549230284 L27.536473950543392,-7.063931945998619 L27.536360718256823,-7.338541272556433 L27.531056060071286,-7.613464900230716 L27.52056201642735,-7.888597079452316 L27.504882623866358,-8.16383198043257 L27.484023913477827,-8.439063733870832 L27.457993908579567,-8.714186471677145 L27.426802621631488,-8.989094367694499 L27.390462050384336,-9.263681678404934 L27.348986173264716,-9.537842783603853 L27.302390943998294,-9.811472227026913 L27.25069428547319,-10.08446475691385 L27.193916082845917,-10.356715366493653 L27.132078175892552,-10.62811933437547 L27.065204350608028,-10.898572264829795 L26.993320330056868,-11.167970127944349 L26.916453764478767,-11.436209299639241 L26.83463422065291,-11.70318660152607 L26.74789317052509,-11.968799340595552 L26.656263979102,-12.232945348718463 L26.559781891617384,-12.495523021944683 L26.45848401997489,-12.756431359585225 L26.352409328472973,-13.015570003062226 L26.241598618817264,-13.27283927451194 L26.12609451442613,-13.528140215125909 L26.00594144403558,-13.78137462321552 L25.881185624609703,-14.032445091985384 L25.751875043563274,-14.281255047000897 L25.618059440303373,-14.52770878333569 L25.47979028709708,-14.771711502384584 L25.337120769272648,-15.013169348327942 L25.190105764761697,-15.251989444233384 L25.03880182299039,-15.488079927780957 L24.883267143127682,-15.721349986598046 L24.723561551698936,-15.951709893190419 L24.559746479573622,-16.179071039455966 L24.391884938335878,-16.403345970767873 L24.22004149604708,-16.624448419614108 L24.044282252409673,-16.842293338780276 L23.864674813341868,-17.056796934063097 L23.681288264973013,-17.267876696501897 L23.494193147069517,-17.475451434115747 L23.303461425901716,-17.679441303134013 L23.109166466561973,-17.879767838708307 L22.911383004744756,-18.076353985094084 L22.710187117999496,-18.26912412529014 L22.50565619646729,-18.458004110124783 L22.297868913112758,-18.64292128677734 L22.0869051934624,-18.823804526724143 L21.872846184861213,-19.000584253098133 L21.65577422525928,-19.17319246745168 L21.43577281154044,-19.341562775912223 L21.212926567405134,-19.505630414720713 L20.987321210819864,-19.66533227514305 L20.75904352104569,-19.820606927744905 L20.528181305258542,-19.971394646020578 L20.29482336477411,-20.117637429366866 L20.059059460890374,-20.259279025393017 L19.82098028036085,-20.39626495155825 L19.58067740051187,-20.52854251612853 L19.33824325401728,-20.65606083844444 L19.093771093344163,-20.778770868492504 L18.847354954883208,-20.89662540577228 L18.59908962277755,-21.00957911745208 L18.34907059246397,-21.117588555806275 L18.097394033940514,-21.22061217492749 L17.84415675477463,-21.31861034670726 L17.589456162866085,-21.411545376079037 L17.33339022897892,-21.499381515517587 L17.076057449056957,-21.582084978789332 L16.81755680633723,-21.659623953948234 L16.557987733276036,-21.731968615572274 L16.29745007330217,-21.79909113623585 L16.036044042412062,-21.860965697213587 L15.773870190621643,-21.91756849841155 L15.5110293632897,-21.968877767521946 L15.247622662327633,-22.01487376839788 L14.983751407310585,-22.055538808644847 " />
			<path d="M13.096034694578494,-20.958980943388006 L14.98375140731053,-22.055538808644854 " />
			<path d="M4.660631117227927,11.875177752619653 L4.660631117227927,10.64429154886884 " />
			<path d="M13.096034694578494,3.045305034899707 L14.98375140731053,1.9487471696428589 " />
			<path d="M14.983751407310525,1.9487471696428607 L15.123923286386116,1.943472592452201 L15.26386732787212,1.936075418055811 L15.40355411883146,1.9265572011652878 L15.542954300395067,1.9149199422853496 L15.682038573932406,1.9011660872933582 L15.820777707209349,1.885298526925256 L15.959142540532127,1.8673205961680122 L16.097103992876,1.8472360735586797 L16.234633067997375,1.8250491803902342 L16.37170086052816,1.8007645798243601 L16.50827856205099,1.7743873759113669 L16.64433746715406,1.7459231125174384 L16.77984897946435,1.715377772159428 L16.914784617657908,1.6827577747474987 L17.049116021445904,1.6480699762357922 L17.182814957535356,1.6113216671814747 L17.31585332556307,1.5725205712124293 L17.448203164001672,1.5316748434039447 L17.57983665603648,1.4887930685646946 L17.710726135411917,1.4438842594324228 L17.840844092246343,1.396957854779675 L17.97016317881395,1.3480237174299834 L18.098656215292618,1.2970921321849573 L18.226296195476465,1.2441738036626404 L18.35305629245193,1.1892798540476512 L18.478909864236158,1.1324218207535832 L18.6038304593765,1.073611653998082 L18.727791822510014,1.0128617142912084 L18.850767899881674,0.950184769837561 L18.972732844820307,0.8855939938526856 L19.093661023170913,0.8191029617943748 L19.213527018682313,0.7507256485094835 " />
			<path d="M19.213527018682388,0.7507256485094391 L19.372219898047028,0.656300913315988 L19.52890598410336,0.5585598468336261 L19.683526308862735,0.4575392334013131 L19.83602268177495,0.3532770915983381 L19.986337711627982,0.24581265993623092 L20.134414828146838,0.1351863820915593 L20.280198303283516,0.021439891685153256 L20.42363327218993,-0.09538400338648323 L20.564665753866045,-0.21524133706170812 L20.703242671475305,-0.3380870016601225 L20.83931187231985,-0.46387476485862766 L20.972822147467905,-0.5925572870907132 L21.103723251025997,-0.7240861393624431 L21.23196591904871,-0.8584118214784731 L21.357501888078957,-0.9954837806711776 L21.480283913311634,-1.1352504306259243 L21.600265786373985,-1.2776591708953067 L21.71740235271587,-1.4226564066950607 L21.831649528603442,-1.5701875690741645 L21.942964317709844,-1.7201971354515964 L22.05130482729663,-1.8726286505119516 L22.156630283979894,-2.027424747452109 L22.258901049075106,-2.184527169570936 L22.35807863351495,-2.34387679219388 L22.454125712334445,-2.5054136449242437 L22.547006138718032,-2.6690769342127147 L22.636684957603222,-2.834805066236716 L22.72312841883577,-3.002535670080908 L22.806303989871324,-3.172205621210156 L22.886180368018948,-3.3437510652261286 L22.962727492221653,-3.5171074418985535 L23.035916554369773,-3.6922095094621348 L23.10572001014272,-3.868991369169935 L23.17211158937515,-4.047386490094043 L23.235066305943597,-4.22732773416412 L23.294560467169887,-4.408747381434476 L23.35057168273773,-4.591577155570115 L23.403078873119227,-4.775748249542168 L23.452062277508013,-4.961191351523067 L23.497503461256137,-5.147836670971684 L23.539385322811867,-5.335613964898638 L23.577692100155737,-5.524452564301878 L23.612409376732543,-5.714281400762586 L23.643524086876887,-5.905029033191415 L23.67102452073041,-6.096623674714952 L23.694900328648725,-6.288993219692354 L23.71514252509645,-6.48206527085191 L23.731743492028865,-6.6757671665373906 L23.744696981758928,-6.870026008053868 L23.753998119308555,-7.064768687102769 L23.759643404243292,-7.259921913295797 L23.761630711989703,-7.455412241737379 L23.759959294634903,-7.651166100665284 L23.75462978120808,-7.847109819138956 L23.745644177443715,-8.043169654765194 L23.733005865026783,-8.23927182145071 L23.71671960032002,-8.435342517171154 L23.696791512573935,-8.631307951746097 L23.673229101620088,-8.827094374609596 L23.64604123504855,-9.022628102565832 L23.61523814487065,-9.217835547519387 L23.5808314236682,-9.412643244169747 L23.5428340202307,-9.606977877659581 L23.50126023468212,-9.800766311166404 L23.456125713099123,-9.99393561342723 L23.407447441622743,-10.186413086185881 L23.35524374006575,-10.3781262915526 L23.299534255018074,-10.569003079265652 L23.240339952452928,-10.758971613844718 L23.17768310983635,-10.94796040162579 L23.11158730774322,-11.135898317667444 L23.04207742098282,-11.32271463251833 L22.969179609237337,-11.50833903883585 L22.89292130721678,-11.692701677845928 L22.81333121433412,-11.875733165634031 L22.730439283904357,-12.057364619257411 L22.644276711871797,-12.237527682668857 L22.554875925069595,-12.41615455244213 L22.462270569016077,-12.593178003289427 L22.366495495252458,-12.768531413361274 L22.26758674822662,-12.942148789319294 L22.165581551727975,-13.113964791172481 L22.060518294878506,-13.283914756867535 L21.952436517685193,-13.451934726624103 L21.841376896159368,-13.617961467005706 L21.727381227008486,-13.781932494717314 L21.61049241190617,-13.943786100120601 L21.490754441346375,-14.103461370458048 L21.36821237808781,-14.260898212777139 L21.242912340194806,-14.41603737654603 L21.11490148368101,-14.568820475952183 L20.98422798476247,-14.719190011875547 L20.850941021726776,-14.867089393528069 L20.71509075642506,-15.012462959751318 L20.576728315393854,-15.155255999964298 L20.43590577061388,-15.295414774753462 L20.292676119913033,-15.432886536097282 L20.147093267020924,-15.567619547217676 L19.9992120012825,-15.69956310205088 L19.849087977038362,-15.828667544330404 L19.69677769267952,-15.954884286274917 L19.542338469384564,-16.078165826874 L19.385828429547093,-16.198465769764894 L19.227306474901688,-16.315738840693555 L19.066832264356538,-16.429940904553344 L18.904466191541122,-16.541028981995076 L18.74026936207739,-16.648961265602054 L18.574303570582977,-16.753697135624087 L18.406631277415116,-16.8551971752645 L18.237315585164026,-16.953423185514467 L18.06642021490456,-17.048338199528978 L17.89400948221514,-17.139906496539137 L17.720148272972892,-17.228093615295478 L17.544902018934216,-17.31286636703729 L17.36833667310987,-17.394192847983014 L17.190518684943903,-17.47204245133707 L17.01151497530575,-17.54638587880858 L16.831392911304935,-17.6171951516376 L16.650220280937774,-17.6844436211248 L16.46806526757575,-17.748105978660554 L16.284996424305042,-17.808158265249713 L16.101082648126933,-17.86457788052843 L15.916393154028793,-17.917343591269702 L15.73099744893536,-17.966435539374384 L15.544965305550193,-18.011835249344664 L15.358366736097066,-18.053525635237257 L15.171271965971245,-18.091491007093552 L14.98375140731057,-18.12571707684451 " />
			<path d="M12.092854708268877,-16.446420871223022 L14.98375140731053,-18.125717076844516 " />
			<path d="M12.092854708268884,-16.446420871223026 L12.1518881674117,-16.41660699456517 L12.202259562897419,-16.38645566233572 L12.244211570655544,-16.356260377905826 L12.277993544127083,-16.326282855578132 L12.303863971664017,-16.296744692688094 L12.322070412863692,-16.26783676871676 L12.332841886337622,-16.239726727445362 L12.336388796812134,-16.2125608240605 " />
			<path d="M12.336388796812134,-16.212560824060503 L12.335243557999336,-16.19749245985338 L12.331829463324892,-16.182796092935227 L12.32617744221765,-16.168491056998672 L12.31831631170541,-16.154595018669653 L12.296071301742936,-16.12809287904923 L12.265281920063336,-16.103401486569613 L12.226103195469769,-16.08061353800701 L12.178674385654906,-16.059809946160918 L12.123100447140162,-16.041049033602754 L12.059462144374383,-16.02437482884606 L11.987824162727602,-16.009818612029015 L11.908241125420899,-15.997398782736909 L11.8207637324632,-15.987120583619497 L11.725445021595036,-15.978975679803257 L11.622346740150205,-15.972941593671926 L11.511551367043998,-15.9689814607843 L11.393230714871073,-15.967044319183195 L11.267639611790058,-15.967060754067033 " />
			<path d="M5.485846213706764,-12.60846834282406 L11.26763961179006,-15.967060754067038 " />
			<path d="M5.48584621370676,-12.608468342824056 L5.544879672849557,-12.578654466166212 L5.5952510683352665,-12.548503133936768 L5.63720307609338,-12.518307849506884 L5.670985049564924,-12.488330327179195 L5.6968554771018685,-12.45879216428915 L5.715061918301558,-12.429884240317806 L5.725833391775498,-12.4017741990464 L5.729380302250011,-12.37460829566153 " />
			<path d="M5.729380302250009,-12.374608295661528 L5.725694045573497,-12.347788747298551 L5.714756171654446,-12.322220357366602 L5.696731582873948,-12.298004063051383 L5.671762778559883,-12.275225079959645 L5.639969461420967,-12.253954705845436 L5.601457570965082,-12.234256130223347 L5.556318851839573,-12.216181042557773 L5.504621858048249,-12.19976749361141 L5.446421914908994,-12.185045223042465 L5.381764594041661,-12.172035646754333 L5.310689251556065,-12.160751767607714 L5.2332326305385735,-12.151198010135527 L5.149432527837283,-12.143369979260635 L5.059331525145785,-12.137254143016376 L4.860465914818332,-12.130058046933462 " />
			<path d="M13.096034694578494,1.8144188311488954 L13.096034694578494,5.744240562949237 " />
			<path d="M13.096034694578494,-22.18986714713882 L13.096034694578494,-18.260045415338478 " />
			<path d="M9.379922899058016,-16.101389092560996 L9.379922899058016,-16.37763005685393 " />
			<path d="M9.379922899058014,7.902896885726718 L9.379922899058014,7.508511735549669 " />
			<path d="M5.48584621370676,11.395817635463661 L5.48584621370676,10.164931431712844 " />
			<path d="M11.26763961179005,8.037225224220684 L11.26763961179005,6.806339020469868 " />
			<path d="M12.092854708268884,7.557865107064688 L12.092854708268884,6.326978903313876 " />
			<path d="M14.98375140731053,1.9487471696428607 L14.98375140731053,5.878568901443202 " />
			<path d="M14.98375140731053,-22.055538808644854 L14.98375140731053,-18.125717076844513 " />
			<path d="M12.092854708268886,-16.446420871223026 L12.092854708268886,-17.67730707497384 " />
			<path d="M11.267639611790052,-15.967060754067031 L11.267639611790052,-17.197946957817848 " />
			<path d="M5.485846213706761,-12.608468342824054 L5.485846213706761,-13.556483198915057 " />
			<path d="M-6.356936145815824,-12.8449051563808 L6.857080843308423,-20.52081021317874 " />
			<path d="M8.008688269456353,11.885417024281058 L21.2227052585806,4.2095119674831185 " />

       </g>
    </g>
    <g transform="translate(20,210.0)" stroke="rgb(0,0,255)">
        <line x1="30" y1="-30" x2="75" y2="-33" stroke-width="3" stroke="#000000" />
         <text x="80" y="-30" style="stroke:#000000">X </text>

        <line x1="30" y1="-30" x2="30" y2="-75" stroke-width="3" stroke="#000000" />
         <text x="25" y="-85" style="stroke:#000000">Y </text>

        <line x1="30" y1="-30" x2="58" y2="-15" stroke-width="3" stroke="#000000" />
         <text x="65" y="-5" style="stroke:#000000">Z </text>
        <!--
            <line x1="0" y1="0" x2="4.337075720542883" y2="0" stroke-width="3" />
            <text x="0" y="20" style="stroke:#000000">1  mm </text>
        -->
    </g>
</svg>
