<?xml version="1.0" encoding="UTF-8" standalone="no"?>
<svg
   xmlns:svg="http://www.w3.org/2000/svg"
   xmlns="http://www.w3.org/2000/svg"
   width="800.0"
   height="240.0"

>
  <defs>
    <style>
      .cq-bg { fill: #ffffff; }
      @media (prefers-color-scheme: dark) {
        .cq-bg { fill: #0d1117; }
        /* CadQuery SVG selectors */
        g[stroke="rgb(0,0,0)"] { stroke: #c9d1d9 !important; }
        g[stroke="rgb(160,160,160)"] { stroke: #484f58 !important; }
        /* OpenSCAD SVG selectors */
        path { stroke: #c9d1d9 !important; }
        polygon { stroke: #c9d1d9 !important; fill: #161b22 !important; }
        /* Common selectors */
        line { stroke: #c9d1d9 !important; }
        text { stroke: #c9d1d9 !important; fill: #c9d1d9 !important; }
      }
    </style>
  </defs>
  <rect width="800.0" height="240.0" class="cq-bg"/>
    <g transform="scale(4.896720182401971, -4.896720182401971)   translate(67.97959300513249,-33.23427017560482)" stroke-width="0.20421832629804743"  fill="none">
       <!-- hidden lines -->
       <g  stroke="rgb(160,160,160)" fill="none" stroke-dasharray="0.20421832629804743,0.20421832629804743" >
			<path d="M10.618406509117694,4.672053006872041 L27.135927745523002,-4.922828314125383 " />
			<path d="M-27.135927745523002,1.9854862369927622 L10.618406509117701,4.672053006872041 " />
			<path d="M10.618406509117694,29.149903649643875 L10.618406509117694,4.672053006872041 " />
			<path d="M21.64009795231906,1.20699245708456 L26.144876471338684,-1.4097933577329167 " />
			<path d="M26.144876471338684,-1.4097933577329171 L26.144876471338684,1.5275487193997028 " />
			<path d="M-11.609457783302013,-4.096360127612195 L26.14487647133869,-1.4097933577329163 " />

       </g>

       <!-- solid lines -->
       <g  stroke="rgb(0,0,0)" fill="none">
			<path d="M-27.135927745523002,1.9854862369927622 L-10.618406509117694,-7.609395084004661 " />
			<path d="M-27.135927745523002,26.463336879764597 L-27.135927745523002,1.985486236992763 " />
			<path d="M-27.135927745523002,26.463336879764597 L-26.144876471338684,25.88764400050475 " />
			<path d="M-26.144876471338684,4.347135434865537 L-26.144876471338684,25.88764400050475 " />
			<path d="M-26.144876471338684,4.347135434865537 L-11.609457783302013,-4.096360127612195 " />
			<path d="M-11.609457783302013,-4.096360127612195 L-11.609457783302013,-1.1590180504795757 " />
			<path d="M-11.609457783302013,-1.1590180504795757 L-10.618406509117694,-1.7347109297394212 " />
			<path d="M-10.618406509117694,-7.609395084004661 L-10.618406509117694,-1.7347109297394212 " />
			<path d="M-10.618406509117694,-7.609395084004661 L27.13592774552301,-4.922828314125383 " />
			<path d="M-27.135927745523002,26.463336879764597 L10.618406509117701,29.149903649643875 " />
			<path d="M10.618406509117694,29.149903649643875 L11.609457783302013,28.574210770384028 " />
			<path d="M11.609457783302013,7.033702204744815 L11.609457783302013,28.574210770384028 " />
			<path d="M11.609457783302013,7.033702204744816 L21.64009795231906,1.20699245708456 " />
			<path d="M26.144876471338684,1.5275487193997037 L27.135927745523002,0.9518558401398582 " />
			<path d="M27.135927745523002,0.9518558401398582 L27.135927745523002,-4.922828314125382 " />
			<path d="M-10.618406509117694,-1.7347109297394212 L27.13592774552301,0.9518558401398578 " />
			<path d="M-11.609457783302013,-1.1590180504795757 L26.14487647133869,1.5275487193997033 " />
			<path d="M-26.144876471338684,4.347135434865537 L11.60945778330202,7.0337022047448166 " />
			<path d="M-26.144876471338684,25.88764400050475 L11.60945778330202,28.574210770384028 " />

       </g>
    </g>
    <g transform="translate(20,210.0)" stroke="rgb(0,0,255)">
        <line x1="30" y1="-30" x2="75" y2="-33" stroke-width="3" stroke="#000000" />
         <text x="80" y="-30" style="stroke:#000000">X </text>

        <line x1="30" y1="-30" x2="30" y2="-75" stroke-width="3" stroke="#000000" />
         <text x="25" y="-85" style="stroke:#000000">Y </text>

        <line x1="30" y1="-30" x2="58" y2="-15" stroke-width="3" stroke="#000000" />
         <text x="65" y="-5" style="stroke:#000000">Z </text>
        <!--
            <line x1="0" y1="0" x2="4.896720182401971" y2="0" stroke-width="3" />
            <text x="0" y="20" style="stroke:#000000">1  mm </text>
        -->
    </g>
</svg>
