<?xml version="1.0" encoding="UTF-8" standalone="no"?>
<svg
   xmlns:svg="http://www.w3.org/2000/svg"
   xmlns="http://www.w3.org/2000/svg"
   width="800.0"
   height="240.0"

>
  <defs>
    <style>
      .cq-bg { fill: #ffffff; }
      @media (prefers-color-scheme: dark) {
        .cq-bg { fill: #0d1117; }
        /* CadQuery SVG selectors */
        g[stroke="rgb(0,0,0)"] { stroke: #c9d1d9 !important; }
        g[stroke="rgb(160,160,160)"] { stroke: #484f58 !important; }
        /* OpenSCAD SVG selectors */
        path { stroke: #c9d1d9 !important; }
        polygon { stroke: #c9d1d9 !important; fill: #161b22 !important; }
        /* Common selectors */
        line { stroke: #c9d1d9 !important; }
        text { stroke: #c9d1d9 !important; fill: #c9d1d9 !important; }
      }
    </style>
  </defs>
  <rect width="800.0" height="240.0" class="cq-bg"/>
    <g transform="scale(1.9098303150523133, -1.9098303150523133)   translate(164.65635098840912,-56.34940537581219)" stroke-width="0.523606726795835"  fill="none">
       <!-- hidden lines -->
       <g  stroke="rgb(160,160,160)" fill="none" stroke-dasharray="0.523606726795835,0.523606726795835" >
			<path d="M64.22956115070748,-39.84209048898809 L59.9350056292421,45.87727083989547 " />
			<path d="M64.22956115070748,-39.84209048898809 L59.9350056292421,-37.34742134552876 " />
			<path d="M59.935005629242106,-37.34742134552876 L59.935005629242106,45.87727083989547 " />
			<path d="M-57.056237642325755,34.947828753341135 L-53.752733395044686,32.92616492059148 " />
			<path d="M59.038340190694385,41.05497071415599 L59.038340190694385,43.20902157071992 " />
			<path d="M59.038340190694385,43.20902157071992 L-57.05623764232577,34.947828753341135 " />
			<path d="M-57.056237642325755,34.947828753341135 L-57.056237642325755,-44.360407329239614 " />
			<path d="M-57.056237642325755,-44.360407329239614 L-53.752733395044686,-44.12533273687518 " />
			<path d="M-59.935005629242106,-45.87727083989547 L64.2295611507075,-39.84209048898809 " />
			<path d="M-59.935005629242106,-45.87727083989547 L59.93500562924212,-37.34742134552876 " />
			<path d="M62.34184443797545,41.29004530652044 L59.03834019069439,43.209021570719926 " />
			<path d="M-53.752733395044686,-46.27938359343909 L-57.05623764232575,34.94782875334114 " />
			<path d="M-57.056237642325755,34.947828753341135 L-53.75273339504469,33.02885248914165 " />
			<path d="M-53.752733395044686,-46.27938359343909 L-57.05623764232575,-44.36040732923961 " />
			<path d="M-57.056237642325755,34.947828753341135 L62.34184443797545,41.29004530652043 " />
			<path d="M-59.935005629242106,-45.87727083989547 L59.93500562924212,45.87727083989549 " />

       </g>

       <!-- solid lines -->
       <g  stroke="rgb(0,0,0)" fill="none">
			<path d="M59.935005629242106,45.87727083989547 L64.22956115070748,43.38260169643614 " />
			<path d="M64.22956115070748,43.38260169643614 L64.22956115070748,-39.84209048898809 " />
			<path d="M64.22956115070748,43.38260169643614 L62.341844437975446,41.290045306520426 " />
			<path d="M62.34184443797545,41.29004530652044 L64.22956115070748,-39.84209048898808 " />
			<path d="M64.22956115070748,43.38260169643614 L-53.7527333950447,33.02885248914165 " />
			<path d="M-53.752733395044686,33.028852489141656 L62.34184443797547,41.29004530652044 " />
			<path d="M-53.752733395044686,33.028852489141656 L-55.64045010777672,34.85275220206944 " />
			<path d="M-55.64045010777673,34.852752202069425 L-53.75273339504469,-46.27938359343909 " />
			<path d="M-53.752733395044686,-46.27938359343909 L-53.752733395044686,33.028852489141656 " />
			<path d="M64.22956115070748,43.38260169643614 L-55.64045010777674,34.852752202069425 " />
			<path d="M62.34184443797545,-38.01819077606031 L64.22956115070748,-39.84209048898809 " />
			<path d="M62.34184443797545,41.29004530652044 L62.34184443797545,-38.01819077606031 " />
			<path d="M-53.752733395044686,-46.27938359343909 L64.2295611507075,-39.84209048898809 " />
			<path d="M62.34184443797545,-38.01819077606031 L-53.7527333950447,-46.27938359343909 " />
			<path d="M-53.752733395044686,-46.27938359343909 L-55.64045010777672,-48.37193998335481 " />
			<path d="M-55.64045010777673,-48.37193998335481 L64.2295611507075,-39.84209048898809 " />
			<path d="M-55.64045010777673,34.852752202069425 L-55.64045010777673,-48.37193998335481 " />
			<path d="M-53.752733395044686,32.92616492059148 L59.038340190694385,-36.099214511860815 " />
			<path d="M59.038340190694385,-36.09921451186083 L59.038340190694385,41.05497071415599 " />
			<path d="M-53.752733395044686,-44.12533273687518 L59.0383401906944,-36.09921451186083 " />
			<path d="M-59.935005629242106,-45.87727083989547 L-55.64045010777672,34.85275220206944 " />
			<path d="M-55.64045010777673,34.852752202069425 L-59.93500562924211,37.34742134552876 " />
			<path d="M-59.935005629242106,37.34742134552876 L-59.935005629242106,-45.87727083989547 " />
			<path d="M-59.935005629242106,-45.87727083989547 L-55.64045010777673,-48.37193998335481 " />
			<path d="M59.935005629242106,45.87727083989547 L-55.640450107776736,34.85275220206943 " />
			<path d="M59.935005629242106,45.87727083989547 L-59.93500562924212,37.34742134552876 " />
			<path d="M59.038340190694385,-36.09921451186083 L62.341844437975446,41.29004530652043 " />
			<path d="M59.038340190694385,-36.09921451186083 L62.341844437975446,-38.018190776060315 " />
			<path d="M59.038340190694385,-36.09921451186083 L-53.7527333950447,-46.27938359343909 " />

       </g>
    </g>
    <g transform="translate(20,210.0)" stroke="rgb(0,0,255)">
        <line x1="30" y1="-30" x2="75" y2="-33" stroke-width="3" stroke="#000000" />
         <text x="80" y="-30" style="stroke:#000000">X </text>

        <line x1="30" y1="-30" x2="30" y2="-75" stroke-width="3" stroke="#000000" />
         <text x="25" y="-85" style="stroke:#000000">Y </text>

        <line x1="30" y1="-30" x2="58" y2="-15" stroke-width="3" stroke="#000000" />
         <text x="65" y="-5" style="stroke:#000000">Z </text>
        <!--
            <line x1="0" y1="0" x2="1.9098303150523133" y2="0" stroke-width="3" />
            <text x="0" y="20" style="stroke:#000000">1  mm </text>
        -->
    </g>
</svg>
