<?xml version="1.0" standalone="no"?>
<!DOCTYPE svg PUBLIC "-//W3C//DTD SVG 1.1//EN" "http://www.w3.org/Graphics/SVG/1.1/DTD/svg11.dtd">
<svg width="36mm" height="29mm" viewBox="-17 -13 36 29" xmlns="http://www.w3.org/2000/svg" version="1.1">
  <defs>
    <style>
      .cq-bg { fill: #ffffff; }
      @media (prefers-color-scheme: dark) {
        .cq-bg { fill: #0d1117; }
        /* CadQuery SVG selectors */
        g[stroke="rgb(0,0,0)"] { stroke: #c9d1d9 !important; }
        g[stroke="rgb(160,160,160)"] { stroke: #484f58 !important; }
        /* OpenSCAD SVG selectors */
        path { stroke: #c9d1d9 !important; }
        polygon { stroke: #c9d1d9 !important; fill: #161b22 !important; }
        /* Common selectors */
        line { stroke: #c9d1d9 !important; }
        text { stroke: #c9d1d9 !important; fill: #c9d1d9 !important; }
      }
    </style>
  </defs>
  <rect width="36mm" height="29mm" class="cq-bg"/>
<title>OpenSCAD Model</title>
<path d="
M -3.70447,15.7185 L -2.11113,15.5502 L -0.480835,15.2679 L 1.17075,14.8744 L 2.82774,14.3733 L 4.47418,13.7696
 L 6.09421,13.0691 L 7.6722,12.2784 L 9.19298,11.4052 L 10.6419,10.4579 L 12.005,9.44568 L 13.2691,8.37823
 L 14.4222,7.26584 L 15.453,6.1192 L 16.3516,4.9494 L 17.1095,3.76768 L 17.7193,2.58542 L 18.175,1.414
 L 18.4724,0.26474 L 18.6086,-0.851318 L 18.5822,-1.92345 L 18.3936,-2.94131 L 18.0445,-3.8951 L 16.3135,-7.60712
 L 15.8073,-8.48764 L 15.1488,-9.28641 L 14.3445,-9.99576 L 13.402,-10.6088 L 12.3304,-11.1198 L 11.1401,-11.5236
 L 9.8425,-11.8165 L 8.45009,-11.9955 L 6.97635,-12.059 L 5.43541,-12.0064 L 3.84207,-11.8382 L 2.21178,-11.5559
 L 0.560181,-11.1624 L -1.0968,-10.6613 L -2.74324,-10.0576 L -4.36327,-9.35706 L -5.94125,-8.56636 L -7.46204,-7.69316
 L -8.91093,-6.7459 L -10.274,-5.73366 L -11.5382,-4.66621 L -12.6913,-3.55382 L -13.7221,-2.40718 L -14.6207,-1.23738
 L -15.3786,-0.0556641 L -15.9884,1.12659 L -16.4441,2.298 L -16.7415,3.44725 L -16.8776,4.56334 L -16.8513,5.63547
 L -16.6626,6.65332 L -16.3135,7.60712 L -14.5826,11.3191 L -14.0763,12.1996 L -13.4179,12.9984 L -12.6135,13.7078
 L -11.671,14.3209 L -10.5995,14.8318 L -9.40919,15.2357 L -8.11156,15.5285 L -6.71915,15.7075 L -5.24541,15.771
 z
M -5.47147,9.45772 L -6.62732,9.40791 L -7.71933,9.26749 L -8.73705,9.03781 L -9.67056,8.72108 L -9.91612,8.60406
 L -10.511,8.3204 L -11.0343,7.98004 L -11.2502,7.83955 L -11.4344,7.67703 L -11.881,7.28322 L -12.2494,6.83635
 L -12.2187,6.58441 L -11.971,5.6273 L -11.9709,5.6268 L -11.5911,4.65074 L -11.083,3.66563 L -10.4519,2.68149
 L -10.4516,2.68097 L -10.4512,2.68045 L -9.70274,1.70625 L -8.84384,0.750824 L -7.8831,-0.176056 L -7.88251,-0.176514
 L -6.82977,-1.06549 L -5.69397,-1.90891 L -4.48669,-2.69824 L -3.21881,-3.42616 L -1.90468,-4.08459 L -0.555573,-4.66806
 L 0.817017,-5.1714 L 2.19771,-5.58885 L 3.57387,-5.91679 L 4.93156,-6.15182 L 4.9323,-6.15198 L 6.25989,-6.29214
 L 7.54387,-6.33598 L 8.7719,-6.28308 L 9.93207,-6.13385 L 11.0133,-5.88985 L 12.0051,-5.55338 L 12.0056,-5.55313
 L 12.898,-5.12767 L 13.1107,-4.98927 L 13.2162,-4.41983 L 13.2309,-3.82458 L 13.237,-3.57898 L 13.1302,-2.70366
 L 12.9651,-2.0656 L 12.8969,-1.80226 L 12.7925,-1.53392 L 12.5394,-0.88356 L 12.0612,0.0436707 L 11.4668,0.970459
 L 10.762,1.88791 L 9.95358,2.7872 L 9.04927,3.65962 L 8.75966,3.90422 L 8.05782,4.49686 L 6.98875,5.29074
 L 6.6568,5.50774 L 5.85239,6.03366 L 4.65965,6.71849 L 3.42206,7.33864 L 2.15149,7.88808 L 0.860199,8.36154
 L -0.439331,8.75452 L -1.73466,9.06317 L -2.63979,9.21988 L -3.01331,9.2845 L -3.37833,9.32307 L -4.26291,9.41647
 z
" stroke="black" fill="lightgray" stroke-width="0.5"/>
</svg>
