<?xml version="1.0" standalone="no"?>
<!DOCTYPE svg PUBLIC "-//W3C//DTD SVG 1.1//EN" "http://www.w3.org/Graphics/SVG/1.1/DTD/svg11.dtd">
<svg width="36mm" height="36mm" viewBox="-18 -18 36 36" xmlns="http://www.w3.org/2000/svg" version="1.1">
  <defs>
    <style>
      .cq-bg { fill: #ffffff; }
      @media (prefers-color-scheme: dark) {
        .cq-bg { fill: #0d1117; }
        /* CadQuery SVG selectors */
        g[stroke="rgb(0,0,0)"] { stroke: #c9d1d9 !important; }
        g[stroke="rgb(160,160,160)"] { stroke: #484f58 !important; }
        /* OpenSCAD SVG selectors */
        path { stroke: #c9d1d9 !important; }
        polygon { stroke: #c9d1d9 !important; fill: #161b22 !important; }
        /* Common selectors */
        line { stroke: #c9d1d9 !important; }
        text { stroke: #c9d1d9 !important; fill: #c9d1d9 !important; }
      }
    </style>
  </defs>
  <rect width="36mm" height="36mm" class="cq-bg"/>
<title>OpenSCAD Model</title>
<path d="
M 1.7643,17.9133 L 3.51163,17.6541 L 5.22511,17.2249 L 6.88829,16.6298 L 8.48514,15.8746 L 10.0003,14.9665
 L 11.4191,13.9142 L 12.7279,12.7279 L 13.9142,11.4191 L 14.9665,10.0003 L 15.8746,8.48514 L 16.6298,6.88829
 L 17.2249,5.22511 L 17.6541,3.51163 L 17.9133,1.7643 L 18,-0 L 17.9133,-1.7643 L 17.6541,-3.51163
 L 17.2249,-5.22511 L 16.6298,-6.88829 L 15.8746,-8.48514 L 14.9665,-10.0003 L 13.9142,-11.4191 L 12.7279,-12.7279
 L 11.4191,-13.9142 L 10.0003,-14.9665 L 8.48514,-15.8746 L 6.88829,-16.6298 L 5.22511,-17.2249 L 3.51163,-17.6541
 L 1.7643,-17.9133 L 0,-18 L -1.7643,-17.9133 L -3.51163,-17.6541 L -5.22511,-17.2249 L -6.88829,-16.6298
 L -8.48514,-15.8746 L -10.0003,-14.9665 L -11.4191,-13.9142 L -12.7279,-12.7279 L -13.9142,-11.4191 L -14.9665,-10.0003
 L -15.8746,-8.48514 L -16.6298,-6.88829 L -17.2249,-5.22511 L -17.6541,-3.51163 L -17.9133,-1.7643 L -18,-0
 L -17.9133,1.7643 L -17.6541,3.51163 L -17.2249,5.22511 L -16.6298,6.88829 L -15.8746,8.48514 L -14.9665,10.0003
 L -13.9142,11.4191 L -12.7279,12.7279 L -11.4191,13.9142 L -10.0003,14.9665 L -8.48514,15.8746 L -6.88829,16.6298
 L -5.22511,17.2249 L -3.51163,17.6541 L -1.7643,17.9133 L 0,18 z
" stroke="black" fill="lightgray" stroke-width="0.5"/>
</svg>
