<?xml version="1.0" standalone="no"?>
<!DOCTYPE svg PUBLIC "-//W3C//DTD SVG 1.1//EN" "http://www.w3.org/Graphics/SVG/1.1/DTD/svg11.dtd">
<svg width="38mm" height="39mm" viewBox="-17 -13 38 39" xmlns="http://www.w3.org/2000/svg" version="1.1">
  <defs>
    <style>
      .cq-bg { fill: #ffffff; }
      @media (prefers-color-scheme: dark) {
        .cq-bg { fill: #0d1117; }
        /* CadQuery SVG selectors */
        g[stroke="rgb(0,0,0)"] { stroke: #c9d1d9 !important; }
        g[stroke="rgb(160,160,160)"] { stroke: #484f58 !important; }
        /* OpenSCAD SVG selectors */
        path { stroke: #c9d1d9 !important; }
        polygon { stroke: #c9d1d9 !important; fill: #161b22 !important; }
        /* Common selectors */
        line { stroke: #c9d1d9 !important; }
        text { stroke: #c9d1d9 !important; fill: #c9d1d9 !important; }
      }
    </style>
  </defs>
  <rect width="38mm" height="39mm" class="cq-bg"/>
<title>OpenSCAD Model</title>
<path d="
M 0.289673,25.9396 L 0.629639,25.8696 L 0.969559,25.7413 L 1.28639,25.5633 L 1.5585,25.3479 L 1.76736,25.1097
 L 1.89873,24.865 L 1.93565,24.6721 L 2.48486,24.6533 L 3.78606,24.5159 L 5.11748,24.2854 L 6.46628,23.964
 L 7.81949,23.5548 L 9.16409,23.0618 L 10.4871,22.4897 L 11.7758,21.8439 L 13.0178,21.1308 L 14.201,20.3572
 L 15.3142,19.5306 L 16.3466,18.6588 L 17.2883,17.7504 L 17.6557,17.3417 L 17.8272,17.4374 L 18.0991,17.4941
 L 18.4158,17.4872 L 18.7558,17.4172 L 19.0957,17.2889 L 19.4125,17.111 L 19.6847,16.8956 L 19.8935,16.6574
 L 20.0248,16.4126 L 20.0698,16.178 L 20.0252,15.9695 L 19.5042,14.8523 L 19.9809,13.928 L 20.3531,12.9714
 L 20.596,12.0328 L 20.7072,11.1213 L 20.6856,10.2458 L 20.5316,9.41451 L 20.2465,8.63557 L 19.8331,7.91649
 L 16.9129,4.07422 L 17.1095,3.76768 L 17.7193,2.58542 L 18.175,1.414 L 18.4724,0.26474 L 18.6086,-0.851318
 L 18.5822,-1.92345 L 18.3936,-2.94131 L 18.0445,-3.8951 L 16.3135,-7.60712 L 15.8073,-8.48764 L 15.1488,-9.28641
 L 14.3445,-9.99576 L 13.402,-10.6088 L 12.3304,-11.1198 L 11.1401,-11.5236 L 9.8425,-11.8165 L 8.45009,-11.9955
 L 6.97635,-12.059 L 5.43541,-12.0064 L 3.84207,-11.8382 L 2.21178,-11.5559 L 0.560181,-11.1624 L -1.0968,-10.6613
 L -2.74324,-10.0576 L -4.36327,-9.35706 L -5.94125,-8.56636 L -7.46204,-7.69316 L -8.91093,-6.7459 L -10.274,-5.73366
 L -11.5382,-4.66621 L -12.6913,-3.55382 L -13.7221,-2.40718 L -14.6207,-1.23738 L -15.3786,-0.0556641 L -15.9884,1.12659
 L -16.4441,2.298 L -16.7415,3.44725 L -16.8776,4.56334 L -16.8513,5.63547 L -16.6626,6.65332 L -16.3135,7.60712
 L -14.5826,11.3191 L -14.0763,12.1996 L -13.4179,12.9984 L -12.6135,13.7078 L -11.671,14.3209 L -10.5995,14.8318
 L -9.40919,15.2357 L -8.11156,15.5285 L -7.75038,15.5749 L -6.68405,20.2816 L -6.39894,21.0606 L -5.9855,21.7796
 L -5.44774,22.432 L -4.79088,23.0113 L -4.02116,23.512 L -3.14603,23.9292 L -2.17398,24.259 L -1.15958,24.488
 L -0.638626,25.6051 L -0.507553,25.7733 L -0.29892,25.8898 L -0.0269775,25.9464 z
" stroke="black" fill="lightgray" stroke-width="0.5"/>
</svg>
