<?xml version="1.0" encoding="UTF-8" standalone="no"?>
<svg
   xmlns:svg="http://www.w3.org/2000/svg"
   xmlns="http://www.w3.org/2000/svg"
   width="800.0"
   height="240.0"

>
  <defs>
    <style>
      .cq-bg { fill: #ffffff; }
      @media (prefers-color-scheme: dark) {
        .cq-bg { fill: #0d1117; }
        /* CadQuery SVG selectors */
        g[stroke="rgb(0,0,0)"] { stroke: #c9d1d9 !important; }
        g[stroke="rgb(160,160,160)"] { stroke: #484f58 !important; }
        /* OpenSCAD SVG selectors */
        path { stroke: #c9d1d9 !important; }
        polygon { stroke: #c9d1d9 !important; fill: #161b22 !important; }
        /* Common selectors */
        line { stroke: #c9d1d9 !important; }
        text { stroke: #c9d1d9 !important; fill: #c9d1d9 !important; }
      }
    </style>
  </defs>
  <rect width="800.0" height="240.0" class="cq-bg"/>
    <g transform="scale(4.454614793024826, -4.454614793024826)   translate(75.1007277264606,-24.69349317751142)" stroke-width="0.22448630161374022"  fill="none">
       <!-- hidden lines -->
       <g  stroke="rgb(160,160,160)" fill="none" stroke-dasharray="0.22448630161374022,0.22448630161374022" >
			<path d="M-30.20346740371256,-12.527862088438681 L-18.40523794913734,-11.688309972851407 " />
			<path d="M-18.40523794913734,-11.688309972851407 L-18.36678816463142,-11.709167674800366 L-18.32388055881408,-11.729662850477409 L-18.276597535080324,-11.749756139213847 L-18.22502989974776,-11.769408952158656 L-18.109444972014114,-11.807243097388806 L-17.978013265587723,-11.842874786141197 L-17.831743945972114,-11.87603042940067 L-17.671760105574695,-11.906455449848448 L-17.49929014032245,-11.933916236570433 L-17.315658317730875,-11.958201938780208 L-17.122274608846894,-11.97912608478411 L-16.92062386213862,-11.996528013757498 L-16.71225440245758,-12.010274109338752 L-16.498766142613373,-12.02025882556909 L-16.28179829884308,-12.026405497300843 L-16.063016804499167,-12.028666928851608 L-15.844101518596666,-12.027025756384525 L-15.626733327435657,-12.02149458123213 L-15.412581238335962,-12.012115873140193 L-15.20328956458167,-11.998961644174381 L-15.00046529997261,-11.982132895793619 L-14.805665779924158,-11.961758843335627 L-14.620386723856544,-11.937995923869257 L-14.44605075068718,-11.911026595031565 L-14.2839964556069,-11.88105793407245 L-14.13546813201141,-11.848320047863751 L-14.001606217505493,-11.813064306081165 L-13.883438537337929,-11.775561411125013 L-13.781872412502251,-11.736099319599537 L-13.73756378645671,-11.7157277378407 L-13.697687693099304,-11.694981031310087 L-13.662320713852125,-11.673899043737517 L-13.631530770453185,-11.65252226275487 L-13.60537699451376,-11.63089174214023 L-13.583909613957045,-11.609049022974723 L-13.567169856556207,-11.587036053863525 L-13.555189870757076,-11.5648951103742 L-13.547992663937553,-11.542668713847133 L-13.545592058222297,-11.520399549733957 " />
			<path d="M-13.545592058222297,-11.520399549733952 L-13.547805597393387,-11.499015240217181 L-13.554442295102128,-11.477668798705821 L-13.565490398876241,-11.456398026147431 L-13.580930344387353,-11.435240589492613 L-13.600734790096112,-11.414233954993207 L-13.624868665669448,-11.393415321855866 L-13.653289234084216,-11.372821556368539 L-13.685946167307254,-11.352489126616497 " />
			<path d="M-13.68594616730725,-11.352489126616497 L0.47192917818301083,-10.345026587911768 " />
			<path d="M0.4719291781830073,-10.345026587911768 L0.5103789626889297,-10.365884289860727 L0.5532865685062696,-10.38637946553777 L0.6005695922400247,-10.406472754274208 L0.6521372275725872,-10.426125567219017 L0.767722155306235,-10.463959712449167 L0.8991538617326258,-10.499591401201558 L1.0454231813482338,-10.532747044461031 L1.2054070217456518,-10.563172064908809 L1.3778769869978975,-10.590632851630794 L1.561508809589472,-10.61491855384057 L1.754892518473454,-10.63584269984447 L1.9565432651817272,-10.653244628817859 L2.164912724862766,-10.666990724399113 L2.378400984706975,-10.676975440629452 L2.5953688284772687,-10.683122112361204 L2.8141503228211824,-10.68538354391197 L3.0330656087236814,-10.683742371444886 L3.250433799884692,-10.67821119629249 L3.464585888984386,-10.668832488200554 L3.6738775627386784,-10.655678259234742 L3.8767018273477385,-10.63884951085398 L4.07150134739619,-10.618475458395988 L4.256780403463803,-10.594712538929619 L4.4311163766331685,-10.567743210091926 L4.593170671713449,-10.537774549132811 L4.741698995308939,-10.505036662924113 L4.875560909814856,-10.469780921141526 L4.993728589982419,-10.432278026185374 L5.095294714818097,-10.392815934659899 L5.139603340863639,-10.372444352901061 L5.179479434221045,-10.351697646370448 L5.214846413468223,-10.330615658797878 L5.245636356867163,-10.30923887781523 L5.271790132806588,-10.287608357200591 L5.293257513363303,-10.265765638035084 L5.309997270764141,-10.243752668923886 L5.321977256563272,-10.221611725434562 L5.329174463382796,-10.199385328907494 L5.331575069098051,-10.177116164794318 " />
			<path d="M5.331575069098051,-10.177116164794313 L5.329361529926961,-10.155731855277542 L5.322724832218221,-10.134385413766182 L5.311676728444107,-10.113114641207792 L5.296236782932995,-10.091957204552974 L5.276432337224236,-10.070950570053569 L5.2522984616509,-10.050131936916227 L5.223877893236132,-10.0295381714289 L5.191220960013094,-10.009205741676858 " />
			<path d="M5.191220960013098,-10.009205741676857 L16.989450414588312,-9.169653626089582 " />
			<path d="M16.989450414588312,-9.169653626089584 L30.20346740371256,-16.84555868288752 " />
			<path d="M16.989450414588312,-9.169653626089584 L16.989450414588312,20.20376714523662 " />
			<path d="M5.191220960013094,-10.009205741676858 L5.191220960013094,-7.071863664544239 " />
			<path d="M5.191220960013098,-7.071863664544236 L0.47192917818300906,-7.407684510779147 " />
			<path d="M0.4719291781830073,-10.345026587911768 L0.4719291781830073,-7.4076845107791485 " />
			<path d="M-13.685946167307254,-11.352489126616497 L-13.685946167307254,-8.415147049483878 " />
			<path d="M-13.685946167307252,-8.415147049483876 L-18.40523794913734,-8.750967895718786 " />
			<path d="M-18.40523794913734,-11.688309972851407 L-18.40523794913734,-8.750967895718787 " />
			<path d="M-16.98945041458832,3.099146666682167 L-16.988158518567538,2.929339343836537 L-16.984283152008633,2.7597581400034774 L-16.97782527934187,2.590445257447969 L-16.968786507684356,2.421442831660078 L-16.957169086440082,2.252792920869085 L-16.942975906740124,2.084537495576788 L-16.926210500723176,1.9167184281126652 L-16.906877040656504,1.7493774822134416 L-16.88498033789766,1.5825563026297047 L-16.860525841697083,1.4162964047621163 L-16.833519637842038,1.2506391643298254 L-16.803968447142047,1.0856258070736278 L-16.771879623756362,0.9212973984964714 L-16.737261153363807,0.7576948336438103 L-16.70012165117542,0.5948588269264081 L-16.66047035979048,0.43282990198807303 L-16.618317146896366,0.2716483816208797 L-16.573672502812876,0.11135437773036783 L-16.52654753788158,-0.04801221864677352 L-16.476953979700887,-0.20641174727005618 L-16.424904170207498,-0.36380478856510434 L-16.370411062604962,-0.5201521734336843 L-16.313488218140115,-0.6754149930013926 L-16.254149802728243,-0.829554608300556 L-16.192410583427666,-0.9825326598860387 L-16.12828592476484,-1.1343110773814131 L-16.061791784910678,-1.2848520889531927 L-15.992944711709203,-1.434118230710847 L-15.92176183855939,-1.5820723560300913 L-15.848260880151347,-1.7286776447972723 L-15.772460128057789,-1.8738976125724771 L-15.694378446181979,-2.0176961196691177 L-15.614035266063222,-2.160037380147713 L-15.531450582041092,-2.3008859707216343 L-15.446644946279616,-2.4402068395726144 L-15.359639463652623,-2.577965315073788 L-15.27045578649155,-2.714127114418148 L-15.179116109197007,-2.848658352150206 L-15.085643162715442,-2.9815255485987966 L-14.990060208882275,-3.112695638208874 L-14.892391034632926,-3.2421359777702805 L-14.792659946083148,-3.3698143545413664 L-14.690891762480172,-3.4956989942655254 L-14.587111810026153,-3.619758569078581 L-14.481345915575432,-3.7419622053050987 L-14.373620400207237,-3.8622794911416523 L-14.263962072675366,-3.980680484225172 L-14.152398222736528,-4.09713571908442 L-14.038956614358948,-4.211616214472855 L-13.923665478812985,-4.324093480580942 L-13.806553507645477,-4.4345395261261515 L-13.687649845539468,-4.542926865318945 L-13.566984083061243,-4.649228524702933 L-13.444586249296371,-4.753418049867518 L-13.320486804376603,-4.8554695120314 L-13.194716631899514,-4.955357514495242 L-13.06730703124277,-5.053057198961959 L-12.938289709774896,-5.148544251722962 L-12.807696774964546,-5.241794909708945 L-12.675560726390161,-5.33278596640357 L-12.54191444765209,-5.421494777618705 L-12.406791198189106,-5.507899267129682 L-12.27022460500142,-5.591977932169225 L-12.132248654282272,-5.673709848778625 " />
			<path d="M-12.132248654282192,-5.673709848778671 L-11.896687494527345,-5.806051949021187 L-11.657389582757906,-5.93158130067159 L-11.414523964572654,-6.050209226882444 L-11.168262205880978,-6.161851926133419 L-10.918778271704753,-6.266430531430631 L-10.66624840328539,-6.363871166020115 L-10.410850993582947,-6.454104995576081 L-10.1527664612552,-6.537068276827082 L-9.892177123205709,-6.612702402585732 L-9.629267065790934,-6.68095394315019 L-9.364222014777354,-6.741774684048144 L-9.09722920414048,-6.795121660096619 L-8.828477243798421,-6.840957185753599 L-8.558155986373475,-6.879248881739958 L-8.286456393075813,-6.909969697912928 L-8.013570398804065,-6.933097932374965 L-7.739690776558038,-6.948617246804455 L-7.465011001259399,-6.956516677997493 L-7.189725113076513,-6.95679064561255 L-6.914027580349944,-6.949438956112543 L-6.638113162215519,-6.934466802901561 L-6.3621767710219475,-6.911884762656118 L-6.086413334640225,-6.881708787853562 L-5.811017658762049,-6.843960195502847 L-5.536184289284563,-6.798665652085724 L-5.2621073748786165,-6.745857154718912 L-4.988980529837644,-6.685572008550594 L-4.716996697304024,-6.617852800407187 L-4.44634801296958,-6.542747368709032 L-4.17722566934645,-6.460308769676212 L-3.909819780704275,-6.3705952398484165 L-3.644319248769071,-6.2736701549452984 " />
			<path d="M3.6443192487690617,6.2736701549452984 L3.5969855994852526,6.55231783605325 L3.5424436119472613,6.829048026509724 L3.480731815880951,7.103665237685513 L3.411893805931342,7.375975473609013 L3.3359782108663403,7.645786368009466 L3.2530386592242326,7.9129073202089835 L3.1631337414292595,8.177149629767278 L3.0663269684019667,8.438326629784042 L2.962686726693626,8.696253818764763 L2.8522862301763823,8.95074899095686 L2.7352034683232844,9.201632365064086 L2.6115211511146867,9.448726711248181 L2.481326650610036,9.691857476328142 L2.344711939226194,9.930852907088662 L2.2017735247659918,10.16554417161056 L2.0526123822428914,10.39576547853759 L1.8973338825498711,10.621354194195302 L1.736047718022995,10.842150957479229 L1.568867824952207,11.057999792431275 L1.3959123030940734,11.268748218424763 L1.2173033322433913,11.474247357880277 L1.0331670859225364,11.674352041436237 L0.8436336422495527,11.86892091049992 L0.6488368920479637,12.057816517106446 L0.4489144442631794,12.240905421015192 L0.24400752875235465,12.418058283975096 L0.03426089651631958,12.589149961092197 L-0.18017728255587429,12.754059589234888 L-0.39915552435759594,12.912670672414428 L-0.6225191375765338,13.064871164080431 L-0.8501103329722275,13.21055354627314 L-1.0817683348420148,13.349614905576585 " />
			<path d="M-1.081768334842054,13.349614905576608 L-1.2289362053994495,13.433338892383462 L-1.3775960272802354,13.514400986858922 L-1.5277065602023843,13.592778701261539 L-1.6792261614366382,13.66845029253387 L-1.8321127973587883,13.741394768334292 L-1.986324055110373,13.81159189286058 L-2.141817154364597,13.879022192463594 L-2.2985489591941635,13.943666961049525 L-2.456475990037804,14.005508265269233 L-2.61555443576209,14.064528949493218 L-2.775740165815236,14.120712640570792 L-2.9369887424695436,14.174043752372262 L-3.099255433149028,14.224507490112696 L-3.262495222838852,14.272089854456222 L-3.426662826573106,14.316777645399647 L-3.5917127019974897,14.358558465934284 L-3.757599062003384,14.397420725485087 L-3.9242758874298276,14.433353643126017 L-4.091696939829863,14.46634725057083 L-4.259815774297718,14.496392394938413 L-4.428585752353271,14.523480741291912 L-4.597960054880195,14.547604774950976 L-4.767891695114239,14.568757803576412 L-4.938333531677982,14.586933959026744 L-5.109238281658526,14.602128198986122 L-5.28055853372442,14.614336308363109 L-5.452246761278193,14.623554900460032 L-5.624255335640926,14.629781417912472 L-5.796536539265071,14.63301413339874 L-5.9690425789719725,14.63325215011903 L-6.141725599210349,14.630495402044229 L-6.31453769533208,14.624744653934222 L-6.48743092688162,14.616001501125734 L-6.660357330895334,14.604268369089773 L-6.833268935207095,14.589548512758762 L-7.006117771756413,14.57184601562358 L-7.1788558898954395,14.551165788600738 L-7.3514353696911385,14.52751356867004 L-7.5238083352189395,14.500895917283046 L-7.695926967844164,14.471320218542846 L-7.8677435194875915,14.43879467715561 L-8.039210325871432,14.403328316154477 L-8.210279819742027,14.36493097439646 L-8.380904544065704,14.323613303832992 L-8.551037165193971,14.279386766554946 L-8.720630485994556,14.232263631612877 L-8.889637458944513,14.18225697161343 L-9.05801119918187,14.129380659092813 L-9.225704997512135,14.073649362668368 L-9.392672333366054,14.015078542969292 L-9.558866887705076,13.953684448347644 L-9.724242555870894,13.88948411037083 L-9.888753460375481,13.822495339096822 L-10.052353963628192,13.752736718133377 L-10.214998680596203,13.680227599482716 L-10.376642491394964,13.604988098173001 L-10.537240553805104,13.527039086678137 L-10.696748315712256,13.446402189127477 L-10.85512152746641,13.363099775306988 L-11.012316254157401,13.277154954453568 L-11.168288887803058,13.188591568844203 L-11.322996159446658,13.097434187181811 L-11.476395151160311,13.00370809777955 L-11.628443307950992,12.907439301545484 L-11.779098449565907,12.808654504769558 L-11.928318782193863,12.707381111714925 L-12.076062910059413,12.603647217015627 L-12.22228984690665,12.497481597882752 L-12.36695902736937,12.388913706121224 L-12.510030318224436,12.27797365995948 L-12.651464029525286,12.164692235694273 L-12.79122092561248,12.049100859152887 L-12.929262235998225,11.931231596975168 L-13.065549666121832,11.811117147717814 L-13.200045407973136,11.688790832783349 L-13.332712150580974,11.564286587176301 L-13.463513090363788,11.437638950089147 L-13.5924119413394,11.308883055320692 L-13.719372945191257,11.178054621529464 L-13.844360881188317,11.045189942324843 L-13.967341075955709,10.910325876198744 L-14.088279413093636,10.773499836300557 L-14.20714234264174,10.634749780058192 L-14.323896890386305,10.494114198648218 L-14.438510667007757,10.35163210631785 L-14.550951877065936,10.207343029561844 L-14.66118932782055,10.061286996157346 L-14.769192437884493,9.91350452405961 L-14.874931245707549,9.764036610161746 L-14.978376417888125,9.612924718921631 L-15.07949925731074,9.46021077085912 L-15.178271711107,9.305937130926688 L-15.27466637843787,9.150146596756805 L-15.368656518095023,8.992882386789288 L-15.460216055919222,8.834188128281944 L-15.54931959203365,8.67410784520773 L-15.635942407890198,8.512685946041895 L-15.720060473126727,8.349967211442468 L-15.801650452233407,8.185996781827503 L-15.880689711026317,8.0208201448525 L-15.95715632292649,7.854483122791464 L-16.031029075042646,7.687031859825213 L-16.10228747405591,7.518512809240349 L-16.17091175190498,7.348972720542472 L-16.236882871270048,7.1784586264871955 L-16.300182530853995,7.007017830032634 L-16.36079317045946,6.834697891216932 L-16.418697975860233,6.661546613964426 L-16.473880883465803,6.487612032824176 L-16.52632658477758,6.31294239964452 L-16.576020530635702,6.1375861701873795 L-16.622948935255174,5.9615919906859345 L-16.667098780050217,5.7850086843494815 L-16.708457817245836,5.607885237819209 L-16.747014573275482,5.4302707875786576 L-16.782758351964,5.252214606322553 L-16.8156792374949,5.073766089287879 L-16.845768097161127,4.894974740550962 L-16.873016583898607,4.715890159294382 L-16.89741713860183,4.536562026047463 L-16.918962992220866,4.357040088904181 L-16.937648167639175,4.177374149722388 L-16.95346748133175,3.997614050308099 L-16.966416544803096,3.8178096585886796 L-16.976491765804667,3.6380108547787553 L-16.983690349331397,3.4582675175428226 L-16.98801029839707,3.278629510158187 L-16.989450414588315,3.099146666682261 " />
			<path d="M-18.40523794913734,-8.750967895718786 L-18.36678816463142,-8.771825597667743 L-18.32388055881408,-8.792320773344787 L-18.276597535080324,-8.812414062081226 L-18.22502989974776,-8.832066875026035 L-18.109444972014114,-8.869901020256185 L-17.978013265587723,-8.905532709008575 L-17.831743945972114,-8.938688352268048 L-17.671760105574695,-8.969113372715826 L-17.49929014032245,-8.99657415943781 L-17.315658317730875,-9.020859861647587 L-17.122274608846894,-9.041784007651488 L-16.92062386213862,-9.059185936624877 L-16.71225440245758,-9.07293203220613 L-16.498766142613373,-9.08291674843647 L-16.28179829884308,-9.08906342016822 L-16.063016804499167,-9.091324851718987 L-15.844101518596666,-9.089683679251904 L-15.626733327435657,-9.084152504099508 L-15.412581238335962,-9.074773796007571 L-15.20328956458167,-9.06161956704176 L-15.00046529997261,-9.044790818660998 L-14.805665779924158,-9.024416766203005 L-14.620386723856544,-9.000653846736636 L-14.44605075068718,-8.973684517898944 L-14.2839964556069,-8.943715856939829 L-14.13546813201141,-8.91097797073113 L-14.001606217505493,-8.875722228948543 L-13.883438537337929,-8.838219333992392 L-13.781872412502251,-8.798757242466916 L-13.73756378645671,-8.778385660708079 L-13.697687693099304,-8.757638954177466 L-13.662320713852125,-8.736556966604896 L-13.631530770453185,-8.715180185622248 L-13.60537699451376,-8.693549665007609 L-13.583909613957045,-8.671706945842102 L-13.567169856556207,-8.649693976730903 L-13.555189870757076,-8.627553033241579 L-13.547992663937553,-8.605326636714512 L-13.545592058222297,-8.583057472601336 " />
			<path d="M-13.545592058222297,-8.58305747260133 L-13.547805597393387,-8.56167316308456 L-13.554442295102128,-8.5403267215732 L-13.565490398876241,-8.51905594901481 L-13.580930344387353,-8.497898512359992 L-13.600734790096112,-8.476891877860586 L-13.624868665669448,-8.456073244723244 L-13.653289234084216,-8.435479479235918 L-13.685946167307254,-8.415147049483876 " />
			<path d="M0.4719291781830073,-7.407684510779147 L0.5103789626889297,-7.428542212728105 L0.5532865685062696,-7.449037388405149 L0.6005695922400247,-7.469130677141587 L0.6521372275725872,-7.488783490086395 L0.767722155306235,-7.526617635316547 L0.8991538617326258,-7.562249324068936 L1.0454231813482338,-7.59540496732841 L1.2054070217456518,-7.625829987776188 L1.3778769869978975,-7.6532907744981715 L1.561508809589472,-7.677576476707948 L1.754892518473454,-7.698500622711848 L1.9565432651817272,-7.715902551685239 L2.164912724862766,-7.729648647266492 L2.378400984706975,-7.739633363496831 L2.5953688284772687,-7.745780035228582 L2.8141503228211824,-7.748041466779348 L3.0330656087236814,-7.746400294312265 L3.250433799884692,-7.7408691191598695 L3.464585888984386,-7.7314904110679326 L3.6738775627386784,-7.718336182102122 L3.8767018273477385,-7.701507433721359 L4.07150134739619,-7.681133381263366 L4.256780403463803,-7.657370461796997 L4.4311163766331685,-7.630401132959305 L4.593170671713449,-7.600432472000189 L4.741698995308939,-7.567694585791491 L4.875560909814856,-7.5324388440089045 L4.993728589982419,-7.494935949052753 L5.095294714818097,-7.455473857527276 L5.139603340863639,-7.43510227576844 L5.179479434221045,-7.414355569237828 L5.214846413468223,-7.393273581665256 L5.245636356867163,-7.3718968006826096 L5.271790132806588,-7.350266280067969 L5.293257513363303,-7.328423560902464 L5.309997270764141,-7.3064105917912645 L5.321977256563272,-7.28426964830194 L5.329174463382796,-7.262043251774873 L5.331575069098051,-7.239774087661696 " />
			<path d="M5.331575069098051,-7.239774087661692 L5.329361529926961,-7.218389778144922 L5.322724832218221,-7.197043336633562 L5.311676728444107,-7.17577256407517 L5.296236782932995,-7.154615127420353 L5.276432337224236,-7.133608492920947 L5.2522984616509,-7.1127898597836055 L5.223877893236132,-7.09219609429628 L5.191220960013094,-7.071863664544237 " />
			<path d="M-13.545592058222297,-11.520399549733952 L-13.545592058222297,-8.583057472601332 " />
			<path d="M5.331575069098052,-10.177116164794313 L5.331575069098052,-7.239774087661694 " />
			<path d="M-12.132248654282192,-5.673709848778671 L1.0817683348420548,-13.34961490557661 " />
			<path d="M-1.0817683348420548,13.349614905576608 L12.132248654282192,5.673709848778669 " />

       </g>

       <!-- solid lines -->
       <g  stroke="rgb(0,0,0)" fill="none">
			<path d="M-30.20346740371256,-12.527862088438681 L-16.989450414588312,-20.20376714523662 " />
			<path d="M-16.989450414588312,-20.20376714523662 L-16.989450414588312,9.169653626089584 " />
			<path d="M-30.20346740371256,16.84555868288752 L-16.989450414588312,9.169653626089582 " />
			<path d="M-30.20346740371256,-12.527862088438681 L-30.20346740371256,16.84555868288752 " />
			<path d="M-16.989450414588312,-20.20376714523662 L30.20346740371256,-16.84555868288752 " />
			<path d="M-16.989450414588312,9.169653626089584 L30.20346740371256,12.527862088438683 " />
			<path d="M30.20346740371256,-16.84555868288752 L30.20346740371256,12.527862088438681 " />
			<path d="M-3.7754334254640707,-4.576758390115771 L-3.774141529443291,-4.7465657129614005 L-3.7702661628843863,-4.91614691679446 L-3.763808290217625,-5.0854597993499695 L-3.75476951856011,-5.2544622251378605 L-3.743152097315834,-5.423112135928854 L-3.728958917615879,-5.5913675612211495 L-3.7121935115989295,-5.759186628685272 L-3.692860051532257,-5.9265275745844965 L-3.6709633487734106,-6.093348754168233 L-3.646508852572838,-6.259608652035822 L-3.6195026487177913,-6.425265892468113 L-3.589951458017799,-6.59027924972431 L-3.557862634632116,-6.754607658301467 L-3.5232441642395607,-6.918210223154128 L-3.486104662051172,-7.08104622987153 L-3.446453370666232,-7.2430751548098655 L-3.404300157772118,-7.404256675177058 L-3.3596555136886277,-7.564550679067571 L-3.3125305487573335,-7.723917275444712 L-3.2629369905766428,-7.882316804067994 L-3.210887181083251,-8.039709845363042 L-3.1563940734807154,-8.196057230231622 L-3.099471229015869,-8.35132004979933 L-3.0401328136039965,-8.505459665098494 L-2.9783935943034194,-8.658437716683977 L-2.9142689356405906,-8.81021613417935 L-2.8477747957864317,-8.960757145751131 L-2.7789277225849567,-9.110023287508785 L-2.7077448494351444,-9.25797741282803 L-2.6342438910271007,-9.40458270159521 L-2.5584431389335425,-9.549802669370415 L-2.4803614570577324,-9.693601176467055 L-2.400018276938976,-9.83594243694565 L-2.3174335929168457,-9.976791027519573 L-2.232627957155369,-10.116111896370553 L-2.145622474528377,-10.253870371871725 L-2.056438797367303,-10.390032171216086 L-1.965099120072761,-10.524563408948143 L-1.8716261735911957,-10.657430605396735 L-1.7760432197580283,-10.788600695006812 L-1.6783740455086793,-10.918041034568219 L-1.5786429569589018,-11.045719411339304 L-1.4768747733559255,-11.171604051063463 L-1.3730948209019065,-11.29566362587652 L-1.2673289264511851,-11.417867262103037 L-1.1596034110829914,-11.53818454793959 L-1.049945083551119,-11.65658554102311 L-0.9383812336122812,-11.773040775882357 L-0.8249396252347019,-11.887521271270792 L-0.7096484896887398,-11.999998537378879 L-0.5925365185212303,-12.110444582924089 L-0.4736328564152208,-12.218831922116882 L-0.3529670939369973,-12.32513358150087 L-0.23056926017212565,-12.429323106665455 L-0.10646981525235599,-12.531374568829337 L0.019300357224732778,-12.63126257129318 L0.14670995788147767,-12.728962255759896 L0.2757272793493506,-12.824449308520899 L0.40632021415970065,-12.917699966506882 L0.5384562627340852,-13.008691023201507 L0.6721025414721566,-13.097399834416642 L0.8072257909351404,-13.18380432392762 L0.9437923841228271,-13.267882988967163 L1.0817683348419749,-13.349614905576562 " />
			<path d="M1.0817683348420548,-13.349614905576608 L1.2991536315647894,-13.472060697662366 L1.5197361815835162,-13.588703263229469 L1.7433831142182177,-13.699472341157962 L1.9699597129193709,-13.804301208297227 L2.1993294964161647,-13.903126719657502 L2.4313543009277065,-13.995889346446067 L2.665894363387728,-14.082533211925162 L2.9028084056326198,-14.163006125070046 L3.141953719502119,-14.23725961200692 L3.3831862528013716,-14.305248945211762 L3.6263606960725827,-14.36693317045254 L3.871330570124004,-14.422275131458491 L4.117948314263522,-14.471241492301672 L4.366065375183695,-14.513802757477281 L4.615532296444719,-14.549933289670648 L4.866198808501403,-14.579611325200183 L5.1179139192199,-14.60281898712702 L5.370526004829751,-14.619542296023399 L5.6238829012563585,-14.629771178393371 L5.87783199577894,-14.633499472740679 L6.132220318958723,-14.630724933280213 L6.386894636782014,-14.621449231290804 L6.641701542962647,-14.605677954108483 L6.896487551348179,-14.583420601760903 L7.151099188374224,-14.55469058124486 L7.4053830855111755,-14.51950519845043 L7.65918607164769,-14.47788564773654 L7.91235526535522,-14.429856999164288 L8.164738166978086,-14.375448183395664 L8.416182750493551,-14.314691974266811 L8.666537555086625,-14.247624969046289 L8.915651776384394,-14.174287566390243 L9.163375357294925,-14.094723942007775 L9.409559078396057,-14.008982022051132 L9.654054647819606,-13.917113454246802 L9.896714790576826,-13.819173576784847 L10.13739333727137,-13.715221384985234 L10.375945312146253,-13.60531949576129 L10.612227020411853,-13.48953410990158 L10.846096134802247,-13.367934972193051 L11.077411781307857,-13.240595329409377 L11.306034624032677,-13.107591886189836 L11.531826949125005,-12.969004758835302 L11.75465274773113,-12.82491742704919 L11.974377797921962,-12.67541668365239 L12.190869745543319,-12.520592582302536 L12.403998183941102,-12.360538383249033 L12.61363473251341,-12.195350497156578 L12.819653114042195,-12.025128427030985 L13.021929230757955,-11.849974708282279 L13.220341239091564,-11.669994846961217 L13.41476962306831,-11.485297256206382 L13.605097266299824,-11.29599319094015 L13.79120952253064,-11.102196680852906 L13.972994284696785,-10.90402446171581 L14.150342052454903,-10.70159590506353 L14.323145998141158,-10.495032946289301 L14.491302031120222,-10.28446001119561 L14.654708860485586,-10.070003941044723 L14.813268056073415,-9.851793916154268 L14.9668841077532,-9.629961378083843 L15.115464482959483,-9.404639950459527 L15.258919682430019,-9.175965358484012 L15.397163294116778,-8.944075347180812 L15.530112045237344,-8.709109598421808 L15.657685852435314,-8.471209646788113 L15.77980787001953,-8.230518794314944 L15.896404536253028,-7.987182024171821 L16.007405617663906,-7.741345913330129 L16.11274425135131,-7.493158544270633 L16.21235698526118,-7.242769415784133 L16.30618381640737,-6.990329352918973 L16.394168227015207,-6.735990416129687 L16.47625721856568,-6.479905809681447 L16.552401343719797,-6.22222978936556 L16.622554736103776,-5.963117569581537 L16.686675137937243,-5.702725229841743 L16.744723925487754,-5.4412096207549405 L16.79666613233627,-5.178728269545347 L16.842470470439636,-4.9154392851641235 L16.882109348977302,-4.651501263050447 L16.915558890971038,-4.387073189599564 L16.942798947667505,-4.122314346395319 L16.96381311067512,-3.857384214264887 L16.978588721847856,-3.592442377213487 L16.987116880910037,-3.327648426296943 L16.98939245081754,-3.063161863490009 L16.985414060852133,-2.7991420056083265 L16.97518410744717,-2.535747888341945 L16.958708752744066,-2.2731381704581657 L16.93599792088044,-2.011471038231431 L16.907065292012184,-1.7509041101578298 L16.87192829407308,-1.4915943420116085 L16.83060809227682,-1.2336979323008888 L16.783129576367912,-0.9773702281795056 L16.729521345629,-0.7227656318717144 L16.66981569165374,-0.4700375076660488 L16.60404857889555,-0.21933808953442036 L16.53225962300396,0.029181610567946326 L16.45449206696164,0.27537189366646286 L16.37079275503644,0.5190844639402328 L16.281212104564133,0.7601725180499206 L16.18580407557894,0.9984908335665987 L16.08462613830998,1.2338958564482936 L15.977739238563368,1.4662457875115824 L15.865207761010765,1.6954006678461169 L15.747099490406423,1.921222463120635 L15.623485570756198,2.1435751467296877 L15.494440462463071,2.3623247817309685 L15.360041897474964,2.5773396015239256 L15.220370832461942,2.788490089221044 L15.075511400050932,2.9956490556639594 L14.925550858147371,3.1986917160374557 L14.770579537374324,3.3974957650351763 L14.61069078666067,3.591941450531771 L14.445980917011216,3.7819116457170874 L14.276549143492534,3.9672919196489906 L14.102497525469534,4.1479706061822785 L13.923930905128701,4.323838871232194 L13.740956844325096,4.494790778332007 L13.553685559791104,4.6607233524451885 L13.362229856746003,4.821536641993708 L13.16670506094632,4.9771337790651415 L12.967228949217894,5.127421037762266 L12.763921678511547,5.272307890660047 L12.556905713525007,5.41170706333596 L12.346305752934747,5.545534586940866 L12.132248654282233,5.673709848778648 " />
			<path d="M12.132248654282193,5.673709848778671 L11.985080783724797,5.757433835585525 L11.836420961844011,5.838495930060985 L11.686310428921862,5.916873644463601 L11.534790827687608,5.992545235735932 L11.381904191765457,6.065489711536355 L11.227692934013874,6.135686836062643 L11.07219983475965,6.203117135665657 L10.915468029930082,6.2677619042515875 L10.757540999086443,6.329603208471296 L10.598462553362157,6.38862389269528 L10.43827682330901,6.444807583772855 L10.277028246654703,6.498138695574324 L10.114761555975218,6.548602433314759 L9.951521766285394,6.596184797658285 L9.787354162551141,6.6408725886017095 L9.622304287126756,6.682653409136346 L9.456417927120862,6.72151566868715 L9.28974110169442,6.7574485863280795 L9.122320049294384,6.790442193772893 L8.95420121482653,6.820487338140476 L8.785431236770975,6.847575684493975 L8.616056934244051,6.871699718153039 L8.446125294010008,6.892852746778475 L8.275683457446265,6.911028902228807 L8.10477870746572,6.926223142188185 L7.933458455399826,6.938431251565172 L7.761770227846053,6.947649843662095 L7.58976165348332,6.953876361114535 L7.417480449859175,6.957109076600803 L7.244974410152274,6.9573470933210935 L7.0722913899138975,6.954590345246292 L6.899479293792166,6.948839597136285 L6.726586062242626,6.940096444327796 L6.553659658228913,6.928363312291836 L6.380748053917151,6.913643455960825 L6.207899217367833,6.895940958825642 L6.035161099228807,6.8752607318028005 L5.862581619433108,6.851608511872103 L5.690208653905307,6.824990860485109 L5.5180900212800825,6.795415161744909 L5.346273469636655,6.762889620357672 L5.174806663252815,6.72742325935654 L5.0037371693822195,6.6890259175985225 L4.833112445058544,6.647708247035055 L4.662979823930275,6.603481709757009 L4.49338650312969,6.55635857481494 L4.324379530179733,6.506351914815493 L4.156005789942377,6.453475602294876 L3.988311991612111,6.397744305870431 L3.8213446557581934,6.3391734861713545 L3.6551501014191707,6.277779391549707 L3.489774433253352,6.213579053572893 L3.325263528748765,6.1465902822988845 L3.1616630254960536,6.07683166133544 L2.999018308528044,6.004322542684779 L2.8373744977292823,5.929083041375064 L2.676776435319143,5.8511340298802 L2.5172686734119907,5.77049713232954 L2.358895461657836,5.687194718509051 L2.2017007349668463,5.601249897655631 L2.045728101321189,5.512686512046265 L1.891020829677588,5.421529130383874 L1.7376218379639363,5.327803040981612 L1.5855736811732548,5.231534244747547 L1.434918539558339,5.132749447971621 L1.2856982069303848,5.031476054916988 L1.1379540790648335,4.92774216021769 L0.9917271422175968,4.821576541084815 L0.8470579617548761,4.713008649323287 L0.7039866708998108,4.602068603161543 L0.5625529595989596,4.488787178896336 L0.42279606351176646,4.3731958023549495 L0.2847547531260215,4.255326540177231 L0.1484673230024134,4.135212090919877 L0.013971581151110968,4.012885775985412 L-0.11869516145672776,3.8883815303783638 L-0.2494961012395418,3.761733893291208 L-0.37839495221515307,3.632977998522754 L-0.5053559560670102,3.502149564731526 L-0.6303438920640705,3.369284885526905 L-0.7533240868314621,3.2344208194008064 L-0.8742624239693892,3.0975947795026193 L-0.9931253535174935,2.958844723260254 L-1.1098799012620582,2.81820914185028 L-1.22449367788351,2.6757270495199115 L-1.3369348879416894,2.5314379727639067 L-1.4471723386963031,2.3853819393594082 L-1.555175448760247,2.237599467261672 L-1.6609142565833022,2.0881315533638083 L-1.7643594287638784,1.9370196621236935 L-1.8654822681864935,1.784305714061182 L-1.964254721982753,1.6300320741287497 L-2.060649389313623,1.4742415399588666 L-2.154639528970776,1.3169773299913508 L-2.2461990667949756,1.1582830714840067 L-2.335302602909403,0.998202788409793 L-2.4219254187659516,0.8367808892439563 L-2.506043484002481,0.6740621546445307 L-2.58763346310916,0.5100917250295658 L-2.6666727219020707,0.3449150880545626 L-2.743139333802244,0.17857806599352566 L-2.817012085918398,0.011126803027274423 L-2.888270484931663,-0.15739224755758885 L-2.956894762780733,-0.3269323362554668 L-3.0228658821457994,-0.4974464303107431 L-3.0861655417297484,-0.6688872267653041 L-3.1467761813352126,-0.8412071655810069 L-3.2046809867359887,-1.0143584428335117 L-3.2598638943415565,-1.1882930239737628 L-3.312309595653332,-1.362962657153418 L-3.3620035415114575,-1.538318886610559 L-3.4089319461309273,-1.7143130661120036 L-3.453081790925971,-1.8908963724484562 L-3.49444082812159,-2.0680198189787284 L-3.5329975841512358,-2.2456342692192806 L-3.568741362839754,-2.4236904504753842 L-3.601662248370655,-2.6021389675100584 L-3.631751108036882,-2.7809303162469763 L-3.658999594774361,-2.960014897503556 L-3.6834001494775848,-3.1393430307504757 L-3.7049460030966195,-3.318864967893757 L-3.7236311785149283,-3.498530907075551 L-3.739450492207501,-3.678291006489839 L-3.752399555678849,-3.8580953982092585 L-3.7624747766804223,-4.037894202019183 L-3.769673360207152,-4.217637539255115 L-3.773993309272825,-4.397275546639751 L-3.775433425464069,-4.5767583901156765 " />
			<path d="M-30.20346740371256,16.84555868288752 L16.989450414588312,20.20376714523662 " />
			<path d="M16.989450414588312,20.20376714523662 L30.20346740371256,12.52786208843868 " />
			<path d="M-3.6443192487690603,-6.273670154945295 L-3.421117145329603,-6.186003525727495 L-3.1995289754563263,-6.093258883053403 L-2.979666993004126,-5.99548321022392 L-2.7616425773624753,-5.892726039198248 L-2.5455661770319935,-5.78503942550161 L-2.3315472536725794,-5.672477921854554 L-2.119694226651484,-5.555098550537217 L-1.9101144181193757,-5.432960774502526 L-1.7029139986422646,-5.306126467253012 L-1.4981979334167832,-5.1746598814964315 L-1.2960699290961042,-5.038627616596141 L-1.0966323812534196,-4.898098584832674 L-0.8999863225095996,-4.75314397649362 L-0.7062313713513078,-4.603837223809501 L-0.5154656816654741,-4.450253963753902 L-0.32778589301576133,-4.292471999726693 L-0.14328708168613247,-4.130571262139799 L0.03793728748362568,-3.9646337679254198 L0.21579540844605294,-3.7947435789872546 L0.39019718045383733,-3.6209867596157745 L0.5610542537037331,-3.4434513328891057 L0.7282800740935125,-3.2622272360816154 L0.8917899270692002,-3.0774062751027915 L1.0515009805404354,-2.8890820779894892 L1.2073323268421934,-2.697350047475109 L1.359205023721624,-2.5023073126597484 L1.5070421343292146,-2.304052679805785 L1.6507687661940782,-2.102686582283835 L1.790312109163544,-1.898311029694431 L1.9256014722878998,-1.6910295561912165 L2.0565683196315607,-1.4809471680317992 L2.1831463049925333,-1.2681702903828698 L2.305271305512594,-1.0528067134065258 L2.4228814541611303,-0.8349655376550813 L2.5359171710762443,-0.6147571188020682 L2.6443211937471602,-0.3922930117373977 L2.7480386060227247,-0.1676859140550273 L2.8470168659312503,0.058950391038265604 L2.941205832297637,0.28750109236406995 L3.0305577901442806,0.517850408934271 L3.1150274748628917,0.7498816486042803 L3.194572095144995,0.9834772671878524 L3.2691513546594813,1.218518928003535 L3.3387274724662444,1.4548875618225772 L3.40326520215552,1.692463427187942 L3.4627318497033155,1.9311261710738683 L3.5170972900337762,2.170754889855236 L3.5663339822801987,2.411228190555867 L3.610416983736883,2.6524242523447215 L3.6493239624948153,2.8942208882488396 L3.683035208754731,3.1364956070517582 L3.7115336448118548,3.379125675346073 L3.734804833707269,3.621988179708675 L3.7528369865414852,3.8649600889671842 L3.7656209684465747,4.107918316526053 L3.773150303213761,4.3507397827207015 L3.7754211765742003,4.59330147716819 L3.772432438131238,4.83548052108276 L3.764185601943197,5.077154229524728 L3.750684845756357,5.318200173551199 L3.7319370088885684,5.558496242237021 L3.707951588764539,5.797920704534718 L3.6787407361045528,6.036352270941958 L3.6443192487690688,6.273670154945252 " />

       </g>
    </g>
    <g transform="translate(20,210.0)" stroke="rgb(0,0,255)">
        <line x1="30" y1="-30" x2="75" y2="-33" stroke-width="3" stroke="#000000" />
         <text x="80" y="-30" style="stroke:#000000">X </text>

        <line x1="30" y1="-30" x2="30" y2="-75" stroke-width="3" stroke="#000000" />
         <text x="25" y="-85" style="stroke:#000000">Y </text>

        <line x1="30" y1="-30" x2="58" y2="-15" stroke-width="3" stroke="#000000" />
         <text x="65" y="-5" style="stroke:#000000">Z </text>
        <!--
            <line x1="0" y1="0" x2="4.454614793024826" y2="0" stroke-width="3" />
            <text x="0" y="20" style="stroke:#000000">1  mm </text>
        -->
    </g>
</svg>
