<?xml version="1.0" encoding="UTF-8" standalone="no"?>
<svg
   xmlns:svg="http://www.w3.org/2000/svg"
   xmlns="http://www.w3.org/2000/svg"
   width="800.0"
   height="240.0"

>
  <defs>
    <style>
      .cq-bg { fill: #ffffff; }
      @media (prefers-color-scheme: dark) {
        .cq-bg { fill: #0d1117; }
        /* CadQuery SVG selectors */
        g[stroke="rgb(0,0,0)"] { stroke: #c9d1d9 !important; }
        g[stroke="rgb(160,160,160)"] { stroke: #484f58 !important; }
        /* OpenSCAD SVG selectors */
        path { stroke: #c9d1d9 !important; }
        polygon { stroke: #c9d1d9 !important; fill: #161b22 !important; }
        /* Common selectors */
        line { stroke: #c9d1d9 !important; }
        text { stroke: #c9d1d9 !important; fill: #c9d1d9 !important; }
      }
    </style>
  </defs>
  <rect width="800.0" height="240.0" class="cq-bg"/>
    <g transform="scale(4.094851280620599, -4.094851280620599)   translate(68.3796906203791,-21.29797128780289)" stroke-width="0.24420911321801267"  fill="none">
       <!-- hidden lines -->
       <g  stroke="rgb(160,160,160)" fill="none" stroke-dasharray="0.24420911321801267,0.24420911321801267" >
			<path d="M18.216466277864136,-12.959631747883565 L38.69819261100672,-24.857284585920368 " />
			<path d="M-19.53786797677656,-15.646198517762842 L18.216466277864143,-12.959631747883563 " />
			<path d="M1.1326300276392214,-16.32935406781786 L1.1846987574461094,-16.3558199094985 L1.2479631792485526,-16.3812574145745 L1.3219375329980871,-16.405471267521794 L1.406053825110977,-16.428275548323324 L1.4996661896649663,-16.449495160009388 L1.6020558475193138,-16.468967173095965 L1.712436625280751,-16.486542076598035 L1.8299609917393589,-16.50208492601229 L1.9537265654251073,-16.51547637945479 L2.0827830433184022,-16.526613613997757 L2.216139497514267,-16.53541111516976 L2.352771983814561,-16.541801333557178 L2.4916314038275487,-16.545735203465497 L2.6316515602076533,-16.547182519657987 L2.7717573431852527,-16.546132169279055 L2.9108729855282993,-16.54259221718152 L3.047930322552104,-16.536589844002684 L3.1818769937548512,-16.528171137464565 L3.3116845231046494,-16.517400738500875 L3.436356215935658,-16.50436134492776 L3.5549348118189306,-16.489153076469282 L3.666509834647324,-16.47189270601316 L3.7702245834987043,-16.452712762999326 L3.8652827105998178,-16.431760515825758 L3.950954335883605,-16.409196841084903 L4.026581651190845,-16.385194988312968 L4.091583971085679,-16.359939249736662 L4.145462191503565,-16.333623545231415 L4.187802621997081,-16.306449933356074 L4.204541038598313,-16.292606400162704 L4.21828016215461,-16.27862705989678 L4.228993606891147,-16.264538759665616 L4.236660797802592,-16.25036855583245 L4.241267010167086,-16.236143662055124 L4.242803397824849,-16.22189139702269 " />
			<path d="M4.242803397824849,-16.221891397022688 L4.2408761277531255,-16.205929730446137 L4.235098960500364,-16.190006516922445 L4.225485813768499,-16.174160116867704 L4.212059846470018,-16.15842870564762 L4.194853402936119,-16.14285018160973 L4.173907934996383,-16.12746207478297 L4.149273902117683,-16.11230145646451 L4.121010649842908,-16.097404849911804 L4.053877420782217,-16.068546498540588 L3.9731547775089213,-16.041164942368603 L3.8796201232052283,-16.015523880750067 L3.774174247723325,-15.991870251125192 L3.6578326524866815,-15.970431850877663 L3.5317157706562123,-15.95141514352128 L3.3970381767464453,-15.935003270343476 L3.2550968896089922,-15.921354286654596 L3.1072588814319886,-15.910599639628856 L2.954947913050654,-15.902842902396204 L2.799630822352146,-15.898158776576452 L2.642803397824849,-15.89659237286185 L2.4859759732975517,-15.898158776576452 L2.3306588825990433,-15.902842902396204 L2.178347914217709,-15.910599639628856 L2.030509906040705,-15.921354286654596 L1.8885686189032524,-15.935003270343476 L1.753891024993485,-15.95141514352128 L1.6277741431630162,-15.970431850877663 L1.5114325479263728,-15.991870251125194 L1.4059866724444696,-16.015523880750067 L1.3124520181407766,-16.041164942368603 L1.231729374867481,-16.068546498540588 L1.1645961458067902,-16.097404849911804 L1.1363328935320158,-16.11230145646451 L1.1116988606533147,-16.12746207478297 L1.0907533927135784,-16.14285018160973 L1.0735469491796803,-16.15842870564762 L1.0601209818811996,-16.174160116867704 L1.0505078351493342,-16.190006516922445 L1.0447306678965733,-16.205929730446137 L1.0428033978248492,-16.221891397022688 " />
			<path d="M1.0428033978248492,-16.221891397022688 L1.0442200628943468,-16.23557735511342 L1.0484675494279403,-16.24923907768069 L1.0555383358433732,-16.26285237211806 L1.065419900970485,-16.276393131577144 L1.0780947462240908,-16.289837377656763 L1.0935404265910258,-16.303161302864662 L1.132630027639219,-16.329354067817857 " />
			<path d="M7.739638522201345,-20.167306596216832 L7.791707252008233,-20.193772437897472 L7.854971673810676,-20.21920994297347 L7.92894602756021,-20.243423795920766 L8.0130623196731,-20.266228076722296 L8.10667468422709,-20.28744768840836 L8.209064342081437,-20.306919701494937 L8.319445119842875,-20.324494604997007 L8.436969486301482,-20.340037454411263 L8.56073505998723,-20.35342890785376 L8.689791537880525,-20.36456614239673 L8.82314799207639,-20.373363643568734 L8.959780478376684,-20.37975386195615 L9.098639898389672,-20.38368773186447 L9.238660054769777,-20.38513504805696 L9.378765837747377,-20.384084697678027 L9.517881480090423,-20.380544745580494 L9.654938817114227,-20.374542372401656 L9.788885488316975,-20.366123665863537 L9.918693017666772,-20.355353266899847 L10.043364710497782,-20.34231387332673 L10.161943306381055,-20.327105604868255 L10.273518329209448,-20.309845234412133 L10.377233078060828,-20.290665291398298 L10.472291205161941,-20.26971304422473 L10.557962830445728,-20.247149369483875 L10.633590145752969,-20.22314751671194 L10.698592465647803,-20.197891778135634 L10.752470686065688,-20.171576073630387 L10.794811116559204,-20.144402461755046 L10.811549533160436,-20.130558928561676 L10.825288656716733,-20.116579588295753 L10.836002101453271,-20.102491288064588 L10.843669292364716,-20.08832108423142 L10.848275504729209,-20.074096190454096 L10.849811892386972,-20.059843925421664 " />
			<path d="M10.849811892386972,-20.05984392542166 L10.847884622315249,-20.04388225884511 L10.842107455062488,-20.027959045321417 L10.832494308330622,-20.012112645266676 L10.81906834103214,-19.99638123404659 L10.801861897498243,-19.980802710008703 L10.780916429558506,-19.96541460318194 L10.756282396679806,-19.950253984863483 L10.728019144405032,-19.935357378310776 L10.660885915344341,-19.90649902693956 L10.580163272071044,-19.879117470767575 L10.486628617767352,-19.85347640914904 L10.381182742285448,-19.829822779524164 L10.264841147048806,-19.808384379276635 L10.138724265218336,-19.789367671920253 L10.004046671308569,-19.772955798742448 L9.862105384171116,-19.759306815053566 L9.714267375994112,-19.748552168027828 L9.561956407612778,-19.740795430795174 L9.40663931691427,-19.736111304975424 L9.249811892386973,-19.734544901260822 L9.092984467859674,-19.736111304975424 L8.937667377161167,-19.740795430795174 L8.785356408779833,-19.748552168027828 L8.63751840060283,-19.759306815053566 L8.495577113465375,-19.772955798742448 L8.360899519555609,-19.789367671920253 L8.23478263772514,-19.808384379276635 L8.118441042488495,-19.829822779524164 L8.012995167006594,-19.85347640914904 L7.9194605127029,-19.879117470767575 L7.838737869429604,-19.90649902693956 L7.771604640368913,-19.935357378310776 L7.743341388094139,-19.950253984863483 L7.718707355215438,-19.96541460318194 L7.697761887275702,-19.980802710008703 L7.680555443741803,-19.99638123404659 L7.667129476443323,-20.012112645266676 L7.6575163297114575,-20.027959045321417 L7.651739162458696,-20.04388225884511 L7.649811892386973,-20.05984392542166 " />
			<path d="M7.649811892386973,-20.05984392542166 L7.65122855745647,-20.073529883512393 L7.655476043990063,-20.087191606079664 L7.662546830405496,-20.100804900517034 L7.6724283955326085,-20.114345659976117 L7.685103240786214,-20.127789906055735 L7.700548921153149,-20.141113831263635 L7.739638522201342,-20.16730659621683 " />
			<path d="M18.216466277864136,-12.959631747883565 L18.216466277864136,16.41378902344264 " />
			<path d="M-3.114732576007858,-9.581971844310988 L-3.1135112230344784,-9.66219095061686 L-3.1098483798305585,-9.742156387134392 L-3.103747692334649,-9.821788557481351 L-3.0952152330785205,-9.901008197003597 L-3.084259495142658,-9.97973645167391 L-3.0708913837023752,-10.057894956582098 L-3.0551242051729735,-10.135405913938236 L-3.0369736539647327,-10.212192170511411 L-3.0164577968609354,-10.288177294426868 L-2.993597055034466,-10.36328565124515 L-2.968414183720883,-10.437442479247462 L-2.940934249568204,-10.510573963852359 L-2.9111846056859445,-10.582607311089653 L-2.87919486441825,-10.653470820058429 L-2.8449968678682107,-10.723093954297038 L-2.808624656202724,-10.791407411994019 L-2.7701144337694235,-10.858343194970068 L-2.729504533059421,-10.923834676362397 L-2.68683537655173,-10.987816666944095 L-2.642149436477339,-11.050225480012507 L-2.5954911925429998,-11.110998994782005 L-2.546907087656801,-11.170076718218075 L-2.4964454816996033,-11.227399845251163 L-2.4441566033883446,-11.282911317310363 L-2.3900925002791436,-11.336555879118633 L-2.334306986959948,-11.388280133693069 L-2.276855591484307,-11.438032595495459 L-2.2177955000995957,-11.485763741680195 L-2.157185500324686,-11.531426061388565 L-2.0950859224337486,-11.574974103040343 L-2.0315585794044084,-11.616364519575608 L-1.9666667053900655,-11.65555611160172 " />
			<path d="M-1.9666667053900466,-11.655556111601733 L-1.8858822141198128,-11.700263309281167 L-1.8032887429679936,-11.741585013838101 L-1.7190082411675536,-11.779460213789356 L-1.6331651488516556,-11.813832986414676 L-1.5458862133178437,-11.844652580326592 L-1.4573003018857005,-11.871873490404841 L-1.3675382116242927,-11.895455524984655 L-1.2767324762303405,-11.91536386519974 L-1.185017170342259,-11.93156911639232 L-1.0925277115789989,-11.944047351514346 L-0.9994006605959752,-11.952780146455769 L-0.9057735194533068,-11.957754607247729 L-0.8117845285940675,-11.958963389100509 L-0.7175724627323192,-11.9564047072481 L-0.6232764259522912,-11.950082339583414 L-0.5290356463212493,-11.940005621080225 " />
			<path d="M1.2381739201374926,-7.659632494164541 L1.1737532840514466,-7.58587421594107 L1.106331153994912,-7.515096188620975 L1.0360178445912682,-7.447414217673775 L0.962928400948682,-7.382939042868864 L0.8871824104258093,-7.321776157085509 L0.8089038069655554,-7.264025633707687 L0.7282206683170496,-7.209781962886201 L0.6452650064776315,-7.159133896935944 " />
			<path d="M0.6452650064776222,-7.159133896935939 L0.5753420973558703,-7.120184459541937 L0.5040477020098115,-7.083772805473314 L0.4314609271414742,-7.049939336305181 L0.35766231344894184,-7.0187215929150675 L0.28273374626015935,-6.990154213828376 L0.20675836467476105,-6.9642688967842385 L0.12982046931474267,-6.9410943635643925 L0.052005428786337515,-6.9206563281241245 L-0.02660041504312416,-6.902977468060624 L-0.1059098428482621,-6.888077399450421 L-0.18583485462230187,-6.875972655083816 L-0.2662867673199605,-6.866676666120451 L-0.34717631325820997,-6.860199747186401 L-0.42841373916574754,-6.85654908492928 L-0.5099089057712678,-6.855728730044094 L-0.5915713878200204,-6.857739592778685 L-0.6733105744076986,-6.862579441923736 L-0.7550357695203174,-6.870242907288473 L-0.8366562926685248,-6.8807214856593095 L-0.9180815795046948,-6.894003550234828 L-0.9992212823111397,-6.910074363526624 L-1.0799853702479676,-6.9289160937117025 L-1.1602842292493327,-6.950507834418275 L-1.2400287614572432,-6.974825627923018 L-1.3191304840825957,-7.001842491734032 L-1.3975016275837402,-7.031528448530032 L-1.4750552330536468,-7.06385055942252 L-1.551705248707611,-7.098772960504064 L-1.6273666253644254,-7.1362569026420966 L-1.7019554108150958,-7.1762607944741115 L-1.7753888429743754,-7.218740248556527 L-1.847585441711763,-7.263648130616023 L-1.9184650992600778,-7.3109346118487 L-1.9879491691012823,-7.360547224209032 L-2.055960553230941,-7.41243091862726 L-2.122423787704479,-7.466528126090636 L-2.1872651263703253,-7.5227788215207445 L-2.2504126226970316,-7.581120590376011 L-2.3117962096035685,-7.641488697905519 L-2.371347777204222,-7.703816160977265 L-2.4290012483818426,-7.768033822401187 L-2.484692652105564,-7.834070427664468 L-2.5383601944116587,-7.901852703993974 L-2.5899443269687725,-7.971305441658139 L-2.6393878131514494,-8.042351577418025 L-2.6866357915486376,-8.11491228003501 L-2.7316358368367157,-8.188907037740215 L-2.7743380179494816,-8.264253747568583 L-2.814694953480573,-8.340868806458554 L-2.8526618642568398,-8.418667204016183 L-2.8881966230243354,-8.497562616840815 L-2.9212598011917965,-8.577467504307643 L-2.9518147125797456,-8.658293205700879 L-2.9798274541266747,-8.739950038589727 L-3.0052669435071384,-8.822347398338069 L-3.0281049536200237,-8.905393858637371 L-3.0483161439087265,-8.988997272951323 L-3.0658780884784744,-9.073064876759624 L-3.080771300979614,-9.157503390487456 L-3.0929792562292344,-9.242219123006464 L-3.1024884085471514,-9.327118075592391 L-3.1092882067858967,-9.412106046223995 L-3.1133711060380413,-9.49708873410756 L-3.114732576007858,-9.581971844310965 " />
			<path d="M-3.114732576007858,5.10473854135211 L-3.1135112230344784,5.024519435046238 L-3.1098483798305585,4.944553998528708 L-3.103747692334649,4.864921828181748 L-3.0952152330785205,4.785702188659502 L-3.084259495142658,4.706973933989189 L-3.0708913837023752,4.628815429081 L-3.0551242051729735,4.551304471724862 L-3.0369736539647327,4.474518215151688 L-3.0164577968609354,4.39853309123623 L-2.993597055034466,4.323424734417948 L-2.968414183720883,4.249267906415636 L-2.940934249568204,4.176136421810739 L-2.9111846056859445,4.1041030745734455 L-2.87919486441825,4.03323956560467 L-2.8449968678682107,3.9636164313660607 L-2.808624656202724,3.8953029736690787 L-2.7701144337694235,3.8283671906930294 L-2.729504533059421,3.762875709300703 L-2.68683537655173,3.6988937187190034 L-2.642149436477339,3.6364849056505912 L-2.5954911925429998,3.575711390881093 L-2.546907087656801,3.5166336674450243 L-2.4964454816996033,3.459310540411934 L-2.4441566033883446,3.4037990683527353 L-2.3900925002791436,3.350154506544466 L-2.334306986959948,3.298430251970029 L-2.276855591484307,3.248677790167639 L-2.2177955000995957,3.200946643982904 L-2.157185500324686,3.155284324274534 L-2.0950859224337486,3.111736282622754 L-2.0315585794044084,3.070345866087491 L-1.9666667053900655,3.0311542740613775 " />
			<path d="M-1.9666667053900466,3.0311542740613664 L-1.881574250610066,2.9841846822467004 L-1.7944842293140522,2.9409704151925933 L-1.7055391363014314,2.901582179143282 L-1.614884501599641,2.8660844202742517 L-1.5226686523510624,2.83453521924681 L-1.429042470123378,2.806986196177768 L-1.3341591440404266,2.7834824261797304 L-1.238173920137494,2.7640623656101737 " />
			<path d="M1.2381739201374913,7.0270778914985605 L1.173753284051446,7.1008361697220295 L1.1063311539949112,7.171614197042125 L1.0360178445912664,7.239296167989325 L0.9629284009486812,7.303771342794234 L0.8871824104258093,7.36493422857759 L0.8089038069655543,7.422684751955411 L0.7282206683170487,7.476928422776897 L0.6452650064776315,7.527576488727155 " />
			<path d="M0.6452650064776222,7.52757648872716 L0.5753420973558703,7.5665259261211615 L0.5040477020098115,7.602937580189785 L0.4314609271414742,7.636771049357917 L0.35766231344894184,7.66798879274803 L0.28273374626015935,7.696556171834722 L0.20675836467476105,7.722441488878859 L0.12982046931474267,7.745616022098705 L0.052005428786337515,7.766054057538974 L-0.02660041504312416,7.7837329176024745 L-0.1059098428482621,7.798632986212677 L-0.18583485462230187,7.810737730579284 L-0.2662867673199605,7.820033719542646 L-0.34717631325820997,7.826510638476696 L-0.42841373916574754,7.830161300733819 L-0.5099089057712678,7.830981655619005 L-0.5915713878200204,7.828970792884414 L-0.6733105744076986,7.8241309437393625 L-0.7550357695203174,7.8164674783746255 L-0.8366562926685248,7.80598890000379 L-0.9180815795046948,7.7927068354282705 L-0.9992212823111397,7.776636022136474 L-1.0799853702479676,7.757794291951396 L-1.1602842292493327,7.736202551244824 L-1.2400287614572432,7.711884757740082 L-1.3191304840825957,7.684867893929066 L-1.3975016275837402,7.655181937133067 L-1.4750552330536468,7.622859826240578 L-1.551705248707611,7.587937425159034 L-1.6273666253644254,7.550453483021002 L-1.7019554108150958,7.510449591188987 L-1.7753888429743754,7.467970137106572 L-1.847585441711763,7.423062255047076 L-1.9184650992600778,7.375775773814398 L-1.9879491691012823,7.326163161454066 L-2.055960553230941,7.274279467035838 L-2.122423787704479,7.2201822595724625 L-2.1872651263703253,7.163931564142354 L-2.2504126226970316,7.105589795287088 L-2.3117962096035685,7.0452216877575795 L-2.371347777204222,6.982894224685833 L-2.4290012483818426,6.918676563261911 L-2.484692652105564,6.8526399579986315 L-2.5383601944116587,6.784857681669125 L-2.5899443269687725,6.71540494400496 L-2.6393878131514494,6.644358808245075 L-2.6866357915486376,6.571798105628088 L-2.7316358368367157,6.4978033479228845 L-2.7743380179494816,6.422456638094516 L-2.814694953480573,6.345841579204545 L-2.8526618642568398,6.268043181646916 L-2.8881966230243354,6.189147768822284 L-2.9212598011917965,6.1092428813554545 L-2.9518147125797456,6.02841717996222 L-2.9798274541266747,5.946760347073371 L-3.0052669435071384,5.86436298732503 L-3.0281049536200237,5.781316527025727 L-3.0483161439087265,5.697713112711774 L-3.0658780884784744,5.613645508903474 L-3.080771300979614,5.5292069951756435 L-3.0929792562292344,5.444491262656634 L-3.1024884085471514,5.359592310070708 L-3.1092882067858967,5.274604339439104 L-3.1133711060380413,5.189621651555537 L-3.114732576007858,5.104738541352132 " />
			<path d="M1.1326300276392214,-13.440370582407457 L1.602255882512307,-13.728711556848971 " />
			<path d="M1.602255882512308,-13.728711556848971 L1.763945134422398,-13.818831153932543 L1.8513204467065285,-13.864094732702624 L1.9430256546025397,-13.908795659417017 L2.0390333252135466,-13.952376236395839 L2.1393034512433187,-13.994248101100817 L2.243777016828281,-14.033787613289723 L2.3524260132620167,-14.070348959882596 L2.464938578951292,-14.103163763323575 L2.58083856033859,-14.131424260511192 L2.6996028843653543,-14.154337685799595 L2.8206502699278917,-14.171131784117152 L2.9428838382526163,-14.181040218006293 L3.0647098557241383,-14.183455896956845 L3.184577412092465,-14.178063443851274 L3.2433137656489204,-14.172422975249388 L3.301016566943999,-14.164848920116375 " />
			<path d="M2.247920625858208,-13.55311484514682 L2.127695075641462,-13.563999779635976 L2.010564995248934,-13.570863194860074 L1.8979180169117207,-13.573677087001649 L1.791041275699741,-13.57260006634632 L1.6909099874614777,-13.567959533925562 L1.5980088939234425,-13.560187096038092 L1.5127054503870603,-13.549785474048685 L1.4351007198767494,-13.537283326291545 L1.3650652628714528,-13.523193323485346 L1.3024536753965577,-13.508022882278448 L1.2470538761626517,-13.492255095979468 L1.1986476287811088,-13.476354202538777 L1.1220526570188953,-13.445953891998814 L1.0714191685465104,-13.420353223697958 " />
			<path d="M1.0714191685465086,-13.420353223697958 L1.0499521683362056,-13.406337076397637 L1.0445907365385587,-13.401581315910928 L1.042803388344875,-13.398570816045064 " />
			<path d="M1.042803388344875,-13.398570816045064 L1.0442097902507863,-13.39750236262063 L1.0484341067152674,-13.398060099272106 L1.065341200777946,-13.404467694035155 L1.1326300276392145,-13.440370582407452 " />
			<path d="M7.739638522201345,-17.278323110806426 L8.209264377074428,-17.566664085247936 " />
			<path d="M8.209264377074428,-17.566664085247933 L8.370953628984614,-17.65678368233156 L8.45832894126878,-17.702047261101654 L8.550034149164839,-17.74674818781607 L8.646041819775903,-17.790328764794914 L8.746311945805726,-17.8322006294999 L8.850785511390717,-17.871740141688804 L8.95943450782446,-17.908301488281666 L9.071947073513758,-17.941116291722636 L9.187847054901091,-17.969376788910246 L9.30661137892787,-17.99229021419863 L9.42765876449038,-18.009084312516162 L9.549892332815007,-18.018992746405278 L9.67171835028642,-18.021408425355812 L9.791585906654658,-18.016015972250237 L9.850322260211078,-18.01037550364835 L9.908025061506121,-18.002801448515346 " />
			<path d="M8.854929120420332,-17.391067373545788 L8.734703567161569,-17.401952308262473 L8.617573483921772,-17.408815723506034 L8.504926503034444,-17.411629615464054 L8.398049759606929,-17.410552594444475 L8.297918469444157,-17.405912061506054 L8.205017374493066,-17.398139622996858 L8.119713929948404,-17.38773800032233 L8.042109198760922,-17.37523585184774 L7.972073741477878,-17.36114584834308 L7.909462157107866,-17.345975407372634 L7.8540623634392395,-17.330207622134736 L7.805656119079512,-17.314306729326837 L7.7290611514457135,-17.28390642047816 L7.678427663108634,-17.258305752096927 " />
			<path d="M7.678427663108632,-17.258305752096923 L7.656960662898329,-17.244289604796606 L7.651599231100683,-17.239533844309896 L7.649811882906999,-17.236523344444034 " />
			<path d="M7.649811882907,-17.236523344444038 L7.651218284812904,-17.235454891019604 L7.655442601277377,-17.236012627671073 L7.67234969534006,-17.24242022243412 L7.7396385222013375,-17.278323110806422 " />
			<path d="M4.24280339782485,-16.221891397022688 L4.24280339782485,-13.398570812672398 " />
			<path d="M1.042803397824849,-16.221891397022688 L1.042803397824849,-13.398570812672398 " />
			<path d="M10.849811892386972,-20.05984392542166 L10.849811892386972,-17.236523341071372 " />
			<path d="M7.649811892386972,-20.059843925421657 L7.649811892386972,-17.236523341071365 " />
			<path d="M-1.9666667053900466,-11.655556111601733 L1.07141918406906,-13.420353210097907 " />
			<path d="M1.6022558996531726,-13.728711541469792 L7.6784276786311825,-17.258305738496876 " />
			<path d="M8.209264394215294,-17.56666406986876 L18.515059627752535,-23.553208949638538 " />
			<path d="M0.645265006477622,-7.159133896935941 L1.9666667053900466,-7.9267244026157355 " />
			<path d="M-1.9666667053900466,3.0311542740613673 L-0.645265006477622,2.2635637683815735 " />
			<path d="M0.645265006477622,7.527576488727159 L1.9666667053900466,6.759985983047365 " />

       </g>

       <!-- solid lines -->
       <g  stroke="rgb(0,0,0)" fill="none">
			<path d="M-19.53786797677656,-15.646198517762842 L0.9438583563660217,-27.543851355799646 " />
			<path d="M-19.53786797677656,-15.646198517762842 L-19.53786797677656,13.72722225356336 " />
			<path d="M-19.53786797677656,13.72722225356336 L-18.216466277864136,12.959631747883567 " />
			<path d="M-18.216466277864136,-12.497332920599142 L-18.216466277864136,12.959631747883567 " />
			<path d="M-18.216466277864136,-12.497332920599144 L0.9438583563660217,-23.627395252956156 " />
			<path d="M0.9438583563660217,-27.543851355799646 L0.9438583563660217,-23.627395252956152 " />
			<path d="M0.9438583563660217,-27.543851355799646 L38.698192611006725,-24.857284585920368 " />
			<path d="M-19.53786797677656,13.72722225356336 L18.216466277864143,16.41378902344264 " />
			<path d="M-0.5290356463212464,-11.940005621080225 L-0.44477458234971134,-11.92780285891289 L-0.3607693671636667,-11.912613632478696 L-0.2771195376678538,-11.89445593933388 L-0.1939242096742103,-11.873351294339981 L-0.1112819604605767,-11.849324704171089 L-0.029290711967506655,-11.82240463768371 L0.051952385228421716,-11.792622992184315 L0.13235106702731214,-11.760015055634542 L0.21181006986827833,-11.724619464838867 L0.29023524360624875,-11.686478159664254 L0.36753366306948854,-11.64563633334605 L0.4436137381656722,-11.602142378938979 L0.5183853224060266,-11.556047831976718 L0.5917598197189697,-11.507407309407993 L0.6636502894266714,-11.456278444881509 L0.7339715492601593,-11.402721820456446 L0.8026402762909006,-11.34680089481941 L0.8695751056592711,-11.28858192809289 L0.9346967269829349,-11.228133903324341 L0.9979279783308854,-11.16552844474887 L1.0591939376518176,-11.100839732922449 L1.1184220115484842,-11.034144416826125 L1.1755420212928565,-10.965521523045453 L1.2304862859801702,-10.895052362132716 L1.283189702723322,-10.822820432262894 L1.3335898237926056,-10.748911320297553 L1.3816269306093738,-10.673412600373858 L1.427244104505962,-10.596413730138888 L1.4703872941680252,-10.518005944752211 L1.5110053796793728,-10.438282148782282 L1.549050233093435,-10.357336806124797 L1.584476775459554,-10.275265828073398 L1.6172430302365721,-10.19216645967539 L1.6473101730303927,-10.108137164507085 L1.6746425775966038,-10.023277508005345 L1.6992078580536436,-9.937688039493532 L1.7209769072564924,-9.851470173041653 L1.7399239312854258,-9.764726067301899 L1.7560264800089653,-9.677558504461906 L1.769265473684802,-9.590070768459222 L1.7796252255671838,-9.502366522601243 L1.7870934604939794,-9.414549686735635 L1.7916613294313914,-9.326724314116792 L1.793323419959079,-9.238994468114221 L1.7920777626832827,-9.151464098908932 L1.7879258335703385,-9.06423692032396 L1.780872552197819,-8.977416286934927 L1.770926275925377,-8.891105071606287 L1.7580987899921996,-8.805405543598336 L1.7424052935527978,-8.720419247389442 L1.7238643816676902,-8.636246882357028 L1.7024980232703046,-8.55298818345995 L1.678331535136223,-8.470741803063575 L1.651393551885593,-8.389605194047615 L1.6217159920542672,-8.309674494335228 L1.589334020273863,-8.231044412980204 L1.554286005605555,-8.153808117947174 L1.5166134760769734,-8.078057125717873 L1.4763610694760807,-8.003881192854216 L1.4335764804603155,-7.931368209646669 L1.3883104040436924,-7.860604095973967 L1.3406164755288121,-7.79167269949755 L1.2905512069549419,-7.724655696311328 L1.2381739201374995,-7.659632494164549 " />
			<path d="M-1.2381739201374926,2.7640623656101737 L-1.1448006133633495,2.7492442854755232 L-1.050692055141979,2.7382689570547365 L-0.9559911776927033,2.7311530496930736 L-0.8608418128501771,2.7279073710413035 L-0.7653884736123788,2.7285368506410297 L-0.6697761346540554,2.733040532437692 L-0.5741500121389669,2.741411576232626 L-0.4786553431653602,2.7536372680719636 L-0.3834371651796473,2.769699039556611 L-0.2886400956933117,2.789572496043956 L-0.1944081126376178,2.813227453698489 L-0.10088433568971111,2.8406279853350584 L-0.008210808902239575,2.871732474985134 L0.0834717150333677,2.9064936811032003 L0.17402398856229895,2.9448588083172886 L0.26330848075575375,2.9867695876146643 L0.35118958619312646,3.032162364840896 L0.437533830919719,3.080968197377875 L0.5222100751671852,3.1331129588539697 L0.6050897125288095,3.1885174517272703 L0.6860468652871057,3.2470975275709337 L0.7649585755970851,3.30876421487794 L0.841704992234819,3.373423854191151 L0.9161695526276534,3.4409782403534344 L0.9882391598896183,3.5113247716618043 L1.0578043545931521,3.584356605699038 L1.1247594810162398,3.659962821606105 L1.189002847612486,3.7380285885489313 L1.2504368814603852,3.8184353401236386 L1.3089682764572201,3.901060954435384 L1.3645081350325161,3.9857799395772706 L1.4169721031657971,4.072463624227646 L1.4662804985036049,4.160980353076301 L1.512358431381172,4.251195686782747 L1.555135918564961,4.342972606162892 L1.5945479895433001,4.436171720293982 L1.630534785203698,4.530651478221741 L1.663041648746951,4.626268383948177 L1.6920192086999721,4.722877214373514 L1.7174234539012598,4.82033123986126 L1.739215800345113,4.918482447091391 L1.7573631497830808,5.017181763863208 L1.7718379399936275,5.11627928550642 L1.7826181866436803,5.21562450255658 L1.7896875166784643,5.315066529349085 L1.7930351931889232,5.4144543331845485 L1.7926561317189544,5.513636963717497 L1.7885509079876867,5.612463782219972 L1.780725757015078,5.710784690371863 L1.7691925636521577,5.808450358230456 L1.7539688445302968,5.9053124510329775 L1.7350777214569222,6.001223854487659 L1.7125478862980819,6.096038898211131 L1.6864135574011923,6.189613576972832 L1.6567144276241659,6.281805769410363 L1.6234956040498356,6.372475453883629 L1.5868075394772507,6.461484921139911 L1.54670595579389,6.548698983466888 L1.5032517593451757,6.633985180015939 L1.4565109484298242,6.717213977983878 L1.4065545130615313,6.798258969347567 L1.3534583271492355,6.876997062852612 L1.2973030332597042,6.953308670964548 L1.2381739201374984,7.027077891498552 " />
			<path d="M18.216466277864136,16.413789023442636 L19.53786797677656,15.646198517762842 " />
			<path d="M-18.216466277864136,12.959631747883565 L19.537867976776568,15.646198517762844 " />
			<path d="M19.53786797677656,-9.810766150719866 L19.53786797677656,15.646198517762842 " />
			<path d="M19.537867976776568,-9.810766150719864 L2.925960904734655,-10.992855529466748 " />
			<path d="M2.9259609047346546,-10.992855529466748 L2.965190602566227,-10.88602241413883 L2.9999821540503224,-10.777819838286165 L3.030268555201815,-10.668456185940906 L3.0559914783668423,-10.558142077216916 L3.077101384554251,-10.44708996268294 L3.093557618841225,-10.33551371421054 L3.105328488669361,-10.223628213084808 L3.112391324880393,-10.11164893617106 L3.1147325253740337,-9.999791540934535 L3.112347581303842,-9.88827145011228 L3.1052410857606763,-9.777303436837082 L3.093426724926995,-9.667101211012465 L3.076927251719062,-9.557877007735312 L3.0557744419677975,-9.449841178558795 L3.030009033222679,-9.343201786382743 L2.9996806462965386,-9.238164204751666 L2.964847689702358,-9.134930722332125 L2.9255772471661,-9.03370015333118 L2.88194494843221,-8.93466745460618 L2.8340348236106054,-8.838023350203322 L2.7819391413456573,-8.743953964048032 L2.725758231118827,-8.652640461494602 L2.665600290027187,-8.56425870042536 L2.601581174409941,-8.478978892571357 L2.5338241767242424,-8.396965275706805 L2.4624597881000216,-8.318375797348565 L2.387625447031107,-8.243361810569851 L2.3094652746866355,-8.17206778251398 L2.228129797352498,-8.10463101616951 L2.143775656537366,-8.041181385942627 L2.0565653073016077,-7.98184108753598 L1.9666667053900562,-7.926724402615739 " />
			<path d="M1.9666667053900468,-7.926724402615734 L1.896743796268295,-7.887774965221732 L1.8254494009222362,-7.851363311153109 L1.7528626260538989,-7.817529841984976 L1.6790640123613665,-7.786312098594863 L1.604135445172584,-7.757744719508171 L1.5281600635871857,-7.731859402464034 L1.4512221682271673,-7.708684869244188 L1.373407127698762,-7.68824683380392 L1.2948012838693006,-7.670567973740419 L1.2154918560641625,-7.655667905130216 L1.1355668442901228,-7.643563160763611 L1.0551149315924642,-7.634267171800246 L0.9742253856542147,-7.6277902528661965 L0.8929879597466771,-7.624139590609075 L0.8114927931411569,-7.623319235723889 L0.7298303110924043,-7.62533009845848 L0.6480911245047261,-7.630169947603531 L0.5663659293921073,-7.637833412968268 L0.48474540624389983,-7.648311991339105 L0.4033201194077298,-7.661594055914623 L0.32218041660128494,-7.677664869206419 L0.24141632866445717,-7.696506599391498 L0.16111746966309193,-7.71809834009807 L0.08137293745518137,-7.742416133602813 L0.00227121482982906,-7.769432997413827 L-0.07609992867131543,-7.799118954209827 L-0.1536535341412223,-7.831441065102315 L-0.23030354979518652,-7.866363466183859 L-0.3059649264520008,-7.903847408321892 L-0.3805537119026712,-7.943851300153907 L-0.45398714406195073,-7.986330754236322 L-0.5261837427993383,-8.031238636295818 L-0.5970634003476532,-8.078525117528496 L-0.6665474701888576,-8.128137729888827 L-0.734558854318516,-8.180021424307055 L-0.8010220887920543,-8.234118631770432 L-0.8658634274579007,-8.29036932720054 L-0.9290109237846071,-8.348711096055807 L-0.9903945106911438,-8.409079203585314 L-1.0499460782917973,-8.47140666665706 L-1.1075995494694177,-8.535624328080981 L-1.1632909531931397,-8.601660933344263 L-1.216958495499234,-8.66944320967377 L-1.2685426280563479,-8.738895947337934 L-1.3179861142390246,-8.80994208309782 L-1.365234092636213,-8.882502785714806 L-1.410234137924291,-8.95649754342001 L-1.452936319037057,-9.031844253248378 L-1.4932932545681483,-9.108459312138349 L-1.5312601653444151,-9.186257709695978 L-1.5667949241119108,-9.26515312252061 L-1.5998581022793719,-9.345058009987438 L-1.630413013667321,-9.425883711380674 L-1.65842575521425,-9.507540544269522 L-1.6838652445947138,-9.589937904017864 L-1.706703254707599,-9.672984364317166 L-1.7269144449963019,-9.756587778631118 L-1.7444763895660498,-9.840655382439419 L-1.7593696020671894,-9.925093896167251 L-1.7715775573168098,-10.00980962868626 L-1.7810867096347267,-10.094708581272187 L-1.787886507873472,-10.17969655190379 L-1.7919694071256167,-10.264679239787355 L-1.7933308770954333,-10.34956234999076 " />
			<path d="M-1.7933308770954333,-10.349562349990784 L-1.7903433158630762,-10.47492606837118 L-1.7813879063361147,-10.599559364114638 L-1.7664864533135924,-10.723158777735618 L-1.7456752391327552,-10.84542336706415 L-1.7190049353281327,-10.966055439985489 L-1.6865404792555374,-11.084761279266447 L-1.6483609159813741,-11.201251857703625 L-1.6045592058222375,-11.31524354185224 " />
			<path d="M-1.6045592058222269,-11.315243541852261 L-18.216466277864136,-12.497332920599144 " />
			<path d="M-1.7933308770954333,4.337148035672317 L-1.7921095241220537,4.2569289293664445 L-1.7884466809181339,4.176963492848914 L-1.7823459934222243,4.0973313225019545 L-1.7738135341660959,4.0181116829797086 L-1.7628577962302332,3.9393834283093954 L-1.7494896847899506,3.8612249234012075 L-1.7337225062605488,3.7837139660450685 L-1.715571955052308,3.7069277094718944 L-1.6950560979485108,3.630942585556437 L-1.6721953561220415,3.5558342287381546 L-1.6470124848084584,3.4816774007358426 L-1.6195325506557792,3.4085459161309455 L-1.5897829067735199,3.336512568893652 L-1.5577931655058253,3.2656490599248764 L-1.523595168955786,3.1960259256862673 L-1.4872229572902995,3.1277124679892854 L-1.4487127348569988,3.060776685013236 L-1.4081028341469963,2.9952852036209094 L-1.3654336776393055,2.93130321303921 L-1.3207477375649144,2.868894399970798 L-1.274089493630575,2.8081208852012995 L-1.2255053887443763,2.749043161765231 L-1.1750437827871785,2.691720034732141 L-1.12275490447592,2.636208562672942 L-1.0686908013667191,2.5825640008646724 L-1.0129052880475236,2.5308397462902357 L-0.9554538925718827,2.4810872844878458 L-0.896393801187171,2.4333561383031106 L-0.8357838014122614,2.3876938185947405 L-0.7736842235213239,2.344145776942961 L-0.7101568804919838,2.302755360407698 L-0.6452650064776408,2.263563768381584 " />
			<path d="M-0.645265006477622,2.263563768381573 L-0.5417453336114584,2.2070519747545334 L-0.4353288625684384,2.15609246046579 L-0.32627195994828617,2.1108079914487923 L-0.21483735338167032,2.0713076619558515 L-0.10129349859632908,2.037686631740536 L0.01408606731629325,2.0100258968094917 L0.1310233848758564,1.9883920942959592 L0.24923674184186018,1.972837341925092 L0.3684413518831061,1.963399112457786 L0.4883500406529143,1.9601001434155205 L0.6086739376172774,1.9629483823036726 L0.7291231719692799,1.9719369674652851 L0.8494075709532611,1.987044244611397 L0.9692373589163992,2.0082338189881215 L1.0883238554036407,2.035454643054798 L1.2063801706142034,2.068641139461987 L1.3231218965442333,2.1077133590330495 L1.4382677921505969,2.1525771733687167 L1.5515404608851886,2.2031245016106484 L1.6626670189675141,2.2592335708176865 L1.7713797527856159,2.3207692093275374 L1.8774167638416137,2.387583172397145 L1.9805225996881308,2.459514499337263 L2.080448869335607,2.5363899012808524 L2.1769548416479543,2.618024178651142 L2.269808025284947,2.704220667323627 L2.3587847287942254,2.7947717124071754 L2.443670599503597,2.8894591685028463 L2.5242611399153994,2.9880549252352635 L2.6003622003588815,3.0903214567904898 L2.67179044671377,3.1960123941365195 L2.738373802078222,3.304873118547852 L2.7999518613171483,3.4166413750043088 L2.8563762774922448,3.531047903986341 L2.9075111192427476,3.6478170901448035 L2.9532331982559974,3.7666676262824685 L2.9934323660388715,3.887313191047702 L3.028011779275148,4.009463138707681 L3.056888133129543,4.1328231993394215 L3.0799918619363513,4.257096187751797 L3.0972673067892287,4.381982719430693 L3.1086728496283755,4.507181931782526 L3.1141810135020833,4.632392208938585 L3.1137785287611237,4.757311908374076 L3.1074663650264895,4.8816400875913875 L3.0952597288534998,5.005077229116921 L3.077188027097868,5.127325962064925 L3.0532947960720196,5.248091778530003 L3.0236375966622946,5.367083743082454 L2.9882878756597355,5.484015193657208 L2.947330793638506,5.5986044321478445 L2.9008650197966137,5.710575403042005 L2.849002494253164,5.819658358463308 L2.7918681583748124,5.925590508017606 L2.7295996537810656,6.028116651878063 L2.6623469907535666,6.1269897955838895 L2.5902721868481873,6.221971745071632 L2.5135488765805434,6.312833680505538 L2.4323618931252367,6.399356707524583 L2.3469068230365515,6.481332384578155 L2.2573895350633113,6.558563225080012 L2.164025684193031,6.630863173170761 L2.0670401921201664,6.698058051942725 L1.9666667053900562,6.759985983047361 " />
			<path d="M1.9666667053900468,6.7599859830473665 L1.896743796268295,6.798935420441368 L1.8254494009222362,6.835347074509992 L1.7528626260538989,6.869180543678124 L1.6790640123613665,6.900398287068237 L1.604135445172584,6.928965666154928 L1.5281600635871857,6.954850983199066 L1.4512221682271673,6.978025516418912 L1.373407127698762,6.998463551859181 L1.2948012838693006,7.016142411922681 L1.2154918560641625,7.031042480532884 L1.1355668442901228,7.04314722489949 L1.0551149315924642,7.052443213862853 L0.9742253856542147,7.058920132796903 L0.8929879597466771,7.062570795054025 L0.8114927931411569,7.0633911499392115 L0.7298303110924043,7.061380287204621 L0.6480911245047261,7.056540438059569 L0.5663659293921073,7.048876972694832 L0.48474540624389983,7.0383983943239965 L0.4033201194077298,7.025116329748477 L0.32218041660128494,7.0090455164566805 L0.24141632866445717,6.990203786271603 L0.16111746966309193,6.96861204556503 L0.08137293745518137,6.944294252060288 L0.00227121482982906,6.917277388249273 L-0.07609992867131543,6.887591431453274 L-0.1536535341412223,6.855269320560785 L-0.23030354979518652,6.820346919479241 L-0.3059649264520008,6.782862977341209 L-0.3805537119026712,6.742859085509194 L-0.45398714406195073,6.700379631426778 L-0.5261837427993383,6.655471749367282 L-0.5970634003476532,6.608185268134605 L-0.6665474701888576,6.558572655774273 L-0.734558854318516,6.506688961356045 L-0.8010220887920543,6.452591753892669 L-0.8658634274579007,6.396341058462561 L-0.9290109237846071,6.3379992896072945 L-0.9903945106911438,6.277631182077786 L-1.0499460782917973,6.21530371900604 L-1.1075995494694177,6.151086057582118 L-1.1632909531931397,6.085049452318838 L-1.216958495499234,6.017267175989332 L-1.2685426280563479,5.9478144383251665 L-1.3179861142390246,5.8767683025652815 L-1.365234092636213,5.8042075999482945 L-1.410234137924291,5.730212842243091 L-1.452936319037057,5.654866132414723 L-1.4932932545681483,5.5782510735247515 L-1.5312601653444151,5.500452675967122 L-1.5667949241119108,5.421557263142491 L-1.5998581022793719,5.341652375675661 L-1.630413013667321,5.260826674282427 L-1.65842575521425,5.179169841393578 L-1.6838652445947138,5.096772481645236 L-1.706703254707599,5.013726021345934 L-1.7269144449963019,4.930122607031981 L-1.7444763895660498,4.846055003223681 L-1.7593696020671894,4.76161648949585 L-1.7715775573168098,4.676900756976841 L-1.7810867096347267,4.5920018043909145 L-1.787886507873472,4.50701383375931 L-1.7919694071256167,4.422031145875744 L-1.7933308770954333,4.337148035672339 " />
			<path d="M-1.60455920582223,-11.31524354185226 L17.555765428407927,-22.44530587420927 " />
			<path d="M0.9438583563660217,-23.627395252956156 L17.55576542840793,-22.44530587420927 " />
			<path d="M17.555765428407927,-22.445305874209268 L17.593699053203117,-22.532161529817625 L17.63492132473966,-22.61720527864536 L17.679371378347206,-22.700311553625333 L17.726983583536235,-22.78135764836989 L17.77768764090146,-22.860223898346828 L17.83140868591887,-22.93679385756401 L17.888067399483184,-23.01095447050186 L17.94758012502248,-23.0825962390398 L18.009858992017087,-23.151613384130158 L18.074812045740394,-23.217904001980937 L18.14234338302996,-23.2813702145167 L18.212353293888512,-23.34191831389553 L18.284738408705707,-23.39945890086863 L18.359391850883355,-23.453907016778277 L18.436203394638653,-23.505182268999253 L18.515059627752517,-23.553208949638524 " />
			<path d="M18.515059627752535,-23.553208949638535 L18.629717755110505,-23.615383314182047 L18.74788583541687,-23.670750584215533 L18.86921570976027,-23.719147631012433 L18.993349903627635,-23.760431862232398 L19.11992268013227,-23.794481642041447 L19.248561117585314,-23.821196649487934 L19.37888620823589,-23.840498174078423 L19.510513974942572,-23.852329347682605 L19.643056602486205,-23.856655312084015 L19.77612358019084,-23.85346332168289 L19.909322852486362,-23.84276278104856 L20.04226197402274,-23.824585217210725 L20.174549265932804,-23.798984186771307 L20.305794969836626,-23.7660351181105 L20.435612396187647,-23.725835089151932 L20.563619063577036,-23.67850254134174 L20.689437825639637,-23.624176930684243 L20.812697982241243,-23.56301831686236 L20.933036371673328,-23.495206891653385 L21.050098440637317,-23.42094244802947 L21.163539288865838,-23.340443791507113 L21.273024685303255,-23.25394809547991 L21.378232052851466,-23.161710202433987 L21.478851418779612,-23.064001873104953 L21.574586327997515,-22.96111098578855 L21.665154716502055,-22.853340688164124 L21.75028974242304,-22.74100850412984 L21.829740572220086,-22.624445398281242 L21.90327311971411,-22.503994800789414 L21.97067073577602,-22.38001159555183 L22.031734846640582,-22.25286107459702 L22.08628553896481,-22.122917861823762 " />
			<path d="M22.086285538964813,-22.12291786182376 L38.698192611006725,-20.940828483076878 " />
			<path d="M38.69819261100672,-24.857284585920368 L38.69819261100672,-20.940828483076874 " />
			<path d="M19.53786797677656,-9.810766150719866 L38.69819261100672,-20.940828483076878 " />
			<path d="M3.301016566944005,-14.164848920116373 L3.360186622874957,-14.15488804345517 L3.4178526391545176,-14.142928730579719 L3.473832178706822,-14.129069516718001 L3.5279754864966093,-14.113425065573297 L3.5802079258273523,-14.096106189836192 L3.630464679600383,-14.077231052692285 L3.6786873540394516,-14.05692556217342 L3.7248242142196806,-14.035322937418139 L3.810712363840757,-13.988766824649666 L3.888184077755686,-13.938511877381378 L3.957393080698508,-13.885447108049908 L4.018551034727935,-13.830394227694814 L4.071915482545022,-13.774085039309076 L4.117723501214152,-13.717202950353135 L4.156182993995939,-13.660392795652324 L4.187467097556978,-13.60426854503536 L4.211712630694416,-13.549410944055744 L4.228994737168617,-13.496429069691441 L4.2393517020389195,-13.445949032141275 L4.242803407304823,-13.398570809299729 " />
			<path d="M4.242803407304823,-13.398570809299727 L4.240486295137244,-13.362489174746393 L4.2335256142217075,-13.3291781079476 L4.2219222523462285,-13.29896481488617 L4.205697343712552,-13.272131018330205 L4.184887613809414,-13.248900141440188 L4.159542047467051,-13.229435590282955 L4.129740206301057,-13.213848626520676 L4.095607500450882,-13.202186883591446 L4.057254909086457,-13.194411661967374 L4.014809533007842,-13.190425994381021 L3.9684200933351494,-13.190077622188333 L3.9182609944642977,-13.19316229712845 L3.8644777027044466,-13.199436601432527 L3.807157062094084,-13.208641060222872 L3.682223122698886,-13.234753068429887 L3.5440828928915287,-13.269253980230788 L3.3930624708458597,-13.309915212456621 L3.0528912622389064,-13.400936954604845 L2.864267283267032,-13.446731674467653 L2.6650838630947873,-13.489237964319743 L2.562346952146421,-13.508374690366914 L2.4580163759014426,-13.525643016484773 L2.3528659587721013,-13.540670061358176 L2.2479206258582205,-13.553114845146823 " />
			<path d="M9.908025061506128,-18.002801448515346 L9.967195107596133,-17.992840573701898 L10.02486111457125,-17.980881263332144 L10.080840645474092,-17.967022052570748 L10.13498394534248,-17.95137760505019 L10.187216377444408,-17.93405873341528 L10.237473124677559,-17.91518360079727 L10.285695793288996,-17.89487811516092 L10.331832648398397,-17.87327549556107 L10.417720796000475,-17.826719389931455 L10.495192514385485,-17.77646444694751 L10.56440152447037,-17.72339967869806 L10.62555948963258,-17.668346794766396 L10.678923947058612,-17.61203760209694 L10.724731973891474,-17.555155508355487 L10.7631914734637,-17.49834534855468 L10.794475582504656,-17.442221092695856 L10.818721119861943,-17.38736348649624 L10.836003229337118,-17.3343816070715 L10.846360196003019,-17.283901564787644 L10.849811901866945,-17.236523337698703 " />
			<path d="M10.849811901866943,-17.236523337698696 L10.847494789790348,-17.20044170382722 L10.84053410914816,-17.167130637595026 L10.828930747727693,-17.13691734496666 L10.81270583972861,-17.11008354869642 L10.791896110636545,-17.086852671935723 L10.766550545277886,-17.067388120747164 L10.736748705256353,-17.051801156790788 L10.70261600070517,-17.040139413514154 L10.664263410786779,-17.032364191401108 L10.621818036290552,-17.028378523199336 L10.575428598323288,-17.028030150283772 L10.525269501267012,-17.031114824415653 L10.471486211439919,-17.03738912784612 L10.41416557288021,-17.046593585715488 L10.289231637923738,-17.072705592011946 L10.151091410836687,-17.107206502503338 L10.000070978466391,-17.147867737277952 L9.659899749666678,-17.23888948482042 L9.471275772134012,-17.284684204174592 L9.272092353678529,-17.327190493498623 L9.169355443672083,-17.346327219301017 L9.06502486841375,-17.363595545200493 L8.95987445230634,-17.378622589891815 L8.85492912042034,-17.39106737354579 " />
			<path d="M2.9259609047346546,-10.992855529466746 L22.086285538964813,-22.12291786182376 " />

       </g>
    </g>
    <g transform="translate(20,210.0)" stroke="rgb(0,0,255)">
        <line x1="30" y1="-30" x2="75" y2="-33" stroke-width="3" stroke="#000000" />
         <text x="80" y="-30" style="stroke:#000000">X </text>

        <line x1="30" y1="-30" x2="30" y2="-75" stroke-width="3" stroke="#000000" />
         <text x="25" y="-85" style="stroke:#000000">Y </text>

        <line x1="30" y1="-30" x2="58" y2="-15" stroke-width="3" stroke="#000000" />
         <text x="65" y="-5" style="stroke:#000000">Z </text>
        <!--
            <line x1="0" y1="0" x2="4.094851280620599" y2="0" stroke-width="3" />
            <text x="0" y="20" style="stroke:#000000">1  mm </text>
        -->
    </g>
</svg>
